<svg width="1924" height="612" viewBox="0 0 1924 612" fill="none" xmlns="http://www.w3.org/2000/svg">
<path d="M921.284 345.585C921.284 368.385 921.584 386.535 922.184 400.035C923.084 413.535 923.834 423.885 924.434 431.085C925.334 437.985 926.084 443.085 926.684 446.385C927.584 449.685 928.034 452.685 928.034 455.385C928.034 456.585 927.584 457.785 926.684 458.985C925.784 460.185 923.834 460.785 920.834 460.785C919.034 460.785 917.384 459.135 915.884 455.835C914.684 452.535 913.334 448.635 911.834 444.135C910.334 439.635 908.534 435.735 906.434 432.435C904.634 429.135 902.384 427.485 899.684 427.485C885.884 433.485 871.034 437.985 855.134 440.985C839.234 443.985 825.134 445.485 812.834 445.485C787.934 445.485 764.534 442.335 742.634 436.035C721.034 429.735 701.984 420.435 685.484 408.135C669.284 395.535 656.534 380.235 647.234 362.235C637.934 343.935 633.284 322.935 633.284 299.235C633.284 272.235 638.384 248.385 648.584 227.685C658.784 206.685 672.584 189.135 689.984 175.035C707.684 160.935 727.484 150.285 749.384 143.085C771.584 135.885 794.534 132.285 818.234 132.285C833.834 132.285 846.734 133.785 856.934 136.785C867.434 139.485 878.834 143.385 891.134 148.485V139.035C891.134 137.535 891.734 136.485 892.934 135.885C894.434 135.285 895.934 134.985 897.434 134.985C898.934 134.985 900.434 135.285 901.934 135.885C903.434 136.485 904.184 137.535 904.184 139.035C904.184 150.135 904.484 161.685 905.084 173.685C905.684 185.385 906.734 196.485 908.234 206.985C908.534 208.185 907.784 209.235 905.984 210.135C904.484 211.035 902.834 211.485 901.034 211.485C896.834 211.485 894.434 210.135 893.834 207.435L890.684 187.635C878.084 176.235 864.884 167.535 851.084 161.535C837.584 155.235 823.334 152.085 808.334 152.085C786.734 152.085 766.934 157.335 748.934 167.835C730.934 178.035 716.384 193.335 705.284 213.735C694.484 233.835 689.084 258.735 689.084 288.435C689.084 318.435 694.784 343.635 706.184 364.035C717.884 384.435 733.334 399.735 752.534 409.935C771.734 420.135 792.734 425.235 815.534 425.235C825.434 425.235 835.184 423.735 844.784 420.735C854.684 417.735 862.934 412.935 869.534 406.335V364.935C869.534 353.235 868.934 344.685 867.734 339.285C866.834 333.585 865.634 329.835 864.134 328.035C862.934 326.235 861.584 325.335 860.084 325.335H812.384C809.984 325.335 808.784 322.485 808.784 316.785C808.784 315.285 808.934 313.935 809.234 312.735C809.834 311.235 810.884 310.485 812.384 310.485C818.684 310.485 826.784 310.485 836.684 310.485C846.884 310.485 856.934 310.635 866.834 310.935C876.734 310.935 884.684 310.935 890.684 310.935C903.584 310.935 913.634 310.785 920.834 310.485C928.334 310.185 934.484 310.035 939.284 310.035C944.084 309.735 948.884 309.585 953.684 309.585C955.184 309.585 956.084 310.335 956.384 311.835C956.984 313.335 957.284 314.985 957.284 316.785C957.284 318.885 956.984 320.835 956.384 322.635C955.784 324.135 954.884 324.885 953.684 324.885H939.734C932.234 324.885 927.284 326.385 924.884 329.385C922.484 332.385 921.284 337.785 921.284 345.585Z" fill="white"/>
<path d="M1043.5 395.985C1043.5 405.885 1044.4 413.385 1046.2 418.485C1048 423.285 1050.1 425.685 1052.5 425.685H1071.4C1072.6 425.685 1073.5 426.585 1074.1 428.385C1074.7 430.185 1075 431.835 1075 433.335C1075 434.835 1074.7 436.335 1074.1 437.835C1073.8 439.035 1073.35 439.635 1072.75 439.635H1026.85C1018.45 439.635 1011.7 439.635 1006.6 439.635C1001.8 439.935 997.305 440.085 993.105 440.085C989.205 440.385 984.405 440.535 978.705 440.535C977.805 440.535 977.055 439.785 976.455 438.285C975.855 436.485 975.555 434.985 975.555 433.785C975.555 432.285 975.705 430.785 976.005 429.285C976.605 427.785 977.205 427.035 977.805 427.035H999.855C1003.45 427.035 1005.25 424.485 1005.25 419.385V271.785C1005.25 248.085 1001.95 236.235 995.355 236.235H979.605C976.305 236.235 974.655 233.985 974.655 229.485C974.655 227.685 974.955 226.035 975.555 224.535C976.455 223.035 977.505 222.285 978.705 222.285C978.705 222.285 982.605 222.435 990.405 222.735C998.205 222.735 1008.25 222.885 1020.55 223.185C1033.15 223.185 1046.35 223.185 1060.15 223.185C1089.55 223.185 1111.6 229.335 1126.3 241.635C1141.3 253.935 1148.8 268.785 1148.8 286.185C1148.8 297.285 1145.8 307.035 1139.8 315.435C1134.1 323.835 1126.45 330.585 1116.85 335.685C1107.25 340.485 1096.9 343.335 1085.8 344.235C1091.8 348.135 1097.2 353.235 1102 359.535C1107.1 365.535 1112.8 372.435 1119.1 380.235C1125.7 387.735 1133.65 395.535 1142.95 403.635C1152.55 411.735 1164.85 419.685 1179.85 427.485C1177.45 432.285 1173.85 436.485 1169.05 440.085C1164.25 443.685 1158.4 445.485 1151.5 445.485C1141.3 445.485 1132.45 442.635 1124.95 436.935C1117.75 431.235 1111.45 424.035 1106.05 415.335C1100.65 406.635 1095.7 397.635 1091.2 388.335C1087 378.735 1082.65 370.035 1078.15 362.235C1073.95 354.435 1069.3 348.735 1064.2 345.135L1043.5 343.785V395.985ZM1052.5 236.685C1046.5 236.685 1043.5 241.635 1043.5 251.535V326.235C1047.7 327.135 1051.9 327.585 1056.1 327.585C1064.5 327.585 1072.45 326.085 1079.95 323.085C1087.75 319.785 1094.05 314.985 1098.85 308.685C1103.65 302.085 1106.05 294.135 1106.05 284.835C1106.05 277.935 1104.25 270.735 1100.65 263.235C1097.35 255.735 1091.8 249.435 1084 244.335C1076.2 239.235 1065.7 236.685 1052.5 236.685Z" fill="white"/>
<path d="M1297.75 221.385C1298.95 218.685 1301.95 217.335 1306.75 217.335C1311.25 217.335 1314.1 218.835 1315.3 221.835C1316.8 228.435 1319.65 237.585 1323.85 249.285C1328.35 260.985 1333.6 274.185 1339.6 288.885C1345.6 303.285 1351.75 318.135 1358.05 333.435C1364.65 348.435 1370.95 362.835 1376.95 376.635C1383.25 390.135 1388.65 401.685 1393.15 411.285C1396.75 418.785 1400.05 423.585 1403.05 425.685C1406.05 427.485 1410.7 428.385 1417 428.385C1418.8 428.385 1419.7 430.185 1419.7 433.785C1419.7 435.285 1419.55 436.785 1419.25 438.285C1418.95 439.785 1418.35 440.535 1417.45 440.535C1408.15 440.535 1400.35 440.385 1394.05 440.085C1387.75 439.785 1381.15 439.635 1374.25 439.635C1368.55 439.635 1361.65 439.785 1353.55 440.085C1345.45 440.385 1336.15 440.535 1325.65 440.535C1324.45 440.535 1323.7 439.935 1323.4 438.735C1323.1 437.235 1322.95 435.885 1322.95 434.685C1322.95 430.785 1323.85 428.835 1325.65 428.835H1347.25C1350.55 428.835 1352.2 427.485 1352.2 424.785C1352.2 423.885 1351 420.135 1348.6 413.535C1346.2 406.935 1343.05 398.535 1339.15 388.335C1335.55 378.135 1331.5 367.185 1327 355.485H1264.45C1258.15 371.085 1252.9 384.585 1248.7 395.985C1244.5 407.385 1242.4 415.185 1242.4 419.385C1242.4 422.985 1243 425.385 1244.2 426.585C1245.4 427.785 1246.6 428.385 1247.8 428.385H1266.25C1268.65 428.385 1269.85 430.185 1269.85 433.785C1269.85 435.285 1269.55 436.785 1268.95 438.285C1268.65 439.785 1268.05 440.535 1267.15 440.535C1259.65 440.535 1253.65 440.385 1249.15 440.085C1244.95 440.085 1241.05 439.935 1237.45 439.635C1234.15 439.635 1230.25 439.635 1225.75 439.635C1220.35 439.635 1214.95 439.785 1209.55 440.085C1204.45 440.385 1198 440.535 1190.2 440.535C1189 440.535 1188.1 439.935 1187.5 438.735C1187.2 437.235 1187.05 435.885 1187.05 434.685C1187.05 430.785 1188.1 428.835 1190.2 428.835H1204.6C1207.9 428.835 1210.3 427.485 1211.8 424.785C1214.8 419.985 1219 411.585 1224.4 399.585C1230.1 387.285 1236.4 373.035 1243.3 356.835C1250.2 340.635 1257.1 323.985 1264 306.885C1271.2 289.785 1277.8 273.735 1283.8 258.735C1289.8 243.435 1294.45 230.985 1297.75 221.385ZM1321.15 340.185C1316.95 327.885 1312.75 315.735 1308.55 303.735C1304.65 291.735 1301.05 281.085 1297.75 271.785H1296.4C1292.5 282.885 1288.3 294.435 1283.8 306.435C1279.3 318.435 1274.95 329.685 1270.75 340.185H1321.15Z" fill="white"/>
<path d="M1510.2 391.485C1510.2 404.085 1511.1 412.935 1512.9 418.035C1514.7 423.135 1516.8 425.685 1519.2 425.685H1541.7C1542.6 425.685 1543.35 426.435 1543.95 427.935C1544.85 429.435 1545.3 431.235 1545.3 433.335C1545.3 434.835 1545 436.335 1544.4 437.835C1544.1 439.035 1543.5 439.635 1542.6 439.635C1537.2 439.635 1530.15 439.635 1521.45 439.635C1512.75 439.335 1502.4 439.185 1490.4 439.185C1476 439.185 1465.8 439.335 1459.8 439.635C1453.8 440.235 1449 440.535 1445.4 440.535C1444.2 440.535 1443.3 439.635 1442.7 437.835C1442.4 436.035 1442.25 434.535 1442.25 433.335C1442.25 431.835 1442.4 430.485 1442.7 429.285C1443.3 427.785 1444.05 427.035 1444.95 427.035H1465.2C1468.5 427.035 1470.45 426.285 1471.05 424.785C1471.65 423.285 1471.95 419.685 1471.95 413.985V272.235C1471.95 259.635 1471.05 250.485 1469.25 244.785C1467.75 239.085 1465.65 236.235 1462.95 236.235H1446.75C1443.15 236.235 1441.35 233.985 1441.35 229.485C1441.35 224.685 1443 222.285 1446.3 222.285C1452 222.285 1458.75 222.585 1466.55 223.185C1474.35 223.485 1482.3 223.485 1490.4 223.185C1495.8 223.185 1502.1 223.185 1509.3 223.185C1516.8 222.885 1523.25 222.735 1528.65 222.735C1534.35 222.435 1537.2 222.285 1537.2 222.285C1538.1 222.285 1538.85 223.035 1539.45 224.535C1540.05 226.035 1540.35 227.535 1540.35 229.035C1540.35 233.235 1539.15 235.335 1536.75 235.335H1516.05C1513.95 235.335 1512.45 235.785 1511.55 236.685C1510.65 237.585 1510.2 239.535 1510.2 242.535V391.485Z" fill="white"/>
<path d="M1648.19 391.485C1648.19 404.085 1649.09 412.935 1650.89 418.035C1652.69 422.835 1654.79 425.235 1657.19 425.235H1668.89C1682.99 424.935 1696.34 423.585 1708.94 421.185C1721.84 418.785 1731.29 415.485 1737.29 411.285L1739.54 393.735C1739.84 392.835 1740.74 392.235 1742.24 391.935C1744.04 391.335 1745.54 391.035 1746.74 391.035C1748.24 391.035 1749.59 391.185 1750.79 391.485C1751.99 391.785 1752.44 392.535 1752.14 393.735C1750.94 401.535 1750.19 410.385 1749.89 420.285C1749.59 429.885 1749.44 438.735 1749.44 446.835C1749.44 447.735 1748.69 448.335 1747.19 448.635C1745.99 448.935 1744.94 449.085 1744.04 449.085C1742.84 449.085 1741.34 448.935 1739.54 448.635C1738.04 448.335 1737.29 447.735 1737.29 446.835V439.635H1659.89C1641.59 439.635 1627.49 439.635 1617.59 439.635C1607.69 439.935 1600.34 440.085 1595.54 440.085C1590.74 440.385 1586.69 440.535 1583.39 440.535C1582.19 440.535 1581.29 439.635 1580.69 437.835C1580.39 436.035 1580.24 434.535 1580.24 433.335C1580.24 431.835 1580.39 430.485 1580.69 429.285C1581.29 427.785 1582.04 427.035 1582.94 427.035H1603.19C1606.49 427.035 1608.44 426.285 1609.04 424.785C1609.64 423.285 1609.94 419.685 1609.94 413.985V272.235C1609.94 259.635 1609.04 250.485 1607.24 244.785C1605.74 239.085 1603.64 236.235 1600.94 236.235H1584.74C1581.14 236.235 1579.34 233.985 1579.34 229.485C1579.34 224.685 1580.99 222.285 1584.29 222.285C1589.99 222.285 1596.74 222.585 1604.54 223.185C1612.34 223.485 1620.29 223.485 1628.39 223.185C1633.79 223.185 1640.09 223.185 1647.29 223.185C1654.79 222.885 1661.24 222.735 1666.64 222.735C1672.34 222.435 1675.19 222.285 1675.19 222.285C1676.09 222.285 1676.84 223.035 1677.44 224.535C1678.04 226.035 1678.34 227.535 1678.34 229.035C1678.34 233.235 1677.14 235.335 1674.74 235.335H1654.04C1651.94 235.335 1650.44 235.785 1649.54 236.685C1648.64 237.585 1648.19 239.535 1648.19 242.535V391.485Z" fill="white"/>
<path d="M1898.15 224.535C1897.85 223.035 1897.55 221.835 1897.25 220.935C1897.25 219.735 1897.25 218.835 1897.25 218.235C1897.25 215.535 1898.75 214.185 1901.75 214.185C1904.15 214.185 1905.8 214.635 1906.7 215.535C1907.9 216.135 1908.8 218.085 1909.4 221.385C1910.9 226.185 1911.8 230.535 1912.1 234.435C1912.7 238.035 1913.3 241.635 1913.9 245.235C1914.8 249.135 1915.55 252.735 1916.15 256.035C1917.05 259.035 1917.95 263.985 1918.85 270.885C1918.85 273.285 1916.9 274.485 1913 274.485C1911.8 274.485 1910.6 274.335 1909.4 274.035C1908.2 273.435 1907.3 272.385 1906.7 270.885C1902.8 259.785 1896.65 250.635 1888.25 243.435C1879.85 236.235 1870.4 232.485 1859.9 232.185C1851.5 232.185 1843.4 234.885 1835.6 240.285C1828.1 245.685 1824.35 253.185 1824.35 262.785C1824.35 272.385 1827.65 280.785 1834.25 287.985C1840.85 295.185 1849.1 301.935 1859 308.235C1868.9 314.535 1878.8 321.285 1888.7 328.485C1898.6 335.685 1906.85 344.235 1913.45 354.135C1920.05 364.035 1923.35 376.185 1923.35 390.585C1923.35 402.885 1919.45 413.085 1911.65 421.185C1904.15 429.285 1894.55 435.435 1882.85 439.635C1871.45 443.535 1859.75 445.485 1847.75 445.485C1839.35 445.485 1830.8 444.285 1822.1 441.885C1813.7 439.785 1806.8 437.535 1801.4 435.135C1801.4 438.435 1801.1 440.535 1800.5 441.435C1800.2 442.335 1798.7 443.085 1796 443.685H1794.2C1791.8 443.685 1790.45 442.485 1790.15 440.085C1789.25 429.585 1788.05 420.135 1786.55 411.735C1785.35 403.035 1784 392.385 1782.5 379.785C1782.5 378.285 1783.25 377.235 1784.75 376.635C1786.25 375.735 1787.9 375.285 1789.7 375.285C1792.4 375.285 1793.9 376.035 1794.2 377.535C1796.9 386.535 1800.95 395.235 1806.35 403.635C1811.75 411.735 1818.35 418.485 1826.15 423.885C1833.95 428.985 1842.5 431.535 1851.8 431.535C1860.5 431.535 1868.75 428.985 1876.55 423.885C1884.65 418.485 1888.7 410.385 1888.7 399.585C1888.7 389.085 1885.4 380.085 1878.8 372.585C1872.2 364.785 1863.95 357.585 1854.05 350.985C1844.45 344.385 1834.7 337.485 1824.8 330.285C1815.2 323.085 1807.1 314.985 1800.5 305.985C1793.9 296.985 1790.6 286.035 1790.6 273.135C1790.6 261.135 1794.05 251.085 1800.95 242.985C1807.85 234.885 1816.7 228.735 1827.5 224.535C1838.6 220.335 1850.3 218.235 1862.6 218.235C1870.1 218.235 1876.85 218.985 1882.85 220.485C1889.15 221.685 1894.25 223.035 1898.15 224.535Z" fill="white"/>
<path fill-rule="evenodd" clip-rule="evenodd" d="M106.149 536.719C65.5943 558.613 84.8907 575.491 121.928 590.882C154.927 603.291 206.91 611.269 265.768 611.285C321.444 610.137 380.27 604.019 423.372 587.528C452.515 573.758 462.55 558.144 434.993 541.558L106.149 536.719Z" fill="url(#paint0_linear_4156_24295)"/>
<path d="M106.149 536.719C65.5943 558.613 84.8907 575.491 121.928 590.882C154.927 603.291 206.91 611.269 265.768 611.285C321.444 610.137 380.27 604.019 423.372 587.528C452.515 573.758 462.55 558.144 434.993 541.558L106.149 536.719ZM106.149 536.719H106.148" stroke="#24211C" stroke-width="0.56786" stroke-miterlimit="1.5" stroke-linecap="round" stroke-linejoin="round"/>
<path fill-rule="evenodd" clip-rule="evenodd" d="M110.216 534.406C84.9735 547.748 87.6644 562.377 117.32 578.25C152.888 593.092 204.601 599.604 267.325 600.433C317.884 599.244 366.24 594.53 408.935 580.764C446.658 564.796 450.496 549.119 429.054 537.836L110.216 534.406H110.216Z" fill="url(#paint1_linear_4156_24295)" stroke="#24211C" stroke-width="0.56786" stroke-miterlimit="1.5" stroke-linecap="round" stroke-linejoin="round"/>
<path fill-rule="evenodd" clip-rule="evenodd" d="M142.939 522.836C82.3022 536.149 81.9947 565.284 137.182 580.9C178.616 593.014 221.85 596.028 265.67 596.074C318.689 596.966 368.198 591.622 411.871 575.403C454.777 552.92 444.532 533.971 375.649 519.355L142.939 522.836Z" fill="#573D16" stroke="#24211C" stroke-width="0.56786" stroke-miterlimit="1.5" stroke-linecap="round" stroke-linejoin="round"/>
<path fill-rule="evenodd" clip-rule="evenodd" d="M175.355 514.648C103.703 528.328 107.904 547.328 169.843 562.371C231.432 576.391 321.484 571.684 362.497 561.519C426.286 546.136 418.354 529.159 365.099 516.66L175.355 514.649L175.355 514.648Z" fill="url(#paint2_linear_4156_24295)" stroke="#24211C" stroke-width="0.56786" stroke-miterlimit="1.5" stroke-linecap="round" stroke-linejoin="round"/>
<path fill-rule="evenodd" clip-rule="evenodd" d="M222.193 470.301C220.316 501.443 203.573 509.744 175.493 514.641C124.242 526.114 114.051 538.456 151.394 551.795C181.687 561.763 221.949 566.071 268.633 566.21C312.567 564.98 348.722 559.428 380.005 551.994C413.632 541.758 409.61 525.87 365.129 516.65C329.599 510.836 308.87 496.28 309.24 470.582L222.193 470.301Z" fill="url(#paint3_linear_4156_24295)" stroke="#24211C" stroke-width="0.56786" stroke-miterlimit="1.5" stroke-linecap="round" stroke-linejoin="round"/>
<path fill-rule="evenodd" clip-rule="evenodd" d="M218.41 456.893C215.457 463.396 216.686 467.881 222.195 470.302C248.886 476.094 277.815 476.399 309.24 470.583C315.069 468.276 315.48 462.755 313.123 455.59C285.797 458.918 254.654 459.645 218.411 456.893H218.41Z" fill="url(#paint4_linear_4156_24295)" stroke="#24211C" stroke-width="0.56786" stroke-miterlimit="1.5" stroke-linecap="round" stroke-linejoin="round"/>
<path fill-rule="evenodd" clip-rule="evenodd" d="M216.07 410.431C203.047 426.536 203.926 442.019 218.408 456.896C250.43 467.395 281.835 468.383 313.12 455.593C329.302 441.158 328.929 425.514 314.69 409.375C281.215 420.773 248.385 420.337 216.07 410.431Z" fill="url(#paint5_linear_4156_24295)" stroke="#24211C" stroke-width="0.56786" stroke-miterlimit="1.5" stroke-linecap="round" stroke-linejoin="round"/>
<path fill-rule="evenodd" clip-rule="evenodd" d="M225.675 400.382C215.424 401.492 214.462 405.592 215.537 410.347C245.391 420.471 278.268 420.435 314.329 409.702C315.391 403.585 312.513 399.712 304.216 398.926C285.492 410.99 248.032 411.348 225.675 400.382V400.381L225.675 400.382Z" fill="url(#paint6_linear_4156_24295)" stroke="#24211C" stroke-width="0.56786" stroke-miterlimit="1.5" stroke-linecap="round" stroke-linejoin="round"/>
<path fill-rule="evenodd" clip-rule="evenodd" d="M207.027 368.666C248.068 383.942 288.659 384.001 326.966 368.105C312.16 373.796 303.037 381.605 304.216 398.93C290.98 411.473 242.61 412.468 225.675 400.385C228.922 382.841 221.517 373.356 207.027 368.666Z" fill="url(#paint7_linear_4156_24295)" stroke="#24211C" stroke-width="0.56786" stroke-miterlimit="1.5" stroke-linecap="round" stroke-linejoin="round"/>
<path fill-rule="evenodd" clip-rule="evenodd" d="M5.20934 53.7683C0.0681188 45.1517 -1.35476 37.315 2.40802 30.1406C1.39135 64.4889 132.653 69.6604 266.307 74.5948C416.171 71.6514 534.966 64.8315 531.585 31.1182C534.301 33.9397 534.746 46.1301 525.365 58.1969C465.579 81.1159 371.669 87.4198 266 87.9983C147.545 85.0608 36.243 80.2012 5.21024 53.7687L5.20934 53.7683Z" fill="#8A6522" stroke="#24211C" stroke-width="0.56786" stroke-miterlimit="1.5" stroke-linecap="round" stroke-linejoin="round"/>
<path fill-rule="evenodd" clip-rule="evenodd" d="M22.4174 113.199C62.9175 134.481 149.243 143.376 267.613 143.611C356.254 143.861 442.598 141.496 510.369 117.986C504.799 143.728 499.174 175.237 498.489 180.854C487.322 272.482 439.438 325.831 345.659 349.442C296.893 364.391 242.003 364.267 181.249 349.711C112.024 329.199 49.5662 287.226 35.4334 200.081C31.5185 175.94 27.8495 147.358 22.417 113.2L22.4174 113.199Z" fill="url(#paint8_linear_4156_24295)" stroke="#24211C" stroke-width="0.56786" stroke-miterlimit="1.5" stroke-linecap="round" stroke-linejoin="round"/>
<path fill-rule="evenodd" clip-rule="evenodd" d="M23.4758 101.278C19.3122 87.3376 14.3065 74.7183 8.69043 61.0352C45.6544 82.6846 109.814 85.2749 185.077 90.5489C241.135 92.5802 296.929 92.4319 352.468 90.1634C420.37 85.6141 484.262 79.6553 522.488 64.6778C517.819 77.6223 513.774 90.6313 510.299 103.701C509.087 120.238 377.696 134.112 267.716 131.624C138.731 133.213 42.1802 119.434 23.4767 101.277L23.4758 101.278Z" fill="url(#paint9_linear_4156_24295)" stroke="#24211C" stroke-width="0.56786" stroke-miterlimit="1.5" stroke-linecap="round" stroke-linejoin="round"/>
<path fill-rule="evenodd" clip-rule="evenodd" d="M35.6565 82.7793C38.3528 81.7176 38.7491 82.6463 37.6763 84.8476C36.5659 85.6331 35.9339 86.4683 37.42 87.5254C39.4255 89.0662 41.3915 90.7673 43.2188 93.0256C46.5467 94.092 46.6158 94.784 44.7485 95.2533C43.6592 95.8156 42.0657 95.7344 39.0655 93.8536L33.3628 88.5643C31.9206 87.4022 32.0678 85.8482 33.4701 83.9839C33.774 83.6341 34.4674 83.2371 35.6565 82.7793Z" fill="#AB8035"/>
<path d="M35.6565 82.7793C38.3528 81.7176 38.7491 82.6463 37.6763 84.8476C36.5659 85.6331 35.9339 86.4683 37.42 87.5254C39.4255 89.0662 41.3915 90.7673 43.2188 93.0256C46.5467 94.092 46.6158 94.784 44.7485 95.2533C43.6592 95.8156 42.0657 95.7344 39.0655 93.8536L33.3628 88.5643C31.9206 87.4022 32.0678 85.8482 33.4701 83.9839C33.774 83.6341 34.4674 83.2371 35.6565 82.7793ZM35.6565 82.7793V82.7798" stroke="#AB8035" stroke-width="0.181912" stroke-miterlimit="1.5" stroke-linecap="round" stroke-linejoin="round"/>
<path fill-rule="evenodd" clip-rule="evenodd" d="M51.9128 96.0061C49.6779 99.6411 48.1814 100.042 47.8129 95.5067C47.9529 90.4239 46.0422 87.5999 42.3952 86.6886C42.5204 85.9231 42.2623 85.6034 41.5275 85.8389C40.7766 86.329 40.2371 86.0132 40.1244 84.0643C40.0292 81.8609 40.7568 80.4263 42.6169 80.0498C44.0169 79.603 44.9766 79.6902 44.701 81.2739C44.3141 82.4045 44.8451 82.8759 47.1279 82.0913C49.3399 80.9003 50.5348 81.066 50.8548 82.4126C52.0201 85.9473 52.8204 95.0944 51.9128 96.0065V96.0061Z" fill="#AB8035" stroke="#AB8035" stroke-width="0.181912" stroke-miterlimit="1.5" stroke-linecap="round" stroke-linejoin="round"/>
<path fill-rule="evenodd" clip-rule="evenodd" d="M40.3095 99.8107C44.6472 100.417 45.8026 99.6666 42.0048 96.8035C38.9234 96.1774 35.9268 94.2647 33.0294 90.8439C31.6716 88.745 31.1388 90.6182 31.7614 91.8708C34.0977 94.8291 36.5004 97.7475 40.3099 99.8111L40.3095 99.8107Z" fill="#AB8035" stroke="#AB8035" stroke-width="0.181912" stroke-miterlimit="1.5" stroke-linecap="round" stroke-linejoin="round"/>
<path d="M435.603 118.766C444.635 118.766 451.956 111.587 451.956 102.733C451.956 93.8776 444.635 86.6992 435.603 86.6992C426.571 86.6992 419.249 93.8776 419.249 102.733C419.249 111.587 426.571 118.766 435.603 118.766Z" fill="#AB8035" stroke="#AB8035" stroke-width="0.181912" stroke-miterlimit="1.5" stroke-linecap="round" stroke-linejoin="round"/>
<path fill-rule="evenodd" clip-rule="evenodd" d="M454.586 108.107C454.801 105.929 454.2 105.658 452.78 107.305L447.709 114.444C446.915 116.671 447.207 117.284 449.002 115.666C449.542 114.966 450.159 114.575 450.82 114.356C452.697 114.01 453.454 114.186 452.105 115.346C448.283 117.472 449.942 117.723 453.789 117.226C459.593 116.474 465.365 115.532 470.953 113.523C471.997 112.556 472.196 111.687 470.091 111.087C465.864 110.068 463.567 108.504 464.767 105.957C465.774 104.704 462.752 100.049 459.699 95.3674C459.442 94.2814 459.737 93.9987 460.795 94.8288C465.545 101.757 470.594 108.455 479.107 112.477C481.786 113.076 484.443 113.119 487.045 111.708C488.396 110.729 488.917 109.935 486.41 109.814C482.015 111.774 476.846 109.51 470.767 102.282C463.814 93.7789 457.041 86.8719 450.847 85.0969C446.359 84.6969 445.747 85.6864 446.632 87.2115C454.454 92.8086 457.819 98.423 457.683 104.051C457.657 109.64 456.698 112.555 454.438 111.741C453.864 111.081 453.529 110.209 454.585 108.108L454.586 108.107H454.586L454.586 108.107Z" fill="#AB8035" stroke="#AB8035" stroke-width="0.181912" stroke-miterlimit="1.5" stroke-linecap="round" stroke-linejoin="round"/>
<path fill-rule="evenodd" clip-rule="evenodd" d="M466.124 88.5724C464.53 87.2713 464.861 86.5194 467.179 86.3353C468.488 86.6235 469.208 86.3634 469.664 85.8571C472.239 84.7567 472.124 85.8563 471.477 87.3886C469.801 89.1181 470.348 90.7376 472.065 92.2992C473.549 92.7166 475.527 96.0281 477.533 99.5004C478.882 101.343 479.362 101.008 478.924 98.3736C477.778 89.8594 481.864 83.1066 489.56 77.57C495.114 74.9857 501.159 73.6565 507.798 73.8461C510.247 74.5007 511.736 74.6452 511.898 74.0854C517.567 70.739 517.782 72.372 514.677 77.0374C511.994 79.7602 511.527 81.0928 511.869 82.3675C512.699 94.2748 508.209 98.8241 503.811 103.5C494.274 110.085 486.645 109.871 480.718 103.598L473.177 99.4426L469.105 92.7621L466.977 91.2672C463.49 90.8238 463.194 89.927 466.125 88.5715L466.124 88.5724Z" fill="#AB8035" stroke="#AB8035" stroke-width="0.181912" stroke-miterlimit="1.5" stroke-linecap="round" stroke-linejoin="round"/>
<path fill-rule="evenodd" clip-rule="evenodd" d="M500.892 76.9779C507.442 75.7755 508.412 76.3701 507.703 81.2569C504.815 91.9864 500.235 98.8072 494.781 103.607C490.568 106.002 486.807 105.332 483.576 101.044C481.402 97.5363 481.814 93.9268 483.598 90.2637C486.986 84.1141 491.65 78.835 500.892 76.9784" fill="#593E17"/>
<path d="M500.892 76.9779C507.442 75.7755 508.412 76.3701 507.703 81.2569C504.815 91.9864 500.235 98.8072 494.781 103.607C490.568 106.002 486.807 105.332 483.576 101.044C481.402 97.5363 481.814 93.9268 483.598 90.2637C486.986 84.1141 491.65 78.835 500.892 76.9784" stroke="#AB8035" stroke-width="0.181912" stroke-miterlimit="1.5" stroke-linecap="round" stroke-linejoin="round"/>
<path fill-rule="evenodd" clip-rule="evenodd" d="M498.591 80.6931C503.692 77.6659 505.609 79.5476 504.924 85.4435C502.98 91.1141 499.701 95.6455 494.905 98.8818C488.975 102.21 486.743 100.44 487.151 95.0262C486.869 93.295 490.809 88.4231 498.591 80.6927V80.6931Z" fill="#AB8035" stroke="#AB8035" stroke-width="0.181912" stroke-miterlimit="1.5" stroke-linecap="round" stroke-linejoin="round"/>
<path fill-rule="evenodd" clip-rule="evenodd" d="M413.028 118.824C410.732 119.86 411.38 120.95 414.549 122.085C418.077 122.73 421.615 122.54 425.173 120.751C426.867 119.759 426.458 118.93 423.97 118.262C420.777 118.809 419.609 117.254 418.98 115.141C418.233 113.274 414.534 114.117 414.19 116.265C415.02 117.846 414.744 118.766 413.027 118.825L413.028 118.824Z" fill="#AB8035" stroke="#AB8035" stroke-width="0.181912" stroke-miterlimit="1.5" stroke-linecap="round" stroke-linejoin="round"/>
<path fill-rule="evenodd" clip-rule="evenodd" d="M397.468 93.8538C399.43 92.3759 400.521 92.4074 400.053 95.1426C398.362 97.5288 396.517 99.5151 394.269 102.138C393.337 103.683 391.68 103.941 390.513 103.369C389.825 102.924 389.224 102.966 388.727 103.594C388.301 104.753 387.554 105.276 386.656 105.502C385.43 105.575 384.933 104.94 385.23 103.534C385.578 102.117 389.43 100.188 390.65 100.987C391.135 101.25 391.676 101.139 392.304 100.425L397.468 93.8542L397.468 93.8538H397.468Z" fill="#AB8035" stroke="#AB8035" stroke-width="0.181912" stroke-miterlimit="1.5" stroke-linecap="round" stroke-linejoin="round"/>
<path fill-rule="evenodd" clip-rule="evenodd" d="M381.976 118.361C381.299 119.945 381.478 120.775 383.79 119.732C386.074 118.351 387.4 116.626 388.461 114.805C388.305 113.781 388.523 113.495 388.846 113.418C392.061 111.99 393.099 111.017 393.436 110.191C393.638 107.6 392.558 106.574 389.612 107.834C388.135 108.561 386.831 111.73 385.556 115.308C385.442 116.073 383.888 117.175 381.976 118.362L381.976 118.361Z" fill="#AB8035" stroke="#AB8035" stroke-width="0.181912" stroke-miterlimit="1.5" stroke-linecap="round" stroke-linejoin="round"/>
<path fill-rule="evenodd" clip-rule="evenodd" d="M394.634 104.962C393.823 108.238 395.165 107.74 397.024 106.336C399.425 104.445 402.363 101.064 405.516 97.0842C405.964 96.269 407.538 94.4357 409.781 91.9977C410.225 90.7051 410.285 89.7593 407.9 91.0064C401.871 96.7841 395.45 102.836 394.634 104.962Z" fill="#AB8035" stroke="#AB8035" stroke-width="0.181912" stroke-miterlimit="1.5" stroke-linecap="round" stroke-linejoin="round"/>
<path fill-rule="evenodd" clip-rule="evenodd" d="M404.725 100.017C408.351 97.8222 408.342 99.2695 407.014 101.442C406.383 102.329 403.99 104.628 400.778 108.019C399.507 110.41 399.679 111.771 400.987 112.322C403.639 115.317 401.285 116.12 399.624 116.803C397.443 117.274 396.273 118.21 396.008 119.561C396.559 123.449 395.108 123.493 393.228 122.713C389.097 120.938 390.416 118.801 393.434 116.552C396.797 115.461 397.752 112.947 396.555 109.16C395.131 108.168 400.814 103.653 404.725 100.017L404.725 100.017Z" fill="#AB8035" stroke="#AB8035" stroke-width="0.181912" stroke-miterlimit="1.5" stroke-linecap="round" stroke-linejoin="round"/>
<path fill-rule="evenodd" clip-rule="evenodd" d="M418.453 91.6557C424.074 89.6299 424.87 90.5008 421.961 93.596C417.23 97.2404 414.255 101.168 414.105 105.551C414.221 109.146 413.863 111.964 411.512 111.52C410.146 111.501 410.056 112.169 411.037 113.413C412.333 114.327 412.497 116.609 410.142 119.479C407.593 121.554 400.9 123.125 401.979 119.34C405.166 115.935 406.606 112.975 404.928 110.815C404.544 109.973 403.695 109.303 408.138 106.672C410.246 101.211 412.475 95.7923 418.453 91.6557" fill="#AB8035"/>
<path d="M418.453 91.6557C424.074 89.6299 424.87 90.5008 421.961 93.596C417.23 97.2404 414.255 101.168 414.105 105.551C414.221 109.146 413.863 111.964 411.512 111.52C410.146 111.501 410.056 112.169 411.037 113.413C412.333 114.327 412.497 116.609 410.142 119.479C407.593 121.554 400.9 123.125 401.979 119.34C405.166 115.935 406.606 112.975 404.928 110.815C404.544 109.973 403.695 109.303 408.138 106.672C410.246 101.211 412.475 95.7923 418.453 91.6557" stroke="#AB8035" stroke-width="0.181912" stroke-miterlimit="1.5" stroke-linecap="round" stroke-linejoin="round"/>
<path d="M364.262 125.164C375.032 125.164 383.763 117.307 383.763 107.615C383.763 97.9234 375.032 90.0664 364.262 90.0664C353.492 90.0664 344.762 97.9234 344.762 107.615C344.762 117.307 353.492 125.164 364.262 125.164Z" fill="#AB8035" stroke="#AB8035" stroke-width="0.181912" stroke-miterlimit="1.5" stroke-linecap="round" stroke-linejoin="round"/>
<path fill-rule="evenodd" clip-rule="evenodd" d="M380.828 91.2789C380.476 90.1333 380.922 89.4987 382.717 89.7312C387.441 90.4504 390.874 91.1475 392.538 91.8161C394.468 92.3058 394.603 93.1873 393.23 94.3983C391.856 95.5701 390.786 96.1163 389.756 96.5822C388.657 97.42 387.764 97.2457 387.01 96.3956L380.828 91.2784" fill="#AB8035"/>
<path d="M380.828 91.2789C380.476 90.1333 380.922 89.4987 382.717 89.7312C387.441 90.4504 390.874 91.1475 392.538 91.8161C394.468 92.3058 394.603 93.1873 393.23 94.3983C391.856 95.5701 390.786 96.1163 389.756 96.5822C388.657 97.42 387.764 97.2457 387.01 96.3956L380.828 91.2784" stroke="#AB8035" stroke-width="0.181912" stroke-miterlimit="1.5" stroke-linecap="round" stroke-linejoin="round"/>
<path fill-rule="evenodd" clip-rule="evenodd" d="M286.214 95.5201C284.562 93.3022 286.08 92.9817 288.186 94.3827C296.634 100.984 298.468 106.17 298.009 111.23C297.246 118.768 293.803 124.338 288.083 128.235C284.875 129.799 282.164 128.899 284.833 125.686C293.388 115.857 294.751 103.694 286.214 95.5201Z" fill="#AB8035" stroke="#AB8035" stroke-width="0.181912" stroke-miterlimit="1.5" stroke-linecap="round" stroke-linejoin="round"/>
<path fill-rule="evenodd" clip-rule="evenodd" d="M229.778 92.6809C218.168 102.501 207.906 112.821 200.114 124.058C196.221 132.076 209.689 124.239 211.294 119.162C212.524 116.44 214.679 114.363 217.477 112.734C225.826 107.853 233.381 102.64 240.348 97.1826C243.57 93.8464 243.583 91.5728 237.477 94.3552L224.202 102.567L231.943 93.9888C232.49 92.3707 231.626 92.0676 229.778 92.6814V92.6809Z" fill="#AB8035" stroke="#AB8035" stroke-width="0.181912" stroke-miterlimit="1.5" stroke-linecap="round" stroke-linejoin="round"/>
<path fill-rule="evenodd" clip-rule="evenodd" d="M243.829 95.9827C251.428 92.9427 254.301 94.3105 248.787 97.1379C242.613 100.381 239.044 104.62 240.354 110.725C241.696 114.496 243.74 118.138 246.941 121.566C250.248 126.877 249.961 128.672 246.248 127.114C243.564 125.458 239.71 125.07 233.602 127.124C224.048 128.592 222.24 127.656 228.874 124.101C232.368 122.028 234.444 119.33 233.553 115.321C232.139 107.223 235.623 100.796 243.829 95.9827Z" fill="#AB8035"/>
<path d="M243.829 95.9827C251.428 92.9427 254.301 94.3105 248.787 97.1379C242.613 100.381 239.044 104.62 240.354 110.725C241.696 114.496 243.74 118.138 246.941 121.566C250.248 126.877 249.961 128.672 246.248 127.114C243.564 125.458 239.71 125.07 233.602 127.124C224.048 128.592 222.24 127.656 228.874 124.101C232.368 122.028 234.444 119.33 233.553 115.321C232.139 107.223 235.623 100.796 243.829 95.9827ZM243.829 95.9827V95.9822" stroke="#AB8035" stroke-width="0.181912" stroke-miterlimit="1.5" stroke-linecap="round" stroke-linejoin="round"/>
<path fill-rule="evenodd" clip-rule="evenodd" d="M219.821 113.433C222.997 112.296 228.642 115.221 227.025 116.478C225.695 117.604 225.402 119.075 226.243 120.925C226.712 121.866 226.316 122.236 225.422 122.276C223.715 122.183 223.292 122.814 223.527 123.816C223.284 124.959 222.167 124.67 220.555 123.568C218.959 122.421 218.093 121.196 217.446 119.949C217.107 118.666 217.633 118.173 218.711 118.184C220.313 118.216 220.698 117.601 220.131 116.481C219.296 114.881 219.196 113.867 219.821 113.433L219.821 113.433Z" fill="#AB8035" stroke="#AB8035" stroke-width="0.181912" stroke-miterlimit="1.5" stroke-linecap="round" stroke-linejoin="round"/>
<path fill-rule="evenodd" clip-rule="evenodd" d="M211.294 125.115C211.72 123.614 212.815 122.862 214.772 123.074C215.642 124.112 216.122 125.148 215.212 126.174C213.707 127.247 212.394 126.947 211.294 125.115" fill="#AB8035"/>
<path d="M211.294 125.115C211.72 123.614 212.815 122.862 214.772 123.074C215.642 124.112 216.122 125.148 215.212 126.174C213.707 127.247 212.394 126.947 211.294 125.115" stroke="#AB8035" stroke-width="0.181912" stroke-miterlimit="1.5" stroke-linecap="round" stroke-linejoin="round"/>
<path fill-rule="evenodd" clip-rule="evenodd" d="M257.261 93.419C260.532 92.2816 261.42 92.7895 259.073 95.5315C247.103 102.914 246.837 115.259 258.862 123.222C265.479 126.623 271.772 126.146 276.059 122.253C288.48 111.033 285.57 102.319 275.152 94.8323C273.759 93.4521 274.457 92.9349 277.054 93.2014C288.938 97.4259 291.666 109.498 284.954 119.909C273.924 134.195 256.17 129.553 248.841 119.677C241.676 107.84 245.373 99.6974 257.261 93.419Z" fill="#AB8035" stroke="#AB8035" stroke-width="0.181912" stroke-miterlimit="1.5" stroke-linecap="round" stroke-linejoin="round"/>
<path fill-rule="evenodd" clip-rule="evenodd" d="M181.438 125.298C190.333 117.515 199.381 109.89 209.285 103.142L219.605 93.3501C222.243 91.7247 224.453 92.1497 222.7 94.6737L209.275 108.009C206.143 113.414 202.358 118.825 196.007 122.785C195.609 123.033 178.299 130.368 181.438 125.298Z" fill="#AB8035" stroke="#AB8035" stroke-width="0.181912" stroke-miterlimit="1.5" stroke-linecap="round" stroke-linejoin="round"/>
<path fill-rule="evenodd" clip-rule="evenodd" d="M193.349 108.795C191.558 106.895 190.906 104.936 194.532 102.757C191.703 101.897 190.278 100.419 190.999 97.8304C192.825 94.6974 194.963 92.8679 197.724 92.5946C201.136 92.3974 202.35 94.0024 199.429 95.5185C193.739 97.2485 192.83 98.8777 195.834 100.425C202.197 95.3932 207.294 92.4204 210.036 93.2726C212.001 94.3488 212.645 95.3923 210.014 96.9259C202.364 100.11 196.629 103.227 196.927 107.334C196.671 109.575 194.459 109.531 193.349 108.794L193.349 108.795V108.795Z" fill="#AB8035" stroke="#AB8035" stroke-width="0.181912" stroke-miterlimit="1.5" stroke-linecap="round" stroke-linejoin="round"/>
<path fill-rule="evenodd" clip-rule="evenodd" d="M143.527 116.142C135.508 108.683 128.687 100.988 123.009 93.0674C122.515 91.9007 123.008 91.2104 125.494 91.4803C132.521 88.6031 138.731 88.7013 143.87 92.704C147.962 89.7843 151.557 92.2947 149.114 95.8893C143.156 101.63 142.246 106.63 144.203 111.21C145.724 115.047 145.653 116.885 143.526 116.142H143.527Z" fill="#AB8035" stroke="#AB8035" stroke-width="0.181912" stroke-miterlimit="1.5" stroke-linecap="round" stroke-linejoin="round"/>
<path fill-rule="evenodd" clip-rule="evenodd" d="M128.012 94.5421C132.92 97.8307 137.102 101.629 140.016 106.315C139.585 102.516 141.116 99.3158 144.868 96.7949C138.891 91.0813 133.233 89.782 128.012 94.5421Z" fill="#6A4A1A" stroke="#AB8035" stroke-width="0.181912" stroke-miterlimit="1.5" stroke-linecap="round" stroke-linejoin="round"/>
<path d="M167.359 126.262C179.651 126.262 189.616 118.275 189.616 108.422C189.616 98.5693 179.651 90.582 167.359 90.582C155.067 90.582 145.103 98.5693 145.103 108.422C145.103 118.275 155.067 126.262 167.359 126.262Z" fill="#AB8035" stroke="#AB8035" stroke-width="0.181912" stroke-miterlimit="1.5" stroke-linecap="round" stroke-linejoin="round"/>
<path fill-rule="evenodd" clip-rule="evenodd" d="M16.7471 70.2973L37.421 77.2902C37.9722 77.7663 37.2348 80.6902 35.8734 81.6635C35.2647 82.0984 30.7443 80.7858 30.5697 81.3184C22.6383 105.534 50.0133 111.117 63.7484 85.2824C61.9417 83.6243 59.0573 83.5036 53.4103 84.0145C52.4645 82.9544 52.1588 81.6916 53.4744 79.9149C59.8514 79.7202 66.2279 80.4598 72.6048 81.9662C66.8356 94.0253 59.4627 103.718 48.7753 108.52C41.4518 110.29 34.5699 108.199 28.2477 101.211C23.2798 92.3178 19.4501 82.0087 16.748 70.2969L16.7475 70.2973H16.7471Z" fill="#AB8035" stroke="#AB8035" stroke-width="0.181912" stroke-miterlimit="1.5" stroke-linecap="round" stroke-linejoin="round"/>
<path fill-rule="evenodd" clip-rule="evenodd" d="M74.2498 82.8789C78.8394 82.941 83.1179 83.6159 87.084 84.9043C82.7108 86.9492 68.6305 100.441 68.6305 100.441C65.1406 104.474 66.0078 108.023 68.4779 111.395C59.3383 110.705 55.5342 107.411 65.4719 97.4135L72.8489 90.6866C69.065 90.268 70.0247 87.4121 74.2498 82.8789Z" fill="#AB8035" stroke="#AB8035" stroke-width="0.181912" stroke-miterlimit="1.5" stroke-linecap="round" stroke-linejoin="round"/>
<path fill-rule="evenodd" clip-rule="evenodd" d="M77.3009 93.918C71.7489 103.228 71.8163 109.512 75.7685 114.46C76.7438 116.146 76.2591 116.9 73.9506 116.052C67.5597 111.416 66.0754 105.037 75.3398 94.8356C76.0912 94.2767 76.7384 93.9881 77.3004 93.918H77.3009Z" fill="#AB8035" stroke="#AB8035" stroke-width="0.181912" stroke-miterlimit="1.5" stroke-linecap="round" stroke-linejoin="round"/>
<path d="M91.6319 119.686C100.001 119.686 106.786 112.179 106.786 102.919C106.786 93.6591 100.001 86.1523 91.6319 86.1523C83.2624 86.1523 76.4775 93.6591 76.4775 102.919C76.4775 112.179 83.2624 119.686 91.6319 119.686Z" fill="#AB8035" stroke="#AB8035" stroke-width="0.181912" stroke-miterlimit="1.5" stroke-linecap="round" stroke-linejoin="round"/>
<path fill-rule="evenodd" clip-rule="evenodd" d="M101.897 86.5981L111.895 87.4983C114.752 88.1618 117.011 89.3902 118.318 91.5155C125.628 102.761 134.457 112.339 144.151 120.969C148.567 125.157 147.657 126.05 141.078 123.435C134.757 120.396 127.739 114.405 124.085 108.642L113.577 93.5362C111.859 90.9778 108.811 89.6725 104.462 89.5947C102.271 88.8011 101.437 87.7993 101.898 86.5977L101.897 86.5981Z" fill="#AB8035" stroke="#AB8035" stroke-width="0.181912" stroke-miterlimit="1.5" stroke-linecap="round" stroke-linejoin="round"/>
<path fill-rule="evenodd" clip-rule="evenodd" d="M109.861 92.7387C113.601 95.3701 119.835 105.14 126.422 115.918C127.864 120.486 125.432 121.685 121.305 118.549C118.629 115.748 116.535 115.661 115.008 118.219C113.38 121.974 112.11 121.418 111.01 118.809C110.603 116.587 111.839 113.783 114.799 110.366C113.301 104.598 111.45 98.9542 107.943 93.8889C107.548 92.1598 108.146 91.7236 109.861 92.7387Z" fill="#AB8035" stroke="#AB8035" stroke-width="0.181912" stroke-miterlimit="1.5" stroke-linecap="round" stroke-linejoin="round"/>
<path fill-rule="evenodd" clip-rule="evenodd" d="M109.086 105.256C109.49 103.458 110.302 103.261 111.703 105.372C112.367 109.977 111.634 114.105 107.856 117.366C106.614 118.594 105.175 119.664 103.587 120.616C101.155 121.659 100.032 120.923 102.257 118.613C107.518 115.202 109.886 110.782 109.086 105.256Z" fill="#AB8035"/>
<path d="M109.086 105.256C109.49 103.458 110.302 103.261 111.703 105.372C112.367 109.977 111.634 114.105 107.856 117.366C106.614 118.594 105.175 119.664 103.587 120.616C101.155 121.659 100.032 120.923 102.257 118.613C107.518 115.202 109.886 110.782 109.086 105.256ZM109.086 105.256V105.256" stroke="#AB8035" stroke-width="0.181912" stroke-miterlimit="1.5" stroke-linecap="round" stroke-linejoin="round"/>
<path fill-rule="evenodd" clip-rule="evenodd" d="M296.425 101.507C293.785 98.7808 295.693 98.8241 298.209 99.7478C302.538 102.149 306.402 105.389 309.85 109.379C313.968 114.089 313.351 118.216 310.093 122.015C308.214 123.758 306.582 123.617 307.575 121.45C308.52 118.335 308.309 115.1 307.317 111.796C306.488 109.674 301.963 105.826 296.425 101.507Z" fill="#AB8035"/>
<path d="M296.425 101.507C293.785 98.7808 295.693 98.8241 298.209 99.7478C302.538 102.149 306.402 105.389 309.85 109.379C313.968 114.089 313.351 118.216 310.093 122.015C308.214 123.758 306.582 123.617 307.575 121.45C308.52 118.335 308.309 115.1 307.317 111.796C306.488 109.674 301.963 105.826 296.425 101.507ZM296.425 101.507L296.424 101.507" stroke="#AB8035" stroke-width="0.181912" stroke-miterlimit="1.5" stroke-linecap="round" stroke-linejoin="round"/>
<path fill-rule="evenodd" clip-rule="evenodd" d="M301.33 97.9838C297.77 94.5069 298.787 93.8269 303.62 95.4799C310.043 98.3371 315.497 103.073 320.268 109.127C321.856 111.378 324.336 113.887 327.628 116.631C330.9 119.531 328.875 121.375 324.799 119.79L314.559 110.159C309.706 106.598 305.392 102.432 301.329 97.9838L301.329 97.9834L301.33 97.9838Z" fill="#AB8035" stroke="#AB8035" stroke-width="0.181912" stroke-miterlimit="1.5" stroke-linecap="round" stroke-linejoin="round"/>
<path fill-rule="evenodd" clip-rule="evenodd" d="M309.197 96.4256C306.837 94.4946 307.225 92.9772 310.748 94.5856C314.359 97.0152 316.051 97.0275 315.263 93.9183C314.579 92.2606 317.752 92.9419 322.079 94.3229C323.589 94.8827 324.799 95.0132 325.53 94.4543C328.089 91.992 331.3 91.5554 335.288 93.5285C339.213 95.4782 341.734 97.0381 343.67 98.4357C344.852 100.558 344.946 102.554 344.344 104.468C342.862 106.568 341.164 106.791 341.591 103.657C342.029 100.384 338.103 97.6047 330.541 95.2385C329.476 95.0396 327.932 95.3579 326.189 95.8914C324.318 96.5829 324.862 97.1903 325.603 97.7901C334.157 102.778 337.172 106.708 340.766 110.749C343.339 113.92 342.777 114.177 339.364 111.782C338.38 111.311 337.87 111.501 338.363 112.567C345.05 121.656 342.012 121.145 334.79 116.506C331.296 114.245 328.81 111.572 326.978 108.633C326.112 107.295 319.947 103.098 309.196 96.4265L309.197 96.4256Z" fill="#AB8035" stroke="#AB8035" stroke-width="0.181912" stroke-miterlimit="1.5" stroke-linecap="round" stroke-linejoin="round"/>
<path fill-rule="evenodd" clip-rule="evenodd" d="M338.378 122.18C340.56 121.75 341.124 122.768 340.716 124.657C336.123 129.106 329.811 128.76 323.058 127.188C318.333 125.402 316.069 125.234 314.788 125.714C311.267 126.315 311.009 125.345 313.266 123.163C314.367 122.042 317.908 123.028 320.997 123.623C332.321 127.582 336.188 125.554 338.378 122.18Z" fill="#AB8035" stroke="#AB8035" stroke-width="0.181912" stroke-miterlimit="1.5" stroke-linecap="round" stroke-linejoin="round"/>
<path fill-rule="evenodd" clip-rule="evenodd" d="M302.757 122.351C301.894 118.892 302.13 117.384 305.43 121.329C306.832 122.307 307.567 123.444 305.892 125.158C302.09 127.819 299.699 127.772 297.04 128.242C293.916 127.622 294.007 126.797 296.521 125.816C301.305 125.565 303.825 124.557 302.757 122.351V122.351Z" fill="#AB8035" stroke="#AB8035" stroke-width="0.181912" stroke-miterlimit="1.5" stroke-linecap="round" stroke-linejoin="round"/>
<path fill-rule="evenodd" clip-rule="evenodd" d="M123.381 567.618C125.773 573.329 130.416 576.013 137.058 576.011C144.407 573.727 144.226 570.887 140.152 567.758C138.494 567.302 137.484 566.718 138.539 565.733C142.247 562.294 137.845 562.137 132.065 562.537C131.627 562.601 130.944 562.475 130.888 562.965C130.435 567.004 126.118 568.51 124.411 567.545C123.434 566.993 123.391 567.409 123.381 567.618Z" fill="#AB8035"/>
<path d="M123.381 567.618C125.773 573.329 130.416 576.013 137.058 576.011C144.407 573.727 144.226 570.887 140.152 567.758C138.494 567.302 137.484 566.718 138.539 565.733C142.247 562.294 137.845 562.137 132.065 562.537C131.627 562.601 130.944 562.475 130.888 562.965C130.435 567.004 126.118 568.51 124.411 567.545C123.434 566.993 123.391 567.409 123.381 567.618ZM123.381 567.618H123.381" stroke="#AB8035" stroke-width="0.181912" stroke-miterlimit="1.5" stroke-linecap="round" stroke-linejoin="round"/>
<path fill-rule="evenodd" clip-rule="evenodd" d="M146.479 577.96C147.706 579.362 147.167 580.066 144.889 580.082L137.747 577.22C137.297 576.501 138.083 575.493 139.745 576.176C141.621 577.284 143.737 577.792 146.479 577.96Z" fill="#AB8035" stroke="#AB8035" stroke-width="0.181912" stroke-miterlimit="1.5" stroke-linecap="round" stroke-linejoin="round"/>
<path fill-rule="evenodd" clip-rule="evenodd" d="M116.641 564.378C118.881 563.309 119.918 563.85 119.783 565.959C119.431 567.188 118.792 568.039 117.808 568.435C115.689 568.975 114.538 568.712 114.848 567.243L116.641 564.377L116.641 564.378Z" fill="#AB8035" stroke="#AB8035" stroke-width="0.181912" stroke-miterlimit="1.5" stroke-linecap="round" stroke-linejoin="round"/>
<path fill-rule="evenodd" clip-rule="evenodd" d="M117.473 549.627C115.06 552.328 115.638 553.141 119.042 552.169C130.428 549.472 127.731 551.204 121.466 554.059C118.992 555.099 120.332 555.37 124.108 555.149C131.416 555.149 134.72 553.717 129.246 549.146C125.046 545.677 121.173 546.517 117.473 549.626V549.627Z" fill="#AB8035" stroke="#AB8035" stroke-width="0.181912" stroke-miterlimit="1.5" stroke-linecap="round" stroke-linejoin="round"/>
<path fill-rule="evenodd" clip-rule="evenodd" d="M401.687 549.264C399.625 551.467 400.459 552.266 404.644 551.437C414.224 542.933 416.276 538.69 411.76 538.165C409.29 538.142 408.463 538.674 408.921 539.639C414.503 541.655 406.794 545.653 401.687 549.264Z" fill="#AB8035"/>
<path d="M401.687 549.264C399.625 551.467 400.459 552.266 404.644 551.437C414.224 542.933 416.276 538.69 411.76 538.165C409.29 538.142 408.463 538.674 408.921 539.639C414.503 541.655 406.794 545.653 401.687 549.264ZM401.687 549.264L401.686 549.264" stroke="#AB8035" stroke-width="0.181912" stroke-miterlimit="1.5" stroke-linecap="round" stroke-linejoin="round"/>
<path fill-rule="evenodd" clip-rule="evenodd" d="M420.615 543.959C421.785 543.639 422.495 544.091 422.757 545.291C422.819 546.273 422.396 547.224 420.623 548.088C417.364 548.131 416.512 547.429 417.572 546.136L420.616 543.959L420.615 543.959Z" fill="#AB8035" stroke="#AB8035" stroke-width="0.181912" stroke-miterlimit="1.5" stroke-linecap="round" stroke-linejoin="round"/>
<path fill-rule="evenodd" clip-rule="evenodd" d="M413.079 551.688C414.146 551.998 414.471 552.661 414.076 553.667C413.633 554.418 412.831 554.921 411.024 554.73C408.474 553.241 408.164 552.328 409.631 551.87L413.079 551.688Z" fill="#AB8035"/>
<path d="M413.079 551.688C414.146 551.998 414.471 552.661 414.076 553.667C413.633 554.418 412.831 554.921 411.024 554.73C408.474 553.241 408.164 552.328 409.631 551.87L413.079 551.688ZM413.079 551.688L413.079 551.688" stroke="#AB8035" stroke-width="0.181912" stroke-miterlimit="1.5" stroke-linecap="round" stroke-linejoin="round"/>
<path fill-rule="evenodd" clip-rule="evenodd" d="M119.579 541.46C123.552 540.956 124.054 541.912 121.607 544.107C114.994 545.442 112.864 547.576 110.206 549.616C107.403 550.275 107.152 549.362 108.73 547.321C112.819 544.759 117.62 541.279 119.579 541.46Z" fill="#AB8035" stroke="#AB8035" stroke-width="0.181912" stroke-miterlimit="1.5" stroke-linecap="round" stroke-linejoin="round"/>
<path fill-rule="evenodd" clip-rule="evenodd" d="M427.569 563.814C429.8 563.219 429.736 562.429 428.196 561.514C425.128 560.995 422.825 561.367 421.353 562.702C419.437 564.665 418.909 565.984 419.486 566.789C420.946 568.566 422.214 568.009 423.474 567.361C425.386 566.232 424.998 565.25 422.708 564.387C421.479 564.083 421.53 563.646 422.16 563.148C423.083 562.525 425.275 563.121 427.569 563.814H427.569Z" fill="#AB8035" stroke="#AB8035" stroke-width="0.181912" stroke-miterlimit="1.5" stroke-linecap="round" stroke-linejoin="round"/>
<path fill-rule="evenodd" clip-rule="evenodd" d="M374.731 561.211C372.951 561.521 373.047 562.256 374.083 563.204L376.769 564.178C378.411 563.929 378.562 563.091 377.804 561.893L374.731 561.211Z" fill="#AB8035"/>
<path d="M374.731 561.211C372.951 561.521 373.047 562.256 374.083 563.204L376.769 564.178C378.411 563.929 378.562 563.091 377.804 561.893L374.731 561.211ZM374.731 561.211V561.211" stroke="#AB8035" stroke-width="0.181912" stroke-miterlimit="1.5" stroke-linecap="round" stroke-linejoin="round"/>
<path fill-rule="evenodd" clip-rule="evenodd" d="M414.282 568.676C417.051 568.747 418.284 568.124 416.362 566.077C413.923 563.976 411.522 561.603 408.607 563.002C408.276 563.366 407.609 563.377 406.715 563.146C403.962 564.12 403.088 565.103 404.316 566.098C406.552 567.61 408.801 569.741 410.955 567.371C411.895 566.084 412.665 565.551 413.091 566.543C412.944 567.65 412.779 568.77 414.283 568.677L414.283 568.677L414.282 568.676Z" fill="#AB8035" stroke="#AB8035" stroke-width="0.181912" stroke-miterlimit="1.5" stroke-linecap="round" stroke-linejoin="round"/>
<path fill-rule="evenodd" clip-rule="evenodd" d="M385.564 571.681C384.136 572.911 383.802 573.771 384.605 574.249C385.979 574.825 387.92 573.359 389.802 572.106C390.236 570.614 390.001 569.701 388.019 570.299L385.564 571.681Z" fill="#AB8035" stroke="#AB8035" stroke-width="0.181912" stroke-miterlimit="1.5" stroke-linecap="round" stroke-linejoin="round"/>
<path fill-rule="evenodd" clip-rule="evenodd" d="M395.683 561.967C395.866 560.265 396.556 559.85 397.96 561.246C398.756 562.346 398.933 563.554 398.619 564.852C398.288 565.448 400.949 567.481 402.907 569.176C403.513 570.723 403.734 571.887 401.363 570.468C399.359 567.995 397.285 565.662 393.772 566.191C392.582 565.967 391.557 565.581 391.283 564.448C390.929 563.365 391.789 563.259 393.081 563.5C396.24 565.393 397.45 565.242 395.683 561.967V561.967Z" fill="#AB8035" stroke="#AB8035" stroke-width="0.181912" stroke-miterlimit="1.5" stroke-linecap="round" stroke-linejoin="round"/>
<path fill-rule="evenodd" clip-rule="evenodd" d="M317.882 575.29C319.889 573.782 320.472 574.604 320.467 576.393C315.224 581.578 306.465 587.769 309.17 590.677C310.513 592.825 309.565 593.346 307.175 592.844C306.338 592.242 306.113 590.806 306.121 589.05C305.662 587.661 304.938 589.052 304.169 590.917C303.614 593.358 300.464 591.46 302.617 587.244C302.739 586.998 303.151 586.215 305.526 586.11C309.174 585.947 313.612 580.703 317.883 575.29L317.882 575.29Z" fill="#AB8035" stroke="#AB8035" stroke-width="0.181912" stroke-miterlimit="1.5" stroke-linecap="round" stroke-linejoin="round"/>
<path fill-rule="evenodd" clip-rule="evenodd" d="M317.712 580.288C320.587 577.536 320.961 578.679 319.814 582.189C318.86 583.297 318.188 584.274 318.406 585.879C315.126 595.869 312.667 592.498 310.118 589.864C308.546 588.23 313.694 584.045 317.712 580.288L317.712 580.288Z" fill="#AB8035" stroke="#AB8035" stroke-width="0.181912" stroke-miterlimit="1.5" stroke-linecap="round" stroke-linejoin="round"/>
<path fill-rule="evenodd" clip-rule="evenodd" d="M330.795 585.855C327.866 584.31 327.285 585.829 328.145 589.223C330.445 592.404 334.533 590.417 338.391 589.091C340.139 586.599 337.414 583.91 335.761 586.027C334.358 587.988 332.761 588.394 330.795 585.855Z" fill="#AB8035" stroke="#AB8035" stroke-width="0.181912" stroke-miterlimit="1.5" stroke-linecap="round" stroke-linejoin="round"/>
<path fill-rule="evenodd" clip-rule="evenodd" d="M206.904 581.376C205.908 583.928 206.858 584.858 209.744 584.177C210.963 583.672 212.325 582.63 213.924 580.698C214.358 579.84 214.87 579.751 215.468 580.512C215.661 582.195 215.984 583.014 216.383 583.33C218.316 584.917 218.975 583.463 219.459 581.592C219.52 579.585 218.357 577.867 216.068 576.414C214.705 575.455 213.655 575.721 212.71 576.399L206.905 581.376H206.904Z" fill="#AB8035" stroke="#AB8035" stroke-width="0.181912" stroke-miterlimit="1.5" stroke-linecap="round" stroke-linejoin="round"/>
<path fill-rule="evenodd" clip-rule="evenodd" d="M213.018 585.35C210.519 585.731 210.2 586.941 212.003 588.955C213.728 590.536 215.187 590.268 216.465 588.739C218.008 587.294 219.732 587.591 221.483 588.141C226.851 589.54 226.746 587.738 224.382 584.616C222.514 583.664 220.551 583.612 218.484 584.533C216.185 585.767 214.609 585.543 213.017 585.35L213.018 585.35Z" fill="#AB8035" stroke="#AB8035" stroke-width="0.181912" stroke-miterlimit="1.5" stroke-linecap="round" stroke-linejoin="round"/>
<path fill-rule="evenodd" clip-rule="evenodd" d="M226.661 586.129C225.969 584.488 226.729 584.077 228.449 584.479C230.425 585.511 231.988 586.665 233.113 587.947C233.559 589.791 232.801 590.259 231.018 589.554C229.802 588.178 228.378 587.008 226.66 586.129L226.661 586.129Z" fill="#AB8035" stroke="#AB8035" stroke-width="0.181912" stroke-miterlimit="1.5" stroke-linecap="round" stroke-linejoin="round"/>
<path fill-rule="evenodd" clip-rule="evenodd" d="M230.677 591.64C229.802 591.596 229.098 591.75 228.877 592.453C228.795 593.523 229.177 594 230.058 593.839L231.967 593.36C232.356 592.241 231.85 591.718 230.677 591.64Z" fill="#AB8035" stroke="#AB8035" stroke-width="0.181912" stroke-miterlimit="1.5" stroke-linecap="round" stroke-linejoin="round"/>
<path fill-rule="evenodd" clip-rule="evenodd" d="M258.517 587.509C260.359 589.681 259.477 590.189 257.027 589.741C248.959 587.652 244.315 584.016 241.503 579.552C241.053 577.319 241.826 577.035 244.002 578.99C246.36 582.303 248.351 583.746 250.213 584.537C250.928 584.854 251.24 584.655 250.792 584.065C246.217 578.705 248.798 575.587 255.176 573.661C258.977 572.899 264.993 573.119 272.465 573.984C275.053 574.831 275.106 577.505 273.08 576.969C271.829 576.787 270.848 576.845 270.586 577.539C270.926 580.402 269.206 580.496 267.346 580.399C266.277 580.2 266.4 579.08 267.586 577.139C268.187 576.453 268.601 575.845 267.088 576.039C260.372 575.986 257.189 576.697 258.998 578.56C261.582 583.194 259.047 584.053 256.049 581.507C254.851 580.203 254.393 578.947 256.014 577.823C256.639 577.264 255.851 576.669 254.777 576.85C249.882 578.948 249.452 582.103 258.518 587.509L258.517 587.509H258.517Z" fill="#AB8035" stroke="#AB8035" stroke-width="0.181912" stroke-miterlimit="1.5" stroke-linecap="round" stroke-linejoin="round"/>
<path fill-rule="evenodd" clip-rule="evenodd" d="M261.902 587.366C261.589 584.588 262.581 583.632 265.467 585.32C266.708 586.676 267.853 586.72 268.949 586.091L276.647 578.2C278.424 576.359 279.331 577.062 279.61 579.597C280.295 580.288 274.914 585.193 269.928 589.822C269.159 590.261 268.377 590.478 267.553 589.961C266.46 589.113 266.322 590.111 266.713 592.135C265.867 592.207 265.092 592.184 264.393 592.061C263.726 591.944 263.128 591.737 262.6 591.435L261.902 587.366H261.902Z" fill="#AB8035" stroke="#AB8035" stroke-width="0.181912" stroke-miterlimit="1.5" stroke-linecap="round" stroke-linejoin="round"/>
<path fill-rule="evenodd" clip-rule="evenodd" d="M283.69 589.357C281.049 590.098 278.375 590.888 276.375 590.691C275.632 590.474 275.519 590.189 276.469 589.792C279.927 589.536 282.67 587.008 284.892 582.824C285.417 582.128 285.545 581.654 285.017 581.55C283.642 580.723 282.036 579.888 282.102 579.119C281.625 576.26 282.564 575.821 284.191 576.557C285.53 578.352 287.027 580.675 287.711 580.288C289.423 580.167 289.931 580.361 290.296 580.592C293.592 582.987 294.562 584.376 292.599 584.495C290.314 584.057 288.16 584.046 286.619 586.029L283.69 589.357H283.69Z" fill="#AB8035" stroke="#AB8035" stroke-width="0.181912" stroke-miterlimit="1.5" stroke-linecap="round" stroke-linejoin="round"/>
<path fill-rule="evenodd" clip-rule="evenodd" d="M295.748 576.844C294.102 577.02 293.763 577.736 294.208 578.774C294.721 579.558 295.711 579.991 296.909 580.273C298.79 580.553 299.35 579.877 298.731 578.348C298.578 577.803 297.413 577.31 295.748 576.844Z" fill="#AB8035" stroke="#AB8035" stroke-width="0.181912" stroke-miterlimit="1.5" stroke-linecap="round" stroke-linejoin="round"/>
<path fill-rule="evenodd" clip-rule="evenodd" d="M189.845 588.17C188.972 589.574 189.535 590.211 191.956 589.855C193.538 588.763 194.744 588.797 195.581 589.935C198.077 591.251 198.237 590.028 197.556 587.889C195.576 585.657 193.084 585.386 189.845 588.17Z" fill="#AB8035" stroke="#AB8035" stroke-width="0.181912" stroke-miterlimit="1.5" stroke-linecap="round" stroke-linejoin="round"/>
<path fill-rule="evenodd" clip-rule="evenodd" d="M177.685 568.932C176.71 565.879 178.427 566.466 181.009 568.223C182.315 569.737 181.813 571.16 178.75 572.452C177.351 572.844 177.471 573.567 178.594 574.509C179.865 576.085 181.818 576.056 184.383 574.583L189.334 570.452C193.027 567.595 194.723 569.731 195.609 573.893C195.37 574.972 194.706 575.585 191.594 573.506C190.971 573.122 190.421 572.941 190.161 573.585C186.486 577.629 182.465 579.836 177.513 577.104C173.771 574.738 172.511 572.807 176.174 571.742C178.38 571.046 178.634 570.074 177.685 568.933V568.932Z" fill="#AB8035" stroke="#AB8035" stroke-width="0.181912" stroke-miterlimit="1.5" stroke-linecap="round" stroke-linejoin="round"/>
<path fill-rule="evenodd" clip-rule="evenodd" d="M166.521 570.577C166.166 572.578 166.95 572.643 168.42 571.541C169.153 570.956 169.738 570.306 169.95 569.498C170.04 568.032 169.324 567.764 168.031 568.355C166.972 569.266 166.713 569.932 166.521 570.577Z" fill="#AB8035" stroke="#AB8035" stroke-width="0.181912" stroke-miterlimit="1.5" stroke-linecap="round" stroke-linejoin="round"/>
<path fill-rule="evenodd" clip-rule="evenodd" d="M158.209 564.058C156.815 563.866 156.333 564.262 157.151 565.498L162.342 570.423C164.519 571.384 165.227 570.984 164.068 568.853C163.674 568.306 163.15 567.831 162.408 567.477C161.205 566.818 161.346 566.407 163.314 566.333L168.149 566.799C171.397 566.295 170.209 564.619 167.603 564.549L158.209 564.057V564.058Z" fill="#AB8035" stroke="#AB8035" stroke-width="0.181912" stroke-miterlimit="1.5" stroke-linecap="round" stroke-linejoin="round"/>
<path fill-rule="evenodd" clip-rule="evenodd" d="M169.783 574.953C170.329 572.815 171.581 573.274 173.298 575.444C177.238 579.945 173.355 580.326 166.617 579.202C162.013 578.038 158.647 573.58 155.466 568.632C154.88 567.587 154.219 567.232 153.514 567.283C149.986 566.146 149.708 563.57 150.538 560.505C151.185 559.755 151.935 559.652 152.901 560.9C152.826 562.938 153.129 564.249 154.058 564.355C155.05 564.069 155.762 564.386 156.197 565.3C161.99 573.19 167.423 579.751 169.783 574.953Z" fill="#AB8035" stroke="#AB8035" stroke-width="0.181912" stroke-miterlimit="1.5" stroke-linecap="round" stroke-linejoin="round"/>
<path fill-rule="evenodd" clip-rule="evenodd" d="M200.189 582.797L199.977 588.487C199.955 590.369 200.646 591.241 202.345 590.685L207.675 589.76C207.066 585.17 204.212 583.282 200.189 582.797Z" fill="#AB8035" stroke="#AB8035" stroke-width="0.181912" stroke-miterlimit="1.5" stroke-linecap="round" stroke-linejoin="round"/>
<path fill-rule="evenodd" clip-rule="evenodd" d="M321.965 584.941C321.296 583.481 322.046 582.935 324.392 583.417C326.334 584.337 326.74 586.045 326.069 588.308C325.209 589.961 324.016 590.383 323.643 588.358C323.731 586.539 323.405 585.156 321.964 584.942L321.965 584.941Z" fill="#AB8035" stroke="#AB8035" stroke-width="0.181912" stroke-miterlimit="1.5" stroke-linecap="round" stroke-linejoin="round"/>
<path fill-rule="evenodd" clip-rule="evenodd" d="M321.223 587.911C319.756 586.817 319.371 587.733 319.434 589.482C319.701 590.802 320.541 591.264 321.43 591.653C323.601 591.979 323.982 591.411 323.107 590.214L321.223 587.911Z" fill="#AB8035" stroke="#AB8035" stroke-width="0.181912" stroke-miterlimit="1.5" stroke-linecap="round" stroke-linejoin="round"/>
<path fill-rule="evenodd" clip-rule="evenodd" d="M342.472 573.525C343.669 575.635 342.91 576.587 339.84 576.169C334.791 574.32 332.835 572.191 339.605 569.272C343.787 568.088 346.342 568.607 347.406 570.688C349.061 574.324 351.709 576.955 355.94 577.982C358.108 579.364 357.634 580.173 355.231 580.565C351.396 578.884 347.375 577.447 345.593 573.055C343.688 570.824 341.863 572.111 342.472 573.524L342.472 573.525Z" fill="#AB8035" stroke="#AB8035" stroke-width="0.181912" stroke-miterlimit="1.5" stroke-linecap="round" stroke-linejoin="round"/>
<path fill-rule="evenodd" clip-rule="evenodd" d="M356.212 568.146C356.139 567.144 355.612 566.658 354.141 567.247C350.997 569.382 351.845 570.845 353.225 572.218C355.385 574.017 357.242 575.147 358.843 575.713C359.891 575.806 360.401 576.157 359.77 577.053C359.274 578.733 360.079 579.113 361.921 578.458C363.888 577.952 368.465 573.419 372.907 569.096C374.58 565.417 373.35 563.341 368.703 563.152C366.962 563.313 364.978 564.42 362.503 566.012C360.282 567.155 360.081 568.164 361.952 569.035C363.642 569.262 364.287 569.723 363.27 570.556C360.162 571.393 360.548 572.215 361.308 573.035C362.394 574.508 361.567 574.522 359.63 573.688C356.636 572.598 352.789 570.62 355.095 569.305L356.212 568.146Z" fill="#AB8035" stroke="#AB8035" stroke-width="0.181912" stroke-miterlimit="1.5" stroke-linecap="round" stroke-linejoin="round"/>
<path fill-rule="evenodd" clip-rule="evenodd" d="M372.609 574.649C372.146 577.166 373.184 576.797 375.145 574.656C378.171 569.383 380.833 561.913 384.467 560.299C386.279 559.104 386.617 558.256 384.132 558.074C381.426 557.408 376.73 567.595 372.609 574.649" fill="#AB8035"/>
<path d="M372.609 574.649C372.146 577.166 373.184 576.797 375.145 574.656C378.171 569.383 380.833 561.913 384.467 560.299C386.279 559.104 386.617 558.256 384.132 558.074C381.426 557.408 376.73 567.595 372.609 574.649" stroke="#AB8035" stroke-width="0.181912" stroke-miterlimit="1.5" stroke-linecap="round" stroke-linejoin="round"/>
<path fill-rule="evenodd" clip-rule="evenodd" d="M206.792 355.096C249.585 362.917 290.176 362.243 327.222 354.688L326.966 368.108C287.034 383.857 246.779 384.128 207.027 368.669L206.792 355.096Z" fill="url(#paint10_linear_4156_24295)" stroke="#24211C" stroke-width="0.56786" stroke-miterlimit="1.5" stroke-linecap="round" stroke-linejoin="round"/>
<path fill-rule="evenodd" clip-rule="evenodd" d="M213.796 361.113C210.647 361.84 209.697 362.962 213.196 364.88C249.144 376.781 286.244 375.826 324.309 364.082C326.782 362.16 326.608 361.099 324.481 360.672C287.064 373.663 250.168 373.831 213.796 361.113Z" fill="#1E1B12" stroke="#1E1B12" stroke-width="0.181912" stroke-miterlimit="1.5" stroke-linecap="round" stroke-linejoin="round"/>
<path fill-rule="evenodd" clip-rule="evenodd" d="M410.149 529.804C439.412 553.404 435.757 561.317 395.641 553.926C391.2 553.44 388.222 554.743 387.196 556.956C375.81 589.083 351.832 588.494 321.262 570.774C318.893 569.289 316.678 569.421 314.624 571.241C285.267 599.631 253.037 598.884 218.26 572.317C215.432 570.272 212.386 570.574 209.822 571.665C177.77 590.358 155.006 588.08 142.963 556.452C142.164 555.326 140.921 554.852 139.119 555.198C107.116 559.576 94.2385 552.055 122.82 531.014C124.544 528.901 124.683 529.376 123.234 529.613C90.0704 547.802 100.889 567.506 138.359 559.096C153.002 592.276 178.657 592.771 214.895 573.42C249.793 604.191 283.67 602.543 318.517 572.786C351.489 595.367 377.596 593.229 392.1 557.759C432.802 563.72 456.33 555.726 410.15 529.804L410.149 529.805L410.149 529.804Z" fill="#AB8035" stroke="#AB8035" stroke-width="0.181912" stroke-miterlimit="1.5" stroke-linecap="round" stroke-linejoin="round"/>
<path fill-rule="evenodd" clip-rule="evenodd" d="M231.918 475.548C227.406 512.639 205.073 521.61 172.98 523.988C117.055 526.684 125.209 543.942 171.777 554.075C245.563 569.617 315.001 563.703 380.887 547.155C401.883 541.09 396.358 527.919 380.051 527.343C331.297 526.713 301.98 513.222 302.243 474.027C278.916 480.799 255.477 481.445 231.918 475.548Z" fill="#1F4758"/>
<path fill-rule="evenodd" clip-rule="evenodd" d="M231.918 475.548C227.406 512.639 205.073 521.61 172.98 523.988C117.055 526.684 125.209 543.942 171.777 554.075C245.563 569.617 315.001 563.703 380.887 547.155C401.883 541.09 396.358 527.919 380.051 527.343C331.297 526.713 301.98 513.222 302.243 474.027C278.916 480.799 255.477 481.445 231.918 475.548Z" fill="url(#paint11_linear_4156_24295)"/>
<path fill-rule="evenodd" clip-rule="evenodd" d="M166.03 524.459C148.54 528.968 149.489 536.678 162.289 545.448C189.783 559.737 251.801 553.895 260.541 519.214C261.946 512.005 261.212 501.775 260.218 492.85C256.688 482.917 246.589 478.732 233.575 477.098C229.663 521.004 208.538 534.101 178.744 531.682C170.894 529.882 170.503 527.072 178.532 523.497" fill="url(#paint12_linear_4156_24295)"/>
<path fill-rule="evenodd" clip-rule="evenodd" d="M277.086 482.422C263.263 491.35 264.85 518.985 277.266 536.575C294.36 555.668 327.715 557.304 374.197 544.849C382.009 538.636 379.398 526.056 368.089 529.066C322.946 540.127 301.96 523.962 298.246 477.184C290.714 477.242 283.29 479.039 277.086 482.422Z" fill="#BD944A"/>
<path fill-rule="evenodd" clip-rule="evenodd" d="M277.086 482.422C263.263 491.35 264.85 518.985 277.266 536.575C294.36 555.668 327.715 557.304 374.197 544.849C382.009 538.636 379.398 526.056 368.089 529.066C322.946 540.127 301.96 523.962 298.246 477.184C290.714 477.242 283.29 479.039 277.086 482.422Z" fill="url(#paint13_linear_4156_24295)"/>
<path fill-rule="evenodd" clip-rule="evenodd" d="M294.636 480.711C292.514 525.527 315.947 541.757 356.333 539.018C319.918 545.908 282.376 547.439 276.722 515.977C274.708 507.875 274.363 495.657 276.994 491.392C281.281 484.989 287.339 481.744 294.636 480.711Z" fill="#C27F0B"/>
<path fill-rule="evenodd" clip-rule="evenodd" d="M191.081 540.319C227.791 545.839 252.265 536.118 255.158 499.513C254.661 489.449 249.147 484.023 240.363 481.617C236.393 523.41 218.042 537.467 191.081 540.319Z" fill="#CD8810"/>
<path fill-rule="evenodd" clip-rule="evenodd" d="M239.585 510.965C237.919 510.971 236.427 511.37 235.857 513.86C238.2 518.273 240.023 522.973 241.342 527.954C244.911 524.831 247.565 521.166 249.023 516.792C246.86 513.969 243.641 512.091 239.585 510.965Z" fill="#976D21"/>
<path fill-rule="evenodd" clip-rule="evenodd" d="M280.116 516.795C281.12 522.179 283.438 525.756 286.447 528.385L293.891 515.871C294.402 513.239 293.688 511.674 290.546 512.228L280.116 516.795Z" fill="#7E5C1F"/>
<path fill-rule="evenodd" clip-rule="evenodd" d="M247.254 488.82L242.061 496.057C241.917 499.904 244.119 501.973 247.949 502.808L254.141 497.489C252.794 493.366 250.503 490.47 247.254 488.82Z" fill="#976D21"/>
<path fill-rule="evenodd" clip-rule="evenodd" d="M284.168 489.406C279.424 491.508 277.992 495.208 278.765 499.971L286.39 498.293C288.076 497.594 288.674 496.488 287.825 494.843L284.168 489.406Z" fill="#7E5C1F"/>
<path d="M232.878 379.684L232.082 399.948" stroke="black" stroke-width="0.717815" stroke-miterlimit="1.5" stroke-linecap="round" stroke-linejoin="round"/>
<path d="M238.067 381.402L237.914 401.93" stroke="black" stroke-width="0.717815" stroke-miterlimit="1.5" stroke-linecap="round" stroke-linejoin="round"/>
<path d="M243.076 382.348L242.618 402.583" stroke="black" stroke-width="0.717815" stroke-miterlimit="1.5" stroke-linecap="round" stroke-linejoin="round"/>
<path d="M247.487 383.199L247.441 403.327" stroke="black" stroke-width="0.717815" stroke-miterlimit="1.5" stroke-linecap="round" stroke-linejoin="round"/>
<path d="M253.614 384.191L253.879 405.746" stroke="black" stroke-width="0.717815" stroke-miterlimit="1.5" stroke-linecap="round" stroke-linejoin="round"/>
<path d="M259.196 384.645L259.451 405.949" stroke="black" stroke-width="0.717815" stroke-miterlimit="1.5" stroke-linecap="round" stroke-linejoin="round"/>
<path d="M265.873 384.891L266.104 406.076" stroke="black" stroke-width="0.717815" stroke-miterlimit="1.5" stroke-linecap="round" stroke-linejoin="round"/>
<path d="M271.378 384.812L271.754 405.572" stroke="black" stroke-width="0.717815" stroke-miterlimit="1.5" stroke-linecap="round" stroke-linejoin="round"/>
<path d="M279.206 384.555L279.706 404.439" stroke="black" stroke-width="0.717815" stroke-miterlimit="1.5" stroke-linecap="round" stroke-linejoin="round"/>
<path d="M286.381 383.367L286.374 403.384" stroke="black" stroke-width="0.717815" stroke-miterlimit="1.5" stroke-linecap="round" stroke-linejoin="round"/>
<path d="M292.201 382.77L292.637 402.29" stroke="black" stroke-width="0.717815" stroke-miterlimit="1.5" stroke-linecap="round" stroke-linejoin="round"/>
<path d="M298.095 380.895L297.664 399.41" stroke="black" stroke-width="0.717815" stroke-miterlimit="1.5" stroke-linecap="round" stroke-linejoin="round"/>
<path fill-rule="evenodd" clip-rule="evenodd" d="M267.436 541.758L254.88 549.28C260.038 551.036 264.915 553.43 269.476 556.538C272.355 553.467 275.636 551.032 279.458 549.458L267.436 541.758Z" fill="#976D21"/>
<path d="M266.226 460.555C278.639 460.555 288.702 451.59 288.702 440.531C288.702 429.473 278.639 420.508 266.226 420.508C253.812 420.508 243.749 429.473 243.749 440.531C243.749 451.59 253.812 460.555 266.226 460.555Z" fill="#BD944A" stroke="#BD944A" stroke-width="0.378574" stroke-miterlimit="1.5" stroke-linecap="round" stroke-linejoin="round"/>
<path d="M234.221 456.258C245.622 456.258 254.865 447.471 254.865 436.633C254.865 425.794 245.622 417.008 234.221 417.008C222.82 417.008 213.577 425.794 213.577 436.633C213.577 447.471 222.82 456.258 234.221 456.258Z" fill="#BD944A" stroke="#BD944A" stroke-width="0.378574" stroke-miterlimit="1.5" stroke-linecap="round" stroke-linejoin="round"/>
<path d="M298.99 454.82C310.434 454.82 319.711 446.32 319.711 435.836C319.711 425.351 310.434 416.852 298.99 416.852C287.546 416.852 278.269 425.351 278.269 435.836C278.269 446.32 287.546 454.82 298.99 454.82Z" fill="#BD944A" stroke="#BD944A" stroke-width="0.378574" stroke-miterlimit="1.5" stroke-linecap="round" stroke-linejoin="round"/>
<path d="M167.06 122.15C175.288 122.15 181.958 115.773 181.958 107.905C181.958 100.038 175.288 93.6602 167.06 93.6602C158.832 93.6602 152.162 100.038 152.162 107.905C152.162 115.773 158.832 122.15 167.06 122.15Z" fill="#D48D13" stroke="#1F4758" stroke-width="0.378574" stroke-miterlimit="1.5" stroke-linecap="round" stroke-linejoin="round"/>
<path d="M91.0123 113.94C97.2475 113.94 102.302 108.343 102.302 101.439C102.302 94.5344 97.2475 88.9375 91.0123 88.9375C84.7772 88.9375 79.7227 94.5344 79.7227 101.439C79.7227 108.343 84.7772 113.94 91.0123 113.94Z" fill="#D48D12" stroke="#1F4758" stroke-width="0.378574" stroke-miterlimit="1.5" stroke-linecap="round" stroke-linejoin="round"/>
<path d="M266.778 125.482C275.006 125.482 281.676 119.105 281.676 111.237C281.676 103.37 275.006 96.9922 266.778 96.9922C258.551 96.9922 251.881 103.37 251.881 111.237C251.881 119.105 258.551 125.482 266.778 125.482Z" fill="#C8840D" stroke="#1F4758" stroke-width="0.378574" stroke-miterlimit="1.5" stroke-linecap="round" stroke-linejoin="round"/>
<path d="M266.003 453.445C273.521 453.445 279.615 447.512 279.615 440.195C279.615 432.877 273.521 426.945 266.003 426.945C258.486 426.945 252.392 432.877 252.392 440.195C252.392 447.512 258.486 453.445 266.003 453.445Z" fill="#C8840D"/>
<path d="M234.963 449.982C243.322 449.982 250.099 443.43 250.099 435.347C250.099 427.264 243.322 420.711 234.963 420.711C226.603 420.711 219.826 427.264 219.826 435.347C219.826 443.43 226.603 449.982 234.963 449.982Z" fill="#CE8810"/>
<path d="M298.608 448.232C306.383 448.232 312.685 442.128 312.685 434.598C312.685 427.069 306.383 420.965 298.608 420.965C290.833 420.965 284.53 427.069 284.53 434.598C284.53 442.128 290.833 448.232 298.608 448.232Z" fill="#C17E0A"/>
<path d="M364.317 120.63C372.326 120.63 378.819 114.555 378.819 107.061C378.819 99.5672 372.326 93.4922 364.317 93.4922C356.308 93.4922 349.815 99.5672 349.815 107.061C349.815 114.555 356.308 120.63 364.317 120.63Z" fill="#C17E0A" stroke="#1F4758" stroke-width="0.378574" stroke-miterlimit="1.5" stroke-linecap="round" stroke-linejoin="round"/>
<path d="M436.559 115.717C443.14 115.717 448.475 109.741 448.475 102.37C448.475 94.9989 443.14 89.0234 436.559 89.0234C429.978 89.0234 424.644 94.9989 424.644 102.37C424.644 109.741 429.978 115.717 436.559 115.717Z" fill="#C17E0B" stroke="#1F4758" stroke-width="0.378574" stroke-miterlimit="1.5" stroke-linecap="round" stroke-linejoin="round"/>
<path fill-rule="evenodd" clip-rule="evenodd" d="M531.584 31.1178C523.344 21.8993 505.964 17.5285 473.427 13.1339C315.522 -6.42344 178.419 -1.70921 51.5565 14.2578C26.2575 17.8248 5.83352 22.1305 2.40783 30.1393C1.01592 38.4647 10.0191 44.3589 10.3378 44.6496C48.0819 79.1114 448.311 88.2291 522.829 48.8466C530.906 45.4279 533.897 39.5533 531.584 31.1169V31.1173L531.584 31.1178Z" fill="#977323" stroke="#24211C" stroke-width="0.56786" stroke-miterlimit="1.5" stroke-linecap="round" stroke-linejoin="round"/>
<path fill-rule="evenodd" clip-rule="evenodd" d="M280.245 353.805L273.103 353.01C278.931 342.004 288.216 332.911 301.17 325.846C308.048 321.022 313.066 315.422 316.28 309.071C318.17 314.063 317.964 318.974 314.228 323.748C324.947 324.619 338.577 319.045 340.73 301.701C341.983 291.599 344.063 288.275 346.078 285.083C357.337 297.692 349.792 309.9 337.026 321.996C348.909 315.465 371.358 295.171 373.89 284.616C375.692 280.744 368.663 270.366 361 262.903C367.041 260.201 369.873 257.727 365.608 251.736C363.585 249.097 363.106 243.673 364.364 235.112C370.411 238.205 377.088 246.475 384.297 259.137C386.46 257.737 388.061 255.622 389.366 253.129C393.615 266.497 385.46 283.185 371.256 301.492C389.079 289.049 413.159 267.582 409.359 245.763C403.89 225.644 390.767 217.667 373.461 219.135C386.898 204.751 413.649 209.899 418.312 240.748C423.091 218.796 420.651 200.367 402.051 189.826C385.369 186.279 373.257 192.913 364.353 206.695C358.519 201.159 360.29 193.574 368.845 184.966C345.713 180.346 335.829 170.13 345.647 151.591C352.002 167.286 364.088 173.468 383.081 173.647C370.114 162.749 370.521 156.068 379.277 152.02C377.756 160.091 390.699 170.241 409.526 181.237C406.43 160.535 414.307 149.562 433.95 148.372C437.449 148.48 438.459 149.836 438.703 151.946C418.174 162.305 420.715 180.455 427.545 200.054C432.02 219.679 430.401 237.6 425.796 254.687C435.416 242.545 438.858 228.4 444.198 207.045C451.171 188.241 456.22 168.812 455.308 147.442C463.082 162.449 473.217 158.497 484.987 141.418C479.729 154.064 478.654 165.89 483.767 176.505C467.565 176.816 460.788 188.314 458.977 202.78C466.088 198.191 474.533 201.852 481.94 209.32C460.967 213.345 447.479 225.159 439.733 244.397C447.976 239.85 455.882 242.627 463.379 254.267C446.122 251.915 433.912 257.49 414.674 276.613C422.972 279.533 429.088 284.092 433.431 289.983C414.723 286.885 396.898 293.006 379.916 307.913C392.55 305.914 399.844 309.874 403.282 318.138C384.431 311.952 364.219 315.876 343.3 325.063C353.354 327.811 355.571 333.87 353.316 341.816C339.978 323.142 295.181 331.795 280.244 353.803L280.245 353.805Z" fill="url(#paint14_linear_4156_24295)" stroke="#24211C" stroke-width="0.56786" stroke-miterlimit="1.5" stroke-linecap="round" stroke-linejoin="round"/>
<path fill-rule="evenodd" clip-rule="evenodd" d="M253.594 355.077C252.229 346.542 248.279 338.569 242.579 330.976C229.976 323.451 222.939 315.291 221.703 306.468C217.383 310.909 216.465 316.716 223.933 325.889C205.566 322.846 191.973 311.244 186.986 284.213C175.835 292.611 178.083 303.573 189.869 316.36C168.224 304.679 155.134 291.637 158.187 276.025C159.854 268.689 163.274 261.721 168.941 255.222C170.876 249.674 170.115 243.698 167.437 237.417C155.206 243.829 150.36 252.863 148.395 262.921C148.106 259.012 147.244 255.477 143.733 253.663C138.418 258.171 137.472 265.143 144.343 274.768C147.618 280.107 150.3 286.062 152.861 292.145C133.3 278.493 119.767 263.045 121.075 243.171C127.641 226.19 140.115 219.949 157.985 223.519C157.672 213.498 151.37 208.525 134.997 212.042C120.834 218.172 115.255 226.195 115.672 235.54C114.884 243.942 113.765 247.352 112.573 249.67C104.622 234.951 106.932 219.368 116.787 203.15C132.954 181.634 160.346 191.019 169.961 212.552C174.519 199.342 173.011 188.874 161.445 182.952C185.3 181.402 199.771 161.945 185.409 152.375C177.158 166.438 162.144 174.155 139.429 177.021C155.982 170.373 161.318 162.178 155.021 151.953C151.743 159.551 146.561 166.34 134.783 172.672C130.126 175.175 126.501 179.886 122.708 182.946C130.162 160.951 120.259 149.633 95.9124 147.2C97.4345 153.915 100.845 157.918 107.183 162.392C114.951 167.876 109.984 182.951 105.188 192.332C96.0286 212.449 97.8182 232.854 105.507 253.415C92.3368 249.866 77.8921 177.105 78.1493 171.028C77.7538 164.574 81.7747 157.131 87.986 148.278C75.3897 152.144 68.3103 160.195 67.8125 173.237C59.7869 165.999 50.2949 139.17 51.8929 138.488C48.6736 145.502 46.827 152.984 46.9051 160.757C47.8603 170.108 50.075 175.496 52.5899 178.142L68.9154 192.953C71.6269 196.369 73.4336 200.122 72.2302 205.002C59.0984 193.169 49.9901 192.773 45.9863 206.885C60.7421 208.737 74.2244 225.448 87.0564 243.975C72.7087 243.603 64.3545 245.387 67.1217 253.391C82.3838 252.589 100.345 261.004 120.873 278.176C106.19 278.53 96.9268 282.08 93.2834 288.945C113.219 288.02 131.969 292.267 148.895 304.467C135.754 305.578 127.47 310.472 125.111 317.203C139.804 314.289 154.106 313.25 167.753 318.684C175.014 321.856 182.399 323.902 189.854 325.3C176.202 329.095 170.941 334.688 172.11 341.657C205.252 328.885 240.301 331.925 247.918 354.395C248.529 356.196 253.594 355.077 253.594 355.077V355.078L253.594 355.077Z" fill="url(#paint15_linear_4156_24295)" stroke="#24211C" stroke-width="0.56786" stroke-miterlimit="1.5" stroke-linecap="round" stroke-linejoin="round"/>
<path d="M5.29199 53.6562C64.8411 100.444 450.445 96.4655 525.441 57.5667" stroke="black" stroke-width="0.181912" stroke-miterlimit="1.5" stroke-linecap="round" stroke-linejoin="round"/>
<path d="M7.98047 60.1133C67.8999 103.975 447.734 100.388 522.336 64.6082" stroke="black" stroke-width="0.181912" stroke-miterlimit="1.5" stroke-linecap="round" stroke-linejoin="round"/>
<path fill-rule="evenodd" clip-rule="evenodd" d="M500.887 31.4674C493.606 24.5956 479.449 21.6275 450.697 18.3512C323.522 4.05763 199.369 6.71377 76.9609 18.7563C54.6051 21.4158 36.2939 24.7682 33.2668 30.7384C32.0369 36.9445 39.9925 41.3387 40.2739 41.5555C73.6272 67.2455 427.301 74.0424 493.151 44.6838C500.288 42.1353 502.931 37.756 500.887 31.4674Z" fill="url(#paint16_linear_4156_24295)"/>
<path d="M500.887 31.4674C493.606 24.5956 479.449 21.6275 450.697 18.3512C323.522 4.05763 199.369 6.71377 76.9609 18.7563C54.6051 21.4158 36.2939 24.7682 33.2668 30.7384C32.0369 36.9445 39.9925 41.3387 40.2739 41.5555C73.6272 67.2455 427.301 74.0424 493.151 44.6838C500.288 42.1353 502.931 37.756 500.887 31.4674ZM500.887 31.4674L500.888 31.4678" stroke="#24211C" stroke-width="0.181912" stroke-miterlimit="1.5" stroke-linecap="round" stroke-linejoin="round"/>
<path fill-rule="evenodd" clip-rule="evenodd" d="M22.4889 113.283C18.1902 108.4 18.7584 104.446 23.4755 101.285C40.1882 121.89 173.539 134.268 267.715 131.632C371.201 135.023 511.748 119.54 510.298 103.709C517.582 106.186 516.931 111.21 510.369 117.996C464.535 139.175 353.755 144.677 267.612 143.622C171.298 145.642 51.2912 132.807 22.4893 113.283H22.4889Z" fill="url(#paint17_linear_4156_24295)" stroke="#24211C" stroke-width="0.56786" stroke-miterlimit="1.5" stroke-linecap="round" stroke-linejoin="round"/>
<path fill-rule="evenodd" clip-rule="evenodd" d="M8.6889 61.034L5.20801 53.7656C28.7614 77.4532 131.825 85.9057 265.997 87.9953C372.747 86.4863 470.319 81.0083 525.362 58.1938C525.057 60.4287 523.633 62.3741 522.486 64.6766C474.306 82.2104 388.892 91.3408 265.816 91.972C157.64 90.4125 53.5177 87.274 8.68801 61.0335H8.68845L8.6889 61.034Z" fill="#8A6522" stroke="#24211C" stroke-width="0.56786" stroke-miterlimit="1.5" stroke-linecap="round" stroke-linejoin="round"/>
<g clip-path="url(#clip0_4156_24295)">
<path d="M264.487 156.609C264.94 156.373 265.412 156.882 265.149 157.313L219.795 231.929C219.616 232.223 219.201 232.254 218.98 231.993C217.003 229.645 212.344 223.489 210.454 215.67C208.572 207.884 209.427 198.434 218.491 189.383C235.233 172.666 256.572 160.736 264.487 156.609Z" fill="#FFFBF6" stroke="#3F3F3F"/>
<path d="M200.188 213.202C200.372 212.703 201.122 212.797 201.16 213.347C201.544 218.851 204.031 224.779 206.963 230.245C209.894 235.709 213.321 240.8 215.597 244.564C220.255 252.27 253.938 303.541 264.063 318.939C264.346 319.369 263.878 319.877 263.441 319.675L263.354 319.625L225.464 293.106C201.753 276.513 190.838 246.887 198.354 218.971C198.949 216.759 199.588 214.823 200.188 213.202Z" fill="#FFFBF6" stroke="#3F3F3F"/>
<path d="M315.079 244.352C315.258 244.058 315.673 244.026 315.894 244.287C317.871 246.635 322.53 252.79 324.42 260.61C326.302 268.396 325.448 277.848 316.384 286.898C299.643 303.615 278.304 315.545 270.388 319.671C269.936 319.907 269.463 319.399 269.725 318.967L315.079 244.352Z" fill="#FFFBF6" stroke="#3F3F3F"/>
<path d="M270.86 157.331C270.559 156.874 271.111 156.326 271.569 156.646L309.461 183.164C333.171 199.758 344.086 229.384 336.57 257.301C335.975 259.513 335.336 261.447 334.736 263.068C334.551 263.569 333.803 263.473 333.765 262.925C333.38 257.42 330.894 251.492 327.962 246.025C325.031 240.561 321.604 235.471 319.328 231.707C314.67 224.002 280.986 172.729 270.86 157.331Z" fill="#FFFBF6" stroke="#3F3F3F"/>
</g>
<defs>
<linearGradient id="paint0_linear_4156_24295" x1="83.5107" y1="574.002" x2="451.205" y2="574.002" gradientUnits="userSpaceOnUse">
<stop stop-color="#B2822A"/>
<stop offset="0.697115" stop-color="#8A6522"/>
</linearGradient>
<linearGradient id="paint1_linear_4156_24295" x1="93.0176" y1="567.42" x2="442.1" y2="567.42" gradientUnits="userSpaceOnUse">
<stop stop-color="#B2822A"/>
<stop offset="0.697115" stop-color="#8A6522"/>
</linearGradient>
<linearGradient id="paint2_linear_4156_24295" x1="122.501" y1="542.89" x2="407.712" y2="542.89" gradientUnits="userSpaceOnUse">
<stop stop-color="#B2822A"/>
<stop offset="0.697115" stop-color="#8A6522"/>
</linearGradient>
<linearGradient id="paint3_linear_4156_24295" x1="128.982" y1="518.255" x2="402.286" y2="518.255" gradientUnits="userSpaceOnUse">
<stop stop-color="#B2822A"/>
<stop offset="0.697115" stop-color="#8A6522"/>
</linearGradient>
<linearGradient id="paint4_linear_4156_24295" x1="216.851" y1="465.194" x2="314.469" y2="465.194" gradientUnits="userSpaceOnUse">
<stop stop-color="#B2822A"/>
<stop offset="0.697115" stop-color="#8A6522"/>
</linearGradient>
<linearGradient id="paint5_linear_4156_24295" x1="206.89" y1="437.177" x2="325.317" y2="437.177" gradientUnits="userSpaceOnUse">
<stop stop-color="#B2822A"/>
<stop offset="0.697115" stop-color="#8A6522"/>
</linearGradient>
<linearGradient id="paint6_linear_4156_24295" x1="215.194" y1="408.387" x2="314.54" y2="408.387" gradientUnits="userSpaceOnUse">
<stop stop-color="#B2822A"/>
<stop offset="0.697115" stop-color="#8A6522"/>
</linearGradient>
<linearGradient id="paint7_linear_4156_24295" x1="207.027" y1="388.51" x2="326.966" y2="388.51" gradientUnits="userSpaceOnUse">
<stop stop-color="#B2822A"/>
<stop offset="0.697115" stop-color="#8A6522"/>
</linearGradient>
<linearGradient id="paint8_linear_4156_24295" x1="362.138" y1="236.903" x2="178.118" y2="236.903" gradientUnits="userSpaceOnUse">
<stop offset="0.211538" stop-color="#C17E0A"/>
<stop offset="0.985577" stop-color="#D38C12"/>
</linearGradient>
<linearGradient id="paint9_linear_4156_24295" x1="8.69043" y1="96.4746" x2="522.488" y2="96.4746" gradientUnits="userSpaceOnUse">
<stop stop-color="#6F4E1B"/>
<stop offset="1" stop-color="#573D16"/>
</linearGradient>
<linearGradient id="paint10_linear_4156_24295" x1="206.792" y1="367.39" x2="327.222" y2="367.39" gradientUnits="userSpaceOnUse">
<stop stop-color="#B2822A"/>
<stop offset="0.697115" stop-color="#8A6522"/>
</linearGradient>
<linearGradient id="paint11_linear_4156_24295" x1="315.375" y1="518.567" x2="217.073" y2="518.567" gradientUnits="userSpaceOnUse">
<stop offset="0.211538" stop-color="#C17E0A"/>
<stop offset="0.985577" stop-color="#D18B11"/>
</linearGradient>
<linearGradient id="paint12_linear_4156_24295" x1="152.776" y1="514.901" x2="261.32" y2="514.901" gradientUnits="userSpaceOnUse">
<stop offset="0.384615" stop-color="#976C1D"/>
<stop offset="1" stop-color="#986E22"/>
</linearGradient>
<linearGradient id="paint13_linear_4156_24295" x1="267.325" y1="515.01" x2="378.683" y2="515.01" gradientUnits="userSpaceOnUse">
<stop stop-color="#856020"/>
<stop offset="1" stop-color="#8A6522"/>
</linearGradient>
<linearGradient id="paint14_linear_4156_24295" x1="273.103" y1="247.611" x2="484.987" y2="247.611" gradientUnits="userSpaceOnUse">
<stop stop-color="#976E25"/>
<stop offset="1" stop-color="#8A6522"/>
</linearGradient>
<linearGradient id="paint15_linear_4156_24295" x1="45.9863" y1="246.954" x2="253.594" y2="246.954" gradientUnits="userSpaceOnUse">
<stop offset="0.384615" stop-color="#A67723"/>
<stop offset="1" stop-color="#72531B"/>
</linearGradient>
<linearGradient id="paint16_linear_4156_24295" x1="33.1377" y1="36.2868" x2="501.558" y2="36.2868" gradientUnits="userSpaceOnUse">
<stop stop-color="#66501E"/>
<stop offset="1" stop-color="#AB832B"/>
</linearGradient>
<linearGradient id="paint17_linear_4156_24295" x1="19.5762" y1="122.558" x2="515.528" y2="122.558" gradientUnits="userSpaceOnUse">
<stop stop-color="#B2822A"/>
<stop offset="0.697115" stop-color="#8A6522"/>
</linearGradient>
<clipPath id="clip0_4156_24295">
<rect width="144.223" height="164.902" fill="white" transform="translate(195.351 155.57)"/>
</clipPath>
</defs>
</svg>
