<svg width="12" height="7" viewBox="0 0 12 7" fill="none" xmlns="http://www.w3.org/2000/svg">
<path d="M6.7002 6.22266C6.7002 5.80844 6.36441 5.47266 5.9502 5.47266C5.53598 5.47266 5.2002 5.80844 5.2002 6.22266H5.9502H6.7002ZM5.41987 6.75309C5.71276 7.04598 6.18763 7.04598 6.48053 6.75309L11.2535 1.98012C11.5464 1.68722 11.5464 1.21235 11.2535 0.919456C10.9606 0.626563 10.4857 0.626563 10.1928 0.919456L5.9502 5.1621L1.70756 0.919456C1.41466 0.626563 0.939789 0.626563 0.646895 0.919456C0.354002 1.21235 0.354002 1.68722 0.646895 1.98012L5.41987 6.75309ZM5.9502 6.22266H5.2002V6.22276H5.9502H6.7002V6.22266H5.9502Z" fill="white"/>
</svg>
