<svg width="16" height="17" viewBox="0 0 16 17" fill="none" xmlns="http://www.w3.org/2000/svg">
<path d="M5.56388 12.6667H2.80501C1.78256 12.6667 1.27133 12.6667 1.16377 12.5852C1.04292 12.4938 1.0134 12.4398 1.00031 12.2863C0.988666 12.1497 1.302 11.6239 1.92867 10.5722C2.57569 9.48628 3.12509 7.90518 3.12509 5.66667C3.12509 4.42899 3.63869 3.242 4.55292 2.36684C5.46714 1.49167 6.70709 1 8 1C9.29291 1 10.5329 1.49167 11.4471 2.36684C12.3613 3.242 12.8749 4.42899 12.8749 5.66667C12.8749 7.90518 13.4243 9.48628 14.0713 10.5722C14.698 11.6239 15.0113 12.1497 14.9997 12.2863C14.9866 12.4398 14.9571 12.4938 14.8362 12.5852C14.7287 12.6667 14.2174 12.6667 13.195 12.6667H10.4375M5.56388 12.6667L5.56254 13.5C5.56254 14.8807 6.65383 16 8 16C9.34617 16 10.4375 14.8807 10.4375 13.5V12.6667M5.56388 12.6667H10.4375" stroke="white" stroke-width="1.2" stroke-linecap="round" stroke-linejoin="round"/>
</svg>
