<svg width="166" height="175" viewBox="0 0 166 175" fill="none" xmlns="http://www.w3.org/2000/svg">
<path d="M104 7.5C75.0078 7.5 51.5 31.0078 51.5 60C51.5 88.9922 75.0078 112.5 104 112.5C132.992 112.5 156.5 88.9922 156.5 60C156.5 31.0078 132.992 7.5 104 7.5ZM106.613 85.4531L106.637 89.168C106.637 89.6836 106.215 90.1172 105.699 90.1172H102.371C101.855 90.1172 101.434 89.6953 101.434 89.1797V85.5C91.0273 84.7266 86.1289 78.7969 85.6016 72.3516C85.5547 71.8008 85.9883 71.332 86.5391 71.332H91.9531C92.4102 71.332 92.8086 71.6602 92.8789 72.1055C93.4766 75.8203 96.3711 78.5977 101.563 79.2891V62.5664L98.668 61.8281C92.5391 60.3633 86.7031 56.543 86.7031 48.6211C86.7031 40.0781 93.1953 35.4844 101.492 34.6758V30.8086C101.492 30.293 101.914 29.8711 102.43 29.8711H105.723C106.238 29.8711 106.66 30.293 106.66 30.8086V34.6406C114.688 35.4492 120.711 40.1367 121.414 47.4375C121.473 47.9883 121.039 48.4688 120.477 48.4688H115.215C114.746 48.4688 114.348 48.1172 114.289 47.6602C113.82 44.2383 111.078 41.4492 106.613 40.8398V56.5781L109.59 57.2695C117.184 59.1445 122.352 62.7773 122.352 70.9102C122.352 79.7344 115.789 84.6563 106.613 85.4531ZM93.9922 48.082C93.9922 51.0586 95.832 53.3672 99.793 54.7969C100.344 55.0195 100.895 55.1953 101.551 55.3828V40.8516C97.2266 41.4023 93.9922 43.8281 93.9922 48.082ZM107.645 63.9258C107.316 63.8555 106.988 63.7734 106.613 63.668V79.3359C111.605 78.8906 115.051 76.1484 115.051 71.5547C115.051 67.957 113.187 65.6133 107.645 63.9258Z" fill="white"/>
<path d="M166 153.335L99.8333 175L41.5 163V170H0V92H61.7497L113.083 105.835C117.657 107.56 121.598 110.637 124.382 114.656C127.165 118.675 128.66 123.446 128.666 128.335H141C154.833 128.335 166 139.501 166 153.335ZM28.6663 160.5V103.335H11.9997V160.5H28.6663ZM151.434 147C150.101 144.25 148.583 141 145.333 141H100.75C96.2497 141 91.833 141 87.583 139.583L67.7497 133L72.9997 120.501L92.833 127.085C95.4163 127.918 112 128.335 112 128.335C112 125.251 111.333 119.583 108.5 118.5L58.7497 103.335H41.5V149.001L102.017 162.333L151.434 147Z" fill="white"/>
</svg>
