<svg width="19" height="19" viewBox="0 0 19 19" fill="none" xmlns="http://www.w3.org/2000/svg">
<g clip-path="url(#clip0_2643_16741)">
<path d="M0.465495 15.6911L7.77861 8.44141L8.5248 9.18882L1.21169 16.4385C1.16252 16.4876 1.12351 16.5458 1.09689 16.6099C1.07027 16.6741 1.05655 16.7428 1.05654 16.8122C1.05682 16.9531 1.11256 17.0881 1.21169 17.1881L1.81012 17.7856C1.91105 17.882 2.04524 17.9358 2.1848 17.9358C2.32436 17.9358 2.45856 17.882 2.55948 17.7856L9.95099 10.627L10.6982 11.3733L3.30568 18.533C3.15862 18.6805 2.98391 18.7975 2.79158 18.8773C2.59924 18.9571 2.39304 18.9982 2.1848 18.9982C1.97656 18.9982 1.77037 18.9571 1.57803 18.8773C1.38569 18.7975 1.21099 18.6805 1.06393 18.533L0.465495 17.9355C0.317903 17.7884 0.200796 17.6136 0.120891 17.4211C0.0409862 17.2286 -0.000145503 17.0222 -0.000145503 16.8138C-0.000145503 16.6054 0.0409862 16.3991 0.120891 16.2066C0.200796 16.0141 0.317903 15.8393 0.465495 15.6922V15.6911Z" fill="white"/>
<path d="M14.0953 14.5336C13.8162 14.8291 13.4328 15.004 13.0267 15.0212C12.6206 15.0384 12.2239 14.8964 11.9208 14.6256C11.6177 14.3547 11.4321 13.9763 11.4036 13.5708C11.3751 13.1652 11.5059 12.7646 11.7681 12.454L6.55422 7.23894C6.24018 7.48453 5.84451 7.60148 5.44746 7.56607C5.0504 7.53067 4.68166 7.34557 4.416 7.0483C4.15034 6.75102 4.00764 6.36383 4.01683 5.96521C4.02602 5.5666 4.18642 5.18639 4.46551 4.90169L8.90679 0.458377C9.20323 0.16473 9.60358 0 10.0208 0C10.438 0 10.8384 0.16473 11.1348 0.458377C11.4091 0.730446 11.5726 1.09469 11.5937 1.48049C11.6147 1.86629 11.4918 2.24617 11.2488 2.54649L16.4658 7.76361C16.7668 7.53078 17.141 7.41288 17.5211 7.43107C17.9012 7.44925 18.2623 7.60234 18.5398 7.86285C18.8351 8.15823 19.001 8.55885 19.001 8.97658C19.001 9.39431 18.8351 9.79493 18.5398 10.0903L14.0953 14.5336ZM12.4889 11.6833L15.6911 8.48252L10.5195 3.30974L7.3173 6.51264L12.4889 11.6833ZM10.3886 1.20368C10.3404 1.15465 10.2829 1.11572 10.2195 1.08914C10.1561 1.06256 10.088 1.04887 10.0192 1.04887C9.95045 1.04887 9.88238 1.06256 9.81896 1.08914C9.75554 1.11572 9.69804 1.15465 9.64981 1.20368L5.20854 5.64699C5.15926 5.69508 5.1201 5.75255 5.09337 5.816C5.06663 5.87946 5.05286 5.94762 5.05286 6.01648C5.05286 6.08534 5.06663 6.1535 5.09337 6.21696C5.1201 6.28041 5.15926 6.33787 5.20854 6.38596C5.30718 6.48268 5.43981 6.53685 5.57794 6.53685C5.71607 6.53685 5.8487 6.48268 5.94734 6.38596L10.3886 1.93843C10.4368 1.89037 10.475 1.83328 10.5011 1.77042C10.5272 1.70756 10.5406 1.64017 10.5406 1.57211C10.5406 1.50405 10.5272 1.43666 10.5011 1.3738C10.475 1.31094 10.4368 1.25384 10.3886 1.20579V1.20368ZM17.7904 8.6092C17.7426 8.56073 17.6855 8.52231 17.6226 8.4962C17.5597 8.4701 17.4923 8.45683 17.4242 8.45719C17.3559 8.45699 17.2883 8.47032 17.2253 8.49641C17.1623 8.5225 17.105 8.56084 17.0569 8.6092L16.812 8.85412L12.8636 12.8034L12.6188 13.0472C12.5702 13.0958 12.5318 13.1534 12.5055 13.2168C12.4793 13.2802 12.4657 13.3481 12.4657 13.4167C12.4657 13.4853 12.4793 13.5533 12.5055 13.6167C12.5318 13.6801 12.5702 13.7377 12.6188 13.7862C12.6673 13.8347 12.7249 13.8732 12.7882 13.8995C12.8516 13.9257 12.9196 13.9393 12.9882 13.9393C13.0568 13.9393 13.1247 13.9257 13.1881 13.8995C13.2515 13.8732 13.3091 13.8347 13.3576 13.7862L17.7904 9.34395C17.8395 9.29579 17.8786 9.2383 17.9052 9.17486C17.9319 9.11141 17.9456 9.04328 17.9456 8.97447C17.9456 8.90565 17.9319 8.83752 17.9052 8.77408C17.8786 8.71063 17.8395 8.65314 17.7904 8.60498V8.6092ZM10.0277 15.8321H17.4157C17.8356 15.8321 18.2383 15.9989 18.5352 16.2959C18.8321 16.5929 18.9989 16.9956 18.9989 17.4156V18.4713C18.9989 18.6113 18.9433 18.7455 18.8443 18.8445C18.7453 18.9435 18.6111 18.9991 18.4712 18.9991H8.97222C8.83226 18.9991 8.69804 18.9435 8.59907 18.8445C8.5001 18.7455 8.44451 18.6113 8.44451 18.4713V17.4156C8.44451 16.9956 8.6113 16.5929 8.9082 16.2959C9.2051 15.9989 9.60778 15.8321 10.0277 15.8321ZM9.49994 17.9434H17.9434V17.4156C17.9434 17.2756 17.8878 17.1414 17.7889 17.0424C17.6899 16.9434 17.5557 16.8878 17.4157 16.8878H10.0277C9.8877 16.8878 9.75347 16.9434 9.65451 17.0424C9.55554 17.1414 9.49994 17.2756 9.49994 17.4156V17.9434Z" fill="white"/>
</g>
<defs>
<clipPath id="clip0_2643_16741">
<rect width="19.0011" height="19.0002" fill="white" transform="matrix(-1 0 0 1 19.001 0)"/>
</clipPath>
</defs>
</svg>
