<svg xmlns="http://www.w3.org/2000/svg" viewBox="0 0 24 24"><g data-name="Layer 7"><path d="m20.56 17.869-6.222-6.223-.707.708 6.222 6.223a.5.5 0 0 1 .147.354.507.507 0 0 1-.147.356l-.567.566a.514.514 0 0 1-.71 0l-6.222-6.223-.708.707 6.223 6.224a1.5 1.5 0 0 0 2.124 0l.567-.566a1.5 1.5 0 0 0 0-2.125Z"/><path d="M7.646 16.77a1.479 1.479 0 0 0 2.205-1.97l4.94-4.94a1.488 1.488 0 0 0 1.979-2.214l-4.208-4.209a1.5 1.5 0 0 0-2.111 0 1.477 1.477 0 0 0-.108 1.978L5.4 10.357a1.516 1.516 0 0 0-1.965.094 1.492 1.492 0 0 0 0 2.11zm1.522-2.7-3.034-3.032 4.9-4.9 3.034 3.034zm1.99-9.927a.491.491 0 0 1 .7 0l4.208 4.209a.489.489 0 0 1 0 .7.5.5 0 0 1-.7 0l-4.208-4.213a.49.49 0 0 1 0-.694zm-7.013 7.015a.484.484 0 0 1 .347-.144.489.489 0 0 1 .348.144l.232.232 3.741 3.741.232.231a.492.492 0 1 1-.7.7l-4.2-4.208a.49.49 0 0 1 0-.7zM11.5 18h-7A1.5 1.5 0 0 0 3 19.5v1a.5.5 0 0 0 .5.5h9a.5.5 0 0 0 .5-.5v-1a1.5 1.5 0 0 0-1.5-1.5zm.5 2H4v-.5a.5.5 0 0 1 .5-.5h7a.5.5 0 0 1 .5.5z"/></g></svg>