<svg width="24" height="24" viewBox="0 0 24 24" fill="none" xmlns="http://www.w3.org/2000/svg">
<path d="M8.46777 8.39555L8.46577 8.39655L8.46277 8.39855L8.46777 8.39555ZM18.4218 8.20855C18.3522 8.14143 18.275 8.08269 18.1918 8.03355C18.0739 7.96417 17.9431 7.91969 17.8074 7.90288C17.6717 7.88606 17.534 7.89726 17.4027 7.93578C17.2715 7.9743 17.1496 8.03933 17.0445 8.12684C16.9394 8.21434 16.8534 8.32248 16.7918 8.44455C16.4474 9.12347 15.9723 9.72769 15.3938 10.2225C15.4825 9.7241 15.5273 9.21883 15.5278 8.71255C15.5297 7.17268 15.1235 5.65982 14.3506 4.32797C13.5777 2.99613 12.4657 1.89288 11.1278 1.13055C10.9803 1.04678 10.814 1.00187 10.6445 1.00006C10.4749 0.998243 10.3077 1.03958 10.1585 1.12017C10.0093 1.20077 9.88302 1.31798 9.79159 1.46079C9.70015 1.6036 9.64653 1.76732 9.63577 1.93655C9.57979 2.88465 9.33191 3.81151 8.90717 4.661C8.48243 5.51048 7.88966 6.2649 7.16477 6.87855L6.93477 7.06555C6.17639 7.57579 5.50513 8.20485 4.94677 8.92855C4.07905 10.0217 3.47796 11.3019 3.19119 12.6678C2.90442 14.0337 2.93985 15.4476 3.29467 16.7974C3.64949 18.1472 4.31394 19.3957 5.23532 20.444C6.1567 21.4923 7.30967 22.3115 8.60277 22.8365C8.75459 22.8983 8.91927 22.9219 9.08232 22.9051C9.24537 22.8883 9.40179 22.8316 9.53781 22.7402C9.67383 22.6487 9.78527 22.5252 9.86234 22.3805C9.93941 22.2359 9.97974 22.0745 9.97977 21.9105C9.97894 21.8046 9.96208 21.6994 9.92977 21.5985C9.70604 20.7576 9.64159 19.8822 9.73977 19.0175C10.6862 20.8021 12.2053 22.2166 14.0528 23.0335C14.2782 23.1343 14.533 23.1479 14.7678 23.0715C16.2272 22.6004 17.542 21.7639 18.5872 20.6416C19.6323 19.5192 20.3732 18.1483 20.7393 16.659C21.1055 15.1697 21.0847 13.6115 20.6791 12.1325C20.2735 10.6534 19.4964 9.3027 18.4218 8.20855ZM14.5168 21.0395C13.6451 20.5978 12.8761 19.9776 12.2598 19.2192C11.6435 18.4608 11.1938 17.5812 10.9398 16.6375C10.8621 16.3198 10.802 15.9979 10.7598 15.6735C10.7313 15.467 10.639 15.2745 10.4957 15.123C10.3525 14.9714 10.1654 14.8685 9.96077 14.8285C9.89785 14.8163 9.83388 14.8103 9.76977 14.8105C9.59407 14.8104 9.42143 14.8565 9.26922 14.9443C9.11702 15.0321 8.99062 15.1584 8.90277 15.3105C8.07322 16.7418 7.65615 18.3748 7.69777 20.0285C6.96793 19.4612 6.35795 18.7547 5.90319 17.9499C5.44843 17.1451 5.15794 16.2581 5.04855 15.3402C4.93916 14.4223 5.01305 13.4918 5.26594 12.6027C5.51883 11.7136 5.94569 10.8835 6.52177 10.1605C6.95919 9.59239 7.48687 9.09984 8.08377 8.70255C8.10989 8.68579 8.13494 8.66742 8.15877 8.64755C8.15877 8.64755 8.45477 8.40255 8.46477 8.39755C9.88997 7.19259 10.9037 5.57301 11.3648 3.76455C12.4542 4.77191 13.1805 6.11081 13.431 7.57331C13.6814 9.03582 13.442 10.5401 12.7498 11.8525C12.6582 12.0277 12.6205 12.2261 12.6416 12.4227C12.6627 12.6192 12.7416 12.8051 12.8683 12.9569C12.995 13.1086 13.1639 13.2194 13.3535 13.2752C13.5431 13.3311 13.7451 13.3294 13.9338 13.2705C15.4655 12.7902 16.8133 11.8521 17.7958 10.5825C18.3865 11.4548 18.7727 12.4491 18.9256 13.4914C19.0786 14.5336 18.9943 15.597 18.6791 16.6021C18.3639 17.6073 17.826 18.5284 17.1053 19.2967C16.3846 20.065 15.4998 20.6608 14.5168 21.0395Z" fill="white"/>
</svg>
