<svg width="18" height="18" viewBox="0 0 18 18" fill="none" xmlns="http://www.w3.org/2000/svg">
<path d="M6.5 15.6667C6.5 16.1269 6.1269 16.5 5.66667 16.5C5.20643 16.5 4.83333 16.1269 4.83333 15.6667C4.83333 15.2064 5.20643 14.8333 5.66667 14.8333C6.1269 14.8333 6.5 15.2064 6.5 15.6667Z" fill="white"/>
<path d="M15.6667 15.6667C15.6667 16.1269 15.2936 16.5 14.8333 16.5C14.3731 16.5 14 16.1269 14 15.6667C14 15.2064 14.3731 14.8333 14.8333 14.8333C15.2936 14.8333 15.6667 15.2064 15.6667 15.6667Z" fill="white"/>
<path d="M5.14726 9H14.8333L16.5 3.16667H7.33333M15.6667 12.3333H5.66667L4 1.5H1.5M6.5 15.6667C6.5 16.1269 6.1269 16.5 5.66667 16.5C5.20643 16.5 4.83333 16.1269 4.83333 15.6667C4.83333 15.2064 5.20643 14.8333 5.66667 14.8333C6.1269 14.8333 6.5 15.2064 6.5 15.6667ZM15.6667 15.6667C15.6667 16.1269 15.2936 16.5 14.8333 16.5C14.3731 16.5 14 16.1269 14 15.6667C14 15.2064 14.3731 14.8333 14.8333 14.8333C15.2936 14.8333 15.6667 15.2064 15.6667 15.6667Z" stroke="white" stroke-width="1.2" stroke-linecap="round" stroke-linejoin="round"/>
</svg>
