<svg width="493" height="469" viewBox="0 0 493 469" fill="none" xmlns="http://www.w3.org/2000/svg">
<path d="M246.501 221.841C232.887 221.841 221.851 210.805 221.851 197.191C221.851 183.577 232.887 172.541 246.501 172.541C260.115 172.541 271.151 183.577 271.151 197.191C271.151 210.805 260.115 221.841 246.501 221.841Z" fill="#FFDFC0"/>
<path d="M147.904 221.841C134.29 221.841 123.254 210.805 123.254 197.191C123.254 183.577 134.29 172.541 147.904 172.541C161.518 172.541 172.554 183.577 172.554 197.191C172.554 210.805 161.518 221.841 147.904 221.841Z" fill="#FFDFC0"/>
<path d="M345.1 221.841C331.486 221.841 320.45 210.805 320.45 197.191C320.45 183.577 331.486 172.541 345.1 172.541C358.714 172.541 369.75 183.577 369.75 197.191C369.75 210.805 358.714 221.841 345.1 221.841Z" fill="#FFDFC0"/>
<path d="M73.95 0H419.05C438.663 0 457.472 7.79114 471.341 21.6595C485.209 35.5278 493 54.3372 493 73.95V443.7C492.992 448.068 491.824 452.355 489.616 456.123C487.407 459.892 484.236 463.005 480.429 465.146C476.744 467.233 472.585 468.337 468.35 468.35C463.926 468.349 459.583 467.157 455.779 464.899L345.1 397.851C341.009 395.415 336.3 394.217 331.542 394.4H73.95C54.3372 394.4 35.5278 386.609 21.6595 372.741C7.79114 358.872 7.62939e-06 340.063 7.62939e-06 320.45V73.95C7.62939e-06 54.3372 7.79114 35.5278 21.6595 21.6595C35.5278 7.79114 54.3372 0 73.95 0ZM49.3 320.45C49.3 326.988 51.897 333.257 56.5198 337.88C61.1426 342.503 67.4124 345.1 73.95 345.1H331.542C345.006 345.089 358.216 348.754 369.75 355.7L443.7 400.069V73.95C443.7 67.4124 441.103 61.1426 436.48 56.5198C431.857 51.8971 425.588 49.3 419.05 49.3H73.95C67.4124 49.3 61.1426 51.8971 56.5198 56.5198C51.897 61.1426 49.3 67.4124 49.3 73.95V320.45Z" fill="#FFDFC0"/>
</svg>
