<svg width="16" height="16" viewBox="0 0 16 16" fill="none" xmlns="http://www.w3.org/2000/svg">
<path d="M12.801 9.61033C12.3285 9.61345 11.8626 9.72107 11.4367 9.92546C11.0108 10.1299 10.6355 10.4259 10.3378 10.7924L6.25916 8.91546C6.45093 8.329 6.45093 7.69683 6.25916 7.11037L10.3378 5.23341C10.819 5.81324 11.4897 6.2047 12.2317 6.33869C12.9737 6.47269 13.7393 6.3406 14.3933 5.96575C15.0473 5.5909 15.5476 4.99737 15.8061 4.28993C16.0646 3.58249 16.0645 2.8066 15.8059 2.0992C15.5473 1.39181 15.0468 0.798376 14.3928 0.423642C13.7387 0.0489084 12.9732 -0.0830382 12.2312 0.0510892C11.4892 0.185217 10.8185 0.576795 10.3375 1.15672C9.85643 1.73664 9.59598 2.46762 9.60208 3.22066C9.60448 3.41094 9.62321 3.60066 9.65806 3.78775L5.43543 5.72861C4.98524 5.28898 4.41516 4.99181 3.79661 4.87433C3.17806 4.75685 2.53855 4.82429 1.9582 5.06818C1.37786 5.31208 0.882481 5.7216 0.534145 6.24542C0.185808 6.76925 0 7.38409 0 8.01291C0 8.64174 0.185808 9.25658 0.534145 9.78041C0.882481 10.3042 1.37786 10.7137 1.9582 10.9576C2.53855 11.2015 3.17806 11.269 3.79661 11.1515C4.41516 11.034 4.98524 10.7368 5.43543 10.2972L9.65806 12.2381C9.62321 12.4252 9.60448 12.6149 9.60208 12.8052C9.60208 13.437 9.78969 14.0547 10.1412 14.5801C10.4927 15.1055 10.9923 15.515 11.5768 15.7568C12.1614 15.9986 12.8046 16.0619 13.4251 15.9386C14.0457 15.8153 14.6157 15.5111 15.063 15.0643C15.5104 14.6174 15.8151 14.0482 15.9385 13.4284C16.062 12.8087 15.9986 12.1663 15.7565 11.5826C15.5144 10.9988 15.1044 10.4998 14.5783 10.1488C14.0522 9.79771 13.4337 9.61033 12.801 9.61033ZM12.801 1.62325C13.1174 1.62325 13.4266 1.71693 13.6897 1.89246C13.9527 2.06799 14.1577 2.31747 14.2788 2.60936C14.3998 2.90125 14.4315 3.22244 14.3698 3.53231C14.3081 3.84217 14.1557 4.12681 13.932 4.35021C13.7084 4.57361 13.4234 4.72575 13.1131 4.78739C12.8028 4.84902 12.4812 4.81739 12.1889 4.69649C11.8967 4.57558 11.6469 4.37084 11.4711 4.10814C11.2954 3.84545 11.2016 3.5366 11.2016 3.22066C11.2016 2.797 11.3701 2.39069 11.67 2.09112C11.97 1.79155 12.3768 1.62325 12.801 1.62325ZM3.20416 9.61033C2.88781 9.61033 2.57857 9.51664 2.31553 9.34112C2.0525 9.16559 1.84749 8.91611 1.72643 8.62422C1.60537 8.33233 1.57369 8.01114 1.63541 7.70127C1.69713 7.39141 1.84946 7.10677 2.07315 6.88337C2.29684 6.65997 2.58185 6.50783 2.89211 6.44619C3.20238 6.38456 3.52398 6.41619 3.81625 6.53709C4.10852 6.658 4.35832 6.86274 4.53408 7.12544C4.70983 7.38813 4.80364 7.69698 4.80364 8.01291C4.80364 8.43658 4.63512 8.84289 4.33516 9.14246C4.0352 9.44203 3.62837 9.61033 3.20416 9.61033ZM12.801 14.4026C12.4847 14.4026 12.1754 14.3089 11.9124 14.1334C11.6494 13.9578 11.4444 13.7084 11.3233 13.4165C11.2023 13.1246 11.1706 12.8034 11.2323 12.4935C11.294 12.1837 11.4463 11.899 11.67 11.6756C11.8937 11.4522 12.1787 11.3001 12.489 11.2384C12.7993 11.1768 13.1209 11.2084 13.4131 11.3293C13.7054 11.4502 13.9552 11.655 14.131 11.9177C14.3067 12.1804 14.4005 12.4892 14.4005 12.8052C14.4005 13.2288 14.232 13.6351 13.932 13.9347C13.6321 14.2343 13.2252 14.4026 12.801 14.4026Z" fill="#FFDFC0"/>
</svg>
