<svg width="14" height="14" viewBox="0 0 14 14" fill="none" xmlns="http://www.w3.org/2000/svg">
<g clip-path="url(#clip0_2914_21272)">
<path d="M1.74902 6.55948H3.93652C3.99454 6.55947 4.05018 6.53643 4.0912 6.4954C4.13222 6.45438 4.15527 6.39874 4.15527 6.34073V3.7168C4.15527 3.65878 4.13222 3.60314 4.0912 3.56212C4.05018 3.5211 3.99454 3.49805 3.93652 3.49805H1.74902C1.69101 3.49805 1.63537 3.5211 1.59435 3.56212C1.55332 3.60314 1.53028 3.65878 1.53027 3.7168V6.34073C1.53028 6.39874 1.55332 6.45438 1.59435 6.4954C1.63537 6.53643 1.69101 6.55947 1.74902 6.55948ZM1.96777 3.93555H3.71777V6.12198H1.96777V3.93555ZM7.98276 4.14789C8.05166 4.14789 8.12028 4.15035 8.18853 4.15419H9.18653C9.24454 4.15419 9.30018 4.13114 9.34121 4.09012C9.38223 4.0491 9.40528 3.99346 9.40528 3.93544C9.40528 3.87742 9.38223 3.82178 9.34121 3.78076C9.30018 3.73974 9.24454 3.71669 9.18653 3.71669H5.24966C5.19165 3.71669 5.13601 3.73974 5.09499 3.78076C5.05396 3.82178 5.03091 3.87742 5.03091 3.93544C5.03091 3.99346 5.05396 4.0491 5.09499 4.09012C5.13601 4.13114 5.19165 4.15419 5.24966 4.15419H7.7771C7.84535 4.15035 7.91385 4.14789 7.98276 4.14789ZM5.03091 5.02876C5.03092 5.08678 5.05397 5.14242 5.09499 5.18344C5.13601 5.22446 5.19165 5.24751 5.24966 5.24751H5.39751C5.40836 5.2363 5.41851 5.22465 5.42954 5.21355C5.57654 5.06569 5.73593 4.93069 5.90596 4.81001H5.24966C5.19165 4.81002 5.13601 4.83306 5.09499 4.87409C5.05397 4.91511 5.03092 4.97075 5.03091 5.02876ZM1.74902 7.76207H4.37717C4.37808 7.61579 4.38769 7.4697 4.40594 7.32457H1.74902C1.69101 7.32457 1.63537 7.34762 1.59434 7.38864C1.55332 7.42966 1.53027 7.4853 1.53027 7.54332C1.53027 7.60134 1.55332 7.65698 1.59434 7.698C1.63537 7.73902 1.69101 7.76207 1.74902 7.76207ZM1.74902 8.63653C1.69101 8.63653 1.63537 8.65958 1.59434 8.70061C1.55332 8.74163 1.53027 8.79727 1.53027 8.85528C1.53027 8.9133 1.55332 8.96894 1.59434 9.00996C1.63537 9.05099 1.69101 9.07403 1.74902 9.07403H4.6129C4.55875 8.93117 4.51364 8.78505 4.47782 8.63653H1.74902ZM5.08867 9.9485H1.74902C1.69101 9.9485 1.63537 9.97155 1.59434 10.0126C1.55332 10.0536 1.53027 10.1092 1.53027 10.1672C1.53027 10.2253 1.55332 10.2809 1.59434 10.3219C1.63537 10.363 1.69101 10.386 1.74902 10.386H5.47081C5.45715 10.3726 5.44302 10.36 5.42954 10.3464C5.30649 10.2221 5.19257 10.0892 5.08867 9.9485ZM1.53027 11.4792C1.53028 11.5372 1.55332 11.5929 1.59435 11.6339C1.63537 11.6749 1.69101 11.698 1.74902 11.698H9.18652C9.24454 11.698 9.30018 11.6749 9.3412 11.6339C9.38223 11.5929 9.40527 11.5372 9.40527 11.4792C9.40527 11.4212 9.38223 11.3656 9.3412 11.3245C9.30018 11.2835 9.24454 11.2605 9.18652 11.2605H9.019C8.34298 11.4626 7.62262 11.4626 6.9466 11.2605H1.74902C1.69101 11.2605 1.63537 11.2835 1.59435 11.3245C1.55332 11.3656 1.53028 11.4212 1.53027 11.4792Z" fill="#FFDFC0"/>
<path d="M10.9366 12.9372L10.4986 12.4957L10.4994 13.2907C10.4971 13.3666 10.4659 13.4387 10.4122 13.4923C10.3777 13.5301 10.3299 13.5532 10.2788 13.5569H0.629057C0.572805 13.5507 0.521217 13.5227 0.485313 13.479C0.449408 13.4352 0.432034 13.3792 0.436903 13.3228V0.682275C0.427821 0.601719 0.445822 0.520432 0.488065 0.451242C0.49244 0.446867 0.501416 0.437789 0.533994 0.43757H7.26451C7.3179 0.432356 7.37119 0.448355 7.41288 0.482111C7.45457 0.515867 7.48131 0.564669 7.48732 0.617974L7.49554 2.17272C7.50548 2.49946 7.78062 2.7337 8.16952 2.74224L10.1671 2.74213C10.1827 2.74294 10.1982 2.74581 10.2131 2.75064L10.2613 2.78998C10.2878 2.81138 10.3189 2.82625 10.3522 2.83339C10.4217 2.88461 10.4704 2.95913 10.4895 3.04334L10.4915 5.17165C10.5062 5.18592 10.5213 5.19952 10.5357 5.21407C10.6801 5.36003 10.8119 5.51797 10.9295 5.68621L10.927 3.04163C10.9251 2.77841 10.7066 2.49904 10.4423 2.37317L7.76011 0.186563C7.7408 0.171136 7.719 0.15913 7.69563 0.151069C7.57408 0.0525554 7.42214 -0.000803246 7.26568 7.00107e-05H0.532715C0.466785 -0.00104239 0.401304 0.0111115 0.340165 0.0358092C0.279025 0.060507 0.223475 0.0972444 0.176816 0.143838C0.112867 0.217543 0.0642426 0.30325 0.0337815 0.395954C0.00332043 0.488658 -0.00836668 0.586502 -0.000597436 0.683773V13.3243C-0.00378762 13.4096 0.00998093 13.4948 0.0399118 13.5748C0.0698426 13.6548 0.115342 13.7281 0.173777 13.7904C0.232213 13.8528 0.302425 13.9029 0.380352 13.9379C0.458279 13.9729 0.542375 13.9921 0.627775 13.9944H10.2811C10.364 13.9928 10.4458 13.9748 10.5218 13.9414C10.5977 13.908 10.6663 13.8599 10.7235 13.7998C10.8581 13.6636 10.9346 13.4805 10.9369 13.289L10.9366 12.9372ZM8.17433 2.30485C8.16472 2.30453 7.9371 2.29791 7.93294 2.16493L7.92617 0.886311L9.66612 2.30477L8.17433 2.30485Z" fill="#FFDFC0"/>
<path d="M13.8729 12.4718L12.1721 10.7572C12.1302 10.7173 12.0746 10.695 12.0168 10.695C11.9589 10.695 11.9033 10.7173 11.8615 10.7572L11.7848 10.8344L10.5771 9.6169C11.0052 9.00057 11.2045 8.25396 11.1404 7.50624C11.0763 6.75852 10.7529 6.05673 10.2261 5.52225C9.93331 5.22491 9.58419 4.98895 9.19914 4.82817C8.81408 4.6674 8.40082 4.58505 7.98355 4.58594C7.56627 4.58505 7.15288 4.6674 6.76781 4.82817C6.38274 4.98894 6.0336 5.22491 5.74083 5.52225C5.14725 6.12401 4.81445 6.93527 4.81445 7.78052C4.81445 8.62577 5.14725 9.43703 5.74083 10.0388C6.23933 10.5427 6.89299 10.8641 7.59646 10.9512C8.29992 11.0383 9.01222 10.886 9.61856 10.5188L10.8583 11.7685L10.7791 11.8483C10.7385 11.8892 10.7157 11.9446 10.7157 12.0023C10.7157 12.06 10.7385 12.1154 10.7791 12.1563L12.4798 13.8706C12.5202 13.9118 12.5684 13.9444 12.6217 13.9666C12.6749 13.9889 12.732 14.0002 12.7896 14.0001H12.7899C12.8475 14.0002 12.9047 13.9889 12.9579 13.9667C13.0111 13.9445 13.0594 13.9119 13.0998 13.8708L13.8729 13.0915C13.9544 13.0089 14 12.8976 14 12.7817C14 12.6657 13.9544 12.5544 13.8729 12.4718ZM6.05144 9.73074C5.53881 9.21108 5.2514 8.51048 5.2514 7.78052C5.2514 7.05057 5.53881 6.34996 6.05144 5.83031C6.30409 5.5747 6.60495 5.37177 6.93659 5.23327C7.26823 5.09477 7.62405 5.02345 7.98345 5.02345C8.34284 5.02345 8.69867 5.09477 9.03031 5.23327C9.36195 5.37177 9.66281 5.5747 9.91545 5.83031C10.4281 6.34996 10.7155 7.05057 10.7155 7.78052C10.7155 8.51048 10.4281 9.21108 9.91545 9.73074C9.66281 9.98635 9.36195 10.1893 9.03031 10.3278C8.69867 10.4663 8.34285 10.5376 7.98345 10.5376C7.62405 10.5376 7.26823 10.4663 6.93659 10.3278C6.60495 10.1893 6.30409 9.98635 6.05144 9.73074ZM9.99236 10.2744L10.3028 9.96156L11.4767 11.1451L11.1664 11.4579L9.99236 10.2744ZM13.5623 12.7834L12.7905 13.5627L11.2426 12.0023L12.0168 11.2218L13.5623 12.78C13.5627 12.7805 13.5629 12.7811 13.5629 12.7817C13.5629 12.7823 13.5627 12.7829 13.5623 12.7834Z" fill="#FFDFC0"/>
<path d="M12.7931 12.9826C12.914 12.9826 13.0119 12.8847 13.0119 12.7638C13.0119 12.6429 12.914 12.5449 12.7931 12.5449C12.6722 12.5449 12.5742 12.6429 12.5742 12.7638C12.5742 12.8847 12.6722 12.9826 12.7931 12.9826Z" fill="#FFDFC0"/>
<path d="M8.68292 7.1217C8.82035 7.12237 8.95455 7.08009 9.06678 7.00077C9.17901 6.92145 9.26366 6.80905 9.30889 6.67927C9.35412 6.5495 9.35768 6.40884 9.31907 6.27694C9.28046 6.14505 9.20161 6.02851 9.09353 5.94361C8.98546 5.85871 8.85357 5.8097 8.71628 5.80342C8.57899 5.79714 8.44317 5.83391 8.3278 5.90859C8.21243 5.98326 8.12327 6.09212 8.07278 6.21994C8.02229 6.34776 8.01299 6.48816 8.04619 6.62152L7.21087 7.2107C7.11294 7.14469 6.99901 7.10633 6.88109 7.09965C6.76318 7.09298 6.64564 7.11823 6.54088 7.17276C6.43612 7.22729 6.348 7.30907 6.28583 7.40949C6.22366 7.5099 6.18972 7.62523 6.18761 7.74332C6.18549 7.8614 6.21527 7.97787 6.27381 8.08045C6.33234 8.18303 6.41747 8.26791 6.52021 8.32616C6.62295 8.38441 6.7395 8.41386 6.85758 8.41141C6.97566 8.40896 7.0909 8.37471 7.19113 8.31225L8.05176 8.91929C8.00943 9.06864 8.02128 9.22815 8.08521 9.36961C8.14914 9.51107 8.26104 9.62536 8.40111 9.69228C8.54118 9.75919 8.7004 9.77442 8.85061 9.73527C9.00083 9.69612 9.13236 9.60511 9.22195 9.47834C9.31153 9.35157 9.35341 9.1972 9.34016 9.04253C9.32691 8.88787 9.25939 8.74287 9.14955 8.63318C9.03971 8.52348 8.89461 8.45617 8.73993 8.44314C8.58524 8.4301 8.43093 8.47219 8.30428 8.56196L7.46514 7.97007C7.51147 7.83824 7.51409 7.69499 7.4726 7.56156L8.28668 6.98735C8.40042 7.07444 8.53967 7.12165 8.68292 7.1217ZM8.68292 6.24702C8.72615 6.24705 8.7684 6.2599 8.80432 6.28394C8.84025 6.30798 8.86824 6.34213 8.88476 6.38208C8.90128 6.42203 8.90558 6.46598 8.89713 6.50837C8.88867 6.55076 8.86783 6.5897 8.83725 6.62025C8.80667 6.6508 8.76771 6.6716 8.72531 6.68001C8.68291 6.68843 8.63896 6.68408 8.59903 6.66752C8.5591 6.65097 8.52497 6.62294 8.50097 6.58699C8.47696 6.55104 8.46416 6.50878 8.46417 6.46555C8.46427 6.40758 8.48736 6.35203 8.52837 6.31106C8.56937 6.27009 8.62496 6.24706 8.68292 6.24702ZM6.84566 7.97405C6.80243 7.97402 6.76018 7.96117 6.72425 7.93713C6.68832 7.91309 6.66033 7.87893 6.64381 7.83898C6.62729 7.79903 6.62299 7.75509 6.63145 7.71269C6.63991 7.6703 6.66074 7.63136 6.69133 7.60081C6.72191 7.57026 6.76086 7.54946 6.80326 7.54105C6.84567 7.53263 6.88961 7.53698 6.92954 7.55354C6.96948 7.5701 7.0036 7.59812 7.02761 7.63407C7.05161 7.67003 7.06442 7.71229 7.06441 7.75552C7.0643 7.81348 7.04122 7.86904 7.00021 7.91001C6.9592 7.95098 6.90362 7.974 6.84566 7.97405ZM8.68292 8.87832C8.72613 8.87836 8.76836 8.89121 8.80427 8.91525C8.84018 8.93929 8.86815 8.97343 8.88466 9.01337C8.90117 9.0533 8.90546 9.09724 8.89701 9.13961C8.88855 9.18199 8.86772 9.22091 8.83715 9.25145C8.80658 9.28199 8.76764 9.30278 8.72525 9.3112C8.68287 9.31961 8.63894 9.31527 8.59902 9.29872C8.5591 9.28218 8.52499 9.25417 8.50098 9.21823C8.47698 9.1823 8.46417 9.14006 8.46417 9.09685C8.46427 9.03888 8.48736 8.98333 8.52837 8.94236C8.56937 8.90139 8.62496 8.87836 8.68292 8.87832Z" fill="#FFDFC0"/>
</g>
<defs>
<clipPath id="clip0_2914_21272">
<rect width="14" height="14" fill="white"/>
</clipPath>
</defs>
</svg>
