<svg width="18" height="17" viewBox="0 0 18 17" fill="none" xmlns="http://www.w3.org/2000/svg">
<path d="M8.99084 4.82039C8.82272 4.82286 8.66246 4.89199 8.54531 5.0126C8.42815 5.1332 8.36369 5.29539 8.36609 5.46351V7.86576H5.59859C5.43051 7.86576 5.26932 7.93253 5.15046 8.05138C5.03161 8.17023 4.96484 8.33143 4.96484 8.49951C4.96484 8.66759 5.03161 8.82879 5.15046 8.94764C5.26932 9.06649 5.43051 9.13326 5.59859 9.13326H9.00022C9.16823 9.13326 9.32937 9.06654 9.44821 8.94777C9.56705 8.829 9.63387 8.6679 9.63397 8.49989V5.46351C9.63528 5.37869 9.61955 5.29447 9.58769 5.21585C9.55584 5.13723 9.50852 5.06581 9.44853 5.00582C9.38855 4.94584 9.31713 4.89852 9.2385 4.86666C9.15988 4.83481 9.07566 4.81907 8.99084 4.82039Z" fill="#FFDFC0"/>
<path d="M8.89132 1.96973C7.62445 1.99052 6.39088 2.37874 5.34044 3.08723C4.61675 3.5762 3.99876 4.20567 3.52319 4.93823C1.55969 7.95586 2.41807 12.0126 5.43569 13.9765C8.45294 15.94 12.5101 15.0824 14.4736 12.0647C14.9507 11.3329 15.2759 10.5127 15.4298 9.65273C15.5776 8.82353 15.5639 7.97359 15.3893 7.14961C15.3721 7.06818 15.339 6.99094 15.292 6.9223C15.2449 6.85365 15.1848 6.79495 15.115 6.74954C15.0453 6.70414 14.9673 6.67291 14.8855 6.65765C14.8036 6.64239 14.7196 6.6434 14.6382 6.66061C14.5568 6.67782 14.4795 6.7109 14.4109 6.75796C14.3422 6.80502 14.2835 6.86515 14.2381 6.9349C14.1927 7.00464 14.1615 7.08265 14.1462 7.16447C14.131 7.24628 14.132 7.3303 14.1492 7.41173C14.2935 8.08811 14.3026 8.78636 14.1758 9.46626C14.0491 10.1462 13.7891 10.7943 13.4108 11.3732C13.0346 11.9537 12.5475 12.4542 11.9775 12.846C11.4074 13.2378 10.7656 13.5132 10.0889 13.6564C9.41212 13.7996 8.71377 13.8077 8.03387 13.6804C7.35397 13.5531 6.70589 13.2928 6.12682 12.9145C5.54628 12.5382 5.04574 12.0511 4.6539 11.481C4.26206 10.9109 3.98663 10.269 3.8434 9.59221C3.70017 8.91541 3.69197 8.217 3.81927 7.53702C3.94656 6.85705 4.20684 6.20889 4.58519 5.62973C4.96135 5.04943 5.44861 4.54929 6.0189 4.15811C6.58919 3.76693 7.23124 3.49245 7.90807 3.35048C8.57254 3.20965 9.25796 3.19845 9.92669 3.31748C10.0097 3.33475 10.0952 3.33521 10.1784 3.31883C10.2615 3.30244 10.3406 3.26954 10.4108 3.22208C10.481 3.17462 10.541 3.11356 10.5872 3.04252C10.6334 2.97147 10.6648 2.89188 10.6797 2.80845C10.6946 2.72503 10.6926 2.63946 10.6739 2.55682C10.6551 2.47417 10.62 2.39612 10.5706 2.3273C10.5211 2.25847 10.4584 2.20025 10.386 2.1561C10.3137 2.11195 10.2333 2.08275 10.1494 2.07023C9.73418 1.99606 9.31308 1.96241 8.89132 1.96973Z" fill="#FFDFC0"/>
<path d="M13.129 2.09383C12.9609 2.09639 12.8008 2.16558 12.6838 2.28619C12.5668 2.40679 12.5024 2.56893 12.505 2.73695V5.9852C12.505 6.15333 12.5717 6.31458 12.6906 6.43346C12.8095 6.55235 12.9708 6.61914 13.1389 6.61914C13.307 6.61914 13.4683 6.55235 13.5872 6.43346C13.706 6.31458 13.7728 6.15333 13.7728 5.9852V2.73695C13.774 2.6521 13.7582 2.56786 13.7263 2.48923C13.6943 2.41061 13.6469 2.33919 13.5869 2.27922C13.5269 2.21925 13.4554 2.17194 13.3767 2.14009C13.2981 2.10824 13.2138 2.09251 13.129 2.09383Z" fill="#FFDFC0"/>
<path d="M11.5146 3.72656C11.4314 3.72656 11.349 3.74295 11.2721 3.7748C11.1952 3.80665 11.1253 3.85333 11.0665 3.91218C11.0076 3.97103 10.9609 4.0409 10.9291 4.11779C10.8973 4.19468 10.8809 4.27709 10.8809 4.36031C10.8809 4.44354 10.8973 4.52595 10.9291 4.60284C10.9609 4.67973 11.0076 4.74959 11.0665 4.80844C11.1253 4.86729 11.1952 4.91397 11.2721 4.94582C11.349 4.97767 11.4314 4.99406 11.5146 4.99406H14.7629C14.8461 4.99406 14.9285 4.97767 15.0054 4.94582C15.0823 4.91397 15.1521 4.86729 15.211 4.80844C15.2698 4.74959 15.3165 4.67973 15.3484 4.60284C15.3802 4.52595 15.3966 4.44354 15.3966 4.36031C15.3966 4.27709 15.3802 4.19468 15.3484 4.11779C15.3165 4.0409 15.2698 3.97103 15.211 3.91218C15.1521 3.85333 15.0823 3.80665 15.0054 3.7748C14.9285 3.74295 14.8461 3.72656 14.7629 3.72656H11.5146Z" fill="#FFDFC0"/>
</svg>
