<svg width="20" height="16" viewBox="0 0 20 16" fill="none" xmlns="http://www.w3.org/2000/svg">
<path d="M12 0C10.8105 0 9.6665 0.2539 8.5996 0.7549C8.1001 0.9903 7.8848 1.585 8.1196 2.085C8.3545 2.586 8.9502 2.7998 9.4502 2.5655C10.2485 2.1904 11.1064 2 12 2C15.3086 2 18 4.6914 18 8C18 11.3086 15.3086 14 12 14C11.2925 14 10.6006 13.8789 9.9429 13.6406C9.4248 13.4521 8.8501 13.7197 8.6616 14.2383C8.4731 14.7578 8.7412 15.3311 9.2602 15.5196C10.1372 15.8389 11.0591 16 12 16C16.4111 16 20 12.4111 20 8C20 3.5889 16.4111 0 12 0ZM3 7C2.4478 7 2 7.4473 2 8C2 8.5527 2.4478 9 3 9H7C7.5522 9 8 8.5527 8 8C8 7.4473 7.5522 7 7 7H3Z" fill="#FFDFC0"/>
<path d="M9 4C9 3.4473 8.5522 3 8 3H5C4.4478 3 4 3.4473 4 4C4 4.5527 4.4478 5 5 5H8C8.5522 5 9 4.5527 9 4ZM1 13H8C8.5522 13 9 12.5527 9 12C9 11.4473 8.5522 11 8 11H1C0.4478 11 0 11.4473 0 12C0 12.5527 0.4478 13 1 13ZM12 5C11.4478 5 11 5.4473 11 6V8C11 8.3789 11.2139 8.7246 11.5527 8.8945L13.5527 9.8945C13.6963 9.9658 13.8491 10 13.999 10C14.3662 10 14.7192 9.7979 14.8945 9.4473C15.1416 8.9532 14.9414 8.3526 14.4472 8.1055L13 7.3818V6C13 5.4473 12.5522 5 12 5Z" fill="#FFDFC0"/>
</svg>
