<svg width="16" height="16" viewBox="0 0 16 16" fill="none" xmlns="http://www.w3.org/2000/svg">
<g clip-path="url(#clip0_2914_21261)">
<path d="M15 6.75C15.1326 6.75 15.2598 6.69732 15.3536 6.60355C15.4473 6.50979 15.5 6.38261 15.5 6.25C15.5 6.11739 15.4473 5.99021 15.3536 5.89645C15.2598 5.80268 15.1326 5.75 15 5.75H14V5H15C15.1326 5 15.2598 4.94732 15.3536 4.85355C15.4473 4.75979 15.5 4.63261 15.5 4.5C15.5 4.36739 15.4473 4.24021 15.3536 4.14645C15.2598 4.05268 15.1326 4 15 4H13.9525C13.8548 3.51876 13.6175 3.07696 13.2703 2.72973C12.923 2.3825 12.4812 2.14522 12 2.0475V1C12 0.867392 11.9473 0.740215 11.8536 0.646447C11.7598 0.552678 11.6326 0.5 11.5 0.5C11.3674 0.5 11.2402 0.552678 11.1464 0.646447C11.0527 0.740215 11 0.867392 11 1V2H10.25V1C10.25 0.867392 10.1973 0.740215 10.1036 0.646447C10.0098 0.552678 9.88261 0.5 9.75 0.5C9.61739 0.5 9.49021 0.552678 9.39645 0.646447C9.30268 0.740215 9.25 0.867392 9.25 1V2H8.5V1C8.5 0.867392 8.44732 0.740215 8.35355 0.646447C8.25979 0.552678 8.13261 0.5 8 0.5C7.86739 0.5 7.74021 0.552678 7.64645 0.646447C7.55268 0.740215 7.5 0.867392 7.5 1V2H6.75V1C6.75 0.867392 6.69732 0.740215 6.60355 0.646447C6.50979 0.552678 6.38261 0.5 6.25 0.5C6.11739 0.5 5.99021 0.552678 5.89645 0.646447C5.80268 0.740215 5.75 0.867392 5.75 1V2H5V1C5 0.867392 4.94732 0.740215 4.85355 0.646447C4.75979 0.552678 4.63261 0.5 4.5 0.5C4.36739 0.5 4.24021 0.552678 4.14645 0.646447C4.05268 0.740215 4 0.867392 4 1V2.0475C3.51876 2.14522 3.07696 2.3825 2.72973 2.72973C2.3825 3.07696 2.14522 3.51876 2.0475 4H1C0.867392 4 0.740215 4.05268 0.646447 4.14645C0.552678 4.24021 0.5 4.36739 0.5 4.5C0.5 4.63261 0.552678 4.75979 0.646447 4.85355C0.740215 4.94732 0.867392 5 1 5H2V5.75H1C0.867392 5.75 0.740215 5.80268 0.646447 5.89645C0.552678 5.99021 0.5 6.11739 0.5 6.25C0.5 6.38261 0.552678 6.50979 0.646447 6.60355C0.740215 6.69732 0.867392 6.75 1 6.75H2V7.5H1C0.867392 7.5 0.740215 7.55268 0.646447 7.64645C0.552678 7.74021 0.5 7.86739 0.5 8C0.5 8.13261 0.552678 8.25979 0.646447 8.35355C0.740215 8.44732 0.867392 8.5 1 8.5H2V9.25H1C0.867392 9.25 0.740215 9.30268 0.646447 9.39645C0.552678 9.49021 0.5 9.61739 0.5 9.75C0.5 9.88261 0.552678 10.0098 0.646447 10.1036C0.740215 10.1973 0.867392 10.25 1 10.25H2V11H1C0.867392 11 0.740215 11.0527 0.646447 11.1464C0.552678 11.2402 0.5 11.3674 0.5 11.5C0.5 11.6326 0.552678 11.7598 0.646447 11.8536C0.740215 11.9473 0.867392 12 1 12H2.0475C2.14522 12.4812 2.3825 12.923 2.72973 13.2703C3.07696 13.6175 3.51876 13.8548 4 13.9525V15C4 15.1326 4.05268 15.2598 4.14645 15.3536C4.24021 15.4473 4.36739 15.5 4.5 15.5C4.63261 15.5 4.75979 15.4473 4.85355 15.3536C4.94732 15.2598 5 15.1326 5 15V14H5.75V15C5.75 15.1326 5.80268 15.2598 5.89645 15.3536C5.99021 15.4473 6.11739 15.5 6.25 15.5C6.38261 15.5 6.50979 15.4473 6.60355 15.3536C6.69732 15.2598 6.75 15.1326 6.75 15V14H7.5V15C7.5 15.1326 7.55268 15.2598 7.64645 15.3536C7.74021 15.4473 7.86739 15.5 8 15.5C8.13261 15.5 8.25979 15.4473 8.35355 15.3536C8.44732 15.2598 8.5 15.1326 8.5 15V14H9.25V15C9.25 15.1326 9.30268 15.2598 9.39645 15.3536C9.49021 15.4473 9.61739 15.5 9.75 15.5C9.88261 15.5 10.0098 15.4473 10.1036 15.3536C10.1973 15.2598 10.25 15.1326 10.25 15V14H11V15C11 15.1326 11.0527 15.2598 11.1464 15.3536C11.2402 15.4473 11.3674 15.5 11.5 15.5C11.6326 15.5 11.7598 15.4473 11.8536 15.3536C11.9473 15.2598 12 15.1326 12 15V13.9525C12.4812 13.8548 12.923 13.6175 13.2703 13.2703C13.6175 12.923 13.8548 12.4812 13.9525 12H15C15.1326 12 15.2598 11.9473 15.3536 11.8536C15.4473 11.7598 15.5 11.6326 15.5 11.5C15.5 11.3674 15.4473 11.2402 15.3536 11.1464C15.2598 11.0527 15.1326 11 15 11H14V10.25H15C15.1326 10.25 15.2598 10.1973 15.3536 10.1036C15.4473 10.0098 15.5 9.88261 15.5 9.75C15.5 9.61739 15.4473 9.49021 15.3536 9.39645C15.2598 9.30268 15.1326 9.25 15 9.25H13.5C13.3674 9.25 13.2402 9.30268 13.1464 9.39645C13.0527 9.49021 13 9.61739 13 9.75V11.5175C12.9993 11.9105 12.8429 12.2872 12.5651 12.5651C12.2872 12.8429 11.9105 12.9993 11.5175 13H4.4825C4.08952 12.9993 3.71282 12.8429 3.43494 12.5651C3.15706 12.2872 3.00066 11.9105 3 11.5175V4.4825C3.00066 4.08952 3.15706 3.71282 3.43494 3.43494C3.71282 3.15706 4.08952 3.00066 4.4825 3H11.5175C11.9105 3.00066 12.2872 3.15706 12.5651 3.43494C12.8429 3.71282 12.9993 4.08952 13 4.4825V8C13 8.13261 13.0527 8.25979 13.1464 8.35355C13.2402 8.44732 13.3674 8.5 13.5 8.5H15C15.1326 8.5 15.2598 8.44732 15.3536 8.35355C15.4473 8.25979 15.5 8.13261 15.5 8C15.5 7.86739 15.4473 7.74021 15.3536 7.64645C15.2598 7.55268 15.1326 7.5 15 7.5H14V6.75H15Z" fill="#FFDFC0"/>
<path d="M6.79785 8.43445H7.75535L7.27785 7.06445L6.79785 8.43445Z" fill="#FFDFC0"/>
<path d="M11.5 4H4.5C4.36739 4 4.24021 4.05268 4.14645 4.14645C4.05268 4.24021 4 4.36739 4 4.5V11.5C4 11.6326 4.05268 11.7598 4.14645 11.8536C4.24021 11.9473 4.36739 12 4.5 12H11.5C11.6326 12 11.7598 11.9473 11.8536 11.8536C11.9473 11.7598 12 11.6326 12 11.5V4.5C12 4.36739 11.9473 4.24021 11.8536 4.14645C11.7598 4.05268 11.6326 4 11.5 4ZM9.135 9.8475C9.12505 9.85818 9.11307 9.86678 9.09977 9.87279C9.08646 9.8788 9.07209 9.8821 9.0575 9.8825H8.3575C8.31865 9.88426 8.28022 9.87389 8.24752 9.85284C8.21482 9.83179 8.18948 9.80109 8.175 9.765L7.98 9.25H6.5725L6.3775 9.7725C6.36334 9.80881 6.33807 9.83973 6.30529 9.86083C6.27252 9.88193 6.23392 9.89214 6.195 9.89H5.5C5.48538 9.88974 5.47097 9.88651 5.45764 9.88049C5.44432 9.87447 5.43236 9.8658 5.4225 9.855C5.41146 9.84534 5.40262 9.83342 5.39658 9.82005C5.39055 9.80668 5.38745 9.79217 5.3875 9.7775C5.3845 9.76097 5.3845 9.74403 5.3875 9.7275L6.6375 6.28C6.65006 6.23339 6.6783 6.19253 6.71746 6.1643C6.75662 6.13607 6.80431 6.12219 6.8525 6.125H7.69C7.73842 6.12253 7.78625 6.13649 7.82574 6.16463C7.86522 6.19277 7.89403 6.23343 7.9075 6.28L9.1575 9.7275C9.15917 9.74412 9.15917 9.76088 9.1575 9.7775C9.15825 9.80272 9.15031 9.82744 9.135 9.8475ZM10.615 9.7475C10.6152 9.78281 10.6017 9.81682 10.5775 9.8425C10.5651 9.85518 10.5504 9.86525 10.534 9.87212C10.5177 9.87899 10.5002 9.88252 10.4825 9.8825H9.7125C9.6769 9.88186 9.64293 9.86743 9.61775 9.84225C9.59257 9.81707 9.57814 9.7831 9.5775 9.7475V6.25C9.57714 6.23188 9.58051 6.21387 9.58739 6.1971C9.59427 6.18033 9.60452 6.16515 9.6175 6.1525C9.64318 6.12827 9.67719 6.11484 9.7125 6.115H10.4825C10.5 6.11451 10.5175 6.11758 10.5338 6.12403C10.5502 6.13047 10.565 6.14016 10.5775 6.1525C10.59 6.16536 10.5998 6.18064 10.6063 6.1974C10.6127 6.21416 10.6157 6.23206 10.615 6.25V9.7475Z" fill="#FFDFC0"/>
</g>
<defs>
<clipPath id="clip0_2914_21261">
<rect width="16" height="16" fill="white"/>
</clipPath>
</defs>
</svg>
