<svg xmlns="http://www.w3.org/2000/svg" viewBox="0 0 64 64"><path fill="#ffffff" d="m53.12 17.07-6.11-6.11a3.088 3.088 0 0 0-4.25 0l-6.53 6.53a3.03 3.03 0 0 0 0 4.25l6.12 6.11a3 3 0 0 0 4.24 0l6.53-6.53a3.012 3.012 0 0 0 0-4.25zM22.08 5.94a128.86 128.86 0 0 1 12.49 10.42c.08-.1 6.39-6.42 6.39-6.42-4.27-2.68-12.01-6.74-18.44-5.8a1.005 1.005 0 0 0-.44 1.8zM54.1 23.16c-1.58 1.578-6.27 6.27-6.37 6.35a130.223 130.223 0 0 1 10.19 12.28 1.008 1.008 0 0 0 1.8-.44c.93-6.28-2.84-13.72-5.62-18.19zm-19.69-.49L5.6 51.47a4.962 4.962 0 0 0-1.47 3.54 5.025 5.025 0 0 0 8.53 3.53l28.81-28.82c-.387-.252-6.164-5.98-7.06-7.05z"/></svg>