<svg width="18" height="18" viewBox="0 0 18 18" fill="none" xmlns="http://www.w3.org/2000/svg">
<path id="Icon" d="M3.93262 17C2.90611 17 2.39285 17 2.00077 16.8062C1.65589 16.6358 1.3755 16.3638 1.19977 16.0293C1 15.649 1 15.1512 1 14.1556V3.84444C1 2.8488 1 2.35097 1.19977 1.97068C1.3755 1.63617 1.65589 1.36421 2.00077 1.19377C2.39285 1 2.90611 1 3.93262 1H12.7305C13.757 1 14.2702 1 14.6623 1.19377C15.0072 1.36421 15.2876 1.63617 15.4633 1.97068C15.6631 2.35097 15.6631 2.8488 15.6631 3.84444V4.55556M4.66577 4.55556H10.1644M4.66577 11.6667H5.58222M4.66577 8.11111H8.33155M7.59421 16.9062L8.79913 16.6753C9.44931 16.5506 9.7744 16.4883 10.0775 16.3735C10.3466 16.2717 10.6023 16.1393 10.8394 15.9792C11.1064 15.7988 11.3407 15.5715 11.8094 15.117L16.5276 10.5406C17.1575 9.92969 17.1575 8.93924 16.5276 8.32834C15.8978 7.71745 14.8766 7.71745 14.2468 8.32834L9.44791 12.983C9.00879 13.4089 8.78923 13.6218 8.61189 13.8632C8.45447 14.0776 8.32206 14.3082 8.2171 14.5508C8.09886 14.8242 8.0278 15.1173 7.88568 15.7037L7.59421 16.9062Z" stroke="#ffffff" stroke-width="1.2" stroke-linecap="round" stroke-linejoin="round"/>
</svg>
