<svg width="14" height="15" viewBox="0 0 14 15" fill="none" xmlns="http://www.w3.org/2000/svg">
<path d="M13.6918 12.8911L11.1773 10.384C11.9886 9.35047 12.4288 8.07414 12.4272 6.7602C12.4272 5.59004 12.0802 4.44616 11.4301 3.4732C10.7799 2.50024 9.85592 1.74192 8.77483 1.29412C7.69374 0.846313 6.50413 0.729148 5.35645 0.957436C4.20877 1.18572 3.15456 1.74921 2.32713 2.57664C1.4997 3.40407 0.936212 4.45828 0.707924 5.60596C0.479636 6.75364 0.596802 7.94324 1.0446 9.02433C1.49241 10.1054 2.25073 11.0294 3.22369 11.6796C4.19665 12.3297 5.34053 12.6767 6.5107 12.6767C7.82464 12.6783 9.10096 12.2381 10.1345 11.4268L12.6416 13.9413C12.7104 14.0106 12.7922 14.0656 12.8823 14.1032C12.9724 14.1407 13.0691 14.1601 13.1667 14.1601C13.2643 14.1601 13.361 14.1407 13.4511 14.1032C13.5412 14.0656 13.623 14.0106 13.6918 13.9413C13.7611 13.8725 13.8161 13.7908 13.8537 13.7006C13.8912 13.6105 13.9106 13.5138 13.9106 13.4162C13.9106 13.3186 13.8912 13.2219 13.8537 13.1318C13.8161 13.0417 13.7611 12.9599 13.6918 12.8911ZM2.07335 6.7602C2.07335 5.88258 2.3336 5.02467 2.82118 4.29495C3.30876 3.56523 4.00178 2.99649 4.8126 2.66064C5.62342 2.32479 6.51562 2.23691 7.37638 2.40813C8.23714 2.57934 9.0278 3.00196 9.64837 3.62253C10.2689 4.24311 10.6916 5.03376 10.8628 5.89452C11.034 6.75528 10.9461 7.64748 10.6103 8.4583C10.2744 9.26912 9.70567 9.96214 8.97595 10.4497C8.24624 10.9373 7.38832 11.1975 6.5107 11.1975C5.33384 11.1975 4.20519 10.73 3.37302 9.89788C2.54086 9.06571 2.07335 7.93706 2.07335 6.7602Z" fill="white"/>
</svg>
