<svg width="21" height="20" viewBox="0 0 21 20" fill="none" xmlns="http://www.w3.org/2000/svg">
<path d="M9.53711 0.78418C9.71908 0.494539 10.0202 0.435539 10.2432 0.569336L10.2588 0.579102L10.2764 0.587891C10.3462 0.622811 10.3712 0.644685 10.3838 0.657227C10.3963 0.669779 10.4182 0.694864 10.4531 0.764648L13.0527 5.96484L13.1699 6.19922L13.4307 6.23633L19.1309 7.03613L19.165 7.04102H19.2002C19.2424 7.0411 19.3312 7.06984 19.417 7.19141C19.5024 7.31238 19.5283 7.4504 19.5098 7.54297L19.5 7.5918V7.64062C19.5 7.65852 19.4957 7.67286 19.4912 7.68066C19.4893 7.68407 19.4869 7.68596 19.4854 7.6875C19.4839 7.68889 19.4812 7.69099 19.4766 7.69336L19.4062 7.72852L19.3506 7.7832L15.251 11.7832L15.0615 11.9678L15.1074 12.2275L16.1064 17.9219V17.9229C16.1581 18.2329 15.9646 18.4772 15.7334 18.541H15.5996C15.5483 18.541 15.5066 18.5413 15.4678 18.54C15.4395 18.5391 15.4175 18.5359 15.4004 18.5342L15.334 18.499L10.2344 15.7988L10 15.6748L9.76562 15.7988L4.66602 18.499L4.6543 18.5049L4.64258 18.5127C4.42057 18.6457 4.12253 18.5871 3.94043 18.3008C3.90919 18.2298 3.90216 18.1496 3.90137 17.9756L4.89258 12.3271L4.93848 12.0674L4.74902 11.8828L0.649414 7.88281C0.449041 7.67844 0.450071 7.39761 0.65332 7.19434L0.710938 7.13672L0.74707 7.06445C0.749331 7.05994 0.74958 7.06097 0.74707 7.06348C0.744743 7.06574 0.744616 7.06568 0.749023 7.06348C0.760372 7.05786 0.803329 7.04102 0.900391 7.04102H0.93457L0.969727 7.03613L6.66992 6.23633L6.93457 6.19922L7.05078 5.95801L9.53711 0.78418Z" stroke-width="1.5" stroke="white"/>
</svg>
