<svg width="15" height="16" viewBox="0 0 15 16" fill="none" xmlns="http://www.w3.org/2000/svg">
<path d="M6.1543 15.9656C5.94694 15.9673 5.74133 15.9251 5.54951 15.8413C5.35768 15.7576 5.18349 15.634 5.03712 15.4778L0.460486 10.6112C0.305659 10.4463 0.184894 10.2488 0.105905 10.0314C0.0269154 9.81402 -0.0085609 9.5815 0.00174242 9.3487C0.0285207 8.87634 0.221133 8.4319 0.54144 8.10338L7.61688 0.574038C7.78134 0.389767 7.97988 0.243661 8.2 0.1449C8.42012 0.0461392 8.65707 -0.00314148 8.89596 0.000155118L13.3647 0.12067C13.7703 0.129657 14.1566 0.306963 14.441 0.614715C14.7254 0.922467 14.8853 1.33626 14.8866 1.76771L14.9999 6.51372C15.0019 6.76841 14.955 7.02086 14.8622 7.25567C14.7694 7.49049 14.6327 7.70276 14.4602 7.87956L7.3956 15.4261C7.08856 15.7696 6.66947 15.9749 6.22446 16L6.1543 15.9656ZM5.80349 14.6686C5.85296 14.7205 5.91221 14.7606 5.97733 14.7863C6.04245 14.812 6.11197 14.8228 6.18128 14.8178C6.35048 14.8051 6.50961 14.7276 6.62923 14.5997L13.7155 7.06465C13.7808 6.99781 13.8326 6.91757 13.8679 6.82878C13.9031 6.74 13.921 6.64453 13.9205 6.54815L13.8072 1.79641C13.8072 1.66095 13.7566 1.53103 13.6665 1.43525C13.5764 1.33946 13.4543 1.28565 13.3269 1.28565L8.85818 1.16514C8.76769 1.16559 8.67818 1.1851 8.59481 1.22252C8.51144 1.25995 8.43587 1.31457 8.37245 1.38321L1.28622 8.91829C1.16596 9.04548 1.0931 9.2147 1.08114 9.39461C1.07648 9.46832 1.08658 9.54223 1.11076 9.61148C1.13495 9.68073 1.17268 9.74373 1.22146 9.79633L5.80349 14.6686ZM11.303 5.67011C10.8737 5.66971 10.4622 5.48806 10.1589 5.1651C9.93222 4.92441 9.77781 4.61764 9.71518 4.28362C9.65254 3.94959 9.68449 3.60332 9.80697 3.2886C9.92946 2.97389 10.137 2.70487 10.4033 2.5156C10.6696 2.32633 10.9827 2.2253 11.303 2.2253C11.6233 2.2253 11.9364 2.32633 12.2027 2.5156C12.469 2.70487 12.6766 2.97389 12.7991 3.2886C12.9215 3.60332 12.9535 3.94959 12.8908 4.28362C12.8282 4.61764 12.6738 4.92441 12.4472 5.1651C12.1438 5.48806 11.7323 5.66971 11.303 5.67011ZM11.303 3.37458C11.232 3.37415 11.1616 3.38862 11.0958 3.41718C11.0301 3.44574 10.9703 3.48782 10.9198 3.54101C10.8695 3.59452 10.8296 3.65804 10.8024 3.72795C10.7751 3.79786 10.7611 3.8728 10.7611 3.94847C10.7611 4.02414 10.7751 4.09907 10.8024 4.16898C10.8296 4.23889 10.8695 4.30242 10.9198 4.35592C10.9701 4.40943 11.0299 4.45188 11.0956 4.48083C11.1614 4.50979 11.2318 4.5247 11.303 4.5247C11.3742 4.5247 11.4446 4.50979 11.5104 4.48083C11.5761 4.45188 11.6359 4.40943 11.6862 4.35592C11.7362 4.3023 11.7758 4.2387 11.8027 4.16878C11.8295 4.09886 11.8431 4.02399 11.8427 3.94847C11.8431 3.87294 11.8295 3.79807 11.8027 3.72815C11.7758 3.65823 11.7362 3.59463 11.6862 3.54101C11.6358 3.48782 11.576 3.44574 11.5102 3.41718C11.4445 3.38862 11.374 3.37415 11.303 3.37458Z" fill="#FFDFC0"/>
</svg>
