<svg width="20" height="16" viewBox="0 0 20 16" fill="none" xmlns="http://www.w3.org/2000/svg">
<path d="M19.9196 7.6C17.8996 2.91 14.0996 0 9.99958 0C5.89958 0 2.09958 2.91 0.0795785 7.6C0.0245152 7.72617 -0.00390625 7.86234 -0.00390625 8C-0.00390625 8.13766 0.0245152 8.27383 0.0795785 8.4C2.09958 13.09 5.89958 16 9.99958 16C14.0996 16 17.8996 13.09 19.9196 8.4C19.9746 8.27383 20.0031 8.13766 20.0031 8C20.0031 7.86234 19.9746 7.72617 19.9196 7.6ZM9.99958 14C6.82958 14 3.82958 11.71 2.09958 8C3.82958 4.29 6.82958 2 9.99958 2C13.1696 2 16.1696 4.29 17.8996 8C16.1696 11.71 13.1696 14 9.99958 14ZM9.99958 4C9.20845 4 8.43509 4.2346 7.7773 4.67412C7.1195 5.11365 6.60681 5.73836 6.30406 6.46927C6.00131 7.20017 5.9221 8.00444 6.07644 8.78036C6.23078 9.55628 6.61174 10.269 7.17115 10.8284C7.73056 11.3878 8.44329 11.7688 9.21922 11.9231C9.99514 12.0775 10.7994 11.9983 11.5303 11.6955C12.2612 11.3928 12.8859 10.8801 13.3255 10.2223C13.765 9.56448 13.9996 8.79113 13.9996 8C13.9996 6.93913 13.5782 5.92172 12.828 5.17157C12.0779 4.42143 11.0604 4 9.99958 4ZM9.99958 10C9.60402 10 9.21734 9.8827 8.88844 9.66294C8.55954 9.44318 8.30319 9.13082 8.15182 8.76537C8.00044 8.39991 7.96084 7.99778 8.03801 7.60982C8.11518 7.22186 8.30566 6.86549 8.58537 6.58579C8.86507 6.30608 9.22144 6.1156 9.6094 6.03843C9.99736 5.96126 10.3995 6.00087 10.7649 6.15224C11.1304 6.30362 11.4428 6.55996 11.6625 6.88886C11.8823 7.21776 11.9996 7.60444 11.9996 8C11.9996 8.53043 11.7889 9.03914 11.4138 9.41421C11.0387 9.78929 10.53 10 9.99958 10Z" fill="white"/>
</svg>
