<svg width="20" height="20" viewBox="0 0 20 20" fill="none" xmlns="http://www.w3.org/2000/svg">
<path d="M5 9.6875C3.27812 9.6875 1.875 11.0906 1.875 12.8125C1.875 14.5344 3.27812 15.9375 5 15.9375C6.72188 15.9375 8.125 14.5344 8.125 12.8125C8.125 11.0906 6.72188 9.6875 5 9.6875ZM5 15.3125C3.62188 15.3125 2.5 14.1906 2.5 12.8125C2.5 11.4344 3.62188 10.3125 5 10.3125C6.37813 10.3125 7.5 11.4344 7.5 12.8125C7.5 14.1906 6.37813 15.3125 5 15.3125ZM15 9.6875C13.2781 9.6875 11.875 11.0906 11.875 12.8125C11.875 14.5344 13.2781 15.9375 15 15.9375C16.7219 15.9375 18.125 14.5344 18.125 12.8125C18.125 11.0906 16.7219 9.6875 15 9.6875ZM15 15.3125C13.6219 15.3125 12.5 14.1906 12.5 12.8125C12.5 11.4344 13.6219 10.3125 15 10.3125C16.3781 10.3125 17.5 11.4344 17.5 12.8125C17.5 14.1906 16.3781 15.3125 15 15.3125Z" fill="white"/>
<path d="M18.7312 10.5406C18.725 10.5187 18.7219 10.4969 18.7125 10.4781L15.9 5.16563C15.9 5.16563 15.8906 5.14688 15.8844 5.1375C15.8688 5.1125 15.6187 4.75313 15.0781 4.45625L14.8187 3.9375C14.65 3.60625 14.4031 3.34063 14.1 3.16563C13.6875 2.93125 13.2531 2.8125 12.8125 2.8125C12.1406 2.8125 11.6156 3.2 11.2937 3.52812C11.0656 3.7625 10.9375 4.075 10.9375 4.4125V5.54375C10.9187 5.575 10.9 5.60313 10.8844 5.63125C10.7156 5.92813 10.625 6.26562 10.625 6.60938V6.875H9.375V6.60938C9.375 6.26562 9.28438 5.92813 9.11563 5.63125C9.1 5.60313 9.08125 5.57187 9.0625 5.54375V4.4125C9.0625 4.075 8.9375 3.7625 8.70625 3.52812C8.38438 3.20312 7.85938 2.8125 7.1875 2.8125C6.74375 2.8125 6.3125 2.93125 5.89688 3.16563C5.59375 3.3375 5.34687 3.60625 5.17812 3.9375L4.92188 4.45625C4.38125 4.75313 4.13125 5.1125 4.11562 5.1375C4.10938 5.14688 4.10312 5.15625 4.1 5.16563L1.2875 10.4781C1.27812 10.4969 1.275 10.5187 1.26875 10.5406C0.8625 11.2031 0.625 11.9781 0.625 12.8125C0.625 15.225 2.5875 17.1875 5 17.1875C7.4125 17.1875 9.19687 15.3906 9.35938 13.125H10.6406C10.8031 15.3906 12.6938 17.1875 15 17.1875C17.3062 17.1875 19.375 15.225 19.375 12.8125C19.375 11.9812 19.1375 11.2031 18.7312 10.5406ZM15.3562 5.475L17.2625 9.075C16.6 8.67188 15.8281 8.4375 15 8.4375C13.4062 8.4375 12.0156 9.29688 11.25 10.5719V6.60938C11.25 6.375 11.3125 6.14375 11.4281 5.94063C11.7563 5.36875 12.3719 4.6875 13.4375 4.6875C14.7312 4.6875 15.2875 5.38125 15.3594 5.475H15.3562ZM11.7375 3.96562C11.975 3.725 12.3562 3.4375 12.8125 3.4375C13.1469 3.4375 13.475 3.52812 13.7906 3.70937C13.9625 3.80937 14.1063 3.95938 14.2156 4.14375C13.9813 4.09375 13.725 4.0625 13.4375 4.0625C12.6062 4.0625 11.9937 4.39062 11.5625 4.78125V4.4125C11.5625 4.24062 11.625 4.08125 11.7375 3.96562ZM10.625 7.5V11.25H9.375V7.5H10.625ZM6.20625 3.70937C6.525 3.52812 6.85313 3.4375 7.1875 3.4375C7.64375 3.4375 8.025 3.725 8.2625 3.96562C8.375 4.08125 8.4375 4.24062 8.4375 4.4125V4.78125C8.00625 4.39062 7.39375 4.0625 6.5625 4.0625C6.275 4.0625 6.01562 4.09375 5.78438 4.14375C5.89375 3.95938 6.0375 3.80937 6.20938 3.70937H6.20625ZM4.64062 5.47813C4.71562 5.37813 5.27187 4.6875 6.5625 4.6875C7.63125 4.6875 8.24375 5.36875 8.57188 5.94063C8.6875 6.14375 8.75 6.375 8.75 6.60938V10.5719C7.98438 9.29688 6.59375 8.4375 5 8.4375C4.17188 8.4375 3.39688 8.675 2.7375 9.075L4.64375 5.475L4.64062 5.47813ZM5 16.5625C2.93125 16.5625 1.25 14.8813 1.25 12.8125C1.25 10.7438 2.93125 9.0625 5 9.0625C7.06875 9.0625 8.75 10.7438 8.75 12.8125C8.75 14.8813 7.06875 16.5625 5 16.5625ZM9.375 11.875H10.625V12.5H9.375V11.875ZM15 16.5625C12.9312 16.5625 11.25 14.8813 11.25 12.8125C11.25 10.7438 12.9312 9.0625 15 9.0625C17.0688 9.0625 18.75 10.7438 18.75 12.8125C18.75 14.8813 17.0688 16.5625 15 16.5625Z" fill="white"/>
</svg>
