<svg width="297" height="349" viewBox="0 0 297 349" fill="none" xmlns="http://www.w3.org/2000/svg">
<path fill-rule="evenodd" clip-rule="evenodd" d="M59.1588 305.816C36.6056 318.287 47.3368 327.9 67.934 336.666C86.2854 343.733 115.195 348.277 147.927 348.286C178.889 347.632 211.604 344.148 235.574 334.755C251.781 326.912 257.362 318.019 242.037 308.572L59.1588 305.816Z" fill="url(#paint0_linear_4155_19982)"/>
<path d="M59.1588 305.816C36.6056 318.287 47.3368 327.9 67.934 336.666C86.2854 343.733 115.195 348.277 147.927 348.286C178.889 347.632 211.604 344.148 235.574 334.755C251.781 326.912 257.362 318.019 242.037 308.572L59.1588 305.816ZM59.1588 305.816H59.1586" stroke="#24211C" stroke-width="0.56786" stroke-miterlimit="1.5" stroke-linecap="round" stroke-linejoin="round"/>
<path fill-rule="evenodd" clip-rule="evenodd" d="M61.4211 304.5C47.3829 312.099 48.8794 320.431 65.3719 329.471C85.1518 337.925 113.91 341.634 148.793 342.106C176.91 341.429 203.802 338.744 227.545 330.904C248.524 321.809 250.659 312.88 238.734 306.453L61.4209 304.5H61.4211Z" fill="url(#paint1_linear_4155_19982)" stroke="#24211C" stroke-width="0.56786" stroke-miterlimit="1.5" stroke-linecap="round" stroke-linejoin="round"/>
<path fill-rule="evenodd" clip-rule="evenodd" d="M79.6189 297.908C45.8972 305.491 45.7262 322.085 76.417 330.979C99.4598 337.879 123.503 339.595 147.872 339.622C177.358 340.129 204.891 337.086 229.178 327.848C253.039 315.043 247.342 304.25 209.034 295.926L79.6189 297.908Z" fill="#573D16" stroke="#24211C" stroke-width="0.56786" stroke-miterlimit="1.5" stroke-linecap="round" stroke-linejoin="round"/>
<path fill-rule="evenodd" clip-rule="evenodd" d="M97.6463 293.246C57.7989 301.038 60.1351 311.859 94.5807 320.427C128.832 328.412 178.912 325.731 201.72 319.941C237.195 311.18 232.784 301.511 203.167 294.392L97.6466 293.246L97.6463 293.246Z" fill="url(#paint2_linear_4155_19982)" stroke="#24211C" stroke-width="0.56786" stroke-miterlimit="1.5" stroke-linecap="round" stroke-linejoin="round"/>
<path fill-rule="evenodd" clip-rule="evenodd" d="M123.694 267.988C122.65 285.726 113.339 290.454 97.7232 293.243C69.2213 299.777 63.5537 306.807 84.3211 314.404C101.168 320.082 123.558 322.535 149.52 322.614C173.953 321.914 194.06 318.752 211.457 314.517C230.158 308.687 227.921 299.638 203.184 294.387C183.425 291.075 171.897 282.785 172.103 268.148L123.694 267.988Z" fill="url(#paint3_linear_4155_19982)" stroke="#24211C" stroke-width="0.56786" stroke-miterlimit="1.5" stroke-linecap="round" stroke-linejoin="round"/>
<path fill-rule="evenodd" clip-rule="evenodd" d="M121.59 260.352C119.948 264.056 120.631 266.61 123.695 267.989C138.538 271.288 154.627 271.461 172.103 268.149C175.344 266.835 175.573 263.69 174.262 259.609C159.065 261.505 141.746 261.919 121.59 260.352H121.59Z" fill="url(#paint4_linear_4155_19982)" stroke="#24211C" stroke-width="0.56786" stroke-miterlimit="1.5" stroke-linecap="round" stroke-linejoin="round"/>
<path fill-rule="evenodd" clip-rule="evenodd" d="M120.289 233.887C113.047 243.059 113.536 251.878 121.589 260.351C139.397 266.331 156.862 266.894 174.261 259.609C183.26 251.387 183.053 242.477 175.134 233.285C156.518 239.777 138.26 239.529 120.289 233.887Z" fill="url(#paint5_linear_4155_19982)" stroke="#24211C" stroke-width="0.56786" stroke-miterlimit="1.5" stroke-linecap="round" stroke-linejoin="round"/>
<path fill-rule="evenodd" clip-rule="evenodd" d="M125.63 228.165C119.93 228.798 119.394 231.133 119.993 233.841C136.595 239.607 154.879 239.586 174.933 233.474C175.523 229.989 173.923 227.784 169.309 227.336C158.896 234.207 138.064 234.411 125.63 228.165V228.165L125.63 228.165Z" fill="url(#paint6_linear_4155_19982)" stroke="#24211C" stroke-width="0.56786" stroke-miterlimit="1.5" stroke-linecap="round" stroke-linejoin="round"/>
<path fill-rule="evenodd" clip-rule="evenodd" d="M115.26 210.101C138.083 218.801 160.657 218.834 181.96 209.781C173.726 213.023 168.653 217.47 169.309 227.337C161.948 234.482 135.048 235.049 125.63 228.167C127.436 218.174 123.318 212.772 115.26 210.101Z" fill="url(#paint7_linear_4155_19982)" stroke="#24211C" stroke-width="0.56786" stroke-miterlimit="1.5" stroke-linecap="round" stroke-linejoin="round"/>
<path fill-rule="evenodd" clip-rule="evenodd" d="M3.02416 30.7464C0.165 25.8387 -0.626298 21.3753 1.46627 17.2891C0.900882 36.8524 73.8985 39.798 148.227 42.6084C231.57 40.9319 297.635 37.0476 295.754 17.8459C297.265 19.4529 297.512 26.396 292.295 33.2688C259.046 46.3225 206.821 49.913 148.056 50.2425C82.1806 48.5694 20.2827 45.8016 3.02465 30.7467L3.02416 30.7464Z" fill="#8A6522" stroke="#24211C" stroke-width="0.56786" stroke-miterlimit="1.5" stroke-linecap="round" stroke-linejoin="round"/>
<path fill-rule="evenodd" clip-rule="evenodd" d="M12.594 64.5977C35.117 76.7192 83.1248 81.7854 148.953 81.919C198.248 82.0614 246.266 80.7144 283.956 67.3238C280.858 81.9858 277.729 99.9318 277.348 103.131C271.139 155.319 244.509 185.704 192.356 199.152C165.237 207.666 134.711 207.596 100.924 199.305C62.4265 187.622 27.6921 163.716 19.8325 114.082C17.6553 100.332 15.6149 84.0533 12.5938 64.5979L12.594 64.5977Z" fill="url(#paint8_linear_4155_19982)" stroke="#24211C" stroke-width="0.56786" stroke-miterlimit="1.5" stroke-linecap="round" stroke-linejoin="round"/>
<path fill-rule="evenodd" clip-rule="evenodd" d="M13.1825 57.8074C10.867 49.8676 8.08322 42.6801 4.95996 34.8867C25.5165 47.2174 61.1973 48.6927 103.053 51.6965C134.228 52.8535 165.256 52.769 196.143 51.477C233.905 48.8859 269.437 45.492 290.695 36.9614C288.098 44.3341 285.849 51.7435 283.917 59.1873C283.242 68.6061 210.173 76.5084 149.01 75.0912C77.2788 75.9964 23.5844 68.1483 13.183 57.8069L13.1825 57.8074Z" fill="url(#paint9_linear_4155_19982)" stroke="#24211C" stroke-width="0.56786" stroke-miterlimit="1.5" stroke-linecap="round" stroke-linejoin="round"/>
<path fill-rule="evenodd" clip-rule="evenodd" d="M19.9563 47.2698C21.4558 46.6651 21.6762 47.1941 21.0796 48.4479C20.4621 48.8952 20.1106 49.371 20.9371 49.973C22.0524 50.8506 23.1457 51.8195 24.1619 53.1057C26.0126 53.7131 26.0511 54.1072 25.0126 54.3745C24.4068 54.6948 23.5207 54.6485 21.8522 53.5773L18.6808 50.5647C17.8787 49.9028 17.9606 49.0177 18.7404 47.9559C18.9094 47.7567 19.2951 47.5306 19.9563 47.2698Z" fill="#AB8035"/>
<path d="M19.9563 47.2698C21.4558 46.6651 21.6762 47.1941 21.0796 48.4479C20.4621 48.8952 20.1106 49.371 20.9371 49.973C22.0524 50.8506 23.1457 51.8195 24.1619 53.1057C26.0126 53.7131 26.0511 54.1072 25.0126 54.3745C24.4068 54.6948 23.5207 54.6485 21.8522 53.5773L18.6808 50.5647C17.8787 49.9028 17.9606 49.0177 18.7404 47.9559C18.9094 47.7567 19.2951 47.5306 19.9563 47.2698ZM19.9563 47.2698V47.2701" stroke="#AB8035" stroke-width="0.181912" stroke-miterlimit="1.5" stroke-linecap="round" stroke-linejoin="round"/>
<path fill-rule="evenodd" clip-rule="evenodd" d="M28.9969 54.803C27.754 56.8734 26.9218 57.1014 26.7168 54.5186C26.7947 51.6236 25.7321 50.0152 23.7039 49.4962C23.7736 49.0601 23.63 48.8781 23.2214 49.0122C22.8038 49.2913 22.5037 49.1115 22.4411 48.0015C22.3882 46.7465 22.7928 45.9294 23.8272 45.7149C24.6058 45.4605 25.1395 45.5101 24.9862 46.4122C24.771 47.0561 25.0663 47.3246 26.3359 46.8777C27.566 46.1994 28.2305 46.2938 28.4085 47.0607C29.0565 49.0739 29.5016 54.2837 28.9969 54.8033V54.803Z" fill="#AB8035" stroke="#AB8035" stroke-width="0.181912" stroke-miterlimit="1.5" stroke-linecap="round" stroke-linejoin="round"/>
<path fill-rule="evenodd" clip-rule="evenodd" d="M22.544 56.9698C24.9563 57.3153 25.5989 56.8878 23.4868 55.2571C21.7732 54.9005 20.1067 53.811 18.4954 51.8627C17.7403 50.6672 17.444 51.7341 17.7902 52.4476C19.0895 54.1325 20.4257 55.7947 22.5443 56.9701L22.544 56.9698Z" fill="#AB8035" stroke="#AB8035" stroke-width="0.181912" stroke-miterlimit="1.5" stroke-linecap="round" stroke-linejoin="round"/>
<path d="M242.376 67.7677C247.399 67.7677 251.471 63.6792 251.471 58.6358C251.471 53.5924 247.399 49.5039 242.376 49.5039C237.353 49.5039 233.281 53.5924 233.281 58.6358C233.281 63.6792 237.353 67.7677 242.376 67.7677Z" fill="#AB8035" stroke="#AB8035" stroke-width="0.181912" stroke-miterlimit="1.5" stroke-linecap="round" stroke-linejoin="round"/>
<path fill-rule="evenodd" clip-rule="evenodd" d="M252.933 61.6954C253.052 60.4547 252.718 60.3007 251.929 61.2386L249.108 65.305C248.667 66.573 248.83 66.9224 249.828 66.0007C250.128 65.6018 250.471 65.3793 250.839 65.2546C251.883 65.0576 252.304 65.158 251.553 65.8187C249.428 67.0294 250.351 67.1725 252.49 66.8892C255.718 66.461 258.928 65.9242 262.035 64.7801C262.616 64.2291 262.727 63.7343 261.556 63.3929C259.205 62.8122 257.928 61.9217 258.595 60.4709C259.155 59.7575 257.474 57.1058 255.777 54.4394C255.634 53.8209 255.798 53.6599 256.386 54.1327C259.028 58.0788 261.835 61.8934 266.57 64.1846C268.06 64.5254 269.537 64.5501 270.984 63.7466C271.736 63.1891 272.026 62.7366 270.631 62.6674C268.187 63.7839 265.313 62.4948 261.932 58.3775C258.065 53.5347 254.298 49.6008 250.854 48.5898C248.358 48.362 248.018 48.9256 248.51 49.7942C252.86 52.9821 254.731 56.1798 254.655 59.3854C254.641 62.5686 254.108 64.2286 252.851 63.7653C252.532 63.3893 252.346 62.8928 252.933 61.6959L252.933 61.6956H252.933L252.933 61.6954Z" fill="#AB8035" stroke="#AB8035" stroke-width="0.181912" stroke-miterlimit="1.5" stroke-linecap="round" stroke-linejoin="round"/>
<path fill-rule="evenodd" clip-rule="evenodd" d="M259.35 50.5712C258.463 49.8302 258.648 49.4019 259.937 49.2971C260.665 49.4612 261.065 49.3131 261.319 49.0248C262.751 48.398 262.686 49.0243 262.327 49.897C261.395 50.8821 261.699 51.8044 262.654 52.6939C263.479 52.9316 264.579 54.8177 265.695 56.7954C266.445 57.8449 266.712 57.6541 266.468 56.1536C265.831 51.3043 268.103 47.4582 272.383 44.3047C275.472 42.8328 278.834 42.0758 282.526 42.1837C283.888 42.5566 284.716 42.6389 284.806 42.32C287.959 40.4141 288.078 41.3442 286.351 44.0014C284.859 45.5522 284.6 46.3112 284.79 47.0372C285.251 53.8191 282.755 56.4102 280.309 59.0735C275.005 62.8242 270.762 62.7019 267.466 59.1294L263.272 56.7625L261.008 52.9575L259.824 52.1061C257.885 51.8536 257.721 51.3428 259.35 50.5708L259.35 50.5712Z" fill="#AB8035" stroke="#AB8035" stroke-width="0.181912" stroke-miterlimit="1.5" stroke-linecap="round" stroke-linejoin="round"/>
<path fill-rule="evenodd" clip-rule="evenodd" d="M278.685 43.9674C282.327 43.2825 282.867 43.6212 282.472 46.4046C280.866 52.5157 278.32 56.4005 275.286 59.1342C272.943 60.4986 270.852 60.1168 269.055 57.6746C267.846 55.6766 268.075 53.6208 269.067 51.5345C270.951 48.0319 273.545 45.0251 278.685 43.9677" fill="#593E17"/>
<path d="M278.685 43.9674C282.327 43.2825 282.867 43.6212 282.472 46.4046C280.866 52.5157 278.32 56.4005 275.286 59.1342C272.943 60.4986 270.852 60.1168 269.055 57.6746C267.846 55.6766 268.075 53.6208 269.067 51.5345C270.951 48.0319 273.545 45.0251 278.685 43.9677" stroke="#AB8035" stroke-width="0.181912" stroke-miterlimit="1.5" stroke-linecap="round" stroke-linejoin="round"/>
<path fill-rule="evenodd" clip-rule="evenodd" d="M277.405 46.0826C280.242 44.3584 281.309 45.4301 280.928 48.7882C279.847 52.0179 278.023 54.5989 275.355 56.4421C272.058 58.3377 270.817 57.3294 271.044 54.2461C270.886 53.2601 273.078 50.4852 277.405 46.0823V46.0826Z" fill="#AB8035" stroke="#AB8035" stroke-width="0.181912" stroke-miterlimit="1.5" stroke-linecap="round" stroke-linejoin="round"/>
<path fill-rule="evenodd" clip-rule="evenodd" d="M229.822 67.7986C228.545 68.3889 228.906 69.0093 230.668 69.6557C232.63 70.0232 234.597 69.9152 236.576 68.8963C237.518 68.331 237.291 67.8587 235.907 67.4784C234.131 67.7899 233.482 66.9046 233.132 65.7009C232.716 64.6374 230.659 65.1175 230.468 66.341C230.929 67.2416 230.776 67.7652 229.821 67.7989L229.822 67.7986Z" fill="#AB8035" stroke="#AB8035" stroke-width="0.181912" stroke-miterlimit="1.5" stroke-linecap="round" stroke-linejoin="round"/>
<path fill-rule="evenodd" clip-rule="evenodd" d="M221.169 53.5787C222.26 52.737 222.867 52.7549 222.607 54.3127C221.666 55.6718 220.64 56.8031 219.39 58.2973C218.871 59.1771 217.95 59.3238 217.301 58.9979C216.918 58.7444 216.584 58.7684 216.308 59.1262C216.071 59.7862 215.655 60.0842 215.156 60.213C214.474 60.2544 214.198 59.8927 214.363 59.0923C214.556 58.285 216.699 57.1866 217.377 57.6417C217.647 57.7913 217.947 57.7279 218.297 57.3214L221.169 53.579L221.168 53.5787H221.169Z" fill="#AB8035" stroke="#AB8035" stroke-width="0.181912" stroke-miterlimit="1.5" stroke-linecap="round" stroke-linejoin="round"/>
<path fill-rule="evenodd" clip-rule="evenodd" d="M212.553 67.5362C212.177 68.438 212.277 68.9108 213.562 68.317C214.832 67.5304 215.57 66.5478 216.16 65.5109C216.073 64.9275 216.194 64.7643 216.374 64.721C218.162 63.9075 218.739 63.3534 218.927 62.8828C219.039 61.4067 218.438 60.8226 216.8 61.5404C215.978 61.9541 215.253 63.7594 214.544 65.7971C214.481 66.2328 213.617 66.8608 212.553 67.5365L212.553 67.5362Z" fill="#AB8035" stroke="#AB8035" stroke-width="0.181912" stroke-miterlimit="1.5" stroke-linecap="round" stroke-linejoin="round"/>
<path fill-rule="evenodd" clip-rule="evenodd" d="M219.592 59.9065C219.141 61.7723 219.887 61.4888 220.921 60.689C222.257 59.6119 223.89 57.6863 225.644 55.4196C225.893 54.9553 226.768 53.9111 228.016 52.5225C228.263 51.7863 228.296 51.2477 226.97 51.9579C223.617 55.2487 220.046 58.6953 219.592 59.9065Z" fill="#AB8035" stroke="#AB8035" stroke-width="0.181912" stroke-miterlimit="1.5" stroke-linecap="round" stroke-linejoin="round"/>
<path fill-rule="evenodd" clip-rule="evenodd" d="M225.205 57.0862C227.221 55.8363 227.216 56.6606 226.477 57.8982C226.127 58.4032 224.796 59.7129 223.009 61.644C222.303 63.006 222.398 63.7812 223.125 64.095C224.6 65.8007 223.291 66.258 222.368 66.6468C221.155 66.9151 220.504 67.4482 220.357 68.2178C220.663 70.4324 219.856 70.4571 218.811 70.0129C216.513 69.0019 217.247 67.7849 218.925 66.504C220.795 65.8826 221.327 64.4506 220.661 62.2938C219.869 61.7288 223.03 59.1573 225.204 57.0864L225.205 57.0862Z" fill="#AB8035" stroke="#AB8035" stroke-width="0.181912" stroke-miterlimit="1.5" stroke-linecap="round" stroke-linejoin="round"/>
<path fill-rule="evenodd" clip-rule="evenodd" d="M232.839 52.3258C235.965 51.172 236.407 51.668 234.79 53.4309C232.159 55.5066 230.504 57.7435 230.421 60.2402C230.485 62.2876 230.286 63.8926 228.979 63.6394C228.219 63.6287 228.169 64.0091 228.715 64.7177C229.435 65.2382 229.527 66.5384 228.217 68.1726C226.799 69.3547 223.077 70.2492 223.677 68.0936C225.45 66.154 226.251 64.4686 225.317 63.2382C225.104 62.7584 224.631 62.3769 227.102 60.8784C228.274 57.7682 229.514 54.6818 232.839 52.3258" fill="#AB8035"/>
<path d="M232.839 52.3258C235.965 51.172 236.407 51.668 234.79 53.4309C232.159 55.5066 230.504 57.7435 230.421 60.2402C230.485 62.2876 230.286 63.8926 228.979 63.6394C228.219 63.6287 228.169 64.0091 228.715 64.7177C229.435 65.2382 229.527 66.5384 228.217 68.1726C226.799 69.3547 223.077 70.2492 223.677 68.0936C225.45 66.154 226.251 64.4686 225.317 63.2382C225.104 62.7584 224.631 62.3769 227.102 60.8784C228.274 57.7682 229.514 54.6818 232.839 52.3258" stroke="#AB8035" stroke-width="0.181912" stroke-miterlimit="1.5" stroke-linecap="round" stroke-linejoin="round"/>
<path d="M202.702 71.4123C208.692 71.4123 213.547 66.9373 213.547 61.4171C213.547 55.8969 208.692 51.4219 202.702 51.4219C196.713 51.4219 191.857 55.8969 191.857 61.4171C191.857 66.9373 196.713 71.4123 202.702 71.4123Z" fill="#AB8035" stroke="#AB8035" stroke-width="0.181912" stroke-miterlimit="1.5" stroke-linecap="round" stroke-linejoin="round"/>
<path fill-rule="evenodd" clip-rule="evenodd" d="M211.914 52.1117C211.719 51.4593 211.966 51.0978 212.965 51.2303C215.592 51.6399 217.501 52.0369 218.427 52.4177C219.5 52.6966 219.575 53.1987 218.812 53.8884C218.047 54.5559 217.452 54.867 216.879 55.1323C216.268 55.6094 215.772 55.5102 215.353 55.026L211.914 52.1115" fill="#AB8035"/>
<path d="M211.914 52.1117C211.719 51.4593 211.966 51.0978 212.965 51.2303C215.592 51.6399 217.501 52.0369 218.427 52.4177C219.5 52.6966 219.575 53.1987 218.812 53.8884C218.047 54.5559 217.452 54.867 216.879 55.1323C216.268 55.6094 215.772 55.5102 215.353 55.026L211.914 52.1115" stroke="#AB8035" stroke-width="0.181912" stroke-miterlimit="1.5" stroke-linecap="round" stroke-linejoin="round"/>
<path fill-rule="evenodd" clip-rule="evenodd" d="M159.298 54.5268C158.379 53.2635 159.223 53.081 160.394 53.8789C165.092 57.6386 166.112 60.5926 165.857 63.4747C165.432 67.7679 163.518 70.9405 160.337 73.1598C158.553 74.0504 157.045 73.5382 158.53 71.7082C163.287 66.1096 164.045 59.1822 159.298 54.5268Z" fill="#AB8035" stroke="#AB8035" stroke-width="0.181912" stroke-miterlimit="1.5" stroke-linecap="round" stroke-linejoin="round"/>
<path fill-rule="evenodd" clip-rule="evenodd" d="M127.912 52.9098C121.456 58.5028 115.749 64.381 111.416 70.7809C109.25 75.3475 116.74 70.8841 117.633 67.9925C118.317 66.4417 119.515 65.2588 121.071 64.3311C125.715 61.551 129.916 58.582 133.791 55.4738C135.582 53.5736 135.589 52.2786 132.194 53.8634L124.811 58.5403L129.116 53.6547C129.42 52.733 128.94 52.5604 127.912 52.91V52.9098Z" fill="#AB8035" stroke="#AB8035" stroke-width="0.181912" stroke-miterlimit="1.5" stroke-linecap="round" stroke-linejoin="round"/>
<path fill-rule="evenodd" clip-rule="evenodd" d="M135.726 54.7927C139.952 53.0612 141.55 53.8403 138.484 55.4507C135.05 57.2978 133.065 59.7122 133.793 63.1891C134.54 65.337 135.677 67.4112 137.457 69.3641C139.296 72.3891 139.137 73.4112 137.071 72.5237C135.579 71.5805 133.435 71.3597 130.039 72.5295C124.726 73.3657 123.72 72.8328 127.409 70.808C129.352 69.627 130.507 68.0903 130.011 65.8071C129.225 61.1945 131.163 57.5341 135.726 54.7927Z" fill="#AB8035"/>
<path d="M135.726 54.7927C139.952 53.0612 141.55 53.8403 138.484 55.4507C135.05 57.2978 133.065 59.7122 133.793 63.1891C134.54 65.337 135.677 67.4112 137.457 69.3641C139.296 72.3891 139.137 73.4112 137.071 72.5237C135.579 71.5805 133.435 71.3597 130.039 72.5295C124.726 73.3657 123.72 72.8328 127.409 70.808C129.352 69.627 130.507 68.0903 130.011 65.8071C129.225 61.1945 131.163 57.5341 135.726 54.7927ZM135.726 54.7927V54.7924" stroke="#AB8035" stroke-width="0.181912" stroke-miterlimit="1.5" stroke-linecap="round" stroke-linejoin="round"/>
<path fill-rule="evenodd" clip-rule="evenodd" d="M122.375 64.7287C124.141 64.0809 127.28 65.7469 126.381 66.463C125.641 67.1043 125.478 67.9422 125.946 68.9958C126.207 69.5318 125.987 69.7426 125.49 69.7654C124.54 69.7124 124.305 70.0716 124.436 70.6422C124.3 71.2935 123.679 71.1289 122.783 70.5009C121.895 69.8477 121.414 69.1502 121.054 68.4399C120.865 67.7091 121.158 67.4282 121.757 67.4345C122.648 67.4527 122.863 67.1026 122.547 66.4645C122.083 65.553 122.027 64.9759 122.375 64.7284L122.375 64.7287Z" fill="#AB8035" stroke="#AB8035" stroke-width="0.181912" stroke-miterlimit="1.5" stroke-linecap="round" stroke-linejoin="round"/>
<path fill-rule="evenodd" clip-rule="evenodd" d="M117.633 71.3853C117.87 70.5307 118.479 70.1024 119.567 70.2232C120.051 70.8144 120.318 71.4041 119.812 71.9886C118.975 72.5996 118.245 72.4292 117.633 71.3853" fill="#AB8035"/>
<path d="M117.633 71.3853C117.87 70.5307 118.479 70.1024 119.567 70.2232C120.051 70.8144 120.318 71.4041 119.812 71.9886C118.975 72.5996 118.245 72.4292 117.633 71.3853" stroke="#AB8035" stroke-width="0.181912" stroke-miterlimit="1.5" stroke-linecap="round" stroke-linejoin="round"/>
<path fill-rule="evenodd" clip-rule="evenodd" d="M143.196 53.331C145.015 52.6832 145.509 52.9725 144.204 54.5342C137.547 58.7391 137.399 65.7701 144.086 70.3054C147.766 72.2427 151.266 71.9708 153.65 69.7535C160.557 63.3632 158.939 58.4001 153.145 54.1359C152.371 53.3499 152.759 53.0553 154.203 53.207C160.813 55.6132 162.329 62.4891 158.596 68.4186C152.463 76.5555 142.589 73.9114 138.513 68.2864C134.529 61.5447 136.585 56.9069 143.196 53.331Z" fill="#AB8035" stroke="#AB8035" stroke-width="0.181912" stroke-miterlimit="1.5" stroke-linecap="round" stroke-linejoin="round"/>
<path fill-rule="evenodd" clip-rule="evenodd" d="M101.029 71.4869C105.976 67.0545 111.008 62.7114 116.515 58.8679L122.255 53.2909C123.722 52.3651 124.951 52.6072 123.976 54.0447L116.51 61.6399C114.768 64.7183 112.663 67.8001 109.131 70.0559C108.91 70.1973 99.2835 74.3748 101.029 71.4869Z" fill="#AB8035" stroke="#AB8035" stroke-width="0.181912" stroke-miterlimit="1.5" stroke-linecap="round" stroke-linejoin="round"/>
<path fill-rule="evenodd" clip-rule="evenodd" d="M107.653 62.088C106.657 61.0059 106.295 59.8903 108.311 58.6491C106.738 58.1594 105.945 57.3176 106.346 55.843C107.362 54.0586 108.551 53.0166 110.086 52.861C111.984 52.7486 112.659 53.6628 111.035 54.5263C107.87 55.5116 107.365 56.4396 109.035 57.321C112.574 54.4549 115.408 52.7617 116.933 53.2471C118.026 53.8601 118.384 54.4544 116.921 55.3279C112.667 57.1416 109.477 58.9166 109.643 61.2557C109.501 62.5323 108.27 62.5073 107.653 62.0875L107.653 62.0878V62.088Z" fill="#AB8035" stroke="#AB8035" stroke-width="0.181912" stroke-miterlimit="1.5" stroke-linecap="round" stroke-linejoin="round"/>
<path fill-rule="evenodd" clip-rule="evenodd" d="M79.9455 66.2749C75.486 62.0262 71.6928 57.6434 68.5353 53.1323C68.2602 52.4677 68.5346 52.0746 69.917 52.2283C73.825 50.5896 77.2785 50.6455 80.1362 52.9253C82.412 51.2624 84.4115 52.6922 83.0528 54.7395C79.7396 58.009 79.2331 60.8572 80.3217 63.4657C81.1674 65.6508 81.1282 66.6981 79.9452 66.2749H79.9455Z" fill="#AB8035" stroke="#AB8035" stroke-width="0.181912" stroke-miterlimit="1.5" stroke-linecap="round" stroke-linejoin="round"/>
<path fill-rule="evenodd" clip-rule="evenodd" d="M71.3174 53.9717C74.047 55.8448 76.3724 58.0079 77.9932 60.6772C77.7534 58.5131 78.6048 56.6907 80.6916 55.2548C77.3677 52.0006 74.221 51.2606 71.3174 53.9717Z" fill="#6A4A1A" stroke="#AB8035" stroke-width="0.181912" stroke-miterlimit="1.5" stroke-linecap="round" stroke-linejoin="round"/>
<path d="M93.1997 72.0369C100.036 72.0369 105.577 67.4877 105.577 61.8759C105.577 56.2641 100.036 51.7148 93.1997 51.7148C86.3638 51.7148 80.8223 56.2641 80.8223 61.8759C80.8223 67.4877 86.3638 72.0369 93.1997 72.0369Z" fill="#AB8035" stroke="#AB8035" stroke-width="0.181912" stroke-miterlimit="1.5" stroke-linecap="round" stroke-linejoin="round"/>
<path fill-rule="evenodd" clip-rule="evenodd" d="M9.44043 40.1604L20.9377 44.1433C21.2442 44.4144 20.8341 46.0798 20.077 46.6341C19.7385 46.8818 17.2246 46.1342 17.1275 46.4376C12.7167 60.23 27.9406 63.4096 35.579 48.6953C34.5742 47.7509 32.9702 47.6822 29.8297 47.9732C29.3037 47.3694 29.1338 46.6501 29.8654 45.6382C33.4118 45.5273 36.9579 45.9485 40.5042 46.8065C37.2959 53.6749 33.1956 59.1953 27.2521 61.9307C23.1793 62.9385 19.3521 61.7476 15.8362 57.7674C13.0734 52.7024 10.9436 46.8307 9.44093 40.1602L9.44068 40.1604H9.44043Z" fill="#AB8035" stroke="#AB8035" stroke-width="0.181912" stroke-miterlimit="1.5" stroke-linecap="round" stroke-linejoin="round"/>
<path fill-rule="evenodd" clip-rule="evenodd" d="M41.4193 47.3281C43.9717 47.3635 46.3511 47.7479 48.5567 48.4817C46.1247 49.6464 38.2943 57.3308 38.2943 57.3308C36.3535 59.6278 36.8358 61.6493 38.2095 63.5695C33.1267 63.1766 31.0111 61.3009 36.5377 55.6064L40.6403 51.7751C38.536 51.5366 39.0697 49.91 41.4193 47.3281Z" fill="#AB8035" stroke="#AB8035" stroke-width="0.181912" stroke-miterlimit="1.5" stroke-linecap="round" stroke-linejoin="round"/>
<path fill-rule="evenodd" clip-rule="evenodd" d="M43.1158 53.6133C40.0282 58.9158 40.0657 62.4951 42.2636 65.3133C42.806 66.2737 42.5364 66.7029 41.2526 66.2197C37.6985 63.5797 36.873 59.9461 42.0252 54.136C42.4431 53.8176 42.803 53.6532 43.1155 53.6133H43.1158Z" fill="#AB8035" stroke="#AB8035" stroke-width="0.181912" stroke-miterlimit="1.5" stroke-linecap="round" stroke-linejoin="round"/>
<path d="M51.0859 68.2909C55.7404 68.2909 59.5136 64.0154 59.5136 58.7412C59.5136 53.467 55.7404 49.1914 51.0859 49.1914C46.4314 49.1914 42.6582 53.467 42.6582 58.7412C42.6582 64.0154 46.4314 68.2909 51.0859 68.2909Z" fill="#AB8035" stroke="#AB8035" stroke-width="0.181912" stroke-miterlimit="1.5" stroke-linecap="round" stroke-linejoin="round"/>
<path fill-rule="evenodd" clip-rule="evenodd" d="M56.7942 49.4456L62.3545 49.9583C63.9434 50.3362 65.1995 51.0359 65.9263 52.2463C69.9914 58.6513 74.9017 64.1066 80.2928 69.022C82.7483 71.4071 82.2423 71.9157 78.5839 70.4264C75.0682 68.6957 71.1656 65.2834 69.1332 62.0009L63.2899 53.3972C62.3343 51.9401 60.6394 51.1966 58.2206 51.1523C57.0022 50.7003 56.5386 50.1297 56.7947 49.4453L56.7942 49.4456Z" fill="#AB8035" stroke="#AB8035" stroke-width="0.181912" stroke-miterlimit="1.5" stroke-linecap="round" stroke-linejoin="round"/>
<path fill-rule="evenodd" clip-rule="evenodd" d="M61.2236 52.944C63.3032 54.4428 66.7702 60.0075 70.4331 66.1462C71.2354 68.7477 69.8827 69.4306 67.5875 67.6445C66.0997 66.0491 64.9352 65.9994 64.0858 67.4566C63.1804 69.5952 62.474 69.2786 61.8622 67.7926C61.6362 66.527 62.3232 64.9299 63.9697 62.984C63.1367 59.6988 62.107 56.4841 60.157 53.5991C59.9368 52.6142 60.2698 52.3659 61.2236 52.944Z" fill="#AB8035" stroke="#AB8035" stroke-width="0.181912" stroke-miterlimit="1.5" stroke-linecap="round" stroke-linejoin="round"/>
<path fill-rule="evenodd" clip-rule="evenodd" d="M60.7926 60.0719C61.017 59.0473 61.4685 58.9352 62.2479 60.1375C62.6171 62.7605 62.2094 65.1119 60.1084 66.969C59.4177 67.6682 58.6174 68.2778 57.734 68.82C56.3818 69.4139 55.757 68.9951 56.9946 67.6793C59.9204 65.7363 61.2371 63.2188 60.7926 60.0719Z" fill="#AB8035"/>
<path d="M60.7926 60.0719C61.017 59.0473 61.4685 58.9352 62.2479 60.1375C62.6171 62.7605 62.2094 65.1119 60.1084 66.969C59.4177 67.6682 58.6174 68.2778 57.734 68.82C56.3818 69.4139 55.757 68.9951 56.9946 67.6793C59.9204 65.7363 61.2371 63.2188 60.7926 60.0719ZM60.7926 60.0719V60.0716" stroke="#AB8035" stroke-width="0.181912" stroke-miterlimit="1.5" stroke-linecap="round" stroke-linejoin="round"/>
<path fill-rule="evenodd" clip-rule="evenodd" d="M164.976 57.9389C163.508 56.3861 164.569 56.4108 165.968 56.9368C168.376 58.3044 170.525 60.1496 172.442 62.4221C174.732 65.1052 174.389 67.4555 172.577 69.6195C171.533 70.6123 170.625 70.5317 171.177 69.2978C171.703 67.5232 171.585 65.6809 171.034 63.7989C170.573 62.5902 168.056 60.399 164.976 57.9389Z" fill="#AB8035"/>
<path d="M164.976 57.9389C163.508 56.3861 164.569 56.4108 165.968 56.9368C168.376 58.3044 170.525 60.1496 172.442 62.4221C174.732 65.1052 174.389 67.4555 172.577 69.6195C171.533 70.6123 170.625 70.5317 171.177 69.2978C171.703 67.5232 171.585 65.6809 171.034 63.7989C170.573 62.5902 168.056 60.399 164.976 57.9389ZM164.976 57.9389L164.976 57.9391" stroke="#AB8035" stroke-width="0.181912" stroke-miterlimit="1.5" stroke-linecap="round" stroke-linejoin="round"/>
<path fill-rule="evenodd" clip-rule="evenodd" d="M167.703 55.9309C165.724 53.9506 166.289 53.5633 168.977 54.5048C172.549 56.1321 175.582 58.8292 178.236 62.2773C179.119 63.5597 180.498 64.989 182.328 66.5517C184.148 68.2032 183.022 69.2534 180.756 68.3509L175.061 62.8651C172.362 60.8374 169.962 58.4646 167.703 55.9309L167.703 55.9307L167.703 55.9309Z" fill="#AB8035" stroke="#AB8035" stroke-width="0.181912" stroke-miterlimit="1.5" stroke-linecap="round" stroke-linejoin="round"/>
<path fill-rule="evenodd" clip-rule="evenodd" d="M172.079 55.0435C170.767 53.9437 170.982 53.0794 172.942 53.9955C174.95 55.3793 175.891 55.3863 175.453 53.6154C175.072 52.6713 176.837 53.0594 179.243 53.8459C180.083 54.1647 180.756 54.2391 181.162 53.9207C182.585 52.5183 184.371 52.2697 186.589 53.3934C188.772 54.5039 190.174 55.3924 191.251 56.1884C191.908 57.3974 191.96 58.534 191.625 59.6239C190.801 60.8203 189.857 60.9472 190.094 59.1625C190.338 57.2979 188.154 55.7151 183.949 54.3674C183.357 54.2541 182.498 54.4354 181.529 54.7392C180.488 55.1331 180.791 55.4791 181.203 55.8206C185.96 58.6616 187.637 60.8999 189.635 63.2013C191.066 65.0077 190.754 65.154 188.856 63.7898C188.308 63.5218 188.025 63.63 188.299 64.2369C192.018 69.4138 190.328 69.1228 186.312 66.4804C184.369 65.1925 182.986 63.6702 181.968 61.9964C181.486 61.2343 178.058 58.8439 172.078 55.044L172.079 55.0435Z" fill="#AB8035" stroke="#AB8035" stroke-width="0.181912" stroke-miterlimit="1.5" stroke-linecap="round" stroke-linejoin="round"/>
<path fill-rule="evenodd" clip-rule="evenodd" d="M188.307 69.7119C189.52 69.4669 189.834 70.047 189.607 71.1228C187.053 73.6571 183.543 73.4598 179.787 72.5643C177.16 71.547 175.9 71.4514 175.188 71.7247C173.23 72.0672 173.087 71.5146 174.342 70.2717C174.954 69.6333 176.923 70.1949 178.641 70.5338C184.938 72.7887 187.089 71.6339 188.307 69.7119Z" fill="#AB8035" stroke="#AB8035" stroke-width="0.181912" stroke-miterlimit="1.5" stroke-linecap="round" stroke-linejoin="round"/>
<path fill-rule="evenodd" clip-rule="evenodd" d="M168.497 69.808C168.018 67.8379 168.148 66.9792 169.984 69.2258C170.764 69.7828 171.172 70.4309 170.241 71.4068C168.126 72.9223 166.797 72.8959 165.318 73.1631C163.581 72.8102 163.631 72.3403 165.029 71.7818C167.69 71.6387 169.091 71.0647 168.497 69.8082V69.808Z" fill="#AB8035" stroke="#AB8035" stroke-width="0.181912" stroke-miterlimit="1.5" stroke-linecap="round" stroke-linejoin="round"/>
<path fill-rule="evenodd" clip-rule="evenodd" d="M68.7424 323.415C70.0724 326.668 72.6545 328.197 76.3484 328.196C80.4354 326.895 80.3346 325.277 78.0688 323.495C77.1469 323.235 76.5855 322.903 77.1719 322.342C79.234 320.383 76.7862 320.294 73.5716 320.522C73.328 320.558 72.9481 320.486 72.9173 320.765C72.665 323.066 70.2646 323.923 69.3148 323.374C68.7716 323.059 68.7479 323.296 68.7424 323.415Z" fill="#AB8035"/>
<path d="M68.7424 323.415C70.0724 326.668 72.6545 328.197 76.3484 328.196C80.4354 326.895 80.3346 325.277 78.0688 323.495C77.1469 323.235 76.5855 322.903 77.1719 322.342C79.234 320.383 76.7862 320.294 73.5716 320.522C73.328 320.558 72.9481 320.486 72.9173 320.765C72.665 323.066 70.2646 323.923 69.3148 323.374C68.7716 323.059 68.7479 323.296 68.7424 323.415ZM68.7424 323.415H68.7422" stroke="#AB8035" stroke-width="0.181912" stroke-miterlimit="1.5" stroke-linecap="round" stroke-linejoin="round"/>
<path fill-rule="evenodd" clip-rule="evenodd" d="M81.5877 329.306C82.2699 330.104 81.9701 330.505 80.7033 330.514L76.7319 328.884C76.4812 328.474 76.9186 327.9 77.8427 328.29C78.8861 328.92 80.063 329.21 81.5877 329.306Z" fill="#AB8035" stroke="#AB8035" stroke-width="0.181912" stroke-miterlimit="1.5" stroke-linecap="round" stroke-linejoin="round"/>
<path fill-rule="evenodd" clip-rule="evenodd" d="M64.9937 321.57C66.2396 320.961 66.8164 321.269 66.7411 322.471C66.5451 323.17 66.1899 323.655 65.643 323.88C64.4643 324.188 63.8242 324.039 63.9965 323.202L64.994 321.569L64.9937 321.57Z" fill="#AB8035" stroke="#AB8035" stroke-width="0.181912" stroke-miterlimit="1.5" stroke-linecap="round" stroke-linejoin="round"/>
<path fill-rule="evenodd" clip-rule="evenodd" d="M65.4569 313.169C64.1147 314.708 64.4364 315.171 66.3293 314.617C72.6612 313.081 71.1617 314.068 67.6772 315.694C66.3016 316.286 67.047 316.44 69.1468 316.315C73.2106 316.314 75.0483 315.499 72.0039 312.895C69.6682 310.92 67.5145 311.398 65.4569 313.169V313.169Z" fill="#AB8035" stroke="#AB8035" stroke-width="0.181912" stroke-miterlimit="1.5" stroke-linecap="round" stroke-linejoin="round"/>
<path fill-rule="evenodd" clip-rule="evenodd" d="M223.515 312.962C222.368 314.218 222.832 314.672 225.159 314.201C230.487 309.357 231.628 306.94 229.116 306.641C227.743 306.628 227.283 306.931 227.537 307.481C230.642 308.629 226.354 310.906 223.515 312.962Z" fill="#AB8035"/>
<path d="M223.515 312.962C222.368 314.218 222.832 314.672 225.159 314.201C230.487 309.357 231.628 306.94 229.116 306.641C227.743 306.628 227.283 306.931 227.537 307.481C230.642 308.629 226.354 310.906 223.515 312.962ZM223.515 312.962L223.514 312.963" stroke="#AB8035" stroke-width="0.181912" stroke-miterlimit="1.5" stroke-linecap="round" stroke-linejoin="round"/>
<path fill-rule="evenodd" clip-rule="evenodd" d="M234.041 309.94C234.692 309.757 235.086 310.015 235.232 310.698C235.267 311.258 235.032 311.799 234.046 312.291C232.233 312.316 231.759 311.916 232.349 311.18L234.041 309.94L234.041 309.94Z" fill="#AB8035" stroke="#AB8035" stroke-width="0.181912" stroke-miterlimit="1.5" stroke-linecap="round" stroke-linejoin="round"/>
<path fill-rule="evenodd" clip-rule="evenodd" d="M229.85 314.344C230.443 314.521 230.624 314.898 230.404 315.471C230.158 315.899 229.712 316.185 228.707 316.076C227.289 315.229 227.117 314.708 227.933 314.448L229.85 314.344Z" fill="#AB8035"/>
<path d="M229.85 314.344C230.443 314.521 230.624 314.898 230.404 315.471C230.158 315.899 229.712 316.185 228.707 316.076C227.289 315.229 227.117 314.708 227.933 314.448L229.85 314.344ZM229.85 314.344L229.85 314.344" stroke="#AB8035" stroke-width="0.181912" stroke-miterlimit="1.5" stroke-linecap="round" stroke-linejoin="round"/>
<path fill-rule="evenodd" clip-rule="evenodd" d="M66.6279 308.516C68.8378 308.229 69.1169 308.774 67.7559 310.024C64.078 310.784 62.8938 312 61.4153 313.162C59.8569 313.537 59.7171 313.017 60.5948 311.855C62.8686 310.395 65.5386 308.414 66.6279 308.516Z" fill="#AB8035" stroke="#AB8035" stroke-width="0.181912" stroke-miterlimit="1.5" stroke-linecap="round" stroke-linejoin="round"/>
<path fill-rule="evenodd" clip-rule="evenodd" d="M237.908 321.251C239.149 320.912 239.113 320.462 238.257 319.94C236.551 319.645 235.27 319.857 234.452 320.617C233.386 321.735 233.092 322.486 233.413 322.945C234.225 323.957 234.93 323.64 235.631 323.271C236.694 322.628 236.479 322.068 235.205 321.577C234.522 321.404 234.55 321.155 234.9 320.871C235.413 320.516 236.633 320.856 237.909 321.251H237.908Z" fill="#AB8035" stroke="#AB8035" stroke-width="0.181912" stroke-miterlimit="1.5" stroke-linecap="round" stroke-linejoin="round"/>
<path fill-rule="evenodd" clip-rule="evenodd" d="M208.524 319.766C207.534 319.942 207.588 320.361 208.163 320.901L209.658 321.455C210.571 321.314 210.654 320.836 210.233 320.154L208.524 319.766Z" fill="#AB8035"/>
<path d="M208.524 319.766C207.534 319.942 207.588 320.361 208.163 320.901L209.658 321.455C210.571 321.314 210.654 320.836 210.233 320.154L208.524 319.766ZM208.524 319.766V319.766" stroke="#AB8035" stroke-width="0.181912" stroke-miterlimit="1.5" stroke-linecap="round" stroke-linejoin="round"/>
<path fill-rule="evenodd" clip-rule="evenodd" d="M230.52 324.018C232.059 324.058 232.745 323.704 231.676 322.537C230.32 321.341 228.984 319.989 227.363 320.786C227.179 320.993 226.809 320.999 226.311 320.868C224.78 321.423 224.294 321.983 224.977 322.549C226.22 323.411 227.471 324.624 228.669 323.275C229.192 322.542 229.62 322.238 229.857 322.803C229.775 323.433 229.684 324.071 230.52 324.018L230.52 324.018L230.52 324.018Z" fill="#AB8035" stroke="#AB8035" stroke-width="0.181912" stroke-miterlimit="1.5" stroke-linecap="round" stroke-linejoin="round"/>
<path fill-rule="evenodd" clip-rule="evenodd" d="M214.548 325.729C213.754 326.429 213.569 326.919 214.015 327.192C214.779 327.52 215.859 326.685 216.905 325.971C217.147 325.121 217.016 324.601 215.914 324.942L214.548 325.729Z" fill="#AB8035" stroke="#AB8035" stroke-width="0.181912" stroke-miterlimit="1.5" stroke-linecap="round" stroke-linejoin="round"/>
<path fill-rule="evenodd" clip-rule="evenodd" d="M220.176 320.197C220.278 319.228 220.661 318.992 221.442 319.787C221.885 320.413 221.983 321.102 221.809 321.841C221.625 322.18 223.105 323.338 224.193 324.303C224.53 325.185 224.653 325.847 223.334 325.04C222.22 323.631 221.067 322.302 219.113 322.603C218.452 322.476 217.882 322.256 217.729 321.611C217.532 320.994 218.011 320.933 218.729 321.071C220.486 322.149 221.159 322.063 220.176 320.198V320.197Z" fill="#AB8035" stroke="#AB8035" stroke-width="0.181912" stroke-miterlimit="1.5" stroke-linecap="round" stroke-linejoin="round"/>
<path fill-rule="evenodd" clip-rule="evenodd" d="M176.909 327.784C178.025 326.925 178.349 327.393 178.346 328.412C175.431 331.365 170.559 334.891 172.064 336.547C172.811 337.771 172.284 338.068 170.954 337.782C170.489 337.439 170.364 336.621 170.368 335.621C170.113 334.83 169.71 335.622 169.282 336.684C168.974 338.074 167.222 336.993 168.42 334.592C168.487 334.452 168.717 334.006 170.037 333.946C172.066 333.853 174.534 330.867 176.909 327.783L176.909 327.784Z" fill="#AB8035" stroke="#AB8035" stroke-width="0.181912" stroke-miterlimit="1.5" stroke-linecap="round" stroke-linejoin="round"/>
<path fill-rule="evenodd" clip-rule="evenodd" d="M176.814 330.632C178.413 329.064 178.621 329.715 177.983 331.714C177.452 332.345 177.079 332.902 177.2 333.816C175.376 339.506 174.008 337.586 172.591 336.086C171.717 335.155 174.579 332.771 176.814 330.632L176.814 330.632Z" fill="#AB8035" stroke="#AB8035" stroke-width="0.181912" stroke-miterlimit="1.5" stroke-linecap="round" stroke-linejoin="round"/>
<path fill-rule="evenodd" clip-rule="evenodd" d="M184.09 333.802C182.461 332.922 182.138 333.787 182.616 335.72C183.896 337.531 186.169 336.4 188.314 335.645C189.287 334.225 187.771 332.694 186.852 333.9C186.072 335.016 185.183 335.248 184.09 333.802Z" fill="#AB8035" stroke="#AB8035" stroke-width="0.181912" stroke-miterlimit="1.5" stroke-linecap="round" stroke-linejoin="round"/>
<path fill-rule="evenodd" clip-rule="evenodd" d="M115.191 331.252C114.637 332.706 115.166 333.236 116.77 332.848C117.448 332.56 118.206 331.967 119.095 330.866C119.337 330.377 119.621 330.327 119.954 330.76C120.061 331.719 120.241 332.185 120.463 332.366C121.538 333.269 121.904 332.441 122.173 331.375C122.207 330.232 121.56 329.254 120.287 328.426C119.529 327.88 118.945 328.031 118.42 328.418L115.192 331.252H115.191Z" fill="#AB8035" stroke="#AB8035" stroke-width="0.181912" stroke-miterlimit="1.5" stroke-linecap="round" stroke-linejoin="round"/>
<path fill-rule="evenodd" clip-rule="evenodd" d="M118.591 333.514C117.202 333.731 117.025 334.42 118.027 335.567C118.986 336.468 119.798 336.315 120.509 335.444C121.366 334.622 122.326 334.791 123.299 335.104C126.284 335.901 126.226 334.875 124.911 333.096C123.873 332.554 122.781 332.524 121.632 333.049C120.353 333.752 119.476 333.624 118.591 333.514L118.591 333.514Z" fill="#AB8035" stroke="#AB8035" stroke-width="0.181912" stroke-miterlimit="1.5" stroke-linecap="round" stroke-linejoin="round"/>
<path fill-rule="evenodd" clip-rule="evenodd" d="M126.179 333.959C125.794 333.024 126.217 332.79 127.173 333.019C128.272 333.607 129.141 334.264 129.767 334.994C130.015 336.044 129.593 336.311 128.602 335.909C127.925 335.126 127.134 334.459 126.178 333.959L126.179 333.959Z" fill="#AB8035" stroke="#AB8035" stroke-width="0.181912" stroke-miterlimit="1.5" stroke-linecap="round" stroke-linejoin="round"/>
<path fill-rule="evenodd" clip-rule="evenodd" d="M128.413 337.098C127.926 337.073 127.534 337.161 127.411 337.561C127.366 338.17 127.578 338.442 128.068 338.35L129.129 338.078C129.346 337.44 129.065 337.142 128.413 337.098Z" fill="#AB8035" stroke="#AB8035" stroke-width="0.181912" stroke-miterlimit="1.5" stroke-linecap="round" stroke-linejoin="round"/>
<path fill-rule="evenodd" clip-rule="evenodd" d="M143.895 334.747C144.919 335.983 144.428 336.273 143.066 336.017C138.579 334.828 135.997 332.757 134.433 330.214C134.183 328.943 134.612 328.781 135.823 329.894C137.134 331.781 138.241 332.603 139.277 333.053C139.674 333.234 139.848 333.121 139.598 332.785C137.054 329.732 138.49 327.956 142.037 326.859C144.151 326.425 147.496 326.55 151.652 327.043C153.091 327.525 153.12 329.048 151.993 328.743C151.298 328.64 150.752 328.672 150.606 329.068C150.795 330.698 149.839 330.752 148.805 330.697C148.21 330.583 148.279 329.946 148.938 328.84C149.272 328.449 149.503 328.103 148.661 328.213C144.926 328.183 143.156 328.588 144.162 329.65C145.599 332.289 144.19 332.778 142.522 331.328C141.856 330.585 141.601 329.87 142.503 329.23C142.85 328.911 142.412 328.572 141.815 328.675C139.092 329.87 138.853 331.667 143.895 334.746L143.895 334.747H143.895Z" fill="#AB8035" stroke="#AB8035" stroke-width="0.181912" stroke-miterlimit="1.5" stroke-linecap="round" stroke-linejoin="round"/>
<path fill-rule="evenodd" clip-rule="evenodd" d="M145.777 334.662C145.603 333.08 146.154 332.535 147.76 333.497C148.45 334.269 149.087 334.294 149.696 333.936L153.977 329.442C154.965 328.393 155.469 328.793 155.625 330.237C156.005 330.631 153.013 333.424 150.241 336.061C149.813 336.311 149.378 336.435 148.919 336.14C148.312 335.657 148.235 336.225 148.452 337.379C147.982 337.419 147.551 337.406 147.162 337.336C146.791 337.27 146.458 337.151 146.165 336.98L145.777 334.662H145.777Z" fill="#AB8035" stroke="#AB8035" stroke-width="0.181912" stroke-miterlimit="1.5" stroke-linecap="round" stroke-linejoin="round"/>
<path fill-rule="evenodd" clip-rule="evenodd" d="M157.894 335.794C156.425 336.216 154.938 336.666 153.826 336.554C153.413 336.43 153.35 336.268 153.878 336.041C155.801 335.896 157.327 334.456 158.563 332.073C158.855 331.676 158.926 331.406 158.632 331.347C157.867 330.876 156.974 330.401 157.011 329.963C156.745 328.335 157.268 328.084 158.173 328.503C158.917 329.526 159.75 330.849 160.13 330.628C161.082 330.56 161.365 330.67 161.568 330.802C163.4 332.166 163.94 332.957 162.849 333.025C161.578 332.775 160.38 332.769 159.523 333.898L157.894 335.794H157.894Z" fill="#AB8035" stroke="#AB8035" stroke-width="0.181912" stroke-miterlimit="1.5" stroke-linecap="round" stroke-linejoin="round"/>
<path fill-rule="evenodd" clip-rule="evenodd" d="M164.599 328.668C163.684 328.768 163.496 329.176 163.743 329.767C164.028 330.214 164.579 330.461 165.245 330.621C166.291 330.78 166.603 330.396 166.258 329.525C166.173 329.215 165.525 328.934 164.599 328.668Z" fill="#AB8035" stroke="#AB8035" stroke-width="0.181912" stroke-miterlimit="1.5" stroke-linecap="round" stroke-linejoin="round"/>
<path fill-rule="evenodd" clip-rule="evenodd" d="M105.704 335.12C105.219 335.92 105.532 336.283 106.878 336.08C107.758 335.458 108.429 335.477 108.894 336.125C110.283 336.875 110.371 336.178 109.992 334.96C108.892 333.689 107.506 333.535 105.704 335.12Z" fill="#AB8035" stroke="#AB8035" stroke-width="0.181912" stroke-miterlimit="1.5" stroke-linecap="round" stroke-linejoin="round"/>
<path fill-rule="evenodd" clip-rule="evenodd" d="M98.942 324.163C98.3998 322.424 99.3546 322.758 100.791 323.759C101.517 324.622 101.238 325.432 99.5343 326.168C98.756 326.391 98.8229 326.803 99.4472 327.339C100.154 328.237 101.24 328.22 102.667 327.381L105.42 325.029C107.474 323.402 108.417 324.618 108.91 326.989C108.777 327.603 108.408 327.952 106.677 326.768C106.331 326.549 106.024 326.446 105.88 326.813C103.837 329.116 101.6 330.373 98.8461 328.818C96.765 327.47 96.0644 326.37 98.1015 325.764C99.3282 325.367 99.4697 324.814 98.942 324.164V324.163Z" fill="#AB8035" stroke="#AB8035" stroke-width="0.181912" stroke-miterlimit="1.5" stroke-linecap="round" stroke-linejoin="round"/>
<path fill-rule="evenodd" clip-rule="evenodd" d="M92.7337 325.1C92.5362 326.24 92.9721 326.277 93.7896 325.649C94.1975 325.316 94.5225 324.946 94.6405 324.486C94.6905 323.651 94.2926 323.498 93.5734 323.834C92.9846 324.353 92.8403 324.733 92.7337 325.1Z" fill="#AB8035" stroke="#AB8035" stroke-width="0.181912" stroke-miterlimit="1.5" stroke-linecap="round" stroke-linejoin="round"/>
<path fill-rule="evenodd" clip-rule="evenodd" d="M88.111 321.385C87.3359 321.276 87.0678 321.502 87.5226 322.206L90.4095 325.011C91.6204 325.558 92.0141 325.33 91.3693 324.117C91.1504 323.805 90.8588 323.535 90.4464 323.333C89.777 322.958 89.8556 322.724 90.9502 322.681L93.6388 322.947C95.4453 322.66 94.7843 321.705 93.3353 321.665L88.111 321.385V321.385Z" fill="#AB8035" stroke="#AB8035" stroke-width="0.181912" stroke-miterlimit="1.5" stroke-linecap="round" stroke-linejoin="round"/>
<path fill-rule="evenodd" clip-rule="evenodd" d="M94.548 327.592C94.8515 326.375 95.5477 326.636 96.5025 327.872C98.6937 330.436 96.534 330.653 92.7869 330.012C90.2266 329.35 88.3549 326.811 86.5858 323.992C86.2596 323.397 85.8921 323.195 85.5002 323.224C83.538 322.576 83.3834 321.109 83.845 319.363C84.2047 318.936 84.6221 318.878 85.1592 319.588C85.1173 320.749 85.2858 321.496 85.8028 321.556C86.3542 321.393 86.7503 321.574 86.9925 322.094C90.2138 326.589 93.2352 330.325 94.548 327.592Z" fill="#AB8035" stroke="#AB8035" stroke-width="0.181912" stroke-miterlimit="1.5" stroke-linecap="round" stroke-linejoin="round"/>
<path fill-rule="evenodd" clip-rule="evenodd" d="M111.457 332.059L111.339 335.299C111.327 336.371 111.711 336.868 112.656 336.551L115.62 336.025C115.282 333.41 113.694 332.335 111.457 332.059Z" fill="#AB8035" stroke="#AB8035" stroke-width="0.181912" stroke-miterlimit="1.5" stroke-linecap="round" stroke-linejoin="round"/>
<path fill-rule="evenodd" clip-rule="evenodd" d="M179.179 333.282C178.807 332.45 179.224 332.139 180.529 332.414C181.609 332.938 181.835 333.911 181.462 335.199C180.983 336.141 180.32 336.382 180.113 335.228C180.162 334.192 179.98 333.404 179.179 333.282L179.179 333.282Z" fill="#AB8035" stroke="#AB8035" stroke-width="0.181912" stroke-miterlimit="1.5" stroke-linecap="round" stroke-linejoin="round"/>
<path fill-rule="evenodd" clip-rule="evenodd" d="M178.767 334.973C177.951 334.35 177.737 334.872 177.772 335.867C177.92 336.619 178.388 336.882 178.882 337.104C180.089 337.29 180.301 336.966 179.815 336.285L178.767 334.973Z" fill="#AB8035" stroke="#AB8035" stroke-width="0.181912" stroke-miterlimit="1.5" stroke-linecap="round" stroke-linejoin="round"/>
<path fill-rule="evenodd" clip-rule="evenodd" d="M190.584 326.781C191.25 327.983 190.828 328.525 189.12 328.287C186.312 327.234 185.225 326.022 188.99 324.359C191.316 323.684 192.736 323.98 193.328 325.165C194.248 327.237 195.721 328.735 198.074 329.32C199.279 330.107 199.016 330.568 197.68 330.791C195.547 329.834 193.311 329.015 192.32 326.514C191.26 325.243 190.245 325.976 190.584 326.781L190.584 326.781Z" fill="#AB8035" stroke="#AB8035" stroke-width="0.181912" stroke-miterlimit="1.5" stroke-linecap="round" stroke-linejoin="round"/>
<path fill-rule="evenodd" clip-rule="evenodd" d="M198.225 323.715C198.184 323.145 197.891 322.868 197.073 323.203C195.325 324.419 195.797 325.253 196.564 326.035C197.765 327.059 198.798 327.703 199.688 328.025C200.271 328.078 200.555 328.278 200.204 328.788C199.928 329.745 200.376 329.962 201.4 329.589C202.494 329.3 205.039 326.719 207.51 324.256C208.44 322.161 207.756 320.979 205.172 320.871C204.203 320.963 203.1 321.593 201.724 322.5C200.488 323.151 200.377 323.725 201.417 324.221C202.357 324.351 202.716 324.614 202.15 325.088C200.422 325.565 200.636 326.033 201.059 326.5C201.663 327.339 201.203 327.347 200.126 326.872C198.461 326.251 196.321 325.124 197.604 324.375L198.225 323.715Z" fill="#AB8035" stroke="#AB8035" stroke-width="0.181912" stroke-miterlimit="1.5" stroke-linecap="round" stroke-linejoin="round"/>
<path fill-rule="evenodd" clip-rule="evenodd" d="M207.344 327.419C207.086 328.853 207.664 328.643 208.754 327.423C210.437 324.42 211.917 320.165 213.938 319.246C214.946 318.565 215.134 318.082 213.752 317.979C212.247 317.599 209.636 323.401 207.344 327.419" fill="#AB8035"/>
<path d="M207.344 327.419C207.086 328.853 207.664 328.643 208.754 327.423C210.437 324.42 211.917 320.165 213.938 319.246C214.946 318.565 215.134 318.082 213.752 317.979C212.247 317.599 209.636 323.401 207.344 327.419" stroke="#AB8035" stroke-width="0.181912" stroke-miterlimit="1.5" stroke-linecap="round" stroke-linejoin="round"/>
<path fill-rule="evenodd" clip-rule="evenodd" d="M115.129 202.369C138.927 206.824 161.501 206.44 182.103 202.137L181.96 209.781C159.753 218.75 137.367 218.905 115.26 210.1L115.129 202.369Z" fill="url(#paint10_linear_4155_19982)" stroke="#24211C" stroke-width="0.56786" stroke-miterlimit="1.5" stroke-linecap="round" stroke-linejoin="round"/>
<path fill-rule="evenodd" clip-rule="evenodd" d="M119.024 205.798C117.273 206.212 116.744 206.851 118.691 207.944C138.682 214.722 159.314 214.178 180.483 207.489C181.858 206.394 181.761 205.79 180.578 205.547C159.77 212.946 139.251 213.042 119.024 205.798Z" fill="#1E1B12" stroke="#1E1B12" stroke-width="0.181912" stroke-miterlimit="1.5" stroke-linecap="round" stroke-linejoin="round"/>
<path fill-rule="evenodd" clip-rule="evenodd" d="M228.221 301.878C244.495 315.32 242.462 319.826 220.153 315.617C217.683 315.34 216.027 316.082 215.456 317.342C209.124 335.641 195.79 335.305 178.789 325.213C177.471 324.367 176.239 324.442 175.097 325.479C158.771 341.649 140.847 341.223 121.507 326.092C119.934 324.927 118.24 325.099 116.814 325.72C98.9895 336.367 86.3297 335.069 79.6324 317.055C79.1878 316.414 78.4969 316.144 77.4949 316.341C59.697 318.834 52.5356 314.551 68.4302 302.567C69.3892 301.363 69.4664 301.634 68.6608 301.769C50.2176 312.129 56.2342 323.351 77.0723 318.561C85.2154 337.459 99.4828 337.741 119.635 326.719C139.043 344.246 157.883 343.307 177.262 326.359C195.598 339.22 210.117 338.002 218.183 317.8C240.819 321.195 253.903 316.642 228.221 301.878L228.221 301.878L228.221 301.878Z" fill="#AB8035" stroke="#AB8035" stroke-width="0.181912" stroke-miterlimit="1.5" stroke-linecap="round" stroke-linejoin="round"/>
<path fill-rule="evenodd" clip-rule="evenodd" d="M129.102 270.976C126.593 292.101 114.173 297.21 96.3254 298.565C65.2241 300.101 69.7587 309.93 95.6566 315.701C136.691 324.553 175.307 321.185 211.948 311.76C223.624 308.306 220.551 300.804 211.482 300.476C184.369 300.117 168.065 292.433 168.211 270.109C155.239 273.966 142.204 274.334 129.102 270.976Z" fill="#1F4758"/>
<path fill-rule="evenodd" clip-rule="evenodd" d="M129.102 270.976C126.593 292.101 114.173 297.21 96.3254 298.565C65.2241 300.101 69.7587 309.93 95.6566 315.701C136.691 324.553 175.307 321.185 211.948 311.76C223.624 308.306 220.551 300.804 211.482 300.476C184.369 300.117 168.065 292.433 168.211 270.109C155.239 273.966 142.204 274.334 129.102 270.976Z" fill="url(#paint11_linear_4155_19982)"/>
<path fill-rule="evenodd" clip-rule="evenodd" d="M92.4594 298.835C82.7327 301.403 83.2607 305.794 90.3791 310.789C105.669 318.927 140.159 315.6 145.019 295.847C145.801 291.741 145.392 285.915 144.84 280.831C142.877 275.174 137.26 272.79 130.023 271.859C127.847 296.867 116.099 304.326 99.5302 302.949C95.1643 301.923 94.9471 300.323 99.4121 298.287" fill="url(#paint12_linear_4155_19982)"/>
<path fill-rule="evenodd" clip-rule="evenodd" d="M154.221 274.89C146.534 279.975 147.417 295.715 154.321 305.733C163.828 316.608 182.377 317.54 208.227 310.446C212.571 306.907 211.119 299.742 204.83 301.457C179.725 307.756 168.054 298.549 165.989 271.906C161.8 271.94 157.671 272.963 154.221 274.89Z" fill="#BD944A"/>
<path fill-rule="evenodd" clip-rule="evenodd" d="M154.221 274.89C146.534 279.975 147.417 295.715 154.321 305.733C163.828 316.608 182.377 317.54 208.227 310.446C212.571 306.907 211.119 299.742 204.83 301.457C179.725 307.756 168.054 298.549 165.989 271.906C161.8 271.94 157.671 272.963 154.221 274.89Z" fill="url(#paint13_linear_4155_19982)"/>
<path fill-rule="evenodd" clip-rule="evenodd" d="M163.981 273.918C162.801 299.444 175.833 308.687 198.293 307.127C178.042 311.052 157.163 311.923 154.019 294.004C152.899 289.39 152.707 282.431 154.17 280.001C156.554 276.355 159.923 274.506 163.981 273.918Z" fill="#CBC8C5"/>
<path fill-rule="evenodd" clip-rule="evenodd" d="M106.392 307.868C126.807 311.012 140.417 305.475 142.026 284.626C141.75 278.894 138.683 275.804 133.798 274.434C131.591 298.237 121.385 306.243 106.392 307.868Z" fill="#DBD7D3"/>
<path fill-rule="evenodd" clip-rule="evenodd" d="M133.366 291.148C132.44 291.152 131.61 291.379 131.293 292.797C132.596 295.311 133.61 297.988 134.343 300.825C136.328 299.046 137.804 296.959 138.615 294.467C137.412 292.859 135.621 291.79 133.366 291.148Z" fill="#976D21"/>
<path fill-rule="evenodd" clip-rule="evenodd" d="M155.906 294.469C156.465 297.535 157.754 299.573 159.427 301.07L163.567 293.943C163.851 292.443 163.454 291.553 161.707 291.868L155.906 294.469Z" fill="#7E5C1F"/>
<path fill-rule="evenodd" clip-rule="evenodd" d="M137.631 278.535L134.743 282.657C134.663 284.848 135.887 286.026 138.017 286.502L141.461 283.473C140.712 281.124 139.438 279.475 137.631 278.535Z" fill="#976D21"/>
<path fill-rule="evenodd" clip-rule="evenodd" d="M158.159 278.871C155.521 280.068 154.725 282.175 155.155 284.888L159.395 283.933C160.333 283.534 160.665 282.904 160.193 281.968L158.159 278.871Z" fill="#7E5C1F"/>
<path d="M129.636 216.375L129.193 227.917" stroke="black" stroke-width="0.717815" stroke-miterlimit="1.5" stroke-linecap="round" stroke-linejoin="round"/>
<path d="M132.522 217.355L132.437 229.047" stroke="black" stroke-width="0.717815" stroke-miterlimit="1.5" stroke-linecap="round" stroke-linejoin="round"/>
<path d="M135.308 217.891L135.053 229.416" stroke="black" stroke-width="0.717815" stroke-miterlimit="1.5" stroke-linecap="round" stroke-linejoin="round"/>
<path d="M137.761 218.379L137.735 229.843" stroke="black" stroke-width="0.717815" stroke-miterlimit="1.5" stroke-linecap="round" stroke-linejoin="round"/>
<path d="M141.168 218.941L141.316 231.218" stroke="black" stroke-width="0.717815" stroke-miterlimit="1.5" stroke-linecap="round" stroke-linejoin="round"/>
<path d="M144.272 219.203L144.414 231.337" stroke="black" stroke-width="0.717815" stroke-miterlimit="1.5" stroke-linecap="round" stroke-linejoin="round"/>
<path d="M147.985 219.34L148.114 231.406" stroke="black" stroke-width="0.717815" stroke-miterlimit="1.5" stroke-linecap="round" stroke-linejoin="round"/>
<path d="M151.047 219.297L151.257 231.121" stroke="black" stroke-width="0.717815" stroke-miterlimit="1.5" stroke-linecap="round" stroke-linejoin="round"/>
<path d="M155.4 219.148L155.679 230.473" stroke="black" stroke-width="0.717815" stroke-miterlimit="1.5" stroke-linecap="round" stroke-linejoin="round"/>
<path d="M159.39 218.473L159.387 229.874" stroke="black" stroke-width="0.717815" stroke-miterlimit="1.5" stroke-linecap="round" stroke-linejoin="round"/>
<path d="M162.627 218.133L162.87 229.251" stroke="black" stroke-width="0.717815" stroke-miterlimit="1.5" stroke-linecap="round" stroke-linejoin="round"/>
<path d="M165.905 217.062L165.665 227.608" stroke="black" stroke-width="0.717815" stroke-miterlimit="1.5" stroke-linecap="round" stroke-linejoin="round"/>
<path fill-rule="evenodd" clip-rule="evenodd" d="M148.855 308.688L141.872 312.972C144.741 313.972 147.453 315.335 149.989 317.106C151.59 315.356 153.415 313.97 155.541 313.073L148.855 308.688Z" fill="#976D21"/>
<path d="M148.181 262.434C155.085 262.434 160.681 257.328 160.681 251.03C160.681 244.731 155.085 239.625 148.181 239.625C141.278 239.625 135.682 244.731 135.682 251.03C135.682 257.328 141.278 262.434 148.181 262.434Z" fill="#BD944A" stroke="#BD944A" stroke-width="0.378574" stroke-miterlimit="1.5" stroke-linecap="round" stroke-linejoin="round"/>
<path d="M130.383 259.988C136.723 259.988 141.863 254.984 141.863 248.81C141.863 242.637 136.723 237.633 130.383 237.633C124.042 237.633 118.902 242.637 118.902 248.81C118.902 254.984 124.042 259.988 130.383 259.988Z" fill="#BD944A" stroke="#BD944A" stroke-width="0.378574" stroke-miterlimit="1.5" stroke-linecap="round" stroke-linejoin="round"/>
<path d="M166.402 259.172C172.767 259.172 177.926 254.331 177.926 248.359C177.926 242.388 172.767 237.547 166.402 237.547C160.038 237.547 154.879 242.388 154.879 248.359C154.879 254.331 160.038 259.172 166.402 259.172Z" fill="#BD944A" stroke="#BD944A" stroke-width="0.378574" stroke-miterlimit="1.5" stroke-linecap="round" stroke-linejoin="round"/>
<path d="M93.0332 69.6956C97.609 69.6956 101.318 66.0631 101.318 61.5822C101.318 57.1013 97.609 53.4688 93.0332 53.4688C88.4574 53.4688 84.748 57.1013 84.748 61.5822C84.748 66.0631 88.4574 69.6956 93.0332 69.6956Z" fill="#E6E1DB" stroke="#1F4758" stroke-width="0.378574" stroke-miterlimit="1.5" stroke-linecap="round" stroke-linejoin="round"/>
<path d="M50.7413 65.0176C54.2088 65.0176 57.0198 61.8298 57.0198 57.8975C57.0198 53.9651 54.2088 50.7773 50.7413 50.7773C47.2739 50.7773 44.4629 53.9651 44.4629 57.8975C44.4629 61.8298 47.2739 65.0176 50.7413 65.0176Z" fill="#E5E0DB" stroke="#1F4758" stroke-width="0.378574" stroke-miterlimit="1.5" stroke-linecap="round" stroke-linejoin="round"/>
<path d="M148.489 71.5941C153.065 71.5941 156.774 67.9616 156.774 63.4806C156.774 58.9997 153.065 55.3672 148.489 55.3672C143.913 55.3672 140.204 58.9997 140.204 63.4806C140.204 67.9616 143.913 71.5941 148.489 71.5941Z" fill="#D3CFCC" stroke="#1F4758" stroke-width="0.378574" stroke-miterlimit="1.5" stroke-linecap="round" stroke-linejoin="round"/>
<path d="M148.058 258.386C152.239 258.386 155.628 255.007 155.628 250.839C155.628 246.672 152.239 243.293 148.058 243.293C143.877 243.293 140.488 246.672 140.488 250.839C140.488 255.007 143.877 258.386 148.058 258.386Z" fill="#D5D1CD" stroke="#1F4758" stroke-width="0.378574" stroke-miterlimit="1.5" stroke-linecap="round" stroke-linejoin="round"/>
<path d="M130.796 256.414C135.445 256.414 139.213 252.682 139.213 248.078C139.213 243.474 135.445 239.742 130.796 239.742C126.147 239.742 122.378 243.474 122.378 248.078C122.378 252.682 126.147 256.414 130.796 256.414Z" fill="#DEDAD5" stroke="#1F4758" stroke-width="0.378574" stroke-miterlimit="1.5" stroke-linecap="round" stroke-linejoin="round"/>
<path d="M166.19 255.417C170.514 255.417 174.019 251.94 174.019 247.652C174.019 243.363 170.514 239.887 166.19 239.887C161.866 239.887 158.361 243.363 158.361 247.652C158.361 251.94 161.866 255.417 166.19 255.417Z" fill="#CCC9C6" stroke="#1F4758" stroke-width="0.378574" stroke-miterlimit="1.5" stroke-linecap="round" stroke-linejoin="round"/>
<path d="M202.733 68.8276C207.187 68.8276 210.797 65.3676 210.797 61.0994C210.797 56.8312 207.187 53.3711 202.733 53.3711C198.279 53.3711 194.668 56.8312 194.668 61.0994C194.668 65.3676 198.279 68.8276 202.733 68.8276Z" fill="#C8C5C2" stroke="#1F4758" stroke-width="0.378574" stroke-miterlimit="1.5" stroke-linecap="round" stroke-linejoin="round"/>
<path d="M242.908 66.0314C246.568 66.0314 249.535 62.6281 249.535 58.4298C249.535 54.2315 246.568 50.8281 242.908 50.8281C239.248 50.8281 236.281 54.2315 236.281 58.4298C236.281 62.6281 239.248 66.0314 242.908 66.0314Z" fill="#C7C5C2" stroke="#1F4758" stroke-width="0.378574" stroke-miterlimit="1.5" stroke-linecap="round" stroke-linejoin="round"/>
<path fill-rule="evenodd" clip-rule="evenodd" d="M295.753 17.8462C291.171 12.5957 281.505 10.1063 263.411 7.6033C175.596 -3.53579 99.35 -0.850756 28.7987 8.24339C14.7294 10.275 3.37113 12.7274 1.46602 17.2889C0.691948 22.0307 5.69884 25.3878 5.87607 25.5534C26.8664 45.1814 249.443 50.3745 290.885 27.9438C295.376 25.9966 297.04 22.6507 295.754 17.8457V17.8459L295.753 17.8462Z" fill="#977323" stroke="#24211C" stroke-width="0.56786" stroke-miterlimit="1.5" stroke-linecap="round" stroke-linejoin="round"/>
<path fill-rule="evenodd" clip-rule="evenodd" d="M155.978 201.635L152.006 201.182C155.247 194.914 160.411 189.735 167.615 185.711C171.44 182.963 174.231 179.773 176.018 176.156C177.069 179 176.954 181.797 174.877 184.516C180.838 185.012 188.418 181.837 189.615 171.959C190.312 166.205 191.469 164.312 192.589 162.494C198.851 169.675 194.655 176.628 187.555 183.518C194.164 179.798 206.648 168.239 208.056 162.228C209.058 160.023 205.149 154.112 200.888 149.861C204.247 148.322 205.822 146.913 203.45 143.5C202.325 141.997 202.059 138.908 202.758 134.033C206.122 135.794 209.834 140.504 213.844 147.716C215.047 146.919 215.937 145.714 216.663 144.294C219.026 151.908 214.491 161.413 206.591 171.84C216.503 164.752 229.895 152.526 227.781 140.099C224.74 128.64 217.442 124.096 207.818 124.933C215.29 116.74 230.167 119.672 232.76 137.242C235.418 124.739 234.061 114.243 223.717 108.239C214.44 106.219 207.704 109.998 202.752 117.847C199.508 114.694 200.493 110.374 205.25 105.471C192.386 102.84 186.89 97.021 192.35 86.4619C195.884 95.4016 202.605 98.9224 213.168 99.0245C205.956 92.8171 206.183 89.0121 211.052 86.7064C210.206 91.3035 217.404 97.0846 227.874 103.347C226.152 91.5563 230.533 85.3067 241.457 84.6288C243.403 84.6901 243.965 85.4626 244.1 86.6641C232.684 92.5643 234.097 102.902 237.895 114.065C240.384 125.242 239.483 135.45 236.922 145.182C242.272 138.266 244.187 130.21 247.156 118.046C251.034 107.337 253.842 96.2702 253.335 84.0991C257.658 92.6464 263.294 90.3954 269.84 80.668C266.916 87.8704 266.318 94.6064 269.161 100.652C260.151 100.829 256.382 107.378 255.375 115.617C259.33 113.003 264.026 115.089 268.145 119.342C256.482 121.635 248.981 128.363 244.673 139.321C249.257 136.731 253.654 138.312 257.823 144.942C248.226 143.603 241.436 146.778 230.737 157.669C235.352 159.333 238.753 161.929 241.168 165.285C230.764 163.52 220.851 167.007 211.408 175.497C218.434 174.358 222.49 176.614 224.402 181.321C213.918 177.797 202.678 180.032 191.044 185.265C196.636 186.83 197.868 190.281 196.615 194.806C189.197 184.171 164.284 189.099 155.978 201.634L155.978 201.635Z" fill="url(#paint14_linear_4155_19982)" stroke="#24211C" stroke-width="0.56786" stroke-miterlimit="1.5" stroke-linecap="round" stroke-linejoin="round"/>
<path fill-rule="evenodd" clip-rule="evenodd" d="M141.157 202.36C140.397 197.499 138.201 192.958 135.031 188.633C128.022 184.347 124.109 179.699 123.421 174.675C121.019 177.204 120.508 180.511 124.662 185.736C114.447 184.003 106.888 177.395 104.114 161.999C97.9129 166.782 99.1633 173.025 105.718 180.309C93.6806 173.656 86.4007 166.227 88.0984 157.336C89.0254 153.157 90.9278 149.188 94.0793 145.487C95.1554 142.327 94.7323 138.923 93.2428 135.346C86.4409 138.998 83.7457 144.143 82.6531 149.872C82.4924 147.646 82.0131 145.632 80.0606 144.599C77.1048 147.167 76.5786 151.138 80.3996 156.619C82.221 159.66 83.7125 163.052 85.1366 166.517C74.2581 158.741 66.7321 149.942 67.46 138.623C71.1112 128.951 78.0481 125.397 87.9865 127.43C87.8123 121.723 84.3074 118.89 75.2022 120.893C67.3259 124.385 64.2231 128.954 64.4548 134.277C64.017 139.062 63.3944 141.005 62.7314 142.325C58.3101 133.941 59.5947 125.066 65.0753 115.829C74.0659 103.574 89.2993 108.919 94.6467 121.184C97.1813 113.66 96.3423 107.697 89.9106 104.325C103.177 103.442 111.224 92.3603 103.238 86.9094C98.6488 94.9192 90.2993 99.3143 77.6667 100.947C86.8722 97.1605 89.8397 92.4929 86.338 86.669C84.5151 90.9966 81.6332 94.8635 75.0829 98.4694C72.4933 99.8951 70.4771 102.579 68.3681 104.321C72.5133 91.7938 67.0059 85.3476 53.4662 83.9617C54.3127 87.7862 56.2096 90.0665 59.7342 92.6147C64.0541 95.7379 61.2918 104.324 58.6246 109.667C53.5309 121.125 54.5261 132.747 58.8019 144.458C51.4778 142.436 43.4447 100.994 43.5877 97.5333C43.3678 93.8576 45.6039 89.6181 49.0582 84.5756C42.0531 86.7779 38.1161 91.3631 37.8392 98.7914C33.376 94.6691 28.0973 79.3883 28.9859 79C27.1957 82.9947 26.1687 87.2563 26.2121 91.6831C26.7433 97.0094 27.975 100.078 29.3736 101.585L38.4525 110.021C39.9605 111.966 40.9652 114.104 40.296 116.883C32.9931 110.144 27.9278 109.918 25.7012 117.956C33.9072 119.011 41.4051 128.529 48.5412 139.081C40.5621 138.869 35.9161 139.885 37.4551 144.444C45.9427 143.987 55.9315 148.78 67.3474 158.56C59.182 158.762 54.0304 160.784 52.0042 164.694C63.0909 164.167 73.5183 166.586 82.9312 173.535C75.6233 174.167 71.0161 176.955 69.7041 180.789C77.8751 179.129 85.8288 178.537 93.4183 181.632C97.4564 183.439 101.563 184.604 105.709 185.401C98.1174 187.562 95.1916 190.747 95.8416 194.717C114.272 187.442 133.764 189.174 138 201.972C138.34 202.998 141.156 202.36 141.156 202.36V202.361L141.157 202.36Z" fill="url(#paint15_linear_4155_19982)" stroke="#24211C" stroke-width="0.56786" stroke-miterlimit="1.5" stroke-linecap="round" stroke-linejoin="round"/>
<path d="M3.07031 30.6836C36.187 57.3318 250.631 55.066 292.338 32.9108" stroke="black" stroke-width="0.181912" stroke-miterlimit="1.5" stroke-linecap="round" stroke-linejoin="round"/>
<path d="M4.56543 34.3594C37.888 59.3412 249.123 57.2982 290.611 36.9195" stroke="black" stroke-width="0.181912" stroke-miterlimit="1.5" stroke-linecap="round" stroke-linejoin="round"/>
<path fill-rule="evenodd" clip-rule="evenodd" d="M278.682 18.0458C274.633 14.132 266.76 12.4414 250.77 10.5754C180.045 2.43436 111.001 3.94719 42.9268 10.8061C30.4942 12.3209 20.3109 14.2302 18.6275 17.6307C17.9435 21.1654 22.3678 23.6682 22.5243 23.7916C41.0729 38.4236 237.759 42.2949 274.38 25.5734C278.349 24.1218 279.819 21.6276 278.682 18.0458Z" fill="url(#paint16_linear_4155_19982)"/>
<path d="M278.682 18.0458C274.633 14.132 266.76 12.4414 250.77 10.5754C180.045 2.43436 111.001 3.94719 42.9268 10.8061C30.4942 12.3209 20.3109 14.2302 18.6275 17.6307C17.9435 21.1654 22.3678 23.6682 22.5243 23.7916C41.0729 38.4236 237.759 42.2949 274.38 25.5734C278.349 24.1218 279.819 21.6276 278.682 18.0458ZM278.682 18.0458L278.683 18.0461" stroke="#24211C" stroke-width="0.181912" stroke-miterlimit="1.5" stroke-linecap="round" stroke-linejoin="round"/>
<path fill-rule="evenodd" clip-rule="evenodd" d="M12.6335 64.6423C10.2429 61.8609 10.5589 59.609 13.1822 57.8086C22.4765 69.5444 96.6361 76.5944 149.01 75.0929C206.561 77.0246 284.722 68.2059 283.916 59.189C287.966 60.5999 287.605 63.4614 283.955 67.3266C258.466 79.3893 196.859 82.5229 148.952 81.9218C95.3895 83.0725 28.6512 75.7621 12.6337 64.6423H12.6335Z" fill="url(#paint17_linear_4155_19982)" stroke="#24211C" stroke-width="0.56786" stroke-miterlimit="1.5" stroke-linecap="round" stroke-linejoin="round"/>
<path fill-rule="evenodd" clip-rule="evenodd" d="M4.95925 34.8858L3.02344 30.7461C16.122 44.2376 73.4382 49.0518 148.055 50.2419C207.42 49.3825 261.683 46.2624 292.294 33.2682C292.124 34.5411 291.332 35.6492 290.694 36.9606C263.9 46.9471 216.399 52.1474 147.953 52.5069C87.7946 51.6187 29.8896 49.8311 4.95875 34.8856H4.959L4.95925 34.8858Z" fill="#8A6522" stroke="#24211C" stroke-width="0.56786" stroke-miterlimit="1.5" stroke-linecap="round" stroke-linejoin="round"/>
<g clip-path="url(#clip0_4155_19982)">
<path d="M147.254 90.0557C147.262 90.0573 147.276 90.0635 147.29 90.0781C147.303 90.0926 147.309 90.1071 147.311 90.1162C147.311 90.1203 147.31 90.1243 147.31 90.1289C147.309 90.1335 147.306 90.1427 147.298 90.1562L121.825 132.237C121.802 132.276 121.751 132.278 121.725 132.247C120.622 130.933 118.031 127.492 116.98 123.13C115.939 118.802 116.407 113.552 121.437 108.509C130.815 99.1047 142.776 92.3885 147.216 90.0645C147.23 90.0572 147.239 90.0553 147.243 90.0547C147.247 90.0541 147.251 90.055 147.254 90.0557Z" fill="#F6FAFF" stroke="#3F3F3F"/>
<path d="M111.315 121.84C111.318 121.842 111.32 121.845 111.322 121.85C111.324 121.854 111.328 121.864 111.329 121.883C111.548 125.034 112.963 128.411 114.613 131.501C116.262 134.588 118.198 137.476 119.468 139.586C122.087 143.936 141.009 172.858 146.693 181.539C146.704 181.555 146.707 181.565 146.708 181.569C146.709 181.574 146.709 181.578 146.708 181.581C146.707 181.589 146.701 181.606 146.685 181.622C146.668 181.638 146.652 181.643 146.645 181.644C146.642 181.644 146.639 181.644 146.635 181.644C146.631 181.643 146.621 181.639 146.605 181.628L145.817 181.074L125.324 166.673C112.082 157.367 105.986 140.751 110.184 125.096C110.516 123.855 110.873 122.77 111.208 121.861C111.214 121.844 111.221 121.836 111.224 121.833C111.226 121.83 111.229 121.828 111.231 121.826C111.238 121.823 111.253 121.818 111.274 121.821C111.296 121.825 111.309 121.834 111.315 121.84Z" fill="#F6FAFF" stroke="#3F3F3F"/>
<path d="M175.717 139.469C175.74 139.431 175.791 139.428 175.817 139.459C176.919 140.773 179.511 144.214 180.562 148.576C181.603 152.904 181.135 158.154 176.105 163.197C166.727 172.601 154.766 179.318 150.326 181.642C150.312 181.649 150.303 181.651 150.299 181.651C150.295 181.652 150.291 181.651 150.288 181.65C150.28 181.649 150.266 181.643 150.252 181.628C150.239 181.613 150.233 181.599 150.231 181.59C150.231 181.586 150.231 181.581 150.232 181.576L150.244 181.549L175.717 139.469Z" fill="#F6FAFF" stroke="#3F3F3F"/>
<path d="M150.936 90.0557C150.939 90.0566 150.949 90.0595 150.965 90.0703L172.246 105.026C185.488 114.332 191.583 130.947 187.386 146.603C187.053 147.843 186.697 148.928 186.362 149.837C186.356 149.854 186.349 149.863 186.347 149.866C186.344 149.869 186.341 149.871 186.339 149.872C186.333 149.876 186.317 149.881 186.296 149.878C186.275 149.875 186.261 149.865 186.255 149.859C186.252 149.857 186.25 149.853 186.248 149.849C186.246 149.844 186.242 149.835 186.24 149.816V149.815C186.021 146.664 184.607 143.288 182.957 140.198C181.308 137.111 179.372 134.222 178.102 132.112C175.482 127.761 156.561 98.8408 150.877 90.1602C150.866 90.1438 150.863 90.1331 150.862 90.1289C150.861 90.1247 150.861 90.1215 150.861 90.1182C150.863 90.11 150.869 90.0934 150.886 90.0771C150.902 90.0609 150.918 90.0556 150.926 90.0547C150.929 90.0544 150.932 90.0547 150.936 90.0557Z" fill="#F6FAFF" stroke="#3F3F3F"/>
</g>
<defs>
<linearGradient id="paint0_linear_4155_19982" x1="46.5693" y1="327.051" x2="251.053" y2="327.051" gradientUnits="userSpaceOnUse">
<stop stop-color="#B2822A"/>
<stop offset="0.697115" stop-color="#8A6522"/>
</linearGradient>
<linearGradient id="paint1_linear_4155_19982" x1="51.8564" y1="323.303" x2="245.989" y2="323.303" gradientUnits="userSpaceOnUse">
<stop stop-color="#B2822A"/>
<stop offset="0.697115" stop-color="#8A6522"/>
</linearGradient>
<linearGradient id="paint2_linear_4155_19982" x1="68.2529" y1="309.331" x2="226.866" y2="309.331" gradientUnits="userSpaceOnUse">
<stop stop-color="#B2822A"/>
<stop offset="0.697115" stop-color="#8A6522"/>
</linearGradient>
<linearGradient id="paint3_linear_4155_19982" x1="71.8574" y1="295.301" x2="223.848" y2="295.301" gradientUnits="userSpaceOnUse">
<stop stop-color="#B2822A"/>
<stop offset="0.697115" stop-color="#8A6522"/>
</linearGradient>
<linearGradient id="paint4_linear_4155_19982" x1="120.723" y1="265.08" x2="175.011" y2="265.08" gradientUnits="userSpaceOnUse">
<stop stop-color="#B2822A"/>
<stop offset="0.697115" stop-color="#8A6522"/>
</linearGradient>
<linearGradient id="paint5_linear_4155_19982" x1="115.184" y1="249.12" x2="181.044" y2="249.12" gradientUnits="userSpaceOnUse">
<stop stop-color="#B2822A"/>
<stop offset="0.697115" stop-color="#8A6522"/>
</linearGradient>
<linearGradient id="paint6_linear_4155_19982" x1="119.802" y1="232.725" x2="175.05" y2="232.725" gradientUnits="userSpaceOnUse">
<stop stop-color="#B2822A"/>
<stop offset="0.697115" stop-color="#8A6522"/>
</linearGradient>
<linearGradient id="paint7_linear_4155_19982" x1="115.26" y1="221.403" x2="181.96" y2="221.403" gradientUnits="userSpaceOnUse">
<stop stop-color="#B2822A"/>
<stop offset="0.697115" stop-color="#8A6522"/>
</linearGradient>
<linearGradient id="paint8_linear_4155_19982" x1="201.521" y1="135.054" x2="99.183" y2="135.054" gradientUnits="userSpaceOnUse">
<stop offset="0.211538" stop-color="#C8C5C2"/>
<stop offset="0.985577" stop-color="#E5E0DB"/>
</linearGradient>
<linearGradient id="paint9_linear_4155_19982" x1="4.95996" y1="55.0716" x2="290.695" y2="55.0716" gradientUnits="userSpaceOnUse">
<stop stop-color="#6F4E1B"/>
<stop offset="1" stop-color="#573D16"/>
</linearGradient>
<linearGradient id="paint10_linear_4155_19982" x1="115.129" y1="209.372" x2="182.103" y2="209.372" gradientUnits="userSpaceOnUse">
<stop stop-color="#B2822A"/>
<stop offset="0.697115" stop-color="#8A6522"/>
</linearGradient>
<linearGradient id="paint11_linear_4155_19982" x1="175.515" y1="295.478" x2="120.847" y2="295.478" gradientUnits="userSpaceOnUse">
<stop offset="0.211538" stop-color="#C9C6C3"/>
<stop offset="0.985577" stop-color="#E6E1DC"/>
</linearGradient>
<linearGradient id="paint12_linear_4155_19982" x1="85.0889" y1="293.391" x2="145.453" y2="293.391" gradientUnits="userSpaceOnUse">
<stop offset="0.384615" stop-color="#976C1D"/>
<stop offset="1" stop-color="#986E22"/>
</linearGradient>
<linearGradient id="paint13_linear_4155_19982" x1="148.793" y1="293.451" x2="210.722" y2="293.451" gradientUnits="userSpaceOnUse">
<stop stop-color="#856020"/>
<stop offset="1" stop-color="#8A6522"/>
</linearGradient>
<linearGradient id="paint14_linear_4155_19982" x1="152.006" y1="141.151" x2="269.84" y2="141.151" gradientUnits="userSpaceOnUse">
<stop stop-color="#976E25"/>
<stop offset="1" stop-color="#8A6522"/>
</linearGradient>
<linearGradient id="paint15_linear_4155_19982" x1="25.7012" y1="140.778" x2="141.157" y2="140.778" gradientUnits="userSpaceOnUse">
<stop offset="0.384615" stop-color="#A67723"/>
<stop offset="1" stop-color="#72531B"/>
</linearGradient>
<linearGradient id="paint16_linear_4155_19982" x1="18.5557" y1="20.7908" x2="279.055" y2="20.7908" gradientUnits="userSpaceOnUse">
<stop stop-color="#66501E"/>
<stop offset="1" stop-color="#AB832B"/>
</linearGradient>
<linearGradient id="paint17_linear_4155_19982" x1="11.0137" y1="69.9246" x2="286.824" y2="69.9246" gradientUnits="userSpaceOnUse">
<stop stop-color="#B2822A"/>
<stop offset="0.697115" stop-color="#8A6522"/>
</linearGradient>
<clipPath id="clip0_4155_19982">
<rect width="81" height="93" fill="white" transform="translate(108.285 89.2852)"/>
</clipPath>
</defs>
</svg>
