<svg width="587" height="26" viewBox="0 0 587 26" fill="none" xmlns="http://www.w3.org/2000/svg">
<path d="M309.398 25.3436C314.26 23.9225 319.764 20.5118 326.644 14.5904C328.112 13.3587 329.488 12.3165 329.671 12.3165C329.9 12.3165 330.176 13.6903 330.267 15.3483C330.588 18.9959 332.01 21.9803 334.258 23.5435C337.193 25.6279 342.193 24.5857 343.982 21.6013C345.082 19.7538 345.082 18.1432 343.982 16.4378C342.56 14.164 341.367 13.5956 338.845 13.9272C337.606 14.1166 336.597 14.1166 336.597 13.9745C336.597 13.8324 336.918 13.0745 337.285 12.3639C338.982 8.9058 343.523 7.10569 348.156 8.00574C352.192 8.76369 355.724 10.3743 357.971 12.4586C359.852 14.2588 360.127 14.7325 360.31 16.8642C360.54 19.0433 360.448 19.3748 359.301 20.2749C357.604 21.6487 355.219 21.6487 354.256 20.2749C353.889 19.6591 353.43 18.3801 353.247 17.3853C352.972 15.3483 352.559 14.9693 351.274 15.3957C350.541 15.6325 350.357 16.1062 350.357 18.0485C350.357 20.7486 351.183 22.6908 352.926 24.112C353.889 24.8699 354.806 25.1068 357.1 25.1068C359.76 25.1068 360.219 24.9647 361.365 23.733C362.191 22.8803 363.016 21.2697 363.475 19.4696C363.934 17.9063 364.53 16.5799 364.851 16.5799C365.126 16.5799 368.199 18.0485 371.594 19.8486C382.418 25.4857 380.95 25.2963 412.048 25.2963C437.504 25.2489 438.835 25.2015 442.779 24.2541C447.595 23.0698 452.732 21.2697 459.75 18.3327C464.749 16.201 470.253 14.7325 470.85 15.3483C471.263 15.7273 470.483 17.101 469.565 17.6221C469.199 17.8116 468.144 18.2853 467.18 18.6643C465.713 19.2801 465.483 19.5643 465.483 20.8434C465.483 21.9329 465.758 22.4066 466.492 22.6908C468.74 23.5435 472.272 21.4592 475.574 17.3379C477.317 15.1114 477.822 14.7798 478.785 15.0167C480.803 15.4904 483.876 17.0063 485.298 18.2379C486.032 18.9011 486.995 19.4222 487.454 19.4222C487.912 19.4222 489.197 18.4748 490.389 17.2905L492.499 15.1114L533.917 15.2535C576.619 15.3957 581.435 15.2535 585.517 13.4534C587.123 12.7902 587.489 11.6533 586.297 11.1796C585.884 11.0375 567.767 10.8954 546.026 10.8954C524.239 10.8954 503.278 10.7533 499.379 10.6112L492.315 10.2796L490.664 8.47946C489.747 7.43729 488.6 6.63198 488.142 6.63198C487.637 6.63198 486.49 7.29518 485.573 8.05312C483.234 10.0427 480.252 11.3691 478.005 11.3691C476.216 11.3691 475.987 11.1796 474.611 9.19003C470.116 2.41593 459.521 3.22125 441.357 11.7481C435.624 14.4009 434.064 14.8272 430.991 14.4009L428.79 14.0693L429.799 12.3639C432 8.76369 430.67 2.7949 427.414 1.42114C426.267 0.900054 425.671 0.947425 424.02 1.61062C420.258 3.07913 419.158 6.77409 421.176 11.0375C421.818 12.4586 422.368 13.9272 422.368 14.3535C422.368 15.443 418.516 18.2853 415.763 19.2327C412.461 20.3696 407.462 19.9433 403.104 18.1432C398.976 16.3905 398.517 15.443 401.361 14.6851C407.507 13.0745 409.984 10.8954 409.984 7.10569C409.984 4.02656 406.865 0.947425 403.792 0.947425C401.086 0.947425 397.829 3.31599 398.151 5.06873C398.334 5.96878 399.16 6.06352 403.196 5.4477C405.26 5.1161 405.352 5.16347 405.673 6.34775C406.04 8.00574 404.71 10.3269 402.646 11.4165C399.618 13.1218 395.765 12.4586 385.996 8.71631C378.795 5.92141 368.337 2.74753 362.283 1.42114C346.55 -1.89485 337.514 0.805312 323.066 13.264C314.26 20.8434 310.774 22.5014 304.49 22.1224C297.656 21.7434 293.666 18.9485 298.023 17.6221C300.408 16.8642 301.876 15.5851 303.986 12.3639C306.508 8.52683 308.756 6.63198 310.682 6.63198C312.425 6.63198 312.792 7.20043 312.196 9.2374C311.324 12.3639 312.93 14.6851 315.865 14.6851C318.847 14.6851 320.544 12.6008 320.544 8.9058C320.498 4.16867 316.874 0.947425 311.508 0.947425C308.481 0.947425 304.077 2.17908 301.417 3.7897L299.949 4.68976L296.372 3.03176C294.399 2.17908 292.335 1.42114 291.785 1.42114C291.235 1.42114 289.4 2.13171 287.749 3.03176L284.721 4.64238L281.419 3.17388C275.135 0.426341 268.072 0.947425 265.32 4.31079C262.568 7.67415 262.751 12.4113 265.641 14.2114C269.494 16.6273 272.842 13.6429 271.604 8.9058C271.145 7.10569 271.145 7.10569 272.475 7.10569C274.401 7.10569 275.365 7.76889 279.355 11.6533C282.199 14.4482 284.813 16.4852 288.345 18.759C288.437 18.8538 288.391 19.3275 288.207 19.8959C287.749 21.3644 284.584 22.7382 281.465 22.7382C276.557 22.7382 270.916 19.7538 260.55 11.6533C252.339 5.25821 250.596 4.21604 243.671 1.65799C239.68 0.142114 238.809 0 234.36 0C222.388 0 213.765 2.08434 191.428 10.4217C186.153 12.3639 183.034 12.5534 181.383 10.9428C180.053 9.61637 179.778 7.38992 180.833 5.87404C181.337 5.16347 182.071 4.97398 184.181 4.97398C186.429 4.97398 186.841 4.83187 186.979 4.07393C187.254 2.65279 185.786 1.89485 182.989 1.89485C177.209 1.89485 174.366 6.86883 177.53 11.5112C178.677 13.1692 180.649 14.2114 183.86 14.922L186.383 15.443L184.089 16.9589C176.796 21.8382 167.623 22.1224 162.761 17.6221L160.789 15.822L162.486 14.164C163.449 13.264 164.504 11.9849 164.871 11.2744C165.743 9.52163 165.697 6.34775 164.733 4.68976C163.954 3.31599 161.66 1.89485 160.238 1.89485C159.138 1.89485 157.165 3.07913 155.881 4.50027C154.826 5.68455 154.734 6.11089 154.78 9.99534C154.872 14.164 154.826 14.2114 153.771 14.2114C152.028 14.2114 147.258 12.4113 143.726 10.4691C138.222 7.38992 134.415 6.11089 128.361 5.21084C121.985 4.26341 115.014 6.25301 111.665 9.9006C109.739 11.9376 107.996 11.8428 104.097 9.47425C102.4 8.43209 100.428 7.5794 99.7399 7.5794C99.0519 7.5794 97.1714 8.43209 95.5202 9.42688C93.1809 10.8954 91.8508 11.3691 89.4657 11.6533C87.7686 11.8428 67.0367 11.8902 43.4153 11.7481L0.392029 11.5112L0.116821 13.1218C-0.0666504 14.0219 -0.020752 14.8746 0.16272 15.0641C0.346191 15.2535 19.702 15.3957 43.1859 15.3957C87.2641 15.3957 91.3004 15.5378 95.933 17.3379C99.6023 18.759 100.703 18.759 102.721 17.101C105.152 15.0641 107.537 14.0693 108.867 14.543C109.464 14.7325 110.61 16.0115 111.482 17.2905C113.5 20.4644 115.656 21.5539 119.921 21.5539C123.361 21.5539 124.692 20.9381 124.692 19.3748C124.692 18.5222 124.416 18.4748 121.481 18.759C117.903 19.138 115.977 18.5695 114.83 16.7694C113.913 15.2535 113.959 14.3535 115.06 13.9745C116.711 13.4534 122.628 14.6377 127.902 16.5799C143.405 22.3119 160.789 25.2963 179.044 25.2963C195.51 25.3436 203.124 23.8751 214.224 18.4274C218.535 16.3431 221.287 15.2535 221.563 15.5378C221.792 15.7746 222.159 17.1484 222.342 18.6169C222.526 20.038 223.03 21.7434 223.397 22.3592C224.544 24.1593 227.204 25.2489 229.635 24.9647C232.158 24.6804 233.809 23.4488 234.956 21.0802C235.965 18.9485 235.552 17.859 233.717 17.6221C232.708 17.48 232.296 17.8116 231.516 19.1854C230.14 21.6013 229.177 21.9803 227.709 20.796C225.645 19.0906 225.324 15.1588 227.113 12.7429C227.801 11.7954 232.479 8.66894 234.176 8.00574C241.24 5.25821 248.899 7.76889 250.138 13.3113L250.459 14.5904L247.019 14.4956C242.753 14.4482 241.652 15.2062 241.652 18.2853C241.652 20.6539 243.258 22.9751 245.643 23.9699C250.642 26.1489 255.275 22.5961 256.1 15.8694C256.284 14.3535 256.605 13.264 256.926 13.264C257.568 13.264 259.724 14.7798 264.815 18.7117C269.218 22.1224 273.897 24.3962 278.392 25.391C282.703 26.2911 284.584 26.0068 289.262 23.5435L293.069 21.5539L294.537 22.454C300.27 25.9121 304.582 26.7648 309.398 25.3436ZM420.534 21.1276C420.534 20.2275 421.084 19.6591 423.01 18.5222C425.717 16.9115 427.368 16.7221 431.725 17.5747C435.853 18.3327 441.954 16.7221 454.017 11.5586C458.466 9.66374 459.888 9.28477 463.006 9.09528C465.208 8.95317 467.41 9.09528 468.373 9.42688C470.07 9.99534 471.308 11.1796 470.85 11.7007C470.666 11.8428 468.556 12.4586 466.08 13.0745C463.603 13.6903 457.824 15.4904 453.283 17.0537C441.495 21.0328 435.761 22.2171 427.276 22.2171L420.534 22.2645V21.1276ZM386.592 21.5066C380.538 20.3223 375.492 18.2379 365.402 12.7429C352.651 5.82667 351.917 5.49507 347.238 5.58981C345.174 5.58981 343.018 5.77929 342.56 5.92141C341.367 6.30038 341.367 5.40032 342.56 4.73713C343.064 4.4529 345.128 3.97919 347.146 3.69496C355.448 2.51068 363.842 4.83187 382.831 13.6903C387.922 16.0589 393.839 18.5695 395.903 19.2327C400.306 20.6539 400.903 20.9381 401.178 21.696C401.453 22.5487 391.179 22.4066 386.592 21.5066ZM185.695 21.3644C185.695 20.796 186.107 20.3223 186.704 20.0854C187.3 19.9433 193.125 17.3379 199.684 14.3535C214.866 7.38992 217.068 6.48986 222.388 5.06873C228.213 3.4581 230.323 3.17388 232.479 3.55285C235.093 4.02656 234.772 4.92661 231.608 6.15827C230.094 6.72672 227.479 8.05312 225.737 9.09528C218.627 13.4061 208.032 18.4748 202.436 20.2275C198.583 21.4592 193.951 22.1698 189.685 22.2171C186.016 22.2645 185.695 22.1698 185.695 21.3644ZM153.817 21.3171C148.313 20.6065 140.378 18.5222 132.397 15.6325C128.774 14.3061 123.866 12.9324 121.481 12.506C116.619 11.6533 115.151 10.8006 116.665 9.66374C117.812 8.76369 120.38 8.05312 122.398 8.05312C124.829 8.05312 128.177 9.04791 136.617 12.3165C144.965 15.5378 150.423 17.0537 153.725 17.0537C156.477 17.0537 158.633 17.9537 159.917 19.6591C161.385 21.5539 161.202 22.2645 159.413 22.0276C158.633 21.8855 156.065 21.6013 153.817 21.3171ZM98.4557 14.3535C97.4007 13.3587 97.4007 12.4586 98.5474 11.8428C99.6482 11.227 101.758 11.7007 101.758 12.6008C101.758 13.264 100.199 15.1588 99.6023 15.1588C99.4647 15.1588 98.9143 14.8272 98.4557 14.3535ZM484.977 13.5482C484.243 12.9797 484.197 12.7902 484.702 12.127C485.481 11.1796 487.683 11.1322 488.417 12.0797C489.701 13.6903 486.811 14.9693 484.977 13.5482ZM158.404 11.7954C157.899 10.2322 158.587 7.62677 159.596 7.05832C161.156 6.20564 161.844 6.86883 161.844 9.19003C161.844 10.848 161.615 11.4638 160.835 12.0323C159.459 13.0745 158.771 12.9797 158.404 11.7954ZM424.662 10.3743C424.386 9.9006 424.203 8.76369 424.203 7.86363C424.203 6.39512 424.341 6.15827 425.304 6.15827C426.313 6.15827 426.496 6.44249 426.772 8.28997C426.909 9.47425 426.955 10.7059 426.772 11.1322C426.45 11.9849 425.258 11.5586 424.662 10.3743Z" fill="#FFDFC0"/>
</svg>
