<svg width="1846" height="522" viewBox="0 0 1846 522" fill="none" xmlns="http://www.w3.org/2000/svg">
<path d="M842.984 310.234C842.984 333.034 843.284 351.184 843.884 364.684C844.784 378.184 845.534 388.534 846.134 395.734C847.034 402.634 847.784 407.734 848.384 411.034C849.284 414.334 849.734 417.334 849.734 420.034C849.734 421.234 849.284 422.434 848.384 423.634C847.484 424.834 845.534 425.434 842.534 425.434C840.734 425.434 839.084 423.784 837.584 420.484C836.384 417.184 835.034 413.284 833.534 408.784C832.034 404.284 830.234 400.384 828.134 397.084C826.334 393.784 824.084 392.134 821.384 392.134C807.584 398.134 792.734 402.634 776.834 405.634C760.934 408.634 746.834 410.134 734.534 410.134C709.634 410.134 686.234 406.984 664.334 400.684C642.734 394.384 623.684 385.084 607.184 372.784C590.984 360.184 578.234 344.884 568.934 326.884C559.634 308.584 554.984 287.584 554.984 263.884C554.984 236.884 560.084 213.034 570.284 192.334C580.484 171.334 594.284 153.784 611.684 139.684C629.384 125.584 649.184 114.934 671.084 107.734C693.284 100.534 716.234 96.9336 739.934 96.9336C755.534 96.9336 768.434 98.4336 778.634 101.434C789.134 104.134 800.534 108.034 812.834 113.134V103.684C812.834 102.184 813.434 101.134 814.634 100.534C816.134 99.9336 817.634 99.6336 819.134 99.6336C820.634 99.6336 822.134 99.9336 823.634 100.534C825.134 101.134 825.884 102.184 825.884 103.684C825.884 114.784 826.184 126.334 826.784 138.334C827.384 150.034 828.434 161.134 829.934 171.634C830.234 172.834 829.484 173.884 827.684 174.784C826.184 175.684 824.534 176.134 822.734 176.134C818.534 176.134 816.134 174.784 815.534 172.084L812.384 152.284C799.784 140.884 786.584 132.184 772.784 126.184C759.284 119.884 745.034 116.734 730.034 116.734C708.434 116.734 688.634 121.984 670.634 132.484C652.634 142.684 638.084 157.984 626.984 178.384C616.184 198.484 610.784 223.384 610.784 253.084C610.784 283.084 616.484 308.284 627.884 328.684C639.584 349.084 655.034 364.384 674.234 374.584C693.434 384.784 714.434 389.884 737.234 389.884C747.134 389.884 756.884 388.384 766.484 385.384C776.384 382.384 784.634 377.584 791.234 370.984V329.584C791.234 317.884 790.634 309.334 789.434 303.934C788.534 298.234 787.334 294.484 785.834 292.684C784.634 290.884 783.284 289.984 781.784 289.984H734.084C731.684 289.984 730.484 287.134 730.484 281.434C730.484 279.934 730.634 278.584 730.934 277.384C731.534 275.884 732.584 275.134 734.084 275.134C740.384 275.134 748.484 275.134 758.384 275.134C768.584 275.134 778.634 275.284 788.534 275.584C798.434 275.584 806.384 275.584 812.384 275.584C825.284 275.584 835.334 275.434 842.534 275.134C850.034 274.834 856.184 274.684 860.984 274.684C865.784 274.384 870.584 274.234 875.384 274.234C876.884 274.234 877.784 274.984 878.084 276.484C878.684 277.984 878.984 279.634 878.984 281.434C878.984 283.534 878.684 285.484 878.084 287.284C877.484 288.784 876.584 289.534 875.384 289.534H861.434C853.934 289.534 848.984 291.034 846.584 294.034C844.184 297.034 842.984 302.434 842.984 310.234Z" fill="white"/>
<path d="M965.205 360.634C965.205 370.534 966.105 378.034 967.905 383.134C969.705 387.934 971.805 390.334 974.205 390.334H993.105C994.305 390.334 995.205 391.234 995.805 393.034C996.405 394.834 996.705 396.484 996.705 397.984C996.705 399.484 996.405 400.984 995.805 402.484C995.505 403.684 995.055 404.284 994.455 404.284H948.555C940.155 404.284 933.405 404.284 928.305 404.284C923.505 404.584 919.005 404.734 914.805 404.734C910.905 405.034 906.105 405.184 900.405 405.184C899.505 405.184 898.755 404.434 898.155 402.934C897.555 401.134 897.255 399.634 897.255 398.434C897.255 396.934 897.405 395.434 897.705 393.934C898.305 392.434 898.905 391.684 899.505 391.684H921.555C925.155 391.684 926.955 389.134 926.955 384.034V236.434C926.955 212.734 923.655 200.884 917.055 200.884H901.305C898.005 200.884 896.355 198.634 896.355 194.134C896.355 192.334 896.655 190.684 897.255 189.184C898.155 187.684 899.205 186.934 900.405 186.934C900.405 186.934 904.305 187.084 912.105 187.384C919.905 187.384 929.955 187.534 942.255 187.834C954.855 187.834 968.055 187.834 981.855 187.834C1011.26 187.834 1033.31 193.984 1048.01 206.284C1063.01 218.584 1070.51 233.434 1070.51 250.834C1070.51 261.934 1067.51 271.684 1061.51 280.084C1055.81 288.484 1048.16 295.234 1038.56 300.334C1028.96 305.134 1018.61 307.984 1007.51 308.884C1013.51 312.784 1018.91 317.884 1023.71 324.184C1028.81 330.184 1034.51 337.084 1040.81 344.884C1047.41 352.384 1055.36 360.184 1064.66 368.284C1074.26 376.384 1086.56 384.334 1101.56 392.134C1099.16 396.934 1095.56 401.134 1090.76 404.734C1085.96 408.334 1080.11 410.134 1073.21 410.134C1063.01 410.134 1054.16 407.284 1046.66 401.584C1039.46 395.884 1033.16 388.684 1027.76 379.984C1022.36 371.284 1017.41 362.284 1012.91 352.984C1008.71 343.384 1004.36 334.684 999.855 326.884C995.655 319.084 991.005 313.384 985.905 309.784L965.205 308.434V360.634ZM974.205 201.334C968.205 201.334 965.205 206.284 965.205 216.184V290.884C969.405 291.784 973.605 292.234 977.805 292.234C986.205 292.234 994.155 290.734 1001.66 287.734C1009.46 284.434 1015.76 279.634 1020.56 273.334C1025.36 266.734 1027.76 258.784 1027.76 249.484C1027.76 242.584 1025.96 235.384 1022.36 227.884C1019.06 220.384 1013.51 214.084 1005.71 208.984C997.905 203.884 987.405 201.334 974.205 201.334Z" fill="white"/>
<path d="M1219.46 186.034C1220.66 183.334 1223.66 181.984 1228.46 181.984C1232.96 181.984 1235.81 183.484 1237.01 186.484C1238.51 193.084 1241.36 202.234 1245.56 213.934C1250.06 225.634 1255.31 238.834 1261.31 253.534C1267.31 267.934 1273.46 282.784 1279.76 298.084C1286.36 313.084 1292.66 327.484 1298.66 341.284C1304.96 354.784 1310.36 366.334 1314.86 375.934C1318.46 383.434 1321.76 388.234 1324.76 390.334C1327.76 392.134 1332.41 393.034 1338.71 393.034C1340.51 393.034 1341.41 394.834 1341.41 398.434C1341.41 399.934 1341.26 401.434 1340.96 402.934C1340.66 404.434 1340.06 405.184 1339.16 405.184C1329.86 405.184 1322.06 405.034 1315.76 404.734C1309.46 404.434 1302.86 404.284 1295.96 404.284C1290.26 404.284 1283.36 404.434 1275.26 404.734C1267.16 405.034 1257.86 405.184 1247.36 405.184C1246.16 405.184 1245.41 404.584 1245.11 403.384C1244.81 401.884 1244.66 400.534 1244.66 399.334C1244.66 395.434 1245.56 393.484 1247.36 393.484H1268.96C1272.26 393.484 1273.91 392.134 1273.91 389.434C1273.91 388.534 1272.71 384.784 1270.31 378.184C1267.91 371.584 1264.76 363.184 1260.86 352.984C1257.26 342.784 1253.21 331.834 1248.71 320.134H1186.16C1179.86 335.734 1174.61 349.234 1170.41 360.634C1166.21 372.034 1164.11 379.834 1164.11 384.034C1164.11 387.634 1164.71 390.034 1165.91 391.234C1167.11 392.434 1168.31 393.034 1169.51 393.034H1187.96C1190.36 393.034 1191.56 394.834 1191.56 398.434C1191.56 399.934 1191.26 401.434 1190.66 402.934C1190.36 404.434 1189.76 405.184 1188.86 405.184C1181.36 405.184 1175.36 405.034 1170.86 404.734C1166.66 404.734 1162.76 404.584 1159.16 404.284C1155.86 404.284 1151.96 404.284 1147.46 404.284C1142.06 404.284 1136.66 404.434 1131.26 404.734C1126.16 405.034 1119.71 405.184 1111.91 405.184C1110.71 405.184 1109.81 404.584 1109.21 403.384C1108.91 401.884 1108.76 400.534 1108.76 399.334C1108.76 395.434 1109.81 393.484 1111.91 393.484H1126.31C1129.61 393.484 1132.01 392.134 1133.51 389.434C1136.51 384.634 1140.71 376.234 1146.11 364.234C1151.81 351.934 1158.11 337.684 1165.01 321.484C1171.91 305.284 1178.81 288.634 1185.71 271.534C1192.91 254.434 1199.51 238.384 1205.51 223.384C1211.51 208.084 1216.16 195.634 1219.46 186.034ZM1242.86 304.834C1238.66 292.534 1234.46 280.384 1230.26 268.384C1226.36 256.384 1222.76 245.734 1219.46 236.434H1218.11C1214.21 247.534 1210.01 259.084 1205.51 271.084C1201.01 283.084 1196.66 294.334 1192.46 304.834H1242.86Z" fill="white"/>
<path d="M1431.9 356.134C1431.9 368.734 1432.8 377.584 1434.6 382.684C1436.4 387.784 1438.5 390.334 1440.9 390.334H1463.4C1464.3 390.334 1465.05 391.084 1465.65 392.584C1466.55 394.084 1467 395.884 1467 397.984C1467 399.484 1466.7 400.984 1466.1 402.484C1465.8 403.684 1465.2 404.284 1464.3 404.284C1458.9 404.284 1451.85 404.284 1443.15 404.284C1434.45 403.984 1424.1 403.834 1412.1 403.834C1397.7 403.834 1387.5 403.984 1381.5 404.284C1375.5 404.884 1370.7 405.184 1367.1 405.184C1365.9 405.184 1365 404.284 1364.4 402.484C1364.1 400.684 1363.95 399.184 1363.95 397.984C1363.95 396.484 1364.1 395.134 1364.4 393.934C1365 392.434 1365.75 391.684 1366.65 391.684H1386.9C1390.2 391.684 1392.15 390.934 1392.75 389.434C1393.35 387.934 1393.65 384.334 1393.65 378.634V236.884C1393.65 224.284 1392.75 215.134 1390.95 209.434C1389.45 203.734 1387.35 200.884 1384.65 200.884H1368.45C1364.85 200.884 1363.05 198.634 1363.05 194.134C1363.05 189.334 1364.7 186.934 1368 186.934C1373.7 186.934 1380.45 187.234 1388.25 187.834C1396.05 188.134 1404 188.134 1412.1 187.834C1417.5 187.834 1423.8 187.834 1431 187.834C1438.5 187.534 1444.95 187.384 1450.35 187.384C1456.05 187.084 1458.9 186.934 1458.9 186.934C1459.8 186.934 1460.55 187.684 1461.15 189.184C1461.75 190.684 1462.05 192.184 1462.05 193.684C1462.05 197.884 1460.85 199.984 1458.45 199.984H1437.75C1435.65 199.984 1434.15 200.434 1433.25 201.334C1432.35 202.234 1431.9 204.184 1431.9 207.184V356.134Z" fill="white"/>
<path d="M1569.89 356.134C1569.89 368.734 1570.79 377.584 1572.59 382.684C1574.39 387.484 1576.49 389.884 1578.89 389.884H1590.59C1604.69 389.584 1618.04 388.234 1630.64 385.834C1643.54 383.434 1652.99 380.134 1658.99 375.934L1661.24 358.384C1661.54 357.484 1662.44 356.884 1663.94 356.584C1665.74 355.984 1667.24 355.684 1668.44 355.684C1669.94 355.684 1671.29 355.834 1672.49 356.134C1673.69 356.434 1674.14 357.184 1673.84 358.384C1672.64 366.184 1671.89 375.034 1671.59 384.934C1671.29 394.534 1671.14 403.384 1671.14 411.484C1671.14 412.384 1670.39 412.984 1668.89 413.284C1667.69 413.584 1666.64 413.734 1665.74 413.734C1664.54 413.734 1663.04 413.584 1661.24 413.284C1659.74 412.984 1658.99 412.384 1658.99 411.484V404.284H1581.59C1563.29 404.284 1549.19 404.284 1539.29 404.284C1529.39 404.584 1522.04 404.734 1517.24 404.734C1512.44 405.034 1508.39 405.184 1505.09 405.184C1503.89 405.184 1502.99 404.284 1502.39 402.484C1502.09 400.684 1501.94 399.184 1501.94 397.984C1501.94 396.484 1502.09 395.134 1502.39 393.934C1502.99 392.434 1503.74 391.684 1504.64 391.684H1524.89C1528.19 391.684 1530.14 390.934 1530.74 389.434C1531.34 387.934 1531.64 384.334 1531.64 378.634V236.884C1531.64 224.284 1530.74 215.134 1528.94 209.434C1527.44 203.734 1525.34 200.884 1522.64 200.884H1506.44C1502.84 200.884 1501.04 198.634 1501.04 194.134C1501.04 189.334 1502.69 186.934 1505.99 186.934C1511.69 186.934 1518.44 187.234 1526.24 187.834C1534.04 188.134 1541.99 188.134 1550.09 187.834C1555.49 187.834 1561.79 187.834 1568.99 187.834C1576.49 187.534 1582.94 187.384 1588.34 187.384C1594.04 187.084 1596.89 186.934 1596.89 186.934C1597.79 186.934 1598.54 187.684 1599.14 189.184C1599.74 190.684 1600.04 192.184 1600.04 193.684C1600.04 197.884 1598.84 199.984 1596.44 199.984H1575.74C1573.64 199.984 1572.14 200.434 1571.24 201.334C1570.34 202.234 1569.89 204.184 1569.89 207.184V356.134Z" fill="white"/>
<path d="M1819.85 189.184C1819.55 187.684 1819.25 186.484 1818.95 185.584C1818.95 184.384 1818.95 183.484 1818.95 182.884C1818.95 180.184 1820.45 178.834 1823.45 178.834C1825.85 178.834 1827.5 179.284 1828.4 180.184C1829.6 180.784 1830.5 182.734 1831.1 186.034C1832.6 190.834 1833.5 195.184 1833.8 199.084C1834.4 202.684 1835 206.284 1835.6 209.884C1836.5 213.784 1837.25 217.384 1837.85 220.684C1838.75 223.684 1839.65 228.634 1840.55 235.534C1840.55 237.934 1838.6 239.134 1834.7 239.134C1833.5 239.134 1832.3 238.984 1831.1 238.684C1829.9 238.084 1829 237.034 1828.4 235.534C1824.5 224.434 1818.35 215.284 1809.95 208.084C1801.55 200.884 1792.1 197.134 1781.6 196.834C1773.2 196.834 1765.1 199.534 1757.3 204.934C1749.8 210.334 1746.05 217.834 1746.05 227.434C1746.05 237.034 1749.35 245.434 1755.95 252.634C1762.55 259.834 1770.8 266.584 1780.7 272.884C1790.6 279.184 1800.5 285.934 1810.4 293.134C1820.3 300.334 1828.55 308.884 1835.15 318.784C1841.75 328.684 1845.05 340.834 1845.05 355.234C1845.05 367.534 1841.15 377.734 1833.35 385.834C1825.85 393.934 1816.25 400.084 1804.55 404.284C1793.15 408.184 1781.45 410.134 1769.45 410.134C1761.05 410.134 1752.5 408.934 1743.8 406.534C1735.4 404.434 1728.5 402.184 1723.1 399.784C1723.1 403.084 1722.8 405.184 1722.2 406.084C1721.9 406.984 1720.4 407.734 1717.7 408.334H1715.9C1713.5 408.334 1712.15 407.134 1711.85 404.734C1710.95 394.234 1709.75 384.784 1708.25 376.384C1707.05 367.684 1705.7 357.034 1704.2 344.434C1704.2 342.934 1704.95 341.884 1706.45 341.284C1707.95 340.384 1709.6 339.934 1711.4 339.934C1714.1 339.934 1715.6 340.684 1715.9 342.184C1718.6 351.184 1722.65 359.884 1728.05 368.284C1733.45 376.384 1740.05 383.134 1747.85 388.534C1755.65 393.634 1764.2 396.184 1773.5 396.184C1782.2 396.184 1790.45 393.634 1798.25 388.534C1806.35 383.134 1810.4 375.034 1810.4 364.234C1810.4 353.734 1807.1 344.734 1800.5 337.234C1793.9 329.434 1785.65 322.234 1775.75 315.634C1766.15 309.034 1756.4 302.134 1746.5 294.934C1736.9 287.734 1728.8 279.634 1722.2 270.634C1715.6 261.634 1712.3 250.684 1712.3 237.784C1712.3 225.784 1715.75 215.734 1722.65 207.634C1729.55 199.534 1738.4 193.384 1749.2 189.184C1760.3 184.984 1772 182.884 1784.3 182.884C1791.8 182.884 1798.55 183.634 1804.55 185.134C1810.85 186.334 1815.95 187.684 1819.85 189.184Z" fill="white"/>
<path fill-rule="evenodd" clip-rule="evenodd" d="M88.4731 457.939C54.6905 476.619 70.7648 491.019 101.617 504.15C129.106 514.736 172.41 521.543 221.44 521.557C267.818 520.577 316.822 515.358 352.727 501.288C377.004 489.54 385.363 476.219 362.407 462.068L88.4731 457.939Z" fill="url(#paint0_linear_3915_22024)"/>
<path d="M88.4731 457.939C54.6905 476.619 70.7648 491.019 101.617 504.15C129.106 514.736 172.41 521.543 221.44 521.557C267.818 520.577 316.822 515.358 352.727 501.288C377.004 489.54 385.363 476.219 362.407 462.068L88.4731 457.939ZM88.4731 457.939H88.4727" stroke="#24211C" stroke-width="0.56786" stroke-miterlimit="1.5" stroke-linecap="round" stroke-linejoin="round"/>
<path fill-rule="evenodd" clip-rule="evenodd" d="M91.8587 455.975C70.8309 467.357 73.0724 479.838 97.7766 493.38C127.405 506.044 170.483 511.599 222.734 512.307C264.85 511.292 305.131 507.27 340.697 495.526C372.122 481.902 375.318 468.527 357.457 458.9L91.8583 455.975H91.8587Z" fill="url(#paint1_linear_3915_22024)" stroke="#24211C" stroke-width="0.56786" stroke-miterlimit="1.5" stroke-linecap="round" stroke-linejoin="round"/>
<path fill-rule="evenodd" clip-rule="evenodd" d="M119.117 446.104C68.6051 457.462 68.3489 482.319 114.321 495.642C148.837 505.978 184.851 508.549 221.354 508.589C265.52 509.349 306.762 504.79 343.143 490.952C378.885 471.77 370.35 455.604 312.969 443.135L119.117 446.104Z" fill="#573D16" stroke="#24211C" stroke-width="0.56786" stroke-miterlimit="1.5" stroke-linecap="round" stroke-linejoin="round"/>
<path fill-rule="evenodd" clip-rule="evenodd" d="M146.124 439.111C86.4365 450.782 89.9359 466.992 141.532 479.827C192.838 491.788 267.853 487.772 302.017 479.099C355.155 465.975 348.548 451.491 304.185 440.827L146.125 439.112L146.124 439.111Z" fill="url(#paint2_linear_3915_22024)" stroke="#24211C" stroke-width="0.56786" stroke-miterlimit="1.5" stroke-linecap="round" stroke-linejoin="round"/>
<path fill-rule="evenodd" clip-rule="evenodd" d="M185.145 401.285C183.581 427.855 169.634 434.937 146.243 439.115C103.55 448.903 95.0603 459.433 126.168 470.814C151.402 479.318 184.941 482.993 223.83 483.112C260.428 482.062 290.546 477.325 316.605 470.983C344.617 462.25 341.267 448.694 304.214 440.829C274.616 435.868 257.349 423.45 257.657 401.525L185.145 401.285Z" fill="url(#paint3_linear_3915_22024)" stroke="#24211C" stroke-width="0.56786" stroke-miterlimit="1.5" stroke-linecap="round" stroke-linejoin="round"/>
<path fill-rule="evenodd" clip-rule="evenodd" d="M181.986 389.847C179.527 395.395 180.551 399.221 185.139 401.286C207.373 406.228 231.472 406.488 257.65 401.526C262.505 399.558 262.848 394.847 260.884 388.734C238.121 391.574 212.178 392.194 181.987 389.847H181.986Z" fill="url(#paint4_linear_3915_22024)" stroke="#24211C" stroke-width="0.56786" stroke-miterlimit="1.5" stroke-linecap="round" stroke-linejoin="round"/>
<path fill-rule="evenodd" clip-rule="evenodd" d="M180.04 350.207C169.191 363.947 169.924 377.157 181.987 389.85C208.662 398.807 234.823 399.65 260.884 388.738C274.364 376.422 274.053 363.076 262.192 349.307C234.307 359.031 206.959 358.659 180.04 350.207Z" fill="url(#paint5_linear_3915_22024)" stroke="#24211C" stroke-width="0.56786" stroke-miterlimit="1.5" stroke-linecap="round" stroke-linejoin="round"/>
<path fill-rule="evenodd" clip-rule="evenodd" d="M188.039 341.637C179.5 342.584 178.698 346.082 179.594 350.139C204.463 358.776 231.85 358.745 261.89 349.588C262.774 344.369 260.377 341.065 253.466 340.395C237.868 350.687 206.663 350.993 188.039 341.637V341.636L188.039 341.637Z" fill="url(#paint6_linear_3915_22024)" stroke="#24211C" stroke-width="0.56786" stroke-miterlimit="1.5" stroke-linecap="round" stroke-linejoin="round"/>
<path fill-rule="evenodd" clip-rule="evenodd" d="M172.504 314.584C206.691 327.617 240.505 327.667 272.415 314.105C260.081 318.961 252.482 325.623 253.464 340.404C242.438 351.105 202.145 351.954 188.038 341.646C190.743 326.677 184.574 318.585 172.504 314.584Z" fill="url(#paint7_linear_3915_22024)" stroke="#24211C" stroke-width="0.56786" stroke-miterlimit="1.5" stroke-linecap="round" stroke-linejoin="round"/>
<path fill-rule="evenodd" clip-rule="evenodd" d="M4.38694 45.9083C0.104197 38.5569 -1.08109 31.8709 2.05338 25.75C1.20648 55.0547 110.55 59.4669 221.887 63.6767C346.726 61.1655 445.685 55.347 442.868 26.5841C445.131 28.9912 445.502 39.3917 437.687 49.6866C387.884 69.2403 309.656 74.6186 221.631 75.1121C122.956 72.6059 30.2386 68.4599 4.38769 45.9086L4.38694 45.9083Z" fill="#8A6522" stroke="#24211C" stroke-width="0.56786" stroke-miterlimit="1.5" stroke-linecap="round" stroke-linejoin="round"/>
<path fill-rule="evenodd" clip-rule="evenodd" d="M18.7216 96.6152C52.4589 114.772 124.37 122.361 222.974 122.562C296.814 122.775 368.741 120.757 425.196 100.699C420.556 122.662 415.869 149.544 415.299 154.336C405.997 232.51 366.109 278.025 287.988 298.169C247.366 310.923 201.641 310.817 151.031 298.398C93.366 280.898 41.337 245.089 29.5642 170.74C26.3029 150.143 23.2466 125.759 18.7212 96.6156L18.7216 96.6152Z" fill="url(#paint8_linear_3915_22024)" stroke="#24211C" stroke-width="0.56786" stroke-miterlimit="1.5" stroke-linecap="round" stroke-linejoin="round"/>
<path fill-rule="evenodd" clip-rule="evenodd" d="M19.6017 86.447C16.1333 74.5536 11.9635 63.7873 7.28516 52.1133C38.0769 70.5838 91.5233 72.7937 154.219 77.2933C200.916 79.0264 247.394 78.8998 293.659 76.9644C350.222 73.0831 403.446 67.9993 435.289 55.2211C431.399 66.2648 428.03 77.3637 425.136 88.5141C424.126 102.623 314.674 114.46 223.059 112.337C115.612 113.693 35.1828 101.937 19.6024 86.4463L19.6017 86.447Z" fill="url(#paint9_linear_3915_22024)" stroke="#24211C" stroke-width="0.56786" stroke-miterlimit="1.5" stroke-linecap="round" stroke-linejoin="round"/>
<path fill-rule="evenodd" clip-rule="evenodd" d="M29.747 70.6738C31.9931 69.7679 32.3233 70.5603 31.4296 72.4384C30.5046 73.1085 29.9781 73.8211 31.2161 74.723C32.8867 76.0375 34.5245 77.4888 36.0466 79.4155C38.8188 80.3254 38.8764 80.9157 37.3209 81.3161C36.4134 81.7959 35.0861 81.7266 32.5869 80.1219L27.8364 75.6093C26.635 74.6178 26.7576 73.292 27.9257 71.7015C28.1789 71.403 28.7566 71.0643 29.747 70.6738Z" fill="#AB8035"/>
<path d="M29.747 70.6738C31.9931 69.7679 32.3233 70.5603 31.4296 72.4384C30.5046 73.1085 29.9781 73.8211 31.2161 74.723C32.8867 76.0375 34.5245 77.4888 36.0466 79.4155C38.8188 80.3254 38.8764 80.9157 37.3209 81.3161C36.4134 81.7959 35.0861 81.7266 32.5869 80.1219L27.8364 75.6093C26.635 74.6178 26.7576 73.292 27.9257 71.7015C28.1789 71.403 28.7566 71.0643 29.747 70.6738ZM29.747 70.6738V70.6741" stroke="#AB8035" stroke-width="0.181912" stroke-miterlimit="1.5" stroke-linecap="round" stroke-linejoin="round"/>
<path fill-rule="evenodd" clip-rule="evenodd" d="M43.2916 81.9453C41.4299 85.0466 40.1833 85.3882 39.8763 81.5192C39.993 77.1828 38.4013 74.7734 35.3633 73.9959C35.4676 73.3428 35.2526 73.0701 34.6405 73.271C34.015 73.6891 33.5655 73.4197 33.4717 71.757C33.3924 69.8771 33.9985 68.6532 35.548 68.3319C36.7142 67.9508 37.5136 68.0251 37.284 69.3763C36.9617 70.3409 37.4041 70.7431 39.3058 70.0736C41.1484 69.0575 42.1437 69.199 42.4103 70.3478C43.381 73.3635 44.0477 81.1674 43.2916 81.9456V81.9453Z" fill="#AB8035" stroke="#AB8035" stroke-width="0.181912" stroke-miterlimit="1.5" stroke-linecap="round" stroke-linejoin="round"/>
<path fill-rule="evenodd" clip-rule="evenodd" d="M33.6256 85.2009C37.239 85.7184 38.2015 85.078 35.0378 82.6353C32.4709 82.1011 29.9747 80.4692 27.5611 77.5507C26.4301 75.76 25.9862 77.3582 26.5049 78.4269C28.4511 80.9508 30.4526 83.4407 33.6259 85.2013L33.6256 85.2009Z" fill="#AB8035" stroke="#AB8035" stroke-width="0.181912" stroke-miterlimit="1.5" stroke-linecap="round" stroke-linejoin="round"/>
<path d="M362.914 101.36C370.438 101.36 376.537 95.2357 376.537 87.681C376.537 80.1263 370.438 74.002 362.914 74.002C355.39 74.002 349.291 80.1263 349.291 87.681C349.291 95.2357 355.39 101.36 362.914 101.36Z" fill="#AB8035" stroke="#AB8035" stroke-width="0.181912" stroke-miterlimit="1.5" stroke-linecap="round" stroke-linejoin="round"/>
<path fill-rule="evenodd" clip-rule="evenodd" d="M378.728 92.264C378.907 90.4055 378.407 90.1748 377.224 91.5797L372.999 97.6709C372.338 99.5704 372.582 100.094 374.077 98.7131C374.526 98.1155 375.041 97.7822 375.591 97.5955C377.155 97.3003 377.785 97.4508 376.661 98.4404C373.478 100.254 374.86 100.468 378.065 100.044C382.9 99.4025 387.707 98.5985 392.363 96.8847C393.232 96.0594 393.398 95.3181 391.645 94.8068C388.123 93.9368 386.21 92.6031 387.21 90.4298C388.048 89.3611 385.531 85.3891 382.988 81.395C382.774 80.4685 383.019 80.2273 383.901 80.9356C387.857 86.8466 392.063 92.5606 399.155 95.9926C401.386 96.5032 403.6 96.5402 405.768 95.3366C406.893 94.5015 407.327 93.8237 405.238 93.72C401.578 95.3925 397.272 93.4614 392.208 87.2941C386.416 80.0399 380.773 74.147 375.614 72.6326C371.875 72.2914 371.366 73.1356 372.102 74.4368C378.619 79.212 381.422 84.002 381.308 88.8037C381.287 93.572 380.488 96.0586 378.605 95.3645C378.127 94.8014 377.848 94.0576 378.728 92.2647L378.728 92.2644H378.728L378.728 92.264Z" fill="#AB8035" stroke="#AB8035" stroke-width="0.181912" stroke-miterlimit="1.5" stroke-linecap="round" stroke-linejoin="round"/>
<path fill-rule="evenodd" clip-rule="evenodd" d="M388.339 75.6151C387.011 74.5051 387.286 73.8636 389.218 73.7065C390.308 73.9524 390.908 73.7305 391.288 73.2986C393.433 72.3597 393.336 73.2978 392.798 74.6051C391.402 76.0807 391.857 77.4624 393.288 78.7947C394.524 79.1508 396.172 81.9761 397.842 84.9385C398.967 86.5105 399.366 86.2248 399.001 83.9771C398.046 76.7132 401.45 70.9519 407.862 66.2282C412.488 64.0234 417.523 62.8894 423.054 63.0512C425.094 63.6096 426.334 63.7329 426.469 63.2553C431.192 60.4003 431.371 61.7935 428.784 65.7739C426.549 68.0969 426.161 69.2338 426.445 70.3213C427.136 80.4802 423.397 84.3615 419.733 88.3509C411.788 93.9692 405.433 93.7861 400.496 88.4347L394.213 84.8892L390.821 79.1896L389.049 77.9142C386.144 77.536 385.898 76.7708 388.339 75.6144L388.339 75.6151Z" fill="#AB8035" stroke="#AB8035" stroke-width="0.181912" stroke-miterlimit="1.5" stroke-linecap="round" stroke-linejoin="round"/>
<path fill-rule="evenodd" clip-rule="evenodd" d="M417.299 65.722C422.755 64.6961 423.563 65.2034 422.973 69.3727C420.567 78.5267 416.752 84.3459 412.208 88.4408C408.699 90.4847 405.566 89.9128 402.875 86.2545C401.064 83.2617 401.407 80.1821 402.893 77.0569C405.715 71.8103 409.6 67.3064 417.299 65.7224" fill="#593E17"/>
<path d="M417.299 65.722C422.755 64.6961 423.563 65.2034 422.973 69.3727C420.567 78.5267 416.752 84.3459 412.208 88.4408C408.699 90.4847 405.566 89.9128 402.875 86.2545C401.064 83.2617 401.407 80.1821 402.893 77.0569C405.715 71.8103 409.6 67.3064 417.299 65.7224" stroke="#AB8035" stroke-width="0.181912" stroke-miterlimit="1.5" stroke-linecap="round" stroke-linejoin="round"/>
<path fill-rule="evenodd" clip-rule="evenodd" d="M415.389 68.8898C419.638 66.3071 421.235 67.9125 420.665 72.9426C419.045 77.7805 416.313 81.6466 412.318 84.4077C407.379 87.2472 405.519 85.7368 405.859 81.1183C405.624 79.6412 408.906 75.4847 415.389 68.8894V68.8898Z" fill="#AB8035" stroke="#AB8035" stroke-width="0.181912" stroke-miterlimit="1.5" stroke-linecap="round" stroke-linejoin="round"/>
<path fill-rule="evenodd" clip-rule="evenodd" d="M344.111 101.419C342.199 102.303 342.739 103.233 345.378 104.201C348.317 104.751 351.264 104.59 354.228 103.063C355.639 102.216 355.298 101.509 353.226 100.939C350.566 101.406 349.593 100.08 349.069 98.2767C348.447 96.6837 345.365 97.4028 345.079 99.2355C345.77 100.585 345.54 101.369 344.11 101.419L344.111 101.419Z" fill="#AB8035" stroke="#AB8035" stroke-width="0.181912" stroke-miterlimit="1.5" stroke-linecap="round" stroke-linejoin="round"/>
<path fill-rule="evenodd" clip-rule="evenodd" d="M331.15 80.1091C332.785 78.8482 333.694 78.8751 333.304 81.2086C331.895 83.2445 330.358 84.9391 328.485 87.1773C327.709 88.4951 326.329 88.7148 325.357 88.2267C324.784 87.8471 324.283 87.883 323.869 88.4189C323.514 89.4075 322.892 89.8539 322.144 90.0468C321.122 90.1088 320.709 89.567 320.956 88.3682C321.245 87.1588 324.455 85.5135 325.471 86.1952C325.875 86.4193 326.325 86.3243 326.849 85.7155L331.15 80.1095L331.15 80.1091H331.15Z" fill="#AB8035" stroke="#AB8035" stroke-width="0.181912" stroke-miterlimit="1.5" stroke-linecap="round" stroke-linejoin="round"/>
<path fill-rule="evenodd" clip-rule="evenodd" d="M318.239 101.016C317.676 102.367 317.825 103.075 319.751 102.185C321.654 101.007 322.758 99.5353 323.642 97.9822C323.512 97.1082 323.693 96.8638 323.963 96.7989C326.641 95.5804 327.506 94.7503 327.786 94.0454C327.954 91.8344 327.055 90.9593 324.6 92.0346C323.37 92.6543 322.284 95.3585 321.222 98.4108C321.127 99.0635 319.832 100.004 318.24 101.016L318.239 101.016Z" fill="#AB8035" stroke="#AB8035" stroke-width="0.181912" stroke-miterlimit="1.5" stroke-linecap="round" stroke-linejoin="round"/>
<path fill-rule="evenodd" clip-rule="evenodd" d="M328.783 89.5966C328.107 92.3914 329.225 91.9668 330.774 90.7686C332.774 89.1553 335.221 86.2709 337.848 82.8755C338.221 82.1799 339.532 80.6159 341.401 78.5358C341.771 77.433 341.821 76.6262 339.834 77.6901C334.812 82.6195 329.463 87.7823 328.783 89.5966Z" fill="#AB8035" stroke="#AB8035" stroke-width="0.181912" stroke-miterlimit="1.5" stroke-linecap="round" stroke-linejoin="round"/>
<path fill-rule="evenodd" clip-rule="evenodd" d="M337.193 85.3565C340.213 83.4842 340.206 84.719 339.1 86.5728C338.574 87.3293 336.581 89.2911 333.905 92.1839C332.846 94.2241 332.99 95.3852 334.079 95.8552C336.288 98.4104 334.328 99.0954 332.944 99.6778C331.127 100.08 330.152 100.878 329.932 102.031C330.391 105.348 329.182 105.385 327.616 104.72C324.175 103.206 325.273 101.383 327.787 99.4638C330.589 98.5329 331.384 96.3879 330.387 93.1572C329.201 92.3108 333.935 88.4589 337.193 85.3569L337.193 85.3565Z" fill="#AB8035" stroke="#AB8035" stroke-width="0.181912" stroke-miterlimit="1.5" stroke-linecap="round" stroke-linejoin="round"/>
<path fill-rule="evenodd" clip-rule="evenodd" d="M348.626 78.2471C353.308 76.5188 353.971 77.2618 351.548 79.9026C347.607 83.0118 345.128 86.3626 345.004 90.1024C345.1 93.1693 344.802 95.5736 342.844 95.1942C341.706 95.1783 341.63 95.748 342.448 96.8094C343.527 97.5891 343.664 99.5368 341.703 101.985C339.579 103.755 334.004 105.095 334.902 101.866C337.557 98.961 338.757 96.4363 337.359 94.5933C337.039 93.8746 336.331 93.3031 340.033 91.0584C341.789 86.3996 343.646 81.7763 348.625 78.2471" fill="#AB8035"/>
<path d="M348.626 78.2471C353.308 76.5188 353.971 77.2618 351.548 79.9026C347.607 83.0118 345.128 86.3626 345.004 90.1024C345.1 93.1693 344.802 95.5736 342.844 95.1942C341.706 95.1783 341.63 95.748 342.448 96.8094C343.527 97.5891 343.664 99.5368 341.703 101.985C339.579 103.755 334.004 105.095 334.902 101.866C337.557 98.961 338.757 96.4363 337.359 94.5933C337.039 93.8746 336.331 93.3031 340.033 91.0584C341.789 86.3996 343.646 81.7763 348.625 78.2471" stroke="#AB8035" stroke-width="0.181912" stroke-miterlimit="1.5" stroke-linecap="round" stroke-linejoin="round"/>
<path d="M303.487 106.823C312.459 106.823 319.732 100.12 319.732 91.8511C319.732 83.5822 312.459 76.8789 303.487 76.8789C294.516 76.8789 287.243 83.5822 287.243 91.8511C287.243 100.12 294.516 106.823 303.487 106.823Z" fill="#AB8035" stroke="#AB8035" stroke-width="0.181912" stroke-miterlimit="1.5" stroke-linecap="round" stroke-linejoin="round"/>
<path fill-rule="evenodd" clip-rule="evenodd" d="M317.286 77.9157C316.993 76.9384 317.364 76.397 318.859 76.5953C322.795 77.2089 325.655 77.8036 327.041 78.3741C328.648 78.7918 328.761 79.5439 327.617 80.5771C326.472 81.5769 325.581 82.0429 324.723 82.4403C323.807 83.1551 323.064 83.0064 322.436 82.2811L317.286 77.9153" fill="#AB8035"/>
<path d="M317.286 77.9157C316.993 76.9384 317.364 76.397 318.859 76.5953C322.795 77.2089 325.655 77.8036 327.041 78.3741C328.648 78.7918 328.761 79.5439 327.617 80.5771C326.472 81.5769 325.581 82.0429 324.723 82.4403C323.807 83.1551 323.064 83.0064 322.436 82.2811L317.286 77.9153" stroke="#AB8035" stroke-width="0.181912" stroke-miterlimit="1.5" stroke-linecap="round" stroke-linejoin="round"/>
<path fill-rule="evenodd" clip-rule="evenodd" d="M238.468 81.5319C237.092 79.6397 238.357 79.3663 240.111 80.5615C247.148 86.1933 248.676 90.6182 248.294 94.9354C247.658 101.366 244.79 106.119 240.025 109.443C237.353 110.777 235.095 110.01 237.318 107.269C244.445 98.8823 245.58 88.5055 238.468 81.5319Z" fill="#AB8035" stroke="#AB8035" stroke-width="0.181912" stroke-miterlimit="1.5" stroke-linecap="round" stroke-linejoin="round"/>
<path fill-rule="evenodd" clip-rule="evenodd" d="M191.456 79.1163C181.785 87.4943 173.237 96.2994 166.746 105.886C163.503 112.727 174.722 106.041 176.059 101.709C177.083 99.3862 178.879 97.6144 181.21 96.2247C188.165 92.0602 194.457 87.6128 200.262 82.9569C202.945 80.1106 202.956 78.1709 197.87 80.5447L186.811 87.5505L193.26 80.2321C193.716 78.8515 192.995 78.593 191.456 79.1166V79.1163Z" fill="#AB8035" stroke="#AB8035" stroke-width="0.181912" stroke-miterlimit="1.5" stroke-linecap="round" stroke-linejoin="round"/>
<path fill-rule="evenodd" clip-rule="evenodd" d="M203.161 81.9272C209.491 79.3337 211.884 80.5006 207.291 82.9129C202.147 85.6798 199.174 89.2964 200.265 94.5046C201.383 97.7219 203.087 100.829 205.753 103.754C208.508 108.286 208.269 109.817 205.175 108.487C202.94 107.074 199.729 106.744 194.641 108.496C186.683 109.748 185.176 108.95 190.703 105.917C193.613 104.148 195.343 101.846 194.6 98.4261C193.423 91.5168 196.325 86.0337 203.161 81.9272Z" fill="#AB8035"/>
<path d="M203.161 81.9272C209.491 79.3337 211.884 80.5006 207.291 82.9129C202.147 85.6798 199.174 89.2964 200.265 94.5046C201.383 97.7219 203.087 100.829 205.753 103.754C208.508 108.286 208.269 109.817 205.175 108.487C202.94 107.074 199.729 106.744 194.641 108.496C186.683 109.748 185.176 108.95 190.703 105.917C193.613 104.148 195.343 101.846 194.6 98.4261C193.423 91.5168 196.325 86.0337 203.161 81.9272ZM203.161 81.9272V81.9269" stroke="#AB8035" stroke-width="0.181912" stroke-miterlimit="1.5" stroke-linecap="round" stroke-linejoin="round"/>
<path fill-rule="evenodd" clip-rule="evenodd" d="M183.161 96.8134C185.807 95.843 190.509 98.3387 189.163 99.4114C188.054 100.372 187.81 101.627 188.511 103.205C188.901 104.008 188.572 104.324 187.827 104.358C186.405 104.279 186.053 104.817 186.249 105.672C186.046 106.647 185.115 106.4 183.772 105.46C182.443 104.481 181.722 103.437 181.183 102.373C180.9 101.278 181.338 100.857 182.236 100.867C183.571 100.894 183.892 100.369 183.42 99.4135C182.724 98.0482 182.64 97.1837 183.161 96.8131L183.161 96.8134Z" fill="#AB8035" stroke="#AB8035" stroke-width="0.181912" stroke-miterlimit="1.5" stroke-linecap="round" stroke-linejoin="round"/>
<path fill-rule="evenodd" clip-rule="evenodd" d="M176.062 106.788C176.417 105.508 177.329 104.867 178.959 105.048C179.684 105.933 180.084 106.817 179.326 107.692C178.073 108.607 176.978 108.352 176.062 106.788" fill="#AB8035"/>
<path d="M176.062 106.788C176.417 105.508 177.329 104.867 178.959 105.048C179.684 105.933 180.084 106.817 179.326 107.692C178.073 108.607 176.978 108.352 176.062 106.788" stroke="#AB8035" stroke-width="0.181912" stroke-miterlimit="1.5" stroke-linecap="round" stroke-linejoin="round"/>
<path fill-rule="evenodd" clip-rule="evenodd" d="M214.351 79.74C217.076 78.7696 217.816 79.2029 215.861 81.5423C205.89 87.8409 205.668 98.373 215.685 105.167C221.198 108.068 226.439 107.661 230.011 104.34C240.357 94.7676 237.934 87.3332 229.255 80.9457C228.095 79.7683 228.677 79.3269 230.84 79.5543C240.74 83.1585 243.012 93.4582 237.42 102.34C228.232 114.529 213.443 110.568 207.338 102.142C201.369 92.0435 204.449 85.0965 214.351 79.74Z" fill="#AB8035" stroke="#AB8035" stroke-width="0.181912" stroke-miterlimit="1.5" stroke-linecap="round" stroke-linejoin="round"/>
<path fill-rule="evenodd" clip-rule="evenodd" d="M151.191 106.946C158.601 100.306 166.138 93.8004 174.388 88.0431L182.985 79.6891C185.182 78.3024 187.024 78.665 185.563 80.8183L174.379 92.1953C171.771 96.8066 168.618 101.423 163.327 104.802C162.996 105.014 148.576 111.271 151.191 106.946Z" fill="#AB8035" stroke="#AB8035" stroke-width="0.181912" stroke-miterlimit="1.5" stroke-linecap="round" stroke-linejoin="round"/>
<path fill-rule="evenodd" clip-rule="evenodd" d="M161.111 92.8727C159.619 91.2518 159.076 89.5807 162.097 87.7215C159.74 86.9879 158.553 85.727 159.153 83.5182C160.674 80.8452 162.455 79.2844 164.755 79.0512C167.597 78.8829 168.608 80.2522 166.176 81.5458C161.435 83.0217 160.679 84.4117 163.18 85.7321C168.481 81.4388 172.727 78.9025 175.011 79.6296C176.648 80.5478 177.184 81.4381 174.993 82.7465C168.62 85.4633 163.843 88.1222 164.091 91.626C163.878 93.5382 162.035 93.5008 161.111 92.872L161.111 92.8724V92.8727Z" fill="#AB8035" stroke="#AB8035" stroke-width="0.181912" stroke-miterlimit="1.5" stroke-linecap="round" stroke-linejoin="round"/>
<path fill-rule="evenodd" clip-rule="evenodd" d="M119.608 99.133C112.928 92.7687 107.246 86.2035 102.516 79.4462C102.104 78.4507 102.515 77.8618 104.586 78.0921C110.44 75.6374 115.613 75.7212 119.893 79.1361C123.302 76.6452 126.297 78.7869 124.262 81.8537C119.299 86.7511 118.54 91.0175 120.171 94.925C121.438 98.1981 121.379 99.7669 119.607 99.133H119.608Z" fill="#AB8035" stroke="#AB8035" stroke-width="0.181912" stroke-miterlimit="1.5" stroke-linecap="round" stroke-linejoin="round"/>
<path fill-rule="evenodd" clip-rule="evenodd" d="M106.686 80.7081C110.775 83.5138 114.258 86.754 116.686 90.7524C116.327 87.5108 117.602 84.7809 120.728 82.6301C115.749 77.7555 111.035 76.6469 106.686 80.7081Z" fill="#6A4A1A" stroke="#AB8035" stroke-width="0.181912" stroke-miterlimit="1.5" stroke-linecap="round" stroke-linejoin="round"/>
<path d="M139.458 107.767C149.697 107.767 157.998 100.953 157.998 92.5468C157.998 84.1407 149.697 77.3262 139.458 77.3262C129.218 77.3262 120.917 84.1407 120.917 92.5468C120.917 100.953 129.218 107.767 139.458 107.767Z" fill="#AB8035" stroke="#AB8035" stroke-width="0.181912" stroke-miterlimit="1.5" stroke-linecap="round" stroke-linejoin="round"/>
<path fill-rule="evenodd" clip-rule="evenodd" d="M13.9971 60.016L31.2189 65.9821C31.6781 66.3882 31.0637 68.8828 29.9297 69.7133C29.4227 70.0842 25.657 68.9644 25.5116 69.4188C18.9046 90.079 41.7085 94.8418 53.1501 72.8008C51.6451 71.3861 49.2424 71.2831 44.5383 71.719C43.7504 70.8146 43.4958 69.7372 44.5917 68.2214C49.9038 68.0553 55.2156 68.6863 60.5277 69.9715C55.7218 80.2598 49.58 88.529 40.6773 92.6265C34.5766 94.1361 28.8438 92.3523 23.5773 86.3902C19.4389 78.8031 16.2487 70.0077 13.9978 60.0156L13.9974 60.016H13.9971Z" fill="#AB8035" stroke="#AB8035" stroke-width="0.181912" stroke-miterlimit="1.5" stroke-linecap="round" stroke-linejoin="round"/>
<path fill-rule="evenodd" clip-rule="evenodd" d="M61.9 70.7422C65.7232 70.7951 69.2873 71.371 72.5912 72.4702C68.9482 74.2148 57.2191 85.7256 57.2191 85.7256C54.3119 89.1663 55.0343 92.1943 57.0919 95.0708C49.4784 94.4822 46.3095 91.6725 54.5879 83.1426L60.733 77.4035C57.581 77.0463 58.3804 74.6097 61.9 70.7422Z" fill="#AB8035" stroke="#AB8035" stroke-width="0.181912" stroke-miterlimit="1.5" stroke-linecap="round" stroke-linejoin="round"/>
<path fill-rule="evenodd" clip-rule="evenodd" d="M64.4377 80.1621C59.8128 88.1049 59.8689 93.4665 63.1611 97.688C63.9737 99.1266 63.5698 99.7695 61.6468 99.0457C56.3231 95.0912 55.0866 89.6483 62.8041 80.945C63.43 80.4682 63.9692 80.2219 64.4373 80.1621H64.4377Z" fill="#AB8035" stroke="#AB8035" stroke-width="0.181912" stroke-miterlimit="1.5" stroke-linecap="round" stroke-linejoin="round"/>
<path d="M76.3797 102.137C83.3517 102.137 89.0036 95.7327 89.0036 87.8323C89.0036 79.9319 83.3517 73.5273 76.3797 73.5273C69.4078 73.5273 63.7559 79.9319 63.7559 87.8323C63.7559 95.7327 69.4078 102.137 76.3797 102.137Z" fill="#AB8035" stroke="#AB8035" stroke-width="0.181912" stroke-miterlimit="1.5" stroke-linecap="round" stroke-linejoin="round"/>
<path fill-rule="evenodd" clip-rule="evenodd" d="M84.9314 73.9301L93.2602 74.6981C95.6402 75.2642 97.5217 76.3122 98.6105 78.1254C104.7 87.7197 112.055 95.8913 120.13 103.254C123.808 106.827 123.05 107.589 117.57 105.358C112.304 102.765 106.458 97.6541 103.414 92.7371L94.6613 79.8494C93.2299 77.6667 90.6911 76.553 87.0679 76.4866C85.2429 75.8096 84.5485 74.9549 84.9322 73.9297L84.9314 73.9301Z" fill="#AB8035" stroke="#AB8035" stroke-width="0.181912" stroke-miterlimit="1.5" stroke-linecap="round" stroke-linejoin="round"/>
<path fill-rule="evenodd" clip-rule="evenodd" d="M91.5645 79.1536C94.6795 81.3987 99.8727 89.7343 105.359 98.9296C106.561 102.827 104.535 103.85 101.097 101.174C98.8684 98.7842 97.1241 98.7099 95.8517 100.893C94.4956 104.096 93.4374 103.622 92.521 101.396C92.1826 99.5001 93.2116 97.1077 95.6779 94.1929C94.4301 89.2719 92.8878 84.4564 89.9668 80.1349C89.637 78.6597 90.1358 78.2876 91.5645 79.1536Z" fill="#AB8035" stroke="#AB8035" stroke-width="0.181912" stroke-miterlimit="1.5" stroke-linecap="round" stroke-linejoin="round"/>
<path fill-rule="evenodd" clip-rule="evenodd" d="M90.9168 89.8425C91.253 88.3078 91.9294 88.1399 93.0967 89.9407C93.6497 93.8699 93.0391 97.3922 89.8919 100.174C88.8573 101.221 87.6586 102.134 86.3353 102.947C84.3099 103.836 83.374 103.209 85.2278 101.238C89.6104 98.3274 91.5827 94.5564 90.9168 89.8425Z" fill="#AB8035"/>
<path d="M90.9168 89.8425C91.253 88.3078 91.9294 88.1399 93.0967 89.9407C93.6497 93.8699 93.0391 97.3922 89.8919 100.174C88.8573 101.221 87.6586 102.134 86.3353 102.947C84.3099 103.836 83.374 103.209 85.2278 101.238C89.6104 98.3274 91.5827 94.5564 90.9168 89.8425ZM90.9168 89.8425V89.8421" stroke="#AB8035" stroke-width="0.181912" stroke-miterlimit="1.5" stroke-linecap="round" stroke-linejoin="round"/>
<path fill-rule="evenodd" clip-rule="evenodd" d="M246.975 86.638C244.776 84.312 246.365 84.349 248.461 85.137C252.067 87.1856 255.286 89.9496 258.159 93.3536C261.589 97.3728 261.075 100.893 258.361 104.135C256.796 105.622 255.437 105.501 256.263 103.653C257.051 100.995 256.875 98.2351 256.049 95.416C255.359 93.6053 251.589 90.3231 246.975 86.638Z" fill="#AB8035"/>
<path d="M246.975 86.638C244.776 84.312 246.365 84.349 248.461 85.137C252.067 87.1856 255.286 89.9496 258.159 93.3536C261.589 97.3728 261.075 100.893 258.361 104.135C256.796 105.622 255.437 105.501 256.263 103.653C257.051 100.995 256.875 98.2351 256.049 95.416C255.359 93.6053 251.589 90.3231 246.975 86.638ZM246.975 86.638L246.975 86.6383" stroke="#AB8035" stroke-width="0.181912" stroke-miterlimit="1.5" stroke-linecap="round" stroke-linejoin="round"/>
<path fill-rule="evenodd" clip-rule="evenodd" d="M251.064 83.6502C248.099 80.6839 248.946 80.1036 252.972 81.5139C258.323 83.9516 262.866 87.9917 266.841 93.1568C268.163 95.0776 270.229 97.2186 272.971 99.5595C275.697 102.033 274.01 103.607 270.615 102.255L262.085 94.0372C258.042 90.9998 254.448 87.4456 251.064 83.6502L251.064 83.6499L251.064 83.6502Z" fill="#AB8035" stroke="#AB8035" stroke-width="0.181912" stroke-miterlimit="1.5" stroke-linecap="round" stroke-linejoin="round"/>
<path fill-rule="evenodd" clip-rule="evenodd" d="M257.613 82.3163C255.648 80.6688 255.971 79.3742 258.906 80.7464C261.914 82.8193 263.323 82.8298 262.667 80.1771C262.097 78.7628 264.74 79.3441 268.344 80.5223C269.602 80.9999 270.611 81.1113 271.219 80.6344C273.351 78.5336 276.026 78.1612 279.348 79.8446C282.617 81.508 284.718 82.8389 286.33 84.0312C287.315 85.8422 287.393 87.5448 286.892 89.1774C285.657 90.9695 284.243 91.1596 284.599 88.4862C284.963 85.6932 281.693 83.3222 275.393 81.3034C274.506 81.1337 273.22 81.4053 271.769 81.8605C270.209 82.4505 270.663 82.9687 271.28 83.4804C278.406 87.7359 280.917 91.0888 283.911 94.5361C286.054 97.2421 285.586 97.4611 282.744 95.4176C281.924 95.0162 281.498 95.1783 281.909 96.0874C287.48 103.842 284.949 103.406 278.933 99.448C276.022 97.5188 273.951 95.2385 272.426 92.7312C271.704 91.5896 266.569 88.009 257.612 82.317L257.613 82.3163Z" fill="#AB8035" stroke="#AB8035" stroke-width="0.181912" stroke-miterlimit="1.5" stroke-linecap="round" stroke-linejoin="round"/>
<path fill-rule="evenodd" clip-rule="evenodd" d="M281.924 104.292C283.741 103.925 284.211 104.794 283.871 106.406C280.046 110.202 274.787 109.906 269.162 108.565C265.226 107.041 263.34 106.898 262.273 107.307C259.34 107.821 259.125 106.993 261.005 105.131C261.922 104.175 264.872 105.016 267.445 105.524C276.878 108.901 280.1 107.171 281.924 104.292Z" fill="#AB8035" stroke="#AB8035" stroke-width="0.181912" stroke-miterlimit="1.5" stroke-linecap="round" stroke-linejoin="round"/>
<path fill-rule="evenodd" clip-rule="evenodd" d="M252.249 104.423C251.531 101.472 251.727 100.185 254.476 103.551C255.644 104.385 256.256 105.356 254.861 106.818C251.693 109.088 249.702 109.048 247.487 109.449C244.884 108.92 244.96 108.216 247.054 107.379C251.039 107.165 253.139 106.305 252.249 104.423V104.423Z" fill="#AB8035" stroke="#AB8035" stroke-width="0.181912" stroke-miterlimit="1.5" stroke-linecap="round" stroke-linejoin="round"/>
<path fill-rule="evenodd" clip-rule="evenodd" d="M102.828 484.302C104.82 489.175 108.688 491.465 114.221 491.463C120.343 489.514 120.192 487.091 116.798 484.422C115.417 484.033 114.576 483.535 115.455 482.694C118.543 479.76 114.877 479.626 110.062 479.968C109.697 480.022 109.128 479.914 109.082 480.333C108.704 483.779 105.108 485.063 103.685 484.24C102.872 483.769 102.836 484.124 102.828 484.302Z" fill="#AB8035"/>
<path d="M102.828 484.302C104.82 489.175 108.688 491.465 114.221 491.463C120.343 489.514 120.192 487.091 116.798 484.422C115.417 484.033 114.576 483.535 115.455 482.694C118.543 479.76 114.877 479.626 110.062 479.968C109.697 480.022 109.128 479.914 109.082 480.333C108.704 483.779 105.108 485.063 103.685 484.24C102.872 483.769 102.836 484.124 102.828 484.302ZM102.828 484.302H102.828" stroke="#AB8035" stroke-width="0.181912" stroke-miterlimit="1.5" stroke-linecap="round" stroke-linejoin="round"/>
<path fill-rule="evenodd" clip-rule="evenodd" d="M122.069 493.126C123.091 494.322 122.642 494.922 120.744 494.936L114.795 492.494C114.42 491.881 115.075 491.021 116.459 491.604C118.022 492.549 119.785 492.982 122.069 493.126Z" fill="#AB8035" stroke="#AB8035" stroke-width="0.181912" stroke-miterlimit="1.5" stroke-linecap="round" stroke-linejoin="round"/>
<path fill-rule="evenodd" clip-rule="evenodd" d="M97.2106 481.543C99.0768 480.631 99.9409 481.093 99.8279 482.893C99.5344 483.941 99.0024 484.667 98.1831 485.005C96.4175 485.465 95.4588 485.242 95.7168 483.988L97.211 481.543L97.2106 481.543Z" fill="#AB8035" stroke="#AB8035" stroke-width="0.181912" stroke-miterlimit="1.5" stroke-linecap="round" stroke-linejoin="round"/>
<path fill-rule="evenodd" clip-rule="evenodd" d="M97.9058 468.962C95.8953 471.267 96.3772 471.96 99.2126 471.131C108.697 468.829 106.451 470.308 101.232 472.743C99.1711 473.63 100.288 473.861 103.433 473.673C109.52 473.673 112.273 472.451 107.713 468.551C104.214 465.592 100.988 466.308 97.9058 468.961V468.962Z" fill="#AB8035" stroke="#AB8035" stroke-width="0.181912" stroke-miterlimit="1.5" stroke-linecap="round" stroke-linejoin="round"/>
<path fill-rule="evenodd" clip-rule="evenodd" d="M334.659 468.667C332.941 470.547 333.636 471.228 337.122 470.522C345.102 463.266 346.812 459.646 343.05 459.198C340.992 459.179 340.304 459.632 340.685 460.456C345.335 462.176 338.913 465.587 334.659 468.667Z" fill="#AB8035"/>
<path d="M334.659 468.667C332.941 470.547 333.636 471.228 337.122 470.522C345.102 463.266 346.812 459.646 343.05 459.198C340.992 459.179 340.304 459.632 340.685 460.456C345.335 462.176 338.913 465.587 334.659 468.667ZM334.659 468.667L334.658 468.667" stroke="#AB8035" stroke-width="0.181912" stroke-miterlimit="1.5" stroke-linecap="round" stroke-linejoin="round"/>
<path fill-rule="evenodd" clip-rule="evenodd" d="M350.43 464.128C351.405 463.855 351.996 464.24 352.215 465.264C352.266 466.102 351.914 466.914 350.437 467.651C347.723 467.687 347.013 467.088 347.896 465.985L350.431 464.128L350.43 464.128Z" fill="#AB8035" stroke="#AB8035" stroke-width="0.181912" stroke-miterlimit="1.5" stroke-linecap="round" stroke-linejoin="round"/>
<path fill-rule="evenodd" clip-rule="evenodd" d="M344.152 470.719C345.041 470.984 345.312 471.55 344.983 472.408C344.614 473.049 343.946 473.477 342.441 473.314C340.317 472.044 340.058 471.265 341.281 470.874L344.152 470.719Z" fill="#AB8035"/>
<path d="M344.152 470.719C345.041 470.984 345.312 471.55 344.983 472.408C344.614 473.049 343.946 473.477 342.441 473.314C340.317 472.044 340.058 471.265 341.281 470.874L344.152 470.719ZM344.152 470.719L344.153 470.719" stroke="#AB8035" stroke-width="0.181912" stroke-miterlimit="1.5" stroke-linecap="round" stroke-linejoin="round"/>
<path fill-rule="evenodd" clip-rule="evenodd" d="M99.661 461.991C102.971 461.561 103.389 462.377 101.351 464.25C95.8415 465.388 94.0677 467.21 91.853 468.95C89.5187 469.512 89.3093 468.733 90.624 466.992C94.0299 464.806 98.0293 461.837 99.661 461.991Z" fill="#AB8035" stroke="#AB8035" stroke-width="0.181912" stroke-miterlimit="1.5" stroke-linecap="round" stroke-linejoin="round"/>
<path fill-rule="evenodd" clip-rule="evenodd" d="M356.222 481.065C358.08 480.557 358.027 479.883 356.744 479.102C354.188 478.66 352.27 478.977 351.044 480.116C349.448 481.79 349.008 482.916 349.489 483.603C350.704 485.119 351.761 484.643 352.811 484.091C354.403 483.128 354.08 482.289 352.173 481.553C351.149 481.294 351.191 480.921 351.716 480.496C352.485 479.964 354.311 480.473 356.222 481.065H356.222Z" fill="#AB8035" stroke="#AB8035" stroke-width="0.181912" stroke-miterlimit="1.5" stroke-linecap="round" stroke-linejoin="round"/>
<path fill-rule="evenodd" clip-rule="evenodd" d="M312.203 478.836C310.721 479.1 310.801 479.727 311.663 480.537L313.902 481.367C315.269 481.155 315.395 480.44 314.763 479.418L312.203 478.836Z" fill="#AB8035"/>
<path d="M312.203 478.836C310.721 479.1 310.801 479.727 311.663 480.537L313.902 481.367C315.269 481.155 315.395 480.44 314.763 479.418L312.203 478.836ZM312.203 478.836V478.836" stroke="#AB8035" stroke-width="0.181912" stroke-miterlimit="1.5" stroke-linecap="round" stroke-linejoin="round"/>
<path fill-rule="evenodd" clip-rule="evenodd" d="M345.153 485.215C347.458 485.275 348.486 484.744 346.885 482.997C344.853 481.205 342.853 479.18 340.424 480.374C340.149 480.684 339.594 480.694 338.848 480.497C336.556 481.327 335.827 482.167 336.851 483.015C338.713 484.306 340.586 486.123 342.381 484.102C343.164 483.003 343.805 482.549 344.16 483.395C344.038 484.339 343.9 485.295 345.153 485.215L345.153 485.216L345.153 485.215Z" fill="#AB8035" stroke="#AB8035" stroke-width="0.181912" stroke-miterlimit="1.5" stroke-linecap="round" stroke-linejoin="round"/>
<path fill-rule="evenodd" clip-rule="evenodd" d="M321.229 487.767C320.039 488.816 319.761 489.551 320.43 489.958C321.575 490.45 323.192 489.199 324.759 488.13C325.121 486.857 324.925 486.078 323.274 486.588L321.229 487.767Z" fill="#AB8035" stroke="#AB8035" stroke-width="0.181912" stroke-miterlimit="1.5" stroke-linecap="round" stroke-linejoin="round"/>
<path fill-rule="evenodd" clip-rule="evenodd" d="M329.658 479.498C329.811 478.046 330.386 477.692 331.555 478.883C332.218 479.821 332.366 480.852 332.104 481.959C331.829 482.468 334.045 484.202 335.676 485.648C336.181 486.968 336.366 487.961 334.39 486.751C332.721 484.64 330.993 482.65 328.067 483.101C327.076 482.911 326.222 482.581 325.993 481.615C325.699 480.69 326.415 480.6 327.491 480.806C330.123 482.421 331.131 482.292 329.658 479.498V479.498Z" fill="#AB8035" stroke="#AB8035" stroke-width="0.181912" stroke-miterlimit="1.5" stroke-linecap="round" stroke-linejoin="round"/>
<path fill-rule="evenodd" clip-rule="evenodd" d="M264.851 490.854C266.522 489.568 267.008 490.269 267.003 491.796C262.636 496.219 255.339 501.501 257.593 503.982C258.712 505.814 257.922 506.259 255.931 505.831C255.234 505.317 255.047 504.092 255.053 502.594C254.671 501.409 254.067 502.596 253.427 504.187C252.965 506.269 250.341 504.65 252.134 501.053C252.236 500.843 252.579 500.175 254.557 500.085C257.597 499.946 261.293 495.473 264.851 490.854L264.851 490.854Z" fill="#AB8035" stroke="#AB8035" stroke-width="0.181912" stroke-miterlimit="1.5" stroke-linecap="round" stroke-linejoin="round"/>
<path fill-rule="evenodd" clip-rule="evenodd" d="M264.706 495.121C267.101 492.773 267.412 493.748 266.456 496.743C265.662 497.688 265.102 498.522 265.283 499.892C262.552 508.414 260.503 505.538 258.38 503.291C257.07 501.897 261.358 498.327 264.705 495.122L264.706 495.121Z" fill="#AB8035" stroke="#AB8035" stroke-width="0.181912" stroke-miterlimit="1.5" stroke-linecap="round" stroke-linejoin="round"/>
<path fill-rule="evenodd" clip-rule="evenodd" d="M275.605 499.872C273.164 498.553 272.681 499.849 273.396 502.745C275.313 505.459 278.718 503.763 281.932 502.632C283.388 500.506 281.118 498.212 279.741 500.018C278.572 501.691 277.242 502.038 275.605 499.872Z" fill="#AB8035" stroke="#AB8035" stroke-width="0.181912" stroke-miterlimit="1.5" stroke-linecap="round" stroke-linejoin="round"/>
<path fill-rule="evenodd" clip-rule="evenodd" d="M172.4 496.053C171.57 498.231 172.362 499.024 174.765 498.444C175.781 498.013 176.915 497.124 178.247 495.475C178.609 494.743 179.035 494.667 179.534 495.317C179.695 496.752 179.964 497.451 180.296 497.721C181.906 499.074 182.455 497.835 182.858 496.238C182.909 494.526 181.94 493.06 180.033 491.82C178.898 491.002 178.023 491.229 177.236 491.808L172.4 496.053H172.4Z" fill="#AB8035" stroke="#AB8035" stroke-width="0.181912" stroke-miterlimit="1.5" stroke-linecap="round" stroke-linejoin="round"/>
<path fill-rule="evenodd" clip-rule="evenodd" d="M177.495 499.435C175.413 499.761 175.148 500.793 176.65 502.511C178.086 503.86 179.302 503.631 180.367 502.327C181.652 501.094 183.089 501.348 184.547 501.817C189.018 503.01 188.931 501.473 186.962 498.81C185.406 497.997 183.771 497.952 182.049 498.738C180.134 499.791 178.82 499.6 177.495 499.436L177.495 499.435Z" fill="#AB8035" stroke="#AB8035" stroke-width="0.181912" stroke-miterlimit="1.5" stroke-linecap="round" stroke-linejoin="round"/>
<path fill-rule="evenodd" clip-rule="evenodd" d="M188.862 500.098C188.286 498.698 188.919 498.348 190.352 498.691C191.998 499.571 193.3 500.555 194.237 501.649C194.609 503.222 193.977 503.621 192.492 503.02C191.479 501.846 190.293 500.848 188.862 500.098L188.862 500.098Z" fill="#AB8035" stroke="#AB8035" stroke-width="0.181912" stroke-miterlimit="1.5" stroke-linecap="round" stroke-linejoin="round"/>
<path fill-rule="evenodd" clip-rule="evenodd" d="M192.205 504.807C191.475 504.77 190.889 504.901 190.705 505.501C190.636 506.413 190.955 506.82 191.689 506.683L193.278 506.274C193.603 505.32 193.182 504.873 192.205 504.807Z" fill="#AB8035" stroke="#AB8035" stroke-width="0.181912" stroke-miterlimit="1.5" stroke-linecap="round" stroke-linejoin="round"/>
<path fill-rule="evenodd" clip-rule="evenodd" d="M215.396 501.283C216.931 503.135 216.196 503.569 214.155 503.186C207.434 501.404 203.566 498.302 201.223 494.494C200.848 492.589 201.492 492.346 203.305 494.014C205.269 496.841 206.927 498.072 208.479 498.746C209.074 499.017 209.334 498.847 208.961 498.344C205.15 493.771 207.3 491.111 212.613 489.468C215.78 488.817 220.791 489.005 227.015 489.743C229.171 490.466 229.215 492.747 227.528 492.29C226.485 492.135 225.668 492.184 225.45 492.776C225.733 495.219 224.301 495.299 222.751 495.216C221.86 495.047 221.963 494.091 222.951 492.435C223.452 491.849 223.796 491.331 222.536 491.496C216.941 491.451 214.29 492.058 215.797 493.648C217.949 497.601 215.838 498.334 213.34 496.161C212.342 495.049 211.961 493.977 213.312 493.019C213.832 492.542 213.175 492.034 212.281 492.188C208.203 493.978 207.845 496.67 215.397 501.282L215.396 501.283H215.396Z" fill="#AB8035" stroke="#AB8035" stroke-width="0.181912" stroke-miterlimit="1.5" stroke-linecap="round" stroke-linejoin="round"/>
<path fill-rule="evenodd" clip-rule="evenodd" d="M218.216 501.151C217.956 498.782 218.781 497.965 221.186 499.406C222.22 500.562 223.174 500.6 224.086 500.063L230.499 493.331C231.979 491.76 232.734 492.36 232.967 494.523C233.538 495.113 229.055 499.297 224.902 503.247C224.261 503.621 223.61 503.807 222.923 503.366C222.013 502.641 221.898 503.493 222.224 505.22C221.519 505.281 220.874 505.261 220.291 505.157C219.736 505.057 219.237 504.88 218.798 504.623L218.216 501.151H218.216Z" fill="#AB8035" stroke="#AB8035" stroke-width="0.181912" stroke-miterlimit="1.5" stroke-linecap="round" stroke-linejoin="round"/>
<path fill-rule="evenodd" clip-rule="evenodd" d="M236.37 502.853C234.17 503.485 231.942 504.159 230.276 503.991C229.657 503.806 229.563 503.563 230.355 503.224C233.235 503.006 235.52 500.849 237.371 497.28C237.809 496.685 237.915 496.281 237.475 496.192C236.33 495.487 234.992 494.775 235.047 494.118C234.649 491.679 235.432 491.305 236.787 491.932C237.903 493.464 239.15 495.446 239.72 495.115C241.146 495.013 241.568 495.178 241.873 495.375C244.618 497.419 245.427 498.604 243.791 498.705C241.888 498.331 240.093 498.322 238.809 500.014L236.37 502.853H236.37Z" fill="#AB8035" stroke="#AB8035" stroke-width="0.181912" stroke-miterlimit="1.5" stroke-linecap="round" stroke-linejoin="round"/>
<path fill-rule="evenodd" clip-rule="evenodd" d="M246.413 492.172C245.041 492.322 244.759 492.933 245.13 493.819C245.557 494.488 246.382 494.857 247.379 495.098C248.947 495.336 249.413 494.76 248.898 493.455C248.77 492.991 247.799 492.57 246.413 492.172Z" fill="#AB8035" stroke="#AB8035" stroke-width="0.181912" stroke-miterlimit="1.5" stroke-linecap="round" stroke-linejoin="round"/>
<path fill-rule="evenodd" clip-rule="evenodd" d="M158.193 501.848C157.466 503.046 157.935 503.589 159.952 503.286C161.27 502.354 162.274 502.382 162.971 503.354C165.05 504.477 165.184 503.433 164.616 501.608C162.967 499.704 160.891 499.473 158.193 501.848Z" fill="#AB8035" stroke="#AB8035" stroke-width="0.181912" stroke-miterlimit="1.5" stroke-linecap="round" stroke-linejoin="round"/>
<path fill-rule="evenodd" clip-rule="evenodd" d="M148.059 485.424C147.247 482.819 148.677 483.32 150.828 484.819C151.916 486.111 151.498 487.325 148.946 488.427C147.781 488.761 147.881 489.378 148.816 490.181C149.875 491.526 151.502 491.501 153.639 490.245L157.763 486.72C160.839 484.283 162.252 486.105 162.99 489.656C162.791 490.577 162.238 491.1 159.645 489.326C159.127 488.998 158.668 488.844 158.451 489.393C155.391 492.843 152.041 494.726 147.915 492.396C144.798 490.377 143.749 488.73 146.8 487.821C148.637 487.227 148.85 486.398 148.059 485.424V485.424Z" fill="#AB8035" stroke="#AB8035" stroke-width="0.181912" stroke-miterlimit="1.5" stroke-linecap="round" stroke-linejoin="round"/>
<path fill-rule="evenodd" clip-rule="evenodd" d="M138.762 486.833C138.466 488.54 139.119 488.596 140.343 487.656C140.954 487.156 141.441 486.602 141.618 485.912C141.693 484.662 141.097 484.433 140.019 484.937C139.137 485.714 138.921 486.283 138.762 486.833Z" fill="#AB8035" stroke="#AB8035" stroke-width="0.181912" stroke-miterlimit="1.5" stroke-linecap="round" stroke-linejoin="round"/>
<path fill-rule="evenodd" clip-rule="evenodd" d="M131.837 481.266C130.676 481.102 130.275 481.44 130.956 482.495L135.28 486.696C137.094 487.516 137.684 487.175 136.718 485.357C136.39 484.89 135.953 484.485 135.335 484.183C134.333 483.621 134.45 483.27 136.09 483.207L140.117 483.605C142.823 483.175 141.833 481.744 139.663 481.685L131.837 481.265V481.266Z" fill="#AB8035" stroke="#AB8035" stroke-width="0.181912" stroke-miterlimit="1.5" stroke-linecap="round" stroke-linejoin="round"/>
<path fill-rule="evenodd" clip-rule="evenodd" d="M141.483 490.558C141.938 488.734 142.981 489.126 144.411 490.977C147.693 494.818 144.458 495.142 138.845 494.183C135.01 493.191 132.207 489.387 129.557 485.165C129.068 484.274 128.518 483.971 127.931 484.015C124.991 483.045 124.76 480.847 125.451 478.232C125.99 477.592 126.615 477.504 127.42 478.569C127.357 480.308 127.609 481.426 128.384 481.517C129.21 481.273 129.803 481.543 130.166 482.323C134.991 489.055 139.517 494.652 141.483 490.558Z" fill="#AB8035" stroke="#AB8035" stroke-width="0.181912" stroke-miterlimit="1.5" stroke-linecap="round" stroke-linejoin="round"/>
<path fill-rule="evenodd" clip-rule="evenodd" d="M166.808 497.26L166.631 502.114C166.612 503.72 167.188 504.464 168.604 503.99L173.043 503.201C172.536 499.285 170.158 497.674 166.808 497.26Z" fill="#AB8035" stroke="#AB8035" stroke-width="0.181912" stroke-miterlimit="1.5" stroke-linecap="round" stroke-linejoin="round"/>
<path fill-rule="evenodd" clip-rule="evenodd" d="M268.25 499.091C267.693 497.845 268.318 497.379 270.272 497.791C271.89 498.575 272.228 500.033 271.669 501.963C270.952 503.374 269.959 503.734 269.649 502.006C269.722 500.454 269.45 499.274 268.25 499.091L268.25 499.091Z" fill="#AB8035" stroke="#AB8035" stroke-width="0.181912" stroke-miterlimit="1.5" stroke-linecap="round" stroke-linejoin="round"/>
<path fill-rule="evenodd" clip-rule="evenodd" d="M267.632 501.615C266.41 500.682 266.089 501.463 266.142 502.955C266.364 504.081 267.064 504.475 267.804 504.808C269.613 505.086 269.93 504.601 269.201 503.58L267.632 501.615Z" fill="#AB8035" stroke="#AB8035" stroke-width="0.181912" stroke-miterlimit="1.5" stroke-linecap="round" stroke-linejoin="round"/>
<path fill-rule="evenodd" clip-rule="evenodd" d="M285.333 489.358C286.33 491.158 285.698 491.97 283.141 491.613C278.934 490.036 277.305 488.22 282.945 485.729C286.429 484.719 288.557 485.162 289.443 486.937C290.821 490.04 293.027 492.284 296.552 493.161C298.358 494.339 297.963 495.03 295.962 495.364C292.766 493.93 289.417 492.704 287.933 488.957C286.346 487.054 284.825 488.151 285.333 489.357L285.333 489.358Z" fill="#AB8035" stroke="#AB8035" stroke-width="0.181912" stroke-miterlimit="1.5" stroke-linecap="round" stroke-linejoin="round"/>
<path fill-rule="evenodd" clip-rule="evenodd" d="M296.777 484.763C296.716 483.907 296.277 483.493 295.052 483.996C292.432 485.817 293.139 487.065 294.289 488.237C296.088 489.771 297.635 490.736 298.968 491.218C299.841 491.298 300.266 491.597 299.741 492.361C299.328 493.794 299.998 494.119 301.533 493.561C303.171 493.128 306.984 489.261 310.684 485.573C312.078 482.434 311.053 480.663 307.182 480.502C305.731 480.639 304.08 481.584 302.017 482.941C300.167 483.917 300 484.777 301.559 485.521C302.966 485.715 303.503 486.108 302.656 486.818C300.068 487.532 300.389 488.234 301.022 488.934C301.927 490.191 301.238 490.202 299.624 489.491C297.13 488.561 293.925 486.873 295.846 485.751L296.777 484.763Z" fill="#AB8035" stroke="#AB8035" stroke-width="0.181912" stroke-miterlimit="1.5" stroke-linecap="round" stroke-linejoin="round"/>
<path fill-rule="evenodd" clip-rule="evenodd" d="M310.437 490.306C310.051 492.454 310.916 492.139 312.549 490.312C315.07 485.814 317.287 479.441 320.314 478.064C321.824 477.044 322.106 476.32 320.035 476.165C317.781 475.597 313.87 484.288 310.436 490.307" fill="#AB8035"/>
<path d="M310.437 490.306C310.051 492.454 310.916 492.139 312.549 490.312C315.07 485.814 317.287 479.441 320.314 478.064C321.824 477.044 322.106 476.32 320.035 476.165C317.781 475.597 313.87 484.288 310.436 490.307" stroke="#AB8035" stroke-width="0.181912" stroke-miterlimit="1.5" stroke-linecap="round" stroke-linejoin="round"/>
<path fill-rule="evenodd" clip-rule="evenodd" d="M172.307 302.993C207.954 309.666 241.768 309.091 272.627 302.645L272.414 314.095C239.15 327.531 205.617 327.762 172.503 314.573L172.307 302.993Z" fill="url(#paint10_linear_3915_22024)" stroke="#24211C" stroke-width="0.56786" stroke-miterlimit="1.5" stroke-linecap="round" stroke-linejoin="round"/>
<path fill-rule="evenodd" clip-rule="evenodd" d="M178.147 308.133C175.524 308.753 174.733 309.709 177.648 311.346C207.593 321.499 238.498 320.685 270.207 310.666C272.267 309.025 272.122 308.12 270.35 307.756C239.181 318.839 208.446 318.983 178.147 308.133Z" fill="#1E1B12" stroke="#1E1B12" stroke-width="0.181912" stroke-miterlimit="1.5" stroke-linecap="round" stroke-linejoin="round"/>
<path fill-rule="evenodd" clip-rule="evenodd" d="M341.708 452.049C366.085 472.184 363.041 478.934 329.623 472.629C325.924 472.214 323.443 473.325 322.588 475.213C313.103 502.623 293.129 502.121 267.663 487.003C265.69 485.736 263.845 485.848 262.134 487.401C237.679 511.623 210.831 510.985 181.861 488.319C179.505 486.575 176.967 486.832 174.832 487.763C148.132 503.711 129.169 501.767 119.137 474.784C118.471 473.823 117.436 473.418 115.935 473.714C89.2755 477.449 78.5485 471.033 102.357 453.081C103.794 451.278 103.909 451.683 102.703 451.885C75.0764 467.404 84.0887 484.215 115.302 477.04C127.5 505.347 148.871 505.77 179.058 489.26C208.128 515.513 236.349 514.107 265.377 488.719C292.843 507.984 314.591 506.16 326.673 475.899C360.578 480.984 380.178 474.165 341.709 452.049L341.709 452.049L341.708 452.049Z" fill="#AB8035" stroke="#AB8035" stroke-width="0.181912" stroke-miterlimit="1.5" stroke-linecap="round" stroke-linejoin="round"/>
<path fill-rule="evenodd" clip-rule="evenodd" d="M193.237 405.758C189.478 437.403 170.874 445.057 144.14 447.086C97.5531 449.386 104.345 464.109 143.138 472.755C204.603 486.014 262.447 480.969 317.331 466.851C334.821 461.676 330.219 450.44 316.634 449.948C276.021 449.411 251.599 437.901 251.818 404.461C232.387 410.238 212.861 410.789 193.237 405.758Z" fill="#1F4758" stroke="#1F4758" stroke-width="0.181912" stroke-miterlimit="1.5" stroke-linecap="round" stroke-linejoin="round"/>
<path fill-rule="evenodd" clip-rule="evenodd" d="M138.353 447.487C123.784 451.334 124.574 457.912 135.237 465.394C158.141 477.585 209.803 472.601 217.083 443.012C218.254 436.862 217.642 428.134 216.814 420.519C213.874 412.045 205.461 408.474 194.62 407.08C191.361 444.54 173.763 455.714 148.945 453.65C142.405 452.114 142.08 449.717 148.768 446.667" fill="url(#paint11_linear_3915_22024)"/>
<path fill-rule="evenodd" clip-rule="evenodd" d="M230.866 411.623C219.351 419.241 220.673 442.818 231.016 457.825C245.255 474.114 273.041 475.51 311.761 464.884C318.269 459.583 316.093 448.85 306.673 451.419C269.068 460.855 251.586 447.064 248.493 407.154C242.219 407.204 236.034 408.737 230.866 411.623Z" fill="#BD944A"/>
<path fill-rule="evenodd" clip-rule="evenodd" d="M230.866 411.623C219.351 419.241 220.673 442.818 231.016 457.825C245.255 474.114 273.041 475.51 311.761 464.884C318.269 459.583 316.093 448.85 306.673 451.419C269.068 460.855 251.586 447.064 248.493 407.154C242.219 407.204 236.034 408.737 230.866 411.623Z" fill="url(#paint12_linear_3915_22024)"/>
<path fill-rule="evenodd" clip-rule="evenodd" d="M245.484 410.164C243.717 448.4 263.236 462.246 296.879 459.91C266.545 465.788 235.271 467.094 230.561 440.252C228.884 433.339 228.597 422.916 230.788 419.276C234.359 413.814 239.405 411.046 245.484 410.164Z" fill="#1F4758" stroke="#1F4758" stroke-width="0.181912" stroke-miterlimit="1.5" stroke-linecap="round" stroke-linejoin="round"/>
<path fill-rule="evenodd" clip-rule="evenodd" d="M159.221 461.018C189.801 465.727 210.189 457.434 212.598 426.204C212.185 417.618 207.591 412.988 200.274 410.936C196.967 446.592 181.68 458.584 159.221 461.018Z" fill="#1F4758" stroke="#1F4758" stroke-width="0.181912" stroke-miterlimit="1.5" stroke-linecap="round" stroke-linejoin="round"/>
<path fill-rule="evenodd" clip-rule="evenodd" d="M199.623 435.979C198.236 435.984 196.993 436.324 196.518 438.448C198.469 442.213 199.988 446.224 201.087 450.473C204.06 447.809 206.271 444.682 207.486 440.95C205.683 438.541 203.002 436.94 199.623 435.979Z" fill="#976D21"/>
<path fill-rule="evenodd" clip-rule="evenodd" d="M233.389 440.948C234.226 445.541 236.156 448.593 238.663 450.836L244.864 440.16C245.289 437.914 244.695 436.579 242.078 437.052L233.389 440.948Z" fill="#7E5C1F"/>
<path fill-rule="evenodd" clip-rule="evenodd" d="M206.016 417.084L201.691 423.258C201.571 426.54 203.405 428.305 206.595 429.018L211.754 424.48C210.631 420.962 208.723 418.492 206.016 417.084Z" fill="#976D21"/>
<path fill-rule="evenodd" clip-rule="evenodd" d="M236.764 417.592C232.812 419.385 231.619 422.541 232.263 426.605L238.615 425.174C240.02 424.577 240.517 423.633 239.811 422.23L236.764 417.592Z" fill="#7E5C1F"/>
<path d="M194.041 323.965L193.378 341.254" stroke="black" stroke-width="0.717815" stroke-miterlimit="1.5" stroke-linecap="round" stroke-linejoin="round"/>
<path d="M198.361 325.439L198.233 342.953" stroke="black" stroke-width="0.717815" stroke-miterlimit="1.5" stroke-linecap="round" stroke-linejoin="round"/>
<path d="M202.533 326.248L202.151 343.512" stroke="black" stroke-width="0.717815" stroke-miterlimit="1.5" stroke-linecap="round" stroke-linejoin="round"/>
<path d="M206.211 326.969L206.172 344.141" stroke="black" stroke-width="0.717815" stroke-miterlimit="1.5" stroke-linecap="round" stroke-linejoin="round"/>
<path d="M211.311 327.816L211.532 346.206" stroke="black" stroke-width="0.717815" stroke-miterlimit="1.5" stroke-linecap="round" stroke-linejoin="round"/>
<path d="M215.965 328.205L216.178 346.381" stroke="black" stroke-width="0.717815" stroke-miterlimit="1.5" stroke-linecap="round" stroke-linejoin="round"/>
<path d="M221.521 328.414L221.713 346.489" stroke="black" stroke-width="0.717815" stroke-miterlimit="1.5" stroke-linecap="round" stroke-linejoin="round"/>
<path d="M226.114 328.346L226.428 346.057" stroke="black" stroke-width="0.717815" stroke-miterlimit="1.5" stroke-linecap="round" stroke-linejoin="round"/>
<path d="M232.634 328.121L233.051 345.085" stroke="black" stroke-width="0.717815" stroke-miterlimit="1.5" stroke-linecap="round" stroke-linejoin="round"/>
<path d="M238.607 327.123L238.602 344.201" stroke="black" stroke-width="0.717815" stroke-miterlimit="1.5" stroke-linecap="round" stroke-linejoin="round"/>
<path d="M243.458 326.598L243.822 343.252" stroke="black" stroke-width="0.717815" stroke-miterlimit="1.5" stroke-linecap="round" stroke-linejoin="round"/>
<path d="M248.37 325.004L248.01 340.8" stroke="black" stroke-width="0.717815" stroke-miterlimit="1.5" stroke-linecap="round" stroke-linejoin="round"/>
<path fill-rule="evenodd" clip-rule="evenodd" d="M222.827 462.24L212.368 468.658C216.665 470.156 220.727 472.198 224.526 474.85C226.925 472.23 229.658 470.153 232.842 468.81L222.827 462.24Z" fill="#976D21"/>
<path d="M221.815 392.97C232.155 392.97 240.538 385.321 240.538 375.886C240.538 366.451 232.155 358.803 221.815 358.803C211.474 358.803 203.091 366.451 203.091 375.886C203.091 385.321 211.474 392.97 221.815 392.97Z" fill="#BD944A" stroke="#BD944A" stroke-width="0.378574" stroke-miterlimit="1.5" stroke-linecap="round" stroke-linejoin="round"/>
<path d="M195.161 389.299C204.659 389.299 212.358 381.803 212.358 372.556C212.358 363.309 204.659 355.812 195.161 355.812C185.664 355.812 177.964 363.309 177.964 372.556C177.964 381.803 185.664 389.299 195.161 389.299Z" fill="#BD944A" stroke="#BD944A" stroke-width="0.378574" stroke-miterlimit="1.5" stroke-linecap="round" stroke-linejoin="round"/>
<path d="M249.111 388.084C258.644 388.084 266.372 380.833 266.372 371.888C266.372 362.943 258.644 355.691 249.111 355.691C239.578 355.691 231.85 362.943 231.85 371.888C231.85 380.833 239.578 388.084 249.111 388.084Z" fill="#BD944A" stroke="#BD944A" stroke-width="0.378574" stroke-miterlimit="1.5" stroke-linecap="round" stroke-linejoin="round"/>
<path d="M139.215 104.262C146.069 104.262 151.625 98.8206 151.625 92.1085C151.625 85.3964 146.069 79.9551 139.215 79.9551C132.361 79.9551 126.804 85.3964 126.804 92.1085C126.804 98.8206 132.361 104.262 139.215 104.262Z" fill="#1F4758" stroke="#1F4758" stroke-width="0.378574" stroke-miterlimit="1.5" stroke-linecap="round" stroke-linejoin="round"/>
<path d="M75.8621 97.2431C81.056 97.2431 85.2666 92.468 85.2666 86.5776C85.2666 80.6872 81.056 75.9121 75.8621 75.9121C70.6681 75.9121 66.4575 80.6872 66.4575 86.5776C66.4575 92.468 70.6681 97.2431 75.8621 97.2431Z" fill="#1F4758" stroke="#1F4758" stroke-width="0.378574" stroke-miterlimit="1.5" stroke-linecap="round" stroke-linejoin="round"/>
<path d="M222.281 107.098C229.134 107.098 234.691 101.657 234.691 94.9444C234.691 88.2323 229.134 82.791 222.281 82.791C215.427 82.791 209.871 88.2323 209.871 94.9444C209.871 101.657 215.427 107.098 222.281 107.098Z" fill="#1F4758" stroke="#1F4758" stroke-width="0.378574" stroke-miterlimit="1.5" stroke-linecap="round" stroke-linejoin="round"/>
<path d="M221.636 386.901C227.898 386.901 232.975 381.84 232.975 375.597C232.975 369.354 227.898 364.293 221.636 364.293C215.374 364.293 210.297 369.354 210.297 375.597C210.297 381.84 215.374 386.901 221.636 386.901Z" fill="#1F4758" stroke="#1F4758" stroke-width="0.378574" stroke-miterlimit="1.5" stroke-linecap="round" stroke-linejoin="round"/>
<path d="M195.779 383.954C202.743 383.954 208.388 378.363 208.388 371.467C208.388 364.571 202.743 358.98 195.779 358.98C188.815 358.98 183.17 364.571 183.17 371.467C183.17 378.363 188.815 383.954 195.779 383.954Z" fill="#1F4758" stroke="#1F4758" stroke-width="0.378574" stroke-miterlimit="1.5" stroke-linecap="round" stroke-linejoin="round"/>
<path d="M248.793 382.458C255.27 382.458 260.52 377.251 260.52 370.827C260.52 364.403 255.27 359.195 248.793 359.195C242.317 359.195 237.066 364.403 237.066 370.827C237.066 377.251 242.317 382.458 248.793 382.458Z" fill="#1F4758" stroke="#1F4758" stroke-width="0.378574" stroke-miterlimit="1.5" stroke-linecap="round" stroke-linejoin="round"/>
<path d="M303.532 102.962C310.204 102.962 315.613 97.7786 315.613 91.3851C315.613 84.9916 310.204 79.8086 303.532 79.8086C296.861 79.8086 291.452 84.9916 291.452 91.3851C291.452 97.7786 296.861 102.962 303.532 102.962Z" fill="#1F4758" stroke="#1F4758" stroke-width="0.378574" stroke-miterlimit="1.5" stroke-linecap="round" stroke-linejoin="round"/>
<path d="M363.713 98.758C369.195 98.758 373.639 93.6599 373.639 87.3712C373.639 81.0824 369.195 75.9844 363.713 75.9844C358.231 75.9844 353.787 81.0824 353.787 87.3712C353.787 93.6599 358.231 98.758 363.713 98.758Z" fill="#1F4758" stroke="#1F4758" stroke-width="0.378574" stroke-miterlimit="1.5" stroke-linecap="round" stroke-linejoin="round"/>
<path fill-rule="evenodd" clip-rule="evenodd" d="M442.871 26.5885C436.007 18.7236 421.529 14.9946 394.425 11.2453C262.887 -5.44033 148.677 -1.41832 42.9981 12.2041C21.9235 15.2474 4.90995 18.9209 2.05628 25.7537C0.896795 32.8567 8.39665 37.8854 8.66212 38.1334C40.1037 67.5349 373.503 75.3138 435.578 41.7141C442.306 38.7974 444.798 33.7854 442.871 26.5878V26.5881L442.871 26.5885Z" fill="#977323" stroke="#24211C" stroke-width="0.56786" stroke-miterlimit="1.5" stroke-linecap="round" stroke-linejoin="round"/>
<path fill-rule="evenodd" clip-rule="evenodd" d="M233.496 301.902L227.546 301.224C232.401 291.834 240.136 284.076 250.926 278.049C256.656 273.933 260.836 269.155 263.514 263.736C265.088 267.996 264.916 272.185 261.804 276.259C270.733 277.002 282.087 272.246 283.881 257.449C284.925 248.83 286.658 245.994 288.336 243.271C297.715 254.029 291.43 264.444 280.795 274.764C290.694 269.192 309.394 251.877 311.504 242.872C313.005 239.57 307.15 230.715 300.766 224.348C305.799 222.042 308.158 219.932 304.605 214.82C302.92 212.569 302.52 207.941 303.569 200.638C308.606 203.276 314.168 210.332 320.173 221.135C321.975 219.941 323.309 218.136 324.396 216.009C327.935 227.414 321.142 241.651 309.31 257.271C324.156 246.654 344.216 228.339 341.051 209.725C336.495 192.56 325.563 185.754 311.147 187.007C322.34 174.735 344.624 179.127 348.508 205.446C352.49 186.717 350.457 170.995 334.963 162.002C321.066 158.975 310.977 164.635 303.56 176.393C298.699 171.67 300.175 165.199 307.301 157.854C288.032 153.913 279.798 145.197 287.977 129.38C293.271 142.771 303.339 148.045 319.16 148.198C308.358 138.9 308.697 133.2 315.992 129.746C314.724 136.633 325.506 145.292 341.19 154.673C338.61 137.011 345.173 127.65 361.535 126.634C364.45 126.726 365.291 127.883 365.494 129.683C348.393 138.521 350.51 154.006 356.2 170.727C359.928 187.471 358.579 202.76 354.742 217.338C362.757 206.979 365.624 194.912 370.072 176.692C375.881 160.649 380.087 144.072 379.327 125.841C385.803 138.644 394.245 135.272 404.05 120.701C399.67 131.49 398.775 141.58 403.033 150.636C389.537 150.902 383.891 160.711 382.383 173.053C388.307 169.137 395.342 172.261 401.511 178.632C384.041 182.067 372.805 192.146 366.353 208.559C373.219 204.68 379.805 207.049 386.05 216.98C371.675 214.974 361.504 219.73 345.478 236.044C352.39 238.536 357.485 242.425 361.103 247.451C345.518 244.809 330.67 250.031 316.524 262.749C327.048 261.043 333.124 264.422 335.988 271.473C320.284 266.194 303.448 269.543 286.022 277.381C294.397 279.725 296.244 284.894 294.366 291.673C283.255 275.741 245.938 283.124 233.495 301.901L233.496 301.902Z" fill="url(#paint13_linear_3915_22024)" stroke="#24211C" stroke-width="0.56786" stroke-miterlimit="1.5" stroke-linecap="round" stroke-linejoin="round"/>
<path fill-rule="evenodd" clip-rule="evenodd" d="M211.298 302.975C210.161 295.694 206.871 288.891 202.123 282.413C191.624 275.993 185.762 269.031 184.733 261.504C181.134 265.293 180.369 270.247 186.591 278.073C171.29 275.477 159.967 265.579 155.812 242.517C146.523 249.681 148.396 259.034 158.214 269.943C140.184 259.978 129.279 248.85 131.822 235.531C133.211 229.272 136.06 223.327 140.781 217.782C142.393 213.049 141.759 207.95 139.528 202.592C129.339 208.062 125.302 215.77 123.666 224.351C123.425 221.016 122.707 218 119.782 216.453C115.355 220.299 114.567 226.247 120.29 234.458C123.018 239.013 125.252 244.094 127.386 249.284C111.091 237.637 99.8174 224.457 100.908 207.501C106.377 193.013 116.768 187.689 131.655 190.735C131.394 182.185 126.143 177.943 112.505 180.943C100.707 186.173 96.0592 193.018 96.4062 200.99C95.7504 208.159 94.8178 211.068 93.8247 213.046C87.2021 200.488 89.1262 187.193 97.3357 173.357C110.803 155 133.621 163.007 141.631 181.378C145.427 170.107 144.171 161.176 134.537 156.125C154.408 154.802 166.462 138.202 154.499 130.037C147.626 142.035 135.119 148.619 116.196 151.064C129.985 145.393 134.43 138.401 129.185 129.677C126.455 136.16 122.138 141.952 112.326 147.353C108.447 149.489 105.427 153.509 102.268 156.119C108.477 137.354 100.228 127.698 79.9464 125.622C81.2143 131.351 84.0556 134.766 89.3352 138.583C95.8061 143.262 91.6684 156.123 87.6732 164.127C80.0432 181.29 81.534 198.699 87.9387 216.241C76.9678 213.213 64.9351 151.136 65.1493 145.951C64.8199 140.445 68.1694 134.095 73.3435 126.541C62.8505 129.84 56.9533 136.709 56.5386 147.836C49.8531 141.661 41.9461 118.771 43.2772 118.189C40.5955 124.173 39.0573 130.557 39.1223 137.188C39.918 145.166 41.7629 149.763 43.8579 152.021L57.4573 164.657C59.7161 167.571 61.221 170.773 60.2186 174.936C49.2795 164.841 41.6922 164.503 38.3569 176.543C50.6488 178.124 61.8799 192.381 72.5692 208.187C60.6172 207.869 53.658 209.392 55.9632 216.22C68.6768 215.536 83.6391 222.715 100.739 237.366C88.5081 237.668 80.7914 240.697 77.7564 246.553C94.3632 245.765 109.982 249.388 124.082 259.797C113.136 260.744 106.234 264.92 104.269 270.662C116.509 268.176 128.422 267.29 139.791 271.926C145.839 274.632 151.991 276.377 158.202 277.571C146.83 280.808 142.447 285.58 143.421 291.526C171.028 280.629 200.225 283.223 206.57 302.393C207.079 303.93 211.298 302.975 211.298 302.975V302.976L211.298 302.975Z" fill="url(#paint14_linear_3915_22024)" stroke="#24211C" stroke-width="0.56786" stroke-miterlimit="1.5" stroke-linecap="round" stroke-linejoin="round"/>
<path d="M4.45557 45.8262C54.0612 85.7434 375.278 82.3495 437.751 49.1624" stroke="black" stroke-width="0.181912" stroke-miterlimit="1.5" stroke-linecap="round" stroke-linejoin="round"/>
<path d="M6.69971 51.332C56.6138 88.7533 373.023 85.693 435.168 55.1669" stroke="black" stroke-width="0.181912" stroke-miterlimit="1.5" stroke-linecap="round" stroke-linejoin="round"/>
<path fill-rule="evenodd" clip-rule="evenodd" d="M417.296 26.8896C411.231 21.0268 399.437 18.4946 375.487 15.6993C269.547 3.50459 166.125 5.77071 64.1565 16.0449C45.5336 18.314 30.2801 21.1741 27.7584 26.2677C26.7339 31.5625 33.3611 35.3115 33.5955 35.4964C61.3795 57.4142 355.997 63.2131 410.852 38.1654C416.797 35.9911 418.999 32.2548 417.296 26.8896Z" fill="url(#paint15_linear_3915_22024)"/>
<path d="M417.296 26.8896C411.231 21.0268 399.437 18.4946 375.487 15.6993C269.547 3.50459 166.125 5.77071 64.1565 16.0449C45.5336 18.314 30.2801 21.1741 27.7584 26.2677C26.7339 31.5625 33.3611 35.3115 33.5955 35.4964C61.3795 57.4142 355.997 63.2131 410.852 38.1654C416.797 35.9911 418.999 32.2548 417.296 26.8896ZM417.296 26.8896L417.296 26.89" stroke="#24211C" stroke-width="0.181912" stroke-miterlimit="1.5" stroke-linecap="round" stroke-linejoin="round"/>
<path fill-rule="evenodd" clip-rule="evenodd" d="M18.7799 96.676C15.1989 92.5096 15.6723 89.1364 19.6017 86.4395C33.5238 104.019 144.608 114.579 223.058 112.33C309.264 115.224 426.342 102.014 425.135 88.5072C431.202 90.6207 430.66 94.907 425.194 100.697C387.013 118.766 294.731 123.46 222.973 122.56C142.74 124.283 42.7728 113.333 18.7802 96.676H18.7799Z" fill="url(#paint16_linear_3915_22024)" stroke="#24211C" stroke-width="0.56786" stroke-miterlimit="1.5" stroke-linecap="round" stroke-linejoin="round"/>
<path fill-rule="evenodd" clip-rule="evenodd" d="M7.28686 52.1171L4.38721 45.916C24.0077 66.1254 109.862 73.3368 221.63 75.1195C310.554 73.8322 391.834 69.1585 437.687 49.694C437.432 51.6007 436.246 53.2605 435.29 55.2249C395.155 70.184 324.003 77.9738 221.479 78.5123C131.366 77.1818 44.6302 74.5041 7.28612 52.1167H7.28649L7.28686 52.1171Z" fill="#8A6522" stroke="#24211C" stroke-width="0.56786" stroke-miterlimit="1.5" stroke-linecap="round" stroke-linejoin="round"/>
<g clip-path="url(#clip0_3915_22024)">
<path d="M220.257 134.548C220.559 134.39 220.892 134.729 220.708 135.034L182.553 198.069C182.43 198.272 182.148 198.292 181.998 198.114C180.338 196.134 176.426 190.945 174.84 184.355C173.262 177.8 173.977 169.844 181.58 162.22C195.656 148.106 213.6 138.033 220.257 134.548Z" fill="#FFFBF6" stroke="#3F3F3F"/>
<path d="M166.201 182.314C166.326 181.977 166.838 182.031 166.864 182.416C167.189 187.083 169.287 192.102 171.755 196.723C174.222 201.341 177.109 205.647 179.021 208.822C182.94 215.333 211.279 258.65 219.796 271.657C220.009 271.983 219.615 272.344 219.312 272.131L218.525 271.577V271.578L187.437 249.729C167.517 235.729 158.345 210.734 164.66 187.182C165.16 185.316 165.697 183.682 166.201 182.314Z" fill="#FFFBF6" stroke="#3F3F3F"/>
<path d="M262.849 208.645C262.972 208.442 263.255 208.422 263.405 208.601V208.6C265.065 210.579 268.976 215.769 270.562 222.358C272.14 228.914 271.425 236.87 263.822 244.494C249.746 258.608 231.803 268.683 225.146 272.167C224.845 272.325 224.51 271.985 224.694 271.68L262.849 208.645Z" fill="#FFFBF6" stroke="#3F3F3F"/>
<path d="M225.647 135.047C225.447 134.742 225.78 134.405 226.073 134.54L226.13 134.573L258.007 156.976C277.927 170.975 287.098 195.97 280.784 219.523C280.283 221.389 279.746 223.022 279.243 224.39C279.125 224.707 278.668 224.678 278.589 224.356L278.579 224.289L278.543 223.85C278.123 219.308 276.08 214.457 273.689 209.981C271.222 205.363 268.335 201.057 266.423 197.882C262.504 191.371 234.164 148.054 225.647 135.047Z" fill="#FFFBF6" stroke="#3F3F3F"/>
</g>
<defs>
<linearGradient id="paint0_linear_3915_22024" x1="69.6152" y1="489.748" x2="375.912" y2="489.748" gradientUnits="userSpaceOnUse">
<stop stop-color="#B2822A"/>
<stop offset="0.697115" stop-color="#8A6522"/>
</linearGradient>
<linearGradient id="paint1_linear_3915_22024" x1="77.5317" y1="484.141" x2="368.325" y2="484.141" gradientUnits="userSpaceOnUse">
<stop stop-color="#B2822A"/>
<stop offset="0.697115" stop-color="#8A6522"/>
</linearGradient>
<linearGradient id="paint2_linear_3915_22024" x1="102.096" y1="463.206" x2="339.683" y2="463.206" gradientUnits="userSpaceOnUse">
<stop stop-color="#B2822A"/>
<stop offset="0.697115" stop-color="#8A6522"/>
</linearGradient>
<linearGradient id="paint3_linear_3915_22024" x1="107.499" y1="442.198" x2="335.167" y2="442.198" gradientUnits="userSpaceOnUse">
<stop stop-color="#B2822A"/>
<stop offset="0.697115" stop-color="#8A6522"/>
</linearGradient>
<linearGradient id="paint4_linear_3915_22024" x1="180.688" y1="396.928" x2="262.006" y2="396.928" gradientUnits="userSpaceOnUse">
<stop stop-color="#B2822A"/>
<stop offset="0.697115" stop-color="#8A6522"/>
</linearGradient>
<linearGradient id="paint5_linear_3915_22024" x1="172.392" y1="373.026" x2="271.045" y2="373.026" gradientUnits="userSpaceOnUse">
<stop stop-color="#B2822A"/>
<stop offset="0.697115" stop-color="#8A6522"/>
</linearGradient>
<linearGradient id="paint6_linear_3915_22024" x1="179.309" y1="348.466" x2="262.066" y2="348.466" gradientUnits="userSpaceOnUse">
<stop stop-color="#B2822A"/>
<stop offset="0.697115" stop-color="#8A6522"/>
</linearGradient>
<linearGradient id="paint7_linear_3915_22024" x1="172.504" y1="331.514" x2="272.415" y2="331.514" gradientUnits="userSpaceOnUse">
<stop stop-color="#B2822A"/>
<stop offset="0.697115" stop-color="#8A6522"/>
</linearGradient>
<linearGradient id="paint8_linear_3915_22024" x1="301.716" y1="202.155" x2="148.424" y2="202.155" gradientUnits="userSpaceOnUse">
<stop offset="0.211538" stop-color="#103E52"/>
<stop offset="0.985577" stop-color="#2C5B6E"/>
</linearGradient>
<linearGradient id="paint9_linear_3915_22024" x1="7.28516" y1="82.349" x2="435.289" y2="82.349" gradientUnits="userSpaceOnUse">
<stop stop-color="#6F4E1B"/>
<stop offset="1" stop-color="#573D16"/>
</linearGradient>
<linearGradient id="paint10_linear_3915_22024" x1="172.307" y1="313.482" x2="272.627" y2="313.482" gradientUnits="userSpaceOnUse">
<stop stop-color="#B2822A"/>
<stop offset="0.697115" stop-color="#8A6522"/>
</linearGradient>
<linearGradient id="paint11_linear_3915_22024" x1="127.313" y1="439.333" x2="217.732" y2="439.333" gradientUnits="userSpaceOnUse">
<stop offset="0.384615" stop-color="#976C1D"/>
<stop offset="1" stop-color="#986E22"/>
</linearGradient>
<linearGradient id="paint12_linear_3915_22024" x1="222.735" y1="439.426" x2="315.498" y2="439.426" gradientUnits="userSpaceOnUse">
<stop stop-color="#856020"/>
<stop offset="1" stop-color="#8A6522"/>
</linearGradient>
<linearGradient id="paint13_linear_3915_22024" x1="227.546" y1="211.302" x2="404.05" y2="211.302" gradientUnits="userSpaceOnUse">
<stop stop-color="#976E25"/>
<stop offset="1" stop-color="#8A6522"/>
</linearGradient>
<linearGradient id="paint14_linear_3915_22024" x1="38.3569" y1="210.729" x2="211.298" y2="210.729" gradientUnits="userSpaceOnUse">
<stop offset="0.384615" stop-color="#A67723"/>
<stop offset="1" stop-color="#72531B"/>
</linearGradient>
<linearGradient id="paint15_linear_3915_22024" x1="27.6509" y1="31.0014" x2="417.855" y2="31.0014" gradientUnits="userSpaceOnUse">
<stop stop-color="#66501E"/>
<stop offset="1" stop-color="#AB832B"/>
</linearGradient>
<linearGradient id="paint16_linear_3915_22024" x1="16.3535" y1="104.589" x2="429.492" y2="104.589" gradientUnits="userSpaceOnUse">
<stop stop-color="#B2822A"/>
<stop offset="0.697115" stop-color="#8A6522"/>
</linearGradient>
<clipPath id="clip0_3915_22024">
<rect width="121.33" height="139.308" fill="white" transform="translate(162.057 133.604)"/>
</clipPath>
</defs>
</svg>
