<svg width="326" height="102" viewBox="0 0 326 102" fill="none" xmlns="http://www.w3.org/2000/svg">
<rect width="102" height="102" rx="8" fill="#E4E4E4"/>
<path d="M16 51.4721L27.979 31.6113L39.8705 51.4721L27.979 58.7021L16 51.4721Z" fill="#333333"/>
<path d="M27.979 60.8804L16 53.6504L27.979 70.4624L39.8705 53.6504L27.979 60.8804Z" fill="#333333"/>
<path d="M46.4912 63.1368V58.8714H51.4617V43.1843H46.4912V38.9541H62.3193V43.1843H57.3488V58.8714H62.3193V63.1368H46.4912ZM66.853 63.1368V38.9541H76.0889C77.4755 38.9541 78.7563 39.1421 79.9314 39.5181C81.1299 39.8941 82.164 40.4581 83.0335 41.2102C83.903 41.9623 84.5846 42.9023 85.0781 44.0304C85.5717 45.135 85.8184 46.4157 85.8184 47.8728V54.2181C85.8184 55.6517 85.5717 56.9325 85.0781 58.0606C84.5846 59.1652 83.903 60.0934 83.0335 60.8455C82.164 61.5975 81.1299 62.1733 79.9314 62.5728C78.7563 62.9488 77.4755 63.1368 76.0889 63.1368H66.853ZM72.7753 58.6246H75.5954C76.4649 58.6246 77.217 58.4954 77.8515 58.2368C78.486 57.9783 78.9678 57.5553 79.2968 56.9678C79.6494 56.3803 79.8256 55.5695 79.8256 54.5354V47.5203C79.8256 46.4862 79.6494 45.6754 79.2968 45.0879C78.9678 44.4769 78.486 44.0421 77.8515 43.7836C77.217 43.5251 76.4649 43.3958 75.5954 43.3958H72.7753V58.6246Z" fill="#333333"/>
<path d="M112.13 55V34.42H126.41L125.87 38.23H117.05V42.61H125.3V46.33H117.05V51.04H125.96L126.47 55H112.13ZM139.808 55.3C137.748 55.3 136.138 54.87 134.978 54.01C133.838 53.15 133.268 51.68 133.268 49.6V43.12H129.278V39.67H133.448L135.098 34.78H137.978V39.67H144.368V43.12H137.978V49.15C137.978 49.69 138.088 50.16 138.308 50.56C138.528 50.94 138.878 51.24 139.358 51.46C139.858 51.66 140.518 51.76 141.338 51.76C141.918 51.76 142.478 51.69 143.018 51.55C143.558 51.41 144.008 51.24 144.368 51.04V54.43C143.828 54.71 143.138 54.92 142.298 55.06C141.458 55.22 140.628 55.3 139.808 55.3ZM148.017 55V33.4H152.727V41.56C153.247 40.84 153.867 40.3 154.587 39.94C155.327 39.56 156.177 39.37 157.137 39.37C158.117 39.37 158.977 39.57 159.717 39.97C160.457 40.37 161.027 40.95 161.427 41.71C161.847 42.45 162.057 43.36 162.057 44.44V55H157.347V45.34C157.347 44.52 157.147 43.89 156.747 43.45C156.347 43.01 155.797 42.79 155.097 42.79C154.637 42.79 154.227 42.9 153.867 43.12C153.507 43.34 153.227 43.64 153.027 44.02C152.827 44.4 152.727 44.84 152.727 45.34V55H148.017ZM173.055 55.3C171.275 55.3 169.805 55 168.645 54.4C167.505 53.78 166.655 52.9 166.095 51.76C165.555 50.62 165.285 49.28 165.285 47.74V46.93C165.285 45.33 165.605 43.97 166.245 42.85C166.905 41.71 167.825 40.85 169.005 40.27C170.205 39.67 171.615 39.37 173.235 39.37C174.735 39.37 176.025 39.65 177.105 40.21C178.205 40.75 179.045 41.52 179.625 42.52C180.225 43.5 180.525 44.68 180.525 46.06V48.22H170.295V49.03C170.295 50.13 170.565 50.95 171.105 51.49C171.645 52.03 172.355 52.3 173.235 52.3C174.215 52.3 174.945 52.07 175.425 51.61C175.905 51.13 176.145 50.4 176.145 49.42H180.525C180.525 50.66 180.215 51.72 179.595 52.6C178.995 53.48 178.135 54.15 177.015 54.61C175.915 55.07 174.595 55.3 173.055 55.3ZM170.295 45.61H175.905V45.22C175.905 44.66 175.785 44.17 175.545 43.75C175.305 43.31 174.975 42.97 174.555 42.73C174.155 42.49 173.685 42.37 173.145 42.37C172.565 42.37 172.065 42.51 171.645 42.79C171.225 43.05 170.895 43.41 170.655 43.87C170.415 44.33 170.295 44.83 170.295 45.37V45.61ZM186.573 55V43.12H183.393V39.67H190.413L190.623 41.62C190.943 40.98 191.453 40.45 192.153 40.03C192.853 39.59 193.723 39.37 194.763 39.37C196.143 39.37 197.213 39.77 197.973 40.57C198.753 41.37 199.143 42.43 199.143 43.75C199.143 44.07 199.133 44.39 199.113 44.71C199.113 45.01 199.083 45.33 199.023 45.67H195.123V44.86C195.123 44.5 195.043 44.17 194.883 43.87C194.743 43.55 194.523 43.3 194.223 43.12C193.943 42.94 193.593 42.85 193.173 42.85C192.753 42.85 192.393 42.96 192.093 43.18C191.793 43.4 191.563 43.69 191.403 44.05C191.243 44.39 191.163 44.77 191.163 45.19V55H186.573ZM183.333 55V51.61H196.953V55H183.333ZM209.031 55.3C207.251 55.3 205.781 55 204.621 54.4C203.481 53.78 202.631 52.9 202.071 51.76C201.531 50.62 201.261 49.28 201.261 47.74V46.93C201.261 45.33 201.581 43.97 202.221 42.85C202.881 41.71 203.801 40.85 204.981 40.27C206.181 39.67 207.591 39.37 209.211 39.37C210.711 39.37 212.001 39.65 213.081 40.21C214.181 40.75 215.021 41.52 215.601 42.52C216.201 43.5 216.501 44.68 216.501 46.06V48.22H206.271V49.03C206.271 50.13 206.541 50.95 207.081 51.49C207.621 52.03 208.331 52.3 209.211 52.3C210.191 52.3 210.921 52.07 211.401 51.61C211.881 51.13 212.121 50.4 212.121 49.42H216.501C216.501 50.66 216.191 51.72 215.571 52.6C214.971 53.48 214.111 54.15 212.991 54.61C211.891 55.07 210.571 55.3 209.031 55.3ZM206.271 45.61H211.881V45.22C211.881 44.66 211.761 44.17 211.521 43.75C211.281 43.31 210.951 42.97 210.531 42.73C210.131 42.49 209.661 42.37 209.121 42.37C208.541 42.37 208.041 42.51 207.621 42.79C207.201 43.05 206.871 43.41 206.631 43.87C206.391 44.33 206.271 44.83 206.271 45.37V45.61ZM224.95 55.3C223.33 55.3 222.04 54.86 221.08 53.98C220.14 53.1 219.67 51.78 219.67 50.02V39.67H224.41V49.3C224.41 50.18 224.62 50.83 225.04 51.25C225.48 51.65 226.04 51.85 226.72 51.85C227.2 51.85 227.62 51.75 227.98 51.55C228.36 51.33 228.65 51.02 228.85 50.62C229.07 50.22 229.18 49.75 229.18 49.21V39.67H233.89V51.43C233.89 51.73 233.95 51.95 234.07 52.09C234.21 52.21 234.38 52.27 234.58 52.27C234.72 52.27 234.86 52.26 235 52.24C235.14 52.2 235.29 52.13 235.45 52.03V54.7C235.19 54.88 234.8 55.02 234.28 55.12C233.78 55.24 233.3 55.3 232.84 55.3C232.02 55.3 231.39 55.21 230.95 55.03C230.51 54.85 230.2 54.61 230.02 54.31C229.86 53.99 229.74 53.64 229.66 53.26C229.4 53.64 229.07 53.98 228.67 54.28C228.29 54.58 227.8 54.82 227.2 55C226.6 55.2 225.85 55.3 224.95 55.3ZM237.118 55V39.67H239.638L240.028 41.26C240.388 40.66 240.848 40.2 241.408 39.88C241.968 39.54 242.568 39.37 243.208 39.37C243.948 39.37 244.568 39.55 245.068 39.91C245.588 40.25 245.958 40.71 246.178 41.29C246.618 40.63 247.108 40.15 247.648 39.85C248.188 39.53 248.808 39.37 249.508 39.37C250.628 39.37 251.458 39.73 251.998 40.45C252.538 41.15 252.808 42.09 252.808 43.27V55H249.028V44.29C249.028 43.39 248.678 42.94 247.978 42.94C247.658 42.94 247.388 43.06 247.168 43.3C246.948 43.54 246.838 43.87 246.838 44.29V55H243.118V44.29C243.118 43.39 242.758 42.94 242.038 42.94C241.698 42.94 241.418 43.06 241.198 43.3C240.998 43.54 240.898 43.87 240.898 44.29V55H237.118Z" fill="#E4E4E4"/>
<path d="M112.28 91V87.37H116.51V74.02H112.28V70.42H125.75V74.02H121.52V87.37H125.75V91H112.28ZM135.158 91.3C134.038 91.3 133.018 91.04 132.098 90.52C131.178 89.98 130.448 89.15 129.908 88.03C129.368 86.89 129.098 85.44 129.098 83.68V83.35C129.098 81.59 129.378 80.12 129.938 78.94C130.498 77.74 131.248 76.85 132.188 76.27C133.128 75.67 134.168 75.37 135.308 75.37C136.208 75.37 136.978 75.5 137.618 75.76C138.278 76.02 138.808 76.37 139.208 76.81V69.4H143.918V91H140.078L139.688 89.26C139.248 89.88 138.668 90.38 137.948 90.76C137.228 91.12 136.298 91.3 135.158 91.3ZM136.538 88.24C137.298 88.24 137.928 87.96 138.428 87.4C138.948 86.84 139.208 86.02 139.208 84.94V81.7C139.208 80.62 138.948 79.8 138.428 79.24C137.928 78.68 137.298 78.4 136.538 78.4C135.778 78.4 135.138 78.69 134.618 79.27C134.118 79.83 133.868 80.64 133.868 81.7V84.94C133.868 86.02 134.118 86.84 134.618 87.4C135.138 87.96 135.778 88.24 136.538 88.24ZM155.067 91.3C153.287 91.3 151.817 91 150.657 90.4C149.517 89.78 148.667 88.9 148.107 87.76C147.567 86.62 147.297 85.28 147.297 83.74V82.93C147.297 81.33 147.617 79.97 148.257 78.85C148.917 77.71 149.837 76.85 151.017 76.27C152.217 75.67 153.627 75.37 155.247 75.37C156.747 75.37 158.037 75.65 159.117 76.21C160.217 76.75 161.057 77.52 161.637 78.52C162.237 79.5 162.537 80.68 162.537 82.06V84.22H152.307V85.03C152.307 86.13 152.577 86.95 153.117 87.49C153.657 88.03 154.367 88.3 155.247 88.3C156.227 88.3 156.957 88.07 157.437 87.61C157.917 87.13 158.157 86.4 158.157 85.42H162.537C162.537 86.66 162.227 87.72 161.607 88.6C161.007 89.48 160.147 90.15 159.027 90.61C157.927 91.07 156.607 91.3 155.067 91.3ZM152.307 81.61H157.917V81.22C157.917 80.66 157.797 80.17 157.557 79.75C157.317 79.31 156.987 78.97 156.567 78.73C156.167 78.49 155.697 78.37 155.157 78.37C154.577 78.37 154.077 78.51 153.657 78.79C153.237 79.05 152.907 79.41 152.667 79.87C152.427 80.33 152.307 80.83 152.307 81.37V81.61ZM166.005 91V75.67H169.845L170.205 77.41C170.685 76.71 171.305 76.2 172.065 75.88C172.825 75.54 173.715 75.37 174.735 75.37C176.375 75.37 177.665 75.82 178.605 76.72C179.565 77.62 180.045 78.88 180.045 80.5V91H175.335V81.49C175.335 80.59 175.135 79.92 174.735 79.48C174.335 79.02 173.785 78.79 173.085 78.79C172.605 78.79 172.185 78.91 171.825 79.15C171.465 79.39 171.185 79.72 170.985 80.14C170.805 80.54 170.715 81.01 170.715 81.55V91H166.005ZM193.773 91.3C191.713 91.3 190.103 90.87 188.943 90.01C187.803 89.15 187.233 87.68 187.233 85.6V79.12H183.243V75.67H187.413L189.063 70.78H191.943V75.67H198.333V79.12H191.943V85.15C191.943 85.69 192.053 86.16 192.273 86.56C192.493 86.94 192.843 87.24 193.323 87.46C193.823 87.66 194.483 87.76 195.303 87.76C195.883 87.76 196.443 87.69 196.983 87.55C197.523 87.41 197.973 87.24 198.333 87.04V90.43C197.793 90.71 197.103 90.92 196.263 91.06C195.423 91.22 194.593 91.3 193.773 91.3ZM207.561 91V79.12H202.461V75.67H212.241V91H207.561ZM202.461 91V87.61H216.861V91H202.461ZM207.771 72.76V69.1H211.491V72.76H207.771ZM229.75 91.3C227.69 91.3 226.08 90.87 224.92 90.01C223.78 89.15 223.21 87.68 223.21 85.6V79.12H219.22V75.67H223.39L225.04 70.78H227.92V75.67H234.31V79.12H227.92V85.15C227.92 85.69 228.03 86.16 228.25 86.56C228.47 86.94 228.82 87.24 229.3 87.46C229.8 87.66 230.46 87.76 231.28 87.76C231.86 87.76 232.42 87.69 232.96 87.55C233.5 87.41 233.95 87.24 234.31 87.04V90.43C233.77 90.71 233.08 90.92 232.24 91.06C231.4 91.22 230.57 91.3 229.75 91.3ZM240.658 96.58C240.118 96.58 239.618 96.54 239.158 96.46C238.718 96.4 238.328 96.3 237.988 96.16V92.98C238.208 93.08 238.518 93.17 238.918 93.25C239.318 93.35 239.708 93.4 240.088 93.4C240.668 93.4 241.118 93.27 241.438 93.01C241.758 92.75 242.008 92.41 242.188 91.99C242.368 91.57 242.548 91.11 242.728 90.61L236.938 75.67H241.978L245.128 85.03H245.338L248.248 75.67H252.898L247.498 90.1C247.038 91.32 246.498 92.42 245.878 93.4C245.258 94.38 244.518 95.15 243.658 95.71C242.818 96.29 241.818 96.58 240.658 96.58ZM273.515 91V70.42H278.315V80.5L284.315 70.42H289.355L283.775 80.44L289.715 91H284.315L279.935 83.41L278.315 85.96V91H273.515ZM297.503 91V79.12H292.403V75.67H302.183V91H297.503ZM292.403 91V87.61H306.803V91H292.403ZM297.713 72.76V69.1H301.433V72.76H297.713ZM319.691 91.3C317.631 91.3 316.021 90.87 314.861 90.01C313.721 89.15 313.151 87.68 313.151 85.6V79.12H309.161V75.67H313.331L314.981 70.78H317.861V75.67H324.251V79.12H317.861V85.15C317.861 85.69 317.971 86.16 318.191 86.56C318.411 86.94 318.761 87.24 319.241 87.46C319.741 87.66 320.401 87.76 321.221 87.76C321.801 87.76 322.361 87.69 322.901 87.55C323.441 87.41 323.891 87.24 324.251 87.04V90.43C323.711 90.71 323.021 90.92 322.181 91.06C321.341 91.22 320.511 91.3 319.691 91.3Z" fill="#E4E4E4"/>
<path d="M111.598 22V7.45455H116.783C117.914 7.45455 118.852 7.66051 119.595 8.07244C120.339 8.48437 120.895 9.04782 121.264 9.76278C121.634 10.473 121.818 11.2732 121.818 12.1634C121.818 13.0582 121.631 13.8632 121.257 14.5781C120.888 15.2884 120.329 15.8518 119.581 16.2685C118.838 16.6804 117.902 16.8864 116.776 16.8864H113.21V15.0256H116.577C117.292 15.0256 117.872 14.9025 118.317 14.6562C118.762 14.4053 119.089 14.0644 119.297 13.6335C119.505 13.2027 119.609 12.7126 119.609 12.1634C119.609 11.6141 119.505 11.1264 119.297 10.7003C119.089 10.2741 118.759 9.94034 118.31 9.69886C117.865 9.45739 117.277 9.33665 116.548 9.33665H113.793V22H111.598ZM137.026 14.7273C137.026 16.2803 136.742 17.6155 136.174 18.733C135.605 19.8456 134.827 20.7027 133.837 21.304C132.852 21.9006 131.732 22.1989 130.478 22.1989C129.218 22.1989 128.094 21.9006 127.104 21.304C126.119 20.7027 125.343 19.8433 124.775 18.7259C124.206 17.6084 123.922 16.2756 123.922 14.7273C123.922 13.1742 124.206 11.8414 124.775 10.7287C125.343 9.61127 126.119 8.75426 127.104 8.15767C128.094 7.55634 129.218 7.25568 130.478 7.25568C131.732 7.25568 132.852 7.55634 133.837 8.15767C134.827 8.75426 135.605 9.61127 136.174 10.7287C136.742 11.8414 137.026 13.1742 137.026 14.7273ZM134.853 14.7273C134.853 13.5436 134.661 12.5469 134.277 11.7372C133.899 10.9228 133.378 10.3073 132.715 9.89062C132.057 9.46922 131.311 9.25852 130.478 9.25852C129.64 9.25852 128.891 9.46922 128.233 9.89062C127.575 10.3073 127.054 10.9228 126.671 11.7372C126.292 12.5469 126.103 13.5436 126.103 14.7273C126.103 15.911 126.292 16.91 126.671 17.7244C127.054 18.5341 127.575 19.1496 128.233 19.571C128.891 19.9877 129.64 20.196 130.478 20.196C131.311 20.196 132.057 19.9877 132.715 19.571C133.378 19.1496 133.899 18.5341 134.277 17.7244C134.661 16.91 134.853 15.911 134.853 14.7273ZM142.434 22L138.4 7.45455H140.708L143.542 18.7188H143.677L146.625 7.45455H148.912L151.859 18.7259H151.994L154.821 7.45455H157.136L153.095 22H150.886L147.825 11.1051H147.711L144.65 22H142.434ZM159.137 22V7.45455H168.256V9.34375H161.332V13.7756H167.781V15.6577H161.332V20.1108H168.342V22H159.137ZM171.188 22V7.45455H176.373C177.499 7.45455 178.435 7.64867 179.178 8.03693C179.926 8.42519 180.485 8.96259 180.854 9.64915C181.223 10.331 181.408 11.1193 181.408 12.0142C181.408 12.9044 181.221 13.688 180.847 14.3651C180.478 15.0374 179.919 15.5606 179.171 15.9347C178.427 16.3087 177.492 16.4957 176.365 16.4957H172.438V14.6065H176.167C176.877 14.6065 177.454 14.5047 177.9 14.3011C178.349 14.0975 178.678 13.8016 178.887 13.4134C179.095 13.0251 179.199 12.5587 179.199 12.0142C179.199 11.465 179.093 10.9891 178.88 10.5866C178.671 10.1842 178.342 9.87642 177.892 9.66335C177.447 9.44555 176.863 9.33665 176.138 9.33665H173.382V22H171.188ZM178.368 15.4375L181.962 22H179.462L175.939 15.4375H178.368ZM184.078 22V7.45455H193.198V9.34375H186.273V13.7756H192.722V15.6577H186.273V20.1108H193.283V22H184.078ZM200.838 22H196.129V7.45455H200.987C202.412 7.45455 203.636 7.74574 204.659 8.32812C205.682 8.90578 206.465 9.73674 207.01 10.821C207.559 11.9006 207.834 13.1955 207.834 14.706C207.834 16.2211 207.557 17.5232 207.003 18.6122C206.454 19.7012 205.658 20.5393 204.616 21.1264C203.575 21.7088 202.315 22 200.838 22ZM198.324 20.0824H200.717C201.825 20.0824 202.746 19.8741 203.48 19.4574C204.214 19.036 204.763 18.4276 205.128 17.6321C205.492 16.8319 205.675 15.8565 205.675 14.706C205.675 13.5649 205.492 12.5966 205.128 11.8011C204.768 11.0057 204.231 10.402 203.516 9.99006C202.801 9.57812 201.913 9.37216 200.852 9.37216H198.324V20.0824ZM215.856 22V7.45455H221.183C222.215 7.45455 223.069 7.625 223.746 7.96591C224.424 8.30208 224.93 8.759 225.266 9.33665C225.603 9.90956 225.771 10.5559 225.771 11.2756C225.771 11.8816 225.659 12.393 225.437 12.8097C225.214 13.2216 224.916 13.553 224.542 13.804C224.173 14.0502 223.765 14.2301 223.32 14.3438V14.4858C223.803 14.5095 224.274 14.6657 224.734 14.9545C225.198 15.2386 225.581 15.6435 225.884 16.169C226.187 16.6946 226.339 17.3338 226.339 18.0866C226.339 18.83 226.164 19.4976 225.813 20.0895C225.468 20.6766 224.933 21.143 224.208 21.4886C223.484 21.8295 222.558 22 221.431 22H215.856ZM218.05 20.1179H221.218C222.269 20.1179 223.022 19.9143 223.477 19.5071C223.931 19.0999 224.158 18.5909 224.158 17.9801C224.158 17.5208 224.042 17.0994 223.81 16.7159C223.578 16.3324 223.247 16.027 222.816 15.7997C222.39 15.5724 221.883 15.4588 221.296 15.4588H218.05V20.1179ZM218.05 13.7472H220.991C221.483 13.7472 221.926 13.6525 222.319 13.4631C222.717 13.2737 223.031 13.0085 223.263 12.6676C223.5 12.322 223.619 11.9148 223.619 11.446C223.619 10.8447 223.408 10.3404 222.987 9.93324C222.565 9.52604 221.919 9.32244 221.048 9.32244H218.05V13.7472ZM227.82 7.45455H230.312L234.112 14.0668H234.268L238.068 7.45455H240.561L235.284 16.2898V22H233.097V16.2898L227.82 7.45455Z" fill="#E4E4E4"/>
</svg>
