<svg width="112" height="792" viewBox="0 0 112 792" fill="none" xmlns="http://www.w3.org/2000/svg">
<g clip-path="url(#clip0_2328_17945)">
<path d="M51.2833 0.867676C50.2268 1.30078 48.3778 2.53827 47.1325 3.71393L44.9062 5.81769L45.8118 6.74579C47.8118 8.91144 49.3211 11.5102 50.2645 14.4802C51.2833 17.5739 51.2833 17.8214 51.2079 28.1545C51.1701 33.9089 50.906 41.3339 50.6418 44.6752C50.1513 50.1821 50.189 50.7389 50.7928 51.9764C51.6984 53.8327 51.6607 54.8845 50.5664 55.9983C49.8494 56.8027 49.623 57.6689 49.5098 60.5152C49.3211 63.6089 49.4343 64.2896 50.2268 65.8364C50.8682 67.1358 51.0947 68.1258 50.9814 69.2396C50.1136 76.2314 49.623 84.4608 49.3966 95.2889C49.2834 102.281 48.9061 111.995 48.5664 116.945C48.2268 121.895 47.9627 130.558 47.925 136.25C47.925 142.005 47.925 146.645 47.925 146.645C47.8872 146.645 43.7364 146.955 38.6423 147.264C28.9068 147.883 24.0391 148.563 17.5111 150.11C9.5491 152.09 -0.639187 156.174 0.0400317 157.164C0.190969 157.411 3.02105 159.577 6.34167 162.052L12.3037 166.445L13.8131 164.341C17.2092 159.515 23.9259 155.617 31.2841 154.132C33.1708 153.761 37.8499 153.266 41.6988 153.018L48.7174 152.647L48.9438 156.483C49.2079 160.32 48.5287 164.651 46.4533 172.818C45.8873 174.984 45.8496 182.347 46.1892 254.803C46.7552 381.832 47.2835 506.943 47.6986 622.155C47.925 681.06 48.2646 734.272 48.4532 740.46C48.8683 752.525 49.7739 761.992 51.2833 770.345C52.4154 776.657 55.736 791.383 56.0001 791.383C56.3397 791.383 60.0754 774.305 61.0943 768.18C62.4904 760.012 63.1319 752.463 63.547 740.15C63.7357 734.148 64.0753 681.06 64.3017 622.155C64.7168 507.005 65.245 382.018 65.8111 254.803C66.1507 182.347 66.1129 174.984 65.5469 172.818C63.4715 164.651 62.7923 160.32 63.0564 156.483L63.2829 152.647L70.3015 153.018C74.1504 153.266 78.8672 153.761 80.7161 154.132C88.0743 155.617 94.7911 159.515 98.1117 164.218L99.6965 166.445L105.659 162.052C108.979 159.577 111.809 157.411 111.96 157.164C112.639 156.174 102.451 152.09 94.4892 150.11C87.9611 148.563 83.0934 147.883 73.3579 147.264C68.2638 146.955 64.113 146.645 64.0753 146.645C64.0375 146.645 64.0375 142.376 64.0753 137.178C64.0753 132.043 63.8111 123.442 63.4715 118.183C63.1319 112.923 62.7168 103.58 62.6036 97.4545C62.3772 86.8739 61.6603 75.489 60.9433 70.3533C60.6414 68.2496 60.7169 67.7546 61.6603 66.022C62.6036 64.2277 62.6791 63.6708 62.4904 60.577C62.3395 57.6071 62.1886 56.9265 61.4339 56.3696C60.3773 55.5652 60.2264 53.5233 61.1697 51.8527C61.7357 50.8627 61.7357 50.1202 61.3207 44.6752C61.0565 41.3958 60.7547 34.6514 60.6414 29.7014C60.3396 16.7695 61.2452 12.4383 65.5092 7.42639L66.8676 5.81769L64.8677 3.83765C61.2075 0.248901 55.8114 -0.926697 51.2833 0.867676Z" fill="#FFDFC0"/>
</g>
<defs>
<clipPath id="clip0_2328_17945">
<rect width="112" height="792" fill="white"/>
</clipPath>
</defs>
</svg>
