<svg width="479" height="983" viewBox="0 0 479 983" fill="none" xmlns="http://www.w3.org/2000/svg">
<path d="M393.587 127.888C397.461 124.646 399.958 120.353 403.72 110.363C408.829 95.9312 409.878 96.214 434.932 64.5208C435.035 64.388 435.137 64.2551 435.239 64.1221C439.373 58.7239 443.331 53.0632 447.014 47.3252C456.282 33.2332 458.934 25.4658 458.51 24.2715C458.357 22.9685 450.133 28.1027 444.875 27.2479C446.302 26.1846 447.521 25.1832 448.585 24.2242C452.983 21.864 455.641 20.2723 458.001 19.0091C458.484 19.0085 459.238 16.8709 458.942 15.7302C458.758 14.6433 459.413 11.4919 465.396 10.5979C474.307 9.78335 475.49 10.1223 474.674 6.79507C474.622 4.92523 476.143 2.9925 479.374 2.00864C481.64 1.24309 482.853 0.823253 482.919 0.502401C482.977 0.164592 481.778 -0.0629423 479.32 -0.386811C476.717 -0.812041 470.735 -0.422953 466.939 0.755081C463.162 2.01123 460.469 2.85544 459.887 2.20014C456.57 3.24802 453.873 4.5965 450.572 6.31569C448.321 8.4603 445.904 10.7987 443.295 13.2941C442.622 13.9367 441.974 14.5673 441.257 15.213C442.875 16.3389 445.63 16.4839 447.5 16.503C449.412 16.5338 450.349 16.8314 450.305 18.4362C450.061 21.5409 447.393 29.5663 439.315 41.5606C438.282 43.1221 437.223 44.6565 436.134 46.1687C424.051 62.6746 420.389 65.3077 422.707 57.0193C425.091 48.0465 422.907 43.0858 415.303 40.0535C409.422 37.777 408.213 37.7867 408.567 40.5996C410.631 54.7721 410.563 62.6812 409.232 64.2757C408.266 65.1695 410.29 66.1051 413.879 65.9239C416.013 65.8851 418.149 65.8367 420.289 65.7746C415.644 71.104 410.896 76.3607 406.061 81.5215C393.412 95.0934 381.495 103.213 374.192 104.813C373.002 105.074 371.202 102.223 370.283 98.4289C367.894 90.3863 363.162 82.541 361.23 82.9544C360.262 83.1612 359.868 86.2571 359.987 89.8153C359.935 92.413 359.588 95.758 358.956 98.3599C358.774 99.3025 358.555 100.136 358.292 100.781C357.036 104.056 356.91 103.356 357.22 98.7717C357.27 98.0612 357.316 97.3784 357.357 96.7219C358.458 86.546 357.723 82.5935 355.012 80.8628C351.468 78.7719 350.684 80.597 351.044 89.7127C351.045 89.8927 351.045 90.0731 351.043 90.2533C351.124 93.7142 350.762 97.0979 350.11 97.5579C348.871 98.7888 348.229 93.7722 348.699 87.8515C348.866 86.2929 349.084 84.6866 349.374 83.1046C350.32 78.0505 348.623 77.3002 341.41 79.0032C341.077 79.0642 340.628 79.0769 340.104 79.0454C338.532 78.9408 336.274 78.4449 334.412 77.6762C328.713 75.2094 327.846 75.5892 329.192 80.3608C329.873 82.4666 330.155 87.8139 329.975 92.1281C329.724 96.6448 330.232 100.066 331.166 99.87C331.915 99.7135 332.349 100.551 331.976 101.741C331.665 102.733 330.422 103.367 329.546 102.813C328.422 102.496 329.677 104.644 332.196 107.812C335.473 111.931 338.595 113.103 342.96 112.422C348.429 111.541 348.547 111.705 343.963 113.692C342.292 114.449 340.62 115.217 338.947 115.995C340.35 116.133 341.75 116.275 343.148 116.422C347.532 116.798 356.028 113.809 356.68 111.729C356.857 111.156 354.778 109.51 352.262 108.129C343.972 104.135 333.521 90.8708 336.095 87.0147C338.722 82.9949 341.375 84.011 339.875 88.3436C337.576 95.0852 356.695 109.614 365.168 108.414C367.89 108.021 369.752 108.673 369.45 109.605C369.087 110.726 366.325 111.82 363.241 112.296C359.075 112.957 354.688 115.754 345.434 124.575C341.354 128.399 337.29 132.306 333.233 136.282C335.789 135.314 338.341 134.364 340.888 133.436C354.051 128.716 361.337 124.063 366.839 116.24C367.995 114.617 369.638 112.872 371.496 111.207C378.458 104.916 387.594 98.6891 388.894 100.408C389.824 101.652 384.313 108.041 375.959 115.78C361.21 128.995 336.237 151.56 330.9 152.262C327.38 152.582 326.484 153.374 326.527 156.541C326.457 158.873 324.862 161.644 321.517 165.141C317.456 169.502 311.425 174.609 303.202 179.938C290.298 188.119 285.678 187.451 279.506 179.839C274.813 174.393 274.874 174.081 280.079 169.075C286.69 162.65 289.707 155.211 287.954 150.482C286.641 146.944 286.615 147.084 281.415 155.357C274.228 166.145 273.393 167.246 278.255 163.687C281.76 161.185 281.622 161.618 277.557 166.447C275.924 168.347 274.278 170.207 272.589 172.054C272.687 169.844 272.755 167.642 272.788 165.451C272.777 161.889 271.943 159.585 270.607 160.51C269.369 161.601 269.446 161.037 270.856 159.545C272.266 158.049 272.888 155.717 272.383 154.305C271.656 152.555 271.858 151.603 273.207 151.388C274.361 151.203 275.516 152.865 275.981 154.846C276.329 157.968 276.947 158.263 279.244 155.774C283.494 151.203 285.107 145.248 282.409 145.883C281.249 146.144 278.548 143.701 276.399 140.609C275.213 138.685 274.008 136.777 272.791 134.877C271.52 137.98 270.132 141.08 268.635 144.17C266.264 149.281 263.421 157.466 262.226 162.548C260.014 171.591 259.735 171.816 256.25 170.903C254.388 170.458 250.001 170.095 246.515 170.141C240.503 170.196 240.697 170.004 245.711 164.686C250.183 159.877 250.787 158.169 250.197 154.055C249.645 151.374 249.191 146.014 248.764 142.321C248.6 140.024 248.396 137.744 248.148 135.483C245.416 138.247 242.554 140.965 239.603 143.62C231.78 150.67 230.14 151.212 229.631 148.738C228.749 142.896 226.411 150.498 226.639 158.018C226.77 164.424 229.85 167.858 241.641 172.907C241.829 172.914 240.713 175.827 239.351 179.289C238.432 181.412 237.478 183.535 236.5 185.654C235.851 183.364 235.191 181.078 234.518 178.799C233.161 174.356 228.677 169.506 222.494 165.654C209.451 157.096 208.982 154.885 214.065 145.925C217.303 140.089 217.747 136.273 216.144 129.132C215.203 123.932 213.168 119.74 212.026 119.617C210.87 119.499 209.74 117.36 209.575 114.862C209.179 110.217 209.287 110.181 204.312 118.709C195.684 132.298 194.544 141.959 205.021 150.396C207.142 152.251 209.216 155.144 209.732 156.805C210.428 159.73 210.123 159.894 206.694 158.241C197.3 153.665 196.663 153.762 185.321 158.261C174.857 162.456 173.944 162.363 173.06 159.491C171.197 154.048 172.375 150.011 176.743 147.162C178.815 145.623 181.585 142.967 182.809 141.082C185.618 136.828 185.479 127.613 182.799 127.109C181.629 126.882 181.113 125.566 181.176 124.2C181.405 122.867 180.54 121.496 179.061 121.192C177.744 120.921 176.957 120.064 177.491 119.148C177.935 118.384 177.718 117.486 176.741 117.277C175.762 117.07 172.85 120.878 169.608 125.899C163.298 135.62 162.235 142.766 168.11 146.938C169.8 148.207 170.758 151.625 170.258 154.759C169.655 160.208 169.504 160.376 165.978 158.51C164.213 157.579 158.656 154.86 153.807 152.559C145.962 148.772 145.416 147.66 146.892 142.11C149.52 132.901 147.787 129.688 139.996 126.399C136.162 124.779 131.825 122.224 130.41 120.898C127.962 118.54 127.706 118.63 126.377 122.892C121.027 139.247 123.441 146.648 136.873 148.791C141.258 149.665 149.179 152.335 154.513 155.089C157.743 156.729 160.981 158.348 164.257 159.931C161.691 159.837 159.143 159.718 156.58 159.587C151.57 159.279 148.71 158.348 148.301 156.787C147.24 152.877 140.495 152.767 130.116 156.196C129.876 156.275 129.636 156.354 129.396 156.432C128.352 156.664 127.067 156.914 125.561 157.138C126.752 158.331 127.955 159.495 129.162 160.631C129.964 161.382 130.873 162.067 131.739 162.608C134.374 162.906 137.017 162.878 138.78 162.485C148.485 160.62 165.681 161.081 171.044 163.77C173.766 165.079 180.936 170.869 186.904 176.434C190.583 179.802 194.314 183.131 198.09 186.422C192.408 185.361 186.798 184.181 181.231 182.909C165.383 179.311 164.12 179.089 152.068 181.386C147.24 182.379 142.44 182.978 139.513 183.102C138.647 182.998 138.003 182.844 137.694 182.67C136.176 181.813 136.012 182.048 136.96 183.787C137.313 184.547 138.449 185.074 140.339 185.279C142.583 185.187 145.633 184.795 149.486 184.074C159.092 182.199 165.015 182.074 174.234 183.392C178.327 183.971 182.449 184.497 186.593 184.967C183.74 185.454 180.893 185.91 178.037 186.344C169.664 187.625 146.954 194.473 144.812 196.643C144.767 196.692 144.732 196.743 144.708 196.797C144.63 197.053 144.767 197.388 145.079 197.773C146.985 199.832 155.328 202.94 160.428 203.008C167.199 203.13 185.466 194.024 186.681 189.939C187.562 187.507 189.037 187.252 195.443 188.232C199.782 188.884 202.707 189.992 202.074 190.828C201.57 191.495 196.092 193.707 189.948 195.458C178.019 198.888 162.405 207.058 153.272 215.183C152.889 215.528 152.488 215.875 152.076 216.217C149.156 218.676 145.316 220.748 143.348 221.253C134.989 223.193 139.281 224.708 154.271 222.003C154.423 221.972 154.577 221.941 154.733 221.91C174.905 217.753 186.077 212.056 193.747 202.718C197.109 198.616 201.113 194.565 202.77 193.495C206.721 191.084 212.242 194.275 216.41 201.889C218.119 205.204 220.76 207.86 222.361 207.989C223.758 208.102 224.436 210.013 223.683 212.381C222.5 216.39 222.511 216.405 226.037 211.813C228.802 208.459 228.485 206.576 225.336 204.312C221.157 201.143 221.215 201.465 237.726 202.18C243.346 202.431 249.042 202.533 254.81 202.462C243.367 209.125 231.745 214.993 220.046 220.297C178.313 238.474 167.707 239.545 164.084 237.394C162.328 236.247 161.323 236.258 160.207 237.65C159.886 237.992 159.551 238.406 159.187 238.896C157.134 241.208 147.569 245.714 122.801 246.093C104.927 246.344 88.1031 243.746 84.0122 243.529C74.4062 242.627 72.763 241.206 78.6794 239.045C81.7474 237.907 83.8382 234.385 84.5221 229.598C84.8374 227.065 85.1495 224.533 85.4583 222C82.67 223.138 79.849 224.242 77.0075 225.318C68.2945 228.606 63.0317 234.248 66.6808 237.27C69.7474 239.765 63.7306 241.333 57.9653 239.353C54.077 237.992 53.7271 236.697 56.1847 231.804C59.4845 225.203 58.6309 222.127 51.905 213.99C48.1877 209.239 47.3763 208.984 45.2351 210.746C43.815 211.922 41.1825 213.491 39.4065 214.6C35.1229 216.889 33.1824 222.27 35.2006 226.017C36.6017 228.73 36.1942 228.86 32.7662 227.518C30.1435 226.63 28.4636 224.179 27.8087 220.172C27.48 218.168 27.141 216.164 26.798 214.159C22.6536 212.774 18.4482 211.402 14.249 210.089C10.0797 208.749 5.87232 207.46 1.59512 206.274C2.51609 208.379 3.42019 210.489 4.31191 212.605C8.42202 221.984 15.0705 226.883 26.4562 228.73C31.805 229.588 37.1497 231.187 38.4605 232.345C39.7741 233.505 44.0807 235.623 48.0618 237.144C57.7713 240.661 54.5391 242.107 39.2212 241.084C33.4817 240.654 26.2935 240.566 23.3783 240.867C17.4659 241.435 9.22346 248.243 12.7178 249.234C13.9784 249.651 13.9607 250.362 12.6359 250.853C11.306 251.344 9.33647 254.593 8.44673 258.122C7.56572 261.651 7.1109 264.841 7.50262 265.212C7.89793 265.579 13.8272 264.926 21.3845 263.739C37.3557 261.638 44.434 257.783 43.5544 250.257C43.0865 242.983 60.7962 239.456 75.6108 243.221C83.2521 245.092 82.0934 246.104 72.945 245.607C64.4132 245.072 52.2871 249.021 53.8629 252.047C54.2507 253.338 54.0753 254.637 53.246 254.907C51.1837 255.583 45.895 268.06 47.264 269.216C47.8729 269.725 55.3804 268.796 64.0716 267.032C81.0641 263.604 86.5961 259.967 89.4727 251.776C90.0627 249.909 92.3306 248.294 94.5068 247.954C97.6817 247.48 111.564 249.142 126.035 249.169C140.399 249.455 155.584 246.989 156.821 247.597C157.805 248.373 160.098 247.924 161.753 246.54C162.019 246.318 162.539 246.034 163.258 245.695C167.917 243.44 183.644 238.485 185.943 238.828C186.338 238.89 180.306 245.991 171.885 254.544C170.495 255.951 169.23 257.237 168.083 258.413C155.606 268.28 151.493 270.761 153.12 271.921C154.919 272.883 155.957 272.442 156.653 270.727C157.169 269.584 162.393 265.624 168.75 260.171C170.136 258.637 171.657 257.009 173.199 255.378C183.684 244.143 184.037 243.575 182.208 248.747C180.848 251.901 180.58 255.086 181.206 256.148C182.78 258.191 197.181 261.348 198.477 259.963C200.528 257.788 196.71 248.138 193.688 247.663C191.873 247.377 189.777 245.896 188.839 244.417C187.411 241.71 187.734 241.435 195.356 236.784C200.039 234.127 209.547 229.409 216.882 225.806C234.198 218.222 268.211 202.29 269.186 203.841C269.62 204.759 267.876 209.097 265.495 213.227C262.985 217.554 261.634 221.209 262.652 221.559C263.883 221.895 265.723 219.91 267.652 216.162C271.694 207.667 275.67 208.062 309.39 184.693C315.554 180.155 321.497 175.245 327.147 169.939C345.802 153.742 361.723 139.503 375.903 127.05C378.054 125.149 380.095 123.384 381.892 121.859C386.757 117.614 390.116 114.597 390.263 114.559C390.665 114.461 389.821 118.537 388.292 123.709C387.92 125.151 387.604 126.397 387.357 127.457C386.858 131.966 387.452 132.592 390.355 130.529C391.248 129.848 392.313 128.97 393.587 127.888ZM138.3 141.927C139.713 144.317 139.462 145.15 137.57 144.624C136.195 144.24 134.429 141.007 133.528 137.487C131.805 130.101 133.373 126.269 135.427 132.801C136.215 135.191 137.758 136.898 139.077 136.546C140.338 135.999 140.279 136.34 138.777 137.183C137.565 137.924 137.213 140.171 138.3 141.927ZM122.889 182.234C129.648 181.975 130.278 181.265 129.955 178.713C129.267 174.78 123.71 168.202 122.157 169.885C121.457 170.643 120.775 170.481 120.411 169.596C119.987 168.112 113.571 166.695 105.342 165.614C101.374 165.076 101.107 165.345 103.933 170.271C108.956 179.304 114.225 182.503 122.889 182.234ZM207.572 148.054C208.13 149.352 207.992 150.221 207.279 150.138C204.241 149.698 205.633 128.255 208.382 126.472C209.111 126.048 209.172 128.934 208.35 132.974C207.064 139.557 207.183 139.952 210.251 136.294C212.892 133.291 212.868 133.792 210.146 139.234C208.366 142.867 207.015 146.753 207.572 148.054ZM143.993 171.045C151.821 180.883 164.753 181.216 166.343 171.853C166.792 168.662 165.718 167.908 160.096 167.521C156.337 167.197 150.057 166.754 146.317 166.324C144.05 166.107 141.798 165.872 139.535 165.63C141.013 167.44 142.499 169.245 143.993 171.045ZM122.694 175.289C123.342 178.864 123.048 179.419 120.329 178.967C115.492 178.135 109.549 174.247 112.043 173.791C113.073 173.606 115.415 174.51 117.121 175.87C120.435 178.495 121.923 177.759 122.052 173.824C122.087 172.309 122.335 172.896 122.694 175.289ZM97.3155 193.01C94.3921 194.624 115.814 198.798 122.462 196.889C129.577 195.417 138.692 186.457 136.52 185.439C134.219 184.373 127.355 184.57 121.438 185.355C116.636 186.305 103.11 190.47 97.3155 193.01ZM232.799 195.668C232.647 196.772 231.143 197.445 229.157 197.329C223.386 196.975 200.561 184.685 190.582 175.96C187.448 173.327 184.354 170.664 181.283 167.98C184.191 167.496 187.093 166.983 189.987 166.44C194.964 165.464 199.997 163.648 201.42 162.402C204.666 159.623 210.045 160.614 213.541 164.359C215.151 166.135 216.763 167 217.088 166.488C217.522 165.806 220.025 167.104 222.776 169.281C227.427 172.828 231.37 187.448 228.476 191.561C227.739 192.622 228.297 193.583 229.878 193.671C231.458 193.758 232.826 194.743 232.799 195.668ZM239.859 162.543C238.413 163.798 236.954 164.677 236.576 164.67C234.732 164.612 236.037 153.693 237.689 152.122C241.293 148.935 242.374 152.109 239.466 157.677C237.559 161.26 237.491 162.701 239.498 161.819C241.212 161.104 241.306 161.284 239.859 162.543ZM181.056 206.128C167.952 214.068 167.196 214.171 170.757 210.264C172.301 208.537 177.656 205.512 182.488 203.419C185.452 202.163 188.409 200.879 191.351 199.565C187.952 201.791 184.525 203.976 181.056 206.128ZM405.665 65.5941C407.412 65.0517 408.01 63.0942 407.802 56.896C407.116 45.3647 404.187 38.5595 400.839 40.2325C399.275 40.9329 396.923 41.2916 396.006 40.8053C393.384 39.5044 392.836 42.3647 394.908 46.3665C395.814 48.2131 396.231 51.1852 395.76 52.8766C395.036 54.8378 394.309 53.6984 393.961 50.5197C393.072 44.7951 388.54 42.151 385.632 45.8667C383.194 49.0793 376.407 50.1712 373.707 48.0321C370.213 44.9818 368.673 48.0095 371.459 52.784C372.634 55.3232 373.028 57.5003 372.266 57.6938C371.505 57.8874 371.892 59.4935 372.971 61.1202C374.179 62.9034 374.294 65.3478 373.319 66.7311C372.222 67.9508 373.46 70.1174 375.938 71.2165C378.543 72.4718 379.925 74.222 378.995 75.4142C376.791 78.2638 386.873 75.3645 392.228 71.3174C398.613 66.7833 396.836 64.4064 389.607 67.802C385.727 69.4576 383.73 69.5909 384.195 68.1269C384.592 66.87 386.461 65.4053 388.391 64.8665C391.352 63.8449 391.479 63.4148 388.766 61.2961C387.215 60.0018 384.311 57.9323 382.381 56.7391C378.783 54.6602 378.783 54.6712 382.851 53.9319C385.073 53.5091 389.008 55.0672 391.425 57.6417C396.772 63.4197 402.544 66.5679 405.665 65.5941ZM278.469 183.994C283.721 189.373 283.822 189.621 277.878 192.104C274.64 193.296 266.205 195.453 259.3 196.476C255.048 197.042 250.832 197.499 246.647 197.865C248.1 195.689 249.524 193.503 250.919 191.304C254.375 185.826 254.349 183.768 249.978 179.262C248.375 177.451 246.777 175.636 245.184 173.817C247.392 173.8 249.613 173.753 251.841 173.677C260.84 173.418 272.068 177.444 278.469 183.994ZM60.828 262.564C60.2461 262.575 61.316 260.807 63.215 258.753C65.222 256.306 70.0006 254.182 75.7499 252.687C84.9709 250.255 85.0367 250.299 73.4339 256.55C66.9323 260.059 61.197 262.62 60.828 262.564ZM22.6557 257.315C19.7378 258.836 17.294 259.732 16.7256 259.224C16.308 258.844 17.2431 257.984 18.9586 257.369C20.6903 256.758 20.8251 255.656 19.4099 255.096C17.4668 254.039 19.8413 252.601 28.6179 249.491C35.0526 247.185 38.5976 246.398 35.8552 247.639C33.1265 248.882 30.8548 251.743 30.981 253.814C31.1096 255.885 30.2794 256.86 29.2772 255.961C28.284 255.062 25.9856 255.461 22.6557 257.315ZM410.696 73.0408C415.419 67.9799 414.872 68.0503 403.389 71.9573C398.231 73.6907 398.177 73.3095 401.963 70.8235C406.463 67.7079 406.519 67.4864 402.425 68.7354C397.43 70.1127 384.838 77.2219 384.118 79.2813C383.835 80.1214 385.61 81.2066 388.392 81.4371C394.768 82.673 405.433 78.6566 410.696 73.0408ZM180.816 313.248C181.469 313.073 183.874 311.087 186.934 308.104C190.759 301.823 196.531 290.239 196.482 288.689C196.186 287.296 197.209 286.508 199.599 286.287C201.998 286.062 203.397 284.154 204.187 279.665C207.417 265.396 189.433 255.534 178.092 263.933C175.899 265.553 173.904 267.362 172.198 269.26C156.407 282.221 148.719 296.732 163.613 301.089C164.21 301.367 168.129 304.276 172.056 307.595C176.277 310.948 180.123 313.461 180.816 313.248ZM185.819 295.565C185.642 296.686 185.217 297.571 184.802 297.498C183.711 296.589 182.741 295.697 181.904 294.844C177.481 292.015 176.165 289.345 178.746 288.049C178.9 287.972 179.061 287.884 179.226 287.787C180.42 286.903 181.915 284.733 182.454 282.878C183.23 280.07 182.788 279.87 177.47 283.156C175.956 283.947 174.196 284.852 172.158 285.85C167.054 288.368 161.983 290.575 156.963 292.537C161.895 290.079 166.837 287.382 171.761 284.39C173.653 283.217 175.296 282.131 176.707 281.144C180.617 277.53 181.553 275.882 180.241 275.012C178.897 274.189 178.857 273.033 179.699 272.43C180.541 271.827 181.948 269.22 182.762 266.699C183.742 262.309 184.099 262.18 185.092 265.783C185.892 267.638 187.465 269.435 188.697 269.641C190.13 269.882 190.466 270.51 189.665 271.329C185.451 274.631 185.102 276.655 188.382 277.227C190.434 277.578 192.817 279.298 193.79 280.983C195.787 284.551 192.761 284.666 189.195 280.997C187.327 278.766 186.728 279.616 186.608 285.725C186.656 289.755 186.168 294.279 185.819 295.565Z" fill="#FFDFC0" fill-opacity="0.35"/>
<path d="M384.216 568.643C386.637 570.62 384.265 571.526 377.883 570.719C371.364 569.881 363.591 563.338 363.23 559.479C363.123 558.342 361.514 555.735 359.598 554.03C357.682 552.288 356.173 551.133 356.145 550.925C356.119 550.722 360.358 549.971 365.596 549.289C377.626 547.735 380.384 547.788 381.805 558.879C382.465 563.342 383.541 568.109 384.216 568.643ZM381.638 564.981C381.74 564.78 380.915 562.567 379.714 560.268C378.636 557.968 377.829 557.288 377.936 558.411C378.077 559.908 376.697 559.643 372.923 557.594C364.111 553.375 364.285 554.969 373.031 560.04C377.731 562.81 381.552 565.384 381.638 564.981ZM550.262 594.84C551.71 596.164 552.386 597.711 552.113 601.199C551.65 605.08 551.236 609.148 546.566 624.614C546.342 623.895 546.092 623.193 545.817 622.511C542.191 614.746 538.089 614.637 535.525 614.326C532.868 614.434 531.462 614.983 531.394 618.834C531.346 619.674 531.173 620.917 530.763 622.759C531.564 609.406 528.551 602.499 526.865 598.595C525.027 594.762 523.705 593.416 524.205 595.326C524.461 596.401 525.305 598.477 526.424 602.207C527.433 606.093 529.29 611.189 528.93 622.544C529.249 621.454 529.519 620.484 529.761 619.657C531.02 614.913 531.691 612.997 532.533 611.378C530.511 611.948 528.482 612.484 526.446 612.992C523.914 613.633 522.047 614.149 520.57 615.004C519.044 616.004 518.166 616.643 516.637 621.102C516.845 609.867 514.373 603.687 512.161 598.303C509.618 592.842 508.217 591.28 507.11 590.401C506.008 589.634 505.208 590.051 504.036 591.184C502.158 592.988 500.489 595.909 499.151 599.9C497.648 604.187 497.334 608.094 494.999 618.562C494.818 618.193 494.623 617.932 494.433 617.749C493.588 616.964 492.692 617.497 491.96 618.256C494.803 617.63 497.667 617.114 500.55 616.736C508.609 615.904 509.599 615.664 513.835 614.301C515.514 613.805 516.783 613.489 517.838 613.051C518.358 612.819 518.836 612.57 519.157 612.012C519.411 611.383 519.82 610.75 518.614 607.94C518.67 607.814 518.755 607.73 518.868 607.684C519.726 607.421 521.299 608.206 522.384 608.646C523.502 609.136 524.261 609.499 524.294 609.535C524.274 609.694 522.209 610.902 519.733 612.001C517.164 613.18 513.305 615.656 510.981 617.475C507.832 620.204 505.752 620.862 502.072 620.708C501.347 620.692 500.582 620.604 499.949 620.616C499.493 622.385 497.685 621.454 497.11 620.795C494.701 616.992 489.779 617.59 487.08 629.356C487.073 629.692 487.09 630.059 487.129 630.454C488.158 637.747 489.037 638.409 491.035 636.476C491.961 635.667 496.512 633.973 500.948 632.592C507.959 630.163 508.914 629.345 508.856 627.004C508.681 623.248 512.31 620.487 516.009 620.793C517.837 620.911 520.332 620.079 521.689 618.999C523.922 617.216 523.816 617.515 522.798 623.052C522.102 626.384 521.21 629.619 520.588 630.382C520.048 631.048 517.035 631.772 513.671 631.693C508.243 631.57 501.994 632.62 499.67 634.817C499.134 635.322 499.572 635.961 500.36 636.241C501.257 636.631 502.901 635.84 503.939 634.793C506.646 631.86 512.364 634.367 519.91 638.079C521.537 638.796 523.078 639.263 523.875 639.259C524.716 639.276 524.607 638.813 524.33 638.472C524.146 638.28 523.864 638.194 523.721 638.289C523.567 638.382 523.552 638.65 523.616 639.105C523.745 639.992 524.046 641.748 522.157 643.381C514.933 647.9 509.797 645.956 504.479 641.097C499.306 636.321 493.874 635.012 491.493 638.832C490.733 640.372 490.467 644.63 491.138 648.569C491.571 650.956 492.076 653.352 492.661 655.755C494.201 655.27 495.726 654.761 497.235 654.227C501.271 652.869 520.435 653.2 520.729 649.571C520.813 649.155 520.542 648.866 520.284 648.777C520.024 648.685 519.825 648.782 519.813 649.027C519.744 649.517 520.551 650.735 520.062 652.104C519.627 653.469 517.773 654.753 514.855 655.224C510.092 656.176 502.81 656.165 500.055 656.91C498.3 657.387 496.514 657.819 494.708 658.212C494.409 661.353 494.227 664.542 494.2 667.782C494.305 679.092 491.345 688.649 481.078 691.102C474.219 693.094 454.148 691.789 448.298 689.116C442.146 686.452 444.674 686.443 455.693 688.126C461.163 688.961 466.191 688.924 466.674 688.37C467.141 687.791 461.607 684.339 454.772 680.104C447.673 675.873 440.539 669.649 438.369 666.584C436.339 663.719 442.899 669.856 451.151 675.537C470.022 687.942 472.646 687.533 478.395 685.203C489.382 680.227 489.948 668.793 487.671 653.085C486.196 642.057 484.928 638.833 479.55 635.483C479.276 635.307 479.013 635.149 478.758 635.008C473.251 631.632 466.803 632.068 467.782 642.462C467.909 643.719 468.204 645.105 468.607 646.512C469.737 650.23 470.254 654.9 469.838 657.19C469.263 660.587 468.207 662.58 464.729 663.221C461.127 663.56 455.818 664.108 444.275 658.427C442.081 656.686 440.127 655.071 438.224 653.442C435.793 651.387 432.218 647.27 428.744 641.388C425.544 634.735 420.687 629.918 420.516 609.821C419.126 619.059 419.624 620.112 419.042 621.154C418.606 621.919 417.896 621.447 417.015 620.594C416.132 619.71 415.09 618.382 413.899 616.541C412.684 614.564 411.415 612.686 409.486 607.573C408.08 604.371 406.889 601.277 405.909 598.386C400.551 581.866 400.385 580.202 400.117 585.03C400.05 588.768 401.269 598.255 404.389 609.036C406.286 615.374 407.207 617.347 408.044 619.547C408.846 621.551 409.396 622.835 409.732 623.483C410.07 624.124 410.171 624.067 410.142 623.177C410.116 622.323 409.987 620.493 410.047 618.704C410.14 616.926 410.111 614.382 411.094 608.715C410.759 620.405 413.236 626.982 414.964 631.504C418.294 639.459 420.861 649.414 432.267 666.582C437.634 673.794 441.08 677.618 442.901 680.696C444.842 683.944 444.699 684.158 440.349 682.631C437.647 681.639 434.97 679.595 434.541 678.479C433.938 677.165 432.289 675.868 430.819 675.763C429.525 675.641 426.987 674.091 424.835 671.629C424.733 671.499 424.632 671.37 424.532 671.241C421.976 667.937 421.274 666.615 421.376 666.177C421.53 665.785 422.608 666.37 424.851 667.888C425.678 668.487 426.577 669.169 427.49 669.827C428.377 670.215 429.254 670.57 430.123 670.9C429.443 670.435 428.758 669.95 428.066 669.435C425.801 667.192 423.968 665.285 422.29 663.5C418.262 659.591 413.92 652.42 412.362 647.444C409.981 638.727 410.016 639.642 418.278 651.264C424.417 659.21 428.358 662.565 427.205 660.68C426.139 658.72 421.448 653.061 415.866 644.262C410.975 636.807 407.385 625.237 407.383 619.977C407.371 614.287 406.138 617.753 405.346 625.089C404.62 632.172 404.192 637.198 403.558 637.869C403.155 638.955 403.534 645.361 405.46 651.97C407.809 660.79 409.76 663.661 411.009 662.987C413.339 661.65 410.962 653.925 407.305 647.759C405.472 644.809 404.366 641.878 404.722 641.787C405.079 641.694 405.827 640.147 406.611 638.596C407.613 636.029 408.361 638.454 410.701 646.268C412.327 651.677 414.276 658.167 414.58 660.768C415.187 665.284 416.231 670.032 418.752 675.761C421.984 686.956 423.433 691.317 424.303 691.136C424.858 690.645 424.409 687.686 423.175 684.141C421.168 678.301 420.718 675.112 422.352 676.559C423.928 677.879 426.922 682.48 430.455 688.494C436.32 698.242 442.558 704.75 442.155 702.204C442.008 701.214 440.478 698.697 438.929 696.936C437.317 695.256 439.767 697.206 444.884 701.242C454.034 708.426 453.602 708.279 442.89 698.464C435.426 691.408 433.316 688.152 435.173 689.004C439.715 690.867 439.833 688.688 435.221 686.476C431.923 684.795 428.364 681.976 425.771 679.07C423.194 676.209 421.556 673.196 423.306 673.805C424.828 674.289 427.168 676.281 428.678 678.216C430.216 680.2 431.683 681.189 432.059 680.876C433.128 680.37 442.851 687.438 446.291 690.755C447.523 692.007 450.566 698.891 454.179 706.309C457.586 713.679 464.228 722.216 467.625 724.861C470.83 727.343 473.872 729.98 473.577 730.517C473.247 731.177 468.932 728.7 464.788 725.223C456.286 718.465 440.087 705.154 440.706 707.604C441.055 709.45 437.218 707.183 431.983 702.596C426.551 697.65 420.711 692.146 412.45 680.041C404.736 668.135 402.759 661.655 400.571 655.107C398.624 648.798 397.653 643.328 397.311 639.203C397.074 633.588 397.045 623.663 401.277 607.563C401.298 609.498 401.444 611.213 401.65 612.515C403.233 621.748 405.843 622.967 407.631 623.85C407.965 625.353 407.692 624.331 407.082 622.776C406.444 621.065 405.559 618.939 403.971 614.442C403.536 613.18 403.04 611.731 402.41 609.604C398.758 597.486 396.917 588.343 396.256 587.338C395.618 586.469 393.334 587.783 391.132 590.203C388.98 592.886 387.446 594.002 387.572 592.648C387.702 591.304 386.195 589.759 384.134 589.322C380.045 588.193 371.877 578.756 369.294 572.454C367.685 568.809 367.796 568.64 371.651 571.36C373.799 573.04 378.365 574.091 381.783 573.708C386.673 573.184 388.327 573.796 390.275 577.587C391.703 580.119 393.031 581.594 393.3 580.854C393.569 580.117 391.75 576.676 389.302 573.522C385.691 568.86 384.337 564.837 382.919 557.609C381.017 548.225 381.617 547.634 385.26 552.556C392.348 563.156 395.404 572.62 395.497 578.73C395.699 587.481 398.132 589.121 398.901 581.005C399.459 570.776 401.762 547.679 401.116 544.285C400.526 539.821 398.646 537.259 395.21 535.795C394.347 535.264 393.392 534.786 392.341 534.356C389.562 533.255 387.606 532.042 387.866 531.576C388.097 530.987 387.088 530.041 385.549 529.53C381.854 527.883 370.736 515.276 372.791 514.514C374.188 514.046 367.57 500.443 364.77 498.371C360.88 495.431 361.34 494.731 366.188 496.505C368.662 497.37 373.417 498.254 376.836 498.367C387.868 498.978 388.958 499.867 389.62 506.938C390.031 510.372 390.765 514.327 391.399 515.845C392.702 518.593 392.563 518.594 387.038 518.298C384.02 518.167 379.986 517.76 378.21 517.164C376.36 516.726 375.075 516.792 375.291 517.389C375.808 518.777 385.345 520.573 389.966 520.164C394.355 519.891 396.319 521.943 398.467 530.41C399.134 533.116 399.673 534.548 400.007 534.732C400.07 534.757 400.127 534.745 400.177 534.695C400.412 534.385 400.407 532.825 399.897 530.056C399.495 527.9 399.483 525.042 400.005 523.733C401.426 520.035 401.217 512.996 399.918 513.43C399.219 513.665 399.116 514.897 399.59 516.379C400.598 519.509 398.239 524.235 397.19 521.514C394.615 514.494 391.94 507.42 391.235 504.652C391.011 503.525 390.778 502.396 390.534 501.265C391.687 502.022 392.835 502.791 393.978 503.572C395.916 504.812 396.744 505.275 395.873 504.375C394.947 503.345 394.901 502.899 395.798 503.166C397.551 503.547 401.954 510.93 403.908 517.418C404.641 519.757 404.541 525.632 403.534 530.451C403.288 531.718 403.076 532.931 402.902 534.091C401.66 539.058 401.659 543.597 403.336 547.228C404.142 548.882 405.737 548.767 414.179 545.822C420.108 543.624 425.079 540.825 426.301 538.972C427.017 537.906 427.726 536.842 428.424 535.772C427.185 534.513 425.932 533.31 424.669 532.175C423.744 531.316 422.958 530.559 422.265 529.8C420.002 527.05 418.727 524.14 416.591 518.283C414.977 514.365 415.06 515.849 410.878 531.66C410.81 531.898 410.741 532.134 410.672 532.369C407.692 539.823 404.452 546.498 404.089 546.275C403.456 545.665 405.699 539.209 408.263 532.903C409.562 528.48 410.931 523.63 412.179 519.385C415.659 506.923 414.929 497.106 411.811 496.221C410.611 495.857 408.556 496.017 407.188 496.568C405.819 497.114 402.579 496.616 400.071 495.404C398.55 494.745 397.028 494.104 395.503 493.48C397.396 492.597 399.289 491.714 401.181 490.829C405.903 488.758 407.625 488.669 410.256 490.787C413.396 493.212 413.399 493.22 410.934 490.5C409.641 489 407.514 485.658 406.256 482.952C405.012 480.239 402.092 476.215 399.923 474.151C398.602 472.825 397.268 471.51 395.925 470.215C396.874 472.077 397.803 473.949 398.707 475.823C399.647 477.678 400.565 479.541 401.459 481.411C399.19 480.084 396.912 478.797 394.624 477.548C390.762 475.371 387.223 474.008 386.576 474.357C386.037 474.652 388.155 476.24 391.332 477.856C394.58 479.604 397.334 481.341 397.602 481.895C397.803 482.311 395.476 483.425 392.516 484.356C389.114 485.506 387.919 486.419 389.124 486.655C390.329 486.892 393.357 486.113 395.911 484.903C399.459 483.217 401.24 483.221 403.17 485.061C405.624 487.18 405.451 487.429 398.986 489.814C392.514 492.221 392.156 492.193 387.384 488.141C381.225 483.008 379.974 481.079 382.966 480.664C384.26 480.493 383.701 479.94 381.205 479.423C379.105 478.864 375.369 477.898 372.947 477.092C369.171 475.881 369.027 475.654 371.128 475.117C372.517 474.824 376.794 472.904 380.719 470.861C385.678 468.402 388.919 467.64 391.329 468.446C394.649 469.642 395.337 469.644 397.609 468.418C399.246 467.474 409.48 475.196 411.083 478.771C411.913 480.515 413.723 487.67 414.607 494.608C415.522 501.545 416.028 507.388 416.081 507.537C416.175 507.827 418.299 504.054 420.721 498.899C425.313 488.986 425.099 483.012 421.106 483.354C418.342 483.47 417.553 482.245 417.57 478.445C417.579 476.996 418.588 475.972 419.801 475.956C422.303 476.058 425.501 482.215 425.538 487.229C425.58 490.26 426.365 490.272 434.735 487.719C440.065 486.169 445.912 485.606 448.733 486.476C451.551 487.339 453.826 487.494 453.984 486.849C455.539 484.328 424.995 434.756 420.556 432.778C419.005 431.422 413.194 427.928 407.627 424.911C397.678 419.816 397.568 420.03 396.32 424.009C394.718 429.492 387.86 431.817 381.625 429.366C378.893 428.259 373.599 426.394 369.778 425.388C367.393 424.723 365.007 424.079 362.62 423.456C364.993 421.705 367.366 419.956 369.74 418.207C380.182 410.634 380.188 410.614 385.112 412.253C386.617 412.691 388.123 413.138 389.629 413.594C386.132 409.125 382.544 404.716 378.879 400.367C366.349 385.669 356.152 378.902 345.51 376.858C340.686 375.955 338.644 376.478 335.133 379.735C331.686 382.704 329.088 383.506 324.189 383.315C320.69 383.179 317.011 382.347 316.204 381.508C315.4 380.668 312.955 380.255 310.826 380.707C306.858 381.557 306.843 381.368 311.004 375.432C313.786 371.075 316.177 368.95 319.087 368.237C323.72 366.988 333.411 369.253 336.322 372.369C337.372 373.484 340.42 374.59 343.252 374.763C344.866 374.822 346.481 374.886 348.099 374.956C345.343 372.365 342.567 369.797 339.767 367.246C330.737 358.771 324.566 355.431 322.66 357.327C319.945 359.993 310.128 361.612 306.95 360.027C301.687 357.402 295.75 355.24 293.262 354.888C287.877 354.133 288.534 353.403 301.341 345.784C305.945 343.224 315.604 345.903 321.084 351.389C323.764 354.065 327.263 356.39 329.796 357.05C333.693 358.052 333.791 357.978 333.727 353.69C333.685 349.608 333.431 349.355 331.094 349.958C329.646 350.415 329.017 351.526 329.582 353.15C330.763 356.105 328.419 354.055 326.163 350.219C325.015 348.196 325.236 347.722 326.982 348.429C332.205 350.565 328.223 345.953 319.415 340.058C314.096 336.558 309.2 332.887 308.618 331.99C307.91 330.974 311.232 332.778 315.944 336.155C323.565 341.524 324.309 341.781 322.148 338.266C320.963 336.239 319.496 332.751 318.886 330.623C317.989 327.021 317.859 326.9 317.207 329.342C316.294 332.047 312.922 331.517 310.838 328.164C308.707 324.602 312.468 322.411 315.837 325.467C317.351 326.92 318.111 327.142 317.61 326.148C316.897 325.121 316.818 323.685 317.328 323.153C317.837 322.62 318.681 324.277 319.298 326.921C320.909 334.092 326.526 343.24 331.497 346.874C333.842 348.707 343.229 353.859 352.107 358.493C364.841 365.299 367.706 366.635 364.993 363.591C357.76 355.613 353.934 347.869 352.824 338.26C352.173 333.184 351.653 328.646 351.916 328.388C352.176 328.128 355.727 331.181 359.896 335.144C370.005 344.908 373.087 353.882 368.465 359.007C365.366 362.545 365.493 362.652 370.143 366.57C372.659 368.833 378.085 372.803 381.996 375.335C384.427 376.935 386.851 378.556 389.267 380.203C388.691 378.665 388.108 377.13 387.517 375.595C386.568 373.113 383.007 367.399 379.474 362.841C373.764 355.645 372.877 353.81 372.102 347.159C371.76 342.808 372.25 338.851 373.593 337.588C374.847 336.412 376.3 333.292 376.591 330.74C377.098 328.239 377.885 326.216 378.534 326.362C380.077 326.688 386.9 341.049 387.037 344.379C387.141 345.776 386.572 348.267 385.779 349.96C384.4 352.661 384.269 352.309 383.902 346.224C383.466 341.172 382.906 339.669 381.734 340.751C380.921 341.5 380.818 344.833 381.503 348.151C382.8 353.617 382.722 353.91 380.415 351.343C378.955 349.724 377.398 348.93 376.854 349.427C376.219 350.008 377.381 351.64 379.714 353.685C382.381 355.919 383.733 358.375 384.372 361.905C385.11 366.304 385.24 366.658 386.139 364.689C386.595 363.338 387.722 361.637 388.437 360.774C389.457 359.889 389.402 359.451 388.089 359.626C385.682 360.034 384.494 354.789 386.598 352.909C387.425 352.176 388.227 349.747 388.218 347.528C388.357 344.188 388.625 343.936 390.108 345.588C392.978 348.761 393.233 361.04 390.48 365.027C386.224 371.307 388.027 375.189 400.009 392.077C405.894 400.264 411.192 407.558 412.217 408.161C413.339 408.474 413.538 408.114 412.806 407.079C410.791 404.14 409.96 387.122 411.076 378.106C412.031 371.187 411.562 368.637 408.468 363.905C400.122 351.362 399.056 347.172 401.658 336.757C402.567 333.162 402.315 329.035 401.178 327.243C400.044 325.453 399.521 323.617 399.972 323.201C401.66 321.563 420.374 345.259 421.055 350.023C421.346 352.29 422.395 354.921 423.126 355.82C424.961 358.069 422.622 362.425 418.092 365.807C415.168 367.665 414.056 370.767 413.45 376.953C413.103 379.76 412.734 382.557 412.342 385.343C414.174 386.118 416.005 386.906 417.836 387.709C424.503 390.626 429.891 397.791 429.168 402.399C428.915 404.407 430.153 409.911 431.86 415.036C435.135 424.972 437.474 437.577 437.348 443.275C437.188 446.522 439.249 449.24 448.886 466.895C459.505 487.217 461.867 492.98 460.57 484.83C460.257 482.546 460.356 481.096 460.903 481.494C461.563 481.849 462.131 484.063 462.135 486.264C462.21 488.648 465.619 499.996 468.731 512.639C469.243 514.697 469.749 516.894 470.228 519.171C472.835 531.376 473.495 544.617 473.647 551.487C473.77 559.874 474.87 571.381 476.388 577.101C477.331 580.645 478.401 584.044 479.631 587.302C480.02 585.385 480.465 583.491 480.954 581.605C483.98 569.384 497.137 552.596 505.522 546.698C508.188 544.946 508.601 543.764 507.919 537.384C507.397 532.571 507.714 526.39 508.73 520.709C509.671 514.954 510.11 512.244 512.016 509.911C513.078 508.77 514.558 507.702 516.71 506.232C517.727 505.537 518.741 504.838 519.753 504.135C519.782 505.484 519.803 506.833 519.814 508.183C519.936 511.222 519.969 514.166 519.933 517.025C519.77 524.485 519.626 530.708 520.032 531.972C520.416 533.212 521.303 529.763 521.489 523.472C521.741 518.025 522.301 511.754 522.843 507.512C523.531 503.905 524.353 502.223 524.953 504.804C525.311 506.375 526.561 506.344 528.649 504.438C531.426 501.987 532.336 501.737 531.966 505.49C531.896 506.922 531.692 508.81 531.335 511.171C530.751 515.189 530.351 519.636 530.609 521.349C531.046 523.984 523.059 533.305 519.943 534.371C519.577 534.413 518.159 536.074 516.844 537.646C515.407 539.233 514.017 540.157 513.733 539.791C513.444 539.416 513.307 535.474 513.151 530.402C513.122 525.322 512.433 521.266 511.909 521.848C511.542 522.626 511.595 527.629 511.713 532.762C511.823 537.727 511.299 542.611 510.815 543.964C510.103 545.542 510.17 546.257 511.27 546.156C514.227 546.101 530.626 555.246 530 556.096C529.34 558 522.72 558.501 519.34 556.925C517.781 556.206 514.829 553.85 512.789 551.829C509.488 548.211 508.732 548.019 505.472 550.107C497.197 555.604 483.883 574.406 482.522 586.601C482.35 586.862 482.27 587.319 482.237 587.813C481.991 590.288 483.801 596.74 485.43 602.453C486.157 605.691 487.666 609.008 486.823 617.602C486.759 617.225 486.607 617.531 486.518 617.932C486.422 618.348 486.357 618.898 486.297 619.39C486.037 621.729 486.538 623.276 487.015 623.187C487.541 623.181 488.056 621.581 489.159 619.321C489.914 617.939 491.365 616.466 492.67 618.289C495.146 607.404 495.076 603.734 496.068 599.595C496.877 595.789 497.794 593.2 498.787 591.778C503.004 586.229 511.145 584.63 516.889 594.533C519.531 599.43 522.121 607.769 522.792 607.923C523.465 607.735 522.044 599.59 519.419 594.953C517.938 592.077 516.508 589.887 515.14 587.977C516.78 587.975 518.426 588 520.082 588.066C523.227 588.459 527.351 590.142 531.199 599.132C532.836 603.026 533.886 607.35 534.31 609.443C534.721 611.567 534.745 610.631 534.042 606.847C531.574 596.64 530.14 594.801 530.257 593.386C530.342 592.36 531.763 592.873 534.616 596.792C537.432 600.384 540.661 606.174 541.781 605.232C543.026 605.094 541.198 598.995 537.638 595.057C532.351 589.592 531.401 588.472 531.446 584.084C531.443 579.768 531.359 579.972 530.286 582.919C529.275 585.744 527.154 585.946 522.458 584.689C518.875 583.69 514.055 584.097 511.739 584.914C509.311 585.784 508.109 586.251 507.409 585.577C506.743 584.986 506.41 582.855 506.463 580.445C506.502 579.639 506.898 578.968 507.788 579.347C509.844 576.306 514.735 573.608 518.289 573.482C521.533 573.294 521.508 573.288 517.379 576.334C517.209 576.466 517.042 576.601 516.876 576.737C514.112 575.786 512.964 579.039 513.14 580.131C513.288 581.607 514.37 579.929 515.956 577.443C517.02 575.864 518.255 575.331 519.647 575.941C522.361 573.918 524.475 573.565 527.485 573.691C527.749 573.185 528.046 572.769 528.401 572.48C530.178 570.877 533.665 573.314 535.187 575.336C539.162 580.241 546.111 590.183 550.262 594.84ZM388.798 512.112C385.613 505.541 383.996 503.497 382.796 502.81C381.962 502.415 382.176 503.22 383.244 504.855C384.724 507.23 383.846 506.913 377.951 503.965C375.616 502.758 373.268 501.594 370.91 500.471C372.858 501.781 374.791 503.121 376.706 504.492C379.942 506.752 383.978 509.674 385.903 510.994C387.83 512.305 389.19 512.845 388.798 512.112ZM482.868 623.93C482.793 622.687 482.697 621.287 482.686 619.947C482.663 618.658 482.804 617.196 482.977 617.151C483.732 608.061 481.8 604.35 480.491 599.654C479.077 595.346 477.201 590.902 476.268 588.397C475.055 584.866 473.941 581.264 472.885 577.746C469.779 566.746 468.703 565.149 454.283 556.83C439.137 547.683 427.2 545.111 418.291 547.21C403.23 551.307 400.581 552.037 403.251 576.414C404.062 583.32 407.271 596.671 411.532 606.985C413.678 612.863 414.767 614.316 415.717 615.964C416.634 617.427 417.246 618.124 417.636 618.36C418.063 618.46 419.312 617.197 419.898 614.508C421.076 610.521 422.703 605.868 425.261 603.043C427.117 601.738 429.26 601.156 431.559 601.235C435.22 602.117 439.244 603.955 442.977 606.087C449.744 609.876 450.895 611.316 447.389 612.422C446.097 612.818 445.183 613.607 445.316 614.085C445.555 614.915 444.731 615.913 443.49 615.755C442.248 615.7 440.792 614.226 439.95 614.858C439.498 615.167 439.091 615.175 438.779 614.844C438.481 614.491 438.217 613.841 438.383 611.917C438.343 612.211 438.308 612.513 438.278 612.821C437.814 619.535 437.298 619.943 433.511 617.297C432.275 616.26 430.564 614.323 429.26 610.847C427.274 613.871 425.816 616.109 424.747 617.555C423.401 619.181 422.065 620.088 420.658 620.755C421.197 619.777 420.676 618.989 421.946 609.988C421.853 611.72 421.848 613.302 421.896 614.76C422.461 629.395 428.865 639.222 433.992 645.58C442.506 655.55 445.267 656.74 444.472 651.836C444.211 648.862 445.187 644.225 446.459 641.035C448.509 636.003 449.585 636.136 456.583 637.57C463.336 638.732 464.278 637.758 466.876 633.86C467.884 632.435 468.95 631.083 470.061 629.796C468.031 628.708 466.032 627.451 464.087 625.982C460.83 623.434 459.511 621.063 460.805 621.636C462.018 622.383 462.951 622.009 462.828 620.958C462.704 619.905 461.527 618.645 460.293 617.89C459.343 617.401 458.396 616.303 457.804 614.197C455.224 615.575 452.041 609.859 448.541 600.877C448.146 599.71 447.739 598.422 447.314 596.711C444.574 585.028 445.729 572.435 447.345 581.478C447.889 583.953 451.018 589.923 454.887 594.536C455.082 594.797 455.286 595.068 455.483 595.302C462.39 603.074 464.136 604.207 465.564 613.396C465.613 614.11 465.591 614.704 465.528 615.103C465.205 625.627 466.845 625.686 471.517 628.359C474.475 629.989 478.671 632.498 480.689 633.454C480.756 633.493 480.822 633.53 480.885 633.563C484.18 635.703 485.033 635.387 483.84 631.557C483.739 630.337 483.09 627.702 482.868 623.93ZM439.272 567.183C439.332 567.735 436.934 568.383 433.861 568.537C430.809 568.877 428.431 569.721 428.519 570.492C428.884 573.567 422.676 574.413 417.782 571.737C414.211 569.745 411.766 566.536 409.712 561.757C408.111 557.858 406.72 554.842 406.548 554.362C406.259 553.892 409.512 553.088 413.635 552.354C420.815 551.311 428.01 552.938 428.287 555.903C428.368 556.766 430.829 559.378 433.765 561.655C436.716 564.106 439.189 566.447 439.272 567.183ZM440.149 612.023C440.443 609.891 438.985 610.547 433.499 614.592C427.236 618.363 424.424 619.052 424.696 614.042C424.704 612.097 424.572 610.83 424.408 610.96C424.231 611.061 424.029 612.574 423.422 614.851C421.996 619.218 421.834 618.84 424.318 618.904C425.719 618.832 427.975 619.106 429.283 618.795C430.361 618.564 430.855 618.052 431.072 618.034C431.278 617.977 431.209 618.413 430.835 618.419C430.317 618.356 430.167 617.746 430.67 617.609C431.155 617.41 432.293 617.661 433.813 617.668C435.171 617.538 435.989 617.264 435.989 617.265C435.967 617.157 435.269 616.927 434.562 617.14C433.968 617.296 433.682 617.168 433.878 616.546C434.103 616.019 435.557 614.932 437.073 614.431C438.59 613.935 440.076 612.941 440.149 612.023ZM431.668 565.374C431.611 564.82 429.007 564.712 425.829 565.033C422.53 565.369 419.012 564.773 417.943 563.938C416.611 562.943 417.311 562.51 420.438 562.948C423.2 563.425 425.241 562.845 425.608 561.528C426.098 560.202 424.964 559.952 422.325 560.745C418.987 561.977 418.724 561.811 421.034 560.14C424.818 557.082 423.973 555.951 419.783 558.641C417.225 560.313 415.251 560.319 412.794 559.115C409.698 557.651 409.841 557.902 414.079 562.263C418.067 566.531 420.042 567.556 425.412 566.972C428.833 566.611 431.725 565.929 431.668 565.374ZM334.326 374.012C332.597 373.061 324.724 372.637 325.539 373.495C326.123 374.105 324.85 375.085 322.556 375.886C320.44 376.518 318.793 377.64 318.758 378.136C318.927 378.667 321.358 378.186 324.212 377.086C328.775 375.288 329.398 375.412 328.687 377.699C327.948 379.781 328.534 379.687 331.22 377.164C333.126 375.605 334.531 374.052 334.326 374.012ZM317.542 354.449C323.84 355.199 319.915 353.497 312.22 352.281C308.061 351.627 304.3 351.565 303.787 352.094C303.188 352.71 304.798 353.25 307.135 353.307C311.307 353.447 311.427 353.57 310.478 355.74C309.665 357.529 309.785 357.647 311.636 356.023C312.847 354.802 315.461 354.107 317.542 354.449ZM371.337 393.408C374.404 397.124 374.749 398.167 372.972 398.505C371.587 398.748 371.518 399.245 372.855 399.92C374.084 400.466 373.818 401.117 372.158 401.796C370.583 402.191 370.032 403.073 370.945 403.425C374.11 405.029 370.819 405.002 364.09 403.549C357.849 402.15 356.145 401.008 349.885 394.693C343.592 388.41 342.965 387.606 345.601 387.959C347.23 388.309 349.799 388.064 351.445 387.518C353.09 386.969 357.286 386.903 360.954 387.585C366.033 388.406 368.376 389.835 371.337 393.408ZM469.844 560.745C470.137 559.86 470.117 539.55 466.204 520.063C463.639 507.566 460.045 496.78 458.869 494.502C456.002 488.983 447.459 487.633 436.542 490.699C427.209 493.48 426.775 493.956 422.811 500.699C418.674 507.771 418.689 510.393 423.506 508.895C429.027 507.024 435.417 517.615 432.356 523.687C430.546 527.256 430.543 527.227 429.773 523.978C429.368 522.27 427.146 519.051 424.848 517.241C420.971 513.927 420.853 514.009 421.638 517.169C422.149 518.958 424.096 521.491 425.823 522.836C427.903 524.331 429.122 526.243 429.18 528.268C429.181 528.342 429.18 528.417 429.177 528.493C429.177 530.151 429.818 530.096 431.539 527.745C432.233 526.697 433.101 525.222 434.148 523.257C436.754 518.297 438.504 513.605 438.275 512.801C438.048 511.995 438.452 511.182 439.042 511.011C440.793 510.473 440.138 516.813 436.813 525.488C436.65 525.899 436.497 526.296 436.355 526.678C434.978 530.033 434.502 532.138 435.406 532.126C436.372 531.949 434.96 533.8 432.328 536.077C429.58 538.371 427.323 540.981 427.175 541.783C427.05 542.731 430.041 543.952 433.568 544.547C437.239 545.236 446.809 549.359 454.632 553.971C462.579 558.553 469.424 561.484 469.844 560.745ZM291.383 314.752C295.859 316.873 304.657 325.818 305.268 328.962C305.635 330.836 295.397 333.301 291.338 332.355C288.956 331.825 285.223 328.369 269.671 313.137C268.309 311.782 266.95 310.431 265.592 309.085C269.14 309.657 272.702 310.247 276.265 310.845C282.136 311.889 288.884 313.605 291.383 314.752ZM297.56 323.706C295.78 322.034 292.911 320.028 291.089 319.173C288.12 317.755 288.037 317.847 290.08 319.744C292.036 321.733 291.49 322.06 285.628 321.98C283.423 322.056 281.221 322.139 279.023 322.226C281.211 322.575 283.402 322.929 285.596 323.291C289.231 323.985 292.331 323.689 292.625 322.619C292.958 321.753 293.463 321.721 293.846 322.583C294.228 323.445 296.045 324.81 297.607 325.437C300.385 326.535 300.353 326.333 297.56 323.706ZM464.582 650.947C465.304 647.68 465.366 646.055 464.779 647.55C464.08 648.886 461.957 652.385 459.824 655.229C457.767 657.978 456.946 659.887 458.028 659.27C461.15 657.26 461.376 657.178 464.402 657.888C465.972 658.204 466.462 658.015 465.328 657.646C464.403 657.331 463.949 654.135 464.582 650.947ZM392.108 425.483C393.336 424.438 394.176 417.753 392.866 418.678C392.167 419.178 390.172 418.922 388.277 418.403C386.48 417.81 384.09 417.673 383.101 418.195C382.011 418.579 379.636 419.499 377.662 420.344C376.477 420.808 375.293 421.276 374.11 421.746C375.36 421.776 376.61 421.812 377.862 421.853C380.728 422.014 381.524 422.484 380.821 423.816C380.222 424.663 380.917 424.366 382.112 423.086C385.192 420.013 386.9 420.675 386.457 424.712C386.213 427.764 386.207 427.763 387.535 425.596C388.252 424.268 389.564 422.297 390.367 421.096C391.967 419.112 391.977 419.116 391.551 422.551C391.331 424.579 391.503 425.904 392.108 425.483ZM368.364 398.298C369.287 397.105 368.231 396.181 363.192 394.192C359.795 392.824 355.816 391.784 354.336 391.951C351.949 392.011 351.969 392.213 355.251 393.389C357.096 394.024 360.689 395.406 363.234 396.153C364.696 396.624 366.158 397.102 367.62 397.588C366.614 397.976 365.609 398.367 364.605 398.759C361.972 399.625 361.985 399.832 364.373 399.828C365.965 399.828 367.725 399.263 368.364 398.298ZM398.401 396.03C386.327 380.571 386.163 380.541 371.113 371.377C362.756 366.489 353.191 361.063 349.836 358.947C344.182 355.643 343.885 355.714 344.171 359.035C344.63 363.626 343.245 364.664 339.512 363.227C335.124 361.478 347.007 371.721 356.997 378.961C359.576 380.815 362.142 382.691 364.696 384.589C363.791 382.409 362.87 380.23 361.934 378.052C359.637 372.675 359.575 372.25 361.913 375.987C366.482 382.883 389.876 410.347 394.949 414.631C397.476 416.645 403.692 420.128 408.883 422.591C412.015 424.098 415.141 425.656 418.257 427.265C416.962 424.704 415.636 422.153 414.281 419.613C411.931 415.383 404.966 404.731 398.401 396.03ZM461.709 613.222C462.757 614.041 463.556 614.372 459.831 606.96C457.768 603.161 457.313 602.732 458.209 605.613C458.602 606.872 458.964 608.1 459.27 609.276C457.865 608.427 456.424 607.591 454.959 606.74C450.559 604.283 450.642 604.378 455.746 608.301C458.556 610.472 461.158 612.616 461.709 613.222ZM331.918 331.335C335.096 331.86 342.546 339.155 342.418 341.499C342.248 344.134 337.631 345.206 333.884 343.524C331.22 342.239 330.07 340.914 328.837 337.443C327.078 332.768 328.106 330.686 331.918 331.335ZM304.369 303.34C304.237 297.52 304.596 296.35 305.908 298.568C306.788 300.22 309.597 303.67 311.918 306.352C317.557 312.476 319.245 320.909 315.218 321.306C311.652 321.464 306.598 317.693 305.37 313.852C304.847 312.351 304.482 307.636 304.369 303.34ZM339.696 290.675C339.96 290.928 342.301 295.007 345.095 299.92C351.021 310.434 350.616 314.942 343.72 320.891C339.102 324.8 339.05 324.878 342.548 333.421C344.715 339.256 348.075 344.607 352.862 350.528C355.166 353.365 357.455 356.224 359.714 359.093C357.423 356.733 355.111 354.384 352.789 352.056C347.229 346.396 344.96 342.988 340.541 333.671C337.563 327.387 335.975 322.926 337.034 323.616C338.307 324.352 338.112 322.776 336.595 319.745C332.426 311.042 332.151 304.867 335.97 297.472C337.938 293.578 339.564 290.55 339.696 290.675ZM361.857 343.945C361.669 340.177 361.218 339.356 359.977 340.545C359.091 341.395 359.261 343.705 359.985 345.719C361.389 348.812 361.147 349.277 359.091 348.528C357.334 347.744 357.613 348.211 360.042 350.075C362.438 351.729 362.953 352.469 361.75 352.617C360.725 352.6 360.519 353.279 361.123 353.928C363.291 356.264 365.831 352.491 364.969 348.147C364.133 344.02 364.002 343.89 363.165 346.402C362.434 348.315 362.041 347.712 361.857 343.945ZM315.477 295.555C324.849 301.108 328.105 304.731 329.995 310.962C330.626 312.872 331.254 314.785 331.878 316.7C330.214 316.115 328.552 315.537 326.892 314.964C321.027 312.91 316.286 307.387 312.114 298.13C311.17 296.021 310.222 293.912 309.277 291.811C311.339 293.049 313.415 294.305 315.477 295.555ZM430.586 418.956C427.326 407.137 426.769 406.505 421.993 402.841C417.91 399.606 416.524 397.904 414.772 393.464C414 391.665 413.215 389.869 412.419 388.076C412.516 390.168 412.599 392.255 412.668 394.338C413.021 405.532 417.367 417.559 424.957 429.851C433.486 443.898 436.053 446.327 434.826 437.538C434.265 434.065 432.554 425.645 430.586 418.956ZM343.079 309.254C344.104 306.139 344.101 306.137 341.621 308.694C340.253 310.105 338.671 312.507 338.368 314.097C337.849 316.677 337.975 316.801 339.82 314.654C341.021 313.423 342.395 310.988 343.079 309.254ZM515.465 613.484C513.605 614.428 510.469 616.162 508.178 616.725C504.681 617.553 504.338 617.265 506.315 616.591C511.297 614.814 509.885 615.203 504.049 616.687C498.713 618.13 498.294 618.496 500.805 618.315C501.806 618.228 502.532 618.281 503.077 618.473C503.349 618.566 503.577 618.695 503.755 618.814C503.93 618.927 504.069 619.05 504.062 618.967C504.073 618.872 503.934 618.526 503.685 618.079C503.882 618.245 504.102 618.434 504.151 618.375C504.219 618.342 504.119 618.062 504.079 617.811C504.251 618.001 504.406 618.176 504.532 618.306C504.906 618.697 505.058 618.497 505.286 618.322C505.501 618.13 505.745 617.916 505.972 617.824C506.25 617.697 507.1 617.512 508.125 617.006C509.108 616.457 510.442 615.722 510.637 613.357C510.65 613.349 510.664 613.341 510.677 613.333C513.291 611.957 516.808 611.43 517.226 610.963C517.751 610.442 516.311 610.429 514.289 611.203C513.642 611.444 513.026 611.722 512.483 612.104C512.452 612.991 512.249 613.671 511.961 614.219C513.093 613.804 514.221 613.39 515.347 612.98C516.524 612.577 517.697 612.173 518.871 611.78C517.739 612.354 516.603 612.922 515.465 613.484ZM497.419 472.937C503.703 485.22 504.921 490.273 504.944 502.513C504.867 505.932 504.542 508.97 503.997 511.688C503.395 515.654 502.328 518.868 500.903 521.583C496.814 528.54 496.597 531.402 497.188 544.72C497.266 547.205 497.322 549.601 497.374 551.91C497.091 549.334 496.803 546.646 496.486 543.85C495.497 536.535 494.458 533.834 489.324 527.666C483.726 520.906 479.538 513.905 484.34 518.607C486.548 520.653 487.421 519.758 486.881 515.481C486.728 514.234 486.436 512.683 485.992 510.83C483.203 498.943 483.593 485.529 487.761 484.064C488.693 483.755 490.507 479.451 491.543 474.389C492.163 471.416 492.742 468.422 493.28 465.409C494.688 467.889 496.068 470.398 497.419 472.937ZM466.293 363.823C468.016 362.847 461.994 372.577 456.34 379.72C452.623 384.289 447.146 383.405 440.267 377.742C437.385 375.472 433.937 374.166 431.376 374.652C425.007 375.618 424.768 376.277 430.811 379.42C436.266 382.254 447.71 396.276 447.845 399.983C447.78 401.832 433.696 395.198 429.806 391.776C428.513 390.597 426.235 386.623 424.86 383.153C423.988 380.963 423.098 378.774 422.196 376.595C421.281 377.219 420.367 377.843 419.453 378.468C417.878 379.442 417.163 379.521 417.692 378.399C418.337 377.426 422.407 375.456 426.752 374.057C433.732 371.859 434.831 371.072 435.134 367.627C436.198 359.193 445.382 356.224 457.924 361.739C461.675 363.294 465.373 364.229 466.293 363.823ZM497.159 499.92C498.423 494.801 496.435 481.154 494.751 481.727C494.516 481.806 494.452 485.826 494.499 490.633C494.549 495.436 494.219 499.411 494.103 499.445C493.865 499.509 493.048 496.495 492.274 493.045C491.129 487.963 490.667 487.027 490.481 489.69C490.276 491.493 490.879 495.611 491.759 498.799C493.288 504.394 493.19 504.62 490.528 501.277C489.04 499.549 487.989 499.002 488.372 500.378C488.7 501.556 490.217 503.905 491.692 505.227C493.559 507.087 494.173 509.086 494.013 511.674C493.691 514.73 493.141 514.387 490.411 509.771C486.083 503.081 486.718 505.822 490.918 513.017C491.203 513.511 491.459 513.978 491.687 514.416C494.201 519.653 493.431 520.885 490.07 517.198C488.779 515.868 489.597 517.767 491.52 521.434C492.664 523.603 493.764 525.768 494.826 527.904C495.153 525.921 495.448 523.887 495.705 521.807C496.137 517.569 496.575 514.689 497.348 513.161C497.986 512.064 498.815 511.726 499.894 512.06C500.871 512.494 501.095 511.791 500.453 510.631C499.69 509.499 498.397 509.373 497.583 510.209C496.767 511.043 496.315 510.717 496.435 509.617C496.507 508.312 497.382 507.238 498.337 507.005C499.292 506.774 500.118 505.484 500.284 504.129C500.345 502.362 499.695 502.315 498.052 503.822C497.221 504.54 496.387 505.253 495.551 505.963C496.108 503.961 496.645 501.951 497.159 499.92ZM416.607 348.729C416.087 347.16 415.681 347.254 415.08 349.015C414.251 351.464 414.137 351.315 413.348 346.974C412.919 344.577 412.072 343.034 411.514 343.515C410.956 343.996 409.682 343.082 408.835 341.549C407.294 338.852 407.205 338.937 408.034 342.5C408.541 344.578 409.561 346.704 410.366 347.266C411.14 347.604 411.695 348.633 411.626 349.69C411.433 350.602 410.2 349.902 408.504 348.114C406.185 345.612 406.256 346.056 408.802 350.351C412.46 356.943 411.478 358.463 406.421 353.62C404.28 351.491 404.926 352.418 407.91 355.565C410.894 358.715 413.394 362.542 413.561 364.111C413.726 365.678 414.263 363.797 414.544 359.881C414.945 356.113 415.639 352.543 416.298 351.99C416.863 351.518 417.097 350.072 416.607 348.729ZM508.068 560.087C511.073 559.291 511.481 559.765 511.453 562.585C511.502 566.778 505.615 568.099 505.045 563.809C504.78 561.685 505.66 560.648 508.068 560.087ZM454.856 368.558C456.501 366.854 456.732 365.921 455.522 366.556C453.717 367.626 453.382 367.373 453.701 365.119C453.962 363.407 452.44 364.039 449.272 367.396C447.703 369.061 446.131 370.722 444.556 372.38C444.482 370.213 444.395 368.043 444.295 365.87C443.968 359.347 442.88 360.953 442.986 367.604C442.961 369.614 441.856 371.423 440.321 371.831C438.886 372.167 438.316 372.839 439.198 373.405C439.865 373.886 443.088 373.696 446.172 372.917C449.373 372.296 453.329 370.426 454.856 368.558ZM548.119 492.368C548.594 492.247 548.371 494.866 547.665 498.335C547.48 499.257 547.3 500.575 547.127 502.13C546.9 506.826 546.562 512.953 546.312 517.6C546.047 524.508 544.407 531.957 542.883 535.085C541.39 538.49 540.855 540.669 541.665 541.375C542.596 542.064 541.645 545.08 539.372 548.483C535.122 554.373 533.038 554.546 523.792 549.435C521.432 547.947 517.944 546.266 516.162 545.694C515.103 545.364 514.043 545.032 512.983 544.697C514.007 543.787 515.028 542.863 516.046 541.92C518.644 539.506 519.766 539.588 523.701 541.946C526.192 543.45 530.82 544.123 534.123 543.813C536.074 543.566 538.025 543.319 539.975 543.071C537.89 542.765 535.803 542.454 533.716 542.139C530.341 541.693 526.034 540.548 524.201 539.525C523.116 538.965 522.028 538.399 520.939 537.828C522.332 536.587 523.717 535.311 525.093 534.001C527.439 531.792 531.629 529.657 534.676 529.277C537.724 528.903 540.292 527.638 540.534 526.635C540.743 525.391 539.214 525.101 537.119 526.113C533.456 527.52 533.485 527.45 537.719 521.546C540.083 518.163 542.338 513.087 542.695 510.397C543.045 507.7 541.799 509.505 539.256 514.127C533.413 524.746 531.785 524.575 532.63 514.757C532.84 510.644 533.573 507.084 534.626 504.9C535.734 503.073 537.137 502.39 538.496 503.432C539.423 504.211 541.828 501.962 543.846 498.723C545.808 495.25 547.761 492.457 548.119 492.368Z" fill="#FFDFC0" fill-opacity="0.35"/>
<path d="M374 941.61C375.934 939.355 376.564 941.796 375.422 948.09C374.254 954.512 367.928 961.762 364.108 961.847C363.005 961.872 360.307 963.287 358.308 965.073C356.288 966.857 354.74 968.277 354.489 968.29C354.241 968.301 353.799 964.017 353.556 958.74C352.868 946.617 353.922 943.892 364.809 943.278C369.142 942.941 373.474 942.239 374 941.61ZM370.51 943.897C370.332 943.779 368.256 944.435 365.992 945.464C363.73 946.372 362.992 947.128 364.092 947.102C365.539 947.071 365.21 948.428 362.947 952.043C358.063 960.526 359.818 960.468 365.321 952.113C368.287 947.627 370.868 944.013 370.51 943.897ZM411.367 781.067C412.951 778.476 413.356 779.216 424.204 786.097C428.478 788.709 433.272 791.462 436.491 794.016C434.745 796.554 434.687 798.677 435.837 800.008C433.404 800.465 430.24 800.672 427.377 800.673C418.003 800.765 409.133 807.209 411.9 806.759C413.559 806.597 417.254 804.321 426.235 802.274C428.532 801.855 431.186 801.433 435.675 801.491C433.298 800.587 432.446 799.968 431.854 799.307C432.009 801.394 432.158 803.483 432.292 805.573C432.605 808.979 432.494 811.161 434.406 813.114C425.339 814.319 420.011 816.443 413.572 819.052C406.557 822.294 406.551 823 407.981 825.736C410.869 830.475 416.811 835.003 426.948 837.649C428.239 837.972 429.646 838.317 431.596 838.85C431.263 839.357 431.601 839.927 432.066 840.458C431.879 837.551 431.796 834.641 431.866 831.735C432.442 823.639 431.774 822.648 432.142 818.218C432.399 816.361 432.892 814.973 433.704 813.68C434.4 812.414 436.06 811.086 436.15 809.846C436.106 809.629 435.94 809.447 435.504 809.368C436.89 807.503 439.576 805.467 439.566 805.468C439.726 805.538 439.998 807.937 440.007 810.687C440.066 813.55 440.928 818.066 441.8 820.885C443.15 824.547 443.018 826.714 441.827 829.767C441.863 829.939 441.878 830.121 441.873 830.311C441.877 832.397 438.764 835.05 436.883 835.765C430.591 837.634 430.405 842.599 445.772 847.705C446.468 847.927 447.069 848.115 447.565 848.279C452.875 849.186 453.365 848.62 452.442 846.297C452.016 845.144 452.065 840.289 452.484 835.634C452.925 828.188 452.61 826.971 450.301 826.19C446.588 825.021 445.314 820.646 447.266 817.214C448.199 815.508 448.531 812.827 448.092 811.144C447.354 808.38 447.646 808.554 452.764 811.493C455.798 813.347 458.578 815.403 459.01 816.287C459.392 817.056 458.532 820.219 456.936 823.36C454.341 828.438 452.917 834.667 454.093 837.64C454.361 838.326 455.134 838.151 455.7 837.521C456.417 836.83 456.324 835.004 455.753 833.645C454.134 830.012 458.512 825.647 466.316 819.864C467.961 818.563 469.493 817.191 470.288 816.223C471.131 815.225 471.051 814.803 470.682 814.8C470.481 814.809 470.251 815.011 470.252 815.19C470.239 815.381 470.472 815.523 470.899 815.7C471.772 816.012 473.198 816.857 473.23 819.611C472.417 828.933 468.782 832.412 461.909 835.535C455.288 838.488 452.102 843.132 454.791 846.729C455.952 847.997 459.777 849.816 463.605 850.733C465.932 851.264 468.289 851.753 470.664 852.205C470.809 850.61 470.936 849.018 471.047 847.429C471.09 843.175 480.353 826.094 478.344 823.601C477.665 822.959 475.95 825.179 476.485 825.359C476.485 825.359 476.485 825.359 476.485 825.359C476.694 825.504 477.342 825.21 478.114 825.041C478.869 824.888 479.659 824.98 480.152 825.496C481.18 826.509 480.992 828.994 479.861 831.866C478.086 836.677 475.033 843.185 474.588 845.998C474.302 847.784 473.983 849.575 473.642 851.367C476.331 852.949 479.074 854.48 481.888 855.942C491.803 860.894 498.372 868.249 496.921 878.025C496.167 884.687 488.833 901.554 484.919 905.729C480.88 910.141 481.558 907.831 486.299 898.746C488.664 894.252 490.228 889.853 489.918 889.185C489.585 888.522 484.905 891.825 479.226 896.248C474.623 899.902 469.319 903.263 465.165 905.058C463.53 905.702 462.418 906.073 461.663 906.274C459.923 906.705 460.839 906.011 464.821 903.949C467.329 902.382 470.614 900.199 474.23 897.688C490.55 885.649 491.139 883.716 491.098 877.573C490.667 865.87 481.429 859.786 466.429 855.674C457.508 853.177 453.611 852.828 449.712 855.206C449.1 855.592 448.433 856.056 447.706 856.592C440.581 861.515 441.283 869.249 454.03 870.781C454.201 870.788 454.374 870.796 454.547 870.804C458.15 871.153 462.23 872.361 464.041 873.569C468.851 876.866 470.527 879.858 461.414 892.956C458.539 895.682 455.828 898.353 452.651 901.259C451.202 902.614 448.39 904.405 444.292 906.238C439.735 907.953 436.186 910.357 423.746 910.747C426.603 911.364 427.377 911.594 427.876 911.924C428.321 912.235 428.274 912.555 428.053 912.901C427.581 913.591 426.397 914.374 424.986 915.198C421.871 916.867 419.085 918.592 411.968 920.477C408.141 921.666 404.451 922.627 401.082 923.343C386.894 926.282 385.272 926.603 389.406 927.324C392.946 927.875 402.551 927.639 412.697 926.246C420.303 925.153 422.884 924.431 425.596 923.795C428.076 923.168 428.99 922.757 428.992 922.35C429.016 922.117 428.94 921.798 428.285 921.429C427.556 921.033 426.535 920.718 422.751 919.865C427.552 919.777 430.425 919.145 432.696 918.582C441.461 916.484 451.868 914.299 466.653 909.858C471.014 908.441 474.037 907.494 476.207 907.184C479.54 906.71 479.674 906.925 477.113 910.255C475.508 912.3 472.954 913.973 471.854 913.951C470.686 914.004 469.23 914.836 468.536 915.932C468.373 916.101 468.234 916.272 468.122 916.443C467.075 917.801 463.925 919.816 461.47 920.743C457.784 922.192 457.786 921.662 459.749 918.989C460.685 917.862 461.651 916.712 462.651 915.533C460.643 916.964 458.833 918.279 457.043 919.551C454.391 921.723 448.967 923.831 445.051 924.231C438.103 924.715 439.042 924.586 448.576 919.467C461.215 911.571 457.386 912.831 443.121 920.106C437.474 922.724 429.658 924.802 422.258 924.376C423.228 924.538 423.901 924.616 424.366 924.647C426.095 924.75 426.303 924.906 426.108 925.219C425.802 925.507 425.191 926.011 422.056 926.225C423.026 926.51 424.124 926.798 425.154 927.067C432.303 928.883 435.944 930.147 436.485 930.902C437.333 931.494 442.534 932.228 447.477 931.991C454.025 931.922 455.789 931.252 455.544 929.823C455.004 927.173 449.741 926.984 444.641 929.214C442.233 930.327 439.794 930.852 439.767 930.485C439.738 930.117 438.634 929.082 437.482 928.03C435.497 926.615 437.77 926.163 443.965 925.578C448.252 925.165 452.882 925.176 454.536 925.758C460.335 927.499 465.861 928.633 472.363 928.279C477.426 928.695 479.784 928.739 479.759 928.114C479.5 927.42 476.865 926.68 473.358 926.517C472.804 926.493 472.282 926.463 471.789 926.428C466.336 926.715 464.744 925.989 464.569 925.434C464.555 924.798 466.061 924.285 470.748 923.071C473.136 922.492 475.985 921.968 479.259 921.507C489.147 919.996 496.233 917.443 494.033 916.682C493.172 916.385 490.649 916.662 488.74 917.309C486.881 918.056 489.206 916.633 494.027 913.872C502.607 909.066 502.377 909.273 491.15 914.44C483.134 918.075 479.787 918.803 481.03 917.444C483.893 914.106 482.096 913.11 478.904 916.404C476.697 918.558 473.645 920.571 470.404 921.959C464.654 924.14 462.136 924.298 463.025 922.903C463.807 921.735 466.135 920.45 469.591 919.336C469.663 919.312 469.736 919.288 469.809 919.266C472.102 918.548 473.338 917.596 473.206 917.124C473.106 915.92 481.924 909.831 485.705 908.196C487.114 907.619 493.792 907.762 500.92 908.039C507.97 908.406 516.698 907.192 519.842 905.882C522.767 904.608 525.845 903.654 526.184 904.165C526.579 904.787 523.254 906.784 519.264 908.344C511.39 911.498 495.885 919.698 498.06 920.287C500.453 921.329 490.862 927.466 473.809 932.944C454.891 938.343 445.799 937.97 436.734 937.285C433.747 936.849 429.592 935.981 421.241 933.688C427.937 933.261 428.533 931.729 429.276 930.579C430.061 928.842 429.329 927.2 428.331 925.644C427.1 925.846 425.169 926.189 422.842 926.616C420.363 927.053 418.138 927.534 412.952 928.262C412.793 928.284 412.633 928.306 412.474 928.328C401.187 929.858 392.006 930.861 391.033 931.422C390.249 931.956 391.173 934.37 392.989 936.849C395.023 939.314 395.789 940.984 394.697 940.685C393.612 940.384 392.212 941.693 391.689 943.688C390.426 947.587 382.068 954.708 376.371 956.791C373.068 958.098 372.909 957.977 375.57 954.353C377.189 952.349 378.408 947.892 378.312 944.454C378.188 939.54 378.859 937.933 382.279 936.346C384.568 935.163 385.92 933.997 385.311 933.654C384.703 933.31 381.615 934.779 378.673 936.948C374.303 940.142 370.712 941.185 363.66 942.075C354.252 943.289 353.325 942.635 358.814 939.372C370.003 933.062 378.316 930.738 383.653 931.258C391.162 931.943 392.718 929.747 385.873 928.099C377.473 926.412 355.682 922.612 351.489 922.928C347.265 923.128 344.255 924.388 341.895 926.885C340.737 927.959 339.686 929.254 338.709 930.787C337.074 933.421 335.393 935.217 334.92 934.9C334.304 934.598 333.091 935.481 332.251 936.944C329.855 940.462 313.328 949.583 312.949 947.367C312.735 945.96 296.299 949.992 293.326 952.251C289.096 955.462 288.491 954.852 291.725 950.467C293.33 948.217 295.536 943.722 296.522 940.381C299.949 929.648 301.002 928.793 308.608 929.421C312.319 929.634 316.693 929.557 318.443 929.168C321.638 928.312 321.635 928.442 320.208 933.869C319.459 936.839 318.156 940.771 317.106 942.435C316.216 944.197 315.995 945.48 316.705 945.363C318.386 945.076 322.393 935.894 322.806 931.253C323.362 926.849 325.9 925.281 335.358 924.222C341.993 923.534 341.905 922.432 335.199 922.757C332.815 922.89 329.758 922.518 328.455 921.817C324.744 919.912 317.353 919.01 317.556 920.356C317.667 921.085 318.943 921.386 320.593 921.147C324.06 920.64 328.688 923.64 325.598 924.293C317.646 925.841 309.612 927.233 306.562 927.416C305.332 927.43 304.1 927.449 302.865 927.474C303.917 926.484 304.975 925.497 306.038 924.515C307.751 922.834 308.403 922.1 307.282 922.795C306.013 923.519 305.539 923.481 306.011 922.647C306.795 920.998 315.344 918.002 322.469 917.034C325.045 916.668 331.176 917.61 336.173 919.194C337.978 919.745 339.693 920.209 341.317 920.582C346.61 922.015 351.17 922.242 354.776 920.946C356.545 920.268 356.531 918.67 354.218 910.027C352.459 903.945 350.046 898.764 348.266 897.384C347.243 896.578 346.22 895.777 345.19 894.982C343.771 896.1 342.384 897.228 341.028 898.369C340.459 898.834 339.92 899.258 339.394 899.648C335.818 902.164 332.703 903.167 325.499 904.609C321.285 905.581 322.581 905.924 338.495 912.045C339.216 912.334 339.922 912.622 340.612 912.908C348.165 916.447 354.105 919.786 353.851 920.122C353.23 920.667 347.347 918.296 340.836 915.346C335.976 913.404 330.527 911.181 325.921 909.137C313.646 903.894 303.846 902.695 302.298 905.592C301.69 906.701 301.423 908.749 301.691 910.199C301.957 911.649 300.768 914.739 298.976 916.961C297.969 918.323 296.97 919.689 295.98 921.057C295.518 919.02 295.055 916.983 294.591 914.946C293.572 909.89 293.872 908.192 296.545 906.045C299.627 903.454 299.631 903.454 296.405 905.322C294.637 906.287 290.846 907.673 287.875 908.308C284.902 908.934 280.242 910.86 277.667 912.478C276.034 913.449 274.406 914.429 272.785 915.417C274.862 914.95 276.94 914.496 279.017 914.055C281.086 913.574 283.156 913.106 285.226 912.651C283.369 914.568 281.531 916.496 279.712 918.433C276.576 921.687 274.275 924.792 274.451 925.507C274.6 926.103 276.759 924.428 279.185 921.711C281.763 918.957 284.166 916.661 284.783 916.523C285.246 916.42 285.8 918.939 286.009 922.039C286.327 925.618 286.952 926.988 287.494 925.862C288.037 924.735 287.99 921.603 287.389 918.842C286.551 915.003 286.98 913.269 289.262 911.781C291.938 909.839 292.145 910.055 293.065 916.886C293.995 923.724 293.898 924.09 288.573 927.888C281.775 932.792 279.449 933.529 279.833 930.521C280.001 929.219 279.298 929.636 278.108 931.947C276.98 933.862 274.972 937.271 273.47 939.431C271.173 942.808 270.888 942.89 270.952 940.714C271.055 939.291 270.331 934.657 269.377 930.336C268.296 924.906 268.418 921.574 269.847 919.439C271.899 916.516 272.071 915.847 271.451 913.341C270.977 911.535 281.022 903.463 284.858 902.673C286.757 902.258 294.171 902.069 301.257 902.536C308.343 902.986 314.338 903.451 314.498 903.426C314.808 903.38 311.367 900.665 306.712 897.338C297.766 891.001 292.04 889.906 291.519 893.888C291.057 896.612 289.68 897.131 285.988 896.277C284.581 895.946 283.813 894.731 284.064 893.546C284.72 891.138 291.315 889.386 296.191 890.356C299.146 890.927 299.322 890.152 298.433 881.449C297.944 875.921 298.462 870.087 299.765 867.494C301.064 864.903 301.583 862.701 301.007 862.423C299.191 861.042 246.619 878.637 243.384 881.748C241.733 882.846 236.984 887.391 232.652 891.784C225.161 899.717 225.276 899.86 228.65 902.266C233.324 905.447 233.591 912.677 229.411 917.871C227.55 920.137 224.187 924.591 222.041 927.902C220.67 929.958 219.311 932.018 217.966 934.081C217.06 931.275 216.156 928.469 215.252 925.663C211.384 913.356 211.371 913.35 214.384 909.222C215.246 907.938 216.113 906.656 216.983 905.376C211.782 907.27 206.602 909.221 201.439 911.224C183.944 918.106 174.369 925.128 168.913 934.313C166.451 938.48 166.235 940.564 168.038 945.001C169.597 949.275 169.454 951.981 167.577 956.472C166.233 959.681 164.173 962.802 163.119 963.244C162.065 963.685 160.817 965.808 160.482 967.951C159.865 971.946 159.678 971.894 155.681 965.852C152.651 961.669 151.542 958.669 151.901 955.713C152.383 950.962 157.804 942.818 161.665 941.238C163.052 940.666 165.101 938.237 166.22 935.664C166.82 934.184 167.425 932.704 168.034 931.225C164.718 932.864 161.435 934.51 158.136 936.182C147.291 941.464 142.084 945.892 143.151 948.366C144.643 951.868 142.69 961.541 140.097 963.886C135.836 967.761 131.719 972.422 130.52 974.575C127.892 979.253 127.47 978.366 125.096 963.679C124.394 958.473 130.251 950.608 137.179 947.602C140.544 946.139 143.91 943.76 145.377 941.667C147.637 938.437 147.6 938.32 143.665 936.789C139.936 935.307 139.609 935.449 139.352 937.831C139.267 939.339 140.061 940.334 141.742 940.416C144.855 940.421 142.164 941.832 137.877 942.48C135.634 942.782 135.283 942.399 136.53 941.055C140.287 937.032 134.714 938.999 126.269 944.872C121.207 948.449 116.15 951.536 115.123 951.729C113.944 951.993 116.782 949.627 121.495 946.587C129.073 941.608 129.531 941.024 125.595 941.679C123.34 942.002 119.648 942.028 117.504 941.775C113.934 941.218 113.765 941.296 115.757 942.826C117.894 944.696 116.218 947.597 112.434 948.226C108.45 948.814 107.791 944.525 111.754 942.603C113.607 941.769 114.077 941.155 112.998 941.236C111.814 941.498 110.484 941.021 110.18 940.349C109.878 939.677 111.676 939.539 114.295 939.981C121.351 941.254 131.661 939.533 136.678 936.308C139.17 934.829 147.089 928.093 154.301 921.554C164.765 912.234 166.871 910.021 163.218 911.455C153.566 915.301 145.23 915.982 136.136 913.428C131.319 912.133 127.034 910.903 126.89 910.564C126.746 910.226 130.704 908.116 135.69 905.749C147.895 900.076 157.013 900.447 160.174 906.584C162.384 910.731 162.526 910.661 167.614 907.737C170.489 906.209 175.861 902.557 179.391 899.792C181.615 898.082 183.853 896.378 186.096 894.685C184.515 894.697 182.937 894.711 181.351 894.732C178.79 894.763 172.48 896.085 167.208 897.741C158.843 900.477 156.886 900.62 150.599 898.918C146.543 897.647 143.136 895.73 142.431 894.027C141.778 892.436 139.434 889.946 137.228 888.732C135.138 887.337 133.575 885.859 133.918 885.316C134.721 884.031 149.856 883.031 152.892 884.098C154.185 884.509 156.254 885.936 157.534 887.281C159.541 889.528 159.175 889.532 153.56 887.666C148.866 886.232 147.324 886.198 147.924 887.675C148.338 888.701 151.32 890.013 154.535 890.584C159.893 891.363 160.14 891.535 157.076 892.746C155.141 893.514 153.924 894.664 154.198 895.347C154.519 896.146 156.371 895.666 158.973 894.241C161.856 892.573 164.502 892.2 167.91 892.86C172.138 893.734 172.505 893.731 170.996 892.202C169.91 891.302 168.72 889.653 168.161 888.683C167.678 887.422 167.263 887.317 167.011 888.599C166.625 890.981 161.496 890.21 160.463 887.582C160.062 886.553 158.116 884.939 156.11 884.145C153.137 882.81 152.997 882.47 154.955 881.696C158.72 880.198 169.887 884.332 172.656 888.285C177.02 894.424 181.175 894.235 200.19 888.624C209.417 885.815 217.594 883.086 218.432 882.304C219.031 881.341 218.755 881.041 217.602 881.409C214.328 882.422 198.537 877.704 190.709 873.587C184.728 870.354 182.296 869.918 177.111 871.158C163.303 874.548 159.159 873.989 150.628 867.82C147.683 865.678 143.91 864.401 141.955 864.788C139.998 865.175 138.185 864.981 137.955 864.411C137.072 862.298 163.953 853.639 168.367 854.61C170.479 855.139 173.136 855.083 174.152 854.716C176.694 853.793 179.923 857.469 181.653 862.852C182.475 866.212 184.939 868.323 190.355 870.978C192.793 872.249 195.223 873.53 197.639 874.822C198.866 873.362 200.101 871.905 201.345 870.449C205.874 865.156 213.777 862.372 217.761 864.485C219.515 865.353 224.845 865.89 229.95 865.799C239.833 865.685 251.945 866.927 257.179 868.539C260.121 869.501 263.204 868.468 281.499 863.207C302.383 857.386 307.937 855.775 300.214 855.581C298.049 855.446 296.726 855.055 297.184 854.601C297.623 854.026 299.758 853.908 301.793 854.323C304.006 854.706 315.053 853.52 327.174 852.21C329.619 851.942 332.254 851.695 334.971 851.483C345.921 850.607 357.635 850.795 364.006 851.143C372.097 851.607 383.602 851.46 389.61 850.662C393.318 850.139 396.954 849.541 400.536 848.845C398.628 848.155 396.735 847.438 394.849 846.698C382.616 842.006 366.578 827.819 361.581 819.005C360.091 816.216 358.92 815.73 352.956 815.917C348.466 816.062 342.942 815.212 338.101 813.586C334.87 812.553 332.788 811.857 331.241 810.865C329.34 809.52 328.335 807.643 326.605 803.853C326.101 802.751 325.594 801.65 325.085 800.55C326.846 800.794 328.606 801.047 330.363 801.309C332.205 801.539 334.015 801.788 335.798 802.053C342.107 803.057 347.68 803.702 348.845 803.407C349.998 803.122 346.894 801.982 341.442 801.186C337.576 800.551 333.401 799.556 330.115 798.608C325.869 797.196 323.477 795.776 326.169 795.502C327.555 795.365 327.643 794.123 326.205 791.795C324.064 788.199 324.261 787.522 329.256 789.247C330.004 789.47 330.841 789.737 331.767 790.05C335.032 791.127 338.774 791.99 340.261 791.904C342.494 791.752 350.202 800.513 351.009 803.693C351.021 804.061 352.437 805.608 353.801 807.041C355.172 808.596 355.946 810.051 355.584 810.307C355.215 810.564 351.516 810.414 346.962 810.127C342.41 809.716 338.872 809.965 339.33 810.548C339.98 810.996 344.328 811.454 348.988 811.762C353.48 812.069 358.061 812.943 359.322 813.527C360.778 814.352 361.476 814.337 361.453 813.233C361.503 810.278 371.849 794.591 372.906 795.293C374.918 796.101 374.817 802.74 372.858 805.985C371.958 807.482 369.282 810.244 367.123 812.131C363.288 815.158 363.087 815.9 364.89 819.303C369.809 828.398 389.658 843.915 402.102 846.309C402.261 846.344 402.429 846.377 402.605 846.409C404.809 847.055 410.832 846.633 415.32 845.975C419.066 845.544 422.97 844.772 430.846 845.719C430.975 845.882 431.704 846.072 432.289 846.23C434.783 846.862 436.664 846.67 436.69 846.182C436.82 845.664 435.125 844.848 432.75 843.395C431.882 842.801 431.078 842.04 431.33 841.284C422.497 838.798 419.281 837.564 415.341 835.788C411.725 834.116 409.136 832.431 407.912 830.976C403.648 825.719 404.184 817.593 411.245 813.797C414.748 812.158 418.569 810.306 418.544 809.574C418.465 808.959 414.767 809.687 411.587 811.391C409.714 812.358 408.046 813.324 406.508 814.277C406.641 812.679 406.783 811.081 406.94 809.48C407.326 806.445 409.259 802.983 413.989 800.424C418.065 798.213 420.765 797.315 417.501 798.321C413.149 800.038 411.525 800.776 410.799 800.509C410.161 800.243 410.62 798.988 412.696 796.745C414.626 794.519 416.878 791.716 416.418 790.527C416.299 789.303 413.858 790.646 411.726 793.524C408.756 797.876 407.802 798.529 404.851 797.623C401.828 796.74 401.921 796.854 403.961 798.513C405.869 800.073 405.936 802.175 404.659 806.488C403.636 809.766 403.411 814.537 403.809 816.961C404.232 819.506 404.481 820.772 403.846 821.313C403.324 821.834 401.365 821.734 399.647 821.112C399.525 821.053 399.423 820.975 399.378 820.876C395.191 819.442 391.438 812.854 392.182 808.581C392.659 805.327 392.732 805.337 395.846 809.816C396.63 810.872 397.505 811.888 398.344 812.7C398.505 813.848 399.582 814.527 400.146 814.575C401.36 814.752 400.039 813.355 398.457 811.231C398.186 810.815 398.021 810.402 398.001 809.988C393.516 805.153 393.437 802.7 395.567 798.101C395.801 797.64 396.056 797.166 396.321 796.695C395.57 794.991 397.592 792.949 398.842 792.134C403.112 789.407 409.422 784.612 411.367 781.067ZM313.92 931.131C306.234 933.162 303.698 934.328 302.685 935.387C302.067 936.133 302.971 936.078 304.957 935.33C307.813 934.306 307.317 935.123 302.741 940.381C300.881 942.453 299.042 944.539 297.224 946.636C299.135 944.98 301.06 943.337 303 941.707C306.221 938.947 310.272 935.48 312.101 933.802C313.927 932.121 314.784 930.865 313.92 931.131ZM436.503 850.401C434.509 850.153 431.648 849.914 430.433 849.499C418.368 848.399 410.954 850.765 403.308 851.971C398.777 852.725 394.205 853.457 389.837 854.217C378.529 856.084 376.862 857.117 367.816 870.847C358.014 885.286 354.533 896.99 355.94 906.033C358.654 921.409 360.363 923.895 382.222 923.319C389.094 923.13 402.718 921.008 411.716 918.481C417.699 917.054 419.176 916.101 419.988 915.512C420.234 915.096 418.945 913.696 416.161 912.654C414.33 911.827 412.5 910.878 410.62 909.814C405.414 905.244 404.931 898.875 408.484 892.914C409.725 891.373 410.939 889.855 412.267 888.397C417.47 882.433 419.389 881.385 420.003 885.022C420.208 886.357 420.982 887.357 421.7 887.252C424.38 886.847 427.146 890.577 426.709 892.34C426.52 893.341 427.088 894.034 427.251 894.03C427.323 894.032 426.815 894.245 426.553 894.905C426.274 895.565 426.423 896.718 426.804 898.572C427.383 901.051 428.022 905.171 427.579 907.677C427.39 909.217 427.067 910.778 426.679 912.357C427.284 911.947 427.778 911.564 428 911.216C428.199 910.864 428.211 910.564 427.255 910.247C426.717 910.085 425.983 909.917 423.887 909.459C436.03 909.219 441.704 905.614 446.559 902.882C455.025 897.497 455.504 896.228 452.437 894.918C450.494 894.059 447.263 891.748 444.956 889.71C441.321 886.474 441.461 885.473 443.865 879.07C446.011 872.902 445.568 871.719 442.658 868.197C441.603 866.864 440.586 865.513 439.607 864.146C438.188 865.884 436.681 867.59 435.02 869.239C432.177 871.988 429.736 872.951 430.473 871.756C431.36 870.674 431.156 869.694 430.13 869.653C429.553 869.627 428.845 869.929 428.153 870.382C427.993 870.774 427.804 871.276 427.675 871.808C427.128 875.867 420.531 879.873 408.136 881.942C407.822 881.983 407.459 882.027 407.112 882.063C395.759 883.282 381.314 880.706 390.591 880.016C393.056 879.753 399.335 877.207 404.285 874.008C404.877 873.643 405.435 873.298 405.963 872.973C413.05 868.56 414.723 867.619 423.847 866.819C425.94 866.673 427.579 866.684 428.546 866.786C434.983 867.165 435.619 866.063 438.546 862.415C440.668 859.849 444.059 856.441 446.172 854.809C450.788 851.118 449.534 851.553 436.503 850.401ZM376.576 886.622C377.098 886.608 377.519 889.053 377.429 892.128C377.514 895.197 378.112 897.639 378.827 897.619C381.682 897.53 381.93 903.79 379.148 908.423C377.074 911.803 374.015 913.97 369.413 915.66C365.663 916.964 362.63 918.137 362.151 918.272C361.674 918.527 361.115 915.223 360.689 911.058C360.178 903.821 362.276 896.764 365.133 896.704C365.967 896.686 368.624 894.421 370.977 891.668C373.498 888.913 375.88 886.642 376.576 886.622ZM417.964 892.19C415.692 891.569 415.986 893.138 419.433 899.168C422.754 905.85 422.305 908.9 416.744 907.831C414.627 907.495 413.268 907.387 413.371 907.574C413.439 907.765 414.969 908.249 417.345 909.225C421.964 911.323 421.844 911.345 422.676 908.849C423.037 907.422 424.355 905.105 425.196 903.631C426.643 901.217 426.659 901.091 424.983 902.049C422.389 903.41 422.012 902.35 424.451 899.021C425.354 897.537 425.457 896.663 424.764 896.75C423.928 896.858 423.33 897.567 423.44 898.296C423.525 898.904 423.048 899.22 422.146 898.985C421.389 898.728 420.364 897.151 420.111 895.574C419.858 893.998 418.983 892.396 417.964 892.19ZM374.32 894.051C373.798 894.064 373.51 896.65 373.583 899.843C373.66 903.159 372.86 906.618 372.01 907.62C370.994 908.87 370.635 908.14 371.261 905.055C371.897 902.339 371.502 900.258 370.288 899.792C369.074 899.203 368.758 900.316 369.325 903.007C370.253 906.428 370.082 906.677 368.666 904.249C366.033 900.248 364.887 901.009 367.163 905.386C368.572 908.06 368.44 910.029 367.137 912.39C365.531 915.371 365.809 915.242 370.183 911.344C374.432 907.692 375.496 905.818 375.352 900.416C375.266 896.977 374.843 894.039 374.32 894.051ZM162.493 943.687C161.026 944.951 157.915 952.102 158.985 951.658C159.747 951.339 160.208 952.878 160.151 955.298C159.999 957.492 160.457 959.431 160.902 959.644C161.45 959.681 161.851 957.249 161.83 954.198C161.757 949.306 162.083 948.773 163.947 950.262C165.613 951.701 165.731 951.121 164.329 947.713C163.548 945.378 162.6 943.51 162.493 943.687ZM138.734 952.016C141.607 946.488 138.711 949.471 134.876 956.116C132.817 959.703 131.42 963.146 131.72 963.819C132.069 964.605 133.141 963.322 134.02 961.189C135.614 957.399 135.774 957.331 137.422 959.023C138.771 960.443 138.922 960.377 138.091 958.059C137.402 956.484 137.689 953.81 138.734 952.016ZM192.635 915.969C197.039 914.354 198.115 914.37 197.868 916.154C197.657 917.537 198.096 917.769 199.145 916.739C200.038 915.765 200.56 916.232 200.669 918.019C200.539 919.631 201.186 920.443 201.801 919.701C204.283 917.255 203.247 920.346 199.736 926.192C196.431 931.585 194.798 932.821 186.861 936.506C178.934 940.216 177.973 940.497 179.188 938.164C180.063 936.765 180.686 934.281 180.728 932.552C180.766 930.824 182.091 926.884 183.919 923.69C186.324 919.228 188.393 917.53 192.635 915.969ZM372.736 855.629C371.887 855.135 353.215 854.267 335.348 855.591C322.744 856.532 311.345 858.26 308.934 859.044C303.362 860.879 300.671 868.96 301.626 880.261C302.616 889.944 302.945 890.488 308.883 895.608C315.143 900.939 317.857 901.316 317.154 896.324C316.269 890.59 327.611 885.952 333.238 889.735C336.559 891.988 336.543 891.987 333.186 892.334C331.424 892.516 327.894 894.277 325.727 896.284C321.799 899.632 321.84 899.758 325.161 899.451C327.052 899.208 329.9 897.634 331.499 896.1C333.371 894.162 335.539 893.198 337.658 893.491C338.228 893.545 338.62 893.522 338.821 893.405C339.037 893.273 339.02 893.018 338.749 892.618C338.143 891.768 336.333 890.251 333.046 887.902C328.459 884.675 324.142 882.244 323.322 882.348C322.502 882.451 321.767 881.928 321.688 881.319C321.436 879.5 327.438 881.16 335.593 885.545C336.553 886.074 337.436 886.529 338.223 886.9C340.624 888.079 342.121 888.434 342.186 887.68C342.11 886.7 343.824 888.294 345.883 891.123C347.947 894.072 350.4 896.538 351.195 896.749C352.142 896.952 353.605 894.068 354.456 890.597C355.435 886.993 360.123 877.757 365.088 870.288C370.037 862.694 373.423 856.106 372.736 855.629ZM93.3456 960.882C96.8683 957.615 108.111 953.006 111.189 953.642C113.028 954.023 111.608 964.376 109.298 967.733C107.968 969.705 103.472 971.841 84.071 980.12C82.3526 980.836 80.6395 981.551 78.9319 982.265C80.7288 979.247 82.5522 976.219 84.3733 973.195C87.437 968.232 91.4086 962.727 93.3456 960.882ZM103.674 958.69C101.52 959.677 98.6658 961.534 97.2486 962.866C94.8963 965.037 94.949 965.148 97.4048 964.011C99.8968 962.996 100.012 963.617 97.8316 968.958C97.1075 971.008 96.3892 973.057 95.6762 975.104C96.7808 973.236 97.8919 971.366 99.0101 969.495C100.937 966.437 101.786 963.478 100.919 962.795C100.253 962.155 100.405 961.68 101.324 961.662C102.242 961.645 104.136 960.505 105.26 959.315C107.241 957.193 107.044 957.147 103.674 958.69ZM456.774 876.105C456.513 875.926 456.266 875.758 456.034 875.601C453.509 874.233 452.491 873.758 453.548 874.748C454.198 875.503 455.56 877.184 457.102 879.048C457.781 880.021 458.481 881.054 459.109 882.065C460.966 884.953 462.334 886.437 462.155 885.201C461.38 881.57 461.319 881.346 462.925 878.82C463.693 877.499 463.709 876.969 463 877.88C462.452 878.601 459.459 877.837 456.774 876.105ZM228.823 906.717C228.192 905.237 222.187 902.38 222.672 903.906C222.935 904.724 222.114 906.537 221.069 908.171C219.985 909.688 219.143 911.907 219.334 913.009C219.367 914.163 219.513 916.702 219.706 918.839C219.781 920.109 219.859 921.379 219.938 922.648C220.352 921.473 220.768 920.298 221.187 919.124C222.209 916.456 222.884 915.849 223.929 916.929C224.546 917.761 224.475 917.009 223.628 915.477C221.663 911.597 222.784 910.191 226.45 911.853C229.253 913.02 229.251 913.023 227.6 911.099C226.56 910.012 225.094 908.159 224.204 907.026C222.815 904.893 222.82 904.888 225.913 906.35C227.751 907.182 229.043 907.421 228.823 906.717ZM196.219 920.413C195.402 919.144 194.226 919.825 190.753 923.871C188.387 926.588 186.127 929.947 185.789 931.392C185.055 933.646 185.252 933.699 187.424 931.031C188.618 929.525 191.07 926.633 192.586 924.499C193.498 923.287 194.406 922.079 195.323 920.871C195.363 921.947 195.404 923.022 195.446 924.097C195.404 926.861 195.601 926.919 196.365 924.676C196.874 923.18 196.91 921.337 196.219 920.413ZM203.339 891.438C185.555 897.643 185.498 897.725 172.315 908.542C165.162 914.596 157.009 921.495 153.951 923.823C149.024 927.852 148.984 928.147 152.115 929.103C156.467 930.357 156.955 932.016 154.364 934.952C151.258 938.377 164.729 931.132 174.675 924.364C177.226 922.618 179.791 920.881 182.371 919.153C180.067 919.242 177.761 919.34 175.456 919.444C169.773 919.683 169.359 919.588 173.555 918.734C181.412 917.049 214.109 904.277 219.506 900.67C222.121 898.91 227.132 894.095 230.838 889.894C233.091 887.37 235.372 884.856 237.68 882.354C234.966 882.841 232.254 883.347 229.545 883.867C225.001 884.842 213.267 888.139 203.339 891.438ZM423.446 870.684C424.806 869.49 424.416 869.29 416.325 871.922C412.166 873.345 411.674 873.684 414.694 873.307C416.022 873.13 417.333 872.961 418.621 872.807C417.504 874.094 416.387 875.394 415.252 876.701C411.953 880.611 412.027 880.589 417.004 876.167C419.759 873.725 422.58 871.259 423.446 870.684ZM122.699 930.069C124.286 927.348 133.455 923.242 135.547 924.227C137.887 925.365 137.279 930.028 134.453 932.854C132.363 934.827 130.765 935.386 127.177 935.214C122.312 935.068 120.796 933.323 122.699 930.069ZM87.6597 944.563C82.3481 942.42 81.4205 941.634 83.8927 941.299C85.7051 941.135 89.8095 939.913 93.0638 938.825C100.591 936.042 108.82 937.729 107.762 941.576C106.663 944.901 101.428 948.094 97.5254 947.725C95.9797 947.623 91.5737 946.135 87.6597 944.563ZM88.6725 907.339C88.9994 907.192 93.4684 906.643 98.8697 905.972C110.375 904.595 114.297 906.665 117.313 915.261C119.259 920.984 119.319 921.072 128.254 921.079C134.292 921.279 140.301 920.181 147.291 917.938C150.65 916.852 154.013 915.781 157.377 914.727C154.465 915.995 151.562 917.274 148.658 918.568C141.646 921.619 137.764 922.456 127.795 923.019C121.073 923.391 116.488 923.143 117.479 922.435C118.576 921.55 117.101 921.122 113.825 921.364C104.51 921.866 98.8235 919.734 93.501 913.377C90.6771 910.071 88.5142 907.411 88.6725 907.339ZM144.315 907.203C140.834 905.987 139.945 906.095 140.608 907.681C141.082 908.814 143.231 909.513 145.303 909.586C148.578 909.427 148.923 909.819 147.556 911.445C146.257 912.781 146.775 912.696 149.28 911.133C151.579 909.524 152.416 909.319 152.155 910.485C151.802 911.426 152.35 911.865 153.14 911.543C155.984 910.386 153.379 906.668 149.159 905.872C145.141 905.13 144.976 905.202 146.98 906.899C148.476 908.276 147.795 908.421 144.315 907.203ZM84.5675 931.377C92.9115 924.96 97.2926 923.387 103.588 924.052C105.534 924.209 107.495 924.361 109.431 924.528C108.335 925.825 107.222 927.131 106.123 928.434C102.208 933.023 95.5532 935.234 85.7003 935.454C83.4723 935.491 81.2192 935.542 78.9877 935.585C80.837 934.184 82.7216 932.77 84.5675 931.377ZM233.206 868.175C221.575 867.75 220.868 868.025 216.245 871.399C212.188 874.235 210.243 874.998 205.712 875.206C203.856 875.349 201.998 875.499 200.142 875.654C202.069 876.253 203.994 876.858 205.913 877.47C216.206 880.773 228.511 880.439 241.791 876.709C256.913 872.527 259.685 870.582 251.299 869.417C247.962 869.014 239.813 868.293 233.206 868.175ZM106.584 911.407C104.126 909.274 104.125 909.275 105.576 912.528C106.376 914.323 107.997 916.693 109.33 917.579C111.483 919.042 111.639 918.973 110.336 916.46C109.638 914.889 107.913 912.698 106.584 911.407ZM435.891 815.913C436.268 817.966 436.144 821.608 435.607 824.038C434.676 827.758 434.348 828.022 433.902 825.97C432.732 820.775 432.422 822.262 433.017 828.258C433.597 833.759 433.882 834.238 434.546 831.708C435.029 829.678 436.228 828.848 438.854 828.232C440.267 827.83 440.667 827.611 440.717 827.491C440.749 827.368 440.527 827.315 439.517 827.345C438.079 827.402 436.682 826.859 436.63 826.372C436.488 825.775 437.876 822.697 438.293 819.564C438.428 818.345 438.265 817.155 437.64 816.258C437.759 814.539 437.953 813.121 437.826 812.771C437.578 812.264 437.156 812.939 437.01 814.228C437.286 814.537 437.489 814.944 437.623 815.428C437.935 816.576 437.804 817.834 437.546 819.099C437.167 817.964 436.8 816.827 436.439 815.687C436.049 814.511 435.668 813.332 435.3 812.15C435.5 813.403 435.697 814.658 435.891 815.913ZM295.135 817.199C306.836 813.45 311.342 813.107 322.132 814.949C325.914 815.682 329.125 816.667 331.887 817.903C334.35 818.901 336.434 820.088 338.251 821.457C344.092 826.247 346.493 826.77 359.115 827.171C361.49 827.277 363.812 827.393 366.083 827.511C363.533 827.604 360.917 827.698 358.24 827.808C351.25 828.245 348.748 829.073 342.755 833.595C339.197 836.276 335.628 838.429 333.842 839.186C332.541 839.762 332.235 839.49 333.733 837.997C333.878 837.86 334.04 837.712 334.219 837.555C335.882 835.95 335.679 835.031 333.433 834.737C332.153 834.554 330.177 834.599 327.492 834.88C316.391 836.015 304.328 833.153 303.625 828.788C303.477 827.817 299.891 825.25 295.559 823.23C293.015 822.034 290.456 820.855 287.884 819.693C290.288 818.846 292.705 818.015 295.135 817.199ZM192.955 817.205C192.531 815.274 199.554 824.108 204.457 831.709C207.565 836.662 205.417 841.55 198.526 846.141C195.733 848.096 193.618 850.886 193.347 853.443C192.451 859.719 192.979 860.175 197.471 855.553C201.541 851.417 217.045 845.115 220.372 846.09C222.041 846.728 212.499 857.977 208.32 860.521C206.906 861.362 202.705 862.216 199.189 862.362C196.97 862.459 194.751 862.565 192.534 862.678C192.838 863.743 193.142 864.807 193.446 865.872C193.878 867.672 193.745 868.367 192.883 867.496C192.188 866.567 191.573 862.099 191.532 857.567C191.505 850.306 191.09 849.019 188.102 847.575C180.852 843.723 180.848 834.173 188.982 824.327C191.329 821.346 193.078 818.198 192.955 817.205ZM318.962 822.24C314.56 820.248 302.249 819.775 302.517 821.502C302.554 821.745 306.108 822.564 310.383 823.342C314.658 824.118 318.166 825.059 318.182 825.18C318.212 825.424 315.426 825.76 312.246 825.94C307.57 826.204 306.669 826.474 309.021 827.128C310.601 827.648 314.367 827.754 317.325 827.389C322.508 826.757 322.702 826.873 319.397 828.992C317.671 830.191 317.047 831.138 318.331 830.978C319.432 830.841 321.718 829.704 323.075 828.441C324.957 826.869 326.809 826.548 329.111 827.059C331.812 827.785 331.466 828.297 327.019 830.36C320.499 833.671 323.063 833.476 329.994 830.304C331.141 829.781 332.122 829.401 332.921 829.155C336.195 828.205 336.559 829.186 333.494 831.7C333.356 831.819 333.252 831.919 333.182 832C333.032 832.188 333.047 832.28 333.208 832.286C333.658 832.3 335.153 831.724 337.354 830.761C339.373 829.867 341.39 828.996 343.393 828.144C341.632 827.629 339.846 827.128 338.029 826.645C335.713 826.085 333.887 825.558 332.539 825.003C330.204 823.954 329.46 822.794 330.056 821.289C330.539 820.379 329.938 820.064 328.843 820.543C327.761 821.144 327.513 822.404 328.173 823.325C328.832 824.246 328.495 824.65 327.524 824.379C326.367 824.127 325.503 823.108 325.398 822.131C325.295 821.154 324.238 820.153 323.053 819.79C321.492 819.469 321.376 820.103 322.534 821.95C323.08 822.877 323.624 823.806 324.166 824.735C322.439 823.894 320.705 823.063 318.962 822.24ZM165.895 858.28C164.336 858.207 164.299 858.616 165.697 859.797C167.646 861.43 167.477 861.488 163.352 860.678C161.078 860.223 159.443 860.454 159.705 861.143C159.967 861.831 158.761 862.685 157.129 862.918C154.243 863.373 154.289 863.487 157.737 864C159.755 864.277 161.974 864.089 162.719 863.544C163.255 862.947 164.343 862.799 165.27 863.237C166.03 863.739 165.034 864.636 162.917 865.571C159.967 866.827 160.393 866.922 165.015 866.09C172.031 865.029 173.114 866.467 167.232 869.456C164.671 870.687 165.701 870.421 169.431 868.761C173.17 867.098 177.338 866.103 178.802 866.488C180.262 866.875 178.722 865.73 175.287 864.107C172.021 862.423 169.027 860.522 168.726 859.716C168.47 859.025 167.244 858.3 165.895 858.28ZM375.199 817.475C374.637 814.416 375.137 814.041 378.186 814.311C382.819 814.634 383.558 820.624 378.864 820.803C376.566 820.881 375.577 819.921 375.199 817.475ZM194.202 829.46C193.122 827.358 192.36 826.833 192.607 828.174C193.084 830.216 192.773 830.447 190.863 829.398C189.42 828.584 189.576 830.216 191.714 834.294C192.775 836.314 193.833 838.335 194.889 840.358C192.943 839.709 190.986 839.069 189.03 838.434C183.153 836.54 184.278 838.101 190.219 840.237C191.999 840.933 193.315 842.566 193.265 844.137C193.177 845.592 193.623 846.348 194.367 845.71C194.978 845.246 195.674 842.167 195.795 839.023C196.088 835.823 195.457 831.505 194.202 829.46ZM317.842 770.807C317.788 770.32 319.96 770.942 322.804 772.136C323.908 772.595 325.723 773.16 327.832 773.74C331.17 774.496 335.024 775.32 338.184 775.909C343.917 776.895 350.412 779.122 353.183 780.883C356.189 782.635 358.226 783.326 358.95 782.571C359.667 781.693 362.469 782.86 365.734 785.374C371.454 790.047 371.386 792.138 365.543 800.982C363.887 803.227 362.017 806.584 361.345 808.32C360.954 809.352 360.562 810.385 360.169 811.418C359.369 810.331 358.559 809.244 357.738 808.159C355.642 805.388 355.793 804.277 358.279 800.528C359.87 798.154 360.839 793.586 360.767 790.27C360.664 788.307 360.56 786.343 360.455 784.379C360.018 786.437 359.579 788.495 359.138 790.554C358.484 793.887 357.115 798.098 356.038 799.848C355.443 800.889 354.845 801.93 354.245 802.972C353.19 801.488 352.115 800.007 351.019 798.53C349.173 796.014 347.563 791.658 347.432 788.589C347.305 785.521 346.363 782.855 345.504 782.526C344.437 782.206 344.084 783.701 344.821 785.878C345.813 789.648 345.698 789.633 340.926 784.852C338.194 782.173 334.137 779.377 331.977 778.692C329.807 778.011 331.163 779.487 334.796 782.541C343.281 789.485 343.062 791.091 334.838 789.19C332.625 788.751 330.654 788.093 329.079 787.319C326.203 785.691 324.897 783.546 326.262 781.916C327.006 781.105 325.316 778.424 322.777 775.966C320.034 773.529 317.883 771.174 317.842 770.807Z" fill="#FFDFC0" fill-opacity="0.35"/>
</svg>
