<svg width="36" height="36" viewBox="0 0 36 36" fill="none" xmlns="http://www.w3.org/2000/svg">
<g clip-path="url(#clip0_1246_7570)">
<path d="M18.0001 36C21.5601 36 25.0402 34.9443 28.0003 32.9665C30.9604 30.9886 33.2675 28.1774 34.6299 24.8883C35.9923 21.5992 36.3487 17.98 35.6542 14.4884C34.9597 10.9967 33.2453 7.78943 30.728 5.27209C28.2106 2.75474 25.0033 1.04041 21.5117 0.345873C18.02 -0.348661 14.4008 0.00779904 11.1118 1.37018C7.82268 2.73255 5.01147 5.03966 3.0336 7.99974C1.05574 10.9598 5.44957e-05 14.4399 5.44957e-05 18C-0.00577304 20.3654 0.455833 22.7087 1.35835 24.8952C2.26087 27.0817 3.58652 29.0683 5.25914 30.7409C6.93175 32.4135 8.91837 33.7392 11.1049 34.6417C13.2914 35.5442 15.6346 36.0058 18.0001 36Z" fill="#2775CA"/>
<path d="M22.9498 20.8501C22.9498 18.2319 21.3756 17.3237 18.2256 16.949C15.974 16.6496 15.5256 16.049 15.5256 15.0001C15.5256 13.9512 16.2751 13.2737 17.774 13.2737C19.1256 13.2737 19.8751 13.7237 20.2498 14.8496C20.29 14.958 20.3626 15.0515 20.4578 15.1174C20.5529 15.1832 20.6659 15.2183 20.7816 15.2177H21.9811C22.0505 15.2195 22.1197 15.2072 22.1842 15.1814C22.2487 15.1557 22.3074 15.117 22.3565 15.0679C22.4056 15.0188 22.4443 14.9601 22.47 14.8956C22.4958 14.831 22.5081 14.7619 22.5063 14.6925V14.6188C22.3614 13.8059 21.9521 13.0637 21.3419 12.5074C20.7318 11.9511 19.9549 11.6119 19.1322 11.5425V9.74246C19.1322 9.44301 18.9063 9.21883 18.5316 9.14355H17.4058C17.1063 9.14355 16.8822 9.36774 16.8069 9.74246V11.4737C14.5503 11.7814 13.1251 13.2737 13.1251 15.149C13.1251 17.6248 14.6256 18.6001 17.7756 18.9748C19.8751 19.3496 20.5574 19.793 20.5574 20.999C20.5574 22.205 19.5085 23.0248 18.0833 23.0248C16.1327 23.0248 15.4651 22.2066 15.2327 21.0743C15.2113 20.9478 15.1461 20.8328 15.0487 20.7494C14.9512 20.666 14.8275 20.6194 14.6993 20.6177H13.418C13.3486 20.6162 13.2796 20.6287 13.2151 20.6545C13.1507 20.6804 13.0922 20.719 13.0431 20.7681C12.994 20.8172 12.9553 20.8757 12.9295 20.9402C12.9037 21.0046 12.8911 21.0736 12.8927 21.143V21.2183C13.1938 23.0936 14.3933 24.4436 16.8691 24.8183V26.6183C16.8691 26.9177 17.0933 27.1436 17.468 27.2188H18.5938C18.8933 27.2188 19.1191 26.993 19.1927 26.6183V24.8183C21.4427 24.4436 22.9433 22.8677 22.9433 20.8436L22.9498 20.8501Z" fill="white"/>
<path d="M14.1737 28.7248C12.0157 27.9332 10.1527 26.4982 8.83667 24.6137C7.52059 22.7292 6.81486 20.486 6.81486 18.1874C6.81486 15.8888 7.52059 13.6457 8.83667 11.7611C10.1527 9.87659 12.0157 8.44157 14.1737 7.65004C14.3177 7.58777 14.4386 7.48205 14.5196 7.34768C14.6006 7.21331 14.6375 7.057 14.6253 6.90059V5.85004C14.6354 5.71225 14.5952 5.57546 14.5122 5.46503C14.4292 5.3546 14.3089 5.27803 14.1737 5.2495C14.0681 5.23849 13.9621 5.26515 13.8742 5.32477C11.1438 6.19262 8.7604 7.90682 7.06896 10.2193C5.37752 12.5317 4.46582 15.3224 4.46582 18.1874C4.46582 21.0524 5.37752 23.8431 7.06896 26.1556C8.7604 28.468 11.1438 30.1822 13.8742 31.05C13.9366 31.0863 14.0067 31.1072 14.0787 31.1111C14.1507 31.1151 14.2226 31.1019 14.2885 31.0727C14.3545 31.0435 14.4125 30.999 14.458 30.9431C14.5035 30.8871 14.535 30.8211 14.5501 30.7506C14.6253 30.6753 14.6253 30.6 14.6253 30.4495V29.4006C14.6253 29.1748 14.3995 28.8753 14.1737 28.7248ZM22.1248 5.32477C22.0623 5.28855 21.9921 5.26766 21.92 5.26382C21.8479 5.25998 21.7759 5.2733 21.71 5.30269C21.644 5.33208 21.586 5.37669 21.5406 5.43287C21.4952 5.48905 21.4638 5.55519 21.449 5.62586C21.3753 5.6995 21.3753 5.77477 21.3753 5.92532V6.97423C21.388 7.12548 21.4351 7.27183 21.5131 7.40203C21.5911 7.53223 21.6979 7.64283 21.8253 7.72532C23.9833 8.51685 25.8463 9.95187 27.1624 11.8364C28.4784 13.7209 29.1842 15.9641 29.1842 18.2627C29.1842 20.5613 28.4784 22.8044 27.1624 24.689C25.8463 26.5735 23.9833 28.0085 21.8253 28.8C21.6815 28.8624 21.5608 28.9682 21.4801 29.1026C21.3994 29.237 21.3627 29.3932 21.3753 29.5495V30.6C21.3652 30.7376 21.4051 30.8742 21.4878 30.9846C21.5706 31.095 21.6904 31.1717 21.8253 31.2006C21.9309 31.2116 22.037 31.1849 22.1248 31.1253C24.8542 30.2455 27.2341 28.5226 28.9224 26.2046C30.6107 23.8865 31.5202 21.0927 31.5202 18.225C31.5202 15.3574 30.6107 12.5636 28.9224 10.2455C27.2341 7.92748 24.8542 6.20462 22.1248 5.32477Z" fill="white"/>
</g>
<defs>
<clipPath id="clip0_1246_7570">
<rect width="36" height="36" fill="white"/>
</clipPath>
</defs>
</svg>
