<svg width="297" height="349" viewBox="0 0 297 349" fill="none" xmlns="http://www.w3.org/2000/svg">
<path fill-rule="evenodd" clip-rule="evenodd" d="M59.1598 305.816C36.6066 318.287 47.3378 327.9 67.935 336.666C86.2863 343.733 115.196 348.277 147.928 348.286C178.89 347.632 211.605 344.148 235.575 334.755C251.782 326.912 257.363 318.019 242.038 308.572L59.1598 305.816Z" fill="url(#paint0_linear_3913_21128)"/>
<path d="M59.1598 305.816C36.6066 318.287 47.3378 327.9 67.935 336.666C86.2863 343.733 115.196 348.277 147.928 348.286C178.89 347.632 211.605 344.148 235.575 334.755C251.782 326.912 257.363 318.019 242.038 308.572L59.1598 305.816ZM59.1598 305.816H59.1595" stroke="#24211C" stroke-width="0.56786" stroke-miterlimit="1.5" stroke-linecap="round" stroke-linejoin="round"/>
<path fill-rule="evenodd" clip-rule="evenodd" d="M61.4221 304.5C47.3839 312.099 48.8804 320.431 65.3728 329.471C85.1528 337.925 113.911 341.634 148.794 342.106C176.911 341.429 203.803 338.744 227.546 330.904C248.525 321.809 250.66 312.88 238.735 306.453L61.4218 304.5H61.4221Z" fill="url(#paint1_linear_3913_21128)" stroke="#24211C" stroke-width="0.56786" stroke-miterlimit="1.5" stroke-linecap="round" stroke-linejoin="round"/>
<path fill-rule="evenodd" clip-rule="evenodd" d="M79.6199 297.908C45.8981 305.491 45.7271 322.085 76.418 330.979C99.4608 337.879 123.504 339.595 147.873 339.622C177.359 340.129 204.892 337.086 229.179 327.848C253.04 315.043 247.343 304.25 209.035 295.926L79.6199 297.908Z" fill="#573D16" stroke="#24211C" stroke-width="0.56786" stroke-miterlimit="1.5" stroke-linecap="round" stroke-linejoin="round"/>
<path fill-rule="evenodd" clip-rule="evenodd" d="M97.6473 293.246C57.7998 301.038 60.136 311.859 94.5817 320.427C128.833 328.412 178.913 325.731 201.721 319.941C237.196 311.18 232.785 301.511 203.168 294.392L97.6475 293.246L97.6473 293.246Z" fill="url(#paint2_linear_3913_21128)" stroke="#24211C" stroke-width="0.56786" stroke-miterlimit="1.5" stroke-linecap="round" stroke-linejoin="round"/>
<path fill-rule="evenodd" clip-rule="evenodd" d="M123.694 267.988C122.65 285.726 113.339 290.454 97.7232 293.243C69.2213 299.777 63.5537 306.807 84.3211 314.404C101.168 320.082 123.558 322.535 149.52 322.614C173.953 321.914 194.06 318.752 211.457 314.517C230.158 308.687 227.921 299.638 203.184 294.387C183.425 291.075 171.897 282.785 172.103 268.148L123.694 267.988Z" fill="url(#paint3_linear_3913_21128)" stroke="#24211C" stroke-width="0.56786" stroke-miterlimit="1.5" stroke-linecap="round" stroke-linejoin="round"/>
<path fill-rule="evenodd" clip-rule="evenodd" d="M121.59 260.352C119.948 264.056 120.631 266.61 123.695 267.989C138.538 271.288 154.627 271.461 172.103 268.149C175.344 266.835 175.573 263.69 174.262 259.609C159.065 261.505 141.746 261.919 121.59 260.352H121.59Z" fill="url(#paint4_linear_3913_21128)" stroke="#24211C" stroke-width="0.56786" stroke-miterlimit="1.5" stroke-linecap="round" stroke-linejoin="round"/>
<path fill-rule="evenodd" clip-rule="evenodd" d="M120.289 233.887C113.047 243.059 113.536 251.878 121.589 260.351C139.397 266.331 156.862 266.894 174.261 259.609C183.26 251.387 183.053 242.477 175.134 233.285C156.518 239.777 138.26 239.529 120.289 233.887Z" fill="url(#paint5_linear_3913_21128)" stroke="#24211C" stroke-width="0.56786" stroke-miterlimit="1.5" stroke-linecap="round" stroke-linejoin="round"/>
<path fill-rule="evenodd" clip-rule="evenodd" d="M125.631 228.165C119.931 228.798 119.395 231.133 119.994 233.841C136.596 239.607 154.88 239.586 174.934 233.474C175.524 229.989 173.924 227.784 169.31 227.336C158.897 234.207 138.065 234.411 125.631 228.165V228.165L125.631 228.165Z" fill="url(#paint6_linear_3913_21128)" stroke="#24211C" stroke-width="0.56786" stroke-miterlimit="1.5" stroke-linecap="round" stroke-linejoin="round"/>
<path fill-rule="evenodd" clip-rule="evenodd" d="M115.26 210.101C138.083 218.801 160.657 218.834 181.96 209.781C173.726 213.023 168.653 217.47 169.309 227.337C161.948 234.482 135.048 235.049 125.63 228.167C127.436 218.174 123.318 212.772 115.26 210.101Z" fill="url(#paint7_linear_3913_21128)" stroke="#24211C" stroke-width="0.56786" stroke-miterlimit="1.5" stroke-linecap="round" stroke-linejoin="round"/>
<path fill-rule="evenodd" clip-rule="evenodd" d="M3.02416 30.7464C0.165 25.8387 -0.626298 21.3753 1.46627 17.2891C0.900882 36.8524 73.8985 39.798 148.227 42.6084C231.57 40.9319 297.635 37.0476 295.754 17.8459C297.265 19.4529 297.512 26.396 292.295 33.2688C259.046 46.3225 206.821 49.913 148.056 50.2425C82.1806 48.5694 20.2827 45.8016 3.02465 30.7467L3.02416 30.7464Z" fill="#8A6522" stroke="#24211C" stroke-width="0.56786" stroke-miterlimit="1.5" stroke-linecap="round" stroke-linejoin="round"/>
<path fill-rule="evenodd" clip-rule="evenodd" d="M12.594 64.5977C35.117 76.7192 83.1248 81.7854 148.953 81.919C198.248 82.0614 246.266 80.7144 283.956 67.3238C280.858 81.9858 277.729 99.9318 277.348 103.131C271.139 155.319 244.509 185.704 192.356 199.152C165.237 207.666 134.711 207.596 100.924 199.305C62.4265 187.622 27.6921 163.716 19.8325 114.082C17.6553 100.332 15.6149 84.0533 12.5938 64.5979L12.594 64.5977Z" fill="url(#paint8_linear_3913_21128)" stroke="#24211C" stroke-width="0.56786" stroke-miterlimit="1.5" stroke-linecap="round" stroke-linejoin="round"/>
<path fill-rule="evenodd" clip-rule="evenodd" d="M13.1815 57.8074C10.866 49.8675 8.08224 42.6801 4.95898 34.8867C25.5155 47.2174 61.1963 48.6927 103.052 51.6965C134.227 52.8535 165.255 52.769 196.142 51.477C233.904 48.8859 269.436 45.492 290.694 36.9614C288.097 44.3341 285.848 51.7435 283.916 59.1873C283.241 68.6061 210.172 76.5084 149.009 75.0912C77.2779 75.9964 23.5834 68.1483 13.182 57.8069L13.1815 57.8074Z" fill="url(#paint9_linear_3913_21128)" stroke="#24211C" stroke-width="0.56786" stroke-miterlimit="1.5" stroke-linecap="round" stroke-linejoin="round"/>
<path fill-rule="evenodd" clip-rule="evenodd" d="M19.9553 47.2698C21.4548 46.6651 21.6752 47.1941 21.0786 48.4479C20.4611 48.8952 20.1096 49.371 20.9361 49.973C22.0514 50.8506 23.1447 51.8195 24.161 53.1057C26.0116 53.7131 26.0501 54.1072 25.0117 54.3745C24.4058 54.6948 23.5197 54.6485 21.8512 53.5773L18.6798 50.5647C17.8778 49.9028 17.9596 49.0177 18.7394 47.9559C18.9084 47.7567 19.2941 47.5306 19.9553 47.2698Z" fill="#AB8035"/>
<path d="M19.9553 47.2698C21.4548 46.6651 21.6752 47.1941 21.0786 48.4479C20.4611 48.8952 20.1096 49.371 20.9361 49.973C22.0514 50.8506 23.1447 51.8195 24.161 53.1057C26.0116 53.7131 26.0501 54.1072 25.0117 54.3745C24.4058 54.6948 23.5197 54.6485 21.8512 53.5773L18.6798 50.5647C17.8778 49.9028 17.9596 49.0177 18.7394 47.9559C18.9084 47.7567 19.2941 47.5306 19.9553 47.2698ZM19.9553 47.2698V47.2701" stroke="#AB8035" stroke-width="0.181912" stroke-miterlimit="1.5" stroke-linecap="round" stroke-linejoin="round"/>
<path fill-rule="evenodd" clip-rule="evenodd" d="M28.9959 54.803C27.753 56.8734 26.9208 57.1014 26.7159 54.5186C26.7937 51.6236 25.7311 50.0152 23.7029 49.4962C23.7726 49.0601 23.629 48.8781 23.2204 49.0122C22.8028 49.2913 22.5028 49.1115 22.4401 48.0015C22.3872 46.7465 22.7918 45.9294 23.8262 45.7149C24.6048 45.4605 25.1385 45.5101 24.9852 46.4122C24.7701 47.0561 25.0654 47.3246 26.3349 46.8777C27.5651 46.1994 28.2296 46.2938 28.4075 47.0607C29.0556 49.0739 29.5006 54.2837 28.9959 54.8033V54.803Z" fill="#AB8035" stroke="#AB8035" stroke-width="0.181912" stroke-miterlimit="1.5" stroke-linecap="round" stroke-linejoin="round"/>
<path fill-rule="evenodd" clip-rule="evenodd" d="M22.544 56.9698C24.9563 57.3153 25.5989 56.8878 23.4868 55.2571C21.7732 54.9005 20.1067 53.811 18.4954 51.8627C17.7403 50.6672 17.444 51.7341 17.7902 52.4476C19.0895 54.1325 20.4257 55.7947 22.5443 56.9701L22.544 56.9698Z" fill="#AB8035" stroke="#AB8035" stroke-width="0.181912" stroke-miterlimit="1.5" stroke-linecap="round" stroke-linejoin="round"/>
<path d="M242.376 67.7677C247.399 67.7677 251.471 63.6792 251.471 58.6358C251.471 53.5924 247.399 49.5039 242.376 49.5039C237.353 49.5039 233.281 53.5924 233.281 58.6358C233.281 63.6792 237.353 67.7677 242.376 67.7677Z" fill="#AB8035" stroke="#AB8035" stroke-width="0.181912" stroke-miterlimit="1.5" stroke-linecap="round" stroke-linejoin="round"/>
<path fill-rule="evenodd" clip-rule="evenodd" d="M252.934 61.6954C253.053 60.4547 252.719 60.3007 251.93 61.2386L249.109 65.305C248.668 66.573 248.831 66.9224 249.829 66.0007C250.129 65.6018 250.472 65.3793 250.84 65.2546C251.884 65.0576 252.305 65.158 251.554 65.8187C249.429 67.0294 250.352 67.1725 252.491 66.8892C255.719 66.461 258.928 65.9242 262.036 64.7801C262.617 64.2291 262.728 63.7343 261.557 63.3929C259.206 62.8122 257.929 61.9217 258.596 60.4709C259.156 59.7575 257.475 57.1058 255.778 54.4394C255.635 53.8209 255.798 53.6599 256.387 54.1327C259.029 58.0788 261.836 61.8934 266.571 64.1846C268.061 64.5254 269.538 64.5501 270.985 63.7466C271.737 63.1891 272.027 62.7366 270.632 62.6674C268.188 63.7839 265.314 62.4948 261.933 58.3775C258.066 53.5347 254.299 49.6008 250.855 48.5898C248.359 48.362 248.019 48.9256 248.511 49.7942C252.861 52.9821 254.732 56.1798 254.656 59.3854C254.642 62.5686 254.109 64.2286 252.852 63.7653C252.533 63.3893 252.346 62.8928 252.934 61.6959L252.934 61.6956H252.934L252.934 61.6954Z" fill="#AB8035" stroke="#AB8035" stroke-width="0.181912" stroke-miterlimit="1.5" stroke-linecap="round" stroke-linejoin="round"/>
<path fill-rule="evenodd" clip-rule="evenodd" d="M259.35 50.5712C258.463 49.8302 258.648 49.4019 259.937 49.2971C260.665 49.4612 261.065 49.3131 261.319 49.0248C262.751 48.398 262.686 49.0243 262.327 49.897C261.395 50.8821 261.699 51.8044 262.654 52.6939C263.479 52.9316 264.579 54.8177 265.695 56.7954C266.445 57.8449 266.712 57.6541 266.468 56.1536C265.831 51.3043 268.103 47.4582 272.383 44.3047C275.472 42.8328 278.834 42.0758 282.526 42.1837C283.888 42.5566 284.716 42.6389 284.806 42.32C287.959 40.4141 288.078 41.3442 286.351 44.0014C284.859 45.5522 284.6 46.3112 284.79 47.0372C285.251 53.8191 282.755 56.4102 280.309 59.0735C275.005 62.8242 270.762 62.7019 267.466 59.1294L263.272 56.7625L261.008 52.9575L259.824 52.1061C257.885 51.8536 257.721 51.3428 259.35 50.5708L259.35 50.5712Z" fill="#AB8035" stroke="#AB8035" stroke-width="0.181912" stroke-miterlimit="1.5" stroke-linecap="round" stroke-linejoin="round"/>
<path fill-rule="evenodd" clip-rule="evenodd" d="M278.685 43.9674C282.327 43.2825 282.867 43.6212 282.472 46.4046C280.866 52.5157 278.32 56.4005 275.286 59.1342C272.943 60.4986 270.852 60.1168 269.055 57.6746C267.846 55.6766 268.075 53.6208 269.067 51.5345C270.951 48.0319 273.545 45.0251 278.685 43.9677" fill="#593E17"/>
<path d="M278.685 43.9674C282.327 43.2825 282.867 43.6212 282.472 46.4046C280.866 52.5157 278.32 56.4005 275.286 59.1342C272.943 60.4986 270.852 60.1168 269.055 57.6746C267.846 55.6766 268.075 53.6208 269.067 51.5345C270.951 48.0319 273.545 45.0251 278.685 43.9677" stroke="#AB8035" stroke-width="0.181912" stroke-miterlimit="1.5" stroke-linecap="round" stroke-linejoin="round"/>
<path fill-rule="evenodd" clip-rule="evenodd" d="M277.405 46.0826C280.242 44.3584 281.309 45.4301 280.928 48.7882C279.847 52.0179 278.023 54.5989 275.355 56.4421C272.058 58.3377 270.817 57.3294 271.044 54.2461C270.886 53.2601 273.078 50.4852 277.405 46.0823V46.0826Z" fill="#AB8035" stroke="#AB8035" stroke-width="0.181912" stroke-miterlimit="1.5" stroke-linecap="round" stroke-linejoin="round"/>
<path fill-rule="evenodd" clip-rule="evenodd" d="M229.822 67.7986C228.545 68.3889 228.906 69.0093 230.668 69.6557C232.63 70.0232 234.597 69.9152 236.576 68.8963C237.518 68.331 237.291 67.8587 235.907 67.4784C234.131 67.7899 233.482 66.9046 233.132 65.7009C232.716 64.6374 230.659 65.1175 230.468 66.341C230.929 67.2416 230.776 67.7652 229.821 67.7989L229.822 67.7986Z" fill="#AB8035" stroke="#AB8035" stroke-width="0.181912" stroke-miterlimit="1.5" stroke-linecap="round" stroke-linejoin="round"/>
<path fill-rule="evenodd" clip-rule="evenodd" d="M221.169 53.5787C222.26 52.737 222.867 52.7549 222.607 54.3127C221.666 55.6718 220.64 56.8031 219.39 58.2973C218.871 59.1771 217.95 59.3238 217.301 58.9979C216.918 58.7444 216.584 58.7684 216.308 59.1262C216.071 59.7862 215.655 60.0842 215.156 60.213C214.474 60.2544 214.198 59.8927 214.363 59.0923C214.556 58.285 216.699 57.1866 217.377 57.6417C217.647 57.7913 217.947 57.7279 218.297 57.3214L221.169 53.579L221.168 53.5787H221.169Z" fill="#AB8035" stroke="#AB8035" stroke-width="0.181912" stroke-miterlimit="1.5" stroke-linecap="round" stroke-linejoin="round"/>
<path fill-rule="evenodd" clip-rule="evenodd" d="M212.553 67.5362C212.177 68.438 212.277 68.9108 213.562 68.317C214.832 67.5304 215.57 66.5478 216.16 65.5109C216.073 64.9275 216.194 64.7643 216.374 64.721C218.162 63.9075 218.739 63.3534 218.927 62.8828C219.039 61.4067 218.438 60.8226 216.8 61.5404C215.978 61.9541 215.253 63.7594 214.544 65.7971C214.481 66.2328 213.617 66.8608 212.553 67.5365L212.553 67.5362Z" fill="#AB8035" stroke="#AB8035" stroke-width="0.181912" stroke-miterlimit="1.5" stroke-linecap="round" stroke-linejoin="round"/>
<path fill-rule="evenodd" clip-rule="evenodd" d="M219.591 59.9065C219.14 61.7723 219.886 61.4888 220.92 60.689C222.256 59.6119 223.889 57.6863 225.643 55.4196C225.892 54.9553 226.767 53.9111 228.015 52.5225C228.262 51.7863 228.295 51.2477 226.969 51.9579C223.616 55.2487 220.045 58.6953 219.591 59.9065Z" fill="#AB8035" stroke="#AB8035" stroke-width="0.181912" stroke-miterlimit="1.5" stroke-linecap="round" stroke-linejoin="round"/>
<path fill-rule="evenodd" clip-rule="evenodd" d="M225.204 57.0862C227.22 55.8363 227.215 56.6606 226.476 57.8982C226.126 58.4032 224.795 59.7129 223.008 61.644C222.302 63.006 222.397 63.7812 223.124 64.095C224.599 65.8007 223.29 66.258 222.367 66.6468C221.154 66.9151 220.503 67.4482 220.356 68.2178C220.662 70.4324 219.855 70.4571 218.81 70.0129C216.512 69.0019 217.246 67.7849 218.924 66.504C220.794 65.8826 221.326 64.4506 220.66 62.2938C219.868 61.7288 223.029 59.1573 225.203 57.0864L225.204 57.0862Z" fill="#AB8035" stroke="#AB8035" stroke-width="0.181912" stroke-miterlimit="1.5" stroke-linecap="round" stroke-linejoin="round"/>
<path fill-rule="evenodd" clip-rule="evenodd" d="M232.84 52.3258C235.966 51.172 236.408 51.668 234.791 53.4309C232.16 55.5066 230.505 57.7435 230.422 60.2402C230.486 62.2876 230.287 63.8926 228.98 63.6394C228.22 63.6287 228.17 64.0091 228.716 64.7177C229.436 65.2382 229.528 66.5384 228.218 68.1726C226.8 69.3547 223.078 70.2492 223.678 68.0936C225.45 66.154 226.252 64.4686 225.318 63.2382C225.105 62.7584 224.632 62.3769 227.103 60.8784C228.275 57.7682 229.515 54.6818 232.84 52.3258" fill="#AB8035"/>
<path d="M232.84 52.3258C235.966 51.172 236.408 51.668 234.791 53.4309C232.16 55.5066 230.505 57.7435 230.422 60.2402C230.486 62.2876 230.287 63.8926 228.98 63.6394C228.22 63.6287 228.17 64.0091 228.716 64.7177C229.436 65.2382 229.528 66.5384 228.218 68.1726C226.8 69.3547 223.078 70.2492 223.678 68.0936C225.45 66.154 226.252 64.4686 225.318 63.2382C225.105 62.7584 224.632 62.3769 227.103 60.8784C228.275 57.7682 229.515 54.6818 232.84 52.3258" stroke="#AB8035" stroke-width="0.181912" stroke-miterlimit="1.5" stroke-linecap="round" stroke-linejoin="round"/>
<path d="M202.702 71.4123C208.692 71.4123 213.547 66.9373 213.547 61.4171C213.547 55.8969 208.692 51.4219 202.702 51.4219C196.713 51.4219 191.857 55.8969 191.857 61.4171C191.857 66.9373 196.713 71.4123 202.702 71.4123Z" fill="#AB8035" stroke="#AB8035" stroke-width="0.181912" stroke-miterlimit="1.5" stroke-linecap="round" stroke-linejoin="round"/>
<path fill-rule="evenodd" clip-rule="evenodd" d="M211.913 52.1117C211.718 51.4593 211.965 51.0978 212.964 51.2303C215.591 51.6399 217.5 52.0369 218.426 52.4177C219.499 52.6966 219.574 53.1987 218.811 53.8884C218.046 54.5559 217.451 54.867 216.878 55.1323C216.267 55.6094 215.771 55.5102 215.352 55.026L211.914 52.1115" fill="#AB8035"/>
<path d="M211.913 52.1117C211.718 51.4593 211.965 51.0978 212.964 51.2303C215.591 51.6399 217.5 52.0369 218.426 52.4177C219.499 52.6966 219.574 53.1987 218.811 53.8884C218.046 54.5559 217.451 54.867 216.878 55.1323C216.267 55.6094 215.771 55.5102 215.352 55.026L211.914 52.1115" stroke="#AB8035" stroke-width="0.181912" stroke-miterlimit="1.5" stroke-linecap="round" stroke-linejoin="round"/>
<path fill-rule="evenodd" clip-rule="evenodd" d="M159.297 54.5268C158.378 53.2635 159.222 53.081 160.393 53.8789C165.091 57.6386 166.111 60.5926 165.856 63.4747C165.431 67.7679 163.517 70.9405 160.336 73.1598C158.552 74.0504 157.044 73.5382 158.529 71.7082C163.286 66.1096 164.044 59.1822 159.297 54.5268Z" fill="#AB8035" stroke="#AB8035" stroke-width="0.181912" stroke-miterlimit="1.5" stroke-linecap="round" stroke-linejoin="round"/>
<path fill-rule="evenodd" clip-rule="evenodd" d="M127.913 52.9098C121.457 58.5028 115.75 64.381 111.417 70.7809C109.251 75.3475 116.741 70.8841 117.634 67.9925C118.318 66.4417 119.516 65.2588 121.072 64.3311C125.716 61.551 129.917 58.582 133.791 55.4738C135.583 53.5736 135.59 52.2786 132.195 53.8634L124.812 58.5403L129.117 53.6547C129.421 52.733 128.941 52.5604 127.913 52.91V52.9098Z" fill="#AB8035" stroke="#AB8035" stroke-width="0.181912" stroke-miterlimit="1.5" stroke-linecap="round" stroke-linejoin="round"/>
<path fill-rule="evenodd" clip-rule="evenodd" d="M135.726 54.7927C139.952 53.0612 141.55 53.8403 138.484 55.4507C135.05 57.2978 133.065 59.7122 133.793 63.1891C134.54 65.337 135.677 67.4112 137.457 69.3641C139.296 72.3891 139.137 73.4112 137.071 72.5237C135.579 71.5805 133.435 71.3597 130.039 72.5295C124.726 73.3657 123.72 72.8328 127.409 70.808C129.352 69.627 130.507 68.0903 130.011 65.8071C129.225 61.1945 131.163 57.5341 135.726 54.7927Z" fill="#AB8035"/>
<path d="M135.726 54.7927C139.952 53.0612 141.55 53.8403 138.484 55.4507C135.05 57.2978 133.065 59.7122 133.793 63.1891C134.54 65.337 135.677 67.4112 137.457 69.3641C139.296 72.3891 139.137 73.4112 137.071 72.5237C135.579 71.5805 133.435 71.3597 130.039 72.5295C124.726 73.3657 123.72 72.8328 127.409 70.808C129.352 69.627 130.507 68.0903 130.011 65.8071C129.225 61.1945 131.163 57.5341 135.726 54.7927ZM135.726 54.7927V54.7924" stroke="#AB8035" stroke-width="0.181912" stroke-miterlimit="1.5" stroke-linecap="round" stroke-linejoin="round"/>
<path fill-rule="evenodd" clip-rule="evenodd" d="M122.376 64.7287C124.142 64.0809 127.281 65.7469 126.382 66.463C125.642 67.1043 125.479 67.9422 125.947 68.9958C126.208 69.5318 125.988 69.7426 125.491 69.7654C124.541 69.7124 124.306 70.0716 124.437 70.6422C124.301 71.2935 123.68 71.1288 122.784 70.5009C121.896 69.8477 121.415 69.1502 121.055 68.4399C120.866 67.7091 121.159 67.4282 121.758 67.4345C122.649 67.4527 122.864 67.1026 122.548 66.4645C122.084 65.553 122.028 64.9759 122.376 64.7284L122.376 64.7287Z" fill="#AB8035" stroke="#AB8035" stroke-width="0.181912" stroke-miterlimit="1.5" stroke-linecap="round" stroke-linejoin="round"/>
<path fill-rule="evenodd" clip-rule="evenodd" d="M117.633 71.3853C117.87 70.5307 118.479 70.1024 119.567 70.2232C120.051 70.8144 120.318 71.4041 119.812 71.9886C118.975 72.5996 118.245 72.4292 117.633 71.3853" fill="#AB8035"/>
<path d="M117.633 71.3853C117.87 70.5307 118.479 70.1024 119.567 70.2232C120.051 70.8144 120.318 71.4041 119.812 71.9886C118.975 72.5996 118.245 72.4292 117.633 71.3853" stroke="#AB8035" stroke-width="0.181912" stroke-miterlimit="1.5" stroke-linecap="round" stroke-linejoin="round"/>
<path fill-rule="evenodd" clip-rule="evenodd" d="M143.197 53.331C145.016 52.6832 145.51 52.9725 144.205 54.5342C137.548 58.7391 137.4 65.7701 144.087 70.3054C147.767 72.2427 151.267 71.9708 153.651 69.7535C160.558 63.3632 158.94 58.4001 153.146 54.1359C152.372 53.3499 152.76 53.0553 154.204 53.207C160.813 55.6132 162.33 62.4891 158.597 68.4186C152.464 76.5555 142.59 73.9114 138.514 68.2864C134.53 61.5447 136.586 56.9069 143.197 53.331Z" fill="#AB8035" stroke="#AB8035" stroke-width="0.181912" stroke-miterlimit="1.5" stroke-linecap="round" stroke-linejoin="round"/>
<path fill-rule="evenodd" clip-rule="evenodd" d="M101.03 71.4869C105.977 67.0545 111.009 62.7114 116.516 58.8679L122.256 53.2909C123.723 52.3651 124.952 52.6072 123.977 54.0447L116.511 61.6399C114.769 64.7183 112.664 67.8001 109.132 70.0559C108.911 70.1973 99.2845 74.3748 101.03 71.4869Z" fill="#AB8035" stroke="#AB8035" stroke-width="0.181912" stroke-miterlimit="1.5" stroke-linecap="round" stroke-linejoin="round"/>
<path fill-rule="evenodd" clip-rule="evenodd" d="M107.652 62.088C106.656 61.0059 106.294 59.8903 108.31 58.6491C106.737 58.1594 105.944 57.3176 106.345 55.843C107.361 54.0586 108.55 53.0166 110.085 52.861C111.983 52.7486 112.658 53.6628 111.034 54.5263C107.869 55.5116 107.364 56.4396 109.034 57.321C112.573 54.4549 115.407 52.7617 116.932 53.2471C118.025 53.8601 118.383 54.4544 116.92 55.3279C112.666 57.1416 109.476 58.9166 109.642 61.2557C109.5 62.5323 108.269 62.5073 107.652 62.0875L107.652 62.0878V62.088Z" fill="#AB8035" stroke="#AB8035" stroke-width="0.181912" stroke-miterlimit="1.5" stroke-linecap="round" stroke-linejoin="round"/>
<path fill-rule="evenodd" clip-rule="evenodd" d="M79.9455 66.2749C75.486 62.0262 71.6928 57.6434 68.5353 53.1323C68.2602 52.4677 68.5346 52.0746 69.917 52.2283C73.825 50.5896 77.2785 50.6455 80.1362 52.9253C82.412 51.2624 84.4115 52.6922 83.0528 54.7395C79.7396 58.009 79.2331 60.8572 80.3217 63.4657C81.1674 65.6508 81.1282 66.6981 79.9452 66.2749H79.9455Z" fill="#AB8035" stroke="#AB8035" stroke-width="0.181912" stroke-miterlimit="1.5" stroke-linecap="round" stroke-linejoin="round"/>
<path fill-rule="evenodd" clip-rule="evenodd" d="M71.3164 53.9717C74.046 55.8448 76.3715 58.0079 77.9923 60.6772C77.7524 58.5131 78.6038 56.6907 80.6907 55.2548C77.3667 52.0006 74.22 51.2606 71.3164 53.9717Z" fill="#6A4A1A" stroke="#AB8035" stroke-width="0.181912" stroke-miterlimit="1.5" stroke-linecap="round" stroke-linejoin="round"/>
<path d="M93.1997 72.0369C100.036 72.0369 105.577 67.4877 105.577 61.8759C105.577 56.2641 100.036 51.7148 93.1997 51.7148C86.3638 51.7148 80.8223 56.2641 80.8223 61.8759C80.8223 67.4877 86.3638 72.0369 93.1997 72.0369Z" fill="#AB8035" stroke="#AB8035" stroke-width="0.181912" stroke-miterlimit="1.5" stroke-linecap="round" stroke-linejoin="round"/>
<path fill-rule="evenodd" clip-rule="evenodd" d="M9.44141 40.1604L20.9387 44.1433C21.2452 44.4144 20.8351 46.0798 20.078 46.6342C19.7395 46.8818 17.2256 46.1342 17.1285 46.4376C12.7177 60.23 27.9415 63.4096 35.5799 48.6953C34.5752 47.7509 32.9712 47.6822 29.8307 47.9732C29.3047 47.3694 29.1347 46.6501 29.8664 45.6382C33.4127 45.5273 36.9588 45.9485 40.5052 46.8065C37.2968 53.6749 33.1966 59.1953 27.2531 61.9307C23.1803 62.9385 19.3531 61.7476 15.8372 57.7674C13.0744 52.7024 10.9446 46.8307 9.44191 40.1602L9.44166 40.1604H9.44141Z" fill="#AB8035" stroke="#AB8035" stroke-width="0.181912" stroke-miterlimit="1.5" stroke-linecap="round" stroke-linejoin="round"/>
<path fill-rule="evenodd" clip-rule="evenodd" d="M41.4193 47.3281C43.9717 47.3635 46.3511 47.7479 48.5567 48.4817C46.1247 49.6464 38.2943 57.3308 38.2943 57.3308C36.3535 59.6278 36.8358 61.6493 38.2095 63.5695C33.1267 63.1766 31.0111 61.3009 36.5377 55.6064L40.6403 51.7751C38.536 51.5366 39.0697 49.91 41.4193 47.3281Z" fill="#AB8035" stroke="#AB8035" stroke-width="0.181912" stroke-miterlimit="1.5" stroke-linecap="round" stroke-linejoin="round"/>
<path fill-rule="evenodd" clip-rule="evenodd" d="M43.1168 53.6133C40.0292 58.9158 40.0666 62.4951 42.2646 65.3133C42.807 66.2737 42.5374 66.7029 41.2536 66.2197C37.6995 63.5797 36.874 59.9461 42.0262 54.136C42.444 53.8176 42.804 53.6532 43.1165 53.6133H43.1168Z" fill="#AB8035" stroke="#AB8035" stroke-width="0.181912" stroke-miterlimit="1.5" stroke-linecap="round" stroke-linejoin="round"/>
<path d="M51.0859 68.2909C55.7404 68.2909 59.5136 64.0154 59.5136 58.7412C59.5136 53.467 55.7404 49.1914 51.0859 49.1914C46.4314 49.1914 42.6582 53.467 42.6582 58.7412C42.6582 64.0154 46.4314 68.2909 51.0859 68.2909Z" fill="#AB8035" stroke="#AB8035" stroke-width="0.181912" stroke-miterlimit="1.5" stroke-linecap="round" stroke-linejoin="round"/>
<path fill-rule="evenodd" clip-rule="evenodd" d="M56.7942 49.4456L62.3545 49.9583C63.9434 50.3362 65.1995 51.0359 65.9263 52.2463C69.9914 58.6513 74.9017 64.1066 80.2928 69.022C82.7483 71.4071 82.2423 71.9157 78.5839 70.4264C75.0682 68.6957 71.1656 65.2834 69.1332 62.0009L63.2899 53.3972C62.3343 51.9401 60.6394 51.1966 58.2206 51.1523C57.0022 50.7003 56.5386 50.1297 56.7947 49.4453L56.7942 49.4456Z" fill="#AB8035" stroke="#AB8035" stroke-width="0.181912" stroke-miterlimit="1.5" stroke-linecap="round" stroke-linejoin="round"/>
<path fill-rule="evenodd" clip-rule="evenodd" d="M61.2236 52.944C63.3032 54.4428 66.7702 60.0075 70.4331 66.1462C71.2354 68.7477 69.8827 69.4306 67.5875 67.6445C66.0997 66.0491 64.9352 65.9994 64.0858 67.4566C63.1804 69.5952 62.474 69.2786 61.8622 67.7926C61.6362 66.527 62.3232 64.9299 63.9697 62.984C63.1367 59.6988 62.107 56.4841 60.157 53.5991C59.9368 52.6142 60.2698 52.3659 61.2236 52.944Z" fill="#AB8035" stroke="#AB8035" stroke-width="0.181912" stroke-miterlimit="1.5" stroke-linecap="round" stroke-linejoin="round"/>
<path fill-rule="evenodd" clip-rule="evenodd" d="M60.7926 60.0719C61.017 59.0473 61.4685 58.9352 62.2479 60.1375C62.6171 62.7605 62.2094 65.1119 60.1084 66.969C59.4177 67.6682 58.6174 68.2778 57.734 68.82C56.3818 69.4139 55.757 68.9951 56.9946 67.6793C59.9204 65.7363 61.2371 63.2188 60.7926 60.0719Z" fill="#AB8035"/>
<path d="M60.7926 60.0719C61.017 59.0473 61.4685 58.9352 62.2479 60.1375C62.6171 62.7605 62.2094 65.1119 60.1084 66.969C59.4177 67.6682 58.6174 68.2778 57.734 68.82C56.3818 69.4139 55.757 68.9951 56.9946 67.6793C59.9204 65.7363 61.2371 63.2188 60.7926 60.0719ZM60.7926 60.0719V60.0716" stroke="#AB8035" stroke-width="0.181912" stroke-miterlimit="1.5" stroke-linecap="round" stroke-linejoin="round"/>
<path fill-rule="evenodd" clip-rule="evenodd" d="M164.976 57.9389C163.508 56.3861 164.569 56.4108 165.968 56.9368C168.376 58.3044 170.525 60.1496 172.442 62.4221C174.732 65.1052 174.389 67.4555 172.577 69.6195C171.533 70.6123 170.625 70.5317 171.177 69.2978C171.703 67.5232 171.585 65.6809 171.034 63.7989C170.573 62.5902 168.056 60.399 164.976 57.9389Z" fill="#AB8035"/>
<path d="M164.976 57.9389C163.508 56.3861 164.569 56.4108 165.968 56.9368C168.376 58.3044 170.525 60.1496 172.442 62.4221C174.732 65.1052 174.389 67.4555 172.577 69.6195C171.533 70.6123 170.625 70.5317 171.177 69.2978C171.703 67.5232 171.585 65.6809 171.034 63.7989C170.573 62.5902 168.056 60.399 164.976 57.9389ZM164.976 57.9389L164.976 57.9391" stroke="#AB8035" stroke-width="0.181912" stroke-miterlimit="1.5" stroke-linecap="round" stroke-linejoin="round"/>
<path fill-rule="evenodd" clip-rule="evenodd" d="M167.704 55.9309C165.725 53.9506 166.29 53.5633 168.978 54.5048C172.55 56.1321 175.583 58.8292 178.237 62.2773C179.12 63.5597 180.499 64.989 182.329 66.5517C184.149 68.2032 183.023 69.2534 180.757 68.3509L175.062 62.8651C172.363 60.8374 169.963 58.4646 167.704 55.9309L167.704 55.9307L167.704 55.9309Z" fill="#AB8035" stroke="#AB8035" stroke-width="0.181912" stroke-miterlimit="1.5" stroke-linecap="round" stroke-linejoin="round"/>
<path fill-rule="evenodd" clip-rule="evenodd" d="M172.079 55.0435C170.767 53.9437 170.982 53.0794 172.942 53.9955C174.95 55.3793 175.891 55.3863 175.453 53.6154C175.072 52.6713 176.837 53.0594 179.243 53.8459C180.083 54.1647 180.756 54.2391 181.162 53.9207C182.585 52.5183 184.371 52.2697 186.589 53.3934C188.772 54.5039 190.174 55.3924 191.251 56.1884C191.908 57.3974 191.96 58.534 191.625 59.6239C190.801 60.8203 189.857 60.9472 190.094 59.1625C190.338 57.2979 188.154 55.7151 183.949 54.3674C183.357 54.2541 182.498 54.4354 181.529 54.7392C180.488 55.1331 180.791 55.4791 181.203 55.8206C185.96 58.6616 187.637 60.9 189.635 63.2013C191.066 65.0077 190.754 65.154 188.856 63.7898C188.308 63.5218 188.025 63.63 188.299 64.2369C192.018 69.4138 190.328 69.1228 186.312 66.4804C184.369 65.1925 182.986 63.6702 181.968 61.9964C181.486 61.2343 178.058 58.8439 172.078 55.044L172.079 55.0435Z" fill="#AB8035" stroke="#AB8035" stroke-width="0.181912" stroke-miterlimit="1.5" stroke-linecap="round" stroke-linejoin="round"/>
<path fill-rule="evenodd" clip-rule="evenodd" d="M188.307 69.7119C189.52 69.4669 189.834 70.047 189.607 71.1228C187.053 73.6571 183.543 73.4598 179.787 72.5643C177.16 71.547 175.9 71.4514 175.188 71.7247C173.23 72.0672 173.087 71.5146 174.342 70.2717C174.954 69.6333 176.923 70.1949 178.641 70.5338C184.938 72.7887 187.089 71.6339 188.307 69.7119Z" fill="#AB8035" stroke="#AB8035" stroke-width="0.181912" stroke-miterlimit="1.5" stroke-linecap="round" stroke-linejoin="round"/>
<path fill-rule="evenodd" clip-rule="evenodd" d="M168.497 69.808C168.018 67.8379 168.148 66.9792 169.984 69.2258C170.764 69.7828 171.172 70.4309 170.241 71.4068C168.126 72.9223 166.797 72.8959 165.318 73.1631C163.581 72.8102 163.631 72.3403 165.029 71.7818C167.69 71.6387 169.091 71.0647 168.497 69.8082V69.808Z" fill="#AB8035" stroke="#AB8035" stroke-width="0.181912" stroke-miterlimit="1.5" stroke-linecap="round" stroke-linejoin="round"/>
<path fill-rule="evenodd" clip-rule="evenodd" d="M68.7424 323.415C70.0724 326.668 72.6545 328.197 76.3484 328.196C80.4354 326.895 80.3346 325.277 78.0688 323.495C77.1469 323.235 76.5855 322.903 77.1719 322.342C79.234 320.383 76.7862 320.294 73.5716 320.522C73.328 320.558 72.9481 320.486 72.9173 320.765C72.665 323.066 70.2646 323.923 69.3148 323.374C68.7716 323.059 68.7479 323.296 68.7424 323.415Z" fill="#AB8035"/>
<path d="M68.7424 323.415C70.0724 326.668 72.6545 328.197 76.3484 328.196C80.4354 326.895 80.3346 325.277 78.0688 323.495C77.1469 323.235 76.5855 322.903 77.1719 322.342C79.234 320.383 76.7862 320.294 73.5716 320.522C73.328 320.558 72.9481 320.486 72.9173 320.765C72.665 323.066 70.2646 323.923 69.3148 323.374C68.7716 323.059 68.7479 323.296 68.7424 323.415ZM68.7424 323.415H68.7422" stroke="#AB8035" stroke-width="0.181912" stroke-miterlimit="1.5" stroke-linecap="round" stroke-linejoin="round"/>
<path fill-rule="evenodd" clip-rule="evenodd" d="M81.5858 329.306C82.268 330.104 81.9682 330.505 80.7014 330.514L76.7299 328.884C76.4793 328.474 76.9166 327.9 77.8407 328.29C78.8841 328.92 80.0611 329.21 81.5858 329.306Z" fill="#AB8035" stroke="#AB8035" stroke-width="0.181912" stroke-miterlimit="1.5" stroke-linecap="round" stroke-linejoin="round"/>
<path fill-rule="evenodd" clip-rule="evenodd" d="M64.9918 321.57C66.2376 320.961 66.8145 321.269 66.7391 322.471C66.5431 323.17 66.1879 323.655 65.641 323.88C64.4623 324.188 63.8223 324.039 63.9945 323.202L64.992 321.569L64.9918 321.57Z" fill="#AB8035" stroke="#AB8035" stroke-width="0.181912" stroke-miterlimit="1.5" stroke-linecap="round" stroke-linejoin="round"/>
<path fill-rule="evenodd" clip-rule="evenodd" d="M65.4549 313.169C64.1127 314.708 64.4345 315.171 66.3273 314.617C72.6592 313.081 71.1597 314.068 67.6753 315.694C66.2996 316.286 67.045 316.44 69.1448 316.315C73.2086 316.314 75.0463 315.499 72.002 312.895C69.6663 310.92 67.5125 311.398 65.4549 313.169V313.169Z" fill="#AB8035" stroke="#AB8035" stroke-width="0.181912" stroke-miterlimit="1.5" stroke-linecap="round" stroke-linejoin="round"/>
<path fill-rule="evenodd" clip-rule="evenodd" d="M223.514 312.962C222.367 314.218 222.831 314.672 225.158 314.201C230.486 309.357 231.627 306.94 229.115 306.641C227.742 306.628 227.282 306.931 227.536 307.481C230.641 308.629 226.353 310.906 223.514 312.962Z" fill="#AB8035"/>
<path d="M223.514 312.962C222.367 314.218 222.831 314.672 225.158 314.201C230.486 309.357 231.627 306.94 229.115 306.641C227.742 306.628 227.282 306.931 227.536 307.481C230.641 308.629 226.353 310.906 223.514 312.962ZM223.514 312.962L223.513 312.963" stroke="#AB8035" stroke-width="0.181912" stroke-miterlimit="1.5" stroke-linecap="round" stroke-linejoin="round"/>
<path fill-rule="evenodd" clip-rule="evenodd" d="M234.041 309.94C234.692 309.757 235.086 310.015 235.232 310.698C235.267 311.258 235.032 311.799 234.046 312.291C232.233 312.316 231.759 311.916 232.349 311.18L234.041 309.94L234.041 309.94Z" fill="#AB8035" stroke="#AB8035" stroke-width="0.181912" stroke-miterlimit="1.5" stroke-linecap="round" stroke-linejoin="round"/>
<path fill-rule="evenodd" clip-rule="evenodd" d="M229.849 314.344C230.442 314.521 230.623 314.898 230.403 315.471C230.157 315.899 229.711 316.185 228.706 316.076C227.288 315.229 227.116 314.708 227.932 314.448L229.849 314.344Z" fill="#AB8035"/>
<path d="M229.849 314.344C230.442 314.521 230.623 314.898 230.403 315.471C230.157 315.899 229.711 316.185 228.706 316.076C227.288 315.229 227.116 314.708 227.932 314.448L229.849 314.344ZM229.849 314.344L229.849 314.344" stroke="#AB8035" stroke-width="0.181912" stroke-miterlimit="1.5" stroke-linecap="round" stroke-linejoin="round"/>
<path fill-rule="evenodd" clip-rule="evenodd" d="M66.6269 308.516C68.8368 308.229 69.1159 308.774 67.755 310.024C64.077 310.784 62.8928 312 61.4143 313.162C59.856 313.537 59.7162 313.017 60.5938 311.855C62.8676 310.395 65.5376 308.414 66.6269 308.516Z" fill="#AB8035" stroke="#AB8035" stroke-width="0.181912" stroke-miterlimit="1.5" stroke-linecap="round" stroke-linejoin="round"/>
<path fill-rule="evenodd" clip-rule="evenodd" d="M237.907 321.251C239.148 320.912 239.112 320.462 238.256 319.94C236.55 319.645 235.269 319.857 234.451 320.617C233.385 321.735 233.091 322.486 233.412 322.945C234.224 323.957 234.929 323.64 235.63 323.271C236.693 322.628 236.478 322.068 235.204 321.577C234.521 321.404 234.549 321.155 234.899 320.871C235.412 320.516 236.632 320.856 237.908 321.251H237.907Z" fill="#AB8035" stroke="#AB8035" stroke-width="0.181912" stroke-miterlimit="1.5" stroke-linecap="round" stroke-linejoin="round"/>
<path fill-rule="evenodd" clip-rule="evenodd" d="M208.523 319.766C207.533 319.942 207.587 320.361 208.163 320.901L209.657 321.455C210.57 321.314 210.653 320.836 210.232 320.154L208.523 319.766Z" fill="#AB8035"/>
<path d="M208.523 319.766C207.533 319.942 207.587 320.361 208.163 320.901L209.657 321.455C210.57 321.314 210.653 320.836 210.232 320.154L208.523 319.766ZM208.523 319.766V319.766" stroke="#AB8035" stroke-width="0.181912" stroke-miterlimit="1.5" stroke-linecap="round" stroke-linejoin="round"/>
<path fill-rule="evenodd" clip-rule="evenodd" d="M230.519 324.018C232.058 324.058 232.744 323.704 231.675 322.537C230.319 321.341 228.983 319.989 227.362 320.786C227.178 320.993 226.808 320.999 226.31 320.868C224.779 321.423 224.293 321.983 224.976 322.549C226.219 323.411 227.47 324.624 228.668 323.275C229.191 322.542 229.619 322.238 229.856 322.803C229.774 323.433 229.683 324.071 230.519 324.018L230.519 324.018L230.519 324.018Z" fill="#AB8035" stroke="#AB8035" stroke-width="0.181912" stroke-miterlimit="1.5" stroke-linecap="round" stroke-linejoin="round"/>
<path fill-rule="evenodd" clip-rule="evenodd" d="M214.548 325.729C213.754 326.429 213.569 326.919 214.015 327.192C214.779 327.52 215.859 326.685 216.905 325.971C217.147 325.121 217.016 324.601 215.914 324.942L214.548 325.729Z" fill="#AB8035" stroke="#AB8035" stroke-width="0.181912" stroke-miterlimit="1.5" stroke-linecap="round" stroke-linejoin="round"/>
<path fill-rule="evenodd" clip-rule="evenodd" d="M220.175 320.197C220.277 319.228 220.66 318.992 221.441 319.787C221.884 320.413 221.982 321.102 221.808 321.841C221.624 322.18 223.104 323.338 224.192 324.303C224.529 325.185 224.653 325.847 223.334 325.04C222.219 323.631 221.066 322.302 219.112 322.603C218.451 322.476 217.881 322.256 217.728 321.611C217.531 320.994 218.01 320.933 218.728 321.071C220.485 322.149 221.158 322.063 220.175 320.198V320.197Z" fill="#AB8035" stroke="#AB8035" stroke-width="0.181912" stroke-miterlimit="1.5" stroke-linecap="round" stroke-linejoin="round"/>
<path fill-rule="evenodd" clip-rule="evenodd" d="M176.907 327.784C178.023 326.925 178.347 327.393 178.344 328.412C175.429 331.365 170.557 334.891 172.062 336.547C172.809 337.771 172.282 338.068 170.952 337.782C170.487 337.439 170.362 336.621 170.366 335.621C170.111 334.83 169.708 335.622 169.281 336.684C168.972 338.074 167.22 336.993 168.418 334.592C168.485 334.452 168.715 334.006 170.035 333.946C172.064 333.853 174.532 330.867 176.907 327.783L176.907 327.784Z" fill="#AB8035" stroke="#AB8035" stroke-width="0.181912" stroke-miterlimit="1.5" stroke-linecap="round" stroke-linejoin="round"/>
<path fill-rule="evenodd" clip-rule="evenodd" d="M176.812 330.632C178.411 329.064 178.619 329.715 177.981 331.714C177.451 332.345 177.077 332.902 177.198 333.816C175.374 339.506 174.006 337.586 172.589 336.086C171.715 335.155 174.577 332.771 176.812 330.632L176.812 330.632Z" fill="#AB8035" stroke="#AB8035" stroke-width="0.181912" stroke-miterlimit="1.5" stroke-linecap="round" stroke-linejoin="round"/>
<path fill-rule="evenodd" clip-rule="evenodd" d="M184.088 333.802C182.459 332.922 182.136 333.787 182.614 335.72C183.894 337.531 186.167 336.4 188.312 335.645C189.285 334.225 187.769 332.694 186.85 333.9C186.07 335.016 185.181 335.248 184.088 333.802Z" fill="#AB8035" stroke="#AB8035" stroke-width="0.181912" stroke-miterlimit="1.5" stroke-linecap="round" stroke-linejoin="round"/>
<path fill-rule="evenodd" clip-rule="evenodd" d="M115.189 331.252C114.635 332.706 115.164 333.236 116.768 332.848C117.446 332.56 118.204 331.967 119.093 330.866C119.335 330.377 119.619 330.327 119.952 330.76C120.059 331.719 120.239 332.185 120.461 332.366C121.536 333.269 121.902 332.441 122.172 331.375C122.205 330.232 121.558 329.254 120.285 328.426C119.528 327.88 118.943 328.031 118.418 328.418L115.19 331.252H115.189Z" fill="#AB8035" stroke="#AB8035" stroke-width="0.181912" stroke-miterlimit="1.5" stroke-linecap="round" stroke-linejoin="round"/>
<path fill-rule="evenodd" clip-rule="evenodd" d="M118.589 333.514C117.2 333.731 117.023 334.42 118.025 335.567C118.984 336.468 119.796 336.315 120.507 335.444C121.364 334.622 122.324 334.791 123.298 335.104C126.282 335.901 126.224 334.875 124.909 333.096C123.871 332.554 122.779 332.524 121.63 333.049C120.351 333.752 119.474 333.624 118.589 333.514L118.589 333.514Z" fill="#AB8035" stroke="#AB8035" stroke-width="0.181912" stroke-miterlimit="1.5" stroke-linecap="round" stroke-linejoin="round"/>
<path fill-rule="evenodd" clip-rule="evenodd" d="M126.177 333.959C125.792 333.024 126.215 332.79 127.171 333.019C128.27 333.607 129.139 334.264 129.765 334.994C130.013 336.044 129.591 336.311 128.6 335.909C127.924 335.126 127.132 334.459 126.176 333.959L126.177 333.959Z" fill="#AB8035" stroke="#AB8035" stroke-width="0.181912" stroke-miterlimit="1.5" stroke-linecap="round" stroke-linejoin="round"/>
<path fill-rule="evenodd" clip-rule="evenodd" d="M128.412 337.098C127.925 337.073 127.533 337.161 127.41 337.561C127.365 338.17 127.577 338.442 128.067 338.35L129.128 338.078C129.345 337.44 129.064 337.142 128.412 337.098Z" fill="#AB8035" stroke="#AB8035" stroke-width="0.181912" stroke-miterlimit="1.5" stroke-linecap="round" stroke-linejoin="round"/>
<path fill-rule="evenodd" clip-rule="evenodd" d="M143.894 334.747C144.918 335.983 144.427 336.273 143.065 336.017C138.578 334.828 135.996 332.757 134.432 330.214C134.182 328.943 134.611 328.781 135.822 329.894C137.133 331.781 138.24 332.603 139.276 333.053C139.673 333.234 139.847 333.121 139.597 332.785C137.053 329.732 138.489 327.956 142.036 326.859C144.15 326.425 147.495 326.55 151.651 327.043C153.09 327.525 153.119 329.048 151.993 328.743C151.297 328.64 150.751 328.672 150.605 329.068C150.794 330.698 149.838 330.752 148.804 330.697C148.209 330.583 148.278 329.946 148.937 328.84C149.271 328.449 149.502 328.103 148.66 328.213C144.925 328.183 143.155 328.588 144.161 329.65C145.598 332.289 144.189 332.778 142.521 331.328C141.855 330.585 141.6 329.87 142.502 329.23C142.849 328.911 142.411 328.572 141.814 328.675C139.091 329.87 138.852 331.667 143.894 334.746L143.894 334.747H143.894Z" fill="#AB8035" stroke="#AB8035" stroke-width="0.181912" stroke-miterlimit="1.5" stroke-linecap="round" stroke-linejoin="round"/>
<path fill-rule="evenodd" clip-rule="evenodd" d="M145.777 334.662C145.603 333.08 146.154 332.535 147.76 333.497C148.45 334.269 149.087 334.294 149.696 333.936L153.977 329.442C154.965 328.393 155.469 328.793 155.625 330.237C156.005 330.631 153.013 333.424 150.24 336.061C149.813 336.311 149.378 336.435 148.919 336.14C148.312 335.657 148.235 336.225 148.452 337.379C147.982 337.419 147.551 337.406 147.162 337.336C146.791 337.27 146.458 337.151 146.165 336.98L145.777 334.662H145.777Z" fill="#AB8035" stroke="#AB8035" stroke-width="0.181912" stroke-miterlimit="1.5" stroke-linecap="round" stroke-linejoin="round"/>
<path fill-rule="evenodd" clip-rule="evenodd" d="M157.893 335.794C156.424 336.216 154.937 336.666 153.825 336.554C153.412 336.43 153.349 336.268 153.877 336.041C155.8 335.896 157.326 334.456 158.562 332.073C158.854 331.676 158.925 331.406 158.631 331.347C157.866 330.876 156.973 330.401 157.01 329.963C156.744 328.335 157.267 328.084 158.172 328.503C158.916 329.526 159.749 330.849 160.129 330.628C161.081 330.56 161.364 330.67 161.567 330.802C163.4 332.166 163.939 332.957 162.848 333.025C161.577 332.775 160.379 332.769 159.522 333.898L157.893 335.794H157.893Z" fill="#AB8035" stroke="#AB8035" stroke-width="0.181912" stroke-miterlimit="1.5" stroke-linecap="round" stroke-linejoin="round"/>
<path fill-rule="evenodd" clip-rule="evenodd" d="M164.599 328.668C163.683 328.768 163.495 329.176 163.742 329.767C164.027 330.214 164.578 330.461 165.244 330.621C166.29 330.78 166.602 330.396 166.257 329.525C166.172 329.215 165.524 328.934 164.599 328.668Z" fill="#AB8035" stroke="#AB8035" stroke-width="0.181912" stroke-miterlimit="1.5" stroke-linecap="round" stroke-linejoin="round"/>
<path fill-rule="evenodd" clip-rule="evenodd" d="M105.703 335.12C105.218 335.92 105.531 336.283 106.877 336.08C107.757 335.458 108.428 335.477 108.893 336.125C110.282 336.875 110.37 336.178 109.992 334.96C108.891 333.689 107.505 333.535 105.703 335.12Z" fill="#AB8035" stroke="#AB8035" stroke-width="0.181912" stroke-miterlimit="1.5" stroke-linecap="round" stroke-linejoin="round"/>
<path fill-rule="evenodd" clip-rule="evenodd" d="M98.94 324.163C98.3979 322.424 99.3527 322.758 100.789 323.759C101.515 324.622 101.236 325.432 99.5324 326.168C98.7541 326.391 98.821 326.803 99.4453 327.339C100.152 328.237 101.239 328.22 102.665 327.381L105.418 325.029C107.472 323.402 108.415 324.618 108.908 326.989C108.775 327.603 108.406 327.952 106.675 326.768C106.329 326.549 106.023 326.446 105.878 326.813C103.835 329.116 101.598 330.373 98.8442 328.818C96.7631 327.47 96.0624 326.37 98.0996 325.764C99.3262 325.367 99.4677 324.814 98.94 324.164V324.163Z" fill="#AB8035" stroke="#AB8035" stroke-width="0.181912" stroke-miterlimit="1.5" stroke-linecap="round" stroke-linejoin="round"/>
<path fill-rule="evenodd" clip-rule="evenodd" d="M92.7327 325.1C92.5353 326.24 92.9711 326.277 93.7886 325.649C94.1965 325.316 94.5215 324.946 94.6396 324.486C94.6895 323.651 94.2916 323.498 93.5724 323.834C92.9836 324.353 92.8393 324.733 92.7327 325.1Z" fill="#AB8035" stroke="#AB8035" stroke-width="0.181912" stroke-miterlimit="1.5" stroke-linecap="round" stroke-linejoin="round"/>
<path fill-rule="evenodd" clip-rule="evenodd" d="M88.109 321.385C87.334 321.276 87.0659 321.502 87.5207 322.206L90.4075 325.011C91.6185 325.558 92.0121 325.33 91.3673 324.117C91.1484 323.805 90.8569 323.535 90.4445 323.333C89.775 322.958 89.8536 322.724 90.9482 322.681L93.6369 322.947C95.4434 322.66 94.7824 321.705 93.3333 321.665L88.109 321.385V321.385Z" fill="#AB8035" stroke="#AB8035" stroke-width="0.181912" stroke-miterlimit="1.5" stroke-linecap="round" stroke-linejoin="round"/>
<path fill-rule="evenodd" clip-rule="evenodd" d="M94.547 327.592C94.8505 326.375 95.5467 326.636 96.5015 327.872C98.6927 330.436 96.533 330.653 92.7859 330.012C90.2256 329.35 88.3539 326.811 86.5849 323.992C86.2586 323.397 85.8912 323.195 85.4993 323.224C83.537 322.576 83.3825 321.109 83.844 319.363C84.2037 318.936 84.6211 318.878 85.1583 319.588C85.1163 320.749 85.2848 321.496 85.8018 321.556C86.3532 321.393 86.7494 321.574 86.9915 322.094C90.2128 326.589 93.2343 330.325 94.547 327.592Z" fill="#AB8035" stroke="#AB8035" stroke-width="0.181912" stroke-miterlimit="1.5" stroke-linecap="round" stroke-linejoin="round"/>
<path fill-rule="evenodd" clip-rule="evenodd" d="M111.456 332.059L111.338 335.299C111.326 336.371 111.71 336.868 112.655 336.551L115.619 336.025C115.281 333.41 113.693 332.335 111.456 332.059Z" fill="#AB8035" stroke="#AB8035" stroke-width="0.181912" stroke-miterlimit="1.5" stroke-linecap="round" stroke-linejoin="round"/>
<path fill-rule="evenodd" clip-rule="evenodd" d="M179.179 333.282C178.807 332.45 179.224 332.139 180.529 332.414C181.609 332.938 181.835 333.911 181.462 335.199C180.983 336.141 180.32 336.382 180.113 335.228C180.162 334.192 179.98 333.404 179.179 333.282L179.179 333.282Z" fill="#AB8035" stroke="#AB8035" stroke-width="0.181912" stroke-miterlimit="1.5" stroke-linecap="round" stroke-linejoin="round"/>
<path fill-rule="evenodd" clip-rule="evenodd" d="M178.766 334.973C177.95 334.35 177.736 334.872 177.771 335.867C177.919 336.619 178.387 336.882 178.881 337.104C180.088 337.29 180.3 336.966 179.814 336.285L178.766 334.973Z" fill="#AB8035" stroke="#AB8035" stroke-width="0.181912" stroke-miterlimit="1.5" stroke-linecap="round" stroke-linejoin="round"/>
<path fill-rule="evenodd" clip-rule="evenodd" d="M190.583 326.781C191.249 327.983 190.827 328.525 189.119 328.287C186.311 327.234 185.224 326.022 188.989 324.359C191.315 323.684 192.735 323.98 193.327 325.165C194.247 327.237 195.72 328.735 198.073 329.32C199.278 330.107 199.015 330.568 197.679 330.791C195.546 329.834 193.31 329.015 192.319 326.514C191.259 325.243 190.244 325.976 190.583 326.781L190.583 326.781Z" fill="#AB8035" stroke="#AB8035" stroke-width="0.181912" stroke-miterlimit="1.5" stroke-linecap="round" stroke-linejoin="round"/>
<path fill-rule="evenodd" clip-rule="evenodd" d="M198.223 323.715C198.182 323.145 197.889 322.868 197.071 323.203C195.323 324.419 195.795 325.253 196.562 326.035C197.763 327.059 198.796 327.703 199.686 328.025C200.269 328.078 200.553 328.278 200.202 328.788C199.926 329.745 200.374 329.962 201.398 329.589C202.492 329.3 205.037 326.719 207.508 324.256C208.438 322.161 207.754 320.979 205.17 320.871C204.201 320.963 203.098 321.593 201.722 322.5C200.486 323.151 200.375 323.725 201.415 324.221C202.355 324.351 202.714 324.614 202.148 325.088C200.42 325.565 200.635 326.033 201.057 326.5C201.661 327.339 201.201 327.347 200.124 326.872C198.459 326.251 196.319 325.124 197.602 324.375L198.223 323.715Z" fill="#AB8035" stroke="#AB8035" stroke-width="0.181912" stroke-miterlimit="1.5" stroke-linecap="round" stroke-linejoin="round"/>
<path fill-rule="evenodd" clip-rule="evenodd" d="M207.342 327.419C207.084 328.853 207.662 328.643 208.752 327.423C210.435 324.42 211.915 320.165 213.936 319.246C214.944 318.565 215.132 318.082 213.75 317.979C212.245 317.599 209.634 323.401 207.342 327.419" fill="#AB8035"/>
<path d="M207.342 327.419C207.084 328.853 207.662 328.643 208.752 327.423C210.435 324.42 211.915 320.165 213.936 319.246C214.944 318.565 215.132 318.082 213.75 317.979C212.245 317.599 209.634 323.401 207.342 327.419" stroke="#AB8035" stroke-width="0.181912" stroke-miterlimit="1.5" stroke-linecap="round" stroke-linejoin="round"/>
<path fill-rule="evenodd" clip-rule="evenodd" d="M115.129 202.369C138.927 206.824 161.501 206.44 182.103 202.137L181.96 209.781C159.753 218.75 137.367 218.905 115.26 210.1L115.129 202.369Z" fill="url(#paint10_linear_3913_21128)" stroke="#24211C" stroke-width="0.56786" stroke-miterlimit="1.5" stroke-linecap="round" stroke-linejoin="round"/>
<path fill-rule="evenodd" clip-rule="evenodd" d="M119.023 205.798C117.272 206.212 116.743 206.851 118.69 207.944C138.681 214.722 159.313 214.178 180.482 207.489C181.857 206.394 181.76 205.79 180.578 205.547C159.769 212.946 139.25 213.042 119.023 205.798Z" fill="#1E1B12" stroke="#1E1B12" stroke-width="0.181912" stroke-miterlimit="1.5" stroke-linecap="round" stroke-linejoin="round"/>
<path fill-rule="evenodd" clip-rule="evenodd" d="M228.221 301.878C244.495 315.32 242.462 319.826 220.153 315.617C217.683 315.34 216.027 316.082 215.456 317.342C209.124 335.641 195.79 335.305 178.789 325.213C177.471 324.367 176.239 324.442 175.097 325.479C158.771 341.649 140.847 341.223 121.507 326.092C119.934 324.927 118.24 325.099 116.814 325.72C98.9895 336.367 86.3297 335.069 79.6324 317.055C79.1878 316.414 78.4969 316.144 77.4949 316.341C59.697 318.834 52.5356 314.551 68.4302 302.567C69.3892 301.363 69.4664 301.634 68.6608 301.769C50.2176 312.129 56.2342 323.351 77.0723 318.561C85.2154 337.459 99.4828 337.741 119.635 326.719C139.043 344.246 157.883 343.307 177.262 326.359C195.598 339.22 210.117 338.002 218.183 317.8C240.818 321.195 253.903 316.642 228.221 301.878L228.221 301.878L228.221 301.878Z" fill="#AB8035" stroke="#AB8035" stroke-width="0.181912" stroke-miterlimit="1.5" stroke-linecap="round" stroke-linejoin="round"/>
<path fill-rule="evenodd" clip-rule="evenodd" d="M129.102 270.976C126.593 292.101 114.173 297.21 96.3254 298.565C65.2241 300.101 69.7587 309.93 95.6566 315.701C136.691 324.553 175.307 321.185 211.948 311.76C223.624 308.306 220.551 300.804 211.482 300.476C184.369 300.117 168.065 292.433 168.211 270.109C155.239 273.966 142.204 274.334 129.102 270.976Z" fill="#1F4758"/>
<path fill-rule="evenodd" clip-rule="evenodd" d="M129.102 270.976C126.593 292.101 114.173 297.21 96.3254 298.565C65.2241 300.101 69.7587 309.93 95.6566 315.701C136.691 324.553 175.307 321.185 211.948 311.76C223.624 308.306 220.551 300.804 211.482 300.476C184.369 300.117 168.065 292.433 168.211 270.109C155.239 273.966 142.204 274.334 129.102 270.976Z" fill="url(#paint11_linear_3913_21128)"/>
<path fill-rule="evenodd" clip-rule="evenodd" d="M92.4604 298.835C82.7337 301.403 83.2616 305.794 90.3801 310.789C105.67 318.927 140.16 315.6 145.02 295.847C145.802 291.741 145.393 285.915 144.841 280.831C142.878 275.174 137.261 272.79 130.024 271.859C127.848 296.867 116.1 304.326 99.5312 302.949C95.1653 301.923 94.9481 300.323 99.4131 298.287" fill="url(#paint12_linear_3913_21128)"/>
<path fill-rule="evenodd" clip-rule="evenodd" d="M154.221 274.89C146.534 279.975 147.417 295.715 154.321 305.733C163.828 316.608 182.377 317.54 208.227 310.446C212.571 306.907 211.119 299.742 204.83 301.457C179.725 307.756 168.054 298.549 165.989 271.906C161.8 271.94 157.671 272.963 154.221 274.89Z" fill="#BD944A"/>
<path fill-rule="evenodd" clip-rule="evenodd" d="M154.221 274.89C146.534 279.975 147.417 295.715 154.321 305.733C163.828 316.608 182.377 317.54 208.227 310.446C212.571 306.907 211.119 299.742 204.83 301.457C179.725 307.756 168.054 298.549 165.989 271.906C161.8 271.94 157.671 272.963 154.221 274.89Z" fill="url(#paint13_linear_3913_21128)"/>
<path fill-rule="evenodd" clip-rule="evenodd" d="M163.98 273.918C162.801 299.444 175.832 308.687 198.292 307.127C178.041 311.052 157.162 311.923 154.018 294.004C152.898 289.39 152.706 282.431 154.169 280.001C156.554 276.355 159.922 274.506 163.98 273.918Z" fill="#C2A68B"/>
<path fill-rule="evenodd" clip-rule="evenodd" d="M106.391 307.868C126.806 311.012 140.416 305.475 142.025 284.626C141.749 278.894 138.682 275.804 133.797 274.434C131.59 298.237 121.384 306.243 106.391 307.868Z" fill="#DEC1A4"/>
<path fill-rule="evenodd" clip-rule="evenodd" d="M133.366 291.148C132.44 291.152 131.61 291.379 131.293 292.797C132.596 295.311 133.61 297.988 134.343 300.825C136.328 299.046 137.804 296.959 138.615 294.467C137.412 292.859 135.621 291.79 133.366 291.148Z" fill="#976D21"/>
<path fill-rule="evenodd" clip-rule="evenodd" d="M155.906 294.469C156.465 297.535 157.754 299.573 159.427 301.07L163.567 293.943C163.851 292.443 163.454 291.553 161.707 291.868L155.906 294.469Z" fill="#7E5C1F"/>
<path fill-rule="evenodd" clip-rule="evenodd" d="M137.63 278.535L134.742 282.657C134.662 284.848 135.887 286.026 138.016 286.502L141.46 283.473C140.711 281.124 139.437 279.475 137.63 278.535Z" fill="#976D21"/>
<path fill-rule="evenodd" clip-rule="evenodd" d="M158.159 278.871C155.521 280.068 154.725 282.175 155.155 284.888L159.395 283.933C160.333 283.534 160.665 282.904 160.193 281.968L158.159 278.871Z" fill="#7E5C1F"/>
<path d="M129.636 216.375L129.193 227.917" stroke="black" stroke-width="0.717815" stroke-miterlimit="1.5" stroke-linecap="round" stroke-linejoin="round"/>
<path d="M132.523 217.355L132.438 229.047" stroke="black" stroke-width="0.717815" stroke-miterlimit="1.5" stroke-linecap="round" stroke-linejoin="round"/>
<path d="M135.308 217.891L135.053 229.416" stroke="black" stroke-width="0.717815" stroke-miterlimit="1.5" stroke-linecap="round" stroke-linejoin="round"/>
<path d="M137.76 218.379L137.734 229.843" stroke="black" stroke-width="0.717815" stroke-miterlimit="1.5" stroke-linecap="round" stroke-linejoin="round"/>
<path d="M141.168 218.941L141.316 231.218" stroke="black" stroke-width="0.717815" stroke-miterlimit="1.5" stroke-linecap="round" stroke-linejoin="round"/>
<path d="M144.273 219.203L144.415 231.337" stroke="black" stroke-width="0.717815" stroke-miterlimit="1.5" stroke-linecap="round" stroke-linejoin="round"/>
<path d="M147.984 219.34L148.113 231.406" stroke="black" stroke-width="0.717815" stroke-miterlimit="1.5" stroke-linecap="round" stroke-linejoin="round"/>
<path d="M151.047 219.297L151.257 231.121" stroke="black" stroke-width="0.717815" stroke-miterlimit="1.5" stroke-linecap="round" stroke-linejoin="round"/>
<path d="M155.4 219.148L155.679 230.473" stroke="black" stroke-width="0.717815" stroke-miterlimit="1.5" stroke-linecap="round" stroke-linejoin="round"/>
<path d="M159.39 218.473L159.387 229.874" stroke="black" stroke-width="0.717815" stroke-miterlimit="1.5" stroke-linecap="round" stroke-linejoin="round"/>
<path d="M162.627 218.133L162.87 229.251" stroke="black" stroke-width="0.717815" stroke-miterlimit="1.5" stroke-linecap="round" stroke-linejoin="round"/>
<path d="M165.904 217.062L165.664 227.608" stroke="black" stroke-width="0.717815" stroke-miterlimit="1.5" stroke-linecap="round" stroke-linejoin="round"/>
<path fill-rule="evenodd" clip-rule="evenodd" d="M148.854 308.688L141.871 312.972C144.74 313.972 147.452 315.335 149.988 317.106C151.589 315.356 153.414 313.97 155.54 313.073L148.854 308.688Z" fill="#976D21"/>
<path d="M148.181 262.434C155.085 262.434 160.681 257.328 160.681 251.03C160.681 244.731 155.085 239.625 148.181 239.625C141.278 239.625 135.682 244.731 135.682 251.03C135.682 257.328 141.278 262.434 148.181 262.434Z" fill="#BD944A" stroke="#BD944A" stroke-width="0.378574" stroke-miterlimit="1.5" stroke-linecap="round" stroke-linejoin="round"/>
<path d="M130.383 259.988C136.723 259.988 141.863 254.984 141.863 248.81C141.863 242.637 136.723 237.633 130.383 237.633C124.042 237.633 118.902 242.637 118.902 248.81C118.902 254.984 124.042 259.988 130.383 259.988Z" fill="#BD944A" stroke="#BD944A" stroke-width="0.378574" stroke-miterlimit="1.5" stroke-linecap="round" stroke-linejoin="round"/>
<path d="M166.402 259.172C172.767 259.172 177.926 254.331 177.926 248.359C177.926 242.388 172.767 237.547 166.402 237.547C160.038 237.547 154.879 242.388 154.879 248.359C154.879 254.331 160.038 259.172 166.402 259.172Z" fill="#BD944A" stroke="#BD944A" stroke-width="0.378574" stroke-miterlimit="1.5" stroke-linecap="round" stroke-linejoin="round"/>
<path d="M93.0332 69.6956C97.609 69.6956 101.318 66.0631 101.318 61.5822C101.318 57.1013 97.609 53.4688 93.0332 53.4688C88.4574 53.4688 84.748 57.1013 84.748 61.5822C84.748 66.0631 88.4574 69.6956 93.0332 69.6956Z" fill="#DFC1A4" stroke="#1F4758" stroke-width="0.378574" stroke-miterlimit="1.5" stroke-linecap="round" stroke-linejoin="round"/>
<path d="M50.7413 65.0176C54.2088 65.0176 57.0198 61.8298 57.0198 57.8975C57.0198 53.9651 54.2088 50.7773 50.7413 50.7773C47.2739 50.7773 44.4629 53.9651 44.4629 57.8975C44.4629 61.8298 47.2739 65.0176 50.7413 65.0176Z" fill="#DEC0A3" stroke="#1F4758" stroke-width="0.378574" stroke-miterlimit="1.5" stroke-linecap="round" stroke-linejoin="round"/>
<path d="M148.488 71.5941C153.064 71.5941 156.773 67.9616 156.773 63.4806C156.773 58.9997 153.064 55.3672 148.488 55.3672C143.912 55.3672 140.203 58.9997 140.203 63.4806C140.203 67.9616 143.912 71.5941 148.488 71.5941Z" fill="#CEB196" stroke="#1F4758" stroke-width="0.378574" stroke-miterlimit="1.5" stroke-linecap="round" stroke-linejoin="round"/>
<path d="M148.058 258.386C152.239 258.386 155.628 255.007 155.628 250.839C155.628 246.672 152.239 243.293 148.058 243.293C143.877 243.293 140.488 246.672 140.488 250.839C140.488 255.007 143.877 258.386 148.058 258.386Z" fill="#CEB296" stroke="#1F4758" stroke-width="0.378574" stroke-miterlimit="1.5" stroke-linecap="round" stroke-linejoin="round"/>
<path d="M130.795 256.414C135.444 256.414 139.212 252.682 139.212 248.078C139.212 243.474 135.444 239.742 130.795 239.742C126.146 239.742 122.377 243.474 122.377 248.078C122.377 252.682 126.146 256.414 130.795 256.414Z" fill="#CEB296" stroke="#1F4758" stroke-width="0.378574" stroke-miterlimit="1.5" stroke-linecap="round" stroke-linejoin="round"/>
<path d="M166.19 255.417C170.514 255.417 174.019 251.94 174.019 247.652C174.019 243.363 170.514 239.887 166.19 239.887C161.866 239.887 158.361 243.363 158.361 247.652C158.361 251.94 161.866 255.417 166.19 255.417Z" fill="#CEB296" stroke="#1F4758" stroke-width="0.378574" stroke-miterlimit="1.5" stroke-linecap="round" stroke-linejoin="round"/>
<path d="M202.733 68.8276C207.187 68.8276 210.797 65.3676 210.797 61.0994C210.797 56.8312 207.187 53.3711 202.733 53.3711C198.279 53.3711 194.668 56.8312 194.668 61.0994C194.668 65.3676 198.279 68.8276 202.733 68.8276Z" fill="#C2A68B" stroke="#1F4758" stroke-width="0.378574" stroke-miterlimit="1.5" stroke-linecap="round" stroke-linejoin="round"/>
<path d="M242.908 66.0314C246.568 66.0314 249.535 62.6281 249.535 58.4298C249.535 54.2315 246.568 50.8281 242.908 50.8281C239.248 50.8281 236.281 54.2315 236.281 58.4298C236.281 62.6281 239.248 66.0314 242.908 66.0314Z" fill="#C2A68B" stroke="#1F4758" stroke-width="0.378574" stroke-miterlimit="1.5" stroke-linecap="round" stroke-linejoin="round"/>
<path fill-rule="evenodd" clip-rule="evenodd" d="M295.753 17.8462C291.171 12.5957 281.505 10.1063 263.411 7.6033C175.596 -3.53579 99.35 -0.850756 28.7987 8.24339C14.7294 10.275 3.37113 12.7274 1.46602 17.2889C0.691948 22.0307 5.69884 25.3878 5.87607 25.5534C26.8664 45.1814 249.443 50.3745 290.885 27.9438C295.376 25.9966 297.04 22.6507 295.754 17.8457V17.8459L295.753 17.8462Z" fill="#977323" stroke="#24211C" stroke-width="0.56786" stroke-miterlimit="1.5" stroke-linecap="round" stroke-linejoin="round"/>
<path fill-rule="evenodd" clip-rule="evenodd" d="M155.978 201.635L152.006 201.182C155.247 194.914 160.411 189.735 167.615 185.711C171.44 182.963 174.231 179.773 176.018 176.156C177.069 179 176.954 181.797 174.877 184.516C180.838 185.012 188.418 181.837 189.615 171.959C190.312 166.205 191.469 164.312 192.589 162.494C198.851 169.675 194.655 176.628 187.555 183.518C194.164 179.798 206.648 168.239 208.056 162.228C209.058 160.023 205.149 154.112 200.888 149.861C204.247 148.322 205.822 146.913 203.45 143.5C202.325 141.997 202.059 138.908 202.758 134.033C206.122 135.794 209.834 140.504 213.844 147.716C215.047 146.919 215.937 145.714 216.663 144.294C219.026 151.908 214.491 161.413 206.591 171.84C216.503 164.752 229.895 152.526 227.781 140.099C224.74 128.64 217.442 124.096 207.818 124.933C215.29 116.74 230.167 119.672 232.76 137.242C235.418 124.739 234.061 114.243 223.717 108.239C214.44 106.219 207.704 109.998 202.752 117.847C199.508 114.694 200.493 110.374 205.25 105.471C192.386 102.84 186.89 97.021 192.35 86.4619C195.884 95.4016 202.605 98.9224 213.168 99.0245C205.956 92.8171 206.183 89.0121 211.052 86.7064C210.206 91.3035 217.404 97.0846 227.874 103.347C226.152 91.5563 230.533 85.3067 241.457 84.6288C243.403 84.6901 243.965 85.4626 244.1 86.6641C232.684 92.5643 234.097 102.902 237.895 114.065C240.384 125.242 239.483 135.45 236.922 145.182C242.272 138.266 244.187 130.21 247.156 118.046C251.034 107.337 253.842 96.2702 253.335 84.0991C257.658 92.6464 263.294 90.3954 269.84 80.668C266.916 87.8704 266.318 94.6064 269.161 100.652C260.151 100.829 256.382 107.378 255.375 115.617C259.33 113.003 264.026 115.089 268.145 119.342C256.482 121.635 248.981 128.363 244.673 139.321C249.257 136.731 253.654 138.312 257.823 144.942C248.226 143.603 241.436 146.778 230.737 157.669C235.352 159.333 238.753 161.929 241.168 165.285C230.764 163.52 220.851 167.007 211.408 175.497C218.434 174.358 222.49 176.614 224.402 181.321C213.918 177.797 202.678 180.032 191.044 185.265C196.636 186.83 197.868 190.281 196.615 194.806C189.197 184.171 164.284 189.099 155.978 201.634L155.978 201.635Z" fill="url(#paint14_linear_3913_21128)" stroke="#24211C" stroke-width="0.56786" stroke-miterlimit="1.5" stroke-linecap="round" stroke-linejoin="round"/>
<path fill-rule="evenodd" clip-rule="evenodd" d="M141.157 202.36C140.397 197.499 138.201 192.958 135.031 188.633C128.022 184.347 124.109 179.699 123.421 174.675C121.019 177.204 120.508 180.511 124.662 185.736C114.447 184.003 106.888 177.395 104.114 161.999C97.9129 166.782 99.1633 173.025 105.718 180.309C93.6806 173.656 86.4007 166.227 88.0984 157.336C89.0254 153.157 90.9278 149.188 94.0793 145.487C95.1554 142.327 94.7323 138.923 93.2428 135.346C86.4409 138.998 83.7457 144.143 82.6531 149.872C82.4924 147.646 82.0131 145.632 80.0606 144.599C77.1048 147.167 76.5786 151.138 80.3996 156.619C82.221 159.66 83.7125 163.052 85.1366 166.517C74.2581 158.741 66.7321 149.942 67.46 138.623C71.1112 128.951 78.0481 125.397 87.9865 127.43C87.8123 121.723 84.3074 118.89 75.2022 120.893C67.3259 124.385 64.2231 128.954 64.4548 134.277C64.017 139.062 63.3944 141.005 62.7314 142.325C58.3101 133.941 59.5947 125.066 65.0753 115.829C74.0659 103.574 89.2993 108.919 94.6467 121.184C97.1813 113.66 96.3423 107.697 89.9106 104.325C103.177 103.442 111.224 92.3603 103.238 86.9094C98.6488 94.9192 90.2993 99.3143 77.6667 100.947C86.8722 97.1605 89.8397 92.4929 86.338 86.669C84.5151 90.9966 81.6332 94.8635 75.0829 98.4694C72.4933 99.8951 70.4771 102.579 68.3681 104.321C72.5133 91.7938 67.0059 85.3476 53.4662 83.9617C54.3127 87.7862 56.2096 90.0665 59.7342 92.6147C64.0541 95.7379 61.2918 104.324 58.6246 109.667C53.5309 121.125 54.5261 132.747 58.8019 144.458C51.4778 142.436 43.4447 100.994 43.5877 97.5333C43.3678 93.8576 45.6039 89.6181 49.0582 84.5756C42.0531 86.7779 38.1161 91.3631 37.8392 98.7914C33.376 94.6691 28.0973 79.3883 28.9859 79C27.1957 82.9947 26.1687 87.2563 26.2121 91.6831C26.7433 97.0094 27.975 100.078 29.3736 101.585L38.4525 110.021C39.9605 111.966 40.9652 114.104 40.296 116.883C32.9931 110.144 27.9278 109.918 25.7012 117.956C33.9072 119.011 41.4051 128.529 48.5412 139.081C40.5621 138.869 35.9162 139.885 37.4551 144.444C45.9427 143.987 55.9315 148.78 67.3474 158.56C59.182 158.762 54.0304 160.784 52.0042 164.694C63.0909 164.167 73.5183 166.586 82.9312 173.535C75.6233 174.167 71.0161 176.955 69.7041 180.789C77.8751 179.129 85.8288 178.537 93.4183 181.632C97.4564 183.439 101.563 184.604 105.709 185.401C98.1174 187.562 95.1916 190.747 95.8416 194.717C114.272 187.442 133.764 189.174 138 201.972C138.34 202.998 141.156 202.36 141.156 202.36V202.361L141.157 202.36Z" fill="url(#paint15_linear_3913_21128)" stroke="#24211C" stroke-width="0.56786" stroke-miterlimit="1.5" stroke-linecap="round" stroke-linejoin="round"/>
<path d="M3.07031 30.6836C36.187 57.3318 250.631 55.066 292.338 32.9108" stroke="black" stroke-width="0.181912" stroke-miterlimit="1.5" stroke-linecap="round" stroke-linejoin="round"/>
<path d="M4.56641 34.3594C37.889 59.3412 249.124 57.2982 290.612 36.9195" stroke="black" stroke-width="0.181912" stroke-miterlimit="1.5" stroke-linecap="round" stroke-linejoin="round"/>
<path fill-rule="evenodd" clip-rule="evenodd" d="M278.683 18.0458C274.634 14.132 266.761 12.4414 250.771 10.5754C180.046 2.43436 111.002 3.94719 42.9278 10.8061C30.4952 12.3209 20.3119 14.2302 18.6284 17.6307C17.9445 21.1654 22.3688 23.6682 22.5253 23.7916C41.0738 38.4236 237.76 42.2949 274.381 25.5734C278.35 24.1218 279.82 21.6276 278.683 18.0458Z" fill="url(#paint16_linear_3913_21128)"/>
<path d="M278.683 18.0458C274.634 14.132 266.761 12.4414 250.771 10.5754C180.046 2.43436 111.002 3.94719 42.9278 10.8061C30.4952 12.3209 20.3119 14.2302 18.6284 17.6307C17.9445 21.1654 22.3688 23.6682 22.5253 23.7916C41.0738 38.4236 237.76 42.2949 274.381 25.5734C278.35 24.1218 279.82 21.6276 278.683 18.0458ZM278.683 18.0458L278.684 18.0461" stroke="#24211C" stroke-width="0.181912" stroke-miterlimit="1.5" stroke-linecap="round" stroke-linejoin="round"/>
<path fill-rule="evenodd" clip-rule="evenodd" d="M12.6335 64.6423C10.2429 61.8609 10.5589 59.609 13.1822 57.8086C22.4765 69.5444 96.6361 76.5944 149.01 75.0929C206.561 77.0246 284.722 68.2059 283.916 59.189C287.966 60.5999 287.605 63.4614 283.955 67.3266C258.466 79.3893 196.859 82.5229 148.952 81.9218C95.3895 83.0725 28.6512 75.7621 12.6337 64.6423H12.6335Z" fill="url(#paint17_linear_3913_21128)" stroke="#24211C" stroke-width="0.56786" stroke-miterlimit="1.5" stroke-linecap="round" stroke-linejoin="round"/>
<path fill-rule="evenodd" clip-rule="evenodd" d="M4.95925 34.8858L3.02344 30.7461C16.122 44.2376 73.4382 49.0518 148.055 50.2419C207.42 49.3825 261.683 46.2624 292.294 33.2682C292.124 34.5411 291.332 35.6492 290.694 36.9606C263.9 46.9471 216.399 52.1474 147.953 52.5069C87.7946 51.6187 29.8896 49.8311 4.95875 34.8856H4.959L4.95925 34.8858Z" fill="#8A6522" stroke="#24211C" stroke-width="0.56786" stroke-miterlimit="1.5" stroke-linecap="round" stroke-linejoin="round"/>
<g clip-path="url(#clip0_3913_21128)">
<path d="M147.254 90.0557C147.262 90.0573 147.276 90.0635 147.29 90.0781C147.303 90.0926 147.309 90.1071 147.311 90.1162C147.311 90.1203 147.31 90.1243 147.31 90.1289C147.309 90.1335 147.306 90.1427 147.298 90.1562L121.825 132.237C121.802 132.276 121.751 132.278 121.725 132.247C120.622 130.933 118.031 127.492 116.98 123.13C115.939 118.802 116.407 113.552 121.437 108.509C130.815 99.1047 142.776 92.3885 147.216 90.0645C147.23 90.0572 147.239 90.0553 147.243 90.0547C147.247 90.0541 147.251 90.055 147.254 90.0557Z" fill="#FFFBF6" stroke="#3F3F3F"/>
<path d="M111.314 121.84C111.317 121.842 111.319 121.845 111.321 121.85C111.323 121.854 111.327 121.864 111.328 121.883C111.547 125.034 112.962 128.411 114.612 131.501C116.261 134.588 118.197 137.476 119.467 139.586C122.086 143.936 141.008 172.858 146.692 181.539C146.703 181.555 146.706 181.565 146.707 181.569C146.708 181.574 146.708 181.578 146.707 181.581C146.706 181.589 146.7 181.606 146.684 181.622C146.667 181.638 146.651 181.643 146.644 181.644C146.641 181.644 146.638 181.644 146.634 181.644C146.63 181.643 146.62 181.639 146.604 181.628L145.816 181.074L125.323 166.673C112.081 157.367 105.985 140.751 110.183 125.096C110.515 123.855 110.872 122.77 111.207 121.861C111.213 121.844 111.22 121.836 111.223 121.833C111.225 121.83 111.228 121.828 111.23 121.826C111.237 121.823 111.252 121.818 111.273 121.821C111.295 121.825 111.308 121.834 111.314 121.84Z" fill="#FFFBF6" stroke="#3F3F3F"/>
<path d="M175.716 139.469C175.739 139.431 175.79 139.428 175.816 139.459C176.919 140.773 179.51 144.214 180.561 148.576C181.602 152.904 181.134 158.154 176.104 163.197C166.726 172.601 154.765 179.318 150.325 181.642C150.311 181.649 150.302 181.651 150.298 181.651C150.294 181.652 150.291 181.651 150.287 181.65C150.279 181.649 150.265 181.643 150.251 181.628C150.238 181.613 150.232 181.599 150.23 181.59C150.23 181.586 150.23 181.581 150.231 181.576L150.243 181.549L175.716 139.469Z" fill="#FFFBF6" stroke="#3F3F3F"/>
<path d="M150.936 90.0557C150.939 90.0566 150.949 90.0595 150.965 90.0703L172.246 105.026C185.488 114.332 191.583 130.947 187.386 146.603C187.053 147.843 186.697 148.928 186.362 149.837C186.356 149.854 186.349 149.863 186.347 149.866C186.344 149.869 186.341 149.871 186.339 149.872C186.333 149.876 186.317 149.881 186.296 149.878C186.275 149.875 186.261 149.865 186.255 149.859C186.252 149.857 186.25 149.853 186.248 149.849C186.246 149.844 186.242 149.835 186.24 149.816V149.815C186.021 146.664 184.607 143.288 182.957 140.198C181.308 137.111 179.372 134.222 178.102 132.112C175.482 127.761 156.561 98.8408 150.877 90.1602C150.866 90.1438 150.863 90.1331 150.862 90.1289C150.861 90.1247 150.861 90.1215 150.861 90.1182C150.863 90.11 150.869 90.0934 150.886 90.0771C150.902 90.0609 150.918 90.0556 150.926 90.0547C150.929 90.0544 150.932 90.0547 150.936 90.0557Z" fill="#FFFBF6" stroke="#3F3F3F"/>
</g>
<defs>
<linearGradient id="paint0_linear_3913_21128" x1="46.5703" y1="327.051" x2="251.054" y2="327.051" gradientUnits="userSpaceOnUse">
<stop stop-color="#B2822A"/>
<stop offset="0.697115" stop-color="#8A6522"/>
</linearGradient>
<linearGradient id="paint1_linear_3913_21128" x1="51.8574" y1="323.303" x2="245.99" y2="323.303" gradientUnits="userSpaceOnUse">
<stop stop-color="#B2822A"/>
<stop offset="0.697115" stop-color="#8A6522"/>
</linearGradient>
<linearGradient id="paint2_linear_3913_21128" x1="68.2539" y1="309.331" x2="226.867" y2="309.331" gradientUnits="userSpaceOnUse">
<stop stop-color="#B2822A"/>
<stop offset="0.697115" stop-color="#8A6522"/>
</linearGradient>
<linearGradient id="paint3_linear_3913_21128" x1="71.8574" y1="295.301" x2="223.848" y2="295.301" gradientUnits="userSpaceOnUse">
<stop stop-color="#B2822A"/>
<stop offset="0.697115" stop-color="#8A6522"/>
</linearGradient>
<linearGradient id="paint4_linear_3913_21128" x1="120.723" y1="265.08" x2="175.011" y2="265.08" gradientUnits="userSpaceOnUse">
<stop stop-color="#B2822A"/>
<stop offset="0.697115" stop-color="#8A6522"/>
</linearGradient>
<linearGradient id="paint5_linear_3913_21128" x1="115.184" y1="249.12" x2="181.044" y2="249.12" gradientUnits="userSpaceOnUse">
<stop stop-color="#B2822A"/>
<stop offset="0.697115" stop-color="#8A6522"/>
</linearGradient>
<linearGradient id="paint6_linear_3913_21128" x1="119.803" y1="232.725" x2="175.051" y2="232.725" gradientUnits="userSpaceOnUse">
<stop stop-color="#B2822A"/>
<stop offset="0.697115" stop-color="#8A6522"/>
</linearGradient>
<linearGradient id="paint7_linear_3913_21128" x1="115.26" y1="221.403" x2="181.96" y2="221.403" gradientUnits="userSpaceOnUse">
<stop stop-color="#B2822A"/>
<stop offset="0.697115" stop-color="#8A6522"/>
</linearGradient>
<linearGradient id="paint8_linear_3913_21128" x1="201.521" y1="135.054" x2="99.183" y2="135.054" gradientUnits="userSpaceOnUse">
<stop offset="0.211538" stop-color="#C2A78C"/>
<stop offset="0.985577" stop-color="#DEC0A3"/>
</linearGradient>
<linearGradient id="paint9_linear_3913_21128" x1="4.95898" y1="55.0716" x2="290.694" y2="55.0716" gradientUnits="userSpaceOnUse">
<stop stop-color="#6F4E1B"/>
<stop offset="1" stop-color="#573D16"/>
</linearGradient>
<linearGradient id="paint10_linear_3913_21128" x1="115.129" y1="209.372" x2="182.103" y2="209.372" gradientUnits="userSpaceOnUse">
<stop stop-color="#B2822A"/>
<stop offset="0.697115" stop-color="#8A6522"/>
</linearGradient>
<linearGradient id="paint11_linear_3913_21128" x1="175.515" y1="295.478" x2="120.847" y2="295.478" gradientUnits="userSpaceOnUse">
<stop offset="0.211538" stop-color="#C2A78C"/>
<stop offset="0.985577" stop-color="#DEC0A3"/>
</linearGradient>
<linearGradient id="paint12_linear_3913_21128" x1="85.0898" y1="293.391" x2="145.454" y2="293.391" gradientUnits="userSpaceOnUse">
<stop offset="0.384615" stop-color="#976C1D"/>
<stop offset="1" stop-color="#986E22"/>
</linearGradient>
<linearGradient id="paint13_linear_3913_21128" x1="148.793" y1="293.451" x2="210.722" y2="293.451" gradientUnits="userSpaceOnUse">
<stop stop-color="#856020"/>
<stop offset="1" stop-color="#8A6522"/>
</linearGradient>
<linearGradient id="paint14_linear_3913_21128" x1="152.006" y1="141.151" x2="269.84" y2="141.151" gradientUnits="userSpaceOnUse">
<stop stop-color="#976E25"/>
<stop offset="1" stop-color="#8A6522"/>
</linearGradient>
<linearGradient id="paint15_linear_3913_21128" x1="25.7012" y1="140.778" x2="141.157" y2="140.778" gradientUnits="userSpaceOnUse">
<stop offset="0.384615" stop-color="#A67723"/>
<stop offset="1" stop-color="#72531B"/>
</linearGradient>
<linearGradient id="paint16_linear_3913_21128" x1="18.5566" y1="20.7908" x2="279.056" y2="20.7908" gradientUnits="userSpaceOnUse">
<stop stop-color="#66501E"/>
<stop offset="1" stop-color="#AB832B"/>
</linearGradient>
<linearGradient id="paint17_linear_3913_21128" x1="11.0137" y1="69.9246" x2="286.824" y2="69.9246" gradientUnits="userSpaceOnUse">
<stop stop-color="#B2822A"/>
<stop offset="0.697115" stop-color="#8A6522"/>
</linearGradient>
<clipPath id="clip0_3913_21128">
<rect width="81" height="93" fill="white" transform="translate(108.285 89.2852)"/>
</clipPath>
</defs>
</svg>
