<svg width="1924" height="612" viewBox="0 0 1924 612" fill="none" xmlns="http://www.w3.org/2000/svg">
<path d="M921.284 345.585C921.284 368.385 921.584 386.535 922.184 400.035C923.084 413.535 923.834 423.885 924.434 431.085C925.334 437.985 926.084 443.085 926.684 446.385C927.584 449.685 928.034 452.685 928.034 455.385C928.034 456.585 927.584 457.785 926.684 458.985C925.784 460.185 923.834 460.785 920.834 460.785C919.034 460.785 917.384 459.135 915.884 455.835C914.684 452.535 913.334 448.635 911.834 444.135C910.334 439.635 908.534 435.735 906.434 432.435C904.634 429.135 902.384 427.485 899.684 427.485C885.884 433.485 871.034 437.985 855.134 440.985C839.234 443.985 825.134 445.485 812.834 445.485C787.934 445.485 764.534 442.335 742.634 436.035C721.034 429.735 701.984 420.435 685.484 408.135C669.284 395.535 656.534 380.235 647.234 362.235C637.934 343.935 633.284 322.935 633.284 299.235C633.284 272.235 638.384 248.385 648.584 227.685C658.784 206.685 672.584 189.135 689.984 175.035C707.684 160.935 727.484 150.285 749.384 143.085C771.584 135.885 794.534 132.285 818.234 132.285C833.834 132.285 846.734 133.785 856.934 136.785C867.434 139.485 878.834 143.385 891.134 148.485V139.035C891.134 137.535 891.734 136.485 892.934 135.885C894.434 135.285 895.934 134.985 897.434 134.985C898.934 134.985 900.434 135.285 901.934 135.885C903.434 136.485 904.184 137.535 904.184 139.035C904.184 150.135 904.484 161.685 905.084 173.685C905.684 185.385 906.734 196.485 908.234 206.985C908.534 208.185 907.784 209.235 905.984 210.135C904.484 211.035 902.834 211.485 901.034 211.485C896.834 211.485 894.434 210.135 893.834 207.435L890.684 187.635C878.084 176.235 864.884 167.535 851.084 161.535C837.584 155.235 823.334 152.085 808.334 152.085C786.734 152.085 766.934 157.335 748.934 167.835C730.934 178.035 716.384 193.335 705.284 213.735C694.484 233.835 689.084 258.735 689.084 288.435C689.084 318.435 694.784 343.635 706.184 364.035C717.884 384.435 733.334 399.735 752.534 409.935C771.734 420.135 792.734 425.235 815.534 425.235C825.434 425.235 835.184 423.735 844.784 420.735C854.684 417.735 862.934 412.935 869.534 406.335V364.935C869.534 353.235 868.934 344.685 867.734 339.285C866.834 333.585 865.634 329.835 864.134 328.035C862.934 326.235 861.584 325.335 860.084 325.335H812.384C809.984 325.335 808.784 322.485 808.784 316.785C808.784 315.285 808.934 313.935 809.234 312.735C809.834 311.235 810.884 310.485 812.384 310.485C818.684 310.485 826.784 310.485 836.684 310.485C846.884 310.485 856.934 310.635 866.834 310.935C876.734 310.935 884.684 310.935 890.684 310.935C903.584 310.935 913.634 310.785 920.834 310.485C928.334 310.185 934.484 310.035 939.284 310.035C944.084 309.735 948.884 309.585 953.684 309.585C955.184 309.585 956.084 310.335 956.384 311.835C956.984 313.335 957.284 314.985 957.284 316.785C957.284 318.885 956.984 320.835 956.384 322.635C955.784 324.135 954.884 324.885 953.684 324.885H939.734C932.234 324.885 927.284 326.385 924.884 329.385C922.484 332.385 921.284 337.785 921.284 345.585Z" fill="white"/>
<path d="M1043.5 395.985C1043.5 405.885 1044.4 413.385 1046.2 418.485C1048 423.285 1050.1 425.685 1052.5 425.685H1071.4C1072.6 425.685 1073.5 426.585 1074.1 428.385C1074.7 430.185 1075 431.835 1075 433.335C1075 434.835 1074.7 436.335 1074.1 437.835C1073.8 439.035 1073.35 439.635 1072.75 439.635H1026.85C1018.45 439.635 1011.7 439.635 1006.6 439.635C1001.8 439.935 997.305 440.085 993.105 440.085C989.205 440.385 984.405 440.535 978.705 440.535C977.805 440.535 977.055 439.785 976.455 438.285C975.855 436.485 975.555 434.985 975.555 433.785C975.555 432.285 975.705 430.785 976.005 429.285C976.605 427.785 977.205 427.035 977.805 427.035H999.855C1003.45 427.035 1005.25 424.485 1005.25 419.385V271.785C1005.25 248.085 1001.95 236.235 995.355 236.235H979.605C976.305 236.235 974.655 233.985 974.655 229.485C974.655 227.685 974.955 226.035 975.555 224.535C976.455 223.035 977.505 222.285 978.705 222.285C978.705 222.285 982.605 222.435 990.405 222.735C998.205 222.735 1008.25 222.885 1020.55 223.185C1033.15 223.185 1046.35 223.185 1060.15 223.185C1089.55 223.185 1111.6 229.335 1126.3 241.635C1141.3 253.935 1148.8 268.785 1148.8 286.185C1148.8 297.285 1145.8 307.035 1139.8 315.435C1134.1 323.835 1126.45 330.585 1116.85 335.685C1107.25 340.485 1096.9 343.335 1085.8 344.235C1091.8 348.135 1097.2 353.235 1102 359.535C1107.1 365.535 1112.8 372.435 1119.1 380.235C1125.7 387.735 1133.65 395.535 1142.95 403.635C1152.55 411.735 1164.85 419.685 1179.85 427.485C1177.45 432.285 1173.85 436.485 1169.05 440.085C1164.25 443.685 1158.4 445.485 1151.5 445.485C1141.3 445.485 1132.45 442.635 1124.95 436.935C1117.75 431.235 1111.45 424.035 1106.05 415.335C1100.65 406.635 1095.7 397.635 1091.2 388.335C1087 378.735 1082.65 370.035 1078.15 362.235C1073.95 354.435 1069.3 348.735 1064.2 345.135L1043.5 343.785V395.985ZM1052.5 236.685C1046.5 236.685 1043.5 241.635 1043.5 251.535V326.235C1047.7 327.135 1051.9 327.585 1056.1 327.585C1064.5 327.585 1072.45 326.085 1079.95 323.085C1087.75 319.785 1094.05 314.985 1098.85 308.685C1103.65 302.085 1106.05 294.135 1106.05 284.835C1106.05 277.935 1104.25 270.735 1100.65 263.235C1097.35 255.735 1091.8 249.435 1084 244.335C1076.2 239.235 1065.7 236.685 1052.5 236.685Z" fill="white"/>
<path d="M1297.75 221.385C1298.95 218.685 1301.95 217.335 1306.75 217.335C1311.25 217.335 1314.1 218.835 1315.3 221.835C1316.8 228.435 1319.65 237.585 1323.85 249.285C1328.35 260.985 1333.6 274.185 1339.6 288.885C1345.6 303.285 1351.75 318.135 1358.05 333.435C1364.65 348.435 1370.95 362.835 1376.95 376.635C1383.25 390.135 1388.65 401.685 1393.15 411.285C1396.75 418.785 1400.05 423.585 1403.05 425.685C1406.05 427.485 1410.7 428.385 1417 428.385C1418.8 428.385 1419.7 430.185 1419.7 433.785C1419.7 435.285 1419.55 436.785 1419.25 438.285C1418.95 439.785 1418.35 440.535 1417.45 440.535C1408.15 440.535 1400.35 440.385 1394.05 440.085C1387.75 439.785 1381.15 439.635 1374.25 439.635C1368.55 439.635 1361.65 439.785 1353.55 440.085C1345.45 440.385 1336.15 440.535 1325.65 440.535C1324.45 440.535 1323.7 439.935 1323.4 438.735C1323.1 437.235 1322.95 435.885 1322.95 434.685C1322.95 430.785 1323.85 428.835 1325.65 428.835H1347.25C1350.55 428.835 1352.2 427.485 1352.2 424.785C1352.2 423.885 1351 420.135 1348.6 413.535C1346.2 406.935 1343.05 398.535 1339.15 388.335C1335.55 378.135 1331.5 367.185 1327 355.485H1264.45C1258.15 371.085 1252.9 384.585 1248.7 395.985C1244.5 407.385 1242.4 415.185 1242.4 419.385C1242.4 422.985 1243 425.385 1244.2 426.585C1245.4 427.785 1246.6 428.385 1247.8 428.385H1266.25C1268.65 428.385 1269.85 430.185 1269.85 433.785C1269.85 435.285 1269.55 436.785 1268.95 438.285C1268.65 439.785 1268.05 440.535 1267.15 440.535C1259.65 440.535 1253.65 440.385 1249.15 440.085C1244.95 440.085 1241.05 439.935 1237.45 439.635C1234.15 439.635 1230.25 439.635 1225.75 439.635C1220.35 439.635 1214.95 439.785 1209.55 440.085C1204.45 440.385 1198 440.535 1190.2 440.535C1189 440.535 1188.1 439.935 1187.5 438.735C1187.2 437.235 1187.05 435.885 1187.05 434.685C1187.05 430.785 1188.1 428.835 1190.2 428.835H1204.6C1207.9 428.835 1210.3 427.485 1211.8 424.785C1214.8 419.985 1219 411.585 1224.4 399.585C1230.1 387.285 1236.4 373.035 1243.3 356.835C1250.2 340.635 1257.1 323.985 1264 306.885C1271.2 289.785 1277.8 273.735 1283.8 258.735C1289.8 243.435 1294.45 230.985 1297.75 221.385ZM1321.15 340.185C1316.95 327.885 1312.75 315.735 1308.55 303.735C1304.65 291.735 1301.05 281.085 1297.75 271.785H1296.4C1292.5 282.885 1288.3 294.435 1283.8 306.435C1279.3 318.435 1274.95 329.685 1270.75 340.185H1321.15Z" fill="white"/>
<path d="M1510.2 391.485C1510.2 404.085 1511.1 412.935 1512.9 418.035C1514.7 423.135 1516.8 425.685 1519.2 425.685H1541.7C1542.6 425.685 1543.35 426.435 1543.95 427.935C1544.85 429.435 1545.3 431.235 1545.3 433.335C1545.3 434.835 1545 436.335 1544.4 437.835C1544.1 439.035 1543.5 439.635 1542.6 439.635C1537.2 439.635 1530.15 439.635 1521.45 439.635C1512.75 439.335 1502.4 439.185 1490.4 439.185C1476 439.185 1465.8 439.335 1459.8 439.635C1453.8 440.235 1449 440.535 1445.4 440.535C1444.2 440.535 1443.3 439.635 1442.7 437.835C1442.4 436.035 1442.25 434.535 1442.25 433.335C1442.25 431.835 1442.4 430.485 1442.7 429.285C1443.3 427.785 1444.05 427.035 1444.95 427.035H1465.2C1468.5 427.035 1470.45 426.285 1471.05 424.785C1471.65 423.285 1471.95 419.685 1471.95 413.985V272.235C1471.95 259.635 1471.05 250.485 1469.25 244.785C1467.75 239.085 1465.65 236.235 1462.95 236.235H1446.75C1443.15 236.235 1441.35 233.985 1441.35 229.485C1441.35 224.685 1443 222.285 1446.3 222.285C1452 222.285 1458.75 222.585 1466.55 223.185C1474.35 223.485 1482.3 223.485 1490.4 223.185C1495.8 223.185 1502.1 223.185 1509.3 223.185C1516.8 222.885 1523.25 222.735 1528.65 222.735C1534.35 222.435 1537.2 222.285 1537.2 222.285C1538.1 222.285 1538.85 223.035 1539.45 224.535C1540.05 226.035 1540.35 227.535 1540.35 229.035C1540.35 233.235 1539.15 235.335 1536.75 235.335H1516.05C1513.95 235.335 1512.45 235.785 1511.55 236.685C1510.65 237.585 1510.2 239.535 1510.2 242.535V391.485Z" fill="white"/>
<path d="M1648.19 391.485C1648.19 404.085 1649.09 412.935 1650.89 418.035C1652.69 422.835 1654.79 425.235 1657.19 425.235H1668.89C1682.99 424.935 1696.34 423.585 1708.94 421.185C1721.84 418.785 1731.29 415.485 1737.29 411.285L1739.54 393.735C1739.84 392.835 1740.74 392.235 1742.24 391.935C1744.04 391.335 1745.54 391.035 1746.74 391.035C1748.24 391.035 1749.59 391.185 1750.79 391.485C1751.99 391.785 1752.44 392.535 1752.14 393.735C1750.94 401.535 1750.19 410.385 1749.89 420.285C1749.59 429.885 1749.44 438.735 1749.44 446.835C1749.44 447.735 1748.69 448.335 1747.19 448.635C1745.99 448.935 1744.94 449.085 1744.04 449.085C1742.84 449.085 1741.34 448.935 1739.54 448.635C1738.04 448.335 1737.29 447.735 1737.29 446.835V439.635H1659.89C1641.59 439.635 1627.49 439.635 1617.59 439.635C1607.69 439.935 1600.34 440.085 1595.54 440.085C1590.74 440.385 1586.69 440.535 1583.39 440.535C1582.19 440.535 1581.29 439.635 1580.69 437.835C1580.39 436.035 1580.24 434.535 1580.24 433.335C1580.24 431.835 1580.39 430.485 1580.69 429.285C1581.29 427.785 1582.04 427.035 1582.94 427.035H1603.19C1606.49 427.035 1608.44 426.285 1609.04 424.785C1609.64 423.285 1609.94 419.685 1609.94 413.985V272.235C1609.94 259.635 1609.04 250.485 1607.24 244.785C1605.74 239.085 1603.64 236.235 1600.94 236.235H1584.74C1581.14 236.235 1579.34 233.985 1579.34 229.485C1579.34 224.685 1580.99 222.285 1584.29 222.285C1589.99 222.285 1596.74 222.585 1604.54 223.185C1612.34 223.485 1620.29 223.485 1628.39 223.185C1633.79 223.185 1640.09 223.185 1647.29 223.185C1654.79 222.885 1661.24 222.735 1666.64 222.735C1672.34 222.435 1675.19 222.285 1675.19 222.285C1676.09 222.285 1676.84 223.035 1677.44 224.535C1678.04 226.035 1678.34 227.535 1678.34 229.035C1678.34 233.235 1677.14 235.335 1674.74 235.335H1654.04C1651.94 235.335 1650.44 235.785 1649.54 236.685C1648.64 237.585 1648.19 239.535 1648.19 242.535V391.485Z" fill="white"/>
<path d="M1898.15 224.535C1897.85 223.035 1897.55 221.835 1897.25 220.935C1897.25 219.735 1897.25 218.835 1897.25 218.235C1897.25 215.535 1898.75 214.185 1901.75 214.185C1904.15 214.185 1905.8 214.635 1906.7 215.535C1907.9 216.135 1908.8 218.085 1909.4 221.385C1910.9 226.185 1911.8 230.535 1912.1 234.435C1912.7 238.035 1913.3 241.635 1913.9 245.235C1914.8 249.135 1915.55 252.735 1916.15 256.035C1917.05 259.035 1917.95 263.985 1918.85 270.885C1918.85 273.285 1916.9 274.485 1913 274.485C1911.8 274.485 1910.6 274.335 1909.4 274.035C1908.2 273.435 1907.3 272.385 1906.7 270.885C1902.8 259.785 1896.65 250.635 1888.25 243.435C1879.85 236.235 1870.4 232.485 1859.9 232.185C1851.5 232.185 1843.4 234.885 1835.6 240.285C1828.1 245.685 1824.35 253.185 1824.35 262.785C1824.35 272.385 1827.65 280.785 1834.25 287.985C1840.85 295.185 1849.1 301.935 1859 308.235C1868.9 314.535 1878.8 321.285 1888.7 328.485C1898.6 335.685 1906.85 344.235 1913.45 354.135C1920.05 364.035 1923.35 376.185 1923.35 390.585C1923.35 402.885 1919.45 413.085 1911.65 421.185C1904.15 429.285 1894.55 435.435 1882.85 439.635C1871.45 443.535 1859.75 445.485 1847.75 445.485C1839.35 445.485 1830.8 444.285 1822.1 441.885C1813.7 439.785 1806.8 437.535 1801.4 435.135C1801.4 438.435 1801.1 440.535 1800.5 441.435C1800.2 442.335 1798.7 443.085 1796 443.685H1794.2C1791.8 443.685 1790.45 442.485 1790.15 440.085C1789.25 429.585 1788.05 420.135 1786.55 411.735C1785.35 403.035 1784 392.385 1782.5 379.785C1782.5 378.285 1783.25 377.235 1784.75 376.635C1786.25 375.735 1787.9 375.285 1789.7 375.285C1792.4 375.285 1793.9 376.035 1794.2 377.535C1796.9 386.535 1800.95 395.235 1806.35 403.635C1811.75 411.735 1818.35 418.485 1826.15 423.885C1833.95 428.985 1842.5 431.535 1851.8 431.535C1860.5 431.535 1868.75 428.985 1876.55 423.885C1884.65 418.485 1888.7 410.385 1888.7 399.585C1888.7 389.085 1885.4 380.085 1878.8 372.585C1872.2 364.785 1863.95 357.585 1854.05 350.985C1844.45 344.385 1834.7 337.485 1824.8 330.285C1815.2 323.085 1807.1 314.985 1800.5 305.985C1793.9 296.985 1790.6 286.035 1790.6 273.135C1790.6 261.135 1794.05 251.085 1800.95 242.985C1807.85 234.885 1816.7 228.735 1827.5 224.535C1838.6 220.335 1850.3 218.235 1862.6 218.235C1870.1 218.235 1876.85 218.985 1882.85 220.485C1889.15 221.685 1894.25 223.035 1898.15 224.535Z" fill="white"/>
<path fill-rule="evenodd" clip-rule="evenodd" d="M104.956 536.719C64.8585 558.613 83.9377 575.491 120.558 590.882C153.185 603.291 204.584 611.27 262.779 611.285C317.828 610.137 375.991 604.019 418.609 587.528C447.424 573.758 457.346 558.144 430.099 541.558L104.956 536.719Z" fill="url(#paint0_linear_4156_24066)"/>
<path d="M104.956 536.719C64.8585 558.613 83.9377 575.491 120.558 590.882C153.185 603.291 204.584 611.27 262.779 611.285C317.828 610.137 375.991 604.019 418.609 587.528C447.424 573.758 457.346 558.144 430.099 541.558L104.956 536.719ZM104.956 536.719H104.956" stroke="#24211C" stroke-width="0.56786" stroke-miterlimit="1.5" stroke-linecap="round" stroke-linejoin="round"/>
<path fill-rule="evenodd" clip-rule="evenodd" d="M108.979 534.41C84.0201 547.752 86.6807 562.381 116.003 578.254C151.17 593.096 202.3 599.608 264.319 600.437C314.309 599.248 362.12 594.534 404.334 580.768C441.633 564.8 445.428 549.122 424.228 537.84L108.978 534.41H108.979Z" fill="url(#paint1_linear_4156_24066)" stroke="#24211C" stroke-width="0.56786" stroke-miterlimit="1.5" stroke-linecap="round" stroke-linejoin="round"/>
<path fill-rule="evenodd" clip-rule="evenodd" d="M141.334 522.836C81.3791 536.149 81.0751 565.284 135.641 580.9C176.609 593.014 219.356 596.028 262.683 596.074C315.105 596.966 364.057 591.622 407.238 575.403C449.661 552.92 439.531 533.971 371.423 519.355L141.334 522.836Z" fill="#573D16" stroke="#24211C" stroke-width="0.56786" stroke-miterlimit="1.5" stroke-linecap="round" stroke-linejoin="round"/>
<path fill-rule="evenodd" clip-rule="evenodd" d="M173.384 514.648C102.539 528.328 106.692 547.328 167.934 562.371C228.83 576.391 317.868 571.684 358.419 561.519C421.49 546.136 413.648 529.159 360.992 516.66L173.385 514.649L173.384 514.648Z" fill="url(#paint2_linear_4156_24066)" stroke="#24211C" stroke-width="0.56786" stroke-miterlimit="1.5" stroke-linecap="round" stroke-linejoin="round"/>
<path fill-rule="evenodd" clip-rule="evenodd" d="M219.696 470.305C217.839 501.447 201.286 509.748 173.522 514.645C122.847 526.118 112.771 538.46 149.694 551.799C179.645 561.767 219.454 566.075 265.612 566.214C309.052 564.984 344.8 559.432 375.731 551.998C408.979 541.762 405.002 525.874 361.023 516.654C325.892 510.84 305.397 496.284 305.762 470.586L219.696 470.305Z" fill="url(#paint3_linear_4156_24066)" stroke="#24211C" stroke-width="0.56786" stroke-miterlimit="1.5" stroke-linecap="round" stroke-linejoin="round"/>
<path fill-rule="evenodd" clip-rule="evenodd" d="M215.954 456.897C213.035 463.4 214.25 467.885 219.696 470.306C246.086 476.098 274.691 476.403 305.762 470.587C311.525 468.28 311.932 462.759 309.6 455.594C282.582 458.922 251.79 459.649 215.955 456.897H215.954Z" fill="url(#paint4_linear_4156_24066)" stroke="#24211C" stroke-width="0.56786" stroke-miterlimit="1.5" stroke-linecap="round" stroke-linejoin="round"/>
<path fill-rule="evenodd" clip-rule="evenodd" d="M213.642 410.431C200.765 426.536 201.635 442.019 215.954 456.896C247.615 467.395 278.666 468.383 309.599 455.593C325.599 441.158 325.23 425.514 311.151 409.375C278.053 420.773 245.593 420.337 213.642 410.431Z" fill="url(#paint5_linear_4156_24066)" stroke="#24211C" stroke-width="0.56786" stroke-miterlimit="1.5" stroke-linecap="round" stroke-linejoin="round"/>
<path fill-rule="evenodd" clip-rule="evenodd" d="M223.138 400.385C213.003 401.496 212.051 405.596 213.115 410.351C242.632 420.475 275.139 420.438 310.794 409.706C311.844 403.589 308.999 399.716 300.795 398.93C282.281 410.994 245.243 411.352 223.138 400.385V400.385L223.138 400.385Z" fill="url(#paint6_linear_4156_24066)" stroke="#24211C" stroke-width="0.56786" stroke-miterlimit="1.5" stroke-linecap="round" stroke-linejoin="round"/>
<path fill-rule="evenodd" clip-rule="evenodd" d="M204.7 368.666C245.279 383.942 285.413 384.001 323.289 368.105C308.649 373.796 299.629 381.605 300.795 398.93C287.707 411.473 239.882 412.468 223.138 400.385C226.349 382.841 219.027 373.356 204.7 368.666Z" fill="url(#paint7_linear_4156_24066)" stroke="#24211C" stroke-width="0.56786" stroke-miterlimit="1.5" stroke-linecap="round" stroke-linejoin="round"/>
<path fill-rule="evenodd" clip-rule="evenodd" d="M5.1539 53.7683C0.070551 45.1517 -1.33631 37.315 2.38411 30.1406C1.37889 64.4889 131.163 69.6605 263.313 74.5949C411.489 71.6514 528.947 64.8315 525.604 31.1182C528.29 33.9397 528.729 46.1301 519.454 58.1969C460.341 81.116 367.489 87.4199 263.008 87.9984C145.888 85.0609 35.8382 80.2013 5.15479 53.7687L5.1539 53.7683Z" fill="#8A6522" stroke="#24211C" stroke-width="0.56786" stroke-miterlimit="1.5" stroke-linecap="round" stroke-linejoin="round"/>
<path fill-rule="evenodd" clip-rule="evenodd" d="M22.1684 113.203C62.2125 134.485 147.567 143.38 264.603 143.615C352.247 143.865 437.619 141.5 504.628 117.99C499.12 143.732 493.558 175.241 492.88 180.858C481.84 272.486 434.495 325.835 341.771 349.446C293.555 364.395 239.282 364.271 179.212 349.715C110.767 329.203 49.0115 287.23 35.0379 200.085C31.167 175.944 27.5393 147.362 22.168 113.204L22.1684 113.203Z" fill="url(#paint8_linear_4156_24066)" stroke="#24211C" stroke-width="0.56786" stroke-miterlimit="1.5" stroke-linecap="round" stroke-linejoin="round"/>
<path fill-rule="evenodd" clip-rule="evenodd" d="M23.2147 101.278C19.0979 87.3377 14.1486 74.7184 8.5957 61.0352C45.1435 82.6846 108.581 85.2749 182.997 90.5489C238.424 92.5802 293.59 92.4319 348.503 90.1634C415.641 85.6141 478.814 79.6553 516.61 64.6778C511.993 77.6223 507.994 90.6314 504.558 103.701C503.359 120.238 373.447 134.112 264.706 131.624C137.173 133.213 41.7085 119.434 23.2155 101.277L23.2147 101.278Z" fill="url(#paint9_linear_4156_24066)" stroke="#24211C" stroke-width="0.56786" stroke-miterlimit="1.5" stroke-linecap="round" stroke-linejoin="round"/>
<path fill-rule="evenodd" clip-rule="evenodd" d="M35.2579 82.7793C37.9238 81.7176 38.3157 82.6463 37.255 84.8476C36.157 85.6331 35.5322 86.4683 37.0016 87.5254C38.9845 89.0662 40.9284 90.7673 42.7351 93.0256C46.0255 94.092 46.0938 94.784 44.2476 95.2533C43.1705 95.8156 41.595 95.7344 38.6286 93.8536L32.99 88.5643C31.5641 87.4022 31.7097 85.8482 33.0961 83.9839C33.3966 83.6341 34.0823 83.2371 35.2579 82.7793Z" fill="#AB8035"/>
<path d="M35.2579 82.7793C37.9238 81.7176 38.3157 82.6463 37.255 84.8476C36.157 85.6331 35.5322 86.4683 37.0016 87.5254C38.9845 89.0662 40.9284 90.7673 42.7351 93.0256C46.0255 94.092 46.0938 94.784 44.2476 95.2533C43.1705 95.8156 41.595 95.7344 38.6286 93.8536L32.99 88.5643C31.5641 87.4022 31.7097 85.8482 33.0961 83.9839C33.3966 83.6341 34.0823 83.2371 35.2579 82.7793ZM35.2579 82.7793V82.7798" stroke="#AB8035" stroke-width="0.181912" stroke-miterlimit="1.5" stroke-linecap="round" stroke-linejoin="round"/>
<path fill-rule="evenodd" clip-rule="evenodd" d="M51.3317 96.0061C49.122 99.6411 47.6424 100.042 47.278 95.5067C47.4165 90.4239 45.5272 87.5999 41.9213 86.6886C42.0451 85.9231 41.7899 85.6035 41.0634 85.8389C40.3209 86.329 39.7875 86.0132 39.6761 84.0643C39.582 81.8609 40.3014 80.4263 42.1405 80.0498C43.5248 79.603 44.4736 79.6902 44.2011 81.2739C43.8186 82.4045 44.3436 82.8759 46.6008 82.0913C48.7878 80.9003 49.9693 81.066 50.2857 82.4126C51.4378 85.9473 52.2291 95.0944 51.3317 96.0066V96.0061Z" fill="#AB8035" stroke="#AB8035" stroke-width="0.181912" stroke-miterlimit="1.5" stroke-linecap="round" stroke-linejoin="round"/>
<path fill-rule="evenodd" clip-rule="evenodd" d="M39.8588 99.8107C44.1477 100.417 45.29 99.6666 41.535 96.8035C38.4883 96.1774 35.5254 94.2647 32.6607 90.8439C31.3182 88.745 30.7914 90.6182 31.4069 91.8708C33.7169 94.8291 36.0926 97.7475 39.8592 99.8111L39.8588 99.8107Z" fill="#AB8035" stroke="#AB8035" stroke-width="0.181912" stroke-miterlimit="1.5" stroke-linecap="round" stroke-linejoin="round"/>
<path d="M430.702 118.766C439.632 118.766 446.871 111.587 446.871 102.733C446.871 93.8776 439.632 86.6992 430.702 86.6992C421.772 86.6992 414.532 93.8776 414.532 102.733C414.532 111.587 421.772 118.766 430.702 118.766Z" fill="#AB8035" stroke="#AB8035" stroke-width="0.181912" stroke-miterlimit="1.5" stroke-linecap="round" stroke-linejoin="round"/>
<path fill-rule="evenodd" clip-rule="evenodd" d="M449.472 108.107C449.684 105.929 449.09 105.658 447.687 107.305L442.672 114.444C441.887 116.671 442.176 117.284 443.951 115.666C444.485 114.966 445.095 114.575 445.748 114.356C447.604 114.01 448.353 114.186 447.019 115.346C443.24 117.472 444.88 117.723 448.684 117.226C454.423 116.474 460.13 115.532 465.655 113.523C466.687 112.556 466.884 111.687 464.803 111.087C460.623 110.068 458.352 108.504 459.539 105.957C460.534 104.704 457.546 100.049 454.527 95.3674C454.274 94.2814 454.565 93.9987 455.611 94.8288C460.308 101.757 465.299 108.455 473.717 112.477C476.366 113.076 478.993 113.119 481.566 111.708C482.901 110.73 483.417 109.935 480.937 109.814C476.593 111.774 471.482 109.51 465.471 102.282C458.596 93.779 451.899 86.8719 445.775 85.0969C441.338 84.6969 440.733 85.6864 441.607 87.2115C449.342 92.8086 452.669 98.4231 452.534 104.051C452.509 109.64 451.56 112.555 449.326 111.741C448.758 111.081 448.427 110.209 449.471 108.108L449.472 108.107H449.472L449.472 108.107Z" fill="#AB8035" stroke="#AB8035" stroke-width="0.181912" stroke-miterlimit="1.5" stroke-linecap="round" stroke-linejoin="round"/>
<path fill-rule="evenodd" clip-rule="evenodd" d="M460.881 88.5763C459.305 87.2752 459.632 86.5233 461.924 86.3392C463.218 86.6274 463.93 86.3673 464.381 85.8611C466.927 84.7606 466.813 85.8602 466.174 87.3925C464.517 89.122 465.058 90.7415 466.755 92.3031C468.222 92.7205 470.178 96.0321 472.161 99.5043C473.496 101.347 473.97 101.012 473.537 98.3775C472.403 89.8633 476.444 83.1106 484.053 77.5739C489.545 74.9896 495.521 73.6604 502.086 73.85C504.507 74.5046 505.979 74.6491 506.139 74.0893C511.745 70.7429 511.957 72.3759 508.887 77.0413C506.234 79.7642 505.773 81.0967 506.11 82.3714C506.931 94.2787 502.493 98.8281 498.144 103.504C488.714 110.089 481.171 109.875 475.311 103.602L467.854 99.4465L463.828 92.766L461.724 91.2711C458.276 90.8278 457.984 89.9309 460.881 88.5754L460.881 88.5763Z" fill="#AB8035" stroke="#AB8035" stroke-width="0.181912" stroke-miterlimit="1.5" stroke-linecap="round" stroke-linejoin="round"/>
<path fill-rule="evenodd" clip-rule="evenodd" d="M495.256 76.9818C501.732 75.7794 502.692 76.374 501.991 81.2608C499.135 91.9903 494.607 98.8111 489.214 103.611C485.049 106.006 481.33 105.336 478.136 101.048C475.986 97.5402 476.394 93.9307 478.157 90.2676C481.507 84.118 486.118 78.8389 495.256 76.9823" fill="#593E17"/>
<path d="M495.256 76.9818C501.732 75.7794 502.692 76.374 501.991 81.2608C499.135 91.9903 494.607 98.8111 489.214 103.611C485.049 106.006 481.33 105.336 478.136 101.048C475.986 97.5402 476.394 93.9307 478.157 90.2676C481.507 84.118 486.118 78.8389 495.256 76.9823" stroke="#AB8035" stroke-width="0.181912" stroke-miterlimit="1.5" stroke-linecap="round" stroke-linejoin="round"/>
<path fill-rule="evenodd" clip-rule="evenodd" d="M492.983 80.6931C498.027 77.6659 499.923 79.5476 499.245 85.4435C497.323 91.1141 494.08 95.6455 489.338 98.8819C483.476 102.21 481.268 100.44 481.672 95.0262C481.393 93.295 485.288 88.4231 492.983 80.6927V80.6931Z" fill="#AB8035" stroke="#AB8035" stroke-width="0.181912" stroke-miterlimit="1.5" stroke-linecap="round" stroke-linejoin="round"/>
<path fill-rule="evenodd" clip-rule="evenodd" d="M408.382 118.82C406.112 119.857 406.753 120.946 409.886 122.081C413.374 122.726 416.872 122.536 420.39 120.747C422.065 119.755 421.661 118.926 419.2 118.258C416.043 118.805 414.889 117.251 414.267 115.137C413.528 113.27 409.87 114.113 409.531 116.261C410.351 117.842 410.078 118.762 408.381 118.821L408.382 118.82Z" fill="#AB8035" stroke="#AB8035" stroke-width="0.181912" stroke-miterlimit="1.5" stroke-linecap="round" stroke-linejoin="round"/>
<path fill-rule="evenodd" clip-rule="evenodd" d="M392.997 93.8538C394.937 92.3759 396.016 92.4074 395.554 95.1426C393.881 97.5288 392.057 99.5151 389.834 102.138C388.913 103.683 387.274 103.941 386.121 103.369C385.441 102.924 384.846 102.966 384.355 103.594C383.933 104.753 383.195 105.276 382.307 105.502C381.094 105.575 380.604 104.94 380.897 103.534C381.241 102.117 385.05 100.188 386.256 100.987C386.736 101.25 387.27 101.139 387.892 100.425L392.997 93.8542L392.997 93.8538H392.997Z" fill="#AB8035" stroke="#AB8035" stroke-width="0.181912" stroke-miterlimit="1.5" stroke-linecap="round" stroke-linejoin="round"/>
<path fill-rule="evenodd" clip-rule="evenodd" d="M377.68 118.361C377.011 119.945 377.188 120.775 379.474 119.732C381.732 118.351 383.043 116.626 384.092 114.805C383.938 113.781 384.153 113.495 384.473 113.418C387.652 111.99 388.678 111.017 389.012 110.191C389.21 107.6 388.143 106.574 385.23 107.834C383.769 108.561 382.48 111.73 381.22 115.308C381.107 116.073 379.57 117.175 377.68 118.362L377.68 118.361Z" fill="#AB8035" stroke="#AB8035" stroke-width="0.181912" stroke-miterlimit="1.5" stroke-linecap="round" stroke-linejoin="round"/>
<path fill-rule="evenodd" clip-rule="evenodd" d="M390.195 104.966C389.393 108.242 390.72 107.744 392.558 106.34C394.932 104.449 397.836 101.068 400.954 97.0881C401.397 96.2729 402.953 94.4397 405.171 92.0016C405.61 90.709 405.67 89.7633 403.312 91.0103C397.35 96.7881 391.001 102.839 390.195 104.966Z" fill="#AB8035" stroke="#AB8035" stroke-width="0.181912" stroke-miterlimit="1.5" stroke-linecap="round" stroke-linejoin="round"/>
<path fill-rule="evenodd" clip-rule="evenodd" d="M400.173 100.013C403.757 97.8183 403.749 99.2656 402.436 101.438C401.812 102.325 399.446 104.625 396.27 108.015C395.014 110.407 395.184 111.768 396.476 112.318C399.099 115.313 396.771 116.116 395.129 116.799C392.973 117.27 391.816 118.206 391.554 119.557C392.099 123.445 390.664 123.489 388.805 122.709C384.721 120.934 386.024 118.797 389.008 116.548C392.334 115.457 393.278 112.943 392.095 109.156C390.686 108.164 396.306 103.649 400.172 100.013L400.173 100.013Z" fill="#AB8035" stroke="#AB8035" stroke-width="0.181912" stroke-miterlimit="1.5" stroke-linecap="round" stroke-linejoin="round"/>
<path fill-rule="evenodd" clip-rule="evenodd" d="M413.746 91.6557C419.303 89.6299 420.09 90.5008 417.214 93.596C412.536 97.2404 409.595 101.168 409.447 105.551C409.562 109.146 409.207 111.964 406.883 111.52C405.532 111.501 405.443 112.169 406.413 113.413C407.694 114.327 407.857 116.61 405.529 119.479C403.008 121.554 396.39 123.125 397.457 119.34C400.608 115.935 402.032 112.975 400.373 110.815C399.993 109.973 399.153 109.303 403.547 106.672C405.631 101.211 407.835 95.7923 413.745 91.6557" fill="#AB8035"/>
<path d="M413.746 91.6557C419.303 89.6299 420.09 90.5008 417.214 93.596C412.536 97.2404 409.595 101.168 409.447 105.551C409.562 109.146 409.207 111.964 406.883 111.52C405.532 111.501 405.443 112.169 406.413 113.413C407.694 114.327 407.857 116.61 405.529 119.479C403.008 121.554 396.39 123.125 397.457 119.34C400.608 115.935 402.032 112.975 400.373 110.815C399.993 109.973 399.153 109.303 403.547 106.672C405.631 101.211 407.835 95.7923 413.745 91.6557" stroke="#AB8035" stroke-width="0.181912" stroke-miterlimit="1.5" stroke-linecap="round" stroke-linejoin="round"/>
<path d="M360.165 125.164C370.814 125.164 379.446 117.308 379.446 107.615C379.446 97.9234 370.814 90.0664 360.165 90.0664C349.516 90.0664 340.884 97.9234 340.884 107.615C340.884 117.308 349.516 125.164 360.165 125.164Z" fill="#AB8035" stroke="#AB8035" stroke-width="0.181912" stroke-miterlimit="1.5" stroke-linecap="round" stroke-linejoin="round"/>
<path fill-rule="evenodd" clip-rule="evenodd" d="M376.543 91.2789C376.196 90.1333 376.636 89.4987 378.411 89.7312C383.082 90.4504 386.477 91.1475 388.122 91.8161C390.03 92.3058 390.164 93.1873 388.806 94.3983C387.447 95.5702 386.39 96.1163 385.371 96.5822C384.284 97.42 383.402 97.2457 382.656 96.3956L376.544 91.2784" fill="#AB8035"/>
<path d="M376.543 91.2789C376.196 90.1333 376.636 89.4987 378.411 89.7312C383.082 90.4504 386.477 91.1475 388.122 91.8161C390.03 92.3058 390.164 93.1873 388.806 94.3983C387.447 95.5702 386.39 96.1163 385.371 96.5822C384.284 97.42 383.402 97.2457 382.656 96.3956L376.544 91.2784" stroke="#AB8035" stroke-width="0.181912" stroke-miterlimit="1.5" stroke-linecap="round" stroke-linejoin="round"/>
<path fill-rule="evenodd" clip-rule="evenodd" d="M282.996 95.5201C281.362 93.3022 282.863 92.9817 284.946 94.3827C293.298 100.984 295.112 106.17 294.658 111.23C293.903 118.768 290.5 124.338 284.844 128.235C281.672 129.799 278.991 128.899 281.631 125.686C290.089 115.857 291.436 103.694 282.996 95.5201Z" fill="#AB8035" stroke="#AB8035" stroke-width="0.181912" stroke-miterlimit="1.5" stroke-linecap="round" stroke-linejoin="round"/>
<path fill-rule="evenodd" clip-rule="evenodd" d="M227.195 92.6809C215.716 102.501 205.569 112.822 197.865 124.058C194.016 132.076 207.332 124.239 208.919 119.162C210.135 116.44 212.266 114.363 215.033 112.734C223.288 107.853 230.757 102.64 237.646 97.1827C240.831 93.8464 240.844 91.5728 234.807 94.3552L221.681 102.567L229.336 93.9888C229.877 92.3707 229.022 92.0676 227.195 92.6814V92.6809Z" fill="#AB8035" stroke="#AB8035" stroke-width="0.181912" stroke-miterlimit="1.5" stroke-linecap="round" stroke-linejoin="round"/>
<path fill-rule="evenodd" clip-rule="evenodd" d="M241.088 95.9866C248.602 92.9466 251.442 94.3144 245.99 97.1419C239.885 100.385 236.357 104.624 237.652 110.729C238.979 114.5 241 118.141 244.165 121.57C247.435 126.881 247.151 128.676 243.479 127.118C240.826 125.462 237.015 125.074 230.976 127.128C221.53 128.596 219.742 127.66 226.301 124.105C229.755 122.032 231.809 119.334 230.927 115.325C229.529 107.227 232.974 100.8 241.088 95.9866Z" fill="#AB8035"/>
<path d="M241.088 95.9866C248.602 92.9466 251.442 94.3144 245.99 97.1419C239.885 100.385 236.357 104.624 237.652 110.729C238.979 114.5 241 118.141 244.165 121.57C247.435 126.881 247.151 128.676 243.479 127.118C240.826 125.462 237.015 125.074 230.976 127.128C221.53 128.596 219.742 127.66 226.301 124.105C229.755 122.032 231.809 119.334 230.927 115.325C229.529 107.227 232.974 100.8 241.088 95.9866ZM241.088 95.9866V95.9861" stroke="#AB8035" stroke-width="0.181912" stroke-miterlimit="1.5" stroke-linecap="round" stroke-linejoin="round"/>
<path fill-rule="evenodd" clip-rule="evenodd" d="M217.35 113.433C220.49 112.296 226.071 115.221 224.473 116.478C223.158 117.604 222.868 119.075 223.7 120.925C224.163 121.866 223.771 122.236 222.888 122.276C221.2 122.183 220.782 122.814 221.014 123.816C220.773 124.959 219.669 124.67 218.075 123.568C216.497 122.421 215.641 121.196 215.001 119.949C214.666 118.666 215.186 118.173 216.252 118.184C217.836 118.216 218.217 117.601 217.657 116.481C216.83 114.881 216.731 113.867 217.35 113.433L217.35 113.433Z" fill="#AB8035" stroke="#AB8035" stroke-width="0.181912" stroke-miterlimit="1.5" stroke-linecap="round" stroke-linejoin="round"/>
<path fill-rule="evenodd" clip-rule="evenodd" d="M208.919 125.119C209.341 123.618 210.423 122.866 212.358 123.078C213.218 124.116 213.693 125.152 212.793 126.178C211.305 127.251 210.007 126.951 208.919 125.119" fill="#AB8035"/>
<path d="M208.919 125.119C209.341 123.618 210.423 122.866 212.358 123.078C213.218 124.116 213.693 125.152 212.793 126.178C211.305 127.251 210.007 126.951 208.919 125.119" stroke="#AB8035" stroke-width="0.181912" stroke-miterlimit="1.5" stroke-linecap="round" stroke-linejoin="round"/>
<path fill-rule="evenodd" clip-rule="evenodd" d="M254.368 93.419C257.602 92.2816 258.481 92.7895 256.16 95.5315C244.325 102.914 244.062 115.259 255.951 123.222C262.494 126.623 268.716 126.146 272.955 122.253C285.236 111.033 282.359 102.319 272.058 94.8323C270.681 93.4521 271.371 92.9349 273.939 93.2014C285.689 97.4259 288.386 109.498 281.749 119.909C270.844 134.195 253.29 129.553 246.043 119.677C238.959 107.84 242.614 99.6974 254.368 93.419Z" fill="#AB8035" stroke="#AB8035" stroke-width="0.181912" stroke-miterlimit="1.5" stroke-linecap="round" stroke-linejoin="round"/>
<path fill-rule="evenodd" clip-rule="evenodd" d="M179.398 125.298C188.194 117.515 197.14 109.89 206.932 103.142L217.136 93.3501C219.744 91.7247 221.93 92.1497 220.196 94.6737L206.922 108.009C203.826 113.414 200.083 118.825 193.804 122.785C193.41 123.033 176.295 130.368 179.398 125.298Z" fill="#AB8035" stroke="#AB8035" stroke-width="0.181912" stroke-miterlimit="1.5" stroke-linecap="round" stroke-linejoin="round"/>
<path fill-rule="evenodd" clip-rule="evenodd" d="M191.176 108.795C189.405 106.895 188.761 104.936 192.346 102.757C189.549 101.897 188.14 100.419 188.852 97.8304C190.657 94.6974 192.772 92.8679 195.502 92.5946C198.875 92.3974 200.075 94.0024 197.188 95.5186C191.561 97.2485 190.663 98.8777 193.633 100.425C199.924 95.3932 204.964 92.4204 207.675 93.2726C209.618 94.3488 210.254 95.3923 207.654 96.9259C200.089 100.11 194.419 103.227 194.713 107.334C194.46 109.575 192.273 109.531 191.176 108.794L191.176 108.795V108.795Z" fill="#AB8035" stroke="#AB8035" stroke-width="0.181912" stroke-miterlimit="1.5" stroke-linecap="round" stroke-linejoin="round"/>
<path fill-rule="evenodd" clip-rule="evenodd" d="M141.914 116.146C133.985 108.687 127.241 100.992 121.627 93.0713C121.138 91.9046 121.626 91.2143 124.084 91.4842C131.032 88.607 137.172 88.7052 142.253 92.7079C146.299 89.7882 149.854 92.2986 147.438 95.8932C141.548 101.634 140.647 106.634 142.583 111.214C144.086 115.051 144.017 116.889 141.913 116.146H141.914Z" fill="#AB8035" stroke="#AB8035" stroke-width="0.181912" stroke-miterlimit="1.5" stroke-linecap="round" stroke-linejoin="round"/>
<path fill-rule="evenodd" clip-rule="evenodd" d="M126.575 94.546C131.428 97.8346 135.563 101.632 138.444 106.319C138.018 102.52 139.532 99.3197 143.242 96.7988C137.332 91.0853 131.738 89.7859 126.575 94.546Z" fill="#6A4A1A" stroke="#AB8035" stroke-width="0.181912" stroke-miterlimit="1.5" stroke-linecap="round" stroke-linejoin="round"/>
<path d="M165.479 126.262C177.632 126.262 187.485 118.275 187.485 108.422C187.485 98.5693 177.632 90.582 165.479 90.582C153.325 90.582 143.473 98.5693 143.473 108.422C143.473 118.275 153.325 126.262 165.479 126.262Z" fill="#AB8035" stroke="#AB8035" stroke-width="0.181912" stroke-miterlimit="1.5" stroke-linecap="round" stroke-linejoin="round"/>
<path fill-rule="evenodd" clip-rule="evenodd" d="M16.5615 70.2973L37.0028 77.2902C37.5478 77.7663 36.8186 80.6902 35.4725 81.6636C34.8707 82.0984 30.4012 80.7858 30.2285 81.3184C22.3865 105.534 49.4533 111.117 63.0337 85.2824C61.2474 83.6243 58.3955 83.5036 52.812 84.0145C51.8769 82.9544 51.5747 81.6916 52.8755 79.9149C59.1806 79.7202 65.4853 80.4598 71.7904 81.9662C66.0862 94.0253 58.7963 103.718 48.2293 108.52C40.9881 110.29 34.1837 108.199 27.9327 101.211C23.0207 92.3179 19.2341 82.0087 16.5624 70.2969L16.562 70.2973H16.5615Z" fill="#AB8035" stroke="#AB8035" stroke-width="0.181912" stroke-miterlimit="1.5" stroke-linecap="round" stroke-linejoin="round"/>
<path fill-rule="evenodd" clip-rule="evenodd" d="M73.4179 82.8789C77.9558 82.941 82.1861 83.6159 86.1076 84.9043C81.7836 86.9492 67.8619 100.441 67.8619 100.441C64.4113 104.474 65.2687 108.023 67.711 111.395C58.6742 110.705 54.9129 107.412 64.7388 97.4135L72.0327 90.6866C68.2915 90.268 69.2403 87.4121 73.4179 82.8789Z" fill="#AB8035" stroke="#AB8035" stroke-width="0.181912" stroke-miterlimit="1.5" stroke-linecap="round" stroke-linejoin="round"/>
<path fill-rule="evenodd" clip-rule="evenodd" d="M76.4334 93.9141C70.944 103.224 71.0105 109.508 74.9182 114.456C75.8826 116.142 75.4033 116.896 73.1208 116.048C66.8019 111.413 65.3343 105.033 74.4944 94.8317C75.2373 94.2728 75.8773 93.9842 76.433 93.9141H76.4334Z" fill="#AB8035" stroke="#AB8035" stroke-width="0.181912" stroke-miterlimit="1.5" stroke-linecap="round" stroke-linejoin="round"/>
<path d="M90.6039 119.686C98.8792 119.686 105.588 112.179 105.588 102.919C105.588 93.6592 98.8792 86.1523 90.6039 86.1523C82.3286 86.1523 75.6201 93.6592 75.6201 102.919C75.6201 112.179 82.3286 119.686 90.6039 119.686Z" fill="#AB8035" stroke="#AB8035" stroke-width="0.181912" stroke-miterlimit="1.5" stroke-linecap="round" stroke-linejoin="round"/>
<path fill-rule="evenodd" clip-rule="evenodd" d="M100.753 86.5981L110.639 87.4983C113.464 88.1618 115.697 89.3902 116.989 91.5155C124.217 102.761 132.947 112.339 142.532 120.969C146.897 125.157 145.998 126.05 139.493 123.435C133.243 120.396 126.304 114.405 122.691 108.642L112.302 93.5362C110.603 90.9778 107.589 89.6725 103.289 89.5947C101.123 88.8011 100.299 87.7993 100.754 86.5977L100.753 86.5981Z" fill="#AB8035" stroke="#AB8035" stroke-width="0.181912" stroke-miterlimit="1.5" stroke-linecap="round" stroke-linejoin="round"/>
<path fill-rule="evenodd" clip-rule="evenodd" d="M108.628 92.7387C112.325 95.3701 118.489 105.14 125.001 115.918C126.428 120.486 124.023 121.685 119.942 118.549C117.297 115.748 115.226 115.661 113.716 118.219C112.107 121.974 110.851 121.418 109.763 118.809C109.361 116.587 110.582 113.783 113.51 110.366C112.029 104.598 110.198 98.9542 106.731 93.8889C106.34 92.1598 106.932 91.7236 108.628 92.7387Z" fill="#AB8035" stroke="#AB8035" stroke-width="0.181912" stroke-miterlimit="1.5" stroke-linecap="round" stroke-linejoin="round"/>
<path fill-rule="evenodd" clip-rule="evenodd" d="M107.861 105.256C108.26 103.458 109.063 103.261 110.449 105.372C111.105 109.977 110.38 114.105 106.645 117.366C105.417 118.594 103.994 119.664 102.423 120.616C100.019 121.659 98.9084 120.923 101.109 118.613C106.311 115.202 108.652 110.782 107.861 105.256Z" fill="#AB8035"/>
<path d="M107.861 105.256C108.26 103.458 109.063 103.261 110.449 105.372C111.105 109.977 110.38 114.105 106.645 117.366C105.417 118.594 103.994 119.664 102.423 120.616C100.019 121.659 98.9084 120.923 101.109 118.613C106.311 115.202 108.652 110.782 107.861 105.256ZM107.861 105.256V105.256" stroke="#AB8035" stroke-width="0.181912" stroke-miterlimit="1.5" stroke-linecap="round" stroke-linejoin="round"/>
<path fill-rule="evenodd" clip-rule="evenodd" d="M293.091 101.511C290.481 98.7847 292.367 98.828 294.855 99.7517C299.135 102.153 302.956 105.393 306.365 109.382C310.437 114.093 309.827 118.22 306.605 122.019C304.748 123.762 303.134 123.621 304.116 121.454C305.051 118.339 304.841 115.104 303.861 111.8C303.042 109.677 298.567 105.83 293.091 101.511Z" fill="#AB8035"/>
<path d="M293.091 101.511C290.481 98.7847 292.367 98.828 294.855 99.7517C299.135 102.153 302.956 105.393 306.365 109.382C310.437 114.093 309.827 118.22 306.605 122.019C304.748 123.762 303.134 123.621 304.116 121.454C305.051 118.339 304.841 115.104 303.861 111.8C303.042 109.677 298.567 105.83 293.091 101.511ZM293.091 101.511L293.091 101.511" stroke="#AB8035" stroke-width="0.181912" stroke-miterlimit="1.5" stroke-linecap="round" stroke-linejoin="round"/>
<path fill-rule="evenodd" clip-rule="evenodd" d="M297.94 97.9838C294.421 94.5069 295.426 93.8269 300.205 95.4799C306.556 98.3371 311.948 103.073 316.666 109.127C318.236 111.378 320.688 113.888 323.943 116.631C327.178 119.531 325.176 121.375 321.146 119.79L311.021 110.159C306.222 106.598 301.957 102.432 297.94 97.9838L297.94 97.9834L297.94 97.9838Z" fill="#AB8035" stroke="#AB8035" stroke-width="0.181912" stroke-miterlimit="1.5" stroke-linecap="round" stroke-linejoin="round"/>
<path fill-rule="evenodd" clip-rule="evenodd" d="M305.72 96.4256C303.387 94.4946 303.77 92.9772 307.254 94.5856C310.824 97.0152 312.497 97.0275 311.718 93.9183C311.041 92.2606 314.179 92.9419 318.457 94.3229C319.95 94.8827 321.147 95.0132 321.869 94.4543C324.399 91.992 327.574 91.5554 331.517 93.5285C335.398 95.4782 337.891 97.0381 339.805 98.4357C340.974 100.558 341.067 102.554 340.472 104.468C339.007 106.568 337.328 106.791 337.75 103.657C338.183 100.384 334.301 97.6047 326.824 95.2385C325.771 95.0396 324.244 95.3579 322.521 95.8914C320.671 96.5829 321.209 97.1903 321.941 97.7901C330.399 102.778 333.38 106.708 336.934 110.749C339.477 113.92 338.922 114.177 335.548 111.782C334.575 111.311 334.07 111.501 334.558 112.567C341.17 121.656 338.166 121.145 331.026 116.506C327.57 114.245 325.112 111.572 323.301 108.633C322.445 107.295 316.349 103.098 305.719 96.4265L305.72 96.4256Z" fill="#AB8035" stroke="#AB8035" stroke-width="0.181912" stroke-miterlimit="1.5" stroke-linecap="round" stroke-linejoin="round"/>
<path fill-rule="evenodd" clip-rule="evenodd" d="M334.572 122.18C336.729 121.75 337.287 122.768 336.884 124.657C332.343 129.106 326.101 128.76 319.424 127.188C314.753 125.402 312.514 125.234 311.247 125.714C307.767 126.315 307.511 125.345 309.742 123.163C310.831 122.042 314.333 123.028 317.387 123.623C328.583 127.582 332.407 125.554 334.572 122.18Z" fill="#AB8035" stroke="#AB8035" stroke-width="0.181912" stroke-miterlimit="1.5" stroke-linecap="round" stroke-linejoin="round"/>
<path fill-rule="evenodd" clip-rule="evenodd" d="M299.351 122.351C298.498 118.892 298.731 117.384 301.995 121.329C303.381 122.307 304.107 123.444 302.451 125.158C298.692 127.819 296.328 127.772 293.699 128.242C290.61 127.622 290.7 126.797 293.185 125.816C297.915 125.565 300.407 124.557 299.351 122.351V122.351Z" fill="#AB8035" stroke="#AB8035" stroke-width="0.181912" stroke-miterlimit="1.5" stroke-linecap="round" stroke-linejoin="round"/>
<path fill-rule="evenodd" clip-rule="evenodd" d="M121.996 567.618C124.36 573.329 128.951 576.013 135.518 576.011C142.785 573.727 142.605 570.887 138.577 567.758C136.938 567.302 135.94 566.718 136.982 565.733C140.649 562.294 136.297 562.137 130.581 562.537C130.148 562.601 129.473 562.475 129.418 562.965C128.97 567.004 124.702 568.51 123.013 567.545C122.047 566.993 122.005 567.409 121.996 567.618Z" fill="#AB8035"/>
<path d="M121.996 567.618C124.36 573.329 128.951 576.013 135.518 576.011C142.785 573.727 142.605 570.887 138.577 567.758C136.938 567.302 135.94 566.718 136.982 565.733C140.649 562.294 136.297 562.137 130.581 562.537C130.148 562.601 129.473 562.475 129.418 562.965C128.97 567.004 124.702 568.51 123.013 567.545C122.047 566.993 122.005 567.409 121.996 567.618ZM121.996 567.618H121.995" stroke="#AB8035" stroke-width="0.181912" stroke-miterlimit="1.5" stroke-linecap="round" stroke-linejoin="round"/>
<path fill-rule="evenodd" clip-rule="evenodd" d="M144.834 577.96C146.046 579.362 145.513 580.066 143.261 580.082L136.2 577.22C135.755 576.501 136.532 575.493 138.175 576.176C140.03 577.284 142.123 577.792 144.834 577.96Z" fill="#AB8035" stroke="#AB8035" stroke-width="0.181912" stroke-miterlimit="1.5" stroke-linecap="round" stroke-linejoin="round"/>
<path fill-rule="evenodd" clip-rule="evenodd" d="M115.331 564.378C117.546 563.309 118.572 563.85 118.438 565.959C118.089 567.188 117.458 568.039 116.485 568.435C114.39 568.975 113.252 568.712 113.558 567.243L115.332 564.377L115.331 564.378Z" fill="#AB8035" stroke="#AB8035" stroke-width="0.181912" stroke-miterlimit="1.5" stroke-linecap="round" stroke-linejoin="round"/>
<path fill-rule="evenodd" clip-rule="evenodd" d="M116.154 549.631C113.768 552.332 114.34 553.144 117.705 552.173C128.963 549.475 126.297 551.208 120.102 554.063C117.656 555.103 118.981 555.373 122.714 555.153C129.939 555.152 133.207 553.721 127.794 549.149C123.641 545.681 119.812 546.52 116.154 549.63V549.631Z" fill="#AB8035" stroke="#AB8035" stroke-width="0.181912" stroke-miterlimit="1.5" stroke-linecap="round" stroke-linejoin="round"/>
<path fill-rule="evenodd" clip-rule="evenodd" d="M397.168 549.268C395.129 551.471 395.954 552.27 400.092 551.441C409.564 542.936 411.593 538.694 407.127 538.169C404.686 538.146 403.868 538.678 404.32 539.643C409.84 541.659 402.217 545.657 397.168 549.268Z" fill="#AB8035"/>
<path d="M397.168 549.268C395.129 551.471 395.954 552.27 400.092 551.441C409.564 542.936 411.593 538.694 407.127 538.169C404.686 538.146 403.868 538.678 404.32 539.643C409.84 541.659 402.217 545.657 397.168 549.268ZM397.168 549.268L397.167 549.268" stroke="#AB8035" stroke-width="0.181912" stroke-miterlimit="1.5" stroke-linecap="round" stroke-linejoin="round"/>
<path fill-rule="evenodd" clip-rule="evenodd" d="M415.883 543.959C417.04 543.639 417.742 544.091 418.002 545.291C418.062 546.273 417.645 547.224 415.892 548.088C412.669 548.131 411.827 547.429 412.875 546.136L415.884 543.959L415.883 543.959Z" fill="#AB8035" stroke="#AB8035" stroke-width="0.181912" stroke-miterlimit="1.5" stroke-linecap="round" stroke-linejoin="round"/>
<path fill-rule="evenodd" clip-rule="evenodd" d="M408.432 551.691C409.487 552.002 409.809 552.665 409.418 553.671C408.98 554.422 408.187 554.925 406.401 554.733C403.88 553.245 403.573 552.332 405.024 551.874L408.432 551.691Z" fill="#AB8035"/>
<path d="M408.432 551.691C409.487 552.002 409.809 552.665 409.418 553.671C408.98 554.422 408.187 554.925 406.401 554.733C403.88 553.245 403.573 552.332 405.024 551.874L408.432 551.691ZM408.432 551.691L408.433 551.692" stroke="#AB8035" stroke-width="0.181912" stroke-miterlimit="1.5" stroke-linecap="round" stroke-linejoin="round"/>
<path fill-rule="evenodd" clip-rule="evenodd" d="M118.237 541.46C122.166 540.956 122.662 541.912 120.242 544.107C113.703 545.442 111.598 547.576 108.969 549.616C106.198 550.275 105.95 549.362 107.51 547.321C111.553 544.759 116.3 541.279 118.237 541.46Z" fill="#AB8035" stroke="#AB8035" stroke-width="0.181912" stroke-miterlimit="1.5" stroke-linecap="round" stroke-linejoin="round"/>
<path fill-rule="evenodd" clip-rule="evenodd" d="M422.759 563.818C424.964 563.223 424.901 562.433 423.378 561.518C420.345 560.999 418.069 561.371 416.613 562.706C414.718 564.669 414.196 565.988 414.767 566.793C416.21 568.57 417.464 568.013 418.71 567.365C420.6 566.236 420.217 565.254 417.953 564.391C416.738 564.087 416.788 563.65 417.41 563.152C418.323 562.529 420.491 563.125 422.759 563.818H422.759Z" fill="#AB8035" stroke="#AB8035" stroke-width="0.181912" stroke-miterlimit="1.5" stroke-linecap="round" stroke-linejoin="round"/>
<path fill-rule="evenodd" clip-rule="evenodd" d="M370.516 561.211C368.757 561.521 368.851 562.256 369.875 563.204L372.532 564.178C374.155 563.929 374.304 563.091 373.554 561.893L370.516 561.211Z" fill="#AB8035"/>
<path d="M370.516 561.211C368.757 561.521 368.851 562.256 369.875 563.204L372.532 564.178C374.155 563.929 374.304 563.091 373.554 561.893L370.516 561.211ZM370.516 561.211V561.211" stroke="#AB8035" stroke-width="0.181912" stroke-miterlimit="1.5" stroke-linecap="round" stroke-linejoin="round"/>
<path fill-rule="evenodd" clip-rule="evenodd" d="M409.622 568.676C412.359 568.747 413.578 568.124 411.679 566.077C409.267 563.976 406.892 561.603 404.01 563.002C403.683 563.366 403.024 563.377 402.14 563.146C399.418 564.12 398.554 565.103 399.768 566.098C401.979 567.61 404.202 569.741 406.332 567.371C407.262 566.084 408.023 565.551 408.444 566.543C408.299 567.65 408.136 568.77 409.623 568.677L409.623 568.677L409.622 568.676Z" fill="#AB8035" stroke="#AB8035" stroke-width="0.181912" stroke-miterlimit="1.5" stroke-linecap="round" stroke-linejoin="round"/>
<path fill-rule="evenodd" clip-rule="evenodd" d="M381.227 571.681C379.815 572.911 379.485 573.771 380.279 574.249C381.638 574.825 383.557 573.359 385.417 572.106C385.847 570.614 385.615 569.701 383.655 570.299L381.227 571.681Z" fill="#AB8035" stroke="#AB8035" stroke-width="0.181912" stroke-miterlimit="1.5" stroke-linecap="round" stroke-linejoin="round"/>
<path fill-rule="evenodd" clip-rule="evenodd" d="M391.232 561.971C391.413 560.269 392.095 559.854 393.483 561.25C394.27 562.35 394.446 563.558 394.135 564.856C393.808 565.452 396.439 567.485 398.375 569.18C398.974 570.727 399.193 571.891 396.848 570.472C394.867 567.999 392.816 565.666 389.343 566.195C388.167 565.971 387.153 565.585 386.882 564.452C386.532 563.369 387.382 563.263 388.659 563.504C391.783 565.397 392.98 565.246 391.232 561.971V561.971Z" fill="#AB8035" stroke="#AB8035" stroke-width="0.181912" stroke-miterlimit="1.5" stroke-linecap="round" stroke-linejoin="round"/>
<path fill-rule="evenodd" clip-rule="evenodd" d="M314.306 575.29C316.291 573.782 316.868 574.604 316.862 576.393C311.678 581.578 303.017 587.769 305.692 590.677C307.02 592.825 306.083 593.346 303.719 592.844C302.893 592.242 302.67 590.806 302.678 589.05C302.223 587.662 301.508 589.052 300.747 590.917C300.199 593.358 297.084 591.46 299.213 587.244C299.333 586.998 299.741 586.215 302.089 586.11C305.697 585.947 310.084 580.703 314.307 575.29L314.306 575.29Z" fill="#AB8035" stroke="#AB8035" stroke-width="0.181912" stroke-miterlimit="1.5" stroke-linecap="round" stroke-linejoin="round"/>
<path fill-rule="evenodd" clip-rule="evenodd" d="M314.138 580.288C316.981 577.536 317.35 578.679 316.216 582.189C315.273 583.297 314.608 584.274 314.824 585.879C311.581 595.869 309.149 592.498 306.629 589.864C305.075 588.23 310.165 584.045 314.138 580.288L314.138 580.288Z" fill="#AB8035" stroke="#AB8035" stroke-width="0.181912" stroke-miterlimit="1.5" stroke-linecap="round" stroke-linejoin="round"/>
<path fill-rule="evenodd" clip-rule="evenodd" d="M327.075 585.855C324.178 584.31 323.604 585.829 324.454 589.223C326.729 592.404 330.77 590.417 334.585 589.091C336.314 586.599 333.619 583.91 331.984 586.027C330.598 587.988 329.018 588.394 327.075 585.855Z" fill="#AB8035" stroke="#AB8035" stroke-width="0.181912" stroke-miterlimit="1.5" stroke-linecap="round" stroke-linejoin="round"/>
<path fill-rule="evenodd" clip-rule="evenodd" d="M204.578 581.379C203.592 583.931 204.532 584.862 207.385 584.181C208.59 583.676 209.937 582.634 211.518 580.702C211.947 579.844 212.453 579.755 213.045 580.516C213.236 582.199 213.555 583.018 213.949 583.334C215.861 584.921 216.513 583.467 216.991 581.596C217.051 579.589 215.901 577.871 213.638 576.417C212.29 575.459 211.252 575.725 210.318 576.403L204.578 581.379H204.578Z" fill="#AB8035" stroke="#AB8035" stroke-width="0.181912" stroke-miterlimit="1.5" stroke-linecap="round" stroke-linejoin="round"/>
<path fill-rule="evenodd" clip-rule="evenodd" d="M210.623 585.35C208.152 585.731 207.837 586.941 209.62 588.955C211.325 590.536 212.768 590.268 214.032 588.739C215.557 587.294 217.262 587.591 218.994 588.141C224.301 589.54 224.197 587.738 221.859 584.616C220.013 583.664 218.072 583.612 216.028 584.533C213.755 585.767 212.196 585.543 210.623 585.35L210.623 585.35Z" fill="#AB8035" stroke="#AB8035" stroke-width="0.181912" stroke-miterlimit="1.5" stroke-linecap="round" stroke-linejoin="round"/>
<path fill-rule="evenodd" clip-rule="evenodd" d="M224.113 586.129C223.429 584.488 224.18 584.077 225.881 584.479C227.835 585.511 229.38 586.665 230.493 587.947C230.933 589.791 230.184 590.259 228.421 589.554C227.219 588.178 225.811 587.008 224.112 586.129L224.113 586.129Z" fill="#AB8035" stroke="#AB8035" stroke-width="0.181912" stroke-miterlimit="1.5" stroke-linecap="round" stroke-linejoin="round"/>
<path fill-rule="evenodd" clip-rule="evenodd" d="M228.085 591.643C227.219 591.6 226.523 591.754 226.305 592.457C226.223 593.527 226.602 594.004 227.473 593.843L229.359 593.364C229.744 592.245 229.244 591.722 228.085 591.643Z" fill="#AB8035" stroke="#AB8035" stroke-width="0.181912" stroke-miterlimit="1.5" stroke-linecap="round" stroke-linejoin="round"/>
<path fill-rule="evenodd" clip-rule="evenodd" d="M255.61 587.513C257.432 589.685 256.559 590.193 254.137 589.744C246.16 587.656 241.569 584.02 238.788 579.556C238.343 577.323 239.107 577.039 241.259 578.994C243.59 582.307 245.558 583.75 247.4 584.541C248.107 584.858 248.415 584.659 247.972 584.069C243.448 578.708 246 575.591 252.307 573.665C256.065 572.903 262.014 573.122 269.401 573.987C271.96 574.835 272.013 577.509 270.009 576.973C268.772 576.791 267.803 576.849 267.543 577.543C267.879 580.406 266.179 580.5 264.34 580.403C263.283 580.204 263.405 579.084 264.577 577.143C265.171 576.457 265.581 575.849 264.085 576.043C257.444 575.99 254.297 576.701 256.085 578.564C258.64 583.198 256.135 584.057 253.17 581.511C251.986 580.207 251.533 578.951 253.136 577.827C253.753 577.268 252.974 576.672 251.912 576.854C247.072 578.952 246.647 582.107 255.611 587.513L255.611 587.513H255.61Z" fill="#AB8035" stroke="#AB8035" stroke-width="0.181912" stroke-miterlimit="1.5" stroke-linecap="round" stroke-linejoin="round"/>
<path fill-rule="evenodd" clip-rule="evenodd" d="M258.957 587.366C258.648 584.588 259.628 583.632 262.482 585.32C263.709 586.676 264.841 586.72 265.925 586.091L273.536 578.2C275.293 576.359 276.189 577.062 276.465 579.597C277.143 580.288 271.822 585.193 266.893 589.822C266.132 590.261 265.359 590.478 264.544 589.962C263.464 589.113 263.328 590.111 263.714 592.135C262.877 592.207 262.111 592.184 261.42 592.061C260.761 591.944 260.169 591.737 259.647 591.435L258.957 587.366H258.957Z" fill="#AB8035" stroke="#AB8035" stroke-width="0.181912" stroke-miterlimit="1.5" stroke-linecap="round" stroke-linejoin="round"/>
<path fill-rule="evenodd" clip-rule="evenodd" d="M280.501 589.353C277.889 590.094 275.245 590.884 273.268 590.687C272.533 590.47 272.422 590.185 273.361 589.788C276.78 589.532 279.492 587.004 281.689 582.82C282.208 582.124 282.335 581.65 281.812 581.546C280.453 580.719 278.865 579.885 278.93 579.115C278.458 576.256 279.387 575.817 280.996 576.553C282.32 578.348 283.8 580.671 284.476 580.284C286.169 580.163 286.671 580.357 287.032 580.588C290.291 582.983 291.25 584.372 289.309 584.491C287.05 584.053 284.92 584.042 283.396 586.025L280.5 589.353H280.501Z" fill="#AB8035" stroke="#AB8035" stroke-width="0.181912" stroke-miterlimit="1.5" stroke-linecap="round" stroke-linejoin="round"/>
<path fill-rule="evenodd" clip-rule="evenodd" d="M292.422 576.84C290.794 577.016 290.46 577.732 290.9 578.77C291.406 579.554 292.386 579.987 293.569 580.269C295.43 580.549 295.984 579.873 295.372 578.344C295.22 577.8 294.068 577.307 292.422 576.84Z" fill="#AB8035" stroke="#AB8035" stroke-width="0.181912" stroke-miterlimit="1.5" stroke-linecap="round" stroke-linejoin="round"/>
<path fill-rule="evenodd" clip-rule="evenodd" d="M187.71 588.17C186.848 589.574 187.405 590.211 189.798 589.855C191.362 588.763 192.555 588.797 193.382 589.935C195.85 591.251 196.008 590.028 195.335 587.889C193.377 585.657 190.913 585.386 187.71 588.17Z" fill="#AB8035" stroke="#AB8035" stroke-width="0.181912" stroke-miterlimit="1.5" stroke-linecap="round" stroke-linejoin="round"/>
<path fill-rule="evenodd" clip-rule="evenodd" d="M175.688 568.932C174.724 565.879 176.422 566.466 178.975 568.223C180.266 569.737 179.77 571.16 176.742 572.452C175.358 572.844 175.477 573.567 176.587 574.509C177.844 576.085 179.775 576.056 182.311 574.583L187.206 570.452C190.857 567.595 192.535 569.731 193.411 573.893C193.174 574.972 192.517 575.585 189.441 573.506C188.825 573.122 188.28 572.941 188.024 573.585C184.391 577.629 180.415 579.836 175.518 577.104C171.818 574.738 170.572 572.807 174.194 571.742C176.375 571.046 176.627 570.074 175.688 568.933V568.932Z" fill="#AB8035" stroke="#AB8035" stroke-width="0.181912" stroke-miterlimit="1.5" stroke-linecap="round" stroke-linejoin="round"/>
<path fill-rule="evenodd" clip-rule="evenodd" d="M164.65 570.577C164.299 572.578 165.074 572.644 166.528 571.541C167.253 570.956 167.831 570.306 168.04 569.498C168.129 568.032 167.422 567.764 166.143 568.355C165.096 569.266 164.84 569.932 164.65 570.577Z" fill="#AB8035" stroke="#AB8035" stroke-width="0.181912" stroke-miterlimit="1.5" stroke-linecap="round" stroke-linejoin="round"/>
<path fill-rule="evenodd" clip-rule="evenodd" d="M156.432 564.054C155.054 563.862 154.577 564.259 155.386 565.494L160.518 570.419C162.671 571.38 163.371 570.98 162.225 568.849C161.835 568.302 161.317 567.827 160.584 567.473C159.394 566.814 159.533 566.403 161.48 566.329L166.26 566.795C169.472 566.292 168.296 564.615 165.72 564.545L156.432 564.053V564.054Z" fill="#AB8035" stroke="#AB8035" stroke-width="0.181912" stroke-miterlimit="1.5" stroke-linecap="round" stroke-linejoin="round"/>
<path fill-rule="evenodd" clip-rule="evenodd" d="M167.876 574.953C168.416 572.815 169.653 573.274 171.351 575.444C175.247 579.945 171.407 580.326 164.745 579.202C160.193 578.038 156.865 573.58 153.72 568.632C153.14 567.587 152.487 567.232 151.79 567.283C148.301 566.146 148.026 563.57 148.847 560.505C149.486 559.755 150.228 559.652 151.183 560.9C151.109 562.938 151.409 564.249 152.328 564.355C153.308 564.069 154.012 564.386 154.443 565.3C160.17 573.19 165.542 579.751 167.876 574.953Z" fill="#AB8035" stroke="#AB8035" stroke-width="0.181912" stroke-miterlimit="1.5" stroke-linecap="round" stroke-linejoin="round"/>
<path fill-rule="evenodd" clip-rule="evenodd" d="M197.939 582.793L197.729 588.483C197.707 590.365 198.39 591.237 200.071 590.681L205.34 589.757C204.738 585.166 201.916 583.278 197.939 582.793Z" fill="#AB8035" stroke="#AB8035" stroke-width="0.181912" stroke-miterlimit="1.5" stroke-linecap="round" stroke-linejoin="round"/>
<path fill-rule="evenodd" clip-rule="evenodd" d="M318.343 584.941C317.682 583.481 318.423 582.935 320.743 583.417C322.663 584.337 323.065 586.045 322.401 588.308C321.55 589.961 320.371 590.383 320.003 588.358C320.09 586.539 319.767 585.156 318.342 584.942L318.343 584.941Z" fill="#AB8035" stroke="#AB8035" stroke-width="0.181912" stroke-miterlimit="1.5" stroke-linecap="round" stroke-linejoin="round"/>
<path fill-rule="evenodd" clip-rule="evenodd" d="M317.61 587.911C316.16 586.817 315.779 587.733 315.841 589.482C316.105 590.802 316.936 591.264 317.814 591.653C319.961 591.979 320.338 591.411 319.472 590.214L317.61 587.911Z" fill="#AB8035" stroke="#AB8035" stroke-width="0.181912" stroke-miterlimit="1.5" stroke-linecap="round" stroke-linejoin="round"/>
<path fill-rule="evenodd" clip-rule="evenodd" d="M338.62 573.529C339.804 575.639 339.054 576.591 336.018 576.172C331.026 574.324 329.092 572.195 335.785 569.276C339.921 568.091 342.447 568.611 343.498 570.691C345.135 574.328 347.753 576.959 351.937 577.986C354.08 579.368 353.611 580.177 351.236 580.569C347.443 578.888 343.468 577.451 341.706 573.059C339.823 570.828 338.018 572.115 338.62 573.528L338.62 573.529Z" fill="#AB8035" stroke="#AB8035" stroke-width="0.181912" stroke-miterlimit="1.5" stroke-linecap="round" stroke-linejoin="round"/>
<path fill-rule="evenodd" clip-rule="evenodd" d="M352.205 568.146C352.133 567.144 351.612 566.658 350.158 567.247C347.049 569.382 347.888 570.845 349.252 572.218C351.387 574.017 353.224 575.147 354.806 575.713C355.843 575.807 356.347 576.157 355.723 577.053C355.233 578.733 356.029 579.113 357.85 578.458C359.795 577.952 364.321 573.419 368.713 569.096C370.367 565.417 369.15 563.341 364.556 563.152C362.834 563.313 360.873 564.42 358.426 566.012C356.229 567.155 356.031 568.164 357.881 569.035C359.552 569.262 360.189 569.723 359.184 570.556C356.111 571.393 356.493 572.215 357.244 573.035C358.318 574.508 357.5 574.522 355.585 573.688C352.624 572.598 348.821 570.62 351.101 569.305L352.205 568.146Z" fill="#AB8035" stroke="#AB8035" stroke-width="0.181912" stroke-miterlimit="1.5" stroke-linecap="round" stroke-linejoin="round"/>
<path fill-rule="evenodd" clip-rule="evenodd" d="M368.418 574.649C367.96 577.166 368.986 576.797 370.924 574.656C373.917 569.383 376.549 561.913 380.142 560.299C381.934 559.104 382.268 558.256 379.81 558.074C377.135 557.408 372.492 567.595 368.417 574.649" fill="#AB8035"/>
<path d="M368.418 574.649C367.96 577.166 368.986 576.797 370.924 574.656C373.917 569.383 376.549 561.913 380.142 560.299C381.934 559.104 382.268 558.256 379.81 558.074C377.135 557.408 372.492 567.595 368.417 574.649" stroke="#AB8035" stroke-width="0.181912" stroke-miterlimit="1.5" stroke-linecap="round" stroke-linejoin="round"/>
<path fill-rule="evenodd" clip-rule="evenodd" d="M204.467 355.092C246.778 362.913 286.912 362.239 323.541 354.684L323.288 368.105C283.805 383.853 244.004 384.124 204.699 368.665L204.467 355.092Z" fill="url(#paint10_linear_4156_24066)" stroke="#24211C" stroke-width="0.56786" stroke-miterlimit="1.5" stroke-linecap="round" stroke-linejoin="round"/>
<path fill-rule="evenodd" clip-rule="evenodd" d="M211.392 361.113C208.279 361.84 207.339 362.962 210.799 364.88C246.342 376.781 283.024 375.826 320.661 364.082C323.107 362.16 322.934 361.099 320.831 360.672C283.835 373.663 247.355 373.831 211.392 361.113Z" fill="#1E1B12" stroke="#1E1B12" stroke-width="0.181912" stroke-miterlimit="1.5" stroke-linecap="round" stroke-linejoin="round"/>
<path fill-rule="evenodd" clip-rule="evenodd" d="M405.535 529.804C434.469 553.404 430.855 561.317 391.19 553.926C386.8 553.44 383.855 554.743 382.84 556.956C371.583 589.083 347.875 588.494 317.648 570.774C315.306 569.289 313.116 569.421 311.086 571.241C282.059 599.632 250.192 598.884 215.806 572.317C213.01 570.272 209.998 570.574 207.463 571.665C175.772 590.358 153.264 588.08 141.357 556.452C140.566 555.326 139.338 554.852 137.556 555.199C105.913 559.576 93.1808 552.055 121.44 531.014C123.145 528.901 123.282 529.376 121.85 529.613C89.0597 547.802 99.7567 567.506 136.805 559.096C151.283 592.276 176.649 592.771 212.479 573.42C246.984 604.191 280.48 602.543 314.935 572.786C347.535 595.367 373.349 593.229 387.689 557.759C427.933 563.72 451.196 555.726 405.536 529.804L405.536 529.805L405.535 529.804Z" fill="#AB8035" stroke="#AB8035" stroke-width="0.181912" stroke-miterlimit="1.5" stroke-linecap="round" stroke-linejoin="round"/>
<path fill-rule="evenodd" clip-rule="evenodd" d="M229.311 475.548C224.85 512.639 202.768 521.61 171.036 523.989C115.741 526.684 123.803 543.942 169.847 554.075C242.802 569.617 311.459 563.704 376.603 547.155C397.362 541.09 391.9 527.919 375.776 527.343C327.571 526.714 298.584 513.222 298.844 474.027C275.779 480.799 252.604 481.445 229.311 475.548Z" fill="#1F4758"/>
<path fill-rule="evenodd" clip-rule="evenodd" d="M229.311 475.548C224.85 512.639 202.768 521.61 171.036 523.989C115.741 526.684 123.803 543.942 169.847 554.075C242.802 569.617 311.459 563.704 376.603 547.155C397.362 541.09 391.9 527.919 375.776 527.343C327.571 526.714 298.584 513.222 298.844 474.027C275.779 480.799 252.604 481.445 229.311 475.548Z" fill="url(#paint11_linear_4156_24066)"/>
<path fill-rule="evenodd" clip-rule="evenodd" d="M164.163 524.463C146.87 528.972 147.808 536.682 160.464 545.452C187.649 559.741 248.969 553.899 257.61 519.218C259 512.009 258.273 501.779 257.291 492.853C253.801 482.92 243.815 478.736 230.948 477.102C227.08 521.008 206.192 534.105 176.734 531.686C168.972 529.886 168.586 527.076 176.524 523.501" fill="url(#paint12_linear_4156_24066)"/>
<path fill-rule="evenodd" clip-rule="evenodd" d="M273.97 482.422C260.302 491.35 261.872 518.986 274.148 536.575C291.05 555.668 324.029 557.304 369.988 544.849C377.712 538.636 375.13 526.056 363.948 529.066C319.314 540.127 298.564 523.962 294.892 477.184C287.445 477.242 280.104 479.039 273.97 482.422Z" fill="#BD944A"/>
<path fill-rule="evenodd" clip-rule="evenodd" d="M273.97 482.422C260.302 491.35 261.872 518.986 274.148 536.575C291.05 555.668 324.029 557.304 369.988 544.849C377.712 538.636 375.13 526.056 363.948 529.066C319.314 540.127 298.564 523.962 294.892 477.184C287.445 477.242 280.104 479.039 273.97 482.422Z" fill="url(#paint13_linear_4156_24066)"/>
<path fill-rule="evenodd" clip-rule="evenodd" d="M291.323 480.715C289.225 525.531 312.393 541.761 352.325 539.022C316.32 545.912 279.2 547.443 273.61 515.981C271.619 507.879 271.278 495.661 273.879 491.395C278.118 484.993 284.107 481.748 291.323 480.715Z" fill="#C2A68B"/>
<path fill-rule="evenodd" clip-rule="evenodd" d="M188.933 540.323C225.229 545.843 249.428 536.122 252.288 499.517C251.797 489.453 246.345 484.027 237.66 481.621C233.734 523.414 215.59 537.471 188.933 540.323Z" fill="#DEC1A4"/>
<path fill-rule="evenodd" clip-rule="evenodd" d="M236.89 510.965C235.244 510.971 233.769 511.37 233.205 513.86C235.521 518.273 237.324 522.973 238.628 527.954C242.157 524.831 244.781 521.166 246.223 516.792C244.084 513.969 240.901 512.091 236.89 510.965Z" fill="#976D21"/>
<path fill-rule="evenodd" clip-rule="evenodd" d="M276.966 516.795C277.959 522.179 280.25 525.756 283.225 528.385L290.585 515.871C291.09 513.239 290.385 511.674 287.279 512.228L276.966 516.795Z" fill="#7E5C1F"/>
<path fill-rule="evenodd" clip-rule="evenodd" d="M244.474 488.82L239.34 496.057C239.197 499.904 241.374 501.973 245.161 502.808L251.284 497.489C249.951 493.366 247.686 490.47 244.474 488.82Z" fill="#976D21"/>
<path fill-rule="evenodd" clip-rule="evenodd" d="M280.972 489.41C276.281 491.512 274.866 495.212 275.63 499.975L283.169 498.297C284.836 497.598 285.427 496.491 284.588 494.847L280.972 489.41Z" fill="#7E5C1F"/>
<path d="M230.26 379.684L229.473 399.948" stroke="black" stroke-width="0.717815" stroke-miterlimit="1.5" stroke-linecap="round" stroke-linejoin="round"/>
<path d="M235.39 381.406L235.238 401.934" stroke="black" stroke-width="0.717815" stroke-miterlimit="1.5" stroke-linecap="round" stroke-linejoin="round"/>
<path d="M240.343 382.344L239.89 402.579" stroke="black" stroke-width="0.717815" stroke-miterlimit="1.5" stroke-linecap="round" stroke-linejoin="round"/>
<path d="M244.705 383.203L244.659 403.331" stroke="black" stroke-width="0.717815" stroke-miterlimit="1.5" stroke-linecap="round" stroke-linejoin="round"/>
<path d="M250.763 384.191L251.025 405.746" stroke="black" stroke-width="0.717815" stroke-miterlimit="1.5" stroke-linecap="round" stroke-linejoin="round"/>
<path d="M256.282 384.648L256.535 405.953" stroke="black" stroke-width="0.717815" stroke-miterlimit="1.5" stroke-linecap="round" stroke-linejoin="round"/>
<path d="M262.883 384.891L263.111 406.076" stroke="black" stroke-width="0.717815" stroke-miterlimit="1.5" stroke-linecap="round" stroke-linejoin="round"/>
<path d="M268.326 384.812L268.699 405.572" stroke="black" stroke-width="0.717815" stroke-miterlimit="1.5" stroke-linecap="round" stroke-linejoin="round"/>
<path d="M276.066 384.555L276.562 404.439" stroke="black" stroke-width="0.717815" stroke-miterlimit="1.5" stroke-linecap="round" stroke-linejoin="round"/>
<path d="M283.161 383.367L283.154 403.384" stroke="black" stroke-width="0.717815" stroke-miterlimit="1.5" stroke-linecap="round" stroke-linejoin="round"/>
<path d="M288.915 382.77L289.346 402.29" stroke="black" stroke-width="0.717815" stroke-miterlimit="1.5" stroke-linecap="round" stroke-linejoin="round"/>
<path d="M294.743 380.891L294.316 399.406" stroke="black" stroke-width="0.717815" stroke-miterlimit="1.5" stroke-linecap="round" stroke-linejoin="round"/>
<path fill-rule="evenodd" clip-rule="evenodd" d="M264.429 541.762L252.015 549.284C257.115 551.04 261.937 553.434 266.446 556.542C269.293 553.471 272.537 551.036 276.316 549.462L264.429 541.762Z" fill="#976D21"/>
<path d="M263.231 460.551C275.505 460.551 285.455 451.586 285.455 440.528C285.455 429.469 275.505 420.504 263.231 420.504C250.958 420.504 241.008 429.469 241.008 440.528C241.008 451.586 250.958 460.551 263.231 460.551Z" fill="#BD944A" stroke="#BD944A" stroke-width="0.378574" stroke-miterlimit="1.5" stroke-linecap="round" stroke-linejoin="round"/>
<path d="M231.587 456.258C242.86 456.258 251.999 447.471 251.999 436.633C251.999 425.794 242.86 417.008 231.587 417.008C220.314 417.008 211.176 425.794 211.176 436.633C211.176 447.471 220.314 456.258 231.587 456.258Z" fill="#BD944A" stroke="#BD944A" stroke-width="0.378574" stroke-miterlimit="1.5" stroke-linecap="round" stroke-linejoin="round"/>
<path d="M295.627 454.823C306.943 454.823 316.115 446.324 316.115 435.839C316.115 425.355 306.943 416.855 295.627 416.855C284.312 416.855 275.14 425.355 275.14 435.839C275.14 446.324 284.312 454.823 295.627 454.823Z" fill="#BD944A" stroke="#BD944A" stroke-width="0.378574" stroke-miterlimit="1.5" stroke-linecap="round" stroke-linejoin="round"/>
<path d="M165.182 122.15C173.318 122.15 179.913 115.773 179.913 107.905C179.913 100.038 173.318 93.6602 165.182 93.6602C157.047 93.6602 150.452 100.038 150.452 107.905C150.452 115.773 157.047 122.15 165.182 122.15Z" fill="#DFC1A4" stroke="#1F4758" stroke-width="0.378574" stroke-miterlimit="1.5" stroke-linecap="round" stroke-linejoin="round"/>
<path d="M89.9917 113.94C96.1566 113.94 101.154 108.343 101.154 101.439C101.154 94.5344 96.1566 88.9375 89.9917 88.9375C83.8268 88.9375 78.8291 94.5344 78.8291 101.439C78.8291 108.343 83.8268 113.94 89.9917 113.94Z" fill="#DEC0A3" stroke="#1F4758" stroke-width="0.378574" stroke-miterlimit="1.5" stroke-linecap="round" stroke-linejoin="round"/>
<path d="M263.779 125.486C271.914 125.486 278.509 119.109 278.509 111.241C278.509 103.374 271.914 96.9961 263.779 96.9961C255.644 96.9961 249.049 103.374 249.049 111.241C249.049 119.109 255.644 125.486 263.779 125.486Z" fill="#CEB196" stroke="#1F4758" stroke-width="0.378574" stroke-miterlimit="1.5" stroke-linecap="round" stroke-linejoin="round"/>
<path d="M263.012 453.445C270.445 453.445 276.471 447.513 276.471 440.195C276.471 432.877 270.445 426.945 263.012 426.945C255.579 426.945 249.554 432.877 249.554 440.195C249.554 447.513 255.579 453.445 263.012 453.445Z" fill="#CEB296" stroke="#1F4758" stroke-width="0.378574" stroke-miterlimit="1.5" stroke-linecap="round" stroke-linejoin="round"/>
<path d="M232.321 449.982C240.587 449.982 247.287 443.43 247.287 435.347C247.287 427.264 240.587 420.711 232.321 420.711C224.056 420.711 217.355 427.264 217.355 435.347C217.355 443.43 224.056 449.982 232.321 449.982Z" fill="#CEB296" stroke="#1F4758" stroke-width="0.378574" stroke-miterlimit="1.5" stroke-linecap="round" stroke-linejoin="round"/>
<path d="M295.25 448.232C302.937 448.232 309.169 442.128 309.169 434.598C309.169 427.069 302.937 420.965 295.25 420.965C287.563 420.965 281.331 427.069 281.331 434.598C281.331 442.128 287.563 448.232 295.25 448.232Z" fill="#CEB296" stroke="#1F4758" stroke-width="0.378574" stroke-miterlimit="1.5" stroke-linecap="round" stroke-linejoin="round"/>
<path d="M360.219 120.63C368.138 120.63 374.558 114.555 374.558 107.061C374.558 99.5672 368.138 93.4922 360.219 93.4922C352.3 93.4922 345.881 99.5672 345.881 107.061C345.881 114.555 352.3 120.63 360.219 120.63Z" fill="#C2A68B" stroke="#1F4758" stroke-width="0.378574" stroke-miterlimit="1.5" stroke-linecap="round" stroke-linejoin="round"/>
<path d="M431.648 115.72C438.155 115.72 443.43 109.745 443.43 102.374C443.43 95.0028 438.155 89.0273 431.648 89.0273C425.141 89.0273 419.866 95.0028 419.866 102.374C419.866 109.745 425.141 115.72 431.648 115.72Z" fill="#C2A68B" stroke="#1F4758" stroke-width="0.378574" stroke-miterlimit="1.5" stroke-linecap="round" stroke-linejoin="round"/>
<path fill-rule="evenodd" clip-rule="evenodd" d="M525.602 31.1178C517.456 21.8993 500.271 17.5285 468.1 13.1339C311.973 -6.42344 176.414 -1.70922 50.9791 14.2578C25.9649 17.8248 5.77085 22.1306 2.38373 30.1393C1.00748 38.4648 9.90933 44.359 10.2244 44.6497C47.5436 79.1115 443.267 88.2292 516.947 48.8466C524.932 45.428 527.89 39.5533 525.603 31.117V31.1174L525.602 31.1178Z" fill="#977323" stroke="#24211C" stroke-width="0.56786" stroke-miterlimit="1.5" stroke-linecap="round" stroke-linejoin="round"/>
<path fill-rule="evenodd" clip-rule="evenodd" d="M277.094 353.805L270.031 353.01C275.795 342.004 284.975 332.911 297.782 325.847C304.583 321.022 309.545 315.422 312.723 309.071C314.591 314.063 314.387 318.974 310.694 323.748C321.292 324.62 334.769 319.045 336.897 301.701C338.137 291.599 340.193 288.275 342.186 285.083C353.318 297.692 345.858 309.9 333.235 321.997C344.985 315.465 367.18 295.171 369.684 284.616C371.466 280.745 364.516 270.366 356.939 262.903C362.912 260.201 365.713 257.727 361.495 251.736C359.495 249.097 359.021 243.673 360.265 235.113C366.245 238.205 372.846 246.475 379.974 259.137C382.113 257.738 383.696 255.622 384.986 253.13C389.187 266.497 381.124 283.185 367.08 301.492C384.702 289.049 408.511 267.582 404.754 245.763C399.347 225.644 386.371 217.667 369.26 219.135C382.546 204.751 408.996 209.899 413.606 240.748C418.331 218.796 415.919 200.367 397.528 189.826C381.034 186.279 369.058 192.913 360.255 206.695C354.486 201.159 356.237 193.574 364.696 184.966C341.824 180.346 332.052 170.13 341.759 151.591C348.042 167.287 359.993 173.468 378.772 173.647C365.95 162.749 366.353 156.068 375.011 152.02C373.507 160.091 386.304 170.241 404.919 181.237C401.858 160.535 409.647 149.562 429.068 148.372C432.527 148.48 433.527 149.836 433.767 151.946C413.47 162.305 415.982 180.455 422.735 200.054C427.16 219.679 425.559 237.6 421.005 254.687C430.518 242.545 433.921 228.401 439.201 207.045C446.095 188.241 451.087 168.812 450.186 147.442C457.872 162.449 467.893 158.497 479.53 141.418C474.332 154.064 473.269 165.89 478.324 176.505C462.305 176.816 455.604 188.314 453.813 202.78C460.844 198.191 469.195 201.852 476.517 209.32C455.781 213.345 442.445 225.159 434.786 244.397C442.937 239.851 450.753 242.627 458.166 254.267C441.103 251.916 429.031 257.49 410.009 276.613C418.213 279.533 424.261 284.092 428.555 289.983C410.057 286.885 392.433 293.006 375.643 307.913C388.135 305.914 395.346 309.875 398.745 318.138C380.106 311.952 360.122 315.876 339.438 325.063C349.38 327.812 351.571 333.87 349.342 341.816C336.154 323.142 291.861 331.796 277.093 353.803L277.094 353.805Z" fill="url(#paint14_linear_4156_24066)" stroke="#24211C" stroke-width="0.56786" stroke-miterlimit="1.5" stroke-linecap="round" stroke-linejoin="round"/>
<path fill-rule="evenodd" clip-rule="evenodd" d="M250.742 355.077C249.392 346.543 245.487 338.569 239.851 330.976C227.39 323.451 220.432 315.291 219.21 306.468C214.939 310.909 214.031 316.716 221.416 325.889C203.255 322.846 189.815 311.245 184.884 284.214C173.858 292.611 176.081 303.573 187.735 316.36C166.334 304.679 153.391 291.637 156.409 276.025C158.057 268.69 161.439 261.721 167.042 255.222C168.956 249.674 168.203 243.698 165.555 237.417C153.462 243.829 148.67 252.863 146.728 262.921C146.442 259.012 145.59 255.477 142.118 253.664C136.863 258.171 135.928 265.143 142.721 274.768C145.959 280.107 148.611 286.063 151.143 292.145C131.802 278.493 118.421 263.045 119.715 243.171C126.207 226.19 138.54 219.949 156.21 223.52C155.9 213.498 149.669 208.525 133.481 212.042C119.477 218.172 113.961 226.195 114.372 235.54C113.594 243.942 112.487 247.352 111.308 249.67C103.448 234.951 105.732 219.368 115.476 203.15C131.46 181.634 158.544 191.019 168.051 212.552C172.558 199.342 171.066 188.874 159.631 182.952C183.217 181.402 197.525 161.946 183.325 152.375C175.167 166.438 160.322 174.155 137.862 177.021C154.229 170.373 159.505 162.178 153.279 151.953C150.038 159.551 144.914 166.341 133.268 172.672C128.664 175.175 125.08 179.886 121.33 182.946C128.7 160.951 118.908 149.633 94.8357 147.2C96.3407 153.915 99.7131 157.918 105.98 162.392C113.66 167.876 108.749 182.951 104.007 192.332C94.9507 212.449 96.7201 232.854 104.322 253.415C91.3004 249.866 77.0183 177.105 77.2726 171.028C76.8816 164.574 80.8572 157.131 86.9986 148.278C74.544 152.144 67.5443 160.195 67.0522 173.237C59.1169 165.999 49.7318 139.17 51.3117 138.488C48.1287 145.502 46.3029 152.984 46.3801 160.757C47.3246 170.108 49.5143 175.496 52.0009 178.142L68.1426 192.953C70.8236 196.369 72.6099 200.122 71.4201 205.002C58.4361 193.169 49.4304 192.773 45.4717 206.885C60.0613 208.738 73.3919 225.448 86.0794 243.975C71.8932 243.603 63.6331 245.387 66.3691 253.391C81.4594 252.589 99.2187 261.004 119.515 278.176C104.998 278.53 95.8387 282.08 92.2363 288.945C111.948 288.02 130.487 292.267 147.222 304.468C134.229 305.578 126.038 310.472 123.705 317.203C138.233 314.289 152.374 313.25 165.867 318.684C173.047 321.856 180.349 323.902 187.72 325.301C174.222 329.095 169.02 334.688 170.176 341.657C202.944 328.886 237.599 331.925 245.13 354.395C245.734 356.196 250.742 355.077 250.742 355.077V355.078L250.742 355.077Z" fill="url(#paint15_linear_4156_24066)" stroke="#24211C" stroke-width="0.56786" stroke-miterlimit="1.5" stroke-linecap="round" stroke-linejoin="round"/>
<path d="M5.23633 53.6562C64.1151 100.444 445.379 96.4656 519.53 57.5667" stroke="black" stroke-width="0.181912" stroke-miterlimit="1.5" stroke-linecap="round" stroke-linejoin="round"/>
<path d="M7.89453 60.1094C67.1395 103.971 442.698 100.384 516.46 64.6043" stroke="black" stroke-width="0.181912" stroke-miterlimit="1.5" stroke-linecap="round" stroke-linejoin="round"/>
<path fill-rule="evenodd" clip-rule="evenodd" d="M495.252 31.4674C488.053 24.5956 474.055 21.6275 445.627 18.3512C319.883 4.05763 197.127 6.71376 76.0975 18.7563C53.9933 21.4158 35.8882 24.7682 32.8952 30.7384C31.6792 36.9446 39.5452 41.3387 39.8235 41.5555C72.8013 67.2455 422.494 74.0425 487.603 44.6839C494.659 42.1353 497.273 37.756 495.252 31.4674Z" fill="url(#paint16_linear_4156_24066)"/>
<path d="M495.252 31.4674C488.053 24.5956 474.055 21.6275 445.627 18.3512C319.883 4.05763 197.127 6.71376 76.0975 18.7563C53.9933 21.4158 35.8882 24.7682 32.8952 30.7384C31.6792 36.9446 39.5452 41.3387 39.8235 41.5555C72.8013 67.2455 422.494 74.0425 487.603 44.6839C494.659 42.1353 497.273 37.756 495.252 31.4674ZM495.252 31.4674L495.252 31.4678" stroke="#24211C" stroke-width="0.181912" stroke-miterlimit="1.5" stroke-linecap="round" stroke-linejoin="round"/>
<path fill-rule="evenodd" clip-rule="evenodd" d="M22.2383 113.28C17.988 108.396 18.5498 104.442 23.2138 101.281C39.7384 121.886 171.588 134.264 264.704 131.628C367.025 135.02 505.989 119.536 504.556 103.705C511.758 106.182 511.115 111.206 504.626 117.993C459.308 139.171 349.776 144.673 264.602 143.618C169.372 145.638 50.7164 132.803 22.2388 113.28H22.2383Z" fill="url(#paint17_linear_4156_24066)" stroke="#24211C" stroke-width="0.56786" stroke-miterlimit="1.5" stroke-linecap="round" stroke-linejoin="round"/>
<path fill-rule="evenodd" clip-rule="evenodd" d="M8.59405 61.034L5.15234 53.7656C28.4406 77.4532 130.344 85.9058 263.006 87.9953C368.554 86.4864 465.028 81.0083 519.451 58.1938C519.15 60.4287 517.742 62.3742 516.607 64.6767C468.969 82.2104 384.517 91.3409 262.826 91.9721C155.869 90.4126 52.9182 87.274 8.59317 61.0336H8.59361L8.59405 61.034Z" fill="#8A6522" stroke="#24211C" stroke-width="0.56786" stroke-miterlimit="1.5" stroke-linecap="round" stroke-linejoin="round"/>
<g clip-path="url(#clip0_4156_24066)">
<path d="M261.498 157.069C261.946 156.836 262.412 157.339 262.153 157.766L217.055 231.96C216.878 232.251 216.468 232.282 216.25 232.024C214.284 229.69 209.652 223.569 207.772 215.794C205.901 208.053 206.751 198.656 215.763 189.657C232.409 173.035 253.627 161.172 261.498 157.069Z" fill="#FFFBF6" stroke="#3F3F3F"/>
<path d="M197.563 213.343C197.746 212.849 198.486 212.942 198.524 213.485C198.906 218.96 201.379 224.855 204.295 230.291C207.209 235.724 210.617 240.786 212.88 244.529C217.513 252.193 251.006 303.173 261.074 318.484C261.353 318.909 260.89 319.411 260.458 319.211L260.373 319.162L260.008 318.906L222.695 292.793C199.12 276.294 188.267 246.836 195.74 219.078C196.332 216.879 196.967 214.954 197.563 213.343Z" fill="#FFFBF6" stroke="#3F3F3F"/>
<path d="M311.807 244.317C311.983 244.027 312.394 243.996 312.611 244.254C314.577 246.588 319.21 252.709 321.09 260.484C322.961 268.225 322.111 277.621 313.1 286.62C297.493 302.203 277.869 313.604 268.991 318.349L267.363 319.208C266.916 319.441 266.449 318.939 266.708 318.512L311.807 244.317Z" fill="#FFFBF6" stroke="#3F3F3F"/>
<path d="M267.837 157.783C267.539 157.331 268.085 156.789 268.538 157.106L306.216 183.475C329.791 199.974 340.644 229.432 333.171 257.189C332.727 258.839 332.259 260.334 331.801 261.658L331.348 262.925C331.165 263.419 330.424 263.324 330.387 262.782C330.005 257.308 327.532 251.413 324.616 245.978C321.702 240.544 318.294 235.482 316.031 231.739C311.399 224.078 277.905 173.094 267.837 157.783Z" fill="#FFFBF6" stroke="#3F3F3F"/>
</g>
<defs>
<linearGradient id="paint0_linear_4156_24066" x1="82.5732" y1="574.002" x2="446.129" y2="574.002" gradientUnits="userSpaceOnUse">
<stop stop-color="#B2822A"/>
<stop offset="0.697115" stop-color="#8A6522"/>
</linearGradient>
<linearGradient id="paint1_linear_4156_24066" x1="91.9736" y1="567.424" x2="437.126" y2="567.424" gradientUnits="userSpaceOnUse">
<stop stop-color="#B2822A"/>
<stop offset="0.697115" stop-color="#8A6522"/>
</linearGradient>
<linearGradient id="paint2_linear_4156_24066" x1="121.125" y1="542.89" x2="403.126" y2="542.89" gradientUnits="userSpaceOnUse">
<stop stop-color="#B2822A"/>
<stop offset="0.697115" stop-color="#8A6522"/>
</linearGradient>
<linearGradient id="paint3_linear_4156_24066" x1="127.534" y1="518.259" x2="397.762" y2="518.259" gradientUnits="userSpaceOnUse">
<stop stop-color="#B2822A"/>
<stop offset="0.697115" stop-color="#8A6522"/>
</linearGradient>
<linearGradient id="paint4_linear_4156_24066" x1="214.412" y1="465.198" x2="310.932" y2="465.198" gradientUnits="userSpaceOnUse">
<stop stop-color="#B2822A"/>
<stop offset="0.697115" stop-color="#8A6522"/>
</linearGradient>
<linearGradient id="paint5_linear_4156_24066" x1="204.564" y1="437.177" x2="321.659" y2="437.177" gradientUnits="userSpaceOnUse">
<stop stop-color="#B2822A"/>
<stop offset="0.697115" stop-color="#8A6522"/>
</linearGradient>
<linearGradient id="paint6_linear_4156_24066" x1="212.775" y1="408.391" x2="311.003" y2="408.391" gradientUnits="userSpaceOnUse">
<stop stop-color="#B2822A"/>
<stop offset="0.697115" stop-color="#8A6522"/>
</linearGradient>
<linearGradient id="paint7_linear_4156_24066" x1="204.7" y1="388.51" x2="323.289" y2="388.51" gradientUnits="userSpaceOnUse">
<stop stop-color="#B2822A"/>
<stop offset="0.697115" stop-color="#8A6522"/>
</linearGradient>
<linearGradient id="paint8_linear_4156_24066" x1="358.065" y1="236.907" x2="176.117" y2="236.907" gradientUnits="userSpaceOnUse">
<stop offset="0.211538" stop-color="#C2A78C"/>
<stop offset="0.985577" stop-color="#DEC0A3"/>
</linearGradient>
<linearGradient id="paint9_linear_4156_24066" x1="8.5957" y1="96.4747" x2="516.61" y2="96.4747" gradientUnits="userSpaceOnUse">
<stop stop-color="#6F4E1B"/>
<stop offset="1" stop-color="#573D16"/>
</linearGradient>
<linearGradient id="paint10_linear_4156_24066" x1="204.467" y1="367.387" x2="323.541" y2="367.387" gradientUnits="userSpaceOnUse">
<stop stop-color="#B2822A"/>
<stop offset="0.697115" stop-color="#8A6522"/>
</linearGradient>
<linearGradient id="paint11_linear_4156_24066" x1="311.828" y1="518.567" x2="214.633" y2="518.567" gradientUnits="userSpaceOnUse">
<stop offset="0.211538" stop-color="#C2A78C"/>
<stop offset="0.985577" stop-color="#DEC0A3"/>
</linearGradient>
<linearGradient id="paint12_linear_4156_24066" x1="151.059" y1="514.905" x2="258.381" y2="514.905" gradientUnits="userSpaceOnUse">
<stop offset="0.384615" stop-color="#976C1D"/>
<stop offset="1" stop-color="#986E22"/>
</linearGradient>
<linearGradient id="paint13_linear_4156_24066" x1="264.319" y1="515.01" x2="374.424" y2="515.01" gradientUnits="userSpaceOnUse">
<stop stop-color="#856020"/>
<stop offset="1" stop-color="#8A6522"/>
</linearGradient>
<linearGradient id="paint14_linear_4156_24066" x1="270.031" y1="247.612" x2="479.53" y2="247.612" gradientUnits="userSpaceOnUse">
<stop stop-color="#976E25"/>
<stop offset="1" stop-color="#8A6522"/>
</linearGradient>
<linearGradient id="paint15_linear_4156_24066" x1="45.4717" y1="246.955" x2="250.742" y2="246.955" gradientUnits="userSpaceOnUse">
<stop offset="0.384615" stop-color="#A67723"/>
<stop offset="1" stop-color="#72531B"/>
</linearGradient>
<linearGradient id="paint16_linear_4156_24066" x1="32.7676" y1="36.2868" x2="495.915" y2="36.2868" gradientUnits="userSpaceOnUse">
<stop stop-color="#66501E"/>
<stop offset="1" stop-color="#AB832B"/>
</linearGradient>
<linearGradient id="paint17_linear_4156_24066" x1="19.3584" y1="122.554" x2="509.727" y2="122.554" gradientUnits="userSpaceOnUse">
<stop stop-color="#B2822A"/>
<stop offset="0.697115" stop-color="#8A6522"/>
</linearGradient>
<clipPath id="clip0_4156_24066">
<rect width="143.409" height="163.971" fill="white" transform="translate(192.751 156.035)"/>
</clipPath>
</defs>
</svg>
