<svg width="297" height="349" viewBox="0 0 297 349" fill="none" xmlns="http://www.w3.org/2000/svg">
<path fill-rule="evenodd" clip-rule="evenodd" d="M59.1578 305.816C36.6046 318.287 47.3358 327.9 67.933 336.666C86.2844 343.733 115.194 348.277 147.926 348.286C178.888 347.632 211.603 344.148 235.573 334.755C251.78 326.912 257.361 318.019 242.036 308.572L59.1578 305.816Z" fill="url(#paint0_linear_3913_21576)"/>
<path d="M59.1578 305.816C36.6046 318.287 47.3358 327.9 67.933 336.666C86.2844 343.733 115.194 348.277 147.926 348.286C178.888 347.632 211.603 344.148 235.573 334.755C251.78 326.912 257.361 318.019 242.036 308.572L59.1578 305.816ZM59.1578 305.816H59.1576" stroke="#24211C" stroke-width="0.56786" stroke-miterlimit="1.5" stroke-linecap="round" stroke-linejoin="round"/>
<path fill-rule="evenodd" clip-rule="evenodd" d="M61.4201 304.5C47.382 312.099 48.8784 320.431 65.3709 329.471C85.1508 337.925 113.909 341.634 148.792 342.106C176.909 341.429 203.801 338.744 227.544 330.904C248.523 321.809 250.658 312.88 238.733 306.453L61.4199 304.5H61.4201Z" fill="url(#paint1_linear_3913_21576)" stroke="#24211C" stroke-width="0.56786" stroke-miterlimit="1.5" stroke-linecap="round" stroke-linejoin="round"/>
<path fill-rule="evenodd" clip-rule="evenodd" d="M79.6179 297.908C45.8962 305.491 45.7252 322.085 76.4161 330.979C99.4588 337.879 123.502 339.595 147.871 339.622C177.357 340.129 204.89 337.086 229.177 327.848C253.038 315.043 247.341 304.25 209.033 295.926L79.6179 297.908Z" fill="#573D16" stroke="#24211C" stroke-width="0.56786" stroke-miterlimit="1.5" stroke-linecap="round" stroke-linejoin="round"/>
<path fill-rule="evenodd" clip-rule="evenodd" d="M97.6453 293.246C57.7979 301.038 60.1341 311.859 94.5797 320.427C128.831 328.412 178.911 325.731 201.719 319.941C237.194 311.18 232.783 301.511 203.167 294.392L97.6456 293.246L97.6453 293.246Z" fill="url(#paint2_linear_3913_21576)" stroke="#24211C" stroke-width="0.56786" stroke-miterlimit="1.5" stroke-linecap="round" stroke-linejoin="round"/>
<path fill-rule="evenodd" clip-rule="evenodd" d="M123.693 267.988C122.649 285.726 113.338 290.454 97.7223 293.243C69.2203 299.777 63.5527 306.807 84.3201 314.404C101.167 320.082 123.557 322.535 149.519 322.614C173.952 321.914 194.059 318.752 211.456 314.517C230.157 308.687 227.92 299.638 203.183 294.387C183.424 291.075 171.896 282.785 172.102 268.148L123.693 267.988Z" fill="url(#paint3_linear_3913_21576)" stroke="#24211C" stroke-width="0.56786" stroke-miterlimit="1.5" stroke-linecap="round" stroke-linejoin="round"/>
<path fill-rule="evenodd" clip-rule="evenodd" d="M121.589 260.352C119.947 264.056 120.63 266.61 123.694 267.989C138.537 271.288 154.626 271.461 172.102 268.149C175.343 266.835 175.572 263.69 174.261 259.609C159.064 261.505 141.745 261.919 121.589 260.352H121.589Z" fill="url(#paint4_linear_3913_21576)" stroke="#24211C" stroke-width="0.56786" stroke-miterlimit="1.5" stroke-linecap="round" stroke-linejoin="round"/>
<path fill-rule="evenodd" clip-rule="evenodd" d="M120.288 233.887C113.046 243.059 113.535 251.878 121.588 260.351C139.396 266.331 156.861 266.894 174.26 259.609C183.259 251.387 183.052 242.477 175.133 233.285C156.517 239.777 138.259 239.529 120.288 233.887Z" fill="url(#paint5_linear_3913_21576)" stroke="#24211C" stroke-width="0.56786" stroke-miterlimit="1.5" stroke-linecap="round" stroke-linejoin="round"/>
<path fill-rule="evenodd" clip-rule="evenodd" d="M125.629 228.165C119.929 228.798 119.393 231.133 119.992 233.841C136.594 239.607 154.878 239.586 174.932 233.474C175.522 229.989 173.922 227.784 169.308 227.336C158.895 234.207 138.063 234.411 125.63 228.165V228.165L125.629 228.165Z" fill="url(#paint6_linear_3913_21576)" stroke="#24211C" stroke-width="0.56786" stroke-miterlimit="1.5" stroke-linecap="round" stroke-linejoin="round"/>
<path fill-rule="evenodd" clip-rule="evenodd" d="M115.259 210.101C138.082 218.801 160.656 218.834 181.959 209.781C173.725 213.023 168.652 217.47 169.308 227.337C161.947 234.482 135.047 235.049 125.629 228.167C127.435 218.174 123.317 212.772 115.259 210.101Z" fill="url(#paint7_linear_3913_21576)" stroke="#24211C" stroke-width="0.56786" stroke-miterlimit="1.5" stroke-linecap="round" stroke-linejoin="round"/>
<path fill-rule="evenodd" clip-rule="evenodd" d="M3.02318 30.7464C0.164023 25.8387 -0.627275 21.3753 1.4653 17.2891C0.899905 36.8524 73.8975 39.798 148.226 42.6084C231.569 40.9319 297.634 37.0476 295.753 17.8459C297.264 19.4529 297.511 26.396 292.294 33.2688C259.045 46.3225 206.82 49.913 148.055 50.2425C82.1797 48.5694 20.2817 45.8016 3.02368 30.7467L3.02318 30.7464Z" fill="#8A6522" stroke="#24211C" stroke-width="0.56786" stroke-miterlimit="1.5" stroke-linecap="round" stroke-linejoin="round"/>
<path fill-rule="evenodd" clip-rule="evenodd" d="M12.593 64.5977C35.116 76.7192 83.1239 81.7854 148.952 81.919C198.247 82.0614 246.265 80.7144 283.955 67.3238C280.857 81.9858 277.728 99.9318 277.348 103.131C271.138 155.319 244.508 185.704 192.355 199.152C165.236 207.666 134.71 207.596 100.923 199.305C62.4255 187.622 27.6911 163.716 19.8315 114.082C17.6543 100.332 15.6139 84.0533 12.5928 64.5979L12.593 64.5977Z" fill="url(#paint8_linear_3913_21576)" stroke="#24211C" stroke-width="0.56786" stroke-miterlimit="1.5" stroke-linecap="round" stroke-linejoin="round"/>
<path fill-rule="evenodd" clip-rule="evenodd" d="M13.1815 57.8074C10.866 49.8675 8.08224 42.6801 4.95898 34.8867C25.5155 47.2174 61.1963 48.6927 103.052 51.6965C134.227 52.8535 165.255 52.769 196.142 51.477C233.904 48.8859 269.436 45.492 290.694 36.9614C288.097 44.3341 285.848 51.7435 283.916 59.1873C283.241 68.6061 210.172 76.5084 149.009 75.0912C77.2779 75.9964 23.5834 68.1483 13.182 57.8069L13.1815 57.8074Z" fill="url(#paint9_linear_3913_21576)" stroke="#24211C" stroke-width="0.56786" stroke-miterlimit="1.5" stroke-linecap="round" stroke-linejoin="round"/>
<path fill-rule="evenodd" clip-rule="evenodd" d="M19.9553 47.2698C21.4548 46.6651 21.6752 47.1941 21.0786 48.4479C20.4611 48.8952 20.1096 49.371 20.9361 49.973C22.0514 50.8506 23.1447 51.8195 24.161 53.1057C26.0116 53.7131 26.0501 54.1072 25.0117 54.3745C24.4058 54.6948 23.5197 54.6485 21.8512 53.5773L18.6798 50.5647C17.8778 49.9028 17.9596 49.0177 18.7394 47.9559C18.9084 47.7567 19.2941 47.5306 19.9553 47.2698Z" fill="#AB8035"/>
<path d="M19.9553 47.2698C21.4548 46.6651 21.6752 47.1941 21.0786 48.4479C20.4611 48.8952 20.1096 49.371 20.9361 49.973C22.0514 50.8506 23.1447 51.8195 24.161 53.1057C26.0116 53.7131 26.0501 54.1072 25.0117 54.3745C24.4058 54.6948 23.5197 54.6485 21.8512 53.5773L18.6798 50.5647C17.8778 49.9028 17.9596 49.0177 18.7394 47.9559C18.9084 47.7567 19.2941 47.5306 19.9553 47.2698ZM19.9553 47.2698V47.2701" stroke="#AB8035" stroke-width="0.181912" stroke-miterlimit="1.5" stroke-linecap="round" stroke-linejoin="round"/>
<path fill-rule="evenodd" clip-rule="evenodd" d="M28.9959 54.803C27.753 56.8734 26.9208 57.1014 26.7159 54.5186C26.7937 51.6236 25.7311 50.0152 23.7029 49.4962C23.7726 49.0601 23.629 48.8781 23.2204 49.0122C22.8028 49.2913 22.5028 49.1115 22.4401 48.0015C22.3872 46.7465 22.7918 45.9294 23.8262 45.7149C24.6048 45.4605 25.1385 45.5101 24.9852 46.4122C24.7701 47.0561 25.0654 47.3246 26.3349 46.8777C27.5651 46.1994 28.2296 46.2938 28.4075 47.0607C29.0556 49.0739 29.5006 54.2837 28.9959 54.8033V54.803Z" fill="#AB8035" stroke="#AB8035" stroke-width="0.181912" stroke-miterlimit="1.5" stroke-linecap="round" stroke-linejoin="round"/>
<path fill-rule="evenodd" clip-rule="evenodd" d="M22.543 56.9698C24.9554 57.3153 25.5979 56.8878 23.4858 55.2571C21.7722 54.9005 20.1057 53.811 18.4944 51.8627C17.7393 50.6672 17.443 51.7341 17.7892 52.4476C19.0885 54.1325 20.4247 55.7947 22.5433 56.9701L22.543 56.9698Z" fill="#AB8035" stroke="#AB8035" stroke-width="0.181912" stroke-miterlimit="1.5" stroke-linecap="round" stroke-linejoin="round"/>
<path d="M242.375 67.7677C247.398 67.7677 251.47 63.6792 251.47 58.6358C251.47 53.5924 247.398 49.5039 242.375 49.5039C237.352 49.5039 233.28 53.5924 233.28 58.6358C233.28 63.6792 237.352 67.7677 242.375 67.7677Z" fill="#AB8035" stroke="#AB8035" stroke-width="0.181912" stroke-miterlimit="1.5" stroke-linecap="round" stroke-linejoin="round"/>
<path fill-rule="evenodd" clip-rule="evenodd" d="M252.932 61.6954C253.051 60.4547 252.717 60.3007 251.928 61.2386L249.107 65.305C248.666 66.573 248.829 66.9224 249.827 66.0007C250.127 65.6018 250.47 65.3793 250.838 65.2546C251.882 65.0576 252.303 65.158 251.552 65.8187C249.427 67.0294 250.35 67.1725 252.489 66.8892C255.717 66.461 258.927 65.9242 262.034 64.7801C262.615 64.2291 262.726 63.7343 261.555 63.3929C259.204 62.8122 257.927 61.9217 258.594 60.4709C259.154 59.7575 257.473 57.1058 255.776 54.4394C255.633 53.8209 255.797 53.6599 256.385 54.1327C259.027 58.0788 261.834 61.8934 266.569 64.1846C268.059 64.5254 269.536 64.5501 270.983 63.7466C271.735 63.1891 272.025 62.7366 270.63 62.6674C268.186 63.7839 265.312 62.4948 261.931 58.3775C258.064 53.5347 254.297 49.6008 250.853 48.5898C248.357 48.362 248.017 48.9256 248.509 49.7942C252.859 52.9821 254.73 56.1798 254.654 59.3854C254.64 62.5686 254.107 64.2286 252.85 63.7653C252.531 63.3893 252.345 62.8928 252.932 61.6959L252.932 61.6956H252.932L252.932 61.6954Z" fill="#AB8035" stroke="#AB8035" stroke-width="0.181912" stroke-miterlimit="1.5" stroke-linecap="round" stroke-linejoin="round"/>
<path fill-rule="evenodd" clip-rule="evenodd" d="M259.349 50.5712C258.462 49.8302 258.647 49.4019 259.936 49.2971C260.664 49.4612 261.064 49.3131 261.318 49.0248C262.75 48.398 262.685 49.0243 262.326 49.897C261.394 50.8821 261.698 51.8044 262.653 52.6939C263.478 52.9316 264.578 54.8177 265.694 56.7954C266.444 57.8449 266.711 57.6541 266.467 56.1536C265.83 51.3043 268.103 47.4582 272.383 44.3047C275.471 42.8328 278.833 42.0758 282.525 42.1837C283.887 42.5566 284.715 42.6389 284.805 42.32C287.958 40.4141 288.077 41.3442 286.35 44.0014C284.858 45.5522 284.599 46.3112 284.789 47.0372C285.25 53.8191 282.754 56.4102 280.308 59.0735C275.004 62.8242 270.761 62.7019 267.465 59.1294L263.271 56.7625L261.007 52.9575L259.823 52.1061C257.884 51.8536 257.72 51.3428 259.349 50.5708L259.349 50.5712Z" fill="#AB8035" stroke="#AB8035" stroke-width="0.181912" stroke-miterlimit="1.5" stroke-linecap="round" stroke-linejoin="round"/>
<path fill-rule="evenodd" clip-rule="evenodd" d="M278.684 43.9674C282.326 43.2825 282.866 43.6212 282.472 46.4046C280.865 52.5157 278.319 56.4005 275.285 59.1342C272.942 60.4986 270.851 60.1168 269.054 57.6746C267.845 55.6766 268.074 53.6208 269.066 51.5345C270.951 48.0319 273.544 45.0251 278.684 43.9677" fill="#593E17"/>
<path d="M278.684 43.9674C282.326 43.2825 282.866 43.6212 282.472 46.4046C280.865 52.5157 278.319 56.4005 275.285 59.1342C272.942 60.4986 270.851 60.1168 269.054 57.6746C267.845 55.6766 268.074 53.6208 269.066 51.5345C270.951 48.0319 273.544 45.0251 278.684 43.9677" stroke="#AB8035" stroke-width="0.181912" stroke-miterlimit="1.5" stroke-linecap="round" stroke-linejoin="round"/>
<path fill-rule="evenodd" clip-rule="evenodd" d="M277.405 46.0826C280.241 44.3584 281.308 45.4301 280.927 48.7882C279.846 52.0179 278.022 54.5989 275.354 56.4421C272.057 58.3377 270.816 57.3294 271.043 54.2461C270.885 53.2601 273.077 50.4852 277.405 46.0823V46.0826Z" fill="#AB8035" stroke="#AB8035" stroke-width="0.181912" stroke-miterlimit="1.5" stroke-linecap="round" stroke-linejoin="round"/>
<path fill-rule="evenodd" clip-rule="evenodd" d="M229.821 67.7986C228.544 68.3889 228.905 69.0093 230.667 69.6557C232.629 70.0232 234.596 69.9152 236.575 68.8963C237.517 68.331 237.29 67.8587 235.906 67.4784C234.13 67.7899 233.481 66.9046 233.131 65.7009C232.715 64.6374 230.658 65.1175 230.467 66.341C230.929 67.2416 230.775 67.7652 229.82 67.7989L229.821 67.7986Z" fill="#AB8035" stroke="#AB8035" stroke-width="0.181912" stroke-miterlimit="1.5" stroke-linecap="round" stroke-linejoin="round"/>
<path fill-rule="evenodd" clip-rule="evenodd" d="M221.168 53.5787C222.259 52.737 222.866 52.7549 222.606 54.3127C221.665 55.6718 220.639 56.8031 219.389 58.2973C218.87 59.1771 217.949 59.3238 217.3 58.9979C216.917 58.7444 216.583 58.7684 216.307 59.1262C216.07 59.7862 215.654 60.0842 215.155 60.213C214.473 60.2544 214.197 59.8927 214.362 59.0923C214.555 58.285 216.698 57.1866 217.376 57.6417C217.646 57.7913 217.946 57.7279 218.296 57.3214L221.168 53.579L221.167 53.5787H221.168Z" fill="#AB8035" stroke="#AB8035" stroke-width="0.181912" stroke-miterlimit="1.5" stroke-linecap="round" stroke-linejoin="round"/>
<path fill-rule="evenodd" clip-rule="evenodd" d="M212.552 67.5362C212.176 68.438 212.276 68.9108 213.561 68.317C214.831 67.5304 215.569 66.5478 216.159 65.5109C216.072 64.9275 216.193 64.7643 216.373 64.721C218.161 63.9075 218.738 63.3534 218.926 62.8828C219.038 61.4067 218.437 60.8226 216.799 61.5404C215.977 61.9541 215.252 63.7594 214.543 65.7971C214.48 66.2328 213.616 66.8608 212.552 67.5365L212.552 67.5362Z" fill="#AB8035" stroke="#AB8035" stroke-width="0.181912" stroke-miterlimit="1.5" stroke-linecap="round" stroke-linejoin="round"/>
<path fill-rule="evenodd" clip-rule="evenodd" d="M219.591 59.9065C219.14 61.7723 219.886 61.4888 220.92 60.689C222.256 59.6119 223.889 57.6863 225.643 55.4196C225.892 54.9553 226.767 53.9111 228.015 52.5225C228.262 51.7863 228.295 51.2477 226.969 51.9579C223.616 55.2487 220.045 58.6953 219.591 59.9065Z" fill="#AB8035" stroke="#AB8035" stroke-width="0.181912" stroke-miterlimit="1.5" stroke-linecap="round" stroke-linejoin="round"/>
<path fill-rule="evenodd" clip-rule="evenodd" d="M225.204 57.0862C227.22 55.8363 227.215 56.6606 226.476 57.8982C226.126 58.4032 224.795 59.7129 223.008 61.644C222.302 63.006 222.397 63.7812 223.124 64.095C224.599 65.8007 223.29 66.258 222.367 66.6468C221.154 66.9151 220.503 67.4482 220.356 68.2178C220.662 70.4324 219.855 70.4571 218.81 70.0129C216.512 69.0019 217.246 67.7849 218.924 66.504C220.794 65.8826 221.326 64.4506 220.66 62.2938C219.868 61.7288 223.029 59.1573 225.203 57.0864L225.204 57.0862Z" fill="#AB8035" stroke="#AB8035" stroke-width="0.181912" stroke-miterlimit="1.5" stroke-linecap="round" stroke-linejoin="round"/>
<path fill-rule="evenodd" clip-rule="evenodd" d="M232.838 52.3258C235.964 51.172 236.406 51.668 234.789 53.4309C232.158 55.5066 230.503 57.7435 230.42 60.2402C230.484 62.2876 230.285 63.8926 228.978 63.6394C228.218 63.6287 228.168 64.0091 228.714 64.7177C229.434 65.2382 229.526 66.5384 228.216 68.1726C226.798 69.3547 223.076 70.2492 223.676 68.0936C225.449 66.154 226.25 64.4686 225.316 63.2382C225.103 62.7584 224.63 62.3769 227.101 60.8784C228.273 57.7682 229.513 54.6818 232.838 52.3258" fill="#AB8035"/>
<path d="M232.838 52.3258C235.964 51.172 236.406 51.668 234.789 53.4309C232.158 55.5066 230.503 57.7435 230.42 60.2402C230.484 62.2876 230.285 63.8926 228.978 63.6394C228.218 63.6287 228.168 64.0091 228.714 64.7177C229.434 65.2382 229.526 66.5384 228.216 68.1726C226.798 69.3547 223.076 70.2492 223.676 68.0936C225.449 66.154 226.25 64.4686 225.316 63.2382C225.103 62.7584 224.63 62.3769 227.101 60.8784C228.273 57.7682 229.513 54.6818 232.838 52.3258" stroke="#AB8035" stroke-width="0.181912" stroke-miterlimit="1.5" stroke-linecap="round" stroke-linejoin="round"/>
<path d="M202.701 71.4123C208.691 71.4123 213.546 66.9373 213.546 61.4171C213.546 55.8969 208.691 51.4219 202.701 51.4219C196.712 51.4219 191.856 55.8969 191.856 61.4171C191.856 66.9373 196.712 71.4123 202.701 71.4123Z" fill="#AB8035" stroke="#AB8035" stroke-width="0.181912" stroke-miterlimit="1.5" stroke-linecap="round" stroke-linejoin="round"/>
<path fill-rule="evenodd" clip-rule="evenodd" d="M211.913 52.1117C211.718 51.4593 211.965 51.0978 212.964 51.2303C215.591 51.6399 217.5 52.0369 218.426 52.4177C219.499 52.6966 219.574 53.1987 218.811 53.8884C218.046 54.5559 217.451 54.867 216.878 55.1323C216.267 55.6094 215.771 55.5102 215.352 55.026L211.914 52.1115" fill="#AB8035"/>
<path d="M211.913 52.1117C211.718 51.4593 211.965 51.0978 212.964 51.2303C215.591 51.6399 217.5 52.0369 218.426 52.4177C219.499 52.6966 219.574 53.1987 218.811 53.8884C218.046 54.5559 217.451 54.867 216.878 55.1323C216.267 55.6094 215.771 55.5102 215.352 55.026L211.914 52.1115" stroke="#AB8035" stroke-width="0.181912" stroke-miterlimit="1.5" stroke-linecap="round" stroke-linejoin="round"/>
<path fill-rule="evenodd" clip-rule="evenodd" d="M159.297 54.5268C158.378 53.2635 159.222 53.081 160.393 53.8789C165.091 57.6386 166.111 60.5926 165.856 63.4747C165.431 67.7679 163.517 70.9405 160.336 73.1598C158.552 74.0504 157.044 73.5382 158.529 71.7082C163.286 66.1096 164.044 59.1822 159.297 54.5268Z" fill="#AB8035" stroke="#AB8035" stroke-width="0.181912" stroke-miterlimit="1.5" stroke-linecap="round" stroke-linejoin="round"/>
<path fill-rule="evenodd" clip-rule="evenodd" d="M127.911 52.9098C121.455 58.5028 115.748 64.381 111.415 70.7809C109.249 75.3475 116.739 70.8841 117.632 67.9925C118.316 66.4417 119.514 65.2588 121.07 64.3311C125.714 61.551 129.915 58.582 133.79 55.4738C135.581 53.5736 135.588 52.2786 132.193 53.8634L124.81 58.5403L129.115 53.6547C129.419 52.733 128.939 52.5604 127.911 52.91V52.9098Z" fill="#AB8035" stroke="#AB8035" stroke-width="0.181912" stroke-miterlimit="1.5" stroke-linecap="round" stroke-linejoin="round"/>
<path fill-rule="evenodd" clip-rule="evenodd" d="M135.725 54.7927C139.951 53.0612 141.549 53.8403 138.483 55.4507C135.049 57.2978 133.064 59.7122 133.792 63.1891C134.539 65.337 135.676 67.4112 137.456 69.3641C139.295 72.3891 139.136 73.4112 137.07 72.5237C135.578 71.5805 133.435 71.3597 130.038 72.5295C124.725 73.3657 123.719 72.8328 127.408 70.808C129.351 69.627 130.506 68.0903 130.01 65.8071C129.224 61.1945 131.162 57.5341 135.725 54.7927Z" fill="#AB8035"/>
<path d="M135.725 54.7927C139.951 53.0612 141.549 53.8403 138.483 55.4507C135.049 57.2978 133.064 59.7122 133.792 63.1891C134.539 65.337 135.676 67.4112 137.456 69.3641C139.295 72.3891 139.136 73.4112 137.07 72.5237C135.578 71.5805 133.435 71.3597 130.038 72.5295C124.725 73.3657 123.719 72.8328 127.408 70.808C129.351 69.627 130.506 68.0903 130.01 65.8071C129.224 61.1945 131.162 57.5341 135.725 54.7927ZM135.725 54.7927V54.7924" stroke="#AB8035" stroke-width="0.181912" stroke-miterlimit="1.5" stroke-linecap="round" stroke-linejoin="round"/>
<path fill-rule="evenodd" clip-rule="evenodd" d="M122.374 64.7287C124.14 64.0809 127.279 65.7469 126.38 66.463C125.64 67.1043 125.477 67.9422 125.945 68.9958C126.206 69.5318 125.986 69.7426 125.489 69.7654C124.539 69.7124 124.304 70.0716 124.435 70.6422C124.299 71.2935 123.678 71.1288 122.782 70.5009C121.894 69.8477 121.413 69.1502 121.053 68.4399C120.864 67.7091 121.157 67.4282 121.756 67.4345C122.647 67.4527 122.862 67.1026 122.546 66.4645C122.082 65.553 122.026 64.9759 122.374 64.7284L122.374 64.7287Z" fill="#AB8035" stroke="#AB8035" stroke-width="0.181912" stroke-miterlimit="1.5" stroke-linecap="round" stroke-linejoin="round"/>
<path fill-rule="evenodd" clip-rule="evenodd" d="M117.632 71.3853C117.869 70.5307 118.478 70.1024 119.566 70.2232C120.05 70.8144 120.317 71.4041 119.811 71.9886C118.974 72.5996 118.244 72.4292 117.632 71.3853" fill="#AB8035"/>
<path d="M117.632 71.3853C117.869 70.5307 118.478 70.1024 119.566 70.2232C120.05 70.8144 120.317 71.4041 119.811 71.9886C118.974 72.5996 118.244 72.4292 117.632 71.3853" stroke="#AB8035" stroke-width="0.181912" stroke-miterlimit="1.5" stroke-linecap="round" stroke-linejoin="round"/>
<path fill-rule="evenodd" clip-rule="evenodd" d="M143.195 53.331C145.014 52.6832 145.508 52.9725 144.203 54.5342C137.546 58.7391 137.398 65.7701 144.085 70.3054C147.765 72.2427 151.265 71.9708 153.649 69.7535C160.556 63.3632 158.938 58.4001 153.144 54.1359C152.37 53.3499 152.758 53.0553 154.202 53.207C160.812 55.6132 162.328 62.4891 158.595 68.4186C152.462 76.5555 142.588 73.9114 138.512 68.2864C134.528 61.5447 136.584 56.9069 143.195 53.331Z" fill="#AB8035" stroke="#AB8035" stroke-width="0.181912" stroke-miterlimit="1.5" stroke-linecap="round" stroke-linejoin="round"/>
<path fill-rule="evenodd" clip-rule="evenodd" d="M101.028 71.4869C105.975 67.0545 111.007 62.7114 116.514 58.8679L122.254 53.2909C123.721 52.3651 124.95 52.6072 123.975 54.0447L116.509 61.6399C114.767 64.7183 112.662 67.8001 109.13 70.0559C108.909 70.1973 99.2825 74.3748 101.028 71.4869Z" fill="#AB8035" stroke="#AB8035" stroke-width="0.181912" stroke-miterlimit="1.5" stroke-linecap="round" stroke-linejoin="round"/>
<path fill-rule="evenodd" clip-rule="evenodd" d="M107.652 62.088C106.656 61.0059 106.294 59.8903 108.31 58.6491C106.737 58.1594 105.944 57.3176 106.345 55.843C107.361 54.0586 108.55 53.0166 110.085 52.861C111.983 52.7486 112.658 53.6628 111.034 54.5263C107.869 55.5116 107.364 56.4396 109.034 57.321C112.573 54.4549 115.407 52.7617 116.932 53.2471C118.025 53.8601 118.383 54.4544 116.92 55.3279C112.666 57.1416 109.476 58.9166 109.642 61.2557C109.5 62.5323 108.269 62.5073 107.652 62.0875L107.652 62.0878V62.088Z" fill="#AB8035" stroke="#AB8035" stroke-width="0.181912" stroke-miterlimit="1.5" stroke-linecap="round" stroke-linejoin="round"/>
<path fill-rule="evenodd" clip-rule="evenodd" d="M79.9445 66.2749C75.485 62.0262 71.6918 57.6434 68.5344 53.1323C68.2593 52.4677 68.5336 52.0746 69.916 52.2283C73.8241 50.5896 77.2776 50.6455 80.1352 52.9253C82.411 51.2624 84.4105 52.6922 83.0518 54.7395C79.7386 58.009 79.2321 60.8572 80.3207 63.4657C81.1664 65.6508 81.1272 66.6981 79.9443 66.2749H79.9445Z" fill="#AB8035" stroke="#AB8035" stroke-width="0.181912" stroke-miterlimit="1.5" stroke-linecap="round" stroke-linejoin="round"/>
<path fill-rule="evenodd" clip-rule="evenodd" d="M71.3164 53.9717C74.046 55.8448 76.3715 58.0079 77.9923 60.6772C77.7524 58.5131 78.6038 56.6907 80.6907 55.2548C77.3667 52.0006 74.22 51.2606 71.3164 53.9717Z" fill="#6A4A1A" stroke="#AB8035" stroke-width="0.181912" stroke-miterlimit="1.5" stroke-linecap="round" stroke-linejoin="round"/>
<path d="M93.1987 72.0369C100.035 72.0369 105.576 67.4877 105.576 61.8759C105.576 56.2641 100.035 51.7148 93.1987 51.7148C86.3629 51.7148 80.8213 56.2641 80.8213 61.8759C80.8213 67.4877 86.3629 72.0369 93.1987 72.0369Z" fill="#AB8035" stroke="#AB8035" stroke-width="0.181912" stroke-miterlimit="1.5" stroke-linecap="round" stroke-linejoin="round"/>
<path fill-rule="evenodd" clip-rule="evenodd" d="M9.43945 40.1604L20.9367 44.1433C21.2433 44.4144 20.8331 46.0798 20.076 46.6342C19.7376 46.8818 17.2236 46.1342 17.1265 46.4376C12.7157 60.23 27.9396 63.4096 35.578 48.6953C34.5733 47.7509 32.9692 47.6822 29.8287 47.9732C29.3028 47.3694 29.1328 46.6501 29.8644 45.6382C33.4108 45.5273 36.9569 45.9485 40.5033 46.8065C37.2949 53.6749 33.1946 59.1953 27.2511 61.9307C23.1783 62.9385 19.3511 61.7476 15.8352 57.7674C13.0724 52.7024 10.9427 46.8307 9.43995 40.1602L9.4397 40.1604H9.43945Z" fill="#AB8035" stroke="#AB8035" stroke-width="0.181912" stroke-miterlimit="1.5" stroke-linecap="round" stroke-linejoin="round"/>
<path fill-rule="evenodd" clip-rule="evenodd" d="M41.4184 47.3281C43.9707 47.3635 46.3501 47.7479 48.5558 48.4817C46.1237 49.6464 38.2934 57.3308 38.2934 57.3308C36.3526 59.6278 36.8348 61.6493 38.2085 63.5695C33.1257 63.1766 31.0102 61.3009 36.5368 55.6064L40.6393 51.7751C38.535 51.5366 39.0687 49.91 41.4184 47.3281Z" fill="#AB8035" stroke="#AB8035" stroke-width="0.181912" stroke-miterlimit="1.5" stroke-linecap="round" stroke-linejoin="round"/>
<path fill-rule="evenodd" clip-rule="evenodd" d="M43.1148 53.6133C40.0273 58.9158 40.0647 62.4951 42.2626 65.3133C42.805 66.2737 42.5354 66.7029 41.2516 66.2197C37.6975 63.5797 36.872 59.9461 42.0242 54.136C42.4421 53.8176 42.802 53.6532 43.1146 53.6133H43.1148Z" fill="#AB8035" stroke="#AB8035" stroke-width="0.181912" stroke-miterlimit="1.5" stroke-linecap="round" stroke-linejoin="round"/>
<path d="M51.0849 68.2909C55.7394 68.2909 59.5126 64.0154 59.5126 58.7412C59.5126 53.467 55.7394 49.1914 51.0849 49.1914C46.4304 49.1914 42.6572 53.467 42.6572 58.7412C42.6572 64.0154 46.4304 68.2909 51.0849 68.2909Z" fill="#AB8035" stroke="#AB8035" stroke-width="0.181912" stroke-miterlimit="1.5" stroke-linecap="round" stroke-linejoin="round"/>
<path fill-rule="evenodd" clip-rule="evenodd" d="M56.7932 49.4456L62.3535 49.9583C63.9424 50.3362 65.1985 51.0359 65.9254 52.2463C69.9904 58.6513 74.9007 64.1066 80.2918 69.022C82.7473 71.4071 82.2413 71.9157 78.5829 70.4264C75.0672 68.6957 71.1647 65.2834 69.1322 62.0009L63.2889 53.3972C62.3333 51.9401 60.6384 51.1966 58.2196 51.1523C57.0012 50.7003 56.5376 50.1297 56.7937 49.4453L56.7932 49.4456Z" fill="#AB8035" stroke="#AB8035" stroke-width="0.181912" stroke-miterlimit="1.5" stroke-linecap="round" stroke-linejoin="round"/>
<path fill-rule="evenodd" clip-rule="evenodd" d="M61.2226 52.944C63.3022 54.4428 66.7692 60.0075 70.4322 66.1462C71.2344 68.7477 69.8817 69.4306 67.5865 67.6445C66.0987 66.0491 64.9343 65.9994 64.0848 67.4566C63.1794 69.5952 62.473 69.2786 61.8612 67.7926C61.6353 66.527 62.3222 64.9299 63.9687 62.984C63.1357 59.6988 62.1061 56.4841 60.156 53.5991C59.9359 52.6142 60.2688 52.3659 61.2226 52.944Z" fill="#AB8035" stroke="#AB8035" stroke-width="0.181912" stroke-miterlimit="1.5" stroke-linecap="round" stroke-linejoin="round"/>
<path fill-rule="evenodd" clip-rule="evenodd" d="M60.7916 60.0719C61.016 59.0473 61.4676 58.9352 62.2469 60.1375C62.6161 62.7605 62.2084 65.1119 60.1074 66.969C59.4167 67.6682 58.6164 68.2778 57.733 68.82C56.3808 69.4139 55.756 68.9951 56.9936 67.6793C59.9194 65.7363 61.2362 63.2188 60.7916 60.0719Z" fill="#AB8035"/>
<path d="M60.7916 60.0719C61.016 59.0473 61.4676 58.9352 62.2469 60.1375C62.6161 62.7605 62.2084 65.1119 60.1074 66.969C59.4167 67.6682 58.6164 68.2778 57.733 68.82C56.3808 69.4139 55.756 68.9951 56.9936 67.6793C59.9194 65.7363 61.2362 63.2188 60.7916 60.0719ZM60.7916 60.0719V60.0716" stroke="#AB8035" stroke-width="0.181912" stroke-miterlimit="1.5" stroke-linecap="round" stroke-linejoin="round"/>
<path fill-rule="evenodd" clip-rule="evenodd" d="M164.975 57.9389C163.507 56.3861 164.568 56.4108 165.967 56.9368C168.375 58.3044 170.524 60.1496 172.441 62.4221C174.731 65.1052 174.388 67.4555 172.576 69.6195C171.532 70.6123 170.624 70.5317 171.176 69.2978C171.702 67.5232 171.584 65.6809 171.033 63.7989C170.572 62.5902 168.055 60.399 164.975 57.9389Z" fill="#AB8035"/>
<path d="M164.975 57.9389C163.507 56.3861 164.568 56.4108 165.967 56.9368C168.375 58.3044 170.524 60.1496 172.441 62.4221C174.731 65.1052 174.388 67.4555 172.576 69.6195C171.532 70.6123 170.624 70.5317 171.176 69.2978C171.702 67.5232 171.584 65.6809 171.033 63.7989C170.572 62.5902 168.055 60.399 164.975 57.9389ZM164.975 57.9389L164.975 57.9391" stroke="#AB8035" stroke-width="0.181912" stroke-miterlimit="1.5" stroke-linecap="round" stroke-linejoin="round"/>
<path fill-rule="evenodd" clip-rule="evenodd" d="M167.702 55.9309C165.723 53.9506 166.288 53.5633 168.976 54.5048C172.548 56.1321 175.581 58.8292 178.235 62.2773C179.118 63.5597 180.497 64.989 182.327 66.5517C184.147 68.2032 183.021 69.2534 180.755 68.3509L175.06 62.8651C172.361 60.8374 169.961 58.4646 167.702 55.9309L167.702 55.9307L167.702 55.9309Z" fill="#AB8035" stroke="#AB8035" stroke-width="0.181912" stroke-miterlimit="1.5" stroke-linecap="round" stroke-linejoin="round"/>
<path fill-rule="evenodd" clip-rule="evenodd" d="M172.078 55.0435C170.766 53.9437 170.981 53.0794 172.941 53.9955C174.949 55.3793 175.89 55.3863 175.452 53.6154C175.071 52.6713 176.836 53.0594 179.242 53.8459C180.082 54.1647 180.755 54.2391 181.161 53.9207C182.584 52.5183 184.37 52.2697 186.588 53.3934C188.771 54.5039 190.173 55.3924 191.25 56.1884C191.907 57.3974 191.959 58.534 191.624 59.6239C190.8 60.8203 189.856 60.9472 190.093 59.1625C190.337 57.2979 188.154 55.7151 183.948 54.3674C183.356 54.2541 182.497 54.4354 181.528 54.7392C180.487 55.1331 180.79 55.4791 181.202 55.8206C185.959 58.6616 187.636 60.9 189.635 63.2013C191.065 65.0077 190.753 65.154 188.855 63.7898C188.308 63.5218 188.024 63.63 188.298 64.2369C192.017 69.4138 190.327 69.1228 186.311 66.4804C184.368 65.1925 182.985 63.6702 181.967 61.9964C181.485 61.2343 178.057 58.8439 172.077 55.044L172.078 55.0435Z" fill="#AB8035" stroke="#AB8035" stroke-width="0.181912" stroke-miterlimit="1.5" stroke-linecap="round" stroke-linejoin="round"/>
<path fill-rule="evenodd" clip-rule="evenodd" d="M188.306 69.7119C189.52 69.4669 189.833 70.047 189.606 71.1228C187.052 73.6571 183.542 73.4598 179.786 72.5643C177.159 71.547 175.899 71.4514 175.187 71.7247C173.229 72.0672 173.086 71.5146 174.341 70.2717C174.953 69.6333 176.922 70.1949 178.64 70.5338C184.937 72.7887 187.088 71.6339 188.306 69.7119Z" fill="#AB8035" stroke="#AB8035" stroke-width="0.181912" stroke-miterlimit="1.5" stroke-linecap="round" stroke-linejoin="round"/>
<path fill-rule="evenodd" clip-rule="evenodd" d="M168.496 69.808C168.017 67.8379 168.147 66.9792 169.983 69.2258C170.763 69.7828 171.171 70.4309 170.24 71.4068C168.125 72.9223 166.796 72.8959 165.317 73.1631C163.58 72.8102 163.63 72.3403 165.028 71.7818C167.689 71.6387 169.09 71.0647 168.496 69.8082V69.808Z" fill="#AB8035" stroke="#AB8035" stroke-width="0.181912" stroke-miterlimit="1.5" stroke-linecap="round" stroke-linejoin="round"/>
<path fill-rule="evenodd" clip-rule="evenodd" d="M68.7415 323.415C70.0714 326.668 72.6535 328.197 76.3474 328.196C80.4344 326.895 80.3336 325.277 78.0678 323.495C77.1459 323.235 76.5845 322.903 77.1709 322.342C79.233 320.383 76.7852 320.294 73.5706 320.522C73.327 320.558 72.9471 320.486 72.9164 320.765C72.664 323.066 70.2636 323.923 69.3138 323.374C68.7707 323.059 68.747 323.296 68.7415 323.415Z" fill="#AB8035"/>
<path d="M68.7415 323.415C70.0714 326.668 72.6535 328.197 76.3474 328.196C80.4344 326.895 80.3336 325.277 78.0678 323.495C77.1459 323.235 76.5845 322.903 77.1709 322.342C79.233 320.383 76.7852 320.294 73.5706 320.522C73.327 320.558 72.9471 320.486 72.9164 320.765C72.664 323.066 70.2636 323.923 69.3138 323.374C68.7707 323.059 68.747 323.296 68.7415 323.415ZM68.7415 323.415H68.7412" stroke="#AB8035" stroke-width="0.181912" stroke-miterlimit="1.5" stroke-linecap="round" stroke-linejoin="round"/>
<path fill-rule="evenodd" clip-rule="evenodd" d="M81.5867 329.306C82.269 330.104 81.9692 330.505 80.7023 330.514L76.7309 328.884C76.4803 328.474 76.9176 327.9 77.8417 328.29C78.8851 328.92 80.0621 329.21 81.5867 329.306Z" fill="#AB8035" stroke="#AB8035" stroke-width="0.181912" stroke-miterlimit="1.5" stroke-linecap="round" stroke-linejoin="round"/>
<path fill-rule="evenodd" clip-rule="evenodd" d="M64.9927 321.57C66.2386 320.961 66.8155 321.269 66.7401 322.471C66.5441 323.17 66.1889 323.655 65.642 323.88C64.4633 324.188 63.8233 324.039 63.9955 323.202L64.993 321.569L64.9927 321.57Z" fill="#AB8035" stroke="#AB8035" stroke-width="0.181912" stroke-miterlimit="1.5" stroke-linecap="round" stroke-linejoin="round"/>
<path fill-rule="evenodd" clip-rule="evenodd" d="M65.4559 313.169C64.1137 314.708 64.4354 315.171 66.3283 314.617C72.6602 313.081 71.1607 314.068 67.6763 315.694C66.3006 316.286 67.046 316.44 69.1458 316.315C73.2096 316.314 75.0473 315.499 72.0029 312.895C69.6672 310.92 67.5135 311.398 65.4559 313.169V313.169Z" fill="#AB8035" stroke="#AB8035" stroke-width="0.181912" stroke-miterlimit="1.5" stroke-linecap="round" stroke-linejoin="round"/>
<path fill-rule="evenodd" clip-rule="evenodd" d="M223.514 312.962C222.367 314.218 222.831 314.672 225.158 314.201C230.486 309.357 231.627 306.94 229.115 306.641C227.742 306.628 227.282 306.931 227.536 307.481C230.641 308.629 226.353 310.906 223.514 312.962Z" fill="#AB8035"/>
<path d="M223.514 312.962C222.367 314.218 222.831 314.672 225.158 314.201C230.486 309.357 231.627 306.94 229.115 306.641C227.742 306.628 227.282 306.931 227.536 307.481C230.641 308.629 226.353 310.906 223.514 312.962ZM223.514 312.962L223.513 312.963" stroke="#AB8035" stroke-width="0.181912" stroke-miterlimit="1.5" stroke-linecap="round" stroke-linejoin="round"/>
<path fill-rule="evenodd" clip-rule="evenodd" d="M234.04 309.94C234.691 309.757 235.085 310.015 235.231 310.698C235.266 311.258 235.031 311.799 234.045 312.291C232.232 312.316 231.758 311.916 232.348 311.18L234.04 309.94L234.04 309.94Z" fill="#AB8035" stroke="#AB8035" stroke-width="0.181912" stroke-miterlimit="1.5" stroke-linecap="round" stroke-linejoin="round"/>
<path fill-rule="evenodd" clip-rule="evenodd" d="M229.849 314.344C230.442 314.521 230.623 314.898 230.403 315.471C230.157 315.899 229.711 316.185 228.706 316.076C227.288 315.229 227.116 314.708 227.932 314.448L229.849 314.344Z" fill="#AB8035"/>
<path d="M229.849 314.344C230.442 314.521 230.623 314.898 230.403 315.471C230.157 315.899 229.711 316.185 228.706 316.076C227.288 315.229 227.116 314.708 227.932 314.448L229.849 314.344ZM229.849 314.344L229.849 314.344" stroke="#AB8035" stroke-width="0.181912" stroke-miterlimit="1.5" stroke-linecap="round" stroke-linejoin="round"/>
<path fill-rule="evenodd" clip-rule="evenodd" d="M66.6269 308.516C68.8368 308.229 69.1159 308.774 67.755 310.024C64.077 310.784 62.8928 312 61.4143 313.162C59.856 313.537 59.7162 313.017 60.5938 311.855C62.8676 310.395 65.5376 308.414 66.6269 308.516Z" fill="#AB8035" stroke="#AB8035" stroke-width="0.181912" stroke-miterlimit="1.5" stroke-linecap="round" stroke-linejoin="round"/>
<path fill-rule="evenodd" clip-rule="evenodd" d="M237.907 321.251C239.148 320.912 239.112 320.462 238.256 319.94C236.55 319.645 235.269 319.857 234.451 320.617C233.385 321.735 233.091 322.486 233.412 322.945C234.224 323.957 234.929 323.64 235.63 323.271C236.693 322.628 236.478 322.068 235.204 321.577C234.521 321.404 234.549 321.155 234.899 320.871C235.412 320.516 236.632 320.856 237.908 321.251H237.907Z" fill="#AB8035" stroke="#AB8035" stroke-width="0.181912" stroke-miterlimit="1.5" stroke-linecap="round" stroke-linejoin="round"/>
<path fill-rule="evenodd" clip-rule="evenodd" d="M208.523 319.766C207.533 319.942 207.587 320.361 208.163 320.901L209.657 321.455C210.57 321.314 210.653 320.836 210.232 320.154L208.523 319.766Z" fill="#AB8035"/>
<path d="M208.523 319.766C207.533 319.942 207.587 320.361 208.163 320.901L209.657 321.455C210.57 321.314 210.653 320.836 210.232 320.154L208.523 319.766ZM208.523 319.766V319.766" stroke="#AB8035" stroke-width="0.181912" stroke-miterlimit="1.5" stroke-linecap="round" stroke-linejoin="round"/>
<path fill-rule="evenodd" clip-rule="evenodd" d="M230.519 324.018C232.058 324.058 232.744 323.704 231.675 322.537C230.319 321.341 228.983 319.989 227.362 320.786C227.178 320.993 226.808 320.999 226.31 320.868C224.779 321.423 224.293 321.983 224.976 322.549C226.219 323.411 227.47 324.624 228.668 323.275C229.191 322.542 229.619 322.238 229.856 322.803C229.774 323.433 229.683 324.071 230.519 324.018L230.519 324.018L230.519 324.018Z" fill="#AB8035" stroke="#AB8035" stroke-width="0.181912" stroke-miterlimit="1.5" stroke-linecap="round" stroke-linejoin="round"/>
<path fill-rule="evenodd" clip-rule="evenodd" d="M214.547 325.729C213.753 326.429 213.568 326.919 214.014 327.192C214.778 327.52 215.858 326.685 216.904 325.971C217.146 325.121 217.015 324.601 215.913 324.942L214.547 325.729Z" fill="#AB8035" stroke="#AB8035" stroke-width="0.181912" stroke-miterlimit="1.5" stroke-linecap="round" stroke-linejoin="round"/>
<path fill-rule="evenodd" clip-rule="evenodd" d="M220.175 320.197C220.277 319.228 220.66 318.992 221.441 319.787C221.884 320.413 221.982 321.102 221.808 321.841C221.624 322.18 223.104 323.338 224.192 324.303C224.529 325.185 224.653 325.847 223.334 325.04C222.219 323.631 221.066 322.302 219.112 322.603C218.451 322.476 217.881 322.256 217.728 321.611C217.531 320.994 218.01 320.933 218.728 321.071C220.485 322.149 221.158 322.063 220.175 320.198V320.197Z" fill="#AB8035" stroke="#AB8035" stroke-width="0.181912" stroke-miterlimit="1.5" stroke-linecap="round" stroke-linejoin="round"/>
<path fill-rule="evenodd" clip-rule="evenodd" d="M176.908 327.784C178.024 326.925 178.348 327.393 178.345 328.412C175.43 331.365 170.558 334.891 172.063 336.547C172.81 337.771 172.283 338.068 170.953 337.782C170.488 337.439 170.363 336.621 170.367 335.621C170.112 334.83 169.709 335.622 169.282 336.684C168.973 338.074 167.221 336.993 168.419 334.592C168.486 334.452 168.716 334.006 170.036 333.946C172.065 333.853 174.533 330.867 176.908 327.783L176.908 327.784Z" fill="#AB8035" stroke="#AB8035" stroke-width="0.181912" stroke-miterlimit="1.5" stroke-linecap="round" stroke-linejoin="round"/>
<path fill-rule="evenodd" clip-rule="evenodd" d="M176.813 330.632C178.412 329.064 178.62 329.715 177.982 331.714C177.452 332.345 177.078 332.902 177.199 333.816C175.375 339.506 174.007 337.586 172.59 336.086C171.716 335.155 174.578 332.771 176.813 330.632L176.813 330.632Z" fill="#AB8035" stroke="#AB8035" stroke-width="0.181912" stroke-miterlimit="1.5" stroke-linecap="round" stroke-linejoin="round"/>
<path fill-rule="evenodd" clip-rule="evenodd" d="M184.089 333.802C182.46 332.922 182.137 333.787 182.615 335.72C183.895 337.531 186.168 336.4 188.313 335.645C189.286 334.225 187.77 332.694 186.851 333.9C186.071 335.016 185.182 335.248 184.089 333.802Z" fill="#AB8035" stroke="#AB8035" stroke-width="0.181912" stroke-miterlimit="1.5" stroke-linecap="round" stroke-linejoin="round"/>
<path fill-rule="evenodd" clip-rule="evenodd" d="M115.19 331.252C114.636 332.706 115.165 333.236 116.769 332.848C117.447 332.56 118.205 331.967 119.094 330.866C119.336 330.377 119.62 330.327 119.953 330.76C120.06 331.719 120.24 332.185 120.462 332.366C121.537 333.269 121.903 332.441 122.172 331.375C122.206 330.232 121.559 329.254 120.286 328.426C119.529 327.88 118.944 328.031 118.419 328.418L115.191 331.252H115.19Z" fill="#AB8035" stroke="#AB8035" stroke-width="0.181912" stroke-miterlimit="1.5" stroke-linecap="round" stroke-linejoin="round"/>
<path fill-rule="evenodd" clip-rule="evenodd" d="M118.59 333.514C117.201 333.731 117.024 334.42 118.026 335.567C118.985 336.468 119.797 336.315 120.508 335.444C121.365 334.622 122.325 334.791 123.299 335.104C126.283 335.901 126.225 334.875 124.91 333.096C123.872 332.554 122.78 332.524 121.631 333.049C120.352 333.752 119.475 333.624 118.59 333.514L118.59 333.514Z" fill="#AB8035" stroke="#AB8035" stroke-width="0.181912" stroke-miterlimit="1.5" stroke-linecap="round" stroke-linejoin="round"/>
<path fill-rule="evenodd" clip-rule="evenodd" d="M126.178 333.959C125.793 333.024 126.216 332.79 127.172 333.019C128.271 333.607 129.14 334.264 129.766 334.994C130.014 336.044 129.592 336.311 128.601 335.909C127.925 335.126 127.133 334.459 126.177 333.959L126.178 333.959Z" fill="#AB8035" stroke="#AB8035" stroke-width="0.181912" stroke-miterlimit="1.5" stroke-linecap="round" stroke-linejoin="round"/>
<path fill-rule="evenodd" clip-rule="evenodd" d="M128.412 337.098C127.925 337.073 127.533 337.161 127.41 337.561C127.365 338.17 127.577 338.442 128.067 338.35L129.128 338.078C129.345 337.44 129.064 337.142 128.412 337.098Z" fill="#AB8035" stroke="#AB8035" stroke-width="0.181912" stroke-miterlimit="1.5" stroke-linecap="round" stroke-linejoin="round"/>
<path fill-rule="evenodd" clip-rule="evenodd" d="M143.894 334.747C144.918 335.983 144.427 336.273 143.065 336.017C138.578 334.828 135.996 332.757 134.432 330.214C134.182 328.943 134.611 328.781 135.822 329.894C137.133 331.781 138.24 332.603 139.276 333.053C139.673 333.234 139.847 333.121 139.597 332.785C137.053 329.732 138.489 327.956 142.036 326.859C144.15 326.425 147.495 326.55 151.651 327.043C153.09 327.525 153.119 329.048 151.993 328.743C151.297 328.64 150.751 328.672 150.605 329.068C150.794 330.698 149.838 330.752 148.804 330.697C148.209 330.583 148.278 329.946 148.937 328.84C149.271 328.449 149.502 328.103 148.66 328.213C144.925 328.183 143.155 328.588 144.161 329.65C145.598 332.289 144.189 332.778 142.521 331.328C141.855 330.585 141.6 329.87 142.502 329.23C142.849 328.911 142.411 328.572 141.814 328.675C139.091 329.87 138.852 331.667 143.894 334.746L143.894 334.747H143.894Z" fill="#AB8035" stroke="#AB8035" stroke-width="0.181912" stroke-miterlimit="1.5" stroke-linecap="round" stroke-linejoin="round"/>
<path fill-rule="evenodd" clip-rule="evenodd" d="M145.776 334.662C145.602 333.08 146.153 332.535 147.759 333.497C148.449 334.269 149.086 334.294 149.695 333.936L153.976 329.442C154.964 328.393 155.468 328.793 155.624 330.237C156.005 330.631 153.012 333.424 150.24 336.061C149.812 336.311 149.377 336.435 148.918 336.14C148.311 335.657 148.234 336.225 148.451 337.379C147.981 337.419 147.55 337.406 147.161 337.336C146.791 337.27 146.458 337.151 146.164 336.98L145.776 334.662H145.776Z" fill="#AB8035" stroke="#AB8035" stroke-width="0.181912" stroke-miterlimit="1.5" stroke-linecap="round" stroke-linejoin="round"/>
<path fill-rule="evenodd" clip-rule="evenodd" d="M157.893 335.794C156.424 336.216 154.937 336.666 153.825 336.554C153.412 336.43 153.349 336.268 153.877 336.041C155.8 335.896 157.326 334.456 158.562 332.073C158.854 331.676 158.925 331.406 158.631 331.347C157.866 330.876 156.973 330.401 157.01 329.963C156.744 328.335 157.267 328.084 158.172 328.503C158.916 329.526 159.749 330.849 160.129 330.628C161.081 330.56 161.364 330.67 161.567 330.802C163.4 332.166 163.939 332.957 162.848 333.025C161.577 332.775 160.379 332.769 159.522 333.898L157.893 335.794H157.893Z" fill="#AB8035" stroke="#AB8035" stroke-width="0.181912" stroke-miterlimit="1.5" stroke-linecap="round" stroke-linejoin="round"/>
<path fill-rule="evenodd" clip-rule="evenodd" d="M164.599 328.668C163.683 328.768 163.495 329.176 163.742 329.767C164.027 330.214 164.578 330.461 165.244 330.621C166.29 330.78 166.602 330.396 166.257 329.525C166.172 329.215 165.524 328.934 164.599 328.668Z" fill="#AB8035" stroke="#AB8035" stroke-width="0.181912" stroke-miterlimit="1.5" stroke-linecap="round" stroke-linejoin="round"/>
<path fill-rule="evenodd" clip-rule="evenodd" d="M105.703 335.12C105.218 335.92 105.531 336.283 106.877 336.08C107.757 335.458 108.428 335.477 108.893 336.125C110.282 336.875 110.37 336.178 109.992 334.96C108.891 333.689 107.505 333.535 105.703 335.12Z" fill="#AB8035" stroke="#AB8035" stroke-width="0.181912" stroke-miterlimit="1.5" stroke-linecap="round" stroke-linejoin="round"/>
<path fill-rule="evenodd" clip-rule="evenodd" d="M98.941 324.163C98.3988 322.424 99.3536 322.758 100.79 323.759C101.516 324.622 101.237 325.432 99.5334 326.168C98.7551 326.391 98.8219 326.803 99.4462 327.339C100.153 328.237 101.24 328.22 102.666 327.381L105.419 325.029C107.473 323.402 108.416 324.618 108.909 326.989C108.776 327.603 108.407 327.952 106.676 326.768C106.33 326.549 106.024 326.446 105.879 326.813C103.836 329.116 101.599 330.373 98.8452 328.818C96.7641 327.47 96.0634 326.37 98.1005 325.764C99.3272 325.367 99.4687 324.814 98.941 324.164V324.163Z" fill="#AB8035" stroke="#AB8035" stroke-width="0.181912" stroke-miterlimit="1.5" stroke-linecap="round" stroke-linejoin="round"/>
<path fill-rule="evenodd" clip-rule="evenodd" d="M92.7327 325.1C92.5353 326.24 92.9711 326.277 93.7886 325.649C94.1965 325.316 94.5215 324.946 94.6396 324.486C94.6895 323.651 94.2916 323.498 93.5724 323.834C92.9836 324.353 92.8393 324.733 92.7327 325.1Z" fill="#AB8035" stroke="#AB8035" stroke-width="0.181912" stroke-miterlimit="1.5" stroke-linecap="round" stroke-linejoin="round"/>
<path fill-rule="evenodd" clip-rule="evenodd" d="M88.11 321.385C87.3349 321.276 87.0668 321.502 87.5217 322.206L90.4085 325.011C91.6194 325.558 92.0131 325.33 91.3683 324.117C91.1494 323.805 90.8578 323.535 90.4455 323.333C89.776 322.958 89.8546 322.724 90.9492 322.681L93.6379 322.947C95.4444 322.66 94.7834 321.705 93.3343 321.665L88.11 321.385V321.385Z" fill="#AB8035" stroke="#AB8035" stroke-width="0.181912" stroke-miterlimit="1.5" stroke-linecap="round" stroke-linejoin="round"/>
<path fill-rule="evenodd" clip-rule="evenodd" d="M94.547 327.592C94.8505 326.375 95.5467 326.636 96.5015 327.872C98.6927 330.436 96.533 330.653 92.7859 330.012C90.2256 329.35 88.3539 326.811 86.5849 323.992C86.2586 323.397 85.8912 323.195 85.4993 323.224C83.537 322.576 83.3825 321.109 83.844 319.363C84.2037 318.936 84.6211 318.878 85.1583 319.588C85.1163 320.749 85.2848 321.496 85.8018 321.556C86.3532 321.393 86.7494 321.574 86.9915 322.094C90.2128 326.589 93.2343 330.325 94.547 327.592Z" fill="#AB8035" stroke="#AB8035" stroke-width="0.181912" stroke-miterlimit="1.5" stroke-linecap="round" stroke-linejoin="round"/>
<path fill-rule="evenodd" clip-rule="evenodd" d="M111.456 332.059L111.338 335.299C111.326 336.371 111.71 336.868 112.655 336.551L115.619 336.025C115.281 333.41 113.693 332.335 111.456 332.059Z" fill="#AB8035" stroke="#AB8035" stroke-width="0.181912" stroke-miterlimit="1.5" stroke-linecap="round" stroke-linejoin="round"/>
<path fill-rule="evenodd" clip-rule="evenodd" d="M179.178 333.282C178.806 332.45 179.223 332.139 180.528 332.414C181.608 332.938 181.834 333.911 181.461 335.199C180.982 336.141 180.319 336.382 180.112 335.228C180.161 334.192 179.979 333.404 179.178 333.282L179.178 333.282Z" fill="#AB8035" stroke="#AB8035" stroke-width="0.181912" stroke-miterlimit="1.5" stroke-linecap="round" stroke-linejoin="round"/>
<path fill-rule="evenodd" clip-rule="evenodd" d="M178.766 334.973C177.95 334.35 177.736 334.872 177.771 335.867C177.919 336.619 178.387 336.882 178.881 337.104C180.088 337.29 180.3 336.966 179.814 336.285L178.766 334.973Z" fill="#AB8035" stroke="#AB8035" stroke-width="0.181912" stroke-miterlimit="1.5" stroke-linecap="round" stroke-linejoin="round"/>
<path fill-rule="evenodd" clip-rule="evenodd" d="M190.583 326.781C191.249 327.983 190.827 328.525 189.119 328.287C186.311 327.234 185.224 326.022 188.989 324.359C191.315 323.684 192.735 323.98 193.327 325.165C194.247 327.237 195.72 328.735 198.073 329.32C199.278 330.107 199.015 330.568 197.679 330.791C195.546 329.834 193.31 329.015 192.319 326.514C191.259 325.243 190.244 325.976 190.583 326.781L190.583 326.781Z" fill="#AB8035" stroke="#AB8035" stroke-width="0.181912" stroke-miterlimit="1.5" stroke-linecap="round" stroke-linejoin="round"/>
<path fill-rule="evenodd" clip-rule="evenodd" d="M198.224 323.715C198.183 323.145 197.89 322.868 197.072 323.203C195.324 324.419 195.796 325.253 196.563 326.035C197.764 327.059 198.797 327.703 199.687 328.025C200.27 328.078 200.554 328.278 200.203 328.788C199.927 329.745 200.375 329.962 201.399 329.589C202.493 329.3 205.038 326.719 207.509 324.256C208.439 322.161 207.755 320.979 205.171 320.871C204.202 320.963 203.099 321.593 201.723 322.5C200.487 323.151 200.376 323.725 201.416 324.221C202.356 324.351 202.715 324.614 202.149 325.088C200.421 325.565 200.635 326.033 201.058 326.5C201.662 327.339 201.202 327.347 200.125 326.872C198.46 326.251 196.32 325.124 197.603 324.375L198.224 323.715Z" fill="#AB8035" stroke="#AB8035" stroke-width="0.181912" stroke-miterlimit="1.5" stroke-linecap="round" stroke-linejoin="round"/>
<path fill-rule="evenodd" clip-rule="evenodd" d="M207.343 327.419C207.085 328.853 207.663 328.643 208.753 327.423C210.436 324.42 211.916 320.165 213.937 319.246C214.945 318.565 215.133 318.082 213.751 317.979C212.246 317.599 209.635 323.401 207.343 327.419" fill="#AB8035"/>
<path d="M207.343 327.419C207.085 328.853 207.663 328.643 208.753 327.423C210.436 324.42 211.916 320.165 213.937 319.246C214.945 318.565 215.133 318.082 213.751 317.979C212.246 317.599 209.635 323.401 207.343 327.419" stroke="#AB8035" stroke-width="0.181912" stroke-miterlimit="1.5" stroke-linecap="round" stroke-linejoin="round"/>
<path fill-rule="evenodd" clip-rule="evenodd" d="M115.128 202.369C138.926 206.824 161.5 206.44 182.102 202.137L181.959 209.781C159.752 218.75 137.366 218.905 115.259 210.1L115.128 202.369Z" fill="url(#paint10_linear_3913_21576)" stroke="#24211C" stroke-width="0.56786" stroke-miterlimit="1.5" stroke-linecap="round" stroke-linejoin="round"/>
<path fill-rule="evenodd" clip-rule="evenodd" d="M119.023 205.798C117.272 206.212 116.743 206.851 118.69 207.944C138.681 214.722 159.313 214.178 180.482 207.489C181.857 206.394 181.76 205.79 180.578 205.547C159.769 212.946 139.25 213.042 119.023 205.798Z" fill="#1E1B12" stroke="#1E1B12" stroke-width="0.181912" stroke-miterlimit="1.5" stroke-linecap="round" stroke-linejoin="round"/>
<path fill-rule="evenodd" clip-rule="evenodd" d="M228.22 301.878C244.494 315.32 242.461 319.826 220.152 315.617C217.682 315.34 216.026 316.082 215.455 317.342C209.123 335.641 195.789 335.305 178.788 325.213C177.47 324.367 176.238 324.442 175.096 325.479C158.77 341.649 140.846 341.223 121.506 326.092C119.933 324.927 118.239 325.099 116.813 325.72C98.9885 336.367 86.3288 335.069 79.6314 317.055C79.1869 316.414 78.4959 316.144 77.4939 316.341C59.696 318.834 52.5346 314.551 68.4292 302.567C69.3883 301.363 69.4654 301.634 68.6599 301.769C50.2166 312.129 56.2333 323.351 77.0713 318.561C85.2145 337.459 99.4818 337.741 119.634 326.719C139.042 344.246 157.882 343.307 177.261 326.359C195.597 339.22 210.116 338.002 218.182 317.8C240.818 321.195 253.902 316.642 228.22 301.878L228.22 301.878L228.22 301.878Z" fill="#AB8035" stroke="#AB8035" stroke-width="0.181912" stroke-miterlimit="1.5" stroke-linecap="round" stroke-linejoin="round"/>
<path fill-rule="evenodd" clip-rule="evenodd" d="M129.101 270.976C126.592 292.101 114.172 297.21 96.3244 298.565C65.2231 300.101 69.7577 309.93 95.6556 315.701C136.69 324.553 175.306 321.185 211.947 311.76C223.623 308.306 220.55 300.804 211.481 300.476C184.368 300.117 168.064 292.433 168.21 270.109C155.238 273.966 142.203 274.334 129.101 270.976Z" fill="url(#paint11_linear_3913_21576)"/>
<path fill-rule="evenodd" clip-rule="evenodd" d="M92.4585 298.835C82.7317 301.403 83.2597 305.794 90.3781 310.789C105.668 318.927 140.158 315.6 145.018 295.847C145.8 291.741 145.391 285.915 144.839 280.831C142.876 275.174 137.259 272.79 130.022 271.859C127.846 296.867 116.098 304.326 99.5292 302.949C95.1633 301.923 94.9462 300.323 99.4111 298.287" fill="url(#paint12_linear_3913_21576)"/>
<path fill-rule="evenodd" clip-rule="evenodd" d="M154.22 274.89C146.533 279.975 147.416 295.715 154.32 305.733C163.827 316.608 182.376 317.54 208.226 310.446C212.57 306.907 211.118 299.742 204.829 301.457C179.724 307.756 168.053 298.549 165.988 271.906C161.799 271.94 157.67 272.963 154.22 274.89Z" fill="#BD944A"/>
<path fill-rule="evenodd" clip-rule="evenodd" d="M154.22 274.89C146.533 279.975 147.416 295.715 154.32 305.733C163.827 316.608 182.376 317.54 208.226 310.446C212.57 306.907 211.118 299.742 204.829 301.457C179.724 307.756 168.053 298.549 165.988 271.906C161.799 271.94 157.67 272.963 154.22 274.89Z" fill="url(#paint13_linear_3913_21576)"/>
<path fill-rule="evenodd" clip-rule="evenodd" d="M163.98 273.918C162.801 299.444 175.832 308.687 198.292 307.127C178.041 311.052 157.162 311.923 154.018 294.004C152.898 289.39 152.706 282.431 154.169 280.001C156.554 276.355 159.922 274.506 163.98 273.918Z" fill="#411152"/>
<path fill-rule="evenodd" clip-rule="evenodd" d="M106.391 307.868C126.806 311.012 140.416 305.475 142.025 284.626C141.749 278.894 138.682 275.804 133.797 274.434C131.59 298.237 121.384 306.243 106.391 307.868Z" fill="#662C6F"/>
<path fill-rule="evenodd" clip-rule="evenodd" d="M133.365 291.148C132.439 291.152 131.609 291.379 131.292 292.797C132.595 295.311 133.609 297.988 134.342 300.825C136.327 299.046 137.803 296.959 138.614 294.467C137.411 292.859 135.62 291.79 133.365 291.148Z" fill="#976D21"/>
<path fill-rule="evenodd" clip-rule="evenodd" d="M155.905 294.469C156.464 297.535 157.753 299.573 159.426 301.07L163.566 293.943C163.85 292.443 163.453 291.553 161.706 291.868L155.905 294.469Z" fill="#7E5C1F"/>
<path fill-rule="evenodd" clip-rule="evenodd" d="M137.63 278.535L134.742 282.657C134.662 284.848 135.887 286.026 138.016 286.502L141.46 283.473C140.711 281.124 139.437 279.475 137.63 278.535Z" fill="#976D21"/>
<path fill-rule="evenodd" clip-rule="evenodd" d="M158.158 278.871C155.52 280.068 154.724 282.175 155.154 284.888L159.394 283.933C160.332 283.534 160.664 282.904 160.192 281.968L158.158 278.871Z" fill="#7E5C1F"/>
<path d="M129.635 216.375L129.192 227.917" stroke="black" stroke-width="0.717815" stroke-miterlimit="1.5" stroke-linecap="round" stroke-linejoin="round"/>
<path d="M132.521 217.355L132.436 229.047" stroke="black" stroke-width="0.717815" stroke-miterlimit="1.5" stroke-linecap="round" stroke-linejoin="round"/>
<path d="M135.307 217.891L135.052 229.416" stroke="black" stroke-width="0.717815" stroke-miterlimit="1.5" stroke-linecap="round" stroke-linejoin="round"/>
<path d="M137.76 218.379L137.734 229.843" stroke="black" stroke-width="0.717815" stroke-miterlimit="1.5" stroke-linecap="round" stroke-linejoin="round"/>
<path d="M141.167 218.941L141.315 231.218" stroke="black" stroke-width="0.717815" stroke-miterlimit="1.5" stroke-linecap="round" stroke-linejoin="round"/>
<path d="M144.271 219.203L144.414 231.337" stroke="black" stroke-width="0.717815" stroke-miterlimit="1.5" stroke-linecap="round" stroke-linejoin="round"/>
<path d="M147.984 219.34L148.113 231.406" stroke="black" stroke-width="0.717815" stroke-miterlimit="1.5" stroke-linecap="round" stroke-linejoin="round"/>
<path d="M151.046 219.297L151.256 231.121" stroke="black" stroke-width="0.717815" stroke-miterlimit="1.5" stroke-linecap="round" stroke-linejoin="round"/>
<path d="M155.399 219.148L155.678 230.473" stroke="black" stroke-width="0.717815" stroke-miterlimit="1.5" stroke-linecap="round" stroke-linejoin="round"/>
<path d="M159.389 218.473L159.386 229.874" stroke="black" stroke-width="0.717815" stroke-miterlimit="1.5" stroke-linecap="round" stroke-linejoin="round"/>
<path d="M162.626 218.133L162.869 229.251" stroke="black" stroke-width="0.717815" stroke-miterlimit="1.5" stroke-linecap="round" stroke-linejoin="round"/>
<path d="M165.904 217.062L165.664 227.608" stroke="black" stroke-width="0.717815" stroke-miterlimit="1.5" stroke-linecap="round" stroke-linejoin="round"/>
<path fill-rule="evenodd" clip-rule="evenodd" d="M148.854 308.688L141.871 312.972C144.74 313.972 147.452 315.335 149.988 317.106C151.589 315.356 153.414 313.97 155.54 313.073L148.854 308.688Z" fill="#976D21"/>
<path d="M148.18 262.434C155.084 262.434 160.68 257.328 160.68 251.03C160.68 244.731 155.084 239.625 148.18 239.625C141.277 239.625 135.681 244.731 135.681 251.03C135.681 257.328 141.277 262.434 148.18 262.434Z" fill="#BD944A" stroke="#BD944A" stroke-width="0.378574" stroke-miterlimit="1.5" stroke-linecap="round" stroke-linejoin="round"/>
<path d="M130.382 259.988C136.722 259.988 141.862 254.984 141.862 248.81C141.862 242.637 136.722 237.633 130.382 237.633C124.041 237.633 118.901 242.637 118.901 248.81C118.901 254.984 124.041 259.988 130.382 259.988Z" fill="#BD944A" stroke="#BD944A" stroke-width="0.378574" stroke-miterlimit="1.5" stroke-linecap="round" stroke-linejoin="round"/>
<path d="M166.401 259.172C172.766 259.172 177.925 254.331 177.925 248.359C177.925 242.388 172.766 237.547 166.401 237.547C160.037 237.547 154.878 242.388 154.878 248.359C154.878 254.331 160.037 259.172 166.401 259.172Z" fill="#BD944A" stroke="#BD944A" stroke-width="0.378574" stroke-miterlimit="1.5" stroke-linecap="round" stroke-linejoin="round"/>
<path d="M93.0322 69.6956C97.608 69.6956 101.317 66.0631 101.317 61.5822C101.317 57.1013 97.608 53.4688 93.0322 53.4688C88.4565 53.4688 84.7471 57.1013 84.7471 61.5822C84.7471 66.0631 88.4565 69.6956 93.0322 69.6956Z" fill="#662C6E"/>
<path d="M50.7404 65.0176C54.2079 65.0176 57.0188 61.8298 57.0188 57.8975C57.0188 53.9651 54.2079 50.7773 50.7404 50.7773C47.2729 50.7773 44.4619 53.9651 44.4619 57.8975C44.4619 61.8298 47.2729 65.0176 50.7404 65.0176Z" fill="#662C6F"/>
<path d="M148.488 71.5941C153.064 71.5941 156.773 67.9616 156.773 63.4806C156.773 58.9997 153.064 55.3672 148.488 55.3672C143.912 55.3672 140.203 58.9997 140.203 63.4806C140.203 67.9616 143.912 71.5941 148.488 71.5941Z" fill="#4F1B5E"/>
<path d="M148.057 258.386C152.238 258.386 155.627 255.007 155.627 250.839C155.627 246.672 152.238 243.293 148.057 243.293C143.876 243.293 140.487 246.672 140.487 250.839C140.487 255.007 143.876 258.386 148.057 258.386Z" fill="#4F1B5D"/>
<path d="M130.795 256.414C135.444 256.414 139.212 252.682 139.212 248.078C139.212 243.474 135.444 239.742 130.795 239.742C126.146 239.742 122.377 243.474 122.377 248.078C122.377 252.682 126.146 256.414 130.795 256.414Z" fill="#4F1B5D"/>
<path d="M166.189 255.417C170.513 255.417 174.018 251.94 174.018 247.652C174.018 243.363 170.513 239.887 166.189 239.887C161.865 239.887 158.36 243.363 158.36 247.652C158.36 251.94 161.865 255.417 166.189 255.417Z" fill="#4F1B5D"/>
<path d="M202.732 68.8276C207.186 68.8276 210.796 65.3676 210.796 61.0994C210.796 56.8312 207.186 53.3711 202.732 53.3711C198.278 53.3711 194.667 56.8312 194.667 61.0994C194.667 65.3676 198.278 68.8276 202.732 68.8276Z" fill="#411153"/>
<path d="M242.907 66.0314C246.567 66.0314 249.534 62.6281 249.534 58.4298C249.534 54.2315 246.567 50.8281 242.907 50.8281C239.247 50.8281 236.28 54.2315 236.28 58.4298C236.28 62.6281 239.247 66.0314 242.907 66.0314Z" fill="#411052"/>
<path fill-rule="evenodd" clip-rule="evenodd" d="M295.752 17.8462C291.17 12.5957 281.504 10.1063 263.41 7.6033C175.595 -3.53579 99.3491 -0.850756 28.7978 8.24339C14.7284 10.275 3.37015 12.7274 1.46505 17.2889C0.690972 22.0307 5.69786 25.3878 5.87509 25.5534C26.8654 45.1814 249.442 50.3745 290.884 27.9438C295.375 25.9966 297.039 22.6507 295.753 17.8457V17.8459L295.752 17.8462Z" fill="#977323" stroke="#24211C" stroke-width="0.56786" stroke-miterlimit="1.5" stroke-linecap="round" stroke-linejoin="round"/>
<path fill-rule="evenodd" clip-rule="evenodd" d="M155.977 201.635L152.005 201.182C155.246 194.914 160.41 189.735 167.614 185.711C171.439 182.963 174.23 179.773 176.017 176.156C177.068 179 176.953 181.797 174.876 184.516C180.837 185.012 188.417 181.837 189.614 171.959C190.311 166.205 191.468 164.312 192.588 162.494C198.85 169.675 194.654 176.628 187.554 183.518C194.163 179.798 206.647 168.239 208.055 162.228C209.057 160.023 205.148 154.112 200.887 149.861C204.246 148.322 205.821 146.913 203.449 143.5C202.324 141.997 202.058 138.908 202.758 134.033C206.121 135.794 209.834 140.504 213.843 147.716C215.046 146.919 215.936 145.714 216.662 144.294C219.025 151.908 214.49 161.413 206.59 171.84C216.502 164.752 229.894 152.526 227.78 140.099C224.739 128.64 217.441 124.096 207.817 124.933C215.289 116.74 230.166 119.672 232.759 137.242C235.417 124.739 234.06 114.243 223.716 108.239C214.439 106.219 207.703 109.998 202.752 117.847C199.507 114.694 200.492 110.374 205.249 105.471C192.385 102.84 186.889 97.021 192.349 86.4619C195.883 95.4016 202.604 98.9224 213.167 99.0245C205.955 92.8171 206.182 89.0121 211.051 86.7064C210.205 91.3035 217.403 97.0846 227.873 103.347C226.151 91.5563 230.532 85.3067 241.456 84.6288C243.402 84.6901 243.964 85.4626 244.099 86.6641C232.683 92.5643 234.096 102.902 237.894 114.065C240.383 125.242 239.482 135.45 236.921 145.182C242.271 138.266 244.186 130.21 247.155 118.046C251.033 107.337 253.841 96.2702 253.334 84.0991C257.657 92.6464 263.293 90.3954 269.839 80.668C266.915 87.8704 266.317 94.6064 269.16 100.652C260.15 100.829 256.381 107.378 255.374 115.617C259.329 113.003 264.025 115.089 268.144 119.342C256.481 121.635 248.98 128.363 244.672 139.321C249.256 136.731 253.653 138.312 257.822 144.942C248.225 143.603 241.435 146.778 230.736 157.669C235.351 159.333 238.752 161.929 241.167 165.285C230.763 163.52 220.851 167.007 211.407 175.497C218.433 174.358 222.489 176.614 224.401 181.321C213.917 177.797 202.677 180.032 191.043 185.265C196.635 186.83 197.867 190.281 196.614 194.806C189.196 184.171 164.283 189.099 155.977 201.634L155.977 201.635Z" fill="url(#paint14_linear_3913_21576)" stroke="#24211C" stroke-width="0.56786" stroke-miterlimit="1.5" stroke-linecap="round" stroke-linejoin="round"/>
<path fill-rule="evenodd" clip-rule="evenodd" d="M141.156 202.36C140.396 197.499 138.2 192.958 135.03 188.633C128.021 184.347 124.108 179.699 123.42 174.675C121.018 177.204 120.507 180.511 124.661 185.736C114.446 184.003 106.887 177.395 104.113 161.999C97.912 166.782 99.1623 173.025 105.717 180.309C93.6796 173.656 86.3997 166.227 88.0974 157.336C89.0245 153.157 90.9268 149.188 94.0783 145.487C95.1544 142.327 94.7313 138.923 93.2418 135.346C86.4399 138.998 83.7447 144.143 82.6522 149.872C82.4914 147.646 82.0121 145.632 80.0596 144.599C77.1038 147.167 76.5776 151.138 80.3986 156.619C82.2201 159.66 83.7115 163.052 85.1356 166.517C74.2572 158.741 66.7311 149.942 67.459 138.623C71.1102 128.951 78.0472 125.397 87.9855 127.43C87.8113 121.723 84.3064 118.89 75.2012 120.893C67.3249 124.385 64.2222 128.954 64.4538 134.277C64.016 139.062 63.3934 141.005 62.7304 142.325C58.3091 133.941 59.5937 125.066 65.0744 115.829C74.065 103.574 89.2983 108.919 94.6457 121.184C97.1803 113.66 96.3414 107.697 89.9096 104.325C103.176 103.442 111.223 92.3603 103.237 86.9094C98.6479 94.9192 90.2983 99.3143 77.6657 100.947C86.8712 97.1605 89.8387 92.4929 86.3371 86.669C84.5141 90.9966 81.6322 94.8635 75.0819 98.4694C72.4923 99.8951 70.4762 102.579 68.3671 104.321C72.5123 91.7938 67.0049 85.3476 53.4653 83.9617C54.3117 87.7862 56.2086 90.0665 59.7332 92.6147C64.0532 95.7379 61.2909 104.324 58.6237 109.667C53.5299 121.125 54.5251 132.747 58.8009 144.458C51.4768 142.436 43.4437 100.994 43.5868 97.5333C43.3668 93.8576 45.603 89.6181 49.0572 84.5756C42.0521 86.7779 38.1151 91.3631 37.8383 98.7914C33.375 94.6691 28.0963 79.3883 28.985 79C27.1947 82.9947 26.1677 87.2563 26.2112 91.6831C26.7424 97.0094 27.974 100.078 29.3726 101.585L38.4516 110.021C39.9595 111.966 40.9643 114.104 40.295 116.883C32.9921 110.144 27.9268 109.918 25.7002 117.956C33.9062 119.011 41.4041 128.529 48.5402 139.081C40.5611 138.869 35.9152 139.885 37.4541 144.444C45.9417 143.987 55.9305 148.78 67.3464 158.56C59.1811 158.762 54.0294 160.784 52.0032 164.694C63.0899 164.167 73.5173 166.586 82.9302 173.535C75.6223 174.167 71.0151 176.955 69.7031 180.789C77.8742 179.129 85.8278 178.537 93.4173 181.632C97.4554 183.439 101.562 184.604 105.708 185.401C98.1164 187.562 95.1906 190.747 95.8406 194.717C114.271 187.442 133.763 189.174 137.999 201.972C138.339 202.998 141.156 202.36 141.156 202.36V202.361L141.156 202.36Z" fill="url(#paint15_linear_3913_21576)" stroke="#24211C" stroke-width="0.56786" stroke-miterlimit="1.5" stroke-linecap="round" stroke-linejoin="round"/>
<path d="M3.06934 30.6836C36.186 57.3318 250.63 55.066 292.337 32.9108" stroke="black" stroke-width="0.181912" stroke-miterlimit="1.5" stroke-linecap="round" stroke-linejoin="round"/>
<path d="M4.56445 34.3594C37.8871 59.3412 249.122 57.2982 290.61 36.9195" stroke="black" stroke-width="0.181912" stroke-miterlimit="1.5" stroke-linecap="round" stroke-linejoin="round"/>
<path fill-rule="evenodd" clip-rule="evenodd" d="M278.681 18.0458C274.632 14.132 266.759 12.4414 250.77 10.5754C180.044 2.43436 111 3.94719 42.9258 10.8061C30.4932 12.3209 20.3099 14.2302 18.6265 17.6307C17.9425 21.1654 22.3668 23.6682 22.5233 23.7916C41.0719 38.4236 237.758 42.2949 274.379 25.5734C278.348 24.1218 279.818 21.6276 278.681 18.0458Z" fill="url(#paint16_linear_3913_21576)"/>
<path d="M278.681 18.0458C274.632 14.132 266.759 12.4414 250.77 10.5754C180.044 2.43436 111 3.94719 42.9258 10.8061C30.4932 12.3209 20.3099 14.2302 18.6265 17.6307C17.9425 21.1654 22.3668 23.6682 22.5233 23.7916C41.0719 38.4236 237.758 42.2949 274.379 25.5734C278.348 24.1218 279.818 21.6276 278.681 18.0458ZM278.681 18.0458L278.682 18.0461" stroke="#24211C" stroke-width="0.181912" stroke-miterlimit="1.5" stroke-linecap="round" stroke-linejoin="round"/>
<path fill-rule="evenodd" clip-rule="evenodd" d="M12.6325 64.6423C10.2419 61.8609 10.5579 59.609 13.1812 57.8086C22.4756 69.5444 96.6351 76.5944 149.009 75.0929C206.56 77.0246 284.721 68.2059 283.915 59.189C287.965 60.5999 287.604 63.4614 283.954 67.3266C258.465 79.3893 196.858 82.5229 148.951 81.9218C95.3885 83.0725 28.6502 75.7621 12.6328 64.6423H12.6325Z" fill="url(#paint17_linear_3913_21576)" stroke="#24211C" stroke-width="0.56786" stroke-miterlimit="1.5" stroke-linecap="round" stroke-linejoin="round"/>
<path fill-rule="evenodd" clip-rule="evenodd" d="M4.95827 34.8858L3.02246 30.7461C16.1211 44.2376 73.4372 49.0518 148.054 50.2419C207.419 49.3825 261.682 46.2624 292.293 33.2682C292.123 34.5411 291.331 35.6492 290.693 36.9606C263.899 46.9471 216.398 52.1474 147.952 52.5069C87.7936 51.6187 29.8886 49.8311 4.95777 34.8856H4.95802L4.95827 34.8858Z" fill="#8A6522" stroke="#24211C" stroke-width="0.56786" stroke-miterlimit="1.5" stroke-linecap="round" stroke-linejoin="round"/>
<g clip-path="url(#clip0_3913_21576)">
<path d="M147.253 90.0557C147.261 90.0573 147.275 90.0635 147.289 90.0781C147.303 90.0926 147.308 90.1071 147.31 90.1162C147.31 90.1203 147.31 90.1243 147.309 90.1289C147.308 90.1335 147.305 90.1427 147.297 90.1562L121.824 132.237C121.801 132.276 121.75 132.278 121.724 132.247C120.621 130.933 118.03 127.492 116.979 123.13C115.938 118.802 116.406 113.552 121.436 108.509C130.814 99.1047 142.775 92.3885 147.215 90.0645C147.229 90.0572 147.238 90.0553 147.242 90.0547C147.246 90.0541 147.25 90.055 147.253 90.0557Z" fill="#FFFBF6" stroke="#3F3F3F"/>
<path d="M111.314 121.84C111.317 121.842 111.319 121.845 111.321 121.85C111.323 121.854 111.327 121.864 111.328 121.883C111.547 125.034 112.962 128.411 114.612 131.501C116.261 134.588 118.197 137.476 119.467 139.586C122.086 143.936 141.008 172.858 146.692 181.539C146.703 181.555 146.706 181.565 146.707 181.569C146.708 181.574 146.708 181.578 146.707 181.581C146.706 181.589 146.7 181.606 146.684 181.622C146.667 181.638 146.651 181.643 146.644 181.644C146.641 181.644 146.638 181.644 146.634 181.644C146.63 181.643 146.62 181.639 146.604 181.628L145.816 181.074L125.323 166.673C112.081 157.367 105.985 140.751 110.183 125.096C110.515 123.855 110.872 122.77 111.207 121.861C111.213 121.844 111.22 121.836 111.223 121.833C111.225 121.83 111.228 121.828 111.23 121.826C111.237 121.823 111.252 121.818 111.273 121.821C111.295 121.825 111.308 121.834 111.314 121.84Z" fill="#FFFBF6" stroke="#3F3F3F"/>
<path d="M175.716 139.469C175.739 139.431 175.79 139.428 175.816 139.459C176.919 140.773 179.51 144.214 180.561 148.576C181.602 152.904 181.134 158.154 176.104 163.197C166.726 172.601 154.765 179.318 150.325 181.642C150.311 181.649 150.302 181.651 150.298 181.651C150.294 181.652 150.291 181.651 150.287 181.65C150.279 181.649 150.265 181.643 150.251 181.628C150.238 181.613 150.232 181.599 150.23 181.59C150.23 181.586 150.23 181.581 150.231 181.576L150.243 181.549L175.716 139.469Z" fill="#FFFBF6" stroke="#3F3F3F"/>
<path d="M150.935 90.0557C150.938 90.0566 150.948 90.0595 150.964 90.0703L172.245 105.026C185.487 114.332 191.582 130.947 187.385 146.603C187.052 147.843 186.696 148.928 186.361 149.837C186.355 149.854 186.348 149.863 186.346 149.866C186.343 149.869 186.34 149.871 186.338 149.872C186.332 149.876 186.316 149.881 186.295 149.878C186.274 149.875 186.26 149.865 186.254 149.859C186.251 149.857 186.249 149.853 186.247 149.849C186.245 149.844 186.241 149.835 186.239 149.816V149.815C186.02 146.664 184.606 143.288 182.956 140.198C181.307 137.111 179.371 134.222 178.101 132.112C175.481 127.761 156.561 98.8408 150.876 90.1602C150.865 90.1438 150.862 90.1331 150.861 90.1289C150.86 90.1247 150.86 90.1215 150.86 90.1182C150.862 90.11 150.868 90.0934 150.885 90.0771C150.901 90.0609 150.918 90.0556 150.925 90.0547C150.928 90.0544 150.931 90.0547 150.935 90.0557Z" fill="#FFFBF6" stroke="#3F3F3F"/>
</g>
<defs>
<linearGradient id="paint0_linear_3913_21576" x1="46.5684" y1="327.051" x2="251.052" y2="327.051" gradientUnits="userSpaceOnUse">
<stop stop-color="#B2822A"/>
<stop offset="0.697115" stop-color="#8A6522"/>
</linearGradient>
<linearGradient id="paint1_linear_3913_21576" x1="51.8555" y1="323.303" x2="245.988" y2="323.303" gradientUnits="userSpaceOnUse">
<stop stop-color="#B2822A"/>
<stop offset="0.697115" stop-color="#8A6522"/>
</linearGradient>
<linearGradient id="paint2_linear_3913_21576" x1="68.252" y1="309.331" x2="226.865" y2="309.331" gradientUnits="userSpaceOnUse">
<stop stop-color="#B2822A"/>
<stop offset="0.697115" stop-color="#8A6522"/>
</linearGradient>
<linearGradient id="paint3_linear_3913_21576" x1="71.8564" y1="295.301" x2="223.847" y2="295.301" gradientUnits="userSpaceOnUse">
<stop stop-color="#B2822A"/>
<stop offset="0.697115" stop-color="#8A6522"/>
</linearGradient>
<linearGradient id="paint4_linear_3913_21576" x1="120.722" y1="265.08" x2="175.01" y2="265.08" gradientUnits="userSpaceOnUse">
<stop stop-color="#B2822A"/>
<stop offset="0.697115" stop-color="#8A6522"/>
</linearGradient>
<linearGradient id="paint5_linear_3913_21576" x1="115.183" y1="249.12" x2="181.043" y2="249.12" gradientUnits="userSpaceOnUse">
<stop stop-color="#B2822A"/>
<stop offset="0.697115" stop-color="#8A6522"/>
</linearGradient>
<linearGradient id="paint6_linear_3913_21576" x1="119.801" y1="232.725" x2="175.049" y2="232.725" gradientUnits="userSpaceOnUse">
<stop stop-color="#B2822A"/>
<stop offset="0.697115" stop-color="#8A6522"/>
</linearGradient>
<linearGradient id="paint7_linear_3913_21576" x1="115.259" y1="221.403" x2="181.959" y2="221.403" gradientUnits="userSpaceOnUse">
<stop stop-color="#B2822A"/>
<stop offset="0.697115" stop-color="#8A6522"/>
</linearGradient>
<linearGradient id="paint8_linear_3913_21576" x1="201.52" y1="135.054" x2="99.182" y2="135.054" gradientUnits="userSpaceOnUse">
<stop offset="0.211538" stop-color="#401052"/>
<stop offset="0.985577" stop-color="#652C6E"/>
</linearGradient>
<linearGradient id="paint9_linear_3913_21576" x1="4.95898" y1="55.0716" x2="290.694" y2="55.0716" gradientUnits="userSpaceOnUse">
<stop stop-color="#6F4E1B"/>
<stop offset="1" stop-color="#573D16"/>
</linearGradient>
<linearGradient id="paint10_linear_3913_21576" x1="115.128" y1="209.372" x2="182.102" y2="209.372" gradientUnits="userSpaceOnUse">
<stop stop-color="#B2822A"/>
<stop offset="0.697115" stop-color="#8A6522"/>
</linearGradient>
<linearGradient id="paint11_linear_3913_21576" x1="175.514" y1="295.478" x2="120.846" y2="295.478" gradientUnits="userSpaceOnUse">
<stop offset="0.211538" stop-color="#401052"/>
<stop offset="0.985577" stop-color="#652C6E"/>
</linearGradient>
<linearGradient id="paint12_linear_3913_21576" x1="85.0879" y1="293.391" x2="145.452" y2="293.391" gradientUnits="userSpaceOnUse">
<stop offset="0.384615" stop-color="#976C1D"/>
<stop offset="1" stop-color="#986E22"/>
</linearGradient>
<linearGradient id="paint13_linear_3913_21576" x1="148.792" y1="293.451" x2="210.721" y2="293.451" gradientUnits="userSpaceOnUse">
<stop stop-color="#856020"/>
<stop offset="1" stop-color="#8A6522"/>
</linearGradient>
<linearGradient id="paint14_linear_3913_21576" x1="152.005" y1="141.151" x2="269.839" y2="141.151" gradientUnits="userSpaceOnUse">
<stop stop-color="#976E25"/>
<stop offset="1" stop-color="#8A6522"/>
</linearGradient>
<linearGradient id="paint15_linear_3913_21576" x1="25.7002" y1="140.778" x2="141.156" y2="140.778" gradientUnits="userSpaceOnUse">
<stop offset="0.384615" stop-color="#A67723"/>
<stop offset="1" stop-color="#72531B"/>
</linearGradient>
<linearGradient id="paint16_linear_3913_21576" x1="18.5547" y1="20.7908" x2="279.054" y2="20.7908" gradientUnits="userSpaceOnUse">
<stop stop-color="#66501E"/>
<stop offset="1" stop-color="#AB832B"/>
</linearGradient>
<linearGradient id="paint17_linear_3913_21576" x1="11.0127" y1="69.9246" x2="286.823" y2="69.9246" gradientUnits="userSpaceOnUse">
<stop stop-color="#B2822A"/>
<stop offset="0.697115" stop-color="#8A6522"/>
</linearGradient>
<clipPath id="clip0_3913_21576">
<rect width="81" height="93" fill="white" transform="translate(108.284 89.2852)"/>
</clipPath>
</defs>
</svg>
